<?xml version="1.0" encoding="utf-8" standalone="no"?>
<!DOCTYPE svg PUBLIC "-//W3C//DTD SVG 1.1//EN"
  "http://www.w3.org/Graphics/SVG/1.1/DTD/svg11.dtd">
<svg xmlns:xlink="http://www.w3.org/1999/xlink" width="460.231654pt" height="345.330709pt" viewBox="0 0 460.231654 345.330709" xmlns="http://www.w3.org/2000/svg" version="1.1">
 <metadata>
  <rdf:RDF xmlns:dc="http://purl.org/dc/elements/1.1/" xmlns:cc="http://creativecommons.org/ns#" xmlns:rdf="http://www.w3.org/1999/02/22-rdf-syntax-ns#">
   <cc:Work>
    <dc:type rdf:resource="http://purl.org/dc/dcmitype/StillImage"/>
    <dc:date>2026-03-23T13:26:29.382752</dc:date>
    <dc:format>image/svg+xml</dc:format>
    <dc:creator>
     <cc:Agent>
      <dc:title>Matplotlib v3.10.8, https://matplotlib.org/</dc:title>
     </cc:Agent>
    </dc:creator>
   </cc:Work>
  </rdf:RDF>
 </metadata>
 <defs>
  <style type="text/css">*{stroke-linejoin: round; stroke-linecap: butt}</style>
 </defs>
 <g id="figure_1">
  <g id="patch_1">
   <path d="M 0 345.330709 
L 460.231654 345.330709 
L 460.231654 0 
L 0 0 
z
" style="fill: #ffffff"/>
  </g>
  <g id="axes_1">
   <g id="patch_2">
    <path d="M 57.528957 307.344331 
L 414.208488 307.344331 
L 414.208488 41.439685 
L 57.528957 41.439685 
z
" style="fill: #ffffff"/>
   </g>
   <g id="matplotlib.axis_1">
    <g id="xtick_1">
     <g id="line2d_1">
      <path d="M 95.375165 307.344331 
L 95.375165 41.439685 
" clip-path="url(#pae958c25b1)" style="fill: none; stroke: #b0b0b0; stroke-width: 0.8; stroke-linecap: square"/>
     </g>
     <g id="line2d_2">
      <defs>
       <path id="mf05e732f2e" d="M 0 0 
L 0 3.5 
" style="stroke: #000000; stroke-width: 0.8"/>
      </defs>
      <g>
       <use xlink:href="#mf05e732f2e" x="95.375165" y="307.344331" style="stroke: #000000; stroke-width: 0.8"/>
      </g>
     </g>
     <g id="text_1">
      <!-- −0.50 -->
      <g transform="translate(80.052509 321.942768) scale(0.1 -0.1)">
       <defs>
        <path id="DejaVuSans-2212" d="M 678 2272 
L 4684 2272 
L 4684 1741 
L 678 1741 
L 678 2272 
z
" transform="scale(0.015625)"/>
        <path id="DejaVuSans-30" d="M 2034 4250 
Q 1547 4250 1301 3770 
Q 1056 3291 1056 2328 
Q 1056 1369 1301 889 
Q 1547 409 2034 409 
Q 2525 409 2770 889 
Q 3016 1369 3016 2328 
Q 3016 3291 2770 3770 
Q 2525 4250 2034 4250 
z
M 2034 4750 
Q 2819 4750 3233 4129 
Q 3647 3509 3647 2328 
Q 3647 1150 3233 529 
Q 2819 -91 2034 -91 
Q 1250 -91 836 529 
Q 422 1150 422 2328 
Q 422 3509 836 4129 
Q 1250 4750 2034 4750 
z
" transform="scale(0.015625)"/>
        <path id="DejaVuSans-2e" d="M 684 794 
L 1344 794 
L 1344 0 
L 684 0 
L 684 794 
z
" transform="scale(0.015625)"/>
        <path id="DejaVuSans-35" d="M 691 4666 
L 3169 4666 
L 3169 4134 
L 1269 4134 
L 1269 2991 
Q 1406 3038 1543 3061 
Q 1681 3084 1819 3084 
Q 2600 3084 3056 2656 
Q 3513 2228 3513 1497 
Q 3513 744 3044 326 
Q 2575 -91 1722 -91 
Q 1428 -91 1123 -41 
Q 819 9 494 109 
L 494 744 
Q 775 591 1075 516 
Q 1375 441 1709 441 
Q 2250 441 2565 725 
Q 2881 1009 2881 1497 
Q 2881 1984 2565 2268 
Q 2250 2553 1709 2553 
Q 1456 2553 1204 2497 
Q 953 2441 691 2322 
L 691 4666 
z
" transform="scale(0.015625)"/>
       </defs>
       <use xlink:href="#DejaVuSans-2212"/>
       <use xlink:href="#DejaVuSans-30" transform="translate(83.789062 0)"/>
       <use xlink:href="#DejaVuSans-2e" transform="translate(147.412109 0)"/>
       <use xlink:href="#DejaVuSans-35" transform="translate(179.199219 0)"/>
       <use xlink:href="#DejaVuSans-30" transform="translate(242.822266 0)"/>
      </g>
     </g>
    </g>
    <g id="xtick_2">
     <g id="line2d_3">
      <path d="M 154.82376 307.344331 
L 154.82376 41.439685 
" clip-path="url(#pae958c25b1)" style="fill: none; stroke: #b0b0b0; stroke-width: 0.8; stroke-linecap: square"/>
     </g>
     <g id="line2d_4">
      <g>
       <use xlink:href="#mf05e732f2e" x="154.82376" y="307.344331" style="stroke: #000000; stroke-width: 0.8"/>
      </g>
     </g>
     <g id="text_2">
      <!-- −0.45 -->
      <g transform="translate(139.501104 321.942768) scale(0.1 -0.1)">
       <defs>
        <path id="DejaVuSans-34" d="M 2419 4116 
L 825 1625 
L 2419 1625 
L 2419 4116 
z
M 2253 4666 
L 3047 4666 
L 3047 1625 
L 3713 1625 
L 3713 1100 
L 3047 1100 
L 3047 0 
L 2419 0 
L 2419 1100 
L 313 1100 
L 313 1709 
L 2253 4666 
z
" transform="scale(0.015625)"/>
       </defs>
       <use xlink:href="#DejaVuSans-2212"/>
       <use xlink:href="#DejaVuSans-30" transform="translate(83.789062 0)"/>
       <use xlink:href="#DejaVuSans-2e" transform="translate(147.412109 0)"/>
       <use xlink:href="#DejaVuSans-34" transform="translate(179.199219 0)"/>
       <use xlink:href="#DejaVuSans-35" transform="translate(242.822266 0)"/>
      </g>
     </g>
    </g>
    <g id="xtick_3">
     <g id="line2d_5">
      <path d="M 214.272355 307.344331 
L 214.272355 41.439685 
" clip-path="url(#pae958c25b1)" style="fill: none; stroke: #b0b0b0; stroke-width: 0.8; stroke-linecap: square"/>
     </g>
     <g id="line2d_6">
      <g>
       <use xlink:href="#mf05e732f2e" x="214.272355" y="307.344331" style="stroke: #000000; stroke-width: 0.8"/>
      </g>
     </g>
     <g id="text_3">
      <!-- −0.40 -->
      <g transform="translate(198.949699 321.942768) scale(0.1 -0.1)">
       <use xlink:href="#DejaVuSans-2212"/>
       <use xlink:href="#DejaVuSans-30" transform="translate(83.789062 0)"/>
       <use xlink:href="#DejaVuSans-2e" transform="translate(147.412109 0)"/>
       <use xlink:href="#DejaVuSans-34" transform="translate(179.199219 0)"/>
       <use xlink:href="#DejaVuSans-30" transform="translate(242.822266 0)"/>
      </g>
     </g>
    </g>
    <g id="xtick_4">
     <g id="line2d_7">
      <path d="M 273.72095 307.344331 
L 273.72095 41.439685 
" clip-path="url(#pae958c25b1)" style="fill: none; stroke: #b0b0b0; stroke-width: 0.8; stroke-linecap: square"/>
     </g>
     <g id="line2d_8">
      <g>
       <use xlink:href="#mf05e732f2e" x="273.72095" y="307.344331" style="stroke: #000000; stroke-width: 0.8"/>
      </g>
     </g>
     <g id="text_4">
      <!-- −0.35 -->
      <g transform="translate(258.398294 321.942768) scale(0.1 -0.1)">
       <defs>
        <path id="DejaVuSans-33" d="M 2597 2516 
Q 3050 2419 3304 2112 
Q 3559 1806 3559 1356 
Q 3559 666 3084 287 
Q 2609 -91 1734 -91 
Q 1441 -91 1130 -33 
Q 819 25 488 141 
L 488 750 
Q 750 597 1062 519 
Q 1375 441 1716 441 
Q 2309 441 2620 675 
Q 2931 909 2931 1356 
Q 2931 1769 2642 2001 
Q 2353 2234 1838 2234 
L 1294 2234 
L 1294 2753 
L 1863 2753 
Q 2328 2753 2575 2939 
Q 2822 3125 2822 3475 
Q 2822 3834 2567 4026 
Q 2313 4219 1838 4219 
Q 1578 4219 1281 4162 
Q 984 4106 628 3988 
L 628 4550 
Q 988 4650 1302 4700 
Q 1616 4750 1894 4750 
Q 2613 4750 3031 4423 
Q 3450 4097 3450 3541 
Q 3450 3153 3228 2886 
Q 3006 2619 2597 2516 
z
" transform="scale(0.015625)"/>
       </defs>
       <use xlink:href="#DejaVuSans-2212"/>
       <use xlink:href="#DejaVuSans-30" transform="translate(83.789062 0)"/>
       <use xlink:href="#DejaVuSans-2e" transform="translate(147.412109 0)"/>
       <use xlink:href="#DejaVuSans-33" transform="translate(179.199219 0)"/>
       <use xlink:href="#DejaVuSans-35" transform="translate(242.822266 0)"/>
      </g>
     </g>
    </g>
    <g id="xtick_5">
     <g id="line2d_9">
      <path d="M 333.169546 307.344331 
L 333.169546 41.439685 
" clip-path="url(#pae958c25b1)" style="fill: none; stroke: #b0b0b0; stroke-width: 0.8; stroke-linecap: square"/>
     </g>
     <g id="line2d_10">
      <g>
       <use xlink:href="#mf05e732f2e" x="333.169546" y="307.344331" style="stroke: #000000; stroke-width: 0.8"/>
      </g>
     </g>
     <g id="text_5">
      <!-- −0.30 -->
      <g transform="translate(317.846889 321.942768) scale(0.1 -0.1)">
       <use xlink:href="#DejaVuSans-2212"/>
       <use xlink:href="#DejaVuSans-30" transform="translate(83.789062 0)"/>
       <use xlink:href="#DejaVuSans-2e" transform="translate(147.412109 0)"/>
       <use xlink:href="#DejaVuSans-33" transform="translate(179.199219 0)"/>
       <use xlink:href="#DejaVuSans-30" transform="translate(242.822266 0)"/>
      </g>
     </g>
    </g>
    <g id="xtick_6">
     <g id="line2d_11">
      <path d="M 392.618141 307.344331 
L 392.618141 41.439685 
" clip-path="url(#pae958c25b1)" style="fill: none; stroke: #b0b0b0; stroke-width: 0.8; stroke-linecap: square"/>
     </g>
     <g id="line2d_12">
      <g>
       <use xlink:href="#mf05e732f2e" x="392.618141" y="307.344331" style="stroke: #000000; stroke-width: 0.8"/>
      </g>
     </g>
     <g id="text_6">
      <!-- −0.25 -->
      <g transform="translate(377.295484 321.942768) scale(0.1 -0.1)">
       <defs>
        <path id="DejaVuSans-32" d="M 1228 531 
L 3431 531 
L 3431 0 
L 469 0 
L 469 531 
Q 828 903 1448 1529 
Q 2069 2156 2228 2338 
Q 2531 2678 2651 2914 
Q 2772 3150 2772 3378 
Q 2772 3750 2511 3984 
Q 2250 4219 1831 4219 
Q 1534 4219 1204 4116 
Q 875 4013 500 3803 
L 500 4441 
Q 881 4594 1212 4672 
Q 1544 4750 1819 4750 
Q 2544 4750 2975 4387 
Q 3406 4025 3406 3419 
Q 3406 3131 3298 2873 
Q 3191 2616 2906 2266 
Q 2828 2175 2409 1742 
Q 1991 1309 1228 531 
z
" transform="scale(0.015625)"/>
       </defs>
       <use xlink:href="#DejaVuSans-2212"/>
       <use xlink:href="#DejaVuSans-30" transform="translate(83.789062 0)"/>
       <use xlink:href="#DejaVuSans-2e" transform="translate(147.412109 0)"/>
       <use xlink:href="#DejaVuSans-32" transform="translate(179.199219 0)"/>
       <use xlink:href="#DejaVuSans-35" transform="translate(242.822266 0)"/>
      </g>
     </g>
    </g>
    <g id="text_7">
     <!-- Normalized Frequency -->
     <g transform="translate(180.094504 335.620893) scale(0.1 -0.1)">
      <defs>
       <path id="DejaVuSans-4e" d="M 628 4666 
L 1478 4666 
L 3547 763 
L 3547 4666 
L 4159 4666 
L 4159 0 
L 3309 0 
L 1241 3903 
L 1241 0 
L 628 0 
L 628 4666 
z
" transform="scale(0.015625)"/>
       <path id="DejaVuSans-6f" d="M 1959 3097 
Q 1497 3097 1228 2736 
Q 959 2375 959 1747 
Q 959 1119 1226 758 
Q 1494 397 1959 397 
Q 2419 397 2687 759 
Q 2956 1122 2956 1747 
Q 2956 2369 2687 2733 
Q 2419 3097 1959 3097 
z
M 1959 3584 
Q 2709 3584 3137 3096 
Q 3566 2609 3566 1747 
Q 3566 888 3137 398 
Q 2709 -91 1959 -91 
Q 1206 -91 779 398 
Q 353 888 353 1747 
Q 353 2609 779 3096 
Q 1206 3584 1959 3584 
z
" transform="scale(0.015625)"/>
       <path id="DejaVuSans-72" d="M 2631 2963 
Q 2534 3019 2420 3045 
Q 2306 3072 2169 3072 
Q 1681 3072 1420 2755 
Q 1159 2438 1159 1844 
L 1159 0 
L 581 0 
L 581 3500 
L 1159 3500 
L 1159 2956 
Q 1341 3275 1631 3429 
Q 1922 3584 2338 3584 
Q 2397 3584 2469 3576 
Q 2541 3569 2628 3553 
L 2631 2963 
z
" transform="scale(0.015625)"/>
       <path id="DejaVuSans-6d" d="M 3328 2828 
Q 3544 3216 3844 3400 
Q 4144 3584 4550 3584 
Q 5097 3584 5394 3201 
Q 5691 2819 5691 2113 
L 5691 0 
L 5113 0 
L 5113 2094 
Q 5113 2597 4934 2840 
Q 4756 3084 4391 3084 
Q 3944 3084 3684 2787 
Q 3425 2491 3425 1978 
L 3425 0 
L 2847 0 
L 2847 2094 
Q 2847 2600 2669 2842 
Q 2491 3084 2119 3084 
Q 1678 3084 1418 2786 
Q 1159 2488 1159 1978 
L 1159 0 
L 581 0 
L 581 3500 
L 1159 3500 
L 1159 2956 
Q 1356 3278 1631 3431 
Q 1906 3584 2284 3584 
Q 2666 3584 2933 3390 
Q 3200 3197 3328 2828 
z
" transform="scale(0.015625)"/>
       <path id="DejaVuSans-61" d="M 2194 1759 
Q 1497 1759 1228 1600 
Q 959 1441 959 1056 
Q 959 750 1161 570 
Q 1363 391 1709 391 
Q 2188 391 2477 730 
Q 2766 1069 2766 1631 
L 2766 1759 
L 2194 1759 
z
M 3341 1997 
L 3341 0 
L 2766 0 
L 2766 531 
Q 2569 213 2275 61 
Q 1981 -91 1556 -91 
Q 1019 -91 701 211 
Q 384 513 384 1019 
Q 384 1609 779 1909 
Q 1175 2209 1959 2209 
L 2766 2209 
L 2766 2266 
Q 2766 2663 2505 2880 
Q 2244 3097 1772 3097 
Q 1472 3097 1187 3025 
Q 903 2953 641 2809 
L 641 3341 
Q 956 3463 1253 3523 
Q 1550 3584 1831 3584 
Q 2591 3584 2966 3190 
Q 3341 2797 3341 1997 
z
" transform="scale(0.015625)"/>
       <path id="DejaVuSans-6c" d="M 603 4863 
L 1178 4863 
L 1178 0 
L 603 0 
L 603 4863 
z
" transform="scale(0.015625)"/>
       <path id="DejaVuSans-69" d="M 603 3500 
L 1178 3500 
L 1178 0 
L 603 0 
L 603 3500 
z
M 603 4863 
L 1178 4863 
L 1178 4134 
L 603 4134 
L 603 4863 
z
" transform="scale(0.015625)"/>
       <path id="DejaVuSans-7a" d="M 353 3500 
L 3084 3500 
L 3084 2975 
L 922 459 
L 3084 459 
L 3084 0 
L 275 0 
L 275 525 
L 2438 3041 
L 353 3041 
L 353 3500 
z
" transform="scale(0.015625)"/>
       <path id="DejaVuSans-65" d="M 3597 1894 
L 3597 1613 
L 953 1613 
Q 991 1019 1311 708 
Q 1631 397 2203 397 
Q 2534 397 2845 478 
Q 3156 559 3463 722 
L 3463 178 
Q 3153 47 2828 -22 
Q 2503 -91 2169 -91 
Q 1331 -91 842 396 
Q 353 884 353 1716 
Q 353 2575 817 3079 
Q 1281 3584 2069 3584 
Q 2775 3584 3186 3129 
Q 3597 2675 3597 1894 
z
M 3022 2063 
Q 3016 2534 2758 2815 
Q 2500 3097 2075 3097 
Q 1594 3097 1305 2825 
Q 1016 2553 972 2059 
L 3022 2063 
z
" transform="scale(0.015625)"/>
       <path id="DejaVuSans-64" d="M 2906 2969 
L 2906 4863 
L 3481 4863 
L 3481 0 
L 2906 0 
L 2906 525 
Q 2725 213 2448 61 
Q 2172 -91 1784 -91 
Q 1150 -91 751 415 
Q 353 922 353 1747 
Q 353 2572 751 3078 
Q 1150 3584 1784 3584 
Q 2172 3584 2448 3432 
Q 2725 3281 2906 2969 
z
M 947 1747 
Q 947 1113 1208 752 
Q 1469 391 1925 391 
Q 2381 391 2643 752 
Q 2906 1113 2906 1747 
Q 2906 2381 2643 2742 
Q 2381 3103 1925 3103 
Q 1469 3103 1208 2742 
Q 947 2381 947 1747 
z
" transform="scale(0.015625)"/>
       <path id="DejaVuSans-20" transform="scale(0.015625)"/>
       <path id="DejaVuSans-46" d="M 628 4666 
L 3309 4666 
L 3309 4134 
L 1259 4134 
L 1259 2759 
L 3109 2759 
L 3109 2228 
L 1259 2228 
L 1259 0 
L 628 0 
L 628 4666 
z
" transform="scale(0.015625)"/>
       <path id="DejaVuSans-71" d="M 947 1747 
Q 947 1113 1208 752 
Q 1469 391 1925 391 
Q 2381 391 2643 752 
Q 2906 1113 2906 1747 
Q 2906 2381 2643 2742 
Q 2381 3103 1925 3103 
Q 1469 3103 1208 2742 
Q 947 2381 947 1747 
z
M 2906 525 
Q 2725 213 2448 61 
Q 2172 -91 1784 -91 
Q 1150 -91 751 415 
Q 353 922 353 1747 
Q 353 2572 751 3078 
Q 1150 3584 1784 3584 
Q 2172 3584 2448 3432 
Q 2725 3281 2906 2969 
L 2906 3500 
L 3481 3500 
L 3481 -1331 
L 2906 -1331 
L 2906 525 
z
" transform="scale(0.015625)"/>
       <path id="DejaVuSans-75" d="M 544 1381 
L 544 3500 
L 1119 3500 
L 1119 1403 
Q 1119 906 1312 657 
Q 1506 409 1894 409 
Q 2359 409 2629 706 
Q 2900 1003 2900 1516 
L 2900 3500 
L 3475 3500 
L 3475 0 
L 2900 0 
L 2900 538 
Q 2691 219 2414 64 
Q 2138 -91 1772 -91 
Q 1169 -91 856 284 
Q 544 659 544 1381 
z
M 1991 3584 
L 1991 3584 
z
" transform="scale(0.015625)"/>
       <path id="DejaVuSans-6e" d="M 3513 2113 
L 3513 0 
L 2938 0 
L 2938 2094 
Q 2938 2591 2744 2837 
Q 2550 3084 2163 3084 
Q 1697 3084 1428 2787 
Q 1159 2491 1159 1978 
L 1159 0 
L 581 0 
L 581 3500 
L 1159 3500 
L 1159 2956 
Q 1366 3272 1645 3428 
Q 1925 3584 2291 3584 
Q 2894 3584 3203 3211 
Q 3513 2838 3513 2113 
z
" transform="scale(0.015625)"/>
       <path id="DejaVuSans-63" d="M 3122 3366 
L 3122 2828 
Q 2878 2963 2633 3030 
Q 2388 3097 2138 3097 
Q 1578 3097 1268 2742 
Q 959 2388 959 1747 
Q 959 1106 1268 751 
Q 1578 397 2138 397 
Q 2388 397 2633 464 
Q 2878 531 3122 666 
L 3122 134 
Q 2881 22 2623 -34 
Q 2366 -91 2075 -91 
Q 1284 -91 818 406 
Q 353 903 353 1747 
Q 353 2603 823 3093 
Q 1294 3584 2113 3584 
Q 2378 3584 2631 3529 
Q 2884 3475 3122 3366 
z
" transform="scale(0.015625)"/>
       <path id="DejaVuSans-79" d="M 2059 -325 
Q 1816 -950 1584 -1140 
Q 1353 -1331 966 -1331 
L 506 -1331 
L 506 -850 
L 844 -850 
Q 1081 -850 1212 -737 
Q 1344 -625 1503 -206 
L 1606 56 
L 191 3500 
L 800 3500 
L 1894 763 
L 2988 3500 
L 3597 3500 
L 2059 -325 
z
" transform="scale(0.015625)"/>
      </defs>
      <use xlink:href="#DejaVuSans-4e"/>
      <use xlink:href="#DejaVuSans-6f" transform="translate(74.804688 0)"/>
      <use xlink:href="#DejaVuSans-72" transform="translate(135.986328 0)"/>
      <use xlink:href="#DejaVuSans-6d" transform="translate(175.349609 0)"/>
      <use xlink:href="#DejaVuSans-61" transform="translate(272.761719 0)"/>
      <use xlink:href="#DejaVuSans-6c" transform="translate(334.041016 0)"/>
      <use xlink:href="#DejaVuSans-69" transform="translate(361.824219 0)"/>
      <use xlink:href="#DejaVuSans-7a" transform="translate(389.607422 0)"/>
      <use xlink:href="#DejaVuSans-65" transform="translate(442.097656 0)"/>
      <use xlink:href="#DejaVuSans-64" transform="translate(503.621094 0)"/>
      <use xlink:href="#DejaVuSans-20" transform="translate(567.097656 0)"/>
      <use xlink:href="#DejaVuSans-46" transform="translate(598.884766 0)"/>
      <use xlink:href="#DejaVuSans-72" transform="translate(649.154297 0)"/>
      <use xlink:href="#DejaVuSans-65" transform="translate(688.017578 0)"/>
      <use xlink:href="#DejaVuSans-71" transform="translate(749.541016 0)"/>
      <use xlink:href="#DejaVuSans-75" transform="translate(813.017578 0)"/>
      <use xlink:href="#DejaVuSans-65" transform="translate(876.396484 0)"/>
      <use xlink:href="#DejaVuSans-6e" transform="translate(937.919922 0)"/>
      <use xlink:href="#DejaVuSans-63" transform="translate(1001.298828 0)"/>
      <use xlink:href="#DejaVuSans-79" transform="translate(1056.279297 0)"/>
     </g>
    </g>
   </g>
   <g id="matplotlib.axis_2">
    <g id="ytick_1">
     <g id="line2d_13">
      <path d="M 57.528957 297.473404 
L 414.208488 297.473404 
" clip-path="url(#pae958c25b1)" style="fill: none; stroke: #b0b0b0; stroke-width: 0.8; stroke-linecap: square"/>
     </g>
     <g id="line2d_14">
      <defs>
       <path id="m75e54d89d4" d="M 0 0 
L -3.5 0 
" style="stroke: #000000; stroke-width: 0.8"/>
      </defs>
      <g>
       <use xlink:href="#m75e54d89d4" x="57.528957" y="297.473404" style="stroke: #000000; stroke-width: 0.8"/>
      </g>
     </g>
     <g id="text_8">
      <!-- −150 -->
      <g transform="translate(23.061769 301.272622) scale(0.1 -0.1)">
       <defs>
        <path id="DejaVuSans-31" d="M 794 531 
L 1825 531 
L 1825 4091 
L 703 3866 
L 703 4441 
L 1819 4666 
L 2450 4666 
L 2450 531 
L 3481 531 
L 3481 0 
L 794 0 
L 794 531 
z
" transform="scale(0.015625)"/>
       </defs>
       <use xlink:href="#DejaVuSans-2212"/>
       <use xlink:href="#DejaVuSans-31" transform="translate(83.789062 0)"/>
       <use xlink:href="#DejaVuSans-35" transform="translate(147.412109 0)"/>
       <use xlink:href="#DejaVuSans-30" transform="translate(211.035156 0)"/>
      </g>
     </g>
    </g>
    <g id="ytick_2">
     <g id="line2d_15">
      <path d="M 57.528957 265.869182 
L 414.208488 265.869182 
" clip-path="url(#pae958c25b1)" style="fill: none; stroke: #b0b0b0; stroke-width: 0.8; stroke-linecap: square"/>
     </g>
     <g id="line2d_16">
      <g>
       <use xlink:href="#m75e54d89d4" x="57.528957" y="265.869182" style="stroke: #000000; stroke-width: 0.8"/>
      </g>
     </g>
     <g id="text_9">
      <!-- −140 -->
      <g transform="translate(23.061769 269.6684) scale(0.1 -0.1)">
       <use xlink:href="#DejaVuSans-2212"/>
       <use xlink:href="#DejaVuSans-31" transform="translate(83.789062 0)"/>
       <use xlink:href="#DejaVuSans-34" transform="translate(147.412109 0)"/>
       <use xlink:href="#DejaVuSans-30" transform="translate(211.035156 0)"/>
      </g>
     </g>
    </g>
    <g id="ytick_3">
     <g id="line2d_17">
      <path d="M 57.528957 234.26496 
L 414.208488 234.26496 
" clip-path="url(#pae958c25b1)" style="fill: none; stroke: #b0b0b0; stroke-width: 0.8; stroke-linecap: square"/>
     </g>
     <g id="line2d_18">
      <g>
       <use xlink:href="#m75e54d89d4" x="57.528957" y="234.26496" style="stroke: #000000; stroke-width: 0.8"/>
      </g>
     </g>
     <g id="text_10">
      <!-- −130 -->
      <g transform="translate(23.061769 238.064178) scale(0.1 -0.1)">
       <use xlink:href="#DejaVuSans-2212"/>
       <use xlink:href="#DejaVuSans-31" transform="translate(83.789062 0)"/>
       <use xlink:href="#DejaVuSans-33" transform="translate(147.412109 0)"/>
       <use xlink:href="#DejaVuSans-30" transform="translate(211.035156 0)"/>
      </g>
     </g>
    </g>
    <g id="ytick_4">
     <g id="line2d_19">
      <path d="M 57.528957 202.660737 
L 414.208488 202.660737 
" clip-path="url(#pae958c25b1)" style="fill: none; stroke: #b0b0b0; stroke-width: 0.8; stroke-linecap: square"/>
     </g>
     <g id="line2d_20">
      <g>
       <use xlink:href="#m75e54d89d4" x="57.528957" y="202.660737" style="stroke: #000000; stroke-width: 0.8"/>
      </g>
     </g>
     <g id="text_11">
      <!-- −120 -->
      <g transform="translate(23.061769 206.459956) scale(0.1 -0.1)">
       <use xlink:href="#DejaVuSans-2212"/>
       <use xlink:href="#DejaVuSans-31" transform="translate(83.789062 0)"/>
       <use xlink:href="#DejaVuSans-32" transform="translate(147.412109 0)"/>
       <use xlink:href="#DejaVuSans-30" transform="translate(211.035156 0)"/>
      </g>
     </g>
    </g>
    <g id="ytick_5">
     <g id="line2d_21">
      <path d="M 57.528957 171.056515 
L 414.208488 171.056515 
" clip-path="url(#pae958c25b1)" style="fill: none; stroke: #b0b0b0; stroke-width: 0.8; stroke-linecap: square"/>
     </g>
     <g id="line2d_22">
      <g>
       <use xlink:href="#m75e54d89d4" x="57.528957" y="171.056515" style="stroke: #000000; stroke-width: 0.8"/>
      </g>
     </g>
     <g id="text_12">
      <!-- −110 -->
      <g transform="translate(23.061769 174.855734) scale(0.1 -0.1)">
       <use xlink:href="#DejaVuSans-2212"/>
       <use xlink:href="#DejaVuSans-31" transform="translate(83.789062 0)"/>
       <use xlink:href="#DejaVuSans-31" transform="translate(147.412109 0)"/>
       <use xlink:href="#DejaVuSans-30" transform="translate(211.035156 0)"/>
      </g>
     </g>
    </g>
    <g id="ytick_6">
     <g id="line2d_23">
      <path d="M 57.528957 139.452293 
L 414.208488 139.452293 
" clip-path="url(#pae958c25b1)" style="fill: none; stroke: #b0b0b0; stroke-width: 0.8; stroke-linecap: square"/>
     </g>
     <g id="line2d_24">
      <g>
       <use xlink:href="#m75e54d89d4" x="57.528957" y="139.452293" style="stroke: #000000; stroke-width: 0.8"/>
      </g>
     </g>
     <g id="text_13">
      <!-- −100 -->
      <g transform="translate(23.061769 143.251512) scale(0.1 -0.1)">
       <use xlink:href="#DejaVuSans-2212"/>
       <use xlink:href="#DejaVuSans-31" transform="translate(83.789062 0)"/>
       <use xlink:href="#DejaVuSans-30" transform="translate(147.412109 0)"/>
       <use xlink:href="#DejaVuSans-30" transform="translate(211.035156 0)"/>
      </g>
     </g>
    </g>
    <g id="ytick_7">
     <g id="line2d_25">
      <path d="M 57.528957 107.848071 
L 414.208488 107.848071 
" clip-path="url(#pae958c25b1)" style="fill: none; stroke: #b0b0b0; stroke-width: 0.8; stroke-linecap: square"/>
     </g>
     <g id="line2d_26">
      <g>
       <use xlink:href="#m75e54d89d4" x="57.528957" y="107.848071" style="stroke: #000000; stroke-width: 0.8"/>
      </g>
     </g>
     <g id="text_14">
      <!-- −90 -->
      <g transform="translate(29.424269 111.64729) scale(0.1 -0.1)">
       <defs>
        <path id="DejaVuSans-39" d="M 703 97 
L 703 672 
Q 941 559 1184 500 
Q 1428 441 1663 441 
Q 2288 441 2617 861 
Q 2947 1281 2994 2138 
Q 2813 1869 2534 1725 
Q 2256 1581 1919 1581 
Q 1219 1581 811 2004 
Q 403 2428 403 3163 
Q 403 3881 828 4315 
Q 1253 4750 1959 4750 
Q 2769 4750 3195 4129 
Q 3622 3509 3622 2328 
Q 3622 1225 3098 567 
Q 2575 -91 1691 -91 
Q 1453 -91 1209 -44 
Q 966 3 703 97 
z
M 1959 2075 
Q 2384 2075 2632 2365 
Q 2881 2656 2881 3163 
Q 2881 3666 2632 3958 
Q 2384 4250 1959 4250 
Q 1534 4250 1286 3958 
Q 1038 3666 1038 3163 
Q 1038 2656 1286 2365 
Q 1534 2075 1959 2075 
z
" transform="scale(0.015625)"/>
       </defs>
       <use xlink:href="#DejaVuSans-2212"/>
       <use xlink:href="#DejaVuSans-39" transform="translate(83.789062 0)"/>
       <use xlink:href="#DejaVuSans-30" transform="translate(147.412109 0)"/>
      </g>
     </g>
    </g>
    <g id="ytick_8">
     <g id="line2d_27">
      <path d="M 57.528957 76.243849 
L 414.208488 76.243849 
" clip-path="url(#pae958c25b1)" style="fill: none; stroke: #b0b0b0; stroke-width: 0.8; stroke-linecap: square"/>
     </g>
     <g id="line2d_28">
      <g>
       <use xlink:href="#m75e54d89d4" x="57.528957" y="76.243849" style="stroke: #000000; stroke-width: 0.8"/>
      </g>
     </g>
     <g id="text_15">
      <!-- −80 -->
      <g transform="translate(29.424269 80.043068) scale(0.1 -0.1)">
       <defs>
        <path id="DejaVuSans-38" d="M 2034 2216 
Q 1584 2216 1326 1975 
Q 1069 1734 1069 1313 
Q 1069 891 1326 650 
Q 1584 409 2034 409 
Q 2484 409 2743 651 
Q 3003 894 3003 1313 
Q 3003 1734 2745 1975 
Q 2488 2216 2034 2216 
z
M 1403 2484 
Q 997 2584 770 2862 
Q 544 3141 544 3541 
Q 544 4100 942 4425 
Q 1341 4750 2034 4750 
Q 2731 4750 3128 4425 
Q 3525 4100 3525 3541 
Q 3525 3141 3298 2862 
Q 3072 2584 2669 2484 
Q 3125 2378 3379 2068 
Q 3634 1759 3634 1313 
Q 3634 634 3220 271 
Q 2806 -91 2034 -91 
Q 1263 -91 848 271 
Q 434 634 434 1313 
Q 434 1759 690 2068 
Q 947 2378 1403 2484 
z
M 1172 3481 
Q 1172 3119 1398 2916 
Q 1625 2713 2034 2713 
Q 2441 2713 2670 2916 
Q 2900 3119 2900 3481 
Q 2900 3844 2670 4047 
Q 2441 4250 2034 4250 
Q 1625 4250 1398 4047 
Q 1172 3844 1172 3481 
z
" transform="scale(0.015625)"/>
       </defs>
       <use xlink:href="#DejaVuSans-2212"/>
       <use xlink:href="#DejaVuSans-38" transform="translate(83.789062 0)"/>
       <use xlink:href="#DejaVuSans-30" transform="translate(147.412109 0)"/>
      </g>
     </g>
    </g>
    <g id="ytick_9">
     <g id="line2d_29">
      <path d="M 57.528957 44.639627 
L 414.208488 44.639627 
" clip-path="url(#pae958c25b1)" style="fill: none; stroke: #b0b0b0; stroke-width: 0.8; stroke-linecap: square"/>
     </g>
     <g id="line2d_30">
      <g>
       <use xlink:href="#m75e54d89d4" x="57.528957" y="44.639627" style="stroke: #000000; stroke-width: 0.8"/>
      </g>
     </g>
     <g id="text_16">
      <!-- −70 -->
      <g transform="translate(29.424269 48.438846) scale(0.1 -0.1)">
       <defs>
        <path id="DejaVuSans-37" d="M 525 4666 
L 3525 4666 
L 3525 4397 
L 1831 0 
L 1172 0 
L 2766 4134 
L 525 4134 
L 525 4666 
z
" transform="scale(0.015625)"/>
       </defs>
       <use xlink:href="#DejaVuSans-2212"/>
       <use xlink:href="#DejaVuSans-37" transform="translate(83.789062 0)"/>
       <use xlink:href="#DejaVuSans-30" transform="translate(147.412109 0)"/>
      </g>
     </g>
    </g>
   </g>
   <g id="line2d_31">
    <path d="M 95.375165 64.646485 
L 96.536271 64.817753 
L 97.697376 65.335499 
L 98.858481 66.211928 
L 100.019587 67.468748 
L 101.180692 69.139537 
L 102.341798 71.273845 
L 103.502903 73.944198 
L 104.664008 77.258465 
L 105.825114 81.382983 
L 106.986219 86.589655 
L 108.147324 93.364439 
L 108.727877 97.614365 
L 109.30843 102.707728 
L 109.888982 109.020226 
L 110.469535 117.270257 
L 111.050088 129.126579 
L 111.630641 150.35371 
L 112.211193 200.822192 
L 112.791746 143.021226 
L 113.372299 125.896768 
L 113.952851 115.58468 
L 114.533404 108.246401 
L 115.113957 102.594161 
L 116.275062 94.251894 
L 117.436167 88.295021 
L 118.597273 83.831028 
L 119.758378 80.41758 
L 120.919484 77.805313 
L 122.080589 75.842131 
L 123.241694 74.43095 
L 124.4028 73.508811 
L 125.563905 73.035793 
L 126.72501 72.988961 
L 127.886116 73.359201 
L 129.047221 74.149987 
L 130.208326 75.37772 
L 131.369432 77.073745 
L 132.530537 79.288601 
L 133.691643 82.0999 
L 134.852748 85.626803 
L 136.013853 90.058013 
L 137.174959 95.710831 
L 138.336064 103.173762 
L 138.916617 107.931261 
L 139.497169 113.731226 
L 140.077722 121.112099 
L 140.658275 131.211566 
L 141.238828 147.218692 
L 141.81938 189.17379 
L 142.980486 139.7917 
L 143.561038 127.530216 
L 144.141591 119.295115 
L 144.722144 113.160825 
L 145.883249 104.395385 
L 147.044354 98.355806 
L 148.20546 93.98918 
L 149.366565 90.796606 
L 150.527671 88.50776 
L 151.688776 86.96585 
L 152.269329 86.444458 
L 152.849881 86.078957 
L 153.430434 85.864301 
L 154.010987 85.797375 
L 154.591539 85.876847 
L 155.172092 86.10311 
L 155.752645 86.478293 
L 156.333197 87.006364 
L 157.494303 88.547451 
L 158.655408 90.80498 
L 159.816513 93.914163 
L 160.977619 98.10567 
L 162.138724 103.7943 
L 162.719277 107.430811 
L 163.29983 111.814796 
L 163.880382 117.241086 
L 164.460935 124.242655 
L 165.041488 133.943533 
L 165.62204 149.479013 
L 166.202593 190.093791 
L 167.363698 141.518436 
L 167.944251 128.835092 
L 168.524804 120.219771 
L 169.105356 113.719206 
L 170.266462 104.232505 
L 171.427567 97.467069 
L 172.588673 92.356921 
L 173.749778 88.392706 
L 174.910883 85.29324 
L 176.071989 82.889109 
L 177.233094 81.072818 
L 178.394199 79.774659 
L 179.555305 78.950068 
L 180.71641 78.572751 
L 181.877516 78.631059 
L 183.038621 79.126461 
L 184.199726 80.073695 
L 185.360832 81.502616 
L 186.521937 83.462292 
L 187.683042 86.028652 
L 188.844148 89.318591 
L 190.005253 93.517161 
L 191.166359 98.93475 
L 192.327464 106.144204 
L 192.908017 110.756701 
L 193.488569 116.384835 
L 194.069122 123.539394 
L 194.649675 133.282527 
L 195.230227 148.498329 
L 195.81078 185.077646 
L 196.391333 169.555685 
L 196.971885 143.932051 
L 197.552438 131.131655 
L 198.132991 122.632674 
L 198.713543 116.337041 
L 199.874649 107.384309 
L 201.035754 101.251741 
L 202.19686 96.854312 
L 203.357965 93.685868 
L 204.51907 91.478409 
L 205.099623 90.685573 
L 205.680176 90.08353 
L 206.260728 89.664477 
L 206.841281 89.423628 
L 207.421834 89.358938 
L 208.002386 89.470983 
L 208.582939 89.763 
L 209.163492 90.241073 
L 209.744044 90.9145 
L 210.324597 91.796385 
L 210.90515 92.904538 
L 212.066255 95.903198 
L 213.227361 100.219239 
L 213.807913 103.038364 
L 214.388466 106.449501 
L 214.969019 110.642989 
L 215.549571 115.934365 
L 216.130124 122.903817 
L 216.710677 132.808528 
L 217.291229 149.353362 
L 217.871782 202.732777 
L 218.452335 157.604718 
L 219.032887 135.661711 
L 219.61344 123.418926 
L 220.193993 114.861574 
L 221.355098 102.931554 
L 222.516204 94.590491 
L 223.677309 88.25612 
L 224.838414 83.237421 
L 225.99952 79.170509 
L 227.160625 75.840772 
L 228.32173 73.111823 
L 229.482836 70.892516 
L 230.643941 69.119931 
L 231.805047 67.749921 
L 232.966152 66.751544 
L 234.127257 66.103682 
L 235.288363 65.792962 
L 236.449468 65.8125 
L 237.610573 66.161248 
L 238.771679 66.843786 
L 239.932784 67.870554 
L 241.09389 69.258524 
L 242.254995 71.032451 
L 243.4161 73.226915 
L 244.577206 75.889598 
L 245.738311 79.086573 
L 246.899416 82.911179 
L 248.060522 87.499691 
L 249.221627 93.061111 
L 250.382732 99.939784 
L 251.543838 108.76713 
L 252.124391 114.283125 
L 252.704943 120.91918 
L 253.285496 129.260389 
L 253.866049 140.568944 
L 254.446601 158.553666 
L 255.027154 213.361808 
L 255.607707 169.859818 
L 256.188259 149.51367 
L 256.768812 138.943667 
L 257.349365 132.142466 
L 257.929917 127.409761 
L 258.51047 124.028655 
L 259.091023 121.636642 
L 259.671575 120.033235 
L 260.252128 119.105501 
L 260.832681 118.795516 
L 261.413234 119.086217 
L 261.993786 119.997533 
L 262.574339 121.590839 
L 263.154892 123.983998 
L 263.735444 127.385721 
L 264.315997 132.174579 
L 264.89655 139.105555 
L 265.477102 150.000379 
L 266.057655 171.591677 
L 266.638208 203.275148 
L 267.21876 156.344259 
L 267.799313 139.032562 
L 268.379866 127.959587 
L 268.960418 119.732314 
L 270.121524 107.688744 
L 271.282629 98.922752 
L 272.443735 92.103335 
L 273.60484 86.617583 
L 274.765945 82.13217 
L 275.927051 78.446647 
L 277.088156 75.432627 
L 278.249261 73.004848 
L 279.410367 71.106022 
L 280.571472 69.698393 
L 281.732578 68.758891 
L 282.893683 68.276386 
L 283.474236 68.205935 
L 284.054788 68.25032 
L 284.635341 68.411072 
L 285.796446 69.0912 
L 286.957552 70.272898 
L 288.118657 71.996661 
L 289.279762 74.320937 
L 290.440868 77.32893 
L 291.601973 81.140201 
L 292.763079 85.931535 
L 293.924184 91.977362 
L 295.085289 99.737297 
L 296.246395 110.079275 
L 296.826947 116.752655 
L 297.4075 125.020288 
L 297.988053 135.882996 
L 298.568605 151.931354 
L 299.149158 185.608948 
L 299.729711 183.589787 
L 300.310263 157.498526 
L 300.890816 146.928649 
L 301.471369 141.593569 
L 302.051922 139.360365 
L 302.632474 139.660848 
L 303.213027 142.694808 
L 303.79358 149.675954 
L 304.374132 165.16057 
L 304.954685 293.012314 
L 305.535238 158.656314 
L 306.11579 137.173226 
L 306.696343 123.782283 
L 307.276896 113.843329 
L 308.438001 99.24083 
L 309.599106 88.617743 
L 310.760212 80.467962 
L 311.921317 74.140415 
L 313.082423 69.334736 
L 314.243528 65.950702 
L 314.824081 64.805467 
L 315.404633 64.05493 
L 315.985186 63.740928 
L 316.565739 63.92781 
L 317.146291 64.713895 
L 317.726844 66.252883 
L 318.307397 68.797122 
L 318.887949 72.795843 
L 319.468502 79.160753 
L 320.049055 90.22671 
L 320.629607 116.395395 
L 321.21016 118.28103 
L 321.790713 84.110537 
L 322.371266 67.388252 
L 322.951818 55.683191 
L 324.112924 38.642842 
L 325.274029 25.76029 
L 326.435134 15.110622 
L 328.176792 1.670176 
L 328.564229 -1 
L 328.564229 -1 
" clip-path="url(#pae958c25b1)" style="fill: none; stroke: #0000ff; stroke-width: 2; stroke-linecap: square"/>
   </g>
   <g id="line2d_32">
    <path d="M 95.375165 97.69667 
L 95.955718 97.785838 
L 96.536271 98.054697 
L 97.116823 98.507402 
L 97.697376 99.151142 
L 98.277929 99.996596 
L 98.858481 101.058625 
L 100.019587 103.919733 
L 101.180692 107.993744 
L 101.761245 110.623508 
L 102.341798 113.769977 
L 102.92235 117.580807 
L 103.502903 122.290408 
L 104.083456 128.303121 
L 104.664008 136.409029 
L 105.244561 148.511188 
L 106.405666 199.0034 
L 106.986219 156.093576 
L 107.566772 139.901448 
L 108.147324 129.684038 
L 108.727877 122.206948 
L 109.888982 111.484605 
L 111.050088 103.875176 
L 112.211193 98.086037 
L 113.372299 93.524721 
L 114.533404 89.871215 
L 115.694509 86.934516 
L 116.855615 84.593215 
L 118.01672 82.767305 
L 119.177825 81.403514 
L 120.338931 80.467228 
L 121.500036 79.937962 
L 122.661142 79.80696 
L 123.822247 80.076267 
L 124.983352 80.759035 
L 126.144458 81.88115 
L 127.305563 83.484607 
L 128.466668 85.633619 
L 129.627774 88.425589 
L 130.788879 92.011552 
L 131.949985 96.637278 
L 133.11109 102.735719 
L 133.691643 106.576681 
L 134.272195 111.173302 
L 134.852748 116.833337 
L 135.433301 124.117734 
L 136.013853 134.227081 
L 136.594406 150.615759 
L 137.174959 197.900297 
L 137.755511 162.681677 
L 138.336064 140.121818 
L 138.916617 127.966144 
L 139.497169 119.64125 
L 140.077722 113.340762 
L 141.238828 104.135793 
L 142.399933 97.574881 
L 143.561038 92.626584 
L 144.722144 88.79499 
L 145.883249 85.805433 
L 147.044354 83.492111 
L 148.20546 81.749687 
L 149.366565 80.509772 
L 150.527671 79.728565 
L 151.688776 79.380115 
L 152.849881 79.452745 
L 154.010987 79.947533 
L 155.172092 80.878407 
L 156.333197 82.273882 
L 157.494303 84.180941 
L 158.655408 86.672282 
L 159.816513 89.859616 
L 160.977619 93.919168 
L 162.138724 99.14474 
L 163.29983 106.073136 
L 163.880382 110.486459 
L 164.460935 115.845028 
L 165.041488 122.602469 
L 165.62204 131.670885 
L 166.202593 145.370904 
L 166.783146 173.946037 
L 167.363698 179.279001 
L 167.944251 147.393677 
L 168.524804 133.184594 
L 169.105356 124.006343 
L 169.685909 117.273001 
L 170.847015 107.707505 
L 172.00812 101.07889 
L 173.169225 96.201749 
L 174.330331 92.525663 
L 175.491436 89.753279 
L 176.652541 87.709287 
L 177.813647 86.28558 
L 178.974752 85.415265 
L 179.555305 85.174603 
L 180.135857 85.059478 
L 180.71641 85.068318 
L 181.296963 85.200684 
L 181.877516 85.457254 
L 183.038621 86.351448 
L 184.199726 87.780483 
L 185.360832 89.798087 
L 186.521937 92.49162 
L 187.683042 96.00052 
L 188.844148 100.553636 
L 190.005253 106.552389 
L 191.166359 114.787451 
L 191.746911 120.246202 
L 192.327464 127.170813 
L 192.908017 136.544983 
L 193.488569 150.951659 
L 194.069122 183.002297 
L 194.649675 178.020347 
L 195.230227 149.638332 
L 195.81078 136.170401 
L 196.391333 127.348847 
L 196.971885 120.850888 
L 198.132991 111.636841 
L 199.294096 105.32419 
L 200.455201 100.782487 
L 201.616307 97.488228 
L 202.777412 95.164711 
L 203.938518 93.657984 
L 204.51907 93.183165 
L 205.099623 92.88592 
L 205.680176 92.763604 
L 206.260728 92.816127 
L 206.841281 93.045947 
L 207.421834 93.458211 
L 208.002386 94.061057 
L 208.582939 94.866108 
L 209.163492 95.889244 
L 209.744044 97.151737 
L 210.90515 100.518054 
L 212.066255 105.335981 
L 212.646808 108.494661 
L 213.227361 112.345343 
L 213.807913 117.140394 
L 214.388466 123.321594 
L 214.969019 131.772652 
L 215.549571 144.716159 
L 216.130124 171.612531 
L 216.710677 180.783231 
L 217.291229 146.716949 
L 217.871782 131.736146 
L 218.452335 121.96744 
L 219.032887 114.704361 
L 220.193993 104.15185 
L 221.355098 96.576607 
L 222.516204 90.76701 
L 223.677309 86.159181 
L 224.838414 82.445787 
L 225.99952 79.442287 
L 227.160625 77.03085 
L 228.32173 75.133509 
L 229.482836 73.698098 
L 230.643941 72.690432 
L 231.805047 72.08987 
L 232.966152 71.886885 
L 234.127257 72.081999 
L 235.288363 72.685807 
L 236.449468 73.720116 
L 237.610573 75.220461 
L 238.771679 77.240678 
L 239.932784 79.860955 
L 241.09389 83.202349 
L 242.254995 87.454587 
L 243.4161 92.934443 
L 244.577206 100.226113 
L 245.157758 104.8945 
L 245.738311 110.59719 
L 246.318864 117.861113 
L 246.899416 127.791781 
L 247.479969 143.445678 
L 248.060522 182.933784 
L 249.221627 137.210526 
L 249.80218 124.735434 
L 250.382732 116.404827 
L 250.963285 110.223882 
L 252.124391 101.44356 
L 253.285496 95.46261 
L 254.446601 91.22125 
L 255.607707 88.225674 
L 256.768812 86.21705 
L 257.349365 85.536181 
L 257.929917 85.056134 
L 258.51047 84.770553 
L 259.091023 84.676328 
L 259.671575 84.773399 
L 260.252128 85.064736 
L 260.832681 85.556521 
L 261.413234 86.258525 
L 261.993786 87.184755 
L 262.574339 88.354455 
L 263.154892 89.793631 
L 263.735444 91.537386 
L 264.315997 93.633567 
L 264.89655 96.148668 
L 265.477102 99.177831 
L 266.057655 102.862869 
L 266.638208 107.42746 
L 267.21876 113.25379 
L 267.799313 121.077719 
L 268.379866 132.625742 
L 268.960418 153.997922 
L 269.540971 196.707109 
L 270.121524 143.836382 
L 270.702076 126.691463 
L 271.282629 116.136134 
L 271.863182 108.507276 
L 273.024287 97.705603 
L 274.185393 90.168745 
L 275.346498 84.553109 
L 276.507603 80.254145 
L 277.668709 76.952635 
L 278.829814 74.464911 
L 279.990919 72.681822 
L 281.152025 71.540642 
L 281.732578 71.200359 
L 282.31313 71.011539 
L 282.893683 70.974628 
L 283.474236 71.091675 
L 284.054788 71.36641 
L 284.635341 71.804397 
L 285.215894 72.41328 
L 285.796446 73.203147 
L 286.957552 75.381733 
L 288.118657 78.495793 
L 289.279762 82.808077 
L 290.440868 88.793609 
L 291.021421 92.682349 
L 291.601973 97.429943 
L 292.182526 103.40011 
L 292.763079 111.282122 
L 293.343631 122.652686 
L 293.924184 142.767117 
L 294.504737 210.184716 
L 295.085289 138.497662 
L 295.665842 120.640381 
L 296.246395 110.08139 
L 296.826947 102.660019 
L 297.4075 97.020853 
L 298.568605 88.922674 
L 299.729711 83.479535 
L 300.890816 79.818681 
L 301.471369 78.522991 
L 302.051922 77.544402 
L 302.632474 76.866035 
L 303.213027 76.47873 
L 303.79358 76.380063 
L 304.374132 76.573972 
L 304.954685 77.070936 
L 305.535238 77.888703 
L 306.11579 79.053729 
L 306.696343 80.603605 
L 307.276896 82.591026 
L 307.857448 85.090385 
L 308.438001 88.209142 
L 309.018554 92.108633 
L 309.599106 97.045488 
L 310.179659 103.464291 
L 310.760212 112.243553 
L 311.340765 125.559998 
L 311.921317 152.421052 
L 312.50187 165.42101 
L 313.082423 131.202065 
L 313.662975 117.380368 
L 314.243528 109.218294 
L 314.824081 104.010335 
L 315.404633 100.842586 
L 315.985186 99.404732 
L 316.565739 99.73295 
L 317.146291 102.237641 
L 317.726844 108.071571 
L 318.307397 120.904954 
L 318.887949 172.051656 
L 319.468502 121.704776 
L 320.049055 96.709447 
L 320.629607 81.439154 
L 321.790713 60.514933 
L 322.951818 45.222631 
L 324.112924 32.793739 
L 325.854582 17.325038 
L 327.59624 4.304843 
L 328.385763 -1 
L 328.385763 -1 
" clip-path="url(#pae958c25b1)" style="fill: none; stroke: #ff0000; stroke-width: 2; stroke-linecap: square"/>
   </g>
   <g id="patch_3">
    <path d="M 57.528957 307.344331 
L 57.528957 41.439685 
" style="fill: none; stroke: #000000; stroke-width: 0.8; stroke-linejoin: miter; stroke-linecap: square"/>
   </g>
   <g id="patch_4">
    <path d="M 414.208488 307.344331 
L 414.208488 41.439685 
" style="fill: none; stroke: #000000; stroke-width: 0.8; stroke-linejoin: miter; stroke-linecap: square"/>
   </g>
   <g id="patch_5">
    <path d="M 57.528957 307.344331 
L 414.208488 307.344331 
" style="fill: none; stroke: #000000; stroke-width: 0.8; stroke-linejoin: miter; stroke-linecap: square"/>
   </g>
   <g id="patch_6">
    <path d="M 57.528957 41.439685 
L 414.208488 41.439685 
" style="fill: none; stroke: #000000; stroke-width: 0.8; stroke-linejoin: miter; stroke-linecap: square"/>
   </g>
   <g id="text_17">
    <!-- Impulse response spectrum: MultiCycle filter vs Golden model -->
    <g transform="translate(49.476847 22.00231) scale(0.12 -0.12)">
     <defs>
      <path id="DejaVuSans-49" d="M 628 4666 
L 1259 4666 
L 1259 0 
L 628 0 
L 628 4666 
z
" transform="scale(0.015625)"/>
      <path id="DejaVuSans-70" d="M 1159 525 
L 1159 -1331 
L 581 -1331 
L 581 3500 
L 1159 3500 
L 1159 2969 
Q 1341 3281 1617 3432 
Q 1894 3584 2278 3584 
Q 2916 3584 3314 3078 
Q 3713 2572 3713 1747 
Q 3713 922 3314 415 
Q 2916 -91 2278 -91 
Q 1894 -91 1617 61 
Q 1341 213 1159 525 
z
M 3116 1747 
Q 3116 2381 2855 2742 
Q 2594 3103 2138 3103 
Q 1681 3103 1420 2742 
Q 1159 2381 1159 1747 
Q 1159 1113 1420 752 
Q 1681 391 2138 391 
Q 2594 391 2855 752 
Q 3116 1113 3116 1747 
z
" transform="scale(0.015625)"/>
      <path id="DejaVuSans-73" d="M 2834 3397 
L 2834 2853 
Q 2591 2978 2328 3040 
Q 2066 3103 1784 3103 
Q 1356 3103 1142 2972 
Q 928 2841 928 2578 
Q 928 2378 1081 2264 
Q 1234 2150 1697 2047 
L 1894 2003 
Q 2506 1872 2764 1633 
Q 3022 1394 3022 966 
Q 3022 478 2636 193 
Q 2250 -91 1575 -91 
Q 1294 -91 989 -36 
Q 684 19 347 128 
L 347 722 
Q 666 556 975 473 
Q 1284 391 1588 391 
Q 1994 391 2212 530 
Q 2431 669 2431 922 
Q 2431 1156 2273 1281 
Q 2116 1406 1581 1522 
L 1381 1569 
Q 847 1681 609 1914 
Q 372 2147 372 2553 
Q 372 3047 722 3315 
Q 1072 3584 1716 3584 
Q 2034 3584 2315 3537 
Q 2597 3491 2834 3397 
z
" transform="scale(0.015625)"/>
      <path id="DejaVuSans-74" d="M 1172 4494 
L 1172 3500 
L 2356 3500 
L 2356 3053 
L 1172 3053 
L 1172 1153 
Q 1172 725 1289 603 
Q 1406 481 1766 481 
L 2356 481 
L 2356 0 
L 1766 0 
Q 1100 0 847 248 
Q 594 497 594 1153 
L 594 3053 
L 172 3053 
L 172 3500 
L 594 3500 
L 594 4494 
L 1172 4494 
z
" transform="scale(0.015625)"/>
      <path id="DejaVuSans-3a" d="M 750 794 
L 1409 794 
L 1409 0 
L 750 0 
L 750 794 
z
M 750 3309 
L 1409 3309 
L 1409 2516 
L 750 2516 
L 750 3309 
z
" transform="scale(0.015625)"/>
      <path id="DejaVuSans-4d" d="M 628 4666 
L 1569 4666 
L 2759 1491 
L 3956 4666 
L 4897 4666 
L 4897 0 
L 4281 0 
L 4281 4097 
L 3078 897 
L 2444 897 
L 1241 4097 
L 1241 0 
L 628 0 
L 628 4666 
z
" transform="scale(0.015625)"/>
      <path id="DejaVuSans-43" d="M 4122 4306 
L 4122 3641 
Q 3803 3938 3442 4084 
Q 3081 4231 2675 4231 
Q 1875 4231 1450 3742 
Q 1025 3253 1025 2328 
Q 1025 1406 1450 917 
Q 1875 428 2675 428 
Q 3081 428 3442 575 
Q 3803 722 4122 1019 
L 4122 359 
Q 3791 134 3420 21 
Q 3050 -91 2638 -91 
Q 1578 -91 968 557 
Q 359 1206 359 2328 
Q 359 3453 968 4101 
Q 1578 4750 2638 4750 
Q 3056 4750 3426 4639 
Q 3797 4528 4122 4306 
z
" transform="scale(0.015625)"/>
      <path id="DejaVuSans-66" d="M 2375 4863 
L 2375 4384 
L 1825 4384 
Q 1516 4384 1395 4259 
Q 1275 4134 1275 3809 
L 1275 3500 
L 2222 3500 
L 2222 3053 
L 1275 3053 
L 1275 0 
L 697 0 
L 697 3053 
L 147 3053 
L 147 3500 
L 697 3500 
L 697 3744 
Q 697 4328 969 4595 
Q 1241 4863 1831 4863 
L 2375 4863 
z
" transform="scale(0.015625)"/>
      <path id="DejaVuSans-76" d="M 191 3500 
L 800 3500 
L 1894 563 
L 2988 3500 
L 3597 3500 
L 2284 0 
L 1503 0 
L 191 3500 
z
" transform="scale(0.015625)"/>
      <path id="DejaVuSans-47" d="M 3809 666 
L 3809 1919 
L 2778 1919 
L 2778 2438 
L 4434 2438 
L 4434 434 
Q 4069 175 3628 42 
Q 3188 -91 2688 -91 
Q 1594 -91 976 548 
Q 359 1188 359 2328 
Q 359 3472 976 4111 
Q 1594 4750 2688 4750 
Q 3144 4750 3555 4637 
Q 3966 4525 4313 4306 
L 4313 3634 
Q 3963 3931 3569 4081 
Q 3175 4231 2741 4231 
Q 1884 4231 1454 3753 
Q 1025 3275 1025 2328 
Q 1025 1384 1454 906 
Q 1884 428 2741 428 
Q 3075 428 3337 486 
Q 3600 544 3809 666 
z
" transform="scale(0.015625)"/>
     </defs>
     <use xlink:href="#DejaVuSans-49"/>
     <use xlink:href="#DejaVuSans-6d" transform="translate(29.492188 0)"/>
     <use xlink:href="#DejaVuSans-70" transform="translate(126.904297 0)"/>
     <use xlink:href="#DejaVuSans-75" transform="translate(190.380859 0)"/>
     <use xlink:href="#DejaVuSans-6c" transform="translate(253.759766 0)"/>
     <use xlink:href="#DejaVuSans-73" transform="translate(281.542969 0)"/>
     <use xlink:href="#DejaVuSans-65" transform="translate(333.642578 0)"/>
     <use xlink:href="#DejaVuSans-20" transform="translate(395.166016 0)"/>
     <use xlink:href="#DejaVuSans-72" transform="translate(426.953125 0)"/>
     <use xlink:href="#DejaVuSans-65" transform="translate(465.816406 0)"/>
     <use xlink:href="#DejaVuSans-73" transform="translate(527.339844 0)"/>
     <use xlink:href="#DejaVuSans-70" transform="translate(579.439453 0)"/>
     <use xlink:href="#DejaVuSans-6f" transform="translate(642.916016 0)"/>
     <use xlink:href="#DejaVuSans-6e" transform="translate(704.097656 0)"/>
     <use xlink:href="#DejaVuSans-73" transform="translate(767.476562 0)"/>
     <use xlink:href="#DejaVuSans-65" transform="translate(819.576172 0)"/>
     <use xlink:href="#DejaVuSans-20" transform="translate(881.099609 0)"/>
     <use xlink:href="#DejaVuSans-73" transform="translate(912.886719 0)"/>
     <use xlink:href="#DejaVuSans-70" transform="translate(964.986328 0)"/>
     <use xlink:href="#DejaVuSans-65" transform="translate(1028.462891 0)"/>
     <use xlink:href="#DejaVuSans-63" transform="translate(1089.986328 0)"/>
     <use xlink:href="#DejaVuSans-74" transform="translate(1144.966797 0)"/>
     <use xlink:href="#DejaVuSans-72" transform="translate(1184.175781 0)"/>
     <use xlink:href="#DejaVuSans-75" transform="translate(1225.289062 0)"/>
     <use xlink:href="#DejaVuSans-6d" transform="translate(1288.667969 0)"/>
     <use xlink:href="#DejaVuSans-3a" transform="translate(1386.080078 0)"/>
     <use xlink:href="#DejaVuSans-20" transform="translate(1419.771484 0)"/>
     <use xlink:href="#DejaVuSans-4d" transform="translate(1451.558594 0)"/>
     <use xlink:href="#DejaVuSans-75" transform="translate(1537.837891 0)"/>
     <use xlink:href="#DejaVuSans-6c" transform="translate(1601.216797 0)"/>
     <use xlink:href="#DejaVuSans-74" transform="translate(1629 0)"/>
     <use xlink:href="#DejaVuSans-69" transform="translate(1668.208984 0)"/>
     <use xlink:href="#DejaVuSans-43" transform="translate(1695.992188 0)"/>
     <use xlink:href="#DejaVuSans-79" transform="translate(1765.816406 0)"/>
     <use xlink:href="#DejaVuSans-63" transform="translate(1824.996094 0)"/>
     <use xlink:href="#DejaVuSans-6c" transform="translate(1879.976562 0)"/>
     <use xlink:href="#DejaVuSans-65" transform="translate(1907.759766 0)"/>
     <use xlink:href="#DejaVuSans-20" transform="translate(1969.283203 0)"/>
     <use xlink:href="#DejaVuSans-66" transform="translate(2001.070312 0)"/>
     <use xlink:href="#DejaVuSans-69" transform="translate(2036.275391 0)"/>
     <use xlink:href="#DejaVuSans-6c" transform="translate(2064.058594 0)"/>
     <use xlink:href="#DejaVuSans-74" transform="translate(2091.841797 0)"/>
     <use xlink:href="#DejaVuSans-65" transform="translate(2131.050781 0)"/>
     <use xlink:href="#DejaVuSans-72" transform="translate(2192.574219 0)"/>
     <use xlink:href="#DejaVuSans-20" transform="translate(2233.6875 0)"/>
     <use xlink:href="#DejaVuSans-76" transform="translate(2265.474609 0)"/>
     <use xlink:href="#DejaVuSans-73" transform="translate(2324.654297 0)"/>
     <use xlink:href="#DejaVuSans-20" transform="translate(2376.753906 0)"/>
     <use xlink:href="#DejaVuSans-47" transform="translate(2408.541016 0)"/>
     <use xlink:href="#DejaVuSans-6f" transform="translate(2486.03125 0)"/>
     <use xlink:href="#DejaVuSans-6c" transform="translate(2547.212891 0)"/>
     <use xlink:href="#DejaVuSans-64" transform="translate(2574.996094 0)"/>
     <use xlink:href="#DejaVuSans-65" transform="translate(2638.472656 0)"/>
     <use xlink:href="#DejaVuSans-6e" transform="translate(2699.996094 0)"/>
     <use xlink:href="#DejaVuSans-20" transform="translate(2763.375 0)"/>
     <use xlink:href="#DejaVuSans-6d" transform="translate(2795.162109 0)"/>
     <use xlink:href="#DejaVuSans-6f" transform="translate(2892.574219 0)"/>
     <use xlink:href="#DejaVuSans-64" transform="translate(2953.755859 0)"/>
     <use xlink:href="#DejaVuSans-65" transform="translate(3017.232422 0)"/>
     <use xlink:href="#DejaVuSans-6c" transform="translate(3078.755859 0)"/>
    </g>
    <!-- Taps=39, MACS=13 -->
    <g transform="translate(176.268097 35.439685) scale(0.12 -0.12)">
     <defs>
      <path id="DejaVuSans-54" d="M -19 4666 
L 3928 4666 
L 3928 4134 
L 2272 4134 
L 2272 0 
L 1638 0 
L 1638 4134 
L -19 4134 
L -19 4666 
z
" transform="scale(0.015625)"/>
      <path id="DejaVuSans-3d" d="M 678 2906 
L 4684 2906 
L 4684 2381 
L 678 2381 
L 678 2906 
z
M 678 1631 
L 4684 1631 
L 4684 1100 
L 678 1100 
L 678 1631 
z
" transform="scale(0.015625)"/>
      <path id="DejaVuSans-2c" d="M 750 794 
L 1409 794 
L 1409 256 
L 897 -744 
L 494 -744 
L 750 256 
L 750 794 
z
" transform="scale(0.015625)"/>
      <path id="DejaVuSans-41" d="M 2188 4044 
L 1331 1722 
L 3047 1722 
L 2188 4044 
z
M 1831 4666 
L 2547 4666 
L 4325 0 
L 3669 0 
L 3244 1197 
L 1141 1197 
L 716 0 
L 50 0 
L 1831 4666 
z
" transform="scale(0.015625)"/>
      <path id="DejaVuSans-53" d="M 3425 4513 
L 3425 3897 
Q 3066 4069 2747 4153 
Q 2428 4238 2131 4238 
Q 1616 4238 1336 4038 
Q 1056 3838 1056 3469 
Q 1056 3159 1242 3001 
Q 1428 2844 1947 2747 
L 2328 2669 
Q 3034 2534 3370 2195 
Q 3706 1856 3706 1288 
Q 3706 609 3251 259 
Q 2797 -91 1919 -91 
Q 1588 -91 1214 -16 
Q 841 59 441 206 
L 441 856 
Q 825 641 1194 531 
Q 1563 422 1919 422 
Q 2459 422 2753 634 
Q 3047 847 3047 1241 
Q 3047 1584 2836 1778 
Q 2625 1972 2144 2069 
L 1759 2144 
Q 1053 2284 737 2584 
Q 422 2884 422 3419 
Q 422 4038 858 4394 
Q 1294 4750 2059 4750 
Q 2388 4750 2728 4690 
Q 3069 4631 3425 4513 
z
" transform="scale(0.015625)"/>
     </defs>
     <use xlink:href="#DejaVuSans-54"/>
     <use xlink:href="#DejaVuSans-61" transform="translate(44.583984 0)"/>
     <use xlink:href="#DejaVuSans-70" transform="translate(105.863281 0)"/>
     <use xlink:href="#DejaVuSans-73" transform="translate(169.339844 0)"/>
     <use xlink:href="#DejaVuSans-3d" transform="translate(221.439453 0)"/>
     <use xlink:href="#DejaVuSans-33" transform="translate(305.228516 0)"/>
     <use xlink:href="#DejaVuSans-39" transform="translate(368.851562 0)"/>
     <use xlink:href="#DejaVuSans-2c" transform="translate(432.474609 0)"/>
     <use xlink:href="#DejaVuSans-20" transform="translate(464.261719 0)"/>
     <use xlink:href="#DejaVuSans-4d" transform="translate(496.048828 0)"/>
     <use xlink:href="#DejaVuSans-41" transform="translate(582.328125 0)"/>
     <use xlink:href="#DejaVuSans-43" transform="translate(648.986328 0)"/>
     <use xlink:href="#DejaVuSans-53" transform="translate(718.810547 0)"/>
     <use xlink:href="#DejaVuSans-3d" transform="translate(782.287109 0)"/>
     <use xlink:href="#DejaVuSans-31" transform="translate(866.076172 0)"/>
     <use xlink:href="#DejaVuSans-33" transform="translate(929.699219 0)"/>
    </g>
   </g>
   <g id="legend_1">
    <g id="patch_7">
     <path d="M 64.528957 302.344331 
L 167.130519 302.344331 
Q 169.130519 302.344331 169.130519 300.344331 
L 169.130519 271.988081 
Q 169.130519 269.988081 167.130519 269.988081 
L 64.528957 269.988081 
Q 62.528957 269.988081 62.528957 271.988081 
L 62.528957 300.344331 
Q 62.528957 302.344331 64.528957 302.344331 
z
" style="fill: #ffffff; opacity: 0.8; stroke: #cccccc; stroke-linejoin: miter"/>
    </g>
    <g id="line2d_33">
     <path d="M 66.528957 278.086518 
L 76.528957 278.086518 
L 86.528957 278.086518 
" style="fill: none; stroke: #0000ff; stroke-width: 2; stroke-linecap: square"/>
    </g>
    <g id="text_18">
     <!-- MultiCycle FIR -->
     <g transform="translate(94.528957 281.586518) scale(0.1 -0.1)">
      <defs>
       <path id="DejaVuSans-52" d="M 2841 2188 
Q 3044 2119 3236 1894 
Q 3428 1669 3622 1275 
L 4263 0 
L 3584 0 
L 2988 1197 
Q 2756 1666 2539 1819 
Q 2322 1972 1947 1972 
L 1259 1972 
L 1259 0 
L 628 0 
L 628 4666 
L 2053 4666 
Q 2853 4666 3247 4331 
Q 3641 3997 3641 3322 
Q 3641 2881 3436 2590 
Q 3231 2300 2841 2188 
z
M 1259 4147 
L 1259 2491 
L 2053 2491 
Q 2509 2491 2742 2702 
Q 2975 2913 2975 3322 
Q 2975 3731 2742 3939 
Q 2509 4147 2053 4147 
L 1259 4147 
z
" transform="scale(0.015625)"/>
      </defs>
      <use xlink:href="#DejaVuSans-4d"/>
      <use xlink:href="#DejaVuSans-75" transform="translate(86.279297 0)"/>
      <use xlink:href="#DejaVuSans-6c" transform="translate(149.658203 0)"/>
      <use xlink:href="#DejaVuSans-74" transform="translate(177.441406 0)"/>
      <use xlink:href="#DejaVuSans-69" transform="translate(216.650391 0)"/>
      <use xlink:href="#DejaVuSans-43" transform="translate(244.433594 0)"/>
      <use xlink:href="#DejaVuSans-79" transform="translate(314.257812 0)"/>
      <use xlink:href="#DejaVuSans-63" transform="translate(373.4375 0)"/>
      <use xlink:href="#DejaVuSans-6c" transform="translate(428.417969 0)"/>
      <use xlink:href="#DejaVuSans-65" transform="translate(456.201172 0)"/>
      <use xlink:href="#DejaVuSans-20" transform="translate(517.724609 0)"/>
      <use xlink:href="#DejaVuSans-46" transform="translate(549.511719 0)"/>
      <use xlink:href="#DejaVuSans-49" transform="translate(607.03125 0)"/>
      <use xlink:href="#DejaVuSans-52" transform="translate(636.523438 0)"/>
     </g>
    </g>
    <g id="line2d_34">
     <path d="M 66.528957 292.764643 
L 76.528957 292.764643 
L 86.528957 292.764643 
" style="fill: none; stroke: #ff0000; stroke-width: 2; stroke-linecap: square"/>
    </g>
    <g id="text_19">
     <!-- Golden model -->
     <g transform="translate(94.528957 296.264643) scale(0.1 -0.1)">
      <use xlink:href="#DejaVuSans-47"/>
      <use xlink:href="#DejaVuSans-6f" transform="translate(77.490234 0)"/>
      <use xlink:href="#DejaVuSans-6c" transform="translate(138.671875 0)"/>
      <use xlink:href="#DejaVuSans-64" transform="translate(166.455078 0)"/>
      <use xlink:href="#DejaVuSans-65" transform="translate(229.931641 0)"/>
      <use xlink:href="#DejaVuSans-6e" transform="translate(291.455078 0)"/>
      <use xlink:href="#DejaVuSans-20" transform="translate(354.833984 0)"/>
      <use xlink:href="#DejaVuSans-6d" transform="translate(386.621094 0)"/>
      <use xlink:href="#DejaVuSans-6f" transform="translate(484.033203 0)"/>
      <use xlink:href="#DejaVuSans-64" transform="translate(545.214844 0)"/>
      <use xlink:href="#DejaVuSans-65" transform="translate(608.691406 0)"/>
      <use xlink:href="#DejaVuSans-6c" transform="translate(670.214844 0)"/>
     </g>
    </g>
   </g>
  </g>
 </g>
 <defs>
  <clipPath id="pae958c25b1">
   <rect x="57.528957" y="41.439685" width="356.679531" height="265.904646"/>
  </clipPath>
 </defs>
</svg>
