<?xml version="1.0" encoding="utf-8" standalone="no"?>
<!DOCTYPE svg PUBLIC "-//W3C//DTD SVG 1.1//EN"
  "http://www.w3.org/Graphics/SVG/1.1/DTD/svg11.dtd">
<svg xmlns:xlink="http://www.w3.org/1999/xlink" width="460.231654pt" height="345.330709pt" viewBox="0 0 460.231654 345.330709" xmlns="http://www.w3.org/2000/svg" version="1.1">
 <metadata>
  <rdf:RDF xmlns:dc="http://purl.org/dc/elements/1.1/" xmlns:cc="http://creativecommons.org/ns#" xmlns:rdf="http://www.w3.org/1999/02/22-rdf-syntax-ns#">
   <cc:Work>
    <dc:type rdf:resource="http://purl.org/dc/dcmitype/StillImage"/>
    <dc:date>2026-03-23T13:10:38.472930</dc:date>
    <dc:format>image/svg+xml</dc:format>
    <dc:creator>
     <cc:Agent>
      <dc:title>Matplotlib v3.10.8, https://matplotlib.org/</dc:title>
     </cc:Agent>
    </dc:creator>
   </cc:Work>
  </rdf:RDF>
 </metadata>
 <defs>
  <style type="text/css">*{stroke-linejoin: round; stroke-linecap: butt}</style>
 </defs>
 <g id="figure_1">
  <g id="patch_1">
   <path d="M 0 345.330709 
L 460.231654 345.330709 
L 460.231654 0 
L 0 0 
z
" style="fill: #ffffff"/>
  </g>
  <g id="axes_1">
   <g id="patch_2">
    <path d="M 57.528957 307.344331 
L 414.208488 307.344331 
L 414.208488 41.439685 
L 57.528957 41.439685 
z
" style="fill: #ffffff"/>
   </g>
   <g id="matplotlib.axis_1">
    <g id="xtick_1">
     <g id="line2d_1">
      <defs>
       <path id="me86140c1b9" d="M 0 0 
L 0 3.5 
" style="stroke: #000000; stroke-width: 0.8"/>
      </defs>
      <g>
       <use xlink:href="#me86140c1b9" x="106.170317" y="307.344331" style="stroke: #000000; stroke-width: 0.8"/>
      </g>
     </g>
     <g id="text_1">
      <!-- −0.4 -->
      <g transform="translate(94.028911 321.942768) scale(0.1 -0.1)">
       <defs>
        <path id="DejaVuSans-2212" d="M 678 2272 
L 4684 2272 
L 4684 1741 
L 678 1741 
L 678 2272 
z
" transform="scale(0.015625)"/>
        <path id="DejaVuSans-30" d="M 2034 4250 
Q 1547 4250 1301 3770 
Q 1056 3291 1056 2328 
Q 1056 1369 1301 889 
Q 1547 409 2034 409 
Q 2525 409 2770 889 
Q 3016 1369 3016 2328 
Q 3016 3291 2770 3770 
Q 2525 4250 2034 4250 
z
M 2034 4750 
Q 2819 4750 3233 4129 
Q 3647 3509 3647 2328 
Q 3647 1150 3233 529 
Q 2819 -91 2034 -91 
Q 1250 -91 836 529 
Q 422 1150 422 2328 
Q 422 3509 836 4129 
Q 1250 4750 2034 4750 
z
" transform="scale(0.015625)"/>
        <path id="DejaVuSans-2e" d="M 684 794 
L 1344 794 
L 1344 0 
L 684 0 
L 684 794 
z
" transform="scale(0.015625)"/>
        <path id="DejaVuSans-34" d="M 2419 4116 
L 825 1625 
L 2419 1625 
L 2419 4116 
z
M 2253 4666 
L 3047 4666 
L 3047 1625 
L 3713 1625 
L 3713 1100 
L 3047 1100 
L 3047 0 
L 2419 0 
L 2419 1100 
L 313 1100 
L 313 1709 
L 2253 4666 
z
" transform="scale(0.015625)"/>
       </defs>
       <use xlink:href="#DejaVuSans-2212"/>
       <use xlink:href="#DejaVuSans-30" transform="translate(83.789062 0)"/>
       <use xlink:href="#DejaVuSans-2e" transform="translate(147.412109 0)"/>
       <use xlink:href="#DejaVuSans-34" transform="translate(179.199219 0)"/>
      </g>
     </g>
    </g>
    <g id="xtick_2">
     <g id="line2d_2">
      <g>
       <use xlink:href="#me86140c1b9" x="171.027627" y="307.344331" style="stroke: #000000; stroke-width: 0.8"/>
      </g>
     </g>
     <g id="text_2">
      <!-- −0.2 -->
      <g transform="translate(158.886221 321.942768) scale(0.1 -0.1)">
       <defs>
        <path id="DejaVuSans-32" d="M 1228 531 
L 3431 531 
L 3431 0 
L 469 0 
L 469 531 
Q 828 903 1448 1529 
Q 2069 2156 2228 2338 
Q 2531 2678 2651 2914 
Q 2772 3150 2772 3378 
Q 2772 3750 2511 3984 
Q 2250 4219 1831 4219 
Q 1534 4219 1204 4116 
Q 875 4013 500 3803 
L 500 4441 
Q 881 4594 1212 4672 
Q 1544 4750 1819 4750 
Q 2544 4750 2975 4387 
Q 3406 4025 3406 3419 
Q 3406 3131 3298 2873 
Q 3191 2616 2906 2266 
Q 2828 2175 2409 1742 
Q 1991 1309 1228 531 
z
" transform="scale(0.015625)"/>
       </defs>
       <use xlink:href="#DejaVuSans-2212"/>
       <use xlink:href="#DejaVuSans-30" transform="translate(83.789062 0)"/>
       <use xlink:href="#DejaVuSans-2e" transform="translate(147.412109 0)"/>
       <use xlink:href="#DejaVuSans-32" transform="translate(179.199219 0)"/>
      </g>
     </g>
    </g>
    <g id="xtick_3">
     <g id="line2d_3">
      <g>
       <use xlink:href="#me86140c1b9" x="235.884937" y="307.344331" style="stroke: #000000; stroke-width: 0.8"/>
      </g>
     </g>
     <g id="text_3">
      <!-- 0.0 -->
      <g transform="translate(227.933374 321.942768) scale(0.1 -0.1)">
       <use xlink:href="#DejaVuSans-30"/>
       <use xlink:href="#DejaVuSans-2e" transform="translate(63.623047 0)"/>
       <use xlink:href="#DejaVuSans-30" transform="translate(95.410156 0)"/>
      </g>
     </g>
    </g>
    <g id="xtick_4">
     <g id="line2d_4">
      <g>
       <use xlink:href="#me86140c1b9" x="300.742246" y="307.344331" style="stroke: #000000; stroke-width: 0.8"/>
      </g>
     </g>
     <g id="text_4">
      <!-- 0.2 -->
      <g transform="translate(292.790684 321.942768) scale(0.1 -0.1)">
       <use xlink:href="#DejaVuSans-30"/>
       <use xlink:href="#DejaVuSans-2e" transform="translate(63.623047 0)"/>
       <use xlink:href="#DejaVuSans-32" transform="translate(95.410156 0)"/>
      </g>
     </g>
    </g>
    <g id="xtick_5">
     <g id="line2d_5">
      <g>
       <use xlink:href="#me86140c1b9" x="365.599556" y="307.344331" style="stroke: #000000; stroke-width: 0.8"/>
      </g>
     </g>
     <g id="text_5">
      <!-- 0.4 -->
      <g transform="translate(357.647994 321.942768) scale(0.1 -0.1)">
       <use xlink:href="#DejaVuSans-30"/>
       <use xlink:href="#DejaVuSans-2e" transform="translate(63.623047 0)"/>
       <use xlink:href="#DejaVuSans-34" transform="translate(95.410156 0)"/>
      </g>
     </g>
    </g>
    <g id="text_6">
     <!-- Normalized Frequency -->
     <g transform="translate(180.094504 335.620893) scale(0.1 -0.1)">
      <defs>
       <path id="DejaVuSans-4e" d="M 628 4666 
L 1478 4666 
L 3547 763 
L 3547 4666 
L 4159 4666 
L 4159 0 
L 3309 0 
L 1241 3903 
L 1241 0 
L 628 0 
L 628 4666 
z
" transform="scale(0.015625)"/>
       <path id="DejaVuSans-6f" d="M 1959 3097 
Q 1497 3097 1228 2736 
Q 959 2375 959 1747 
Q 959 1119 1226 758 
Q 1494 397 1959 397 
Q 2419 397 2687 759 
Q 2956 1122 2956 1747 
Q 2956 2369 2687 2733 
Q 2419 3097 1959 3097 
z
M 1959 3584 
Q 2709 3584 3137 3096 
Q 3566 2609 3566 1747 
Q 3566 888 3137 398 
Q 2709 -91 1959 -91 
Q 1206 -91 779 398 
Q 353 888 353 1747 
Q 353 2609 779 3096 
Q 1206 3584 1959 3584 
z
" transform="scale(0.015625)"/>
       <path id="DejaVuSans-72" d="M 2631 2963 
Q 2534 3019 2420 3045 
Q 2306 3072 2169 3072 
Q 1681 3072 1420 2755 
Q 1159 2438 1159 1844 
L 1159 0 
L 581 0 
L 581 3500 
L 1159 3500 
L 1159 2956 
Q 1341 3275 1631 3429 
Q 1922 3584 2338 3584 
Q 2397 3584 2469 3576 
Q 2541 3569 2628 3553 
L 2631 2963 
z
" transform="scale(0.015625)"/>
       <path id="DejaVuSans-6d" d="M 3328 2828 
Q 3544 3216 3844 3400 
Q 4144 3584 4550 3584 
Q 5097 3584 5394 3201 
Q 5691 2819 5691 2113 
L 5691 0 
L 5113 0 
L 5113 2094 
Q 5113 2597 4934 2840 
Q 4756 3084 4391 3084 
Q 3944 3084 3684 2787 
Q 3425 2491 3425 1978 
L 3425 0 
L 2847 0 
L 2847 2094 
Q 2847 2600 2669 2842 
Q 2491 3084 2119 3084 
Q 1678 3084 1418 2786 
Q 1159 2488 1159 1978 
L 1159 0 
L 581 0 
L 581 3500 
L 1159 3500 
L 1159 2956 
Q 1356 3278 1631 3431 
Q 1906 3584 2284 3584 
Q 2666 3584 2933 3390 
Q 3200 3197 3328 2828 
z
" transform="scale(0.015625)"/>
       <path id="DejaVuSans-61" d="M 2194 1759 
Q 1497 1759 1228 1600 
Q 959 1441 959 1056 
Q 959 750 1161 570 
Q 1363 391 1709 391 
Q 2188 391 2477 730 
Q 2766 1069 2766 1631 
L 2766 1759 
L 2194 1759 
z
M 3341 1997 
L 3341 0 
L 2766 0 
L 2766 531 
Q 2569 213 2275 61 
Q 1981 -91 1556 -91 
Q 1019 -91 701 211 
Q 384 513 384 1019 
Q 384 1609 779 1909 
Q 1175 2209 1959 2209 
L 2766 2209 
L 2766 2266 
Q 2766 2663 2505 2880 
Q 2244 3097 1772 3097 
Q 1472 3097 1187 3025 
Q 903 2953 641 2809 
L 641 3341 
Q 956 3463 1253 3523 
Q 1550 3584 1831 3584 
Q 2591 3584 2966 3190 
Q 3341 2797 3341 1997 
z
" transform="scale(0.015625)"/>
       <path id="DejaVuSans-6c" d="M 603 4863 
L 1178 4863 
L 1178 0 
L 603 0 
L 603 4863 
z
" transform="scale(0.015625)"/>
       <path id="DejaVuSans-69" d="M 603 3500 
L 1178 3500 
L 1178 0 
L 603 0 
L 603 3500 
z
M 603 4863 
L 1178 4863 
L 1178 4134 
L 603 4134 
L 603 4863 
z
" transform="scale(0.015625)"/>
       <path id="DejaVuSans-7a" d="M 353 3500 
L 3084 3500 
L 3084 2975 
L 922 459 
L 3084 459 
L 3084 0 
L 275 0 
L 275 525 
L 2438 3041 
L 353 3041 
L 353 3500 
z
" transform="scale(0.015625)"/>
       <path id="DejaVuSans-65" d="M 3597 1894 
L 3597 1613 
L 953 1613 
Q 991 1019 1311 708 
Q 1631 397 2203 397 
Q 2534 397 2845 478 
Q 3156 559 3463 722 
L 3463 178 
Q 3153 47 2828 -22 
Q 2503 -91 2169 -91 
Q 1331 -91 842 396 
Q 353 884 353 1716 
Q 353 2575 817 3079 
Q 1281 3584 2069 3584 
Q 2775 3584 3186 3129 
Q 3597 2675 3597 1894 
z
M 3022 2063 
Q 3016 2534 2758 2815 
Q 2500 3097 2075 3097 
Q 1594 3097 1305 2825 
Q 1016 2553 972 2059 
L 3022 2063 
z
" transform="scale(0.015625)"/>
       <path id="DejaVuSans-64" d="M 2906 2969 
L 2906 4863 
L 3481 4863 
L 3481 0 
L 2906 0 
L 2906 525 
Q 2725 213 2448 61 
Q 2172 -91 1784 -91 
Q 1150 -91 751 415 
Q 353 922 353 1747 
Q 353 2572 751 3078 
Q 1150 3584 1784 3584 
Q 2172 3584 2448 3432 
Q 2725 3281 2906 2969 
z
M 947 1747 
Q 947 1113 1208 752 
Q 1469 391 1925 391 
Q 2381 391 2643 752 
Q 2906 1113 2906 1747 
Q 2906 2381 2643 2742 
Q 2381 3103 1925 3103 
Q 1469 3103 1208 2742 
Q 947 2381 947 1747 
z
" transform="scale(0.015625)"/>
       <path id="DejaVuSans-20" transform="scale(0.015625)"/>
       <path id="DejaVuSans-46" d="M 628 4666 
L 3309 4666 
L 3309 4134 
L 1259 4134 
L 1259 2759 
L 3109 2759 
L 3109 2228 
L 1259 2228 
L 1259 0 
L 628 0 
L 628 4666 
z
" transform="scale(0.015625)"/>
       <path id="DejaVuSans-71" d="M 947 1747 
Q 947 1113 1208 752 
Q 1469 391 1925 391 
Q 2381 391 2643 752 
Q 2906 1113 2906 1747 
Q 2906 2381 2643 2742 
Q 2381 3103 1925 3103 
Q 1469 3103 1208 2742 
Q 947 2381 947 1747 
z
M 2906 525 
Q 2725 213 2448 61 
Q 2172 -91 1784 -91 
Q 1150 -91 751 415 
Q 353 922 353 1747 
Q 353 2572 751 3078 
Q 1150 3584 1784 3584 
Q 2172 3584 2448 3432 
Q 2725 3281 2906 2969 
L 2906 3500 
L 3481 3500 
L 3481 -1331 
L 2906 -1331 
L 2906 525 
z
" transform="scale(0.015625)"/>
       <path id="DejaVuSans-75" d="M 544 1381 
L 544 3500 
L 1119 3500 
L 1119 1403 
Q 1119 906 1312 657 
Q 1506 409 1894 409 
Q 2359 409 2629 706 
Q 2900 1003 2900 1516 
L 2900 3500 
L 3475 3500 
L 3475 0 
L 2900 0 
L 2900 538 
Q 2691 219 2414 64 
Q 2138 -91 1772 -91 
Q 1169 -91 856 284 
Q 544 659 544 1381 
z
M 1991 3584 
L 1991 3584 
z
" transform="scale(0.015625)"/>
       <path id="DejaVuSans-6e" d="M 3513 2113 
L 3513 0 
L 2938 0 
L 2938 2094 
Q 2938 2591 2744 2837 
Q 2550 3084 2163 3084 
Q 1697 3084 1428 2787 
Q 1159 2491 1159 1978 
L 1159 0 
L 581 0 
L 581 3500 
L 1159 3500 
L 1159 2956 
Q 1366 3272 1645 3428 
Q 1925 3584 2291 3584 
Q 2894 3584 3203 3211 
Q 3513 2838 3513 2113 
z
" transform="scale(0.015625)"/>
       <path id="DejaVuSans-63" d="M 3122 3366 
L 3122 2828 
Q 2878 2963 2633 3030 
Q 2388 3097 2138 3097 
Q 1578 3097 1268 2742 
Q 959 2388 959 1747 
Q 959 1106 1268 751 
Q 1578 397 2138 397 
Q 2388 397 2633 464 
Q 2878 531 3122 666 
L 3122 134 
Q 2881 22 2623 -34 
Q 2366 -91 2075 -91 
Q 1284 -91 818 406 
Q 353 903 353 1747 
Q 353 2603 823 3093 
Q 1294 3584 2113 3584 
Q 2378 3584 2631 3529 
Q 2884 3475 3122 3366 
z
" transform="scale(0.015625)"/>
       <path id="DejaVuSans-79" d="M 2059 -325 
Q 1816 -950 1584 -1140 
Q 1353 -1331 966 -1331 
L 506 -1331 
L 506 -850 
L 844 -850 
Q 1081 -850 1212 -737 
Q 1344 -625 1503 -206 
L 1606 56 
L 191 3500 
L 800 3500 
L 1894 763 
L 2988 3500 
L 3597 3500 
L 2059 -325 
z
" transform="scale(0.015625)"/>
      </defs>
      <use xlink:href="#DejaVuSans-4e"/>
      <use xlink:href="#DejaVuSans-6f" transform="translate(74.804688 0)"/>
      <use xlink:href="#DejaVuSans-72" transform="translate(135.986328 0)"/>
      <use xlink:href="#DejaVuSans-6d" transform="translate(175.349609 0)"/>
      <use xlink:href="#DejaVuSans-61" transform="translate(272.761719 0)"/>
      <use xlink:href="#DejaVuSans-6c" transform="translate(334.041016 0)"/>
      <use xlink:href="#DejaVuSans-69" transform="translate(361.824219 0)"/>
      <use xlink:href="#DejaVuSans-7a" transform="translate(389.607422 0)"/>
      <use xlink:href="#DejaVuSans-65" transform="translate(442.097656 0)"/>
      <use xlink:href="#DejaVuSans-64" transform="translate(503.621094 0)"/>
      <use xlink:href="#DejaVuSans-20" transform="translate(567.097656 0)"/>
      <use xlink:href="#DejaVuSans-46" transform="translate(598.884766 0)"/>
      <use xlink:href="#DejaVuSans-72" transform="translate(649.154297 0)"/>
      <use xlink:href="#DejaVuSans-65" transform="translate(688.017578 0)"/>
      <use xlink:href="#DejaVuSans-71" transform="translate(749.541016 0)"/>
      <use xlink:href="#DejaVuSans-75" transform="translate(813.017578 0)"/>
      <use xlink:href="#DejaVuSans-65" transform="translate(876.396484 0)"/>
      <use xlink:href="#DejaVuSans-6e" transform="translate(937.919922 0)"/>
      <use xlink:href="#DejaVuSans-63" transform="translate(1001.298828 0)"/>
      <use xlink:href="#DejaVuSans-79" transform="translate(1056.279297 0)"/>
     </g>
    </g>
   </g>
   <g id="matplotlib.axis_2">
    <g id="ytick_1">
     <g id="line2d_6">
      <defs>
       <path id="m2f4464f53c" d="M 0 0 
L -3.5 0 
" style="stroke: #000000; stroke-width: 0.8"/>
      </defs>
      <g>
       <use xlink:href="#m2f4464f53c" x="57.528957" y="298.703575" style="stroke: #000000; stroke-width: 0.8"/>
      </g>
     </g>
     <g id="text_7">
      <!-- −100 -->
      <g transform="translate(23.061769 302.502793) scale(0.1 -0.1)">
       <defs>
        <path id="DejaVuSans-31" d="M 794 531 
L 1825 531 
L 1825 4091 
L 703 3866 
L 703 4441 
L 1819 4666 
L 2450 4666 
L 2450 531 
L 3481 531 
L 3481 0 
L 794 0 
L 794 531 
z
" transform="scale(0.015625)"/>
       </defs>
       <use xlink:href="#DejaVuSans-2212"/>
       <use xlink:href="#DejaVuSans-31" transform="translate(83.789062 0)"/>
       <use xlink:href="#DejaVuSans-30" transform="translate(147.412109 0)"/>
       <use xlink:href="#DejaVuSans-30" transform="translate(211.035156 0)"/>
      </g>
     </g>
    </g>
    <g id="ytick_2">
     <g id="line2d_7">
      <g>
       <use xlink:href="#m2f4464f53c" x="57.528957" y="249.668112" style="stroke: #000000; stroke-width: 0.8"/>
      </g>
     </g>
     <g id="text_8">
      <!-- −80 -->
      <g transform="translate(29.424269 253.46733) scale(0.1 -0.1)">
       <defs>
        <path id="DejaVuSans-38" d="M 2034 2216 
Q 1584 2216 1326 1975 
Q 1069 1734 1069 1313 
Q 1069 891 1326 650 
Q 1584 409 2034 409 
Q 2484 409 2743 651 
Q 3003 894 3003 1313 
Q 3003 1734 2745 1975 
Q 2488 2216 2034 2216 
z
M 1403 2484 
Q 997 2584 770 2862 
Q 544 3141 544 3541 
Q 544 4100 942 4425 
Q 1341 4750 2034 4750 
Q 2731 4750 3128 4425 
Q 3525 4100 3525 3541 
Q 3525 3141 3298 2862 
Q 3072 2584 2669 2484 
Q 3125 2378 3379 2068 
Q 3634 1759 3634 1313 
Q 3634 634 3220 271 
Q 2806 -91 2034 -91 
Q 1263 -91 848 271 
Q 434 634 434 1313 
Q 434 1759 690 2068 
Q 947 2378 1403 2484 
z
M 1172 3481 
Q 1172 3119 1398 2916 
Q 1625 2713 2034 2713 
Q 2441 2713 2670 2916 
Q 2900 3119 2900 3481 
Q 2900 3844 2670 4047 
Q 2441 4250 2034 4250 
Q 1625 4250 1398 4047 
Q 1172 3844 1172 3481 
z
" transform="scale(0.015625)"/>
       </defs>
       <use xlink:href="#DejaVuSans-2212"/>
       <use xlink:href="#DejaVuSans-38" transform="translate(83.789062 0)"/>
       <use xlink:href="#DejaVuSans-30" transform="translate(147.412109 0)"/>
      </g>
     </g>
    </g>
    <g id="ytick_3">
     <g id="line2d_8">
      <g>
       <use xlink:href="#m2f4464f53c" x="57.528957" y="200.632649" style="stroke: #000000; stroke-width: 0.8"/>
      </g>
     </g>
     <g id="text_9">
      <!-- −60 -->
      <g transform="translate(29.424269 204.431867) scale(0.1 -0.1)">
       <defs>
        <path id="DejaVuSans-36" d="M 2113 2584 
Q 1688 2584 1439 2293 
Q 1191 2003 1191 1497 
Q 1191 994 1439 701 
Q 1688 409 2113 409 
Q 2538 409 2786 701 
Q 3034 994 3034 1497 
Q 3034 2003 2786 2293 
Q 2538 2584 2113 2584 
z
M 3366 4563 
L 3366 3988 
Q 3128 4100 2886 4159 
Q 2644 4219 2406 4219 
Q 1781 4219 1451 3797 
Q 1122 3375 1075 2522 
Q 1259 2794 1537 2939 
Q 1816 3084 2150 3084 
Q 2853 3084 3261 2657 
Q 3669 2231 3669 1497 
Q 3669 778 3244 343 
Q 2819 -91 2113 -91 
Q 1303 -91 875 529 
Q 447 1150 447 2328 
Q 447 3434 972 4092 
Q 1497 4750 2381 4750 
Q 2619 4750 2861 4703 
Q 3103 4656 3366 4563 
z
" transform="scale(0.015625)"/>
       </defs>
       <use xlink:href="#DejaVuSans-2212"/>
       <use xlink:href="#DejaVuSans-36" transform="translate(83.789062 0)"/>
       <use xlink:href="#DejaVuSans-30" transform="translate(147.412109 0)"/>
      </g>
     </g>
    </g>
    <g id="ytick_4">
     <g id="line2d_9">
      <g>
       <use xlink:href="#m2f4464f53c" x="57.528957" y="151.597186" style="stroke: #000000; stroke-width: 0.8"/>
      </g>
     </g>
     <g id="text_10">
      <!-- −40 -->
      <g transform="translate(29.424269 155.396405) scale(0.1 -0.1)">
       <use xlink:href="#DejaVuSans-2212"/>
       <use xlink:href="#DejaVuSans-34" transform="translate(83.789062 0)"/>
       <use xlink:href="#DejaVuSans-30" transform="translate(147.412109 0)"/>
      </g>
     </g>
    </g>
    <g id="ytick_5">
     <g id="line2d_10">
      <g>
       <use xlink:href="#m2f4464f53c" x="57.528957" y="102.561723" style="stroke: #000000; stroke-width: 0.8"/>
      </g>
     </g>
     <g id="text_11">
      <!-- −20 -->
      <g transform="translate(29.424269 106.360942) scale(0.1 -0.1)">
       <use xlink:href="#DejaVuSans-2212"/>
       <use xlink:href="#DejaVuSans-32" transform="translate(83.789062 0)"/>
       <use xlink:href="#DejaVuSans-30" transform="translate(147.412109 0)"/>
      </g>
     </g>
    </g>
    <g id="ytick_6">
     <g id="line2d_11">
      <g>
       <use xlink:href="#m2f4464f53c" x="57.528957" y="53.52626" style="stroke: #000000; stroke-width: 0.8"/>
      </g>
     </g>
     <g id="text_12">
      <!-- 0 -->
      <g transform="translate(44.166457 57.325479) scale(0.1 -0.1)">
       <use xlink:href="#DejaVuSans-30"/>
      </g>
     </g>
    </g>
   </g>
   <g id="line2d_12">
    <path d="M 73.741663 295.257756 
L 73.80652 264.03095 
L 73.871377 264.031083 
L 76.952099 264.114943 
L 76.984528 253.449078 
L 77.049385 264.118759 
L 80.194965 264.211034 
L 80.227394 267.010476 
L 80.292251 264.21293 
L 83.43783 264.281481 
L 83.470259 259.021347 
L 83.535116 264.283846 
L 86.680696 264.296642 
L 86.713125 261.493357 
L 86.777982 264.29373 
L 89.923561 264.108042 
L 89.95599 250.805626 
L 90.020847 264.101292 
L 93.166427 263.942926 
L 93.198856 266.429588 
L 93.263713 263.939882 
L 96.409292 263.837459 
L 96.441721 240.533072 
L 96.506578 263.833436 
L 99.652158 263.701219 
L 99.684587 284.648371 
L 99.749444 263.697733 
L 104.613742 263.415009 
L 106.137889 263.240494 
L 106.170317 288.007648 
L 106.235175 263.229236 
L 109.380754 262.97698 
L 109.413183 252.148053 
L 109.47804 262.973455 
L 112.62362 262.860491 
L 112.656048 245.875578 
L 112.720906 262.853623 
L 115.477341 262.543018 
L 115.866485 262.492304 
L 115.898914 248.531424 
L 115.963771 262.479938 
L 118.752636 262.239481 
L 119.109351 262.224658 
L 119.141779 252.521525 
L 119.206637 262.220925 
L 122.352216 262.020306 
L 122.384645 255.543909 
L 122.449502 262.008495 
L 125.595082 261.53218 
L 125.62751 244.69189 
L 125.692368 261.519186 
L 128.092088 261.315002 
L 128.837947 261.280079 
L 128.870376 242.576625 
L 128.935233 261.275352 
L 131.464668 261.03901 
L 132.080813 260.938361 
L 132.113241 245.455549 
L 132.178099 260.921243 
L 135.323678 260.335418 
L 135.356107 240.82191 
L 135.420964 260.317908 
L 137.723399 259.792789 
L 138.566544 259.499573 
L 138.598972 169.196782 
L 138.66383 259.462105 
L 141.160836 258.604767 
L 141.809409 258.603845 
L 141.841838 132.843284 
L 141.906695 258.620115 
L 142.52284 258.848087 
L 143.106555 259.304425 
L 143.690271 260.053805 
L 144.306416 261.233219 
L 144.954989 262.992773 
L 145.052275 263.308122 
L 145.084703 108.319354 
L 145.149561 263.637662 
L 145.862991 266.497592 
L 147.58171 273.935986 
L 147.776282 274.007234 
L 147.938425 273.794689 
L 148.165425 273.074124 
L 148.29514 272.456321 
L 148.327569 90.658837 
L 148.392426 271.906784 
L 148.911285 268.109246 
L 150.857004 252.935005 
L 151.538006 248.892393 
L 151.570434 77.685532 
L 151.635292 248.369207 
L 152.608151 243.800819 
L 153.548582 240.392264 
L 154.456585 237.903587 
L 154.780871 237.188229 
L 154.8133 68.327019 
L 154.878157 236.990599 
L 155.656445 235.682469 
L 156.369875 234.895546 
L 156.98602 234.524036 
L 157.537307 234.430994 
L 158.023737 234.536707 
L 158.056165 61.846718 
L 158.121023 234.579076 
L 158.704738 234.983054 
L 159.320883 235.690871 
L 160.034313 236.875432 
L 160.84503 238.689313 
L 161.266602 239.813648 
L 161.299031 57.663041 
L 161.363888 240.088395 
L 163.698751 246.443548 
L 164.087895 246.78521 
L 164.379753 246.756906 
L 164.509468 246.662473 
L 164.541896 55.25589 
L 164.606753 246.558947 
L 164.963469 245.952318 
L 165.449899 244.639179 
L 166.293044 241.587823 
L 167.752333 236.083207 
L 167.784762 54.088239 
L 167.849619 235.750348 
L 168.919765 232.50148 
L 169.892624 230.226619 
L 170.768198 228.715056 
L 170.995198 228.402685 
L 171.027627 53.660118 
L 171.092484 228.278601 
L 171.870772 227.493448 
L 172.551774 227.102906 
L 173.200347 226.984012 
L 173.816491 227.099684 
L 174.238064 227.308742 
L 174.270493 53.568976 
L 174.33535 227.372197 
L 174.983923 227.944235 
L 175.697353 228.883919 
L 176.475641 230.306303 
L 177.286358 232.271467 
L 177.480929 232.822573 
L 177.513358 53.565883 
L 177.578215 233.11025 
L 178.453789 236.080866 
L 179.426649 240.214724 
L 180.723795 246.554783 
L 180.756224 53.559873 
L 180.821081 246.995577 
L 181.404797 249.125161 
L 181.761512 249.752067 
L 181.988512 249.80178 
L 182.215513 249.568073 
L 182.507371 248.880676 
L 182.961372 247.136683 
L 183.901803 242.359037 
L 183.96666 242.019235 
L 183.999089 53.561212 
L 184.063946 241.512515 
L 185.296235 235.689715 
L 186.301524 231.966147 
L 187.209526 229.365414 
L 187.241955 53.570666 
L 187.306812 229.126169 
L 188.182386 227.289737 
L 188.993102 226.065892 
L 189.738961 225.317497 
L 190.419963 224.938153 
L 190.452391 224.927237 
L 190.48482 53.56818 
L 190.549677 224.898381 
L 191.165822 224.851549 
L 191.749538 225.026359 
L 192.365682 225.44972 
L 193.014255 226.174791 
L 193.695257 227.270005 
L 193.727686 53.564151 
L 193.792543 227.45647 
L 194.538402 229.160058 
L 195.31669 231.522367 
L 196.094977 234.61739 
L 196.873265 238.647704 
L 196.938122 239.033953 
L 196.970551 53.559004 
L 197.035408 239.629389 
L 197.846125 245.400327 
L 199.370271 256.878698 
L 199.532415 257.038385 
L 199.662129 256.855307 
L 199.856701 256.090247 
L 200.180988 253.81057 
L 200.213416 53.56024 
L 200.278274 252.968559 
L 202.191564 236.781977 
L 203.099567 231.528352 
L 203.423853 229.964833 
L 203.456282 53.566607 
L 203.521139 229.52339 
L 204.46157 225.829822 
L 205.402001 223.011536 
L 206.310004 220.968227 
L 206.666719 220.32659 
L 206.699147 53.567564 
L 206.764005 220.166462 
L 207.574721 219.070019 
L 208.32058 218.423183 
L 208.969153 218.136074 
L 209.585298 218.102225 
L 209.909584 218.180213 
L 209.942013 53.564867 
L 210.00687 218.216819 
L 210.623015 218.5952 
L 211.239159 219.241535 
L 211.920161 220.302207 
L 212.633591 221.864609 
L 213.15245 223.346091 
L 213.184878 53.558919 
L 213.249736 223.661146 
L 213.963166 226.398618 
L 214.644168 229.896837 
L 215.292741 234.40296 
L 215.876457 240.000693 
L 216.395315 247.059234 
L 216.427744 53.560136 
L 216.492601 248.713339 
L 216.979031 259.311213 
L 217.465461 269.835139 
L 217.497889 269.813038 
L 217.595175 268.825946 
L 217.854605 262.188284 
L 218.503178 246.199692 
L 219.119322 236.437453 
L 219.638181 230.417062 
L 219.670609 53.568245 
L 219.735467 229.435631 
L 220.546183 222.505055 
L 221.486614 216.372305 
L 222.524331 211.07355 
L 222.881046 209.507999 
L 222.913475 53.573576 
L 222.978332 209.100001 
L 224.113335 204.853061 
L 225.313195 201.19716 
L 226.123912 199.109132 
L 226.15634 53.567027 
L 226.221198 198.876617 
L 227.485915 196.166451 
L 228.750633 193.969764 
L 229.366777 193.062949 
L 229.399206 53.552121 
L 229.464063 192.928887 
L 230.696352 191.433812 
L 231.896212 190.317023 
L 232.609643 189.801085 
L 232.642071 53.52626 
L 232.706929 189.73899 
L 233.841932 189.157128 
L 234.944506 188.837398 
L 235.852508 188.751927 
L 235.884937 205.21277 
L 235.949794 188.752232 
L 237.01994 188.876525 
L 238.090085 189.224372 
L 239.095374 189.759471 
L 239.127802 53.52626 
L 239.19266 189.82222 
L 240.327662 190.702031 
L 241.462665 191.866338 
L 242.338239 192.973304 
L 242.370668 53.552121 
L 242.435525 193.108178 
L 243.635385 194.980989 
L 244.835245 197.279359 
L 245.581105 198.953714 
L 245.613533 53.567027 
L 245.678391 199.187458 
L 246.845822 202.302779 
L 247.980825 205.97804 
L 248.82397 209.235137 
L 248.856399 53.573576 
L 248.921256 209.645741 
L 249.926544 214.408889 
L 250.834547 219.773224 
L 251.677692 226.140776 
L 252.066836 229.758425 
L 252.099264 53.568245 
L 252.164121 230.753139 
L 252.812695 238.664319 
L 253.363982 248.141792 
L 253.88284 261.235172 
L 254.271984 269.813038 
L 254.304413 269.835139 
L 254.401699 268.986418 
L 254.661128 262.810669 
L 255.277272 248.713339 
L 255.309701 248.147571 
L 255.34213 53.560136 
L 255.406987 246.535587 
L 255.990703 238.93026 
L 256.671705 232.898869 
L 257.417564 228.27106 
L 258.195851 224.806776 
L 258.552566 223.554726 
L 258.584995 53.558919 
L 258.649852 223.243841 
L 259.42814 221.164303 
L 260.206428 219.698471 
L 260.919858 218.800875 
L 261.568431 218.30867 
L 261.795432 218.203931 
L 261.827861 53.564867 
L 261.892718 218.169377 
L 262.508862 218.090696 
L 263.125007 218.247655 
L 263.77358 218.662609 
L 264.454582 219.375454 
L 265.038297 220.219141 
L 265.070726 53.567564 
L 265.135583 220.381364 
L 265.9463 221.986645 
L 266.789445 224.178878 
L 267.665018 227.116222 
L 268.281163 229.66918 
L 268.313592 53.566607 
L 268.378449 230.114726 
L 269.221594 234.548448 
L 270.064739 240.239412 
L 270.940313 247.774183 
L 271.524028 253.25462 
L 271.556457 53.56024 
L 271.621314 254.079189 
L 272.042887 256.662478 
L 272.269887 257.040837 
L 272.399602 256.878698 
L 272.594174 256.157538 
L 272.950889 253.748203 
L 274.766894 239.428741 
L 274.799323 53.559004 
L 274.86418 238.839772 
L 275.707325 234.471421 
L 276.55047 231.190365 
L 277.393615 228.746482 
L 278.009759 227.393445 
L 278.042188 53.564151 
L 278.107045 227.20958 
L 278.885333 226.005883 
L 279.598763 225.288864 
L 280.247337 224.932696 
L 280.863481 224.842579 
L 281.252625 224.907351 
L 281.285054 53.56818 
L 281.349911 224.938153 
L 281.966055 225.26898 
L 282.614628 225.873078 
L 283.328059 226.850098 
L 284.106346 228.310412 
L 284.49549 229.205106 
L 284.527919 53.570666 
L 284.592776 229.446793 
L 285.46835 231.966147 
L 286.376352 235.288094 
L 287.381641 239.861039 
L 287.738356 241.680968 
L 287.770784 53.561212 
L 287.835642 242.188966 
L 289.132788 248.454061 
L 289.55436 249.568073 
L 289.846218 249.816655 
L 290.04079 249.721924 
L 290.30022 249.285108 
L 290.689363 248.072128 
L 290.981221 246.850489 
L 291.01365 53.559873 
L 291.078507 246.404416 
L 293.6728 234.78586 
L 294.224087 233.013449 
L 294.256515 53.565883 
L 294.321373 232.728489 
L 295.229375 230.444692 
L 296.07252 228.883919 
L 296.850808 227.875191 
L 297.466952 227.350407 
L 297.499381 53.568976 
L 297.564238 227.288866 
L 298.212811 227.023692 
L 298.828956 227.002031 
L 299.4451 227.202724 
L 300.093673 227.655506 
L 300.709818 228.319313 
L 300.742246 53.660118 
L 300.807104 228.445347 
L 301.585391 229.667742 
L 302.428536 231.436776 
L 303.336539 233.882003 
L 303.952683 235.860648 
L 303.985112 54.088239 
L 304.049969 236.195454 
L 305.411973 241.335046 
L 306.514547 245.221452 
L 307.065834 246.428047 
L 307.195549 246.596532 
L 307.227977 55.25589 
L 307.292835 246.690785 
L 307.584693 246.803974 
L 307.87655 246.665785 
L 308.233266 246.187212 
L 308.719695 245.107376 
L 309.627698 242.429704 
L 310.438414 239.99623 
L 310.470843 57.663041 
L 310.5357 239.723255 
L 311.540988 237.266269 
L 312.351705 235.829297 
L 313.065135 234.983054 
L 313.68128 234.564165 
L 313.713708 61.846718 
L 313.778566 234.524161 
L 314.329853 234.431006 
L 314.88114 234.563891 
L 315.464856 234.951162 
L 316.081 235.638271 
L 316.762002 236.739083 
L 316.924145 237.055615 
L 316.956574 68.327019 
L 317.021431 237.255831 
L 317.799719 239.144975 
L 318.642864 241.808559 
L 319.518438 245.342537 
L 320.167011 248.542167 
L 320.199439 77.685532 
L 320.264297 249.069677 
L 321.172299 254.66146 
L 322.177587 262.352762 
L 323.409876 272.09756 
L 323.442305 90.658837 
L 323.507162 272.623675 
L 323.863877 273.857585 
L 324.090878 274.014396 
L 324.253021 273.839182 
L 324.51245 273.146862 
L 324.966452 271.166018 
L 326.523027 263.981595 
L 326.652742 263.526225 
L 326.68517 108.319354 
L 326.750028 263.20144 
L 327.495887 261.159942 
L 328.176888 259.905927 
L 328.825461 259.15085 
L 329.441606 258.750899 
L 329.895607 258.614153 
L 329.928036 132.843284 
L 329.992893 258.59948 
L 330.706323 258.61883 
L 331.679183 258.891745 
L 333.138473 259.474663 
L 333.170901 169.196782 
L 333.235759 259.511921 
L 334.88962 260.023268 
L 336.381338 260.323753 
L 336.413767 240.82191 
L 336.478624 260.34124 
L 339.624204 260.92698 
L 339.656632 245.455549 
L 339.72149 260.944002 
L 341.991495 261.225618 
L 342.867069 261.276942 
L 342.899498 242.576625 
L 342.964355 261.28163 
L 346.109935 261.523478 
L 346.142363 244.69189 
L 346.20722 261.536588 
L 349.3528 262.012475 
L 349.385229 255.543909 
L 349.450086 262.024156 
L 351.849806 262.194735 
L 352.595665 262.222158 
L 352.628094 252.521525 
L 352.692951 262.225926 
L 355.546673 262.447821 
L 355.838531 262.484042 
L 355.87096 248.531424 
L 355.935817 262.49646 
L 359.081396 262.85595 
L 359.113825 245.875578 
L 359.178682 262.862704 
L 362.324262 262.974608 
L 362.356691 252.148053 
L 362.421548 262.978201 
L 365.242841 263.19603 
L 365.567127 263.23298 
L 365.599556 288.007648 
L 365.664413 263.244263 
L 368.809993 263.559947 
L 368.842422 263.487105 
L 368.907279 263.566371 
L 372.052858 263.698891 
L 372.085287 284.648371 
L 372.150144 263.70239 
L 375.295724 263.834783 
L 375.328152 240.533072 
L 375.39301 263.838788 
L 378.538589 263.94089 
L 378.571018 266.429588 
L 378.635875 263.943955 
L 381.781455 264.103535 
L 381.813883 250.805626 
L 381.878741 264.110304 
L 385.02432 264.294727 
L 385.056749 261.493357 
L 385.121606 264.29756 
L 388.267186 264.283061 
L 388.299614 259.021347 
L 388.364472 264.280688 
L 391.510051 264.2123 
L 391.54248 267.010476 
L 391.607337 264.210396 
L 394.752917 264.117489 
L 394.785345 253.449078 
L 394.850203 264.113668 
L 397.995782 264.030917 
L 397.995782 264.030917 
" clip-path="url(#p872dca4f96)" style="fill: none; stroke: #000000; stroke-width: 2; stroke-linecap: square"/>
   </g>
   <g id="patch_3">
    <path d="M 57.528957 307.344331 
L 57.528957 41.439685 
" style="fill: none; stroke: #000000; stroke-width: 0.8; stroke-linejoin: miter; stroke-linecap: square"/>
   </g>
   <g id="patch_4">
    <path d="M 414.208488 307.344331 
L 414.208488 41.439685 
" style="fill: none; stroke: #000000; stroke-width: 0.8; stroke-linejoin: miter; stroke-linecap: square"/>
   </g>
   <g id="patch_5">
    <path d="M 57.528957 307.344331 
L 414.208488 307.344331 
" style="fill: none; stroke: #000000; stroke-width: 0.8; stroke-linejoin: miter; stroke-linecap: square"/>
   </g>
   <g id="patch_6">
    <path d="M 57.528957 41.439685 
L 414.208488 41.439685 
" style="fill: none; stroke: #000000; stroke-width: 0.8; stroke-linejoin: miter; stroke-linecap: square"/>
   </g>
   <g id="text_13">
    <!-- Filtered (MultiCycle FIR: Taps= 39, MACS= 13) -->
    <g transform="translate(97.537785 35.439685) scale(0.12 -0.12)">
     <defs>
      <path id="DejaVuSans-74" d="M 1172 4494 
L 1172 3500 
L 2356 3500 
L 2356 3053 
L 1172 3053 
L 1172 1153 
Q 1172 725 1289 603 
Q 1406 481 1766 481 
L 2356 481 
L 2356 0 
L 1766 0 
Q 1100 0 847 248 
Q 594 497 594 1153 
L 594 3053 
L 172 3053 
L 172 3500 
L 594 3500 
L 594 4494 
L 1172 4494 
z
" transform="scale(0.015625)"/>
      <path id="DejaVuSans-28" d="M 1984 4856 
Q 1566 4138 1362 3434 
Q 1159 2731 1159 2009 
Q 1159 1288 1364 580 
Q 1569 -128 1984 -844 
L 1484 -844 
Q 1016 -109 783 600 
Q 550 1309 550 2009 
Q 550 2706 781 3412 
Q 1013 4119 1484 4856 
L 1984 4856 
z
" transform="scale(0.015625)"/>
      <path id="DejaVuSans-4d" d="M 628 4666 
L 1569 4666 
L 2759 1491 
L 3956 4666 
L 4897 4666 
L 4897 0 
L 4281 0 
L 4281 4097 
L 3078 897 
L 2444 897 
L 1241 4097 
L 1241 0 
L 628 0 
L 628 4666 
z
" transform="scale(0.015625)"/>
      <path id="DejaVuSans-43" d="M 4122 4306 
L 4122 3641 
Q 3803 3938 3442 4084 
Q 3081 4231 2675 4231 
Q 1875 4231 1450 3742 
Q 1025 3253 1025 2328 
Q 1025 1406 1450 917 
Q 1875 428 2675 428 
Q 3081 428 3442 575 
Q 3803 722 4122 1019 
L 4122 359 
Q 3791 134 3420 21 
Q 3050 -91 2638 -91 
Q 1578 -91 968 557 
Q 359 1206 359 2328 
Q 359 3453 968 4101 
Q 1578 4750 2638 4750 
Q 3056 4750 3426 4639 
Q 3797 4528 4122 4306 
z
" transform="scale(0.015625)"/>
      <path id="DejaVuSans-49" d="M 628 4666 
L 1259 4666 
L 1259 0 
L 628 0 
L 628 4666 
z
" transform="scale(0.015625)"/>
      <path id="DejaVuSans-52" d="M 2841 2188 
Q 3044 2119 3236 1894 
Q 3428 1669 3622 1275 
L 4263 0 
L 3584 0 
L 2988 1197 
Q 2756 1666 2539 1819 
Q 2322 1972 1947 1972 
L 1259 1972 
L 1259 0 
L 628 0 
L 628 4666 
L 2053 4666 
Q 2853 4666 3247 4331 
Q 3641 3997 3641 3322 
Q 3641 2881 3436 2590 
Q 3231 2300 2841 2188 
z
M 1259 4147 
L 1259 2491 
L 2053 2491 
Q 2509 2491 2742 2702 
Q 2975 2913 2975 3322 
Q 2975 3731 2742 3939 
Q 2509 4147 2053 4147 
L 1259 4147 
z
" transform="scale(0.015625)"/>
      <path id="DejaVuSans-3a" d="M 750 794 
L 1409 794 
L 1409 0 
L 750 0 
L 750 794 
z
M 750 3309 
L 1409 3309 
L 1409 2516 
L 750 2516 
L 750 3309 
z
" transform="scale(0.015625)"/>
      <path id="DejaVuSans-54" d="M -19 4666 
L 3928 4666 
L 3928 4134 
L 2272 4134 
L 2272 0 
L 1638 0 
L 1638 4134 
L -19 4134 
L -19 4666 
z
" transform="scale(0.015625)"/>
      <path id="DejaVuSans-70" d="M 1159 525 
L 1159 -1331 
L 581 -1331 
L 581 3500 
L 1159 3500 
L 1159 2969 
Q 1341 3281 1617 3432 
Q 1894 3584 2278 3584 
Q 2916 3584 3314 3078 
Q 3713 2572 3713 1747 
Q 3713 922 3314 415 
Q 2916 -91 2278 -91 
Q 1894 -91 1617 61 
Q 1341 213 1159 525 
z
M 3116 1747 
Q 3116 2381 2855 2742 
Q 2594 3103 2138 3103 
Q 1681 3103 1420 2742 
Q 1159 2381 1159 1747 
Q 1159 1113 1420 752 
Q 1681 391 2138 391 
Q 2594 391 2855 752 
Q 3116 1113 3116 1747 
z
" transform="scale(0.015625)"/>
      <path id="DejaVuSans-73" d="M 2834 3397 
L 2834 2853 
Q 2591 2978 2328 3040 
Q 2066 3103 1784 3103 
Q 1356 3103 1142 2972 
Q 928 2841 928 2578 
Q 928 2378 1081 2264 
Q 1234 2150 1697 2047 
L 1894 2003 
Q 2506 1872 2764 1633 
Q 3022 1394 3022 966 
Q 3022 478 2636 193 
Q 2250 -91 1575 -91 
Q 1294 -91 989 -36 
Q 684 19 347 128 
L 347 722 
Q 666 556 975 473 
Q 1284 391 1588 391 
Q 1994 391 2212 530 
Q 2431 669 2431 922 
Q 2431 1156 2273 1281 
Q 2116 1406 1581 1522 
L 1381 1569 
Q 847 1681 609 1914 
Q 372 2147 372 2553 
Q 372 3047 722 3315 
Q 1072 3584 1716 3584 
Q 2034 3584 2315 3537 
Q 2597 3491 2834 3397 
z
" transform="scale(0.015625)"/>
      <path id="DejaVuSans-3d" d="M 678 2906 
L 4684 2906 
L 4684 2381 
L 678 2381 
L 678 2906 
z
M 678 1631 
L 4684 1631 
L 4684 1100 
L 678 1100 
L 678 1631 
z
" transform="scale(0.015625)"/>
      <path id="DejaVuSans-33" d="M 2597 2516 
Q 3050 2419 3304 2112 
Q 3559 1806 3559 1356 
Q 3559 666 3084 287 
Q 2609 -91 1734 -91 
Q 1441 -91 1130 -33 
Q 819 25 488 141 
L 488 750 
Q 750 597 1062 519 
Q 1375 441 1716 441 
Q 2309 441 2620 675 
Q 2931 909 2931 1356 
Q 2931 1769 2642 2001 
Q 2353 2234 1838 2234 
L 1294 2234 
L 1294 2753 
L 1863 2753 
Q 2328 2753 2575 2939 
Q 2822 3125 2822 3475 
Q 2822 3834 2567 4026 
Q 2313 4219 1838 4219 
Q 1578 4219 1281 4162 
Q 984 4106 628 3988 
L 628 4550 
Q 988 4650 1302 4700 
Q 1616 4750 1894 4750 
Q 2613 4750 3031 4423 
Q 3450 4097 3450 3541 
Q 3450 3153 3228 2886 
Q 3006 2619 2597 2516 
z
" transform="scale(0.015625)"/>
      <path id="DejaVuSans-39" d="M 703 97 
L 703 672 
Q 941 559 1184 500 
Q 1428 441 1663 441 
Q 2288 441 2617 861 
Q 2947 1281 2994 2138 
Q 2813 1869 2534 1725 
Q 2256 1581 1919 1581 
Q 1219 1581 811 2004 
Q 403 2428 403 3163 
Q 403 3881 828 4315 
Q 1253 4750 1959 4750 
Q 2769 4750 3195 4129 
Q 3622 3509 3622 2328 
Q 3622 1225 3098 567 
Q 2575 -91 1691 -91 
Q 1453 -91 1209 -44 
Q 966 3 703 97 
z
M 1959 2075 
Q 2384 2075 2632 2365 
Q 2881 2656 2881 3163 
Q 2881 3666 2632 3958 
Q 2384 4250 1959 4250 
Q 1534 4250 1286 3958 
Q 1038 3666 1038 3163 
Q 1038 2656 1286 2365 
Q 1534 2075 1959 2075 
z
" transform="scale(0.015625)"/>
      <path id="DejaVuSans-2c" d="M 750 794 
L 1409 794 
L 1409 256 
L 897 -744 
L 494 -744 
L 750 256 
L 750 794 
z
" transform="scale(0.015625)"/>
      <path id="DejaVuSans-41" d="M 2188 4044 
L 1331 1722 
L 3047 1722 
L 2188 4044 
z
M 1831 4666 
L 2547 4666 
L 4325 0 
L 3669 0 
L 3244 1197 
L 1141 1197 
L 716 0 
L 50 0 
L 1831 4666 
z
" transform="scale(0.015625)"/>
      <path id="DejaVuSans-53" d="M 3425 4513 
L 3425 3897 
Q 3066 4069 2747 4153 
Q 2428 4238 2131 4238 
Q 1616 4238 1336 4038 
Q 1056 3838 1056 3469 
Q 1056 3159 1242 3001 
Q 1428 2844 1947 2747 
L 2328 2669 
Q 3034 2534 3370 2195 
Q 3706 1856 3706 1288 
Q 3706 609 3251 259 
Q 2797 -91 1919 -91 
Q 1588 -91 1214 -16 
Q 841 59 441 206 
L 441 856 
Q 825 641 1194 531 
Q 1563 422 1919 422 
Q 2459 422 2753 634 
Q 3047 847 3047 1241 
Q 3047 1584 2836 1778 
Q 2625 1972 2144 2069 
L 1759 2144 
Q 1053 2284 737 2584 
Q 422 2884 422 3419 
Q 422 4038 858 4394 
Q 1294 4750 2059 4750 
Q 2388 4750 2728 4690 
Q 3069 4631 3425 4513 
z
" transform="scale(0.015625)"/>
      <path id="DejaVuSans-29" d="M 513 4856 
L 1013 4856 
Q 1481 4119 1714 3412 
Q 1947 2706 1947 2009 
Q 1947 1309 1714 600 
Q 1481 -109 1013 -844 
L 513 -844 
Q 928 -128 1133 580 
Q 1338 1288 1338 2009 
Q 1338 2731 1133 3434 
Q 928 4138 513 4856 
z
" transform="scale(0.015625)"/>
     </defs>
     <use xlink:href="#DejaVuSans-46"/>
     <use xlink:href="#DejaVuSans-69" transform="translate(50.269531 0)"/>
     <use xlink:href="#DejaVuSans-6c" transform="translate(78.052734 0)"/>
     <use xlink:href="#DejaVuSans-74" transform="translate(105.835938 0)"/>
     <use xlink:href="#DejaVuSans-65" transform="translate(145.044922 0)"/>
     <use xlink:href="#DejaVuSans-72" transform="translate(206.568359 0)"/>
     <use xlink:href="#DejaVuSans-65" transform="translate(245.431641 0)"/>
     <use xlink:href="#DejaVuSans-64" transform="translate(306.955078 0)"/>
     <use xlink:href="#DejaVuSans-20" transform="translate(370.431641 0)"/>
     <use xlink:href="#DejaVuSans-28" transform="translate(402.21875 0)"/>
     <use xlink:href="#DejaVuSans-4d" transform="translate(441.232422 0)"/>
     <use xlink:href="#DejaVuSans-75" transform="translate(527.511719 0)"/>
     <use xlink:href="#DejaVuSans-6c" transform="translate(590.890625 0)"/>
     <use xlink:href="#DejaVuSans-74" transform="translate(618.673828 0)"/>
     <use xlink:href="#DejaVuSans-69" transform="translate(657.882812 0)"/>
     <use xlink:href="#DejaVuSans-43" transform="translate(685.666016 0)"/>
     <use xlink:href="#DejaVuSans-79" transform="translate(755.490234 0)"/>
     <use xlink:href="#DejaVuSans-63" transform="translate(814.669922 0)"/>
     <use xlink:href="#DejaVuSans-6c" transform="translate(869.650391 0)"/>
     <use xlink:href="#DejaVuSans-65" transform="translate(897.433594 0)"/>
     <use xlink:href="#DejaVuSans-20" transform="translate(958.957031 0)"/>
     <use xlink:href="#DejaVuSans-46" transform="translate(990.744141 0)"/>
     <use xlink:href="#DejaVuSans-49" transform="translate(1048.263672 0)"/>
     <use xlink:href="#DejaVuSans-52" transform="translate(1077.755859 0)"/>
     <use xlink:href="#DejaVuSans-3a" transform="translate(1144.113281 0)"/>
     <use xlink:href="#DejaVuSans-20" transform="translate(1177.804688 0)"/>
     <use xlink:href="#DejaVuSans-54" transform="translate(1209.591797 0)"/>
     <use xlink:href="#DejaVuSans-61" transform="translate(1254.175781 0)"/>
     <use xlink:href="#DejaVuSans-70" transform="translate(1315.455078 0)"/>
     <use xlink:href="#DejaVuSans-73" transform="translate(1378.931641 0)"/>
     <use xlink:href="#DejaVuSans-3d" transform="translate(1431.03125 0)"/>
     <use xlink:href="#DejaVuSans-20" transform="translate(1514.820312 0)"/>
     <use xlink:href="#DejaVuSans-33" transform="translate(1546.607422 0)"/>
     <use xlink:href="#DejaVuSans-39" transform="translate(1610.230469 0)"/>
     <use xlink:href="#DejaVuSans-2c" transform="translate(1673.853516 0)"/>
     <use xlink:href="#DejaVuSans-20" transform="translate(1705.640625 0)"/>
     <use xlink:href="#DejaVuSans-4d" transform="translate(1737.427734 0)"/>
     <use xlink:href="#DejaVuSans-41" transform="translate(1823.707031 0)"/>
     <use xlink:href="#DejaVuSans-43" transform="translate(1890.365234 0)"/>
     <use xlink:href="#DejaVuSans-53" transform="translate(1960.189453 0)"/>
     <use xlink:href="#DejaVuSans-3d" transform="translate(2023.666016 0)"/>
     <use xlink:href="#DejaVuSans-20" transform="translate(2107.455078 0)"/>
     <use xlink:href="#DejaVuSans-31" transform="translate(2139.242188 0)"/>
     <use xlink:href="#DejaVuSans-33" transform="translate(2202.865234 0)"/>
     <use xlink:href="#DejaVuSans-29" transform="translate(2266.488281 0)"/>
    </g>
   </g>
  </g>
 </g>
 <defs>
  <clipPath id="p872dca4f96">
   <rect x="57.528957" y="41.439685" width="356.679531" height="265.904646"/>
  </clipPath>
 </defs>
</svg>
