<?xml version="1.0" encoding="utf-8" standalone="no"?>
<!DOCTYPE svg PUBLIC "-//W3C//DTD SVG 1.1//EN"
  "http://www.w3.org/Graphics/SVG/1.1/DTD/svg11.dtd">
<svg xmlns:xlink="http://www.w3.org/1999/xlink" width="460.231654pt" height="345.330709pt" viewBox="0 0 460.231654 345.330709" xmlns="http://www.w3.org/2000/svg" version="1.1">
 <metadata>
  <rdf:RDF xmlns:dc="http://purl.org/dc/elements/1.1/" xmlns:cc="http://creativecommons.org/ns#" xmlns:rdf="http://www.w3.org/1999/02/22-rdf-syntax-ns#">
   <cc:Work>
    <dc:type rdf:resource="http://purl.org/dc/dcmitype/StillImage"/>
    <dc:date>2026-03-23T10:47:05.297045</dc:date>
    <dc:format>image/svg+xml</dc:format>
    <dc:creator>
     <cc:Agent>
      <dc:title>Matplotlib v3.10.8, https://matplotlib.org/</dc:title>
     </cc:Agent>
    </dc:creator>
   </cc:Work>
  </rdf:RDF>
 </metadata>
 <defs>
  <style type="text/css">*{stroke-linejoin: round; stroke-linecap: butt}</style>
 </defs>
 <g id="figure_1">
  <g id="patch_1">
   <path d="M 0 345.330709 
L 460.231654 345.330709 
L 460.231654 0 
L 0 0 
z
" style="fill: #ffffff"/>
  </g>
  <g id="axes_1">
   <g id="patch_2">
    <path d="M 57.528957 307.344331 
L 414.208488 307.344331 
L 414.208488 41.439685 
L 57.528957 41.439685 
z
" style="fill: #ffffff"/>
   </g>
   <g id="matplotlib.axis_1">
    <g id="xtick_1">
     <g id="line2d_1">
      <defs>
       <path id="m5761579f58" d="M 0 0 
L 0 3.5 
" style="stroke: #000000; stroke-width: 0.8"/>
      </defs>
      <g>
       <use xlink:href="#m5761579f58" x="106.170317" y="307.344331" style="stroke: #000000; stroke-width: 0.8"/>
      </g>
     </g>
     <g id="text_1">
      <!-- −0.4 -->
      <g transform="translate(94.028911 321.942768) scale(0.1 -0.1)">
       <defs>
        <path id="DejaVuSans-2212" d="M 678 2272 
L 4684 2272 
L 4684 1741 
L 678 1741 
L 678 2272 
z
" transform="scale(0.015625)"/>
        <path id="DejaVuSans-30" d="M 2034 4250 
Q 1547 4250 1301 3770 
Q 1056 3291 1056 2328 
Q 1056 1369 1301 889 
Q 1547 409 2034 409 
Q 2525 409 2770 889 
Q 3016 1369 3016 2328 
Q 3016 3291 2770 3770 
Q 2525 4250 2034 4250 
z
M 2034 4750 
Q 2819 4750 3233 4129 
Q 3647 3509 3647 2328 
Q 3647 1150 3233 529 
Q 2819 -91 2034 -91 
Q 1250 -91 836 529 
Q 422 1150 422 2328 
Q 422 3509 836 4129 
Q 1250 4750 2034 4750 
z
" transform="scale(0.015625)"/>
        <path id="DejaVuSans-2e" d="M 684 794 
L 1344 794 
L 1344 0 
L 684 0 
L 684 794 
z
" transform="scale(0.015625)"/>
        <path id="DejaVuSans-34" d="M 2419 4116 
L 825 1625 
L 2419 1625 
L 2419 4116 
z
M 2253 4666 
L 3047 4666 
L 3047 1625 
L 3713 1625 
L 3713 1100 
L 3047 1100 
L 3047 0 
L 2419 0 
L 2419 1100 
L 313 1100 
L 313 1709 
L 2253 4666 
z
" transform="scale(0.015625)"/>
       </defs>
       <use xlink:href="#DejaVuSans-2212"/>
       <use xlink:href="#DejaVuSans-30" transform="translate(83.789062 0)"/>
       <use xlink:href="#DejaVuSans-2e" transform="translate(147.412109 0)"/>
       <use xlink:href="#DejaVuSans-34" transform="translate(179.199219 0)"/>
      </g>
     </g>
    </g>
    <g id="xtick_2">
     <g id="line2d_2">
      <g>
       <use xlink:href="#m5761579f58" x="171.027627" y="307.344331" style="stroke: #000000; stroke-width: 0.8"/>
      </g>
     </g>
     <g id="text_2">
      <!-- −0.2 -->
      <g transform="translate(158.886221 321.942768) scale(0.1 -0.1)">
       <defs>
        <path id="DejaVuSans-32" d="M 1228 531 
L 3431 531 
L 3431 0 
L 469 0 
L 469 531 
Q 828 903 1448 1529 
Q 2069 2156 2228 2338 
Q 2531 2678 2651 2914 
Q 2772 3150 2772 3378 
Q 2772 3750 2511 3984 
Q 2250 4219 1831 4219 
Q 1534 4219 1204 4116 
Q 875 4013 500 3803 
L 500 4441 
Q 881 4594 1212 4672 
Q 1544 4750 1819 4750 
Q 2544 4750 2975 4387 
Q 3406 4025 3406 3419 
Q 3406 3131 3298 2873 
Q 3191 2616 2906 2266 
Q 2828 2175 2409 1742 
Q 1991 1309 1228 531 
z
" transform="scale(0.015625)"/>
       </defs>
       <use xlink:href="#DejaVuSans-2212"/>
       <use xlink:href="#DejaVuSans-30" transform="translate(83.789062 0)"/>
       <use xlink:href="#DejaVuSans-2e" transform="translate(147.412109 0)"/>
       <use xlink:href="#DejaVuSans-32" transform="translate(179.199219 0)"/>
      </g>
     </g>
    </g>
    <g id="xtick_3">
     <g id="line2d_3">
      <g>
       <use xlink:href="#m5761579f58" x="235.884937" y="307.344331" style="stroke: #000000; stroke-width: 0.8"/>
      </g>
     </g>
     <g id="text_3">
      <!-- 0.0 -->
      <g transform="translate(227.933374 321.942768) scale(0.1 -0.1)">
       <use xlink:href="#DejaVuSans-30"/>
       <use xlink:href="#DejaVuSans-2e" transform="translate(63.623047 0)"/>
       <use xlink:href="#DejaVuSans-30" transform="translate(95.410156 0)"/>
      </g>
     </g>
    </g>
    <g id="xtick_4">
     <g id="line2d_4">
      <g>
       <use xlink:href="#m5761579f58" x="300.742246" y="307.344331" style="stroke: #000000; stroke-width: 0.8"/>
      </g>
     </g>
     <g id="text_4">
      <!-- 0.2 -->
      <g transform="translate(292.790684 321.942768) scale(0.1 -0.1)">
       <use xlink:href="#DejaVuSans-30"/>
       <use xlink:href="#DejaVuSans-2e" transform="translate(63.623047 0)"/>
       <use xlink:href="#DejaVuSans-32" transform="translate(95.410156 0)"/>
      </g>
     </g>
    </g>
    <g id="xtick_5">
     <g id="line2d_5">
      <g>
       <use xlink:href="#m5761579f58" x="365.599556" y="307.344331" style="stroke: #000000; stroke-width: 0.8"/>
      </g>
     </g>
     <g id="text_5">
      <!-- 0.4 -->
      <g transform="translate(357.647994 321.942768) scale(0.1 -0.1)">
       <use xlink:href="#DejaVuSans-30"/>
       <use xlink:href="#DejaVuSans-2e" transform="translate(63.623047 0)"/>
       <use xlink:href="#DejaVuSans-34" transform="translate(95.410156 0)"/>
      </g>
     </g>
    </g>
    <g id="text_6">
     <!-- Normalized Frequency -->
     <g transform="translate(180.094504 335.620893) scale(0.1 -0.1)">
      <defs>
       <path id="DejaVuSans-4e" d="M 628 4666 
L 1478 4666 
L 3547 763 
L 3547 4666 
L 4159 4666 
L 4159 0 
L 3309 0 
L 1241 3903 
L 1241 0 
L 628 0 
L 628 4666 
z
" transform="scale(0.015625)"/>
       <path id="DejaVuSans-6f" d="M 1959 3097 
Q 1497 3097 1228 2736 
Q 959 2375 959 1747 
Q 959 1119 1226 758 
Q 1494 397 1959 397 
Q 2419 397 2687 759 
Q 2956 1122 2956 1747 
Q 2956 2369 2687 2733 
Q 2419 3097 1959 3097 
z
M 1959 3584 
Q 2709 3584 3137 3096 
Q 3566 2609 3566 1747 
Q 3566 888 3137 398 
Q 2709 -91 1959 -91 
Q 1206 -91 779 398 
Q 353 888 353 1747 
Q 353 2609 779 3096 
Q 1206 3584 1959 3584 
z
" transform="scale(0.015625)"/>
       <path id="DejaVuSans-72" d="M 2631 2963 
Q 2534 3019 2420 3045 
Q 2306 3072 2169 3072 
Q 1681 3072 1420 2755 
Q 1159 2438 1159 1844 
L 1159 0 
L 581 0 
L 581 3500 
L 1159 3500 
L 1159 2956 
Q 1341 3275 1631 3429 
Q 1922 3584 2338 3584 
Q 2397 3584 2469 3576 
Q 2541 3569 2628 3553 
L 2631 2963 
z
" transform="scale(0.015625)"/>
       <path id="DejaVuSans-6d" d="M 3328 2828 
Q 3544 3216 3844 3400 
Q 4144 3584 4550 3584 
Q 5097 3584 5394 3201 
Q 5691 2819 5691 2113 
L 5691 0 
L 5113 0 
L 5113 2094 
Q 5113 2597 4934 2840 
Q 4756 3084 4391 3084 
Q 3944 3084 3684 2787 
Q 3425 2491 3425 1978 
L 3425 0 
L 2847 0 
L 2847 2094 
Q 2847 2600 2669 2842 
Q 2491 3084 2119 3084 
Q 1678 3084 1418 2786 
Q 1159 2488 1159 1978 
L 1159 0 
L 581 0 
L 581 3500 
L 1159 3500 
L 1159 2956 
Q 1356 3278 1631 3431 
Q 1906 3584 2284 3584 
Q 2666 3584 2933 3390 
Q 3200 3197 3328 2828 
z
" transform="scale(0.015625)"/>
       <path id="DejaVuSans-61" d="M 2194 1759 
Q 1497 1759 1228 1600 
Q 959 1441 959 1056 
Q 959 750 1161 570 
Q 1363 391 1709 391 
Q 2188 391 2477 730 
Q 2766 1069 2766 1631 
L 2766 1759 
L 2194 1759 
z
M 3341 1997 
L 3341 0 
L 2766 0 
L 2766 531 
Q 2569 213 2275 61 
Q 1981 -91 1556 -91 
Q 1019 -91 701 211 
Q 384 513 384 1019 
Q 384 1609 779 1909 
Q 1175 2209 1959 2209 
L 2766 2209 
L 2766 2266 
Q 2766 2663 2505 2880 
Q 2244 3097 1772 3097 
Q 1472 3097 1187 3025 
Q 903 2953 641 2809 
L 641 3341 
Q 956 3463 1253 3523 
Q 1550 3584 1831 3584 
Q 2591 3584 2966 3190 
Q 3341 2797 3341 1997 
z
" transform="scale(0.015625)"/>
       <path id="DejaVuSans-6c" d="M 603 4863 
L 1178 4863 
L 1178 0 
L 603 0 
L 603 4863 
z
" transform="scale(0.015625)"/>
       <path id="DejaVuSans-69" d="M 603 3500 
L 1178 3500 
L 1178 0 
L 603 0 
L 603 3500 
z
M 603 4863 
L 1178 4863 
L 1178 4134 
L 603 4134 
L 603 4863 
z
" transform="scale(0.015625)"/>
       <path id="DejaVuSans-7a" d="M 353 3500 
L 3084 3500 
L 3084 2975 
L 922 459 
L 3084 459 
L 3084 0 
L 275 0 
L 275 525 
L 2438 3041 
L 353 3041 
L 353 3500 
z
" transform="scale(0.015625)"/>
       <path id="DejaVuSans-65" d="M 3597 1894 
L 3597 1613 
L 953 1613 
Q 991 1019 1311 708 
Q 1631 397 2203 397 
Q 2534 397 2845 478 
Q 3156 559 3463 722 
L 3463 178 
Q 3153 47 2828 -22 
Q 2503 -91 2169 -91 
Q 1331 -91 842 396 
Q 353 884 353 1716 
Q 353 2575 817 3079 
Q 1281 3584 2069 3584 
Q 2775 3584 3186 3129 
Q 3597 2675 3597 1894 
z
M 3022 2063 
Q 3016 2534 2758 2815 
Q 2500 3097 2075 3097 
Q 1594 3097 1305 2825 
Q 1016 2553 972 2059 
L 3022 2063 
z
" transform="scale(0.015625)"/>
       <path id="DejaVuSans-64" d="M 2906 2969 
L 2906 4863 
L 3481 4863 
L 3481 0 
L 2906 0 
L 2906 525 
Q 2725 213 2448 61 
Q 2172 -91 1784 -91 
Q 1150 -91 751 415 
Q 353 922 353 1747 
Q 353 2572 751 3078 
Q 1150 3584 1784 3584 
Q 2172 3584 2448 3432 
Q 2725 3281 2906 2969 
z
M 947 1747 
Q 947 1113 1208 752 
Q 1469 391 1925 391 
Q 2381 391 2643 752 
Q 2906 1113 2906 1747 
Q 2906 2381 2643 2742 
Q 2381 3103 1925 3103 
Q 1469 3103 1208 2742 
Q 947 2381 947 1747 
z
" transform="scale(0.015625)"/>
       <path id="DejaVuSans-20" transform="scale(0.015625)"/>
       <path id="DejaVuSans-46" d="M 628 4666 
L 3309 4666 
L 3309 4134 
L 1259 4134 
L 1259 2759 
L 3109 2759 
L 3109 2228 
L 1259 2228 
L 1259 0 
L 628 0 
L 628 4666 
z
" transform="scale(0.015625)"/>
       <path id="DejaVuSans-71" d="M 947 1747 
Q 947 1113 1208 752 
Q 1469 391 1925 391 
Q 2381 391 2643 752 
Q 2906 1113 2906 1747 
Q 2906 2381 2643 2742 
Q 2381 3103 1925 3103 
Q 1469 3103 1208 2742 
Q 947 2381 947 1747 
z
M 2906 525 
Q 2725 213 2448 61 
Q 2172 -91 1784 -91 
Q 1150 -91 751 415 
Q 353 922 353 1747 
Q 353 2572 751 3078 
Q 1150 3584 1784 3584 
Q 2172 3584 2448 3432 
Q 2725 3281 2906 2969 
L 2906 3500 
L 3481 3500 
L 3481 -1331 
L 2906 -1331 
L 2906 525 
z
" transform="scale(0.015625)"/>
       <path id="DejaVuSans-75" d="M 544 1381 
L 544 3500 
L 1119 3500 
L 1119 1403 
Q 1119 906 1312 657 
Q 1506 409 1894 409 
Q 2359 409 2629 706 
Q 2900 1003 2900 1516 
L 2900 3500 
L 3475 3500 
L 3475 0 
L 2900 0 
L 2900 538 
Q 2691 219 2414 64 
Q 2138 -91 1772 -91 
Q 1169 -91 856 284 
Q 544 659 544 1381 
z
M 1991 3584 
L 1991 3584 
z
" transform="scale(0.015625)"/>
       <path id="DejaVuSans-6e" d="M 3513 2113 
L 3513 0 
L 2938 0 
L 2938 2094 
Q 2938 2591 2744 2837 
Q 2550 3084 2163 3084 
Q 1697 3084 1428 2787 
Q 1159 2491 1159 1978 
L 1159 0 
L 581 0 
L 581 3500 
L 1159 3500 
L 1159 2956 
Q 1366 3272 1645 3428 
Q 1925 3584 2291 3584 
Q 2894 3584 3203 3211 
Q 3513 2838 3513 2113 
z
" transform="scale(0.015625)"/>
       <path id="DejaVuSans-63" d="M 3122 3366 
L 3122 2828 
Q 2878 2963 2633 3030 
Q 2388 3097 2138 3097 
Q 1578 3097 1268 2742 
Q 959 2388 959 1747 
Q 959 1106 1268 751 
Q 1578 397 2138 397 
Q 2388 397 2633 464 
Q 2878 531 3122 666 
L 3122 134 
Q 2881 22 2623 -34 
Q 2366 -91 2075 -91 
Q 1284 -91 818 406 
Q 353 903 353 1747 
Q 353 2603 823 3093 
Q 1294 3584 2113 3584 
Q 2378 3584 2631 3529 
Q 2884 3475 3122 3366 
z
" transform="scale(0.015625)"/>
       <path id="DejaVuSans-79" d="M 2059 -325 
Q 1816 -950 1584 -1140 
Q 1353 -1331 966 -1331 
L 506 -1331 
L 506 -850 
L 844 -850 
Q 1081 -850 1212 -737 
Q 1344 -625 1503 -206 
L 1606 56 
L 191 3500 
L 800 3500 
L 1894 763 
L 2988 3500 
L 3597 3500 
L 2059 -325 
z
" transform="scale(0.015625)"/>
      </defs>
      <use xlink:href="#DejaVuSans-4e"/>
      <use xlink:href="#DejaVuSans-6f" transform="translate(74.804688 0)"/>
      <use xlink:href="#DejaVuSans-72" transform="translate(135.986328 0)"/>
      <use xlink:href="#DejaVuSans-6d" transform="translate(175.349609 0)"/>
      <use xlink:href="#DejaVuSans-61" transform="translate(272.761719 0)"/>
      <use xlink:href="#DejaVuSans-6c" transform="translate(334.041016 0)"/>
      <use xlink:href="#DejaVuSans-69" transform="translate(361.824219 0)"/>
      <use xlink:href="#DejaVuSans-7a" transform="translate(389.607422 0)"/>
      <use xlink:href="#DejaVuSans-65" transform="translate(442.097656 0)"/>
      <use xlink:href="#DejaVuSans-64" transform="translate(503.621094 0)"/>
      <use xlink:href="#DejaVuSans-20" transform="translate(567.097656 0)"/>
      <use xlink:href="#DejaVuSans-46" transform="translate(598.884766 0)"/>
      <use xlink:href="#DejaVuSans-72" transform="translate(649.154297 0)"/>
      <use xlink:href="#DejaVuSans-65" transform="translate(688.017578 0)"/>
      <use xlink:href="#DejaVuSans-71" transform="translate(749.541016 0)"/>
      <use xlink:href="#DejaVuSans-75" transform="translate(813.017578 0)"/>
      <use xlink:href="#DejaVuSans-65" transform="translate(876.396484 0)"/>
      <use xlink:href="#DejaVuSans-6e" transform="translate(937.919922 0)"/>
      <use xlink:href="#DejaVuSans-63" transform="translate(1001.298828 0)"/>
      <use xlink:href="#DejaVuSans-79" transform="translate(1056.279297 0)"/>
     </g>
    </g>
   </g>
   <g id="matplotlib.axis_2">
    <g id="ytick_1">
     <g id="line2d_6">
      <defs>
       <path id="m439368e6c1" d="M 0 0 
L -3.5 0 
" style="stroke: #000000; stroke-width: 0.8"/>
      </defs>
      <g>
       <use xlink:href="#m439368e6c1" x="57.528957" y="264.779939" style="stroke: #000000; stroke-width: 0.8"/>
      </g>
     </g>
     <g id="text_7">
      <!-- −80 -->
      <g transform="translate(29.424269 268.579157) scale(0.1 -0.1)">
       <defs>
        <path id="DejaVuSans-38" d="M 2034 2216 
Q 1584 2216 1326 1975 
Q 1069 1734 1069 1313 
Q 1069 891 1326 650 
Q 1584 409 2034 409 
Q 2484 409 2743 651 
Q 3003 894 3003 1313 
Q 3003 1734 2745 1975 
Q 2488 2216 2034 2216 
z
M 1403 2484 
Q 997 2584 770 2862 
Q 544 3141 544 3541 
Q 544 4100 942 4425 
Q 1341 4750 2034 4750 
Q 2731 4750 3128 4425 
Q 3525 4100 3525 3541 
Q 3525 3141 3298 2862 
Q 3072 2584 2669 2484 
Q 3125 2378 3379 2068 
Q 3634 1759 3634 1313 
Q 3634 634 3220 271 
Q 2806 -91 2034 -91 
Q 1263 -91 848 271 
Q 434 634 434 1313 
Q 434 1759 690 2068 
Q 947 2378 1403 2484 
z
M 1172 3481 
Q 1172 3119 1398 2916 
Q 1625 2713 2034 2713 
Q 2441 2713 2670 2916 
Q 2900 3119 2900 3481 
Q 2900 3844 2670 4047 
Q 2441 4250 2034 4250 
Q 1625 4250 1398 4047 
Q 1172 3844 1172 3481 
z
" transform="scale(0.015625)"/>
       </defs>
       <use xlink:href="#DejaVuSans-2212"/>
       <use xlink:href="#DejaVuSans-38" transform="translate(83.789062 0)"/>
       <use xlink:href="#DejaVuSans-30" transform="translate(147.412109 0)"/>
      </g>
     </g>
    </g>
    <g id="ytick_2">
     <g id="line2d_7">
      <g>
       <use xlink:href="#m439368e6c1" x="57.528957" y="211.966519" style="stroke: #000000; stroke-width: 0.8"/>
      </g>
     </g>
     <g id="text_8">
      <!-- −60 -->
      <g transform="translate(29.424269 215.765738) scale(0.1 -0.1)">
       <defs>
        <path id="DejaVuSans-36" d="M 2113 2584 
Q 1688 2584 1439 2293 
Q 1191 2003 1191 1497 
Q 1191 994 1439 701 
Q 1688 409 2113 409 
Q 2538 409 2786 701 
Q 3034 994 3034 1497 
Q 3034 2003 2786 2293 
Q 2538 2584 2113 2584 
z
M 3366 4563 
L 3366 3988 
Q 3128 4100 2886 4159 
Q 2644 4219 2406 4219 
Q 1781 4219 1451 3797 
Q 1122 3375 1075 2522 
Q 1259 2794 1537 2939 
Q 1816 3084 2150 3084 
Q 2853 3084 3261 2657 
Q 3669 2231 3669 1497 
Q 3669 778 3244 343 
Q 2819 -91 2113 -91 
Q 1303 -91 875 529 
Q 447 1150 447 2328 
Q 447 3434 972 4092 
Q 1497 4750 2381 4750 
Q 2619 4750 2861 4703 
Q 3103 4656 3366 4563 
z
" transform="scale(0.015625)"/>
       </defs>
       <use xlink:href="#DejaVuSans-2212"/>
       <use xlink:href="#DejaVuSans-36" transform="translate(83.789062 0)"/>
       <use xlink:href="#DejaVuSans-30" transform="translate(147.412109 0)"/>
      </g>
     </g>
    </g>
    <g id="ytick_3">
     <g id="line2d_8">
      <g>
       <use xlink:href="#m439368e6c1" x="57.528957" y="159.153099" style="stroke: #000000; stroke-width: 0.8"/>
      </g>
     </g>
     <g id="text_9">
      <!-- −40 -->
      <g transform="translate(29.424269 162.952318) scale(0.1 -0.1)">
       <use xlink:href="#DejaVuSans-2212"/>
       <use xlink:href="#DejaVuSans-34" transform="translate(83.789062 0)"/>
       <use xlink:href="#DejaVuSans-30" transform="translate(147.412109 0)"/>
      </g>
     </g>
    </g>
    <g id="ytick_4">
     <g id="line2d_9">
      <g>
       <use xlink:href="#m439368e6c1" x="57.528957" y="106.33968" style="stroke: #000000; stroke-width: 0.8"/>
      </g>
     </g>
     <g id="text_10">
      <!-- −20 -->
      <g transform="translate(29.424269 110.138898) scale(0.1 -0.1)">
       <use xlink:href="#DejaVuSans-2212"/>
       <use xlink:href="#DejaVuSans-32" transform="translate(83.789062 0)"/>
       <use xlink:href="#DejaVuSans-30" transform="translate(147.412109 0)"/>
      </g>
     </g>
    </g>
    <g id="ytick_5">
     <g id="line2d_10">
      <g>
       <use xlink:href="#m439368e6c1" x="57.528957" y="53.52626" style="stroke: #000000; stroke-width: 0.8"/>
      </g>
     </g>
     <g id="text_11">
      <!-- 0 -->
      <g transform="translate(44.166457 57.325479) scale(0.1 -0.1)">
       <use xlink:href="#DejaVuSans-30"/>
      </g>
     </g>
    </g>
   </g>
   <g id="line2d_11">
    <path d="M 73.741663 280.702303 
L 75.460381 280.662765 
L 80.194965 280.558637 
L 80.227394 278.687803 
L 80.292251 280.56067 
L 83.43783 280.594366 
L 83.470259 294.128649 
L 83.535116 280.592606 
L 86.680696 280.468972 
L 86.713125 274.965529 
L 86.777982 280.464915 
L 89.923561 280.380339 
L 89.95599 288.06742 
L 90.020847 280.378404 
L 93.166427 280.269711 
L 93.198856 280.989395 
L 93.263713 280.264733 
L 96.409292 280.099017 
L 96.441721 279.173132 
L 96.506578 280.09443 
L 99.652158 279.94644 
L 99.684587 295.257756 
L 99.749444 279.94112 
L 102.895023 279.738053 
L 102.927452 272.863595 
L 102.992309 279.731395 
L 106.137889 279.524273 
L 106.170317 288.792971 
L 106.235175 279.517752 
L 109.380754 279.272964 
L 109.413183 258.824244 
L 109.47804 279.264407 
L 112.62362 278.989862 
L 112.656048 268.423793 
L 112.720906 278.981765 
L 115.866485 278.709937 
L 115.898914 272.094205 
L 115.963771 278.700647 
L 119.109351 278.375722 
L 119.141779 266.534791 
L 119.206637 278.365481 
L 122.352216 278.036334 
L 122.384645 263.121262 
L 122.449502 278.025696 
L 125.595082 277.646791 
L 125.62751 254.123499 
L 125.692368 277.634392 
L 128.837947 277.2411 
L 128.870376 267.451247 
L 128.935233 277.228912 
L 132.080813 276.797162 
L 132.113241 262.724759 
L 132.178099 276.782831 
L 135.323678 276.313237 
L 135.356107 254.118514 
L 135.420964 276.296629 
L 137.301826 275.858731 
L 138.566544 275.389332 
L 138.598972 177.8938 
L 138.66383 275.348055 
L 140.933835 274.497153 
L 141.712123 274.470878 
L 141.809409 274.486819 
L 141.841838 138.888581 
L 141.906695 274.507804 
L 142.52284 274.773681 
L 143.106555 275.279848 
L 143.690271 276.094395 
L 144.306416 277.361265 
L 144.954989 279.234801 
L 145.052275 279.569092 
L 145.084703 112.55754 
L 145.149561 279.917999 
L 145.89542 283.083189 
L 147.516852 290.426363 
L 147.743853 290.575573 
L 147.905996 290.385387 
L 148.132997 289.687238 
L 148.29514 288.898797 
L 148.327569 93.513757 
L 148.392426 288.323766 
L 148.911285 284.355235 
L 150.95429 267.613183 
L 151.538006 263.944517 
L 151.570434 79.545928 
L 151.635292 263.382825 
L 152.608151 258.469431 
L 153.548582 254.794105 
L 154.456585 252.105757 
L 154.780871 251.332156 
L 154.8133 69.466939 
L 154.878157 251.118358 
L 155.656445 249.702132 
L 156.337446 248.878435 
L 156.953591 248.457991 
L 157.504878 248.340498 
L 158.023737 248.45315 
L 158.056165 62.484432 
L 158.121023 248.498483 
L 158.67231 248.9009 
L 159.288454 249.646321 
L 159.969456 250.837178 
L 160.747744 252.66416 
L 161.266602 254.137897 
L 161.299031 57.978185 
L 161.363888 254.434047 
L 163.698751 261.282635 
L 164.055466 261.638593 
L 164.347324 261.640238 
L 164.509468 261.522908 
L 164.541896 55.384977 
L 164.606753 261.412315 
L 164.963469 260.762957 
L 165.449899 259.35544 
L 166.293044 256.081949 
L 167.752333 250.171707 
L 167.784762 54.129273 
L 167.849619 249.81415 
L 168.919765 246.322972 
L 169.892624 243.876417 
L 170.768198 242.248823 
L 170.995198 241.912096 
L 171.027627 53.668791 
L 171.092484 241.778278 
L 171.838343 240.957809 
L 172.519345 240.519841 
L 173.13549 240.375427 
L 173.719205 240.459117 
L 174.238064 240.715783 
L 174.270493 53.568667 
L 174.33535 240.7833 
L 174.983923 241.393688 
L 175.697353 242.399179 
L 176.443212 243.850821 
L 177.253929 245.937136 
L 177.480929 246.623992 
L 177.513358 53.566073 
L 177.578215 246.932829 
L 178.453789 250.122346 
L 179.426649 254.559016 
L 180.723795 261.345661 
L 180.756224 53.560052 
L 180.821081 261.815865 
L 181.404797 264.080464 
L 181.761512 264.740469 
L 181.988512 264.787506 
L 182.183084 264.58704 
L 182.474942 263.895964 
L 182.896515 262.232447 
L 183.707231 257.909083 
L 183.96666 256.448619 
L 183.999089 53.560556 
L 184.063946 255.906195 
L 185.296235 249.669694 
L 186.301524 245.679299 
L 187.209526 242.891998 
L 187.241955 53.57054 
L 187.306812 242.635608 
L 188.182386 240.667878 
L 188.993102 239.35715 
L 189.738961 238.556374 
L 190.387534 238.163754 
L 190.452391 238.139838 
L 190.48482 53.568997 
L 190.549677 238.109186 
L 191.133393 238.057211 
L 191.717109 238.234047 
L 192.300825 238.646691 
L 192.949398 239.396208 
L 193.6304 240.539087 
L 193.695257 240.668299 
L 193.727686 53.56534 
L 193.792543 240.869084 
L 194.538402 242.703461 
L 195.31669 245.247369 
L 196.094977 248.581026 
L 196.873265 252.923229 
L 196.938122 253.339423 
L 196.970551 53.559826 
L 197.035408 253.981036 
L 197.846125 260.199859 
L 199.370271 272.53235 
L 199.532415 272.69294 
L 199.662129 272.486586 
L 199.88913 271.456114 
L 200.180988 269.181236 
L 200.213416 53.560058 
L 200.278274 268.271969 
L 202.191564 250.844395 
L 203.099567 245.192513 
L 203.423853 243.510674 
L 203.456282 53.566362 
L 203.521139 243.03585 
L 204.46157 239.063634 
L 205.402001 236.034057 
L 206.310004 233.838998 
L 206.666719 233.150159 
L 206.699147 53.568009 
L 206.764005 232.978303 
L 207.574721 231.802416 
L 208.288152 231.132741 
L 208.936725 230.81348 
L 209.52044 230.763137 
L 209.909584 230.857287 
L 209.942013 53.565798 
L 210.00687 230.897195 
L 210.590586 231.279027 
L 211.20673 231.961851 
L 211.855304 233.023683 
L 212.536305 234.573287 
L 213.15245 236.432296 
L 213.184878 53.558386 
L 213.249736 236.771778 
L 213.963166 239.720951 
L 214.644168 243.488947 
L 215.292741 248.342278 
L 215.876457 254.372006 
L 216.395315 261.978771 
L 216.427744 53.55949 
L 216.492601 263.762385 
L 216.979031 275.211053 
L 217.465461 286.701592 
L 217.497889 286.683959 
L 217.595175 285.621208 
L 217.854605 278.40553 
L 218.503178 261.096171 
L 219.119322 250.559981 
L 219.638181 244.067473 
L 219.670609 53.570368 
L 219.735467 243.009307 
L 220.546183 235.538085 
L 221.486614 228.928149 
L 222.524331 223.217712 
L 222.881046 221.530629 
L 222.913475 53.574918 
L 222.978332 221.090968 
L 224.113335 216.51467 
L 225.313195 212.575693 
L 226.123912 210.326234 
L 226.15634 53.568236 
L 226.221198 210.075754 
L 227.485915 207.156412 
L 228.750633 204.79047 
L 229.366777 203.813857 
L 229.399206 53.551222 
L 229.464063 203.66948 
L 230.696352 202.059418 
L 231.863784 200.884801 
L 232.609643 200.301191 
L 232.642071 53.52626 
L 232.706929 200.234323 
L 233.809503 199.621772 
L 234.879648 199.276596 
L 235.852508 199.171392 
L 235.884937 200.009689 
L 235.949794 199.17172 
L 236.987511 199.297994 
L 238.025228 199.650511 
L 239.095374 200.256378 
L 239.127802 53.52626 
L 239.19266 200.32395 
L 240.295234 201.240162 
L 241.430237 202.484917 
L 242.338239 203.717314 
L 242.370668 53.551222 
L 242.435525 203.862567 
L 243.602957 205.819327 
L 244.802817 208.281613 
L 245.581105 210.158807 
L 245.613533 53.568236 
L 245.678391 210.410611 
L 246.845822 213.766867 
L 247.980825 217.726847 
L 248.82397 221.236591 
L 248.856399 53.574918 
L 248.921256 221.679063 
L 249.926544 226.812127 
L 250.834547 232.593583 
L 251.645263 239.156891 
L 252.066836 243.357333 
L 252.099264 53.570368 
L 252.164121 244.429838 
L 252.812695 252.962273 
L 253.363982 263.194201 
L 253.88284 277.370593 
L 254.271984 286.683959 
L 254.304413 286.701592 
L 254.401699 285.754595 
L 254.661128 279.006727 
L 255.277272 263.762385 
L 255.309701 263.15226 
L 255.34213 53.55949 
L 255.406987 261.414229 
L 255.990703 253.218846 
L 256.671705 246.722282 
L 257.417564 241.737853 
L 258.195851 238.006107 
L 258.552566 236.657109 
L 258.584995 53.558386 
L 258.649852 236.322115 
L 259.42814 234.080694 
L 260.173999 232.55396 
L 260.88743 231.565136 
L 261.536003 231.016337 
L 261.795432 230.883155 
L 261.827861 53.565798 
L 261.892718 230.845455 
L 262.476434 230.75573 
L 263.06015 230.893905 
L 263.676294 231.282165 
L 264.324867 231.960436 
L 265.038297 233.034838 
L 265.070726 53.568009 
L 265.135583 233.208951 
L 265.913871 234.854158 
L 266.757016 237.186469 
L 267.600161 240.184854 
L 268.281163 243.192662 
L 268.313592 53.566362 
L 268.378449 243.671903 
L 269.221594 248.441452 
L 270.064739 254.56433 
L 270.940313 262.673674 
L 271.524028 268.580784 
L 271.556457 53.560058 
L 271.621314 269.471511 
L 272.042887 272.274532 
L 272.269887 272.697903 
L 272.399602 272.53235 
L 272.594174 271.767595 
L 272.950889 269.186508 
L 274.766894 253.764825 
L 274.799323 53.559826 
L 274.86418 253.130186 
L 275.707325 248.423785 
L 276.55047 244.889818 
L 277.393615 242.258129 
L 278.009759 240.801219 
L 278.042188 53.56534 
L 278.107045 240.603232 
L 278.885333 239.306879 
L 279.598763 238.534094 
L 280.247337 238.149337 
L 280.831052 238.049334 
L 281.252625 238.118707 
L 281.285054 53.568997 
L 281.349911 238.151448 
L 281.933627 238.479637 
L 282.5822 239.111644 
L 283.29563 240.141529 
L 284.073918 241.687016 
L 284.49549 242.720201 
L 284.527919 53.57054 
L 284.592776 242.979209 
L 285.46835 245.679299 
L 286.376352 249.239349 
L 287.381641 254.137998 
L 287.738356 256.086523 
L 287.770784 53.560556 
L 287.835642 256.630298 
L 289.132788 263.335544 
L 289.55436 264.532574 
L 289.81379 264.799397 
L 290.008362 264.740469 
L 290.235362 264.398049 
L 290.559649 263.459273 
L 290.981221 261.661135 
L 291.01365 53.560052 
L 291.078507 261.185187 
L 293.705228 248.611781 
L 294.224087 246.828906 
L 294.256515 53.566073 
L 294.321373 246.522992 
L 295.229375 244.072191 
L 296.07252 242.399179 
L 296.850808 241.319911 
L 297.466952 240.760107 
L 297.499381 53.568667 
L 297.564238 240.694649 
L 298.212811 240.414242 
L 298.828956 240.395264 
L 299.412672 240.597517 
L 300.028816 241.04444 
L 300.709818 241.822188 
L 300.742246 53.668791 
L 300.807104 241.958096 
L 301.552963 243.211753 
L 302.396108 245.095544 
L 303.30411 247.702427 
L 303.952683 249.932637 
L 303.985112 54.129273 
L 304.049969 250.292278 
L 305.411973 255.810666 
L 306.514547 259.979721 
L 307.033405 261.219275 
L 307.195549 261.452484 
L 307.227977 55.384977 
L 307.292835 261.553118 
L 307.584693 261.67289 
L 307.844122 261.552135 
L 308.168408 261.124574 
L 308.62241 260.108399 
L 309.400697 257.714451 
L 310.438414 254.334703 
L 310.470843 57.978185 
L 310.5357 254.040461 
L 311.50856 251.465164 
L 312.319276 249.894838 
L 313.032707 248.964599 
L 313.648851 248.498483 
L 313.68128 248.482519 
L 313.713708 62.484432 
L 313.778566 248.439743 
L 314.329853 248.341657 
L 314.848711 248.4725 
L 315.399998 248.848664 
L 316.016143 249.561079 
L 316.697145 250.71563 
L 316.924145 251.188698 
L 316.956574 69.466939 
L 317.021431 251.405281 
L 317.799719 253.447282 
L 318.642864 256.322172 
L 319.518438 260.129261 
L 320.167011 263.56854 
L 320.199439 79.545928 
L 320.264297 264.134799 
L 321.204728 270.360513 
L 322.242445 278.872302 
L 323.409876 288.52325 
L 323.442305 93.513757 
L 323.507162 289.074241 
L 323.863877 290.385387 
L 324.090878 290.580532 
L 324.253021 290.426363 
L 324.51245 289.753495 
L 324.966452 287.758598 
L 326.620313 279.917999 
L 326.652742 279.800061 
L 326.68517 112.55754 
L 326.750028 279.456048 
L 327.495887 277.28288 
L 328.176888 275.934509 
L 328.825461 275.110975 
L 329.441606 274.662976 
L 329.895607 274.500234 
L 329.928036 138.888581 
L 329.992893 274.480957 
L 330.706323 274.476338 
L 331.614326 274.718421 
L 333.138473 275.36187 
L 333.170901 177.8938 
L 333.235759 275.402974 
L 334.922049 275.990503 
L 336.381338 276.302206 
L 336.413767 254.118514 
L 336.478624 276.318694 
L 339.624204 276.787609 
L 339.656632 262.724759 
L 339.72149 276.801936 
L 342.867069 277.232979 
L 342.899498 267.451247 
L 342.964355 277.245154 
L 346.109935 277.638525 
L 346.142363 254.123499 
L 346.20722 277.650923 
L 349.3528 278.029249 
L 349.385229 263.121262 
L 349.450086 278.039866 
L 352.595665 278.368893 
L 352.628094 266.534791 
L 352.692951 278.379139 
L 355.838531 278.703751 
L 355.87096 272.094205 
L 355.935817 278.713018 
L 359.081396 278.984462 
L 359.113825 268.423793 
L 359.178682 278.992565 
L 362.324262 279.267263 
L 362.356691 258.824244 
L 362.421548 279.275808 
L 365.567127 279.519931 
L 365.599556 288.792971 
L 365.664413 279.526437 
L 368.809993 279.733613 
L 368.842422 272.863595 
L 368.907279 279.740275 
L 372.052858 279.942902 
L 372.085287 295.257756 
L 372.150144 279.948196 
L 375.295724 280.095954 
L 375.328152 279.173132 
L 375.39301 280.100556 
L 378.538589 280.2664 
L 378.571018 280.989395 
L 378.635875 280.271356 
L 381.781455 280.379053 
L 381.813883 288.06742 
L 381.878741 280.380976 
L 385.02432 280.466259 
L 385.056749 274.965529 
L 385.121606 280.470342 
L 388.267186 280.593216 
L 388.299614 294.128649 
L 388.364472 280.594906 
L 391.510051 280.559983 
L 391.54248 278.687803 
L 391.607337 280.557979 
L 394.979917 280.600693 
L 397.995782 280.703605 
L 397.995782 280.703605 
" clip-path="url(#p492ec3e51b)" style="fill: none; stroke: #000000; stroke-width: 2; stroke-linecap: square"/>
   </g>
   <g id="patch_3">
    <path d="M 57.528957 307.344331 
L 57.528957 41.439685 
" style="fill: none; stroke: #000000; stroke-width: 0.8; stroke-linejoin: miter; stroke-linecap: square"/>
   </g>
   <g id="patch_4">
    <path d="M 414.208488 307.344331 
L 414.208488 41.439685 
" style="fill: none; stroke: #000000; stroke-width: 0.8; stroke-linejoin: miter; stroke-linecap: square"/>
   </g>
   <g id="patch_5">
    <path d="M 57.528957 307.344331 
L 414.208488 307.344331 
" style="fill: none; stroke: #000000; stroke-width: 0.8; stroke-linejoin: miter; stroke-linecap: square"/>
   </g>
   <g id="patch_6">
    <path d="M 57.528957 41.439685 
L 414.208488 41.439685 
" style="fill: none; stroke: #000000; stroke-width: 0.8; stroke-linejoin: miter; stroke-linecap: square"/>
   </g>
   <g id="text_12">
    <!-- Golden (lfilter using float taps, Taps=39) -->
    <g transform="translate(114.232785 35.439685) scale(0.12 -0.12)">
     <defs>
      <path id="DejaVuSans-47" d="M 3809 666 
L 3809 1919 
L 2778 1919 
L 2778 2438 
L 4434 2438 
L 4434 434 
Q 4069 175 3628 42 
Q 3188 -91 2688 -91 
Q 1594 -91 976 548 
Q 359 1188 359 2328 
Q 359 3472 976 4111 
Q 1594 4750 2688 4750 
Q 3144 4750 3555 4637 
Q 3966 4525 4313 4306 
L 4313 3634 
Q 3963 3931 3569 4081 
Q 3175 4231 2741 4231 
Q 1884 4231 1454 3753 
Q 1025 3275 1025 2328 
Q 1025 1384 1454 906 
Q 1884 428 2741 428 
Q 3075 428 3337 486 
Q 3600 544 3809 666 
z
" transform="scale(0.015625)"/>
      <path id="DejaVuSans-28" d="M 1984 4856 
Q 1566 4138 1362 3434 
Q 1159 2731 1159 2009 
Q 1159 1288 1364 580 
Q 1569 -128 1984 -844 
L 1484 -844 
Q 1016 -109 783 600 
Q 550 1309 550 2009 
Q 550 2706 781 3412 
Q 1013 4119 1484 4856 
L 1984 4856 
z
" transform="scale(0.015625)"/>
      <path id="DejaVuSans-66" d="M 2375 4863 
L 2375 4384 
L 1825 4384 
Q 1516 4384 1395 4259 
Q 1275 4134 1275 3809 
L 1275 3500 
L 2222 3500 
L 2222 3053 
L 1275 3053 
L 1275 0 
L 697 0 
L 697 3053 
L 147 3053 
L 147 3500 
L 697 3500 
L 697 3744 
Q 697 4328 969 4595 
Q 1241 4863 1831 4863 
L 2375 4863 
z
" transform="scale(0.015625)"/>
      <path id="DejaVuSans-74" d="M 1172 4494 
L 1172 3500 
L 2356 3500 
L 2356 3053 
L 1172 3053 
L 1172 1153 
Q 1172 725 1289 603 
Q 1406 481 1766 481 
L 2356 481 
L 2356 0 
L 1766 0 
Q 1100 0 847 248 
Q 594 497 594 1153 
L 594 3053 
L 172 3053 
L 172 3500 
L 594 3500 
L 594 4494 
L 1172 4494 
z
" transform="scale(0.015625)"/>
      <path id="DejaVuSans-73" d="M 2834 3397 
L 2834 2853 
Q 2591 2978 2328 3040 
Q 2066 3103 1784 3103 
Q 1356 3103 1142 2972 
Q 928 2841 928 2578 
Q 928 2378 1081 2264 
Q 1234 2150 1697 2047 
L 1894 2003 
Q 2506 1872 2764 1633 
Q 3022 1394 3022 966 
Q 3022 478 2636 193 
Q 2250 -91 1575 -91 
Q 1294 -91 989 -36 
Q 684 19 347 128 
L 347 722 
Q 666 556 975 473 
Q 1284 391 1588 391 
Q 1994 391 2212 530 
Q 2431 669 2431 922 
Q 2431 1156 2273 1281 
Q 2116 1406 1581 1522 
L 1381 1569 
Q 847 1681 609 1914 
Q 372 2147 372 2553 
Q 372 3047 722 3315 
Q 1072 3584 1716 3584 
Q 2034 3584 2315 3537 
Q 2597 3491 2834 3397 
z
" transform="scale(0.015625)"/>
      <path id="DejaVuSans-67" d="M 2906 1791 
Q 2906 2416 2648 2759 
Q 2391 3103 1925 3103 
Q 1463 3103 1205 2759 
Q 947 2416 947 1791 
Q 947 1169 1205 825 
Q 1463 481 1925 481 
Q 2391 481 2648 825 
Q 2906 1169 2906 1791 
z
M 3481 434 
Q 3481 -459 3084 -895 
Q 2688 -1331 1869 -1331 
Q 1566 -1331 1297 -1286 
Q 1028 -1241 775 -1147 
L 775 -588 
Q 1028 -725 1275 -790 
Q 1522 -856 1778 -856 
Q 2344 -856 2625 -561 
Q 2906 -266 2906 331 
L 2906 616 
Q 2728 306 2450 153 
Q 2172 0 1784 0 
Q 1141 0 747 490 
Q 353 981 353 1791 
Q 353 2603 747 3093 
Q 1141 3584 1784 3584 
Q 2172 3584 2450 3431 
Q 2728 3278 2906 2969 
L 2906 3500 
L 3481 3500 
L 3481 434 
z
" transform="scale(0.015625)"/>
      <path id="DejaVuSans-70" d="M 1159 525 
L 1159 -1331 
L 581 -1331 
L 581 3500 
L 1159 3500 
L 1159 2969 
Q 1341 3281 1617 3432 
Q 1894 3584 2278 3584 
Q 2916 3584 3314 3078 
Q 3713 2572 3713 1747 
Q 3713 922 3314 415 
Q 2916 -91 2278 -91 
Q 1894 -91 1617 61 
Q 1341 213 1159 525 
z
M 3116 1747 
Q 3116 2381 2855 2742 
Q 2594 3103 2138 3103 
Q 1681 3103 1420 2742 
Q 1159 2381 1159 1747 
Q 1159 1113 1420 752 
Q 1681 391 2138 391 
Q 2594 391 2855 752 
Q 3116 1113 3116 1747 
z
" transform="scale(0.015625)"/>
      <path id="DejaVuSans-2c" d="M 750 794 
L 1409 794 
L 1409 256 
L 897 -744 
L 494 -744 
L 750 256 
L 750 794 
z
" transform="scale(0.015625)"/>
      <path id="DejaVuSans-54" d="M -19 4666 
L 3928 4666 
L 3928 4134 
L 2272 4134 
L 2272 0 
L 1638 0 
L 1638 4134 
L -19 4134 
L -19 4666 
z
" transform="scale(0.015625)"/>
      <path id="DejaVuSans-3d" d="M 678 2906 
L 4684 2906 
L 4684 2381 
L 678 2381 
L 678 2906 
z
M 678 1631 
L 4684 1631 
L 4684 1100 
L 678 1100 
L 678 1631 
z
" transform="scale(0.015625)"/>
      <path id="DejaVuSans-33" d="M 2597 2516 
Q 3050 2419 3304 2112 
Q 3559 1806 3559 1356 
Q 3559 666 3084 287 
Q 2609 -91 1734 -91 
Q 1441 -91 1130 -33 
Q 819 25 488 141 
L 488 750 
Q 750 597 1062 519 
Q 1375 441 1716 441 
Q 2309 441 2620 675 
Q 2931 909 2931 1356 
Q 2931 1769 2642 2001 
Q 2353 2234 1838 2234 
L 1294 2234 
L 1294 2753 
L 1863 2753 
Q 2328 2753 2575 2939 
Q 2822 3125 2822 3475 
Q 2822 3834 2567 4026 
Q 2313 4219 1838 4219 
Q 1578 4219 1281 4162 
Q 984 4106 628 3988 
L 628 4550 
Q 988 4650 1302 4700 
Q 1616 4750 1894 4750 
Q 2613 4750 3031 4423 
Q 3450 4097 3450 3541 
Q 3450 3153 3228 2886 
Q 3006 2619 2597 2516 
z
" transform="scale(0.015625)"/>
      <path id="DejaVuSans-39" d="M 703 97 
L 703 672 
Q 941 559 1184 500 
Q 1428 441 1663 441 
Q 2288 441 2617 861 
Q 2947 1281 2994 2138 
Q 2813 1869 2534 1725 
Q 2256 1581 1919 1581 
Q 1219 1581 811 2004 
Q 403 2428 403 3163 
Q 403 3881 828 4315 
Q 1253 4750 1959 4750 
Q 2769 4750 3195 4129 
Q 3622 3509 3622 2328 
Q 3622 1225 3098 567 
Q 2575 -91 1691 -91 
Q 1453 -91 1209 -44 
Q 966 3 703 97 
z
M 1959 2075 
Q 2384 2075 2632 2365 
Q 2881 2656 2881 3163 
Q 2881 3666 2632 3958 
Q 2384 4250 1959 4250 
Q 1534 4250 1286 3958 
Q 1038 3666 1038 3163 
Q 1038 2656 1286 2365 
Q 1534 2075 1959 2075 
z
" transform="scale(0.015625)"/>
      <path id="DejaVuSans-29" d="M 513 4856 
L 1013 4856 
Q 1481 4119 1714 3412 
Q 1947 2706 1947 2009 
Q 1947 1309 1714 600 
Q 1481 -109 1013 -844 
L 513 -844 
Q 928 -128 1133 580 
Q 1338 1288 1338 2009 
Q 1338 2731 1133 3434 
Q 928 4138 513 4856 
z
" transform="scale(0.015625)"/>
     </defs>
     <use xlink:href="#DejaVuSans-47"/>
     <use xlink:href="#DejaVuSans-6f" transform="translate(77.490234 0)"/>
     <use xlink:href="#DejaVuSans-6c" transform="translate(138.671875 0)"/>
     <use xlink:href="#DejaVuSans-64" transform="translate(166.455078 0)"/>
     <use xlink:href="#DejaVuSans-65" transform="translate(229.931641 0)"/>
     <use xlink:href="#DejaVuSans-6e" transform="translate(291.455078 0)"/>
     <use xlink:href="#DejaVuSans-20" transform="translate(354.833984 0)"/>
     <use xlink:href="#DejaVuSans-28" transform="translate(386.621094 0)"/>
     <use xlink:href="#DejaVuSans-6c" transform="translate(425.634766 0)"/>
     <use xlink:href="#DejaVuSans-66" transform="translate(453.417969 0)"/>
     <use xlink:href="#DejaVuSans-69" transform="translate(488.623047 0)"/>
     <use xlink:href="#DejaVuSans-6c" transform="translate(516.40625 0)"/>
     <use xlink:href="#DejaVuSans-74" transform="translate(544.189453 0)"/>
     <use xlink:href="#DejaVuSans-65" transform="translate(583.398438 0)"/>
     <use xlink:href="#DejaVuSans-72" transform="translate(644.921875 0)"/>
     <use xlink:href="#DejaVuSans-20" transform="translate(686.035156 0)"/>
     <use xlink:href="#DejaVuSans-75" transform="translate(717.822266 0)"/>
     <use xlink:href="#DejaVuSans-73" transform="translate(781.201172 0)"/>
     <use xlink:href="#DejaVuSans-69" transform="translate(833.300781 0)"/>
     <use xlink:href="#DejaVuSans-6e" transform="translate(861.083984 0)"/>
     <use xlink:href="#DejaVuSans-67" transform="translate(924.462891 0)"/>
     <use xlink:href="#DejaVuSans-20" transform="translate(987.939453 0)"/>
     <use xlink:href="#DejaVuSans-66" transform="translate(1019.726562 0)"/>
     <use xlink:href="#DejaVuSans-6c" transform="translate(1054.931641 0)"/>
     <use xlink:href="#DejaVuSans-6f" transform="translate(1082.714844 0)"/>
     <use xlink:href="#DejaVuSans-61" transform="translate(1143.896484 0)"/>
     <use xlink:href="#DejaVuSans-74" transform="translate(1205.175781 0)"/>
     <use xlink:href="#DejaVuSans-20" transform="translate(1244.384766 0)"/>
     <use xlink:href="#DejaVuSans-74" transform="translate(1276.171875 0)"/>
     <use xlink:href="#DejaVuSans-61" transform="translate(1315.380859 0)"/>
     <use xlink:href="#DejaVuSans-70" transform="translate(1376.660156 0)"/>
     <use xlink:href="#DejaVuSans-73" transform="translate(1440.136719 0)"/>
     <use xlink:href="#DejaVuSans-2c" transform="translate(1492.236328 0)"/>
     <use xlink:href="#DejaVuSans-20" transform="translate(1524.023438 0)"/>
     <use xlink:href="#DejaVuSans-54" transform="translate(1555.810547 0)"/>
     <use xlink:href="#DejaVuSans-61" transform="translate(1600.394531 0)"/>
     <use xlink:href="#DejaVuSans-70" transform="translate(1661.673828 0)"/>
     <use xlink:href="#DejaVuSans-73" transform="translate(1725.150391 0)"/>
     <use xlink:href="#DejaVuSans-3d" transform="translate(1777.25 0)"/>
     <use xlink:href="#DejaVuSans-33" transform="translate(1861.039062 0)"/>
     <use xlink:href="#DejaVuSans-39" transform="translate(1924.662109 0)"/>
     <use xlink:href="#DejaVuSans-29" transform="translate(1988.285156 0)"/>
    </g>
   </g>
  </g>
 </g>
 <defs>
  <clipPath id="p492ec3e51b">
   <rect x="57.528957" y="41.439685" width="356.679531" height="265.904646"/>
  </clipPath>
 </defs>
</svg>
