<?xml version="1.0" encoding="utf-8" standalone="no"?>
<!DOCTYPE svg PUBLIC "-//W3C//DTD SVG 1.1//EN"
  "http://www.w3.org/Graphics/SVG/1.1/DTD/svg11.dtd">
<svg xmlns:xlink="http://www.w3.org/1999/xlink" width="460.231654pt" height="345.330709pt" viewBox="0 0 460.231654 345.330709" xmlns="http://www.w3.org/2000/svg" version="1.1">
 <metadata>
  <rdf:RDF xmlns:dc="http://purl.org/dc/elements/1.1/" xmlns:cc="http://creativecommons.org/ns#" xmlns:rdf="http://www.w3.org/1999/02/22-rdf-syntax-ns#">
   <cc:Work>
    <dc:type rdf:resource="http://purl.org/dc/dcmitype/StillImage"/>
    <dc:date>2026-03-23T10:47:21.638768</dc:date>
    <dc:format>image/svg+xml</dc:format>
    <dc:creator>
     <cc:Agent>
      <dc:title>Matplotlib v3.10.8, https://matplotlib.org/</dc:title>
     </cc:Agent>
    </dc:creator>
   </cc:Work>
  </rdf:RDF>
 </metadata>
 <defs>
  <style type="text/css">*{stroke-linejoin: round; stroke-linecap: butt}</style>
 </defs>
 <g id="figure_1">
  <g id="patch_1">
   <path d="M 0 345.330709 
L 460.231654 345.330709 
L 460.231654 0 
L 0 0 
z
" style="fill: #ffffff"/>
  </g>
  <g id="axes_1">
   <g id="patch_2">
    <path d="M 57.528957 307.344331 
L 414.208488 307.344331 
L 414.208488 41.439685 
L 57.528957 41.439685 
z
" style="fill: #ffffff"/>
   </g>
   <g id="matplotlib.axis_1">
    <g id="xtick_1">
     <g id="line2d_1">
      <defs>
       <path id="m4a8f7554b8" d="M 0 0 
L 0 3.5 
" style="stroke: #000000; stroke-width: 0.8"/>
      </defs>
      <g>
       <use xlink:href="#m4a8f7554b8" x="106.170317" y="307.344331" style="stroke: #000000; stroke-width: 0.8"/>
      </g>
     </g>
     <g id="text_1">
      <!-- −0.4 -->
      <g transform="translate(94.028911 321.942768) scale(0.1 -0.1)">
       <defs>
        <path id="DejaVuSans-2212" d="M 678 2272 
L 4684 2272 
L 4684 1741 
L 678 1741 
L 678 2272 
z
" transform="scale(0.015625)"/>
        <path id="DejaVuSans-30" d="M 2034 4250 
Q 1547 4250 1301 3770 
Q 1056 3291 1056 2328 
Q 1056 1369 1301 889 
Q 1547 409 2034 409 
Q 2525 409 2770 889 
Q 3016 1369 3016 2328 
Q 3016 3291 2770 3770 
Q 2525 4250 2034 4250 
z
M 2034 4750 
Q 2819 4750 3233 4129 
Q 3647 3509 3647 2328 
Q 3647 1150 3233 529 
Q 2819 -91 2034 -91 
Q 1250 -91 836 529 
Q 422 1150 422 2328 
Q 422 3509 836 4129 
Q 1250 4750 2034 4750 
z
" transform="scale(0.015625)"/>
        <path id="DejaVuSans-2e" d="M 684 794 
L 1344 794 
L 1344 0 
L 684 0 
L 684 794 
z
" transform="scale(0.015625)"/>
        <path id="DejaVuSans-34" d="M 2419 4116 
L 825 1625 
L 2419 1625 
L 2419 4116 
z
M 2253 4666 
L 3047 4666 
L 3047 1625 
L 3713 1625 
L 3713 1100 
L 3047 1100 
L 3047 0 
L 2419 0 
L 2419 1100 
L 313 1100 
L 313 1709 
L 2253 4666 
z
" transform="scale(0.015625)"/>
       </defs>
       <use xlink:href="#DejaVuSans-2212"/>
       <use xlink:href="#DejaVuSans-30" transform="translate(83.789062 0)"/>
       <use xlink:href="#DejaVuSans-2e" transform="translate(147.412109 0)"/>
       <use xlink:href="#DejaVuSans-34" transform="translate(179.199219 0)"/>
      </g>
     </g>
    </g>
    <g id="xtick_2">
     <g id="line2d_2">
      <g>
       <use xlink:href="#m4a8f7554b8" x="171.027627" y="307.344331" style="stroke: #000000; stroke-width: 0.8"/>
      </g>
     </g>
     <g id="text_2">
      <!-- −0.2 -->
      <g transform="translate(158.886221 321.942768) scale(0.1 -0.1)">
       <defs>
        <path id="DejaVuSans-32" d="M 1228 531 
L 3431 531 
L 3431 0 
L 469 0 
L 469 531 
Q 828 903 1448 1529 
Q 2069 2156 2228 2338 
Q 2531 2678 2651 2914 
Q 2772 3150 2772 3378 
Q 2772 3750 2511 3984 
Q 2250 4219 1831 4219 
Q 1534 4219 1204 4116 
Q 875 4013 500 3803 
L 500 4441 
Q 881 4594 1212 4672 
Q 1544 4750 1819 4750 
Q 2544 4750 2975 4387 
Q 3406 4025 3406 3419 
Q 3406 3131 3298 2873 
Q 3191 2616 2906 2266 
Q 2828 2175 2409 1742 
Q 1991 1309 1228 531 
z
" transform="scale(0.015625)"/>
       </defs>
       <use xlink:href="#DejaVuSans-2212"/>
       <use xlink:href="#DejaVuSans-30" transform="translate(83.789062 0)"/>
       <use xlink:href="#DejaVuSans-2e" transform="translate(147.412109 0)"/>
       <use xlink:href="#DejaVuSans-32" transform="translate(179.199219 0)"/>
      </g>
     </g>
    </g>
    <g id="xtick_3">
     <g id="line2d_3">
      <g>
       <use xlink:href="#m4a8f7554b8" x="235.884937" y="307.344331" style="stroke: #000000; stroke-width: 0.8"/>
      </g>
     </g>
     <g id="text_3">
      <!-- 0.0 -->
      <g transform="translate(227.933374 321.942768) scale(0.1 -0.1)">
       <use xlink:href="#DejaVuSans-30"/>
       <use xlink:href="#DejaVuSans-2e" transform="translate(63.623047 0)"/>
       <use xlink:href="#DejaVuSans-30" transform="translate(95.410156 0)"/>
      </g>
     </g>
    </g>
    <g id="xtick_4">
     <g id="line2d_4">
      <g>
       <use xlink:href="#m4a8f7554b8" x="300.742246" y="307.344331" style="stroke: #000000; stroke-width: 0.8"/>
      </g>
     </g>
     <g id="text_4">
      <!-- 0.2 -->
      <g transform="translate(292.790684 321.942768) scale(0.1 -0.1)">
       <use xlink:href="#DejaVuSans-30"/>
       <use xlink:href="#DejaVuSans-2e" transform="translate(63.623047 0)"/>
       <use xlink:href="#DejaVuSans-32" transform="translate(95.410156 0)"/>
      </g>
     </g>
    </g>
    <g id="xtick_5">
     <g id="line2d_5">
      <g>
       <use xlink:href="#m4a8f7554b8" x="365.599556" y="307.344331" style="stroke: #000000; stroke-width: 0.8"/>
      </g>
     </g>
     <g id="text_5">
      <!-- 0.4 -->
      <g transform="translate(357.647994 321.942768) scale(0.1 -0.1)">
       <use xlink:href="#DejaVuSans-30"/>
       <use xlink:href="#DejaVuSans-2e" transform="translate(63.623047 0)"/>
       <use xlink:href="#DejaVuSans-34" transform="translate(95.410156 0)"/>
      </g>
     </g>
    </g>
    <g id="text_6">
     <!-- Normalized Frequency -->
     <g transform="translate(180.094504 335.620893) scale(0.1 -0.1)">
      <defs>
       <path id="DejaVuSans-4e" d="M 628 4666 
L 1478 4666 
L 3547 763 
L 3547 4666 
L 4159 4666 
L 4159 0 
L 3309 0 
L 1241 3903 
L 1241 0 
L 628 0 
L 628 4666 
z
" transform="scale(0.015625)"/>
       <path id="DejaVuSans-6f" d="M 1959 3097 
Q 1497 3097 1228 2736 
Q 959 2375 959 1747 
Q 959 1119 1226 758 
Q 1494 397 1959 397 
Q 2419 397 2687 759 
Q 2956 1122 2956 1747 
Q 2956 2369 2687 2733 
Q 2419 3097 1959 3097 
z
M 1959 3584 
Q 2709 3584 3137 3096 
Q 3566 2609 3566 1747 
Q 3566 888 3137 398 
Q 2709 -91 1959 -91 
Q 1206 -91 779 398 
Q 353 888 353 1747 
Q 353 2609 779 3096 
Q 1206 3584 1959 3584 
z
" transform="scale(0.015625)"/>
       <path id="DejaVuSans-72" d="M 2631 2963 
Q 2534 3019 2420 3045 
Q 2306 3072 2169 3072 
Q 1681 3072 1420 2755 
Q 1159 2438 1159 1844 
L 1159 0 
L 581 0 
L 581 3500 
L 1159 3500 
L 1159 2956 
Q 1341 3275 1631 3429 
Q 1922 3584 2338 3584 
Q 2397 3584 2469 3576 
Q 2541 3569 2628 3553 
L 2631 2963 
z
" transform="scale(0.015625)"/>
       <path id="DejaVuSans-6d" d="M 3328 2828 
Q 3544 3216 3844 3400 
Q 4144 3584 4550 3584 
Q 5097 3584 5394 3201 
Q 5691 2819 5691 2113 
L 5691 0 
L 5113 0 
L 5113 2094 
Q 5113 2597 4934 2840 
Q 4756 3084 4391 3084 
Q 3944 3084 3684 2787 
Q 3425 2491 3425 1978 
L 3425 0 
L 2847 0 
L 2847 2094 
Q 2847 2600 2669 2842 
Q 2491 3084 2119 3084 
Q 1678 3084 1418 2786 
Q 1159 2488 1159 1978 
L 1159 0 
L 581 0 
L 581 3500 
L 1159 3500 
L 1159 2956 
Q 1356 3278 1631 3431 
Q 1906 3584 2284 3584 
Q 2666 3584 2933 3390 
Q 3200 3197 3328 2828 
z
" transform="scale(0.015625)"/>
       <path id="DejaVuSans-61" d="M 2194 1759 
Q 1497 1759 1228 1600 
Q 959 1441 959 1056 
Q 959 750 1161 570 
Q 1363 391 1709 391 
Q 2188 391 2477 730 
Q 2766 1069 2766 1631 
L 2766 1759 
L 2194 1759 
z
M 3341 1997 
L 3341 0 
L 2766 0 
L 2766 531 
Q 2569 213 2275 61 
Q 1981 -91 1556 -91 
Q 1019 -91 701 211 
Q 384 513 384 1019 
Q 384 1609 779 1909 
Q 1175 2209 1959 2209 
L 2766 2209 
L 2766 2266 
Q 2766 2663 2505 2880 
Q 2244 3097 1772 3097 
Q 1472 3097 1187 3025 
Q 903 2953 641 2809 
L 641 3341 
Q 956 3463 1253 3523 
Q 1550 3584 1831 3584 
Q 2591 3584 2966 3190 
Q 3341 2797 3341 1997 
z
" transform="scale(0.015625)"/>
       <path id="DejaVuSans-6c" d="M 603 4863 
L 1178 4863 
L 1178 0 
L 603 0 
L 603 4863 
z
" transform="scale(0.015625)"/>
       <path id="DejaVuSans-69" d="M 603 3500 
L 1178 3500 
L 1178 0 
L 603 0 
L 603 3500 
z
M 603 4863 
L 1178 4863 
L 1178 4134 
L 603 4134 
L 603 4863 
z
" transform="scale(0.015625)"/>
       <path id="DejaVuSans-7a" d="M 353 3500 
L 3084 3500 
L 3084 2975 
L 922 459 
L 3084 459 
L 3084 0 
L 275 0 
L 275 525 
L 2438 3041 
L 353 3041 
L 353 3500 
z
" transform="scale(0.015625)"/>
       <path id="DejaVuSans-65" d="M 3597 1894 
L 3597 1613 
L 953 1613 
Q 991 1019 1311 708 
Q 1631 397 2203 397 
Q 2534 397 2845 478 
Q 3156 559 3463 722 
L 3463 178 
Q 3153 47 2828 -22 
Q 2503 -91 2169 -91 
Q 1331 -91 842 396 
Q 353 884 353 1716 
Q 353 2575 817 3079 
Q 1281 3584 2069 3584 
Q 2775 3584 3186 3129 
Q 3597 2675 3597 1894 
z
M 3022 2063 
Q 3016 2534 2758 2815 
Q 2500 3097 2075 3097 
Q 1594 3097 1305 2825 
Q 1016 2553 972 2059 
L 3022 2063 
z
" transform="scale(0.015625)"/>
       <path id="DejaVuSans-64" d="M 2906 2969 
L 2906 4863 
L 3481 4863 
L 3481 0 
L 2906 0 
L 2906 525 
Q 2725 213 2448 61 
Q 2172 -91 1784 -91 
Q 1150 -91 751 415 
Q 353 922 353 1747 
Q 353 2572 751 3078 
Q 1150 3584 1784 3584 
Q 2172 3584 2448 3432 
Q 2725 3281 2906 2969 
z
M 947 1747 
Q 947 1113 1208 752 
Q 1469 391 1925 391 
Q 2381 391 2643 752 
Q 2906 1113 2906 1747 
Q 2906 2381 2643 2742 
Q 2381 3103 1925 3103 
Q 1469 3103 1208 2742 
Q 947 2381 947 1747 
z
" transform="scale(0.015625)"/>
       <path id="DejaVuSans-20" transform="scale(0.015625)"/>
       <path id="DejaVuSans-46" d="M 628 4666 
L 3309 4666 
L 3309 4134 
L 1259 4134 
L 1259 2759 
L 3109 2759 
L 3109 2228 
L 1259 2228 
L 1259 0 
L 628 0 
L 628 4666 
z
" transform="scale(0.015625)"/>
       <path id="DejaVuSans-71" d="M 947 1747 
Q 947 1113 1208 752 
Q 1469 391 1925 391 
Q 2381 391 2643 752 
Q 2906 1113 2906 1747 
Q 2906 2381 2643 2742 
Q 2381 3103 1925 3103 
Q 1469 3103 1208 2742 
Q 947 2381 947 1747 
z
M 2906 525 
Q 2725 213 2448 61 
Q 2172 -91 1784 -91 
Q 1150 -91 751 415 
Q 353 922 353 1747 
Q 353 2572 751 3078 
Q 1150 3584 1784 3584 
Q 2172 3584 2448 3432 
Q 2725 3281 2906 2969 
L 2906 3500 
L 3481 3500 
L 3481 -1331 
L 2906 -1331 
L 2906 525 
z
" transform="scale(0.015625)"/>
       <path id="DejaVuSans-75" d="M 544 1381 
L 544 3500 
L 1119 3500 
L 1119 1403 
Q 1119 906 1312 657 
Q 1506 409 1894 409 
Q 2359 409 2629 706 
Q 2900 1003 2900 1516 
L 2900 3500 
L 3475 3500 
L 3475 0 
L 2900 0 
L 2900 538 
Q 2691 219 2414 64 
Q 2138 -91 1772 -91 
Q 1169 -91 856 284 
Q 544 659 544 1381 
z
M 1991 3584 
L 1991 3584 
z
" transform="scale(0.015625)"/>
       <path id="DejaVuSans-6e" d="M 3513 2113 
L 3513 0 
L 2938 0 
L 2938 2094 
Q 2938 2591 2744 2837 
Q 2550 3084 2163 3084 
Q 1697 3084 1428 2787 
Q 1159 2491 1159 1978 
L 1159 0 
L 581 0 
L 581 3500 
L 1159 3500 
L 1159 2956 
Q 1366 3272 1645 3428 
Q 1925 3584 2291 3584 
Q 2894 3584 3203 3211 
Q 3513 2838 3513 2113 
z
" transform="scale(0.015625)"/>
       <path id="DejaVuSans-63" d="M 3122 3366 
L 3122 2828 
Q 2878 2963 2633 3030 
Q 2388 3097 2138 3097 
Q 1578 3097 1268 2742 
Q 959 2388 959 1747 
Q 959 1106 1268 751 
Q 1578 397 2138 397 
Q 2388 397 2633 464 
Q 2878 531 3122 666 
L 3122 134 
Q 2881 22 2623 -34 
Q 2366 -91 2075 -91 
Q 1284 -91 818 406 
Q 353 903 353 1747 
Q 353 2603 823 3093 
Q 1294 3584 2113 3584 
Q 2378 3584 2631 3529 
Q 2884 3475 3122 3366 
z
" transform="scale(0.015625)"/>
       <path id="DejaVuSans-79" d="M 2059 -325 
Q 1816 -950 1584 -1140 
Q 1353 -1331 966 -1331 
L 506 -1331 
L 506 -850 
L 844 -850 
Q 1081 -850 1212 -737 
Q 1344 -625 1503 -206 
L 1606 56 
L 191 3500 
L 800 3500 
L 1894 763 
L 2988 3500 
L 3597 3500 
L 2059 -325 
z
" transform="scale(0.015625)"/>
      </defs>
      <use xlink:href="#DejaVuSans-4e"/>
      <use xlink:href="#DejaVuSans-6f" transform="translate(74.804688 0)"/>
      <use xlink:href="#DejaVuSans-72" transform="translate(135.986328 0)"/>
      <use xlink:href="#DejaVuSans-6d" transform="translate(175.349609 0)"/>
      <use xlink:href="#DejaVuSans-61" transform="translate(272.761719 0)"/>
      <use xlink:href="#DejaVuSans-6c" transform="translate(334.041016 0)"/>
      <use xlink:href="#DejaVuSans-69" transform="translate(361.824219 0)"/>
      <use xlink:href="#DejaVuSans-7a" transform="translate(389.607422 0)"/>
      <use xlink:href="#DejaVuSans-65" transform="translate(442.097656 0)"/>
      <use xlink:href="#DejaVuSans-64" transform="translate(503.621094 0)"/>
      <use xlink:href="#DejaVuSans-20" transform="translate(567.097656 0)"/>
      <use xlink:href="#DejaVuSans-46" transform="translate(598.884766 0)"/>
      <use xlink:href="#DejaVuSans-72" transform="translate(649.154297 0)"/>
      <use xlink:href="#DejaVuSans-65" transform="translate(688.017578 0)"/>
      <use xlink:href="#DejaVuSans-71" transform="translate(749.541016 0)"/>
      <use xlink:href="#DejaVuSans-75" transform="translate(813.017578 0)"/>
      <use xlink:href="#DejaVuSans-65" transform="translate(876.396484 0)"/>
      <use xlink:href="#DejaVuSans-6e" transform="translate(937.919922 0)"/>
      <use xlink:href="#DejaVuSans-63" transform="translate(1001.298828 0)"/>
      <use xlink:href="#DejaVuSans-79" transform="translate(1056.279297 0)"/>
     </g>
    </g>
   </g>
   <g id="matplotlib.axis_2">
    <g id="ytick_1">
     <g id="line2d_6">
      <defs>
       <path id="m046b2d36a0" d="M 0 0 
L -3.5 0 
" style="stroke: #000000; stroke-width: 0.8"/>
      </defs>
      <g>
       <use xlink:href="#m046b2d36a0" x="57.528957" y="268.723442" style="stroke: #000000; stroke-width: 0.8"/>
      </g>
     </g>
     <g id="text_7">
      <!-- −80 -->
      <g transform="translate(29.424269 272.52266) scale(0.1 -0.1)">
       <defs>
        <path id="DejaVuSans-38" d="M 2034 2216 
Q 1584 2216 1326 1975 
Q 1069 1734 1069 1313 
Q 1069 891 1326 650 
Q 1584 409 2034 409 
Q 2484 409 2743 651 
Q 3003 894 3003 1313 
Q 3003 1734 2745 1975 
Q 2488 2216 2034 2216 
z
M 1403 2484 
Q 997 2584 770 2862 
Q 544 3141 544 3541 
Q 544 4100 942 4425 
Q 1341 4750 2034 4750 
Q 2731 4750 3128 4425 
Q 3525 4100 3525 3541 
Q 3525 3141 3298 2862 
Q 3072 2584 2669 2484 
Q 3125 2378 3379 2068 
Q 3634 1759 3634 1313 
Q 3634 634 3220 271 
Q 2806 -91 2034 -91 
Q 1263 -91 848 271 
Q 434 634 434 1313 
Q 434 1759 690 2068 
Q 947 2378 1403 2484 
z
M 1172 3481 
Q 1172 3119 1398 2916 
Q 1625 2713 2034 2713 
Q 2441 2713 2670 2916 
Q 2900 3119 2900 3481 
Q 2900 3844 2670 4047 
Q 2441 4250 2034 4250 
Q 1625 4250 1398 4047 
Q 1172 3844 1172 3481 
z
" transform="scale(0.015625)"/>
       </defs>
       <use xlink:href="#DejaVuSans-2212"/>
       <use xlink:href="#DejaVuSans-38" transform="translate(83.789062 0)"/>
       <use xlink:href="#DejaVuSans-30" transform="translate(147.412109 0)"/>
      </g>
     </g>
    </g>
    <g id="ytick_2">
     <g id="line2d_7">
      <g>
       <use xlink:href="#m046b2d36a0" x="57.528957" y="214.924146" style="stroke: #000000; stroke-width: 0.8"/>
      </g>
     </g>
     <g id="text_8">
      <!-- −60 -->
      <g transform="translate(29.424269 218.723365) scale(0.1 -0.1)">
       <defs>
        <path id="DejaVuSans-36" d="M 2113 2584 
Q 1688 2584 1439 2293 
Q 1191 2003 1191 1497 
Q 1191 994 1439 701 
Q 1688 409 2113 409 
Q 2538 409 2786 701 
Q 3034 994 3034 1497 
Q 3034 2003 2786 2293 
Q 2538 2584 2113 2584 
z
M 3366 4563 
L 3366 3988 
Q 3128 4100 2886 4159 
Q 2644 4219 2406 4219 
Q 1781 4219 1451 3797 
Q 1122 3375 1075 2522 
Q 1259 2794 1537 2939 
Q 1816 3084 2150 3084 
Q 2853 3084 3261 2657 
Q 3669 2231 3669 1497 
Q 3669 778 3244 343 
Q 2819 -91 2113 -91 
Q 1303 -91 875 529 
Q 447 1150 447 2328 
Q 447 3434 972 4092 
Q 1497 4750 2381 4750 
Q 2619 4750 2861 4703 
Q 3103 4656 3366 4563 
z
" transform="scale(0.015625)"/>
       </defs>
       <use xlink:href="#DejaVuSans-2212"/>
       <use xlink:href="#DejaVuSans-36" transform="translate(83.789062 0)"/>
       <use xlink:href="#DejaVuSans-30" transform="translate(147.412109 0)"/>
      </g>
     </g>
    </g>
    <g id="ytick_3">
     <g id="line2d_8">
      <g>
       <use xlink:href="#m046b2d36a0" x="57.528957" y="161.124851" style="stroke: #000000; stroke-width: 0.8"/>
      </g>
     </g>
     <g id="text_9">
      <!-- −40 -->
      <g transform="translate(29.424269 164.924069) scale(0.1 -0.1)">
       <use xlink:href="#DejaVuSans-2212"/>
       <use xlink:href="#DejaVuSans-34" transform="translate(83.789062 0)"/>
       <use xlink:href="#DejaVuSans-30" transform="translate(147.412109 0)"/>
      </g>
     </g>
    </g>
    <g id="ytick_4">
     <g id="line2d_9">
      <g>
       <use xlink:href="#m046b2d36a0" x="57.528957" y="107.325555" style="stroke: #000000; stroke-width: 0.8"/>
      </g>
     </g>
     <g id="text_10">
      <!-- −20 -->
      <g transform="translate(29.424269 111.124774) scale(0.1 -0.1)">
       <use xlink:href="#DejaVuSans-2212"/>
       <use xlink:href="#DejaVuSans-32" transform="translate(83.789062 0)"/>
       <use xlink:href="#DejaVuSans-30" transform="translate(147.412109 0)"/>
      </g>
     </g>
    </g>
    <g id="ytick_5">
     <g id="line2d_10">
      <g>
       <use xlink:href="#m046b2d36a0" x="57.528957" y="53.52626" style="stroke: #000000; stroke-width: 0.8"/>
      </g>
     </g>
     <g id="text_11">
      <!-- 0 -->
      <g transform="translate(44.166457 57.325479) scale(0.1 -0.1)">
       <use xlink:href="#DejaVuSans-30"/>
      </g>
     </g>
    </g>
   </g>
   <g id="line2d_11">
    <path d="M 73.741663 235.821483 
L 73.774091 285.667311 
L 73.871377 285.666446 
L 75.363095 285.535484 
L 76.952099 285.270624 
L 76.984528 243.120499 
L 77.049385 285.255407 
L 78.800533 285.096515 
L 80.194965 285.164678 
L 80.227394 249.384852 
L 80.292251 285.174843 
L 83.43783 285.464649 
L 83.470259 252.045686 
L 83.535116 285.462685 
L 84.961977 285.314217 
L 86.680696 284.927479 
L 86.713125 250.659642 
L 86.777982 284.903674 
L 88.885844 284.500148 
L 89.923561 284.43301 
L 89.95599 262.89373 
L 90.020847 284.431631 
L 91.869281 284.524583 
L 93.166427 284.643218 
L 93.198856 257.040816 
L 93.263713 284.651016 
L 95.436433 284.709826 
L 96.409292 284.655373 
L 96.441721 257.926995 
L 96.506578 284.647638 
L 99.652158 284.311024 
L 99.684587 245.861813 
L 99.749444 284.300776 
L 102.895023 284.032711 
L 102.927452 278.482766 
L 102.992309 284.025922 
L 106.137889 283.826252 
L 106.170317 258.080803 
L 106.235175 283.820498 
L 109.380754 283.616266 
L 109.413183 285.319635 
L 109.47804 283.608262 
L 112.62362 283.238807 
L 112.656048 255.929537 
L 112.720906 283.224332 
L 115.866485 282.788589 
L 115.898914 255.611693 
L 115.963771 282.778965 
L 118.298634 282.662942 
L 119.109351 282.66458 
L 119.141779 261.70091 
L 119.206637 282.665461 
L 122.352216 282.603625 
L 122.384645 247.77564 
L 122.449502 282.595219 
L 124.492507 282.302004 
L 125.595082 282.073177 
L 125.62751 244.391931 
L 125.692368 282.051686 
L 128.837947 281.347827 
L 128.870376 250.763173 
L 128.935233 281.32708 
L 132.080813 280.721726 
L 132.113241 270.754395 
L 132.178099 280.705996 
L 135.323678 280.313277 
L 135.356107 272.924537 
L 135.420964 280.301549 
L 137.236969 279.971179 
L 138.566544 279.522258 
L 138.598972 179.962416 
L 138.66383 279.482895 
L 140.998693 278.643605 
L 141.744552 278.642396 
L 141.809409 278.654674 
L 141.841838 140.308864 
L 141.906695 278.677429 
L 142.52284 278.95811 
L 143.106555 279.485228 
L 143.690271 280.329087 
L 144.306416 281.637919 
L 144.954989 283.570509 
L 145.052275 283.91517 
L 145.084703 113.643467 
L 145.149561 284.274871 
L 145.89542 287.537746 
L 147.516852 295.102773 
L 147.743853 295.248793 
L 147.905996 295.045606 
L 148.132997 294.315362 
L 148.29514 293.496066 
L 148.327569 94.283491 
L 148.392426 292.900261 
L 148.943713 288.521629 
L 150.857004 272.379146 
L 151.538006 267.966338 
L 151.570434 80.040339 
L 151.635292 267.394333 
L 152.608151 262.391366 
L 153.548582 258.648927 
L 154.456585 255.910659 
L 154.780871 255.122411 
L 154.8133 69.773337 
L 154.878157 254.90453 
L 155.656445 253.460658 
L 156.337446 252.619883 
L 156.953591 252.189583 
L 157.504878 252.067746 
L 158.023737 252.180167 
L 158.056165 62.660559 
L 158.121023 252.225872 
L 158.67231 252.632884 
L 159.288454 253.388383 
L 159.969456 254.59621 
L 160.747744 256.449144 
L 161.266602 257.9429 
L 161.299031 58.076561 
L 161.363888 258.242921 
L 163.666322 265.09347 
L 164.055466 265.49086 
L 164.314896 265.496989 
L 164.509468 265.3584 
L 164.541896 55.430596 
L 164.606753 265.243472 
L 164.963469 264.576636 
L 165.449899 263.142622 
L 166.293044 259.820201 
L 167.752333 253.828694 
L 167.784762 54.144882 
L 167.849619 253.466225 
L 168.919765 249.927001 
L 169.892624 247.447236 
L 170.768198 245.798609 
L 170.995198 245.457795 
L 171.027627 53.681472 
L 171.092484 245.322398 
L 171.838343 244.493219 
L 172.519345 244.052558 
L 173.13549 243.910067 
L 173.719205 243.99948 
L 174.238064 244.26452 
L 174.270493 53.582615 
L 174.33535 244.333962 
L 174.983923 244.960151 
L 175.697353 245.989309 
L 176.443212 247.473371 
L 177.253929 249.604796 
L 177.480929 250.306277 
L 177.513358 53.575225 
L 177.578215 250.621661 
L 178.453789 253.877813 
L 179.426649 258.403437 
L 180.723795 265.303856 
L 180.756224 53.575948 
L 180.821081 265.77948 
L 181.404797 268.055667 
L 181.761512 268.701874 
L 181.988512 268.732346 
L 182.215513 268.456224 
L 182.507371 267.68515 
L 182.961372 265.764436 
L 183.934232 260.365265 
L 183.96666 260.180414 
L 183.999089 53.567074 
L 184.063946 259.628602 
L 185.296235 253.288759 
L 186.301524 249.233102 
L 187.209526 246.399485 
L 187.241955 53.575713 
L 187.306812 246.138786 
L 188.182386 244.137619 
L 188.993102 242.804164 
L 189.738961 241.98925 
L 190.387534 241.589602 
L 190.452391 241.565255 
L 190.48482 53.579793 
L 190.549677 241.534052 
L 191.133393 241.48117 
L 191.717109 241.661339 
L 192.300825 242.081777 
L 192.949398 242.845541 
L 193.6304 244.010264 
L 193.695257 244.14195 
L 193.727686 53.572354 
L 193.792543 244.34658 
L 194.538402 246.216085 
L 195.31669 248.80845 
L 196.094977 252.20464 
L 196.873265 256.625683 
L 196.938122 257.049231 
L 196.970551 53.567087 
L 197.035408 257.702099 
L 197.846125 264.023477 
L 199.337843 276.395877 
L 199.532415 276.638777 
L 199.662129 276.427692 
L 199.88913 275.385751 
L 200.180988 273.089886 
L 200.213416 53.572017 
L 200.278274 272.171984 
L 202.191564 254.51872 
L 203.099567 248.77756 
L 203.423853 247.068263 
L 203.456282 53.573019 
L 203.521139 246.585618 
L 204.46157 242.54672 
L 205.402001 239.464493 
L 206.310004 237.229842 
L 206.666719 236.5282 
L 206.699147 53.575251 
L 206.764005 236.353111 
L 207.574721 235.154529 
L 208.288152 234.471126 
L 208.936725 234.14456 
L 209.52044 234.092046 
L 209.909584 234.187187 
L 209.942013 53.581158 
L 210.00687 234.227661 
L 210.590586 234.615684 
L 211.20673 235.310606 
L 211.855304 236.392058 
L 212.536305 237.971004 
L 213.15245 239.865714 
L 213.184878 53.577028 
L 213.249736 240.21175 
L 213.963166 243.218131 
L 214.644168 247.059736 
L 215.292741 252.008886 
L 215.876457 258.160559 
L 216.395315 265.930705 
L 216.427744 53.573159 
L 216.492601 267.755229 
L 216.979031 279.514933 
L 217.465461 291.547955 
L 217.497889 291.535829 
L 217.595175 290.429345 
L 217.854605 282.896974 
L 218.503178 265.078551 
L 219.119322 254.309393 
L 219.638181 247.683919 
L 219.670609 53.577867 
L 219.735467 246.604508 
L 220.546183 238.985157 
L 221.486614 232.245051 
L 222.524331 226.421156 
L 222.881046 224.700191 
L 222.913475 53.588683 
L 222.978332 224.251666 
L 224.113335 219.58227 
L 225.313195 215.562169 
L 226.123912 213.266389 
L 226.15634 53.579874 
L 226.221198 213.010776 
L 227.453487 210.101346 
L 228.685775 207.73225 
L 229.366777 206.626651 
L 229.399206 53.566886 
L 229.464063 206.47972 
L 230.663923 204.880646 
L 231.831355 203.679275 
L 232.609643 203.05922 
L 232.642071 53.52626 
L 232.706929 202.991503 
L 233.809503 202.37162 
L 234.879648 202.022697 
L 235.852508 201.916409 
L 235.884937 198.596578 
L 235.949794 201.916741 
L 236.987511 202.044318 
L 238.025228 202.400684 
L 239.062945 202.991503 
L 239.095374 203.013837 
L 239.127802 53.52626 
L 239.19266 203.08227 
L 240.262805 203.979607 
L 241.365379 205.193963 
L 242.338239 206.528398 
L 242.370668 53.566886 
L 242.435525 206.676226 
L 243.602957 208.669289 
L 244.770388 211.105512 
L 245.581105 213.095531 
L 245.613533 53.579874 
L 245.678391 213.352498 
L 246.845822 216.777924 
L 247.980825 220.819254 
L 248.82397 224.400227 
L 248.856399 53.588683 
L 248.921256 224.851613 
L 249.926544 230.087169 
L 250.834547 235.982706 
L 251.645263 242.675397 
L 252.066836 246.959511 
L 252.099264 53.577867 
L 252.164121 248.053581 
L 252.812695 256.76245 
L 253.363982 267.227225 
L 253.88284 281.823215 
L 254.271984 291.535829 
L 254.304413 291.547955 
L 254.401699 290.528244 
L 254.661128 283.446717 
L 255.277272 267.755229 
L 255.309701 267.130962 
L 255.34213 53.573159 
L 255.406987 265.353471 
L 255.990703 256.983717 
L 256.671705 250.356744 
L 257.417564 245.274365 
L 258.195851 241.46997 
L 258.552566 240.094867 
L 258.584995 53.577028 
L 258.649852 239.753407 
L 259.42814 237.469027 
L 260.173999 235.913583 
L 260.88743 234.906777 
L 261.536003 234.348632 
L 261.795432 234.213418 
L 261.827861 53.581158 
L 261.892718 234.175195 
L 262.476434 234.084973 
L 263.06015 234.226969 
L 263.676294 234.62371 
L 264.324867 235.315674 
L 265.038297 236.410711 
L 265.070726 53.575251 
L 265.135583 236.588094 
L 265.913871 238.263507 
L 266.757016 240.637154 
L 267.600161 243.686999 
L 268.281163 246.745016 
L 268.313592 53.573019 
L 268.378449 247.232142 
L 269.221594 252.07842 
L 270.064739 258.294383 
L 270.940313 266.51276 
L 271.524028 272.483766 
L 271.556457 53.572017 
L 271.621314 273.382859 
L 272.042887 276.212768 
L 272.269887 276.644696 
L 272.399602 276.481904 
L 272.594174 275.71737 
L 272.950889 273.121339 
L 274.766894 257.482106 
L 274.799323 53.567087 
L 274.86418 256.836302 
L 275.707325 252.044482 
L 276.55047 248.444118 
L 277.393615 245.762232 
L 278.009759 244.277416 
L 278.042188 53.572354 
L 278.107045 244.075637 
L 278.885333 242.75451 
L 279.598763 241.967048 
L 280.247337 241.575035 
L 280.831052 241.473134 
L 281.252625 241.543744 
L 281.285054 53.579793 
L 281.349911 241.577074 
L 281.933627 241.911145 
L 282.5822 242.554347 
L 283.29563 243.602196 
L 284.073918 245.174162 
L 284.49549 246.224802 
L 284.527919 53.575713 
L 284.592776 246.48816 
L 285.435921 249.118902 
L 286.343924 252.707788 
L 287.349212 257.654932 
L 287.738356 259.812039 
L 287.770784 53.567074 
L 287.835642 260.365265 
L 289.165217 267.337487 
L 289.586789 268.513942 
L 289.846218 268.755179 
L 290.04079 268.672482 
L 290.30022 268.223559 
L 290.656935 267.066582 
L 290.981221 265.623034 
L 291.01365 53.575948 
L 291.078507 265.1414 
L 293.737657 252.214356 
L 294.224087 250.515537 
L 294.256515 53.575225 
L 294.321373 250.203132 
L 295.229375 247.69959 
L 296.07252 245.989309 
L 296.850808 244.884556 
L 297.466952 244.310115 
L 297.499381 53.582615 
L 297.564238 244.24277 
L 298.212811 243.952629 
L 298.796527 243.924034 
L 299.380243 244.113499 
L 299.996387 244.550819 
L 300.677389 245.322398 
L 300.709818 245.366823 
L 300.742246 53.681472 
L 300.807104 245.504344 
L 301.552963 246.773803 
L 302.396108 248.682791 
L 303.30411 251.325432 
L 303.952683 253.586339 
L 303.985112 54.144882 
L 304.049969 253.950921 
L 305.411973 259.545121 
L 306.514547 263.777764 
L 307.065834 265.098939 
L 307.195549 265.28511 
L 307.227977 55.430596 
L 307.292835 265.390004 
L 307.584693 265.521024 
L 307.844122 265.407924 
L 308.168408 264.986233 
L 308.62241 263.970846 
L 309.400697 261.560824 
L 310.438414 258.142285 
L 310.470843 58.076561 
L 310.5357 257.844178 
L 311.50856 255.233195 
L 312.319276 253.6404 
L 313.032707 252.6974 
L 313.648851 252.225872 
L 313.68128 252.20977 
L 313.713708 62.660559 
L 313.778566 252.166664 
L 314.329853 252.069197 
L 314.848711 252.204479 
L 315.399998 252.589461 
L 316.016143 253.316763 
L 316.697145 254.49406 
L 316.924145 254.976215 
L 316.956574 69.773337 
L 317.021431 255.196928 
L 317.799719 257.27724 
L 318.642864 260.204986 
L 319.518438 264.081386 
L 320.167011 267.583455 
L 320.199439 80.040339 
L 320.264297 268.160119 
L 321.204728 274.502798 
L 322.210016 282.896602 
L 323.409876 293.106821 
L 323.442305 94.283491 
L 323.507162 293.6781 
L 323.863877 295.045606 
L 324.090878 295.256441 
L 324.253021 295.102773 
L 324.51245 294.414152 
L 324.966452 292.359325 
L 326.620313 284.274871 
L 326.652742 284.153288 
L 326.68517 113.643467 
L 326.750028 283.798622 
L 327.495887 281.557006 
L 328.176888 280.163663 
L 328.825461 279.309765 
L 329.441606 278.842002 
L 329.895607 278.669253 
L 329.928036 140.308864 
L 329.992893 278.648252 
L 330.673895 278.630494 
L 331.549468 278.847021 
L 333.138473 279.496087 
L 333.170901 179.962416 
L 333.235759 279.535231 
L 334.792334 280.036344 
L 336.381338 280.305494 
L 336.413767 272.924537 
L 336.478624 280.317119 
L 339.624204 280.711212 
L 339.656632 270.754395 
L 339.72149 280.727025 
L 342.867069 281.333986 
L 342.899498 250.763173 
L 342.964355 281.354764 
L 346.109935 282.058866 
L 346.142363 244.391931 
L 346.20722 282.080308 
L 348.833942 282.545237 
L 349.3528 282.59808 
L 349.385229 247.77564 
L 349.450086 282.60631 
L 351.655234 282.673983 
L 352.595665 282.665158 
L 352.628094 261.70091 
L 352.692951 282.664307 
L 355.514244 282.752348 
L 355.838531 282.782132 
L 355.87096 255.611693 
L 355.935817 282.791879 
L 359.016539 283.219484 
L 359.081396 283.229168 
L 359.113825 255.929537 
L 359.178682 283.243609 
L 362.324262 283.610949 
L 362.356691 285.319635 
L 362.421548 283.618895 
L 365.567127 283.822415 
L 365.599556 258.080803 
L 365.664413 283.828173 
L 368.809993 284.028179 
L 368.842422 278.482766 
L 368.907279 284.034986 
L 372.052858 284.304179 
L 372.085287 245.861813 
L 372.150144 284.314466 
L 375.295724 284.650256 
L 375.328152 257.926995 
L 375.39301 284.65787 
L 377.500872 284.708992 
L 378.538589 284.64845 
L 378.571018 257.040816 
L 378.635875 284.640553 
L 381.781455 284.432002 
L 381.813883 262.89373 
L 381.878741 284.433648 
L 383.435316 284.575482 
L 385.02432 284.911594 
L 385.056749 250.659642 
L 385.121606 284.93544 
L 387.553755 285.419129 
L 388.267186 285.463457 
L 388.299614 252.045686 
L 388.364472 285.465071 
L 389.921047 285.36892 
L 391.510051 285.171397 
L 391.54248 249.384852 
L 391.607337 285.161409 
L 393.293627 285.105798 
L 394.752917 285.260432 
L 394.785345 243.120499 
L 394.850203 285.275789 
L 397.963354 285.667138 
L 397.995782 285.667311 
L 397.995782 285.667311 
" clip-path="url(#pf8cc679657)" style="fill: none; stroke: #000000; stroke-width: 2; stroke-linecap: square"/>
   </g>
   <g id="patch_3">
    <path d="M 57.528957 307.344331 
L 57.528957 41.439685 
" style="fill: none; stroke: #000000; stroke-width: 0.8; stroke-linejoin: miter; stroke-linecap: square"/>
   </g>
   <g id="patch_4">
    <path d="M 414.208488 307.344331 
L 414.208488 41.439685 
" style="fill: none; stroke: #000000; stroke-width: 0.8; stroke-linejoin: miter; stroke-linecap: square"/>
   </g>
   <g id="patch_5">
    <path d="M 57.528957 307.344331 
L 414.208488 307.344331 
" style="fill: none; stroke: #000000; stroke-width: 0.8; stroke-linejoin: miter; stroke-linecap: square"/>
   </g>
   <g id="patch_6">
    <path d="M 57.528957 41.439685 
L 414.208488 41.439685 
" style="fill: none; stroke: #000000; stroke-width: 0.8; stroke-linejoin: miter; stroke-linecap: square"/>
   </g>
   <g id="text_12">
    <!-- Filtered (MultiCycle FIR: Taps= 39, MACS= 13) -->
    <g transform="translate(97.537785 35.439685) scale(0.12 -0.12)">
     <defs>
      <path id="DejaVuSans-74" d="M 1172 4494 
L 1172 3500 
L 2356 3500 
L 2356 3053 
L 1172 3053 
L 1172 1153 
Q 1172 725 1289 603 
Q 1406 481 1766 481 
L 2356 481 
L 2356 0 
L 1766 0 
Q 1100 0 847 248 
Q 594 497 594 1153 
L 594 3053 
L 172 3053 
L 172 3500 
L 594 3500 
L 594 4494 
L 1172 4494 
z
" transform="scale(0.015625)"/>
      <path id="DejaVuSans-28" d="M 1984 4856 
Q 1566 4138 1362 3434 
Q 1159 2731 1159 2009 
Q 1159 1288 1364 580 
Q 1569 -128 1984 -844 
L 1484 -844 
Q 1016 -109 783 600 
Q 550 1309 550 2009 
Q 550 2706 781 3412 
Q 1013 4119 1484 4856 
L 1984 4856 
z
" transform="scale(0.015625)"/>
      <path id="DejaVuSans-4d" d="M 628 4666 
L 1569 4666 
L 2759 1491 
L 3956 4666 
L 4897 4666 
L 4897 0 
L 4281 0 
L 4281 4097 
L 3078 897 
L 2444 897 
L 1241 4097 
L 1241 0 
L 628 0 
L 628 4666 
z
" transform="scale(0.015625)"/>
      <path id="DejaVuSans-43" d="M 4122 4306 
L 4122 3641 
Q 3803 3938 3442 4084 
Q 3081 4231 2675 4231 
Q 1875 4231 1450 3742 
Q 1025 3253 1025 2328 
Q 1025 1406 1450 917 
Q 1875 428 2675 428 
Q 3081 428 3442 575 
Q 3803 722 4122 1019 
L 4122 359 
Q 3791 134 3420 21 
Q 3050 -91 2638 -91 
Q 1578 -91 968 557 
Q 359 1206 359 2328 
Q 359 3453 968 4101 
Q 1578 4750 2638 4750 
Q 3056 4750 3426 4639 
Q 3797 4528 4122 4306 
z
" transform="scale(0.015625)"/>
      <path id="DejaVuSans-49" d="M 628 4666 
L 1259 4666 
L 1259 0 
L 628 0 
L 628 4666 
z
" transform="scale(0.015625)"/>
      <path id="DejaVuSans-52" d="M 2841 2188 
Q 3044 2119 3236 1894 
Q 3428 1669 3622 1275 
L 4263 0 
L 3584 0 
L 2988 1197 
Q 2756 1666 2539 1819 
Q 2322 1972 1947 1972 
L 1259 1972 
L 1259 0 
L 628 0 
L 628 4666 
L 2053 4666 
Q 2853 4666 3247 4331 
Q 3641 3997 3641 3322 
Q 3641 2881 3436 2590 
Q 3231 2300 2841 2188 
z
M 1259 4147 
L 1259 2491 
L 2053 2491 
Q 2509 2491 2742 2702 
Q 2975 2913 2975 3322 
Q 2975 3731 2742 3939 
Q 2509 4147 2053 4147 
L 1259 4147 
z
" transform="scale(0.015625)"/>
      <path id="DejaVuSans-3a" d="M 750 794 
L 1409 794 
L 1409 0 
L 750 0 
L 750 794 
z
M 750 3309 
L 1409 3309 
L 1409 2516 
L 750 2516 
L 750 3309 
z
" transform="scale(0.015625)"/>
      <path id="DejaVuSans-54" d="M -19 4666 
L 3928 4666 
L 3928 4134 
L 2272 4134 
L 2272 0 
L 1638 0 
L 1638 4134 
L -19 4134 
L -19 4666 
z
" transform="scale(0.015625)"/>
      <path id="DejaVuSans-70" d="M 1159 525 
L 1159 -1331 
L 581 -1331 
L 581 3500 
L 1159 3500 
L 1159 2969 
Q 1341 3281 1617 3432 
Q 1894 3584 2278 3584 
Q 2916 3584 3314 3078 
Q 3713 2572 3713 1747 
Q 3713 922 3314 415 
Q 2916 -91 2278 -91 
Q 1894 -91 1617 61 
Q 1341 213 1159 525 
z
M 3116 1747 
Q 3116 2381 2855 2742 
Q 2594 3103 2138 3103 
Q 1681 3103 1420 2742 
Q 1159 2381 1159 1747 
Q 1159 1113 1420 752 
Q 1681 391 2138 391 
Q 2594 391 2855 752 
Q 3116 1113 3116 1747 
z
" transform="scale(0.015625)"/>
      <path id="DejaVuSans-73" d="M 2834 3397 
L 2834 2853 
Q 2591 2978 2328 3040 
Q 2066 3103 1784 3103 
Q 1356 3103 1142 2972 
Q 928 2841 928 2578 
Q 928 2378 1081 2264 
Q 1234 2150 1697 2047 
L 1894 2003 
Q 2506 1872 2764 1633 
Q 3022 1394 3022 966 
Q 3022 478 2636 193 
Q 2250 -91 1575 -91 
Q 1294 -91 989 -36 
Q 684 19 347 128 
L 347 722 
Q 666 556 975 473 
Q 1284 391 1588 391 
Q 1994 391 2212 530 
Q 2431 669 2431 922 
Q 2431 1156 2273 1281 
Q 2116 1406 1581 1522 
L 1381 1569 
Q 847 1681 609 1914 
Q 372 2147 372 2553 
Q 372 3047 722 3315 
Q 1072 3584 1716 3584 
Q 2034 3584 2315 3537 
Q 2597 3491 2834 3397 
z
" transform="scale(0.015625)"/>
      <path id="DejaVuSans-3d" d="M 678 2906 
L 4684 2906 
L 4684 2381 
L 678 2381 
L 678 2906 
z
M 678 1631 
L 4684 1631 
L 4684 1100 
L 678 1100 
L 678 1631 
z
" transform="scale(0.015625)"/>
      <path id="DejaVuSans-33" d="M 2597 2516 
Q 3050 2419 3304 2112 
Q 3559 1806 3559 1356 
Q 3559 666 3084 287 
Q 2609 -91 1734 -91 
Q 1441 -91 1130 -33 
Q 819 25 488 141 
L 488 750 
Q 750 597 1062 519 
Q 1375 441 1716 441 
Q 2309 441 2620 675 
Q 2931 909 2931 1356 
Q 2931 1769 2642 2001 
Q 2353 2234 1838 2234 
L 1294 2234 
L 1294 2753 
L 1863 2753 
Q 2328 2753 2575 2939 
Q 2822 3125 2822 3475 
Q 2822 3834 2567 4026 
Q 2313 4219 1838 4219 
Q 1578 4219 1281 4162 
Q 984 4106 628 3988 
L 628 4550 
Q 988 4650 1302 4700 
Q 1616 4750 1894 4750 
Q 2613 4750 3031 4423 
Q 3450 4097 3450 3541 
Q 3450 3153 3228 2886 
Q 3006 2619 2597 2516 
z
" transform="scale(0.015625)"/>
      <path id="DejaVuSans-39" d="M 703 97 
L 703 672 
Q 941 559 1184 500 
Q 1428 441 1663 441 
Q 2288 441 2617 861 
Q 2947 1281 2994 2138 
Q 2813 1869 2534 1725 
Q 2256 1581 1919 1581 
Q 1219 1581 811 2004 
Q 403 2428 403 3163 
Q 403 3881 828 4315 
Q 1253 4750 1959 4750 
Q 2769 4750 3195 4129 
Q 3622 3509 3622 2328 
Q 3622 1225 3098 567 
Q 2575 -91 1691 -91 
Q 1453 -91 1209 -44 
Q 966 3 703 97 
z
M 1959 2075 
Q 2384 2075 2632 2365 
Q 2881 2656 2881 3163 
Q 2881 3666 2632 3958 
Q 2384 4250 1959 4250 
Q 1534 4250 1286 3958 
Q 1038 3666 1038 3163 
Q 1038 2656 1286 2365 
Q 1534 2075 1959 2075 
z
" transform="scale(0.015625)"/>
      <path id="DejaVuSans-2c" d="M 750 794 
L 1409 794 
L 1409 256 
L 897 -744 
L 494 -744 
L 750 256 
L 750 794 
z
" transform="scale(0.015625)"/>
      <path id="DejaVuSans-41" d="M 2188 4044 
L 1331 1722 
L 3047 1722 
L 2188 4044 
z
M 1831 4666 
L 2547 4666 
L 4325 0 
L 3669 0 
L 3244 1197 
L 1141 1197 
L 716 0 
L 50 0 
L 1831 4666 
z
" transform="scale(0.015625)"/>
      <path id="DejaVuSans-53" d="M 3425 4513 
L 3425 3897 
Q 3066 4069 2747 4153 
Q 2428 4238 2131 4238 
Q 1616 4238 1336 4038 
Q 1056 3838 1056 3469 
Q 1056 3159 1242 3001 
Q 1428 2844 1947 2747 
L 2328 2669 
Q 3034 2534 3370 2195 
Q 3706 1856 3706 1288 
Q 3706 609 3251 259 
Q 2797 -91 1919 -91 
Q 1588 -91 1214 -16 
Q 841 59 441 206 
L 441 856 
Q 825 641 1194 531 
Q 1563 422 1919 422 
Q 2459 422 2753 634 
Q 3047 847 3047 1241 
Q 3047 1584 2836 1778 
Q 2625 1972 2144 2069 
L 1759 2144 
Q 1053 2284 737 2584 
Q 422 2884 422 3419 
Q 422 4038 858 4394 
Q 1294 4750 2059 4750 
Q 2388 4750 2728 4690 
Q 3069 4631 3425 4513 
z
" transform="scale(0.015625)"/>
      <path id="DejaVuSans-31" d="M 794 531 
L 1825 531 
L 1825 4091 
L 703 3866 
L 703 4441 
L 1819 4666 
L 2450 4666 
L 2450 531 
L 3481 531 
L 3481 0 
L 794 0 
L 794 531 
z
" transform="scale(0.015625)"/>
      <path id="DejaVuSans-29" d="M 513 4856 
L 1013 4856 
Q 1481 4119 1714 3412 
Q 1947 2706 1947 2009 
Q 1947 1309 1714 600 
Q 1481 -109 1013 -844 
L 513 -844 
Q 928 -128 1133 580 
Q 1338 1288 1338 2009 
Q 1338 2731 1133 3434 
Q 928 4138 513 4856 
z
" transform="scale(0.015625)"/>
     </defs>
     <use xlink:href="#DejaVuSans-46"/>
     <use xlink:href="#DejaVuSans-69" transform="translate(50.269531 0)"/>
     <use xlink:href="#DejaVuSans-6c" transform="translate(78.052734 0)"/>
     <use xlink:href="#DejaVuSans-74" transform="translate(105.835938 0)"/>
     <use xlink:href="#DejaVuSans-65" transform="translate(145.044922 0)"/>
     <use xlink:href="#DejaVuSans-72" transform="translate(206.568359 0)"/>
     <use xlink:href="#DejaVuSans-65" transform="translate(245.431641 0)"/>
     <use xlink:href="#DejaVuSans-64" transform="translate(306.955078 0)"/>
     <use xlink:href="#DejaVuSans-20" transform="translate(370.431641 0)"/>
     <use xlink:href="#DejaVuSans-28" transform="translate(402.21875 0)"/>
     <use xlink:href="#DejaVuSans-4d" transform="translate(441.232422 0)"/>
     <use xlink:href="#DejaVuSans-75" transform="translate(527.511719 0)"/>
     <use xlink:href="#DejaVuSans-6c" transform="translate(590.890625 0)"/>
     <use xlink:href="#DejaVuSans-74" transform="translate(618.673828 0)"/>
     <use xlink:href="#DejaVuSans-69" transform="translate(657.882812 0)"/>
     <use xlink:href="#DejaVuSans-43" transform="translate(685.666016 0)"/>
     <use xlink:href="#DejaVuSans-79" transform="translate(755.490234 0)"/>
     <use xlink:href="#DejaVuSans-63" transform="translate(814.669922 0)"/>
     <use xlink:href="#DejaVuSans-6c" transform="translate(869.650391 0)"/>
     <use xlink:href="#DejaVuSans-65" transform="translate(897.433594 0)"/>
     <use xlink:href="#DejaVuSans-20" transform="translate(958.957031 0)"/>
     <use xlink:href="#DejaVuSans-46" transform="translate(990.744141 0)"/>
     <use xlink:href="#DejaVuSans-49" transform="translate(1048.263672 0)"/>
     <use xlink:href="#DejaVuSans-52" transform="translate(1077.755859 0)"/>
     <use xlink:href="#DejaVuSans-3a" transform="translate(1144.113281 0)"/>
     <use xlink:href="#DejaVuSans-20" transform="translate(1177.804688 0)"/>
     <use xlink:href="#DejaVuSans-54" transform="translate(1209.591797 0)"/>
     <use xlink:href="#DejaVuSans-61" transform="translate(1254.175781 0)"/>
     <use xlink:href="#DejaVuSans-70" transform="translate(1315.455078 0)"/>
     <use xlink:href="#DejaVuSans-73" transform="translate(1378.931641 0)"/>
     <use xlink:href="#DejaVuSans-3d" transform="translate(1431.03125 0)"/>
     <use xlink:href="#DejaVuSans-20" transform="translate(1514.820312 0)"/>
     <use xlink:href="#DejaVuSans-33" transform="translate(1546.607422 0)"/>
     <use xlink:href="#DejaVuSans-39" transform="translate(1610.230469 0)"/>
     <use xlink:href="#DejaVuSans-2c" transform="translate(1673.853516 0)"/>
     <use xlink:href="#DejaVuSans-20" transform="translate(1705.640625 0)"/>
     <use xlink:href="#DejaVuSans-4d" transform="translate(1737.427734 0)"/>
     <use xlink:href="#DejaVuSans-41" transform="translate(1823.707031 0)"/>
     <use xlink:href="#DejaVuSans-43" transform="translate(1890.365234 0)"/>
     <use xlink:href="#DejaVuSans-53" transform="translate(1960.189453 0)"/>
     <use xlink:href="#DejaVuSans-3d" transform="translate(2023.666016 0)"/>
     <use xlink:href="#DejaVuSans-20" transform="translate(2107.455078 0)"/>
     <use xlink:href="#DejaVuSans-31" transform="translate(2139.242188 0)"/>
     <use xlink:href="#DejaVuSans-33" transform="translate(2202.865234 0)"/>
     <use xlink:href="#DejaVuSans-29" transform="translate(2266.488281 0)"/>
    </g>
   </g>
  </g>
 </g>
 <defs>
  <clipPath id="pf8cc679657">
   <rect x="57.528957" y="41.439685" width="356.679531" height="265.904646"/>
  </clipPath>
 </defs>
</svg>
