<?xml version="1.0" encoding="utf-8" standalone="no"?>
<!DOCTYPE svg PUBLIC "-//W3C//DTD SVG 1.1//EN"
  "http://www.w3.org/Graphics/SVG/1.1/DTD/svg11.dtd">
<svg xmlns:xlink="http://www.w3.org/1999/xlink" width="460.231654pt" height="345.330709pt" viewBox="0 0 460.231654 345.330709" xmlns="http://www.w3.org/2000/svg" version="1.1">
 <metadata>
  <rdf:RDF xmlns:dc="http://purl.org/dc/elements/1.1/" xmlns:cc="http://creativecommons.org/ns#" xmlns:rdf="http://www.w3.org/1999/02/22-rdf-syntax-ns#">
   <cc:Work>
    <dc:type rdf:resource="http://purl.org/dc/dcmitype/StillImage"/>
    <dc:date>2026-03-23T10:58:25.956445</dc:date>
    <dc:format>image/svg+xml</dc:format>
    <dc:creator>
     <cc:Agent>
      <dc:title>Matplotlib v3.10.8, https://matplotlib.org/</dc:title>
     </cc:Agent>
    </dc:creator>
   </cc:Work>
  </rdf:RDF>
 </metadata>
 <defs>
  <style type="text/css">*{stroke-linejoin: round; stroke-linecap: butt}</style>
 </defs>
 <g id="figure_1">
  <g id="patch_1">
   <path d="M 0 345.330709 
L 460.231654 345.330709 
L 460.231654 0 
L 0 0 
z
" style="fill: #ffffff"/>
  </g>
  <g id="axes_1">
   <g id="patch_2">
    <path d="M 57.528957 307.344331 
L 414.208488 307.344331 
L 414.208488 41.439685 
L 57.528957 41.439685 
z
" style="fill: #ffffff"/>
   </g>
   <g id="matplotlib.axis_1">
    <g id="xtick_1">
     <g id="line2d_1">
      <path d="M 106.182915 307.344331 
L 106.182915 41.439685 
" clip-path="url(#pec3f62b858)" style="fill: none; stroke: #b0b0b0; stroke-width: 0.8; stroke-linecap: square"/>
     </g>
     <g id="line2d_2">
      <defs>
       <path id="m6cfee0c79e" d="M 0 0 
L 0 3.5 
" style="stroke: #000000; stroke-width: 0.8"/>
      </defs>
      <g>
       <use xlink:href="#m6cfee0c79e" x="106.182915" y="307.344331" style="stroke: #000000; stroke-width: 0.8"/>
      </g>
     </g>
     <g id="text_1">
      <!-- −0.4 -->
      <g transform="translate(94.041509 321.942768) scale(0.1 -0.1)">
       <defs>
        <path id="DejaVuSans-2212" d="M 678 2272 
L 4684 2272 
L 4684 1741 
L 678 1741 
L 678 2272 
z
" transform="scale(0.015625)"/>
        <path id="DejaVuSans-30" d="M 2034 4250 
Q 1547 4250 1301 3770 
Q 1056 3291 1056 2328 
Q 1056 1369 1301 889 
Q 1547 409 2034 409 
Q 2525 409 2770 889 
Q 3016 1369 3016 2328 
Q 3016 3291 2770 3770 
Q 2525 4250 2034 4250 
z
M 2034 4750 
Q 2819 4750 3233 4129 
Q 3647 3509 3647 2328 
Q 3647 1150 3233 529 
Q 2819 -91 2034 -91 
Q 1250 -91 836 529 
Q 422 1150 422 2328 
Q 422 3509 836 4129 
Q 1250 4750 2034 4750 
z
" transform="scale(0.015625)"/>
        <path id="DejaVuSans-2e" d="M 684 794 
L 1344 794 
L 1344 0 
L 684 0 
L 684 794 
z
" transform="scale(0.015625)"/>
        <path id="DejaVuSans-34" d="M 2419 4116 
L 825 1625 
L 2419 1625 
L 2419 4116 
z
M 2253 4666 
L 3047 4666 
L 3047 1625 
L 3713 1625 
L 3713 1100 
L 3047 1100 
L 3047 0 
L 2419 0 
L 2419 1100 
L 313 1100 
L 313 1709 
L 2253 4666 
z
" transform="scale(0.015625)"/>
       </defs>
       <use xlink:href="#DejaVuSans-2212"/>
       <use xlink:href="#DejaVuSans-30" transform="translate(83.789062 0)"/>
       <use xlink:href="#DejaVuSans-2e" transform="translate(147.412109 0)"/>
       <use xlink:href="#DejaVuSans-34" transform="translate(179.199219 0)"/>
      </g>
     </g>
    </g>
    <g id="xtick_2">
     <g id="line2d_3">
      <path d="M 171.06542 307.344331 
L 171.06542 41.439685 
" clip-path="url(#pec3f62b858)" style="fill: none; stroke: #b0b0b0; stroke-width: 0.8; stroke-linecap: square"/>
     </g>
     <g id="line2d_4">
      <g>
       <use xlink:href="#m6cfee0c79e" x="171.06542" y="307.344331" style="stroke: #000000; stroke-width: 0.8"/>
      </g>
     </g>
     <g id="text_2">
      <!-- −0.2 -->
      <g transform="translate(158.924014 321.942768) scale(0.1 -0.1)">
       <defs>
        <path id="DejaVuSans-32" d="M 1228 531 
L 3431 531 
L 3431 0 
L 469 0 
L 469 531 
Q 828 903 1448 1529 
Q 2069 2156 2228 2338 
Q 2531 2678 2651 2914 
Q 2772 3150 2772 3378 
Q 2772 3750 2511 3984 
Q 2250 4219 1831 4219 
Q 1534 4219 1204 4116 
Q 875 4013 500 3803 
L 500 4441 
Q 881 4594 1212 4672 
Q 1544 4750 1819 4750 
Q 2544 4750 2975 4387 
Q 3406 4025 3406 3419 
Q 3406 3131 3298 2873 
Q 3191 2616 2906 2266 
Q 2828 2175 2409 1742 
Q 1991 1309 1228 531 
z
" transform="scale(0.015625)"/>
       </defs>
       <use xlink:href="#DejaVuSans-2212"/>
       <use xlink:href="#DejaVuSans-30" transform="translate(83.789062 0)"/>
       <use xlink:href="#DejaVuSans-2e" transform="translate(147.412109 0)"/>
       <use xlink:href="#DejaVuSans-32" transform="translate(179.199219 0)"/>
      </g>
     </g>
    </g>
    <g id="xtick_3">
     <g id="line2d_5">
      <path d="M 235.947925 307.344331 
L 235.947925 41.439685 
" clip-path="url(#pec3f62b858)" style="fill: none; stroke: #b0b0b0; stroke-width: 0.8; stroke-linecap: square"/>
     </g>
     <g id="line2d_6">
      <g>
       <use xlink:href="#m6cfee0c79e" x="235.947925" y="307.344331" style="stroke: #000000; stroke-width: 0.8"/>
      </g>
     </g>
     <g id="text_3">
      <!-- 0.0 -->
      <g transform="translate(227.996362 321.942768) scale(0.1 -0.1)">
       <use xlink:href="#DejaVuSans-30"/>
       <use xlink:href="#DejaVuSans-2e" transform="translate(63.623047 0)"/>
       <use xlink:href="#DejaVuSans-30" transform="translate(95.410156 0)"/>
      </g>
     </g>
    </g>
    <g id="xtick_4">
     <g id="line2d_7">
      <path d="M 300.83043 307.344331 
L 300.83043 41.439685 
" clip-path="url(#pec3f62b858)" style="fill: none; stroke: #b0b0b0; stroke-width: 0.8; stroke-linecap: square"/>
     </g>
     <g id="line2d_8">
      <g>
       <use xlink:href="#m6cfee0c79e" x="300.83043" y="307.344331" style="stroke: #000000; stroke-width: 0.8"/>
      </g>
     </g>
     <g id="text_4">
      <!-- 0.2 -->
      <g transform="translate(292.878867 321.942768) scale(0.1 -0.1)">
       <use xlink:href="#DejaVuSans-30"/>
       <use xlink:href="#DejaVuSans-2e" transform="translate(63.623047 0)"/>
       <use xlink:href="#DejaVuSans-32" transform="translate(95.410156 0)"/>
      </g>
     </g>
    </g>
    <g id="xtick_5">
     <g id="line2d_9">
      <path d="M 365.712934 307.344331 
L 365.712934 41.439685 
" clip-path="url(#pec3f62b858)" style="fill: none; stroke: #b0b0b0; stroke-width: 0.8; stroke-linecap: square"/>
     </g>
     <g id="line2d_10">
      <g>
       <use xlink:href="#m6cfee0c79e" x="365.712934" y="307.344331" style="stroke: #000000; stroke-width: 0.8"/>
      </g>
     </g>
     <g id="text_5">
      <!-- 0.4 -->
      <g transform="translate(357.761372 321.942768) scale(0.1 -0.1)">
       <use xlink:href="#DejaVuSans-30"/>
       <use xlink:href="#DejaVuSans-2e" transform="translate(63.623047 0)"/>
       <use xlink:href="#DejaVuSans-34" transform="translate(95.410156 0)"/>
      </g>
     </g>
    </g>
    <g id="text_6">
     <!-- Normalized Frequency -->
     <g transform="translate(180.094504 335.620893) scale(0.1 -0.1)">
      <defs>
       <path id="DejaVuSans-4e" d="M 628 4666 
L 1478 4666 
L 3547 763 
L 3547 4666 
L 4159 4666 
L 4159 0 
L 3309 0 
L 1241 3903 
L 1241 0 
L 628 0 
L 628 4666 
z
" transform="scale(0.015625)"/>
       <path id="DejaVuSans-6f" d="M 1959 3097 
Q 1497 3097 1228 2736 
Q 959 2375 959 1747 
Q 959 1119 1226 758 
Q 1494 397 1959 397 
Q 2419 397 2687 759 
Q 2956 1122 2956 1747 
Q 2956 2369 2687 2733 
Q 2419 3097 1959 3097 
z
M 1959 3584 
Q 2709 3584 3137 3096 
Q 3566 2609 3566 1747 
Q 3566 888 3137 398 
Q 2709 -91 1959 -91 
Q 1206 -91 779 398 
Q 353 888 353 1747 
Q 353 2609 779 3096 
Q 1206 3584 1959 3584 
z
" transform="scale(0.015625)"/>
       <path id="DejaVuSans-72" d="M 2631 2963 
Q 2534 3019 2420 3045 
Q 2306 3072 2169 3072 
Q 1681 3072 1420 2755 
Q 1159 2438 1159 1844 
L 1159 0 
L 581 0 
L 581 3500 
L 1159 3500 
L 1159 2956 
Q 1341 3275 1631 3429 
Q 1922 3584 2338 3584 
Q 2397 3584 2469 3576 
Q 2541 3569 2628 3553 
L 2631 2963 
z
" transform="scale(0.015625)"/>
       <path id="DejaVuSans-6d" d="M 3328 2828 
Q 3544 3216 3844 3400 
Q 4144 3584 4550 3584 
Q 5097 3584 5394 3201 
Q 5691 2819 5691 2113 
L 5691 0 
L 5113 0 
L 5113 2094 
Q 5113 2597 4934 2840 
Q 4756 3084 4391 3084 
Q 3944 3084 3684 2787 
Q 3425 2491 3425 1978 
L 3425 0 
L 2847 0 
L 2847 2094 
Q 2847 2600 2669 2842 
Q 2491 3084 2119 3084 
Q 1678 3084 1418 2786 
Q 1159 2488 1159 1978 
L 1159 0 
L 581 0 
L 581 3500 
L 1159 3500 
L 1159 2956 
Q 1356 3278 1631 3431 
Q 1906 3584 2284 3584 
Q 2666 3584 2933 3390 
Q 3200 3197 3328 2828 
z
" transform="scale(0.015625)"/>
       <path id="DejaVuSans-61" d="M 2194 1759 
Q 1497 1759 1228 1600 
Q 959 1441 959 1056 
Q 959 750 1161 570 
Q 1363 391 1709 391 
Q 2188 391 2477 730 
Q 2766 1069 2766 1631 
L 2766 1759 
L 2194 1759 
z
M 3341 1997 
L 3341 0 
L 2766 0 
L 2766 531 
Q 2569 213 2275 61 
Q 1981 -91 1556 -91 
Q 1019 -91 701 211 
Q 384 513 384 1019 
Q 384 1609 779 1909 
Q 1175 2209 1959 2209 
L 2766 2209 
L 2766 2266 
Q 2766 2663 2505 2880 
Q 2244 3097 1772 3097 
Q 1472 3097 1187 3025 
Q 903 2953 641 2809 
L 641 3341 
Q 956 3463 1253 3523 
Q 1550 3584 1831 3584 
Q 2591 3584 2966 3190 
Q 3341 2797 3341 1997 
z
" transform="scale(0.015625)"/>
       <path id="DejaVuSans-6c" d="M 603 4863 
L 1178 4863 
L 1178 0 
L 603 0 
L 603 4863 
z
" transform="scale(0.015625)"/>
       <path id="DejaVuSans-69" d="M 603 3500 
L 1178 3500 
L 1178 0 
L 603 0 
L 603 3500 
z
M 603 4863 
L 1178 4863 
L 1178 4134 
L 603 4134 
L 603 4863 
z
" transform="scale(0.015625)"/>
       <path id="DejaVuSans-7a" d="M 353 3500 
L 3084 3500 
L 3084 2975 
L 922 459 
L 3084 459 
L 3084 0 
L 275 0 
L 275 525 
L 2438 3041 
L 353 3041 
L 353 3500 
z
" transform="scale(0.015625)"/>
       <path id="DejaVuSans-65" d="M 3597 1894 
L 3597 1613 
L 953 1613 
Q 991 1019 1311 708 
Q 1631 397 2203 397 
Q 2534 397 2845 478 
Q 3156 559 3463 722 
L 3463 178 
Q 3153 47 2828 -22 
Q 2503 -91 2169 -91 
Q 1331 -91 842 396 
Q 353 884 353 1716 
Q 353 2575 817 3079 
Q 1281 3584 2069 3584 
Q 2775 3584 3186 3129 
Q 3597 2675 3597 1894 
z
M 3022 2063 
Q 3016 2534 2758 2815 
Q 2500 3097 2075 3097 
Q 1594 3097 1305 2825 
Q 1016 2553 972 2059 
L 3022 2063 
z
" transform="scale(0.015625)"/>
       <path id="DejaVuSans-64" d="M 2906 2969 
L 2906 4863 
L 3481 4863 
L 3481 0 
L 2906 0 
L 2906 525 
Q 2725 213 2448 61 
Q 2172 -91 1784 -91 
Q 1150 -91 751 415 
Q 353 922 353 1747 
Q 353 2572 751 3078 
Q 1150 3584 1784 3584 
Q 2172 3584 2448 3432 
Q 2725 3281 2906 2969 
z
M 947 1747 
Q 947 1113 1208 752 
Q 1469 391 1925 391 
Q 2381 391 2643 752 
Q 2906 1113 2906 1747 
Q 2906 2381 2643 2742 
Q 2381 3103 1925 3103 
Q 1469 3103 1208 2742 
Q 947 2381 947 1747 
z
" transform="scale(0.015625)"/>
       <path id="DejaVuSans-20" transform="scale(0.015625)"/>
       <path id="DejaVuSans-46" d="M 628 4666 
L 3309 4666 
L 3309 4134 
L 1259 4134 
L 1259 2759 
L 3109 2759 
L 3109 2228 
L 1259 2228 
L 1259 0 
L 628 0 
L 628 4666 
z
" transform="scale(0.015625)"/>
       <path id="DejaVuSans-71" d="M 947 1747 
Q 947 1113 1208 752 
Q 1469 391 1925 391 
Q 2381 391 2643 752 
Q 2906 1113 2906 1747 
Q 2906 2381 2643 2742 
Q 2381 3103 1925 3103 
Q 1469 3103 1208 2742 
Q 947 2381 947 1747 
z
M 2906 525 
Q 2725 213 2448 61 
Q 2172 -91 1784 -91 
Q 1150 -91 751 415 
Q 353 922 353 1747 
Q 353 2572 751 3078 
Q 1150 3584 1784 3584 
Q 2172 3584 2448 3432 
Q 2725 3281 2906 2969 
L 2906 3500 
L 3481 3500 
L 3481 -1331 
L 2906 -1331 
L 2906 525 
z
" transform="scale(0.015625)"/>
       <path id="DejaVuSans-75" d="M 544 1381 
L 544 3500 
L 1119 3500 
L 1119 1403 
Q 1119 906 1312 657 
Q 1506 409 1894 409 
Q 2359 409 2629 706 
Q 2900 1003 2900 1516 
L 2900 3500 
L 3475 3500 
L 3475 0 
L 2900 0 
L 2900 538 
Q 2691 219 2414 64 
Q 2138 -91 1772 -91 
Q 1169 -91 856 284 
Q 544 659 544 1381 
z
M 1991 3584 
L 1991 3584 
z
" transform="scale(0.015625)"/>
       <path id="DejaVuSans-6e" d="M 3513 2113 
L 3513 0 
L 2938 0 
L 2938 2094 
Q 2938 2591 2744 2837 
Q 2550 3084 2163 3084 
Q 1697 3084 1428 2787 
Q 1159 2491 1159 1978 
L 1159 0 
L 581 0 
L 581 3500 
L 1159 3500 
L 1159 2956 
Q 1366 3272 1645 3428 
Q 1925 3584 2291 3584 
Q 2894 3584 3203 3211 
Q 3513 2838 3513 2113 
z
" transform="scale(0.015625)"/>
       <path id="DejaVuSans-63" d="M 3122 3366 
L 3122 2828 
Q 2878 2963 2633 3030 
Q 2388 3097 2138 3097 
Q 1578 3097 1268 2742 
Q 959 2388 959 1747 
Q 959 1106 1268 751 
Q 1578 397 2138 397 
Q 2388 397 2633 464 
Q 2878 531 3122 666 
L 3122 134 
Q 2881 22 2623 -34 
Q 2366 -91 2075 -91 
Q 1284 -91 818 406 
Q 353 903 353 1747 
Q 353 2603 823 3093 
Q 1294 3584 2113 3584 
Q 2378 3584 2631 3529 
Q 2884 3475 3122 3366 
z
" transform="scale(0.015625)"/>
       <path id="DejaVuSans-79" d="M 2059 -325 
Q 1816 -950 1584 -1140 
Q 1353 -1331 966 -1331 
L 506 -1331 
L 506 -850 
L 844 -850 
Q 1081 -850 1212 -737 
Q 1344 -625 1503 -206 
L 1606 56 
L 191 3500 
L 800 3500 
L 1894 763 
L 2988 3500 
L 3597 3500 
L 2059 -325 
z
" transform="scale(0.015625)"/>
      </defs>
      <use xlink:href="#DejaVuSans-4e"/>
      <use xlink:href="#DejaVuSans-6f" transform="translate(74.804688 0)"/>
      <use xlink:href="#DejaVuSans-72" transform="translate(135.986328 0)"/>
      <use xlink:href="#DejaVuSans-6d" transform="translate(175.349609 0)"/>
      <use xlink:href="#DejaVuSans-61" transform="translate(272.761719 0)"/>
      <use xlink:href="#DejaVuSans-6c" transform="translate(334.041016 0)"/>
      <use xlink:href="#DejaVuSans-69" transform="translate(361.824219 0)"/>
      <use xlink:href="#DejaVuSans-7a" transform="translate(389.607422 0)"/>
      <use xlink:href="#DejaVuSans-65" transform="translate(442.097656 0)"/>
      <use xlink:href="#DejaVuSans-64" transform="translate(503.621094 0)"/>
      <use xlink:href="#DejaVuSans-20" transform="translate(567.097656 0)"/>
      <use xlink:href="#DejaVuSans-46" transform="translate(598.884766 0)"/>
      <use xlink:href="#DejaVuSans-72" transform="translate(649.154297 0)"/>
      <use xlink:href="#DejaVuSans-65" transform="translate(688.017578 0)"/>
      <use xlink:href="#DejaVuSans-71" transform="translate(749.541016 0)"/>
      <use xlink:href="#DejaVuSans-75" transform="translate(813.017578 0)"/>
      <use xlink:href="#DejaVuSans-65" transform="translate(876.396484 0)"/>
      <use xlink:href="#DejaVuSans-6e" transform="translate(937.919922 0)"/>
      <use xlink:href="#DejaVuSans-63" transform="translate(1001.298828 0)"/>
      <use xlink:href="#DejaVuSans-79" transform="translate(1056.279297 0)"/>
     </g>
    </g>
   </g>
   <g id="matplotlib.axis_2">
    <g id="ytick_1">
     <g id="line2d_11">
      <path d="M 57.528957 281.285612 
L 414.208488 281.285612 
" clip-path="url(#pec3f62b858)" style="fill: none; stroke: #b0b0b0; stroke-width: 0.8; stroke-linecap: square"/>
     </g>
     <g id="line2d_12">
      <defs>
       <path id="md9e31e2dc9" d="M 0 0 
L -3.5 0 
" style="stroke: #000000; stroke-width: 0.8"/>
      </defs>
      <g>
       <use xlink:href="#md9e31e2dc9" x="57.528957" y="281.285612" style="stroke: #000000; stroke-width: 0.8"/>
      </g>
     </g>
     <g id="text_7">
      <!-- −140 -->
      <g transform="translate(23.061769 285.084831) scale(0.1 -0.1)">
       <defs>
        <path id="DejaVuSans-31" d="M 794 531 
L 1825 531 
L 1825 4091 
L 703 3866 
L 703 4441 
L 1819 4666 
L 2450 4666 
L 2450 531 
L 3481 531 
L 3481 0 
L 794 0 
L 794 531 
z
" transform="scale(0.015625)"/>
       </defs>
       <use xlink:href="#DejaVuSans-2212"/>
       <use xlink:href="#DejaVuSans-31" transform="translate(83.789062 0)"/>
       <use xlink:href="#DejaVuSans-34" transform="translate(147.412109 0)"/>
       <use xlink:href="#DejaVuSans-30" transform="translate(211.035156 0)"/>
      </g>
     </g>
    </g>
    <g id="ytick_2">
     <g id="line2d_13">
      <path d="M 57.528957 248.748562 
L 414.208488 248.748562 
" clip-path="url(#pec3f62b858)" style="fill: none; stroke: #b0b0b0; stroke-width: 0.8; stroke-linecap: square"/>
     </g>
     <g id="line2d_14">
      <g>
       <use xlink:href="#md9e31e2dc9" x="57.528957" y="248.748562" style="stroke: #000000; stroke-width: 0.8"/>
      </g>
     </g>
     <g id="text_8">
      <!-- −120 -->
      <g transform="translate(23.061769 252.54778) scale(0.1 -0.1)">
       <use xlink:href="#DejaVuSans-2212"/>
       <use xlink:href="#DejaVuSans-31" transform="translate(83.789062 0)"/>
       <use xlink:href="#DejaVuSans-32" transform="translate(147.412109 0)"/>
       <use xlink:href="#DejaVuSans-30" transform="translate(211.035156 0)"/>
      </g>
     </g>
    </g>
    <g id="ytick_3">
     <g id="line2d_15">
      <path d="M 57.528957 216.211511 
L 414.208488 216.211511 
" clip-path="url(#pec3f62b858)" style="fill: none; stroke: #b0b0b0; stroke-width: 0.8; stroke-linecap: square"/>
     </g>
     <g id="line2d_16">
      <g>
       <use xlink:href="#md9e31e2dc9" x="57.528957" y="216.211511" style="stroke: #000000; stroke-width: 0.8"/>
      </g>
     </g>
     <g id="text_9">
      <!-- −100 -->
      <g transform="translate(23.061769 220.01073) scale(0.1 -0.1)">
       <use xlink:href="#DejaVuSans-2212"/>
       <use xlink:href="#DejaVuSans-31" transform="translate(83.789062 0)"/>
       <use xlink:href="#DejaVuSans-30" transform="translate(147.412109 0)"/>
       <use xlink:href="#DejaVuSans-30" transform="translate(211.035156 0)"/>
      </g>
     </g>
    </g>
    <g id="ytick_4">
     <g id="line2d_17">
      <path d="M 57.528957 183.674461 
L 414.208488 183.674461 
" clip-path="url(#pec3f62b858)" style="fill: none; stroke: #b0b0b0; stroke-width: 0.8; stroke-linecap: square"/>
     </g>
     <g id="line2d_18">
      <g>
       <use xlink:href="#md9e31e2dc9" x="57.528957" y="183.674461" style="stroke: #000000; stroke-width: 0.8"/>
      </g>
     </g>
     <g id="text_10">
      <!-- −80 -->
      <g transform="translate(29.424269 187.47368) scale(0.1 -0.1)">
       <defs>
        <path id="DejaVuSans-38" d="M 2034 2216 
Q 1584 2216 1326 1975 
Q 1069 1734 1069 1313 
Q 1069 891 1326 650 
Q 1584 409 2034 409 
Q 2484 409 2743 651 
Q 3003 894 3003 1313 
Q 3003 1734 2745 1975 
Q 2488 2216 2034 2216 
z
M 1403 2484 
Q 997 2584 770 2862 
Q 544 3141 544 3541 
Q 544 4100 942 4425 
Q 1341 4750 2034 4750 
Q 2731 4750 3128 4425 
Q 3525 4100 3525 3541 
Q 3525 3141 3298 2862 
Q 3072 2584 2669 2484 
Q 3125 2378 3379 2068 
Q 3634 1759 3634 1313 
Q 3634 634 3220 271 
Q 2806 -91 2034 -91 
Q 1263 -91 848 271 
Q 434 634 434 1313 
Q 434 1759 690 2068 
Q 947 2378 1403 2484 
z
M 1172 3481 
Q 1172 3119 1398 2916 
Q 1625 2713 2034 2713 
Q 2441 2713 2670 2916 
Q 2900 3119 2900 3481 
Q 2900 3844 2670 4047 
Q 2441 4250 2034 4250 
Q 1625 4250 1398 4047 
Q 1172 3844 1172 3481 
z
" transform="scale(0.015625)"/>
       </defs>
       <use xlink:href="#DejaVuSans-2212"/>
       <use xlink:href="#DejaVuSans-38" transform="translate(83.789062 0)"/>
       <use xlink:href="#DejaVuSans-30" transform="translate(147.412109 0)"/>
      </g>
     </g>
    </g>
    <g id="ytick_5">
     <g id="line2d_19">
      <path d="M 57.528957 151.137411 
L 414.208488 151.137411 
" clip-path="url(#pec3f62b858)" style="fill: none; stroke: #b0b0b0; stroke-width: 0.8; stroke-linecap: square"/>
     </g>
     <g id="line2d_20">
      <g>
       <use xlink:href="#md9e31e2dc9" x="57.528957" y="151.137411" style="stroke: #000000; stroke-width: 0.8"/>
      </g>
     </g>
     <g id="text_11">
      <!-- −60 -->
      <g transform="translate(29.424269 154.93663) scale(0.1 -0.1)">
       <defs>
        <path id="DejaVuSans-36" d="M 2113 2584 
Q 1688 2584 1439 2293 
Q 1191 2003 1191 1497 
Q 1191 994 1439 701 
Q 1688 409 2113 409 
Q 2538 409 2786 701 
Q 3034 994 3034 1497 
Q 3034 2003 2786 2293 
Q 2538 2584 2113 2584 
z
M 3366 4563 
L 3366 3988 
Q 3128 4100 2886 4159 
Q 2644 4219 2406 4219 
Q 1781 4219 1451 3797 
Q 1122 3375 1075 2522 
Q 1259 2794 1537 2939 
Q 1816 3084 2150 3084 
Q 2853 3084 3261 2657 
Q 3669 2231 3669 1497 
Q 3669 778 3244 343 
Q 2819 -91 2113 -91 
Q 1303 -91 875 529 
Q 447 1150 447 2328 
Q 447 3434 972 4092 
Q 1497 4750 2381 4750 
Q 2619 4750 2861 4703 
Q 3103 4656 3366 4563 
z
" transform="scale(0.015625)"/>
       </defs>
       <use xlink:href="#DejaVuSans-2212"/>
       <use xlink:href="#DejaVuSans-36" transform="translate(83.789062 0)"/>
       <use xlink:href="#DejaVuSans-30" transform="translate(147.412109 0)"/>
      </g>
     </g>
    </g>
    <g id="ytick_6">
     <g id="line2d_21">
      <path d="M 57.528957 118.60036 
L 414.208488 118.60036 
" clip-path="url(#pec3f62b858)" style="fill: none; stroke: #b0b0b0; stroke-width: 0.8; stroke-linecap: square"/>
     </g>
     <g id="line2d_22">
      <g>
       <use xlink:href="#md9e31e2dc9" x="57.528957" y="118.60036" style="stroke: #000000; stroke-width: 0.8"/>
      </g>
     </g>
     <g id="text_12">
      <!-- −40 -->
      <g transform="translate(29.424269 122.399579) scale(0.1 -0.1)">
       <use xlink:href="#DejaVuSans-2212"/>
       <use xlink:href="#DejaVuSans-34" transform="translate(83.789062 0)"/>
       <use xlink:href="#DejaVuSans-30" transform="translate(147.412109 0)"/>
      </g>
     </g>
    </g>
    <g id="ytick_7">
     <g id="line2d_23">
      <path d="M 57.528957 86.06331 
L 414.208488 86.06331 
" clip-path="url(#pec3f62b858)" style="fill: none; stroke: #b0b0b0; stroke-width: 0.8; stroke-linecap: square"/>
     </g>
     <g id="line2d_24">
      <g>
       <use xlink:href="#md9e31e2dc9" x="57.528957" y="86.06331" style="stroke: #000000; stroke-width: 0.8"/>
      </g>
     </g>
     <g id="text_13">
      <!-- −20 -->
      <g transform="translate(29.424269 89.862529) scale(0.1 -0.1)">
       <use xlink:href="#DejaVuSans-2212"/>
       <use xlink:href="#DejaVuSans-32" transform="translate(83.789062 0)"/>
       <use xlink:href="#DejaVuSans-30" transform="translate(147.412109 0)"/>
      </g>
     </g>
    </g>
    <g id="ytick_8">
     <g id="line2d_25">
      <path d="M 57.528957 53.52626 
L 414.208488 53.52626 
" clip-path="url(#pec3f62b858)" style="fill: none; stroke: #b0b0b0; stroke-width: 0.8; stroke-linecap: square"/>
     </g>
     <g id="line2d_26">
      <g>
       <use xlink:href="#md9e31e2dc9" x="57.528957" y="53.52626" style="stroke: #000000; stroke-width: 0.8"/>
      </g>
     </g>
     <g id="text_14">
      <!-- 0 -->
      <g transform="translate(44.166457 57.325479) scale(0.1 -0.1)">
       <use xlink:href="#DejaVuSans-30"/>
      </g>
     </g>
    </g>
   </g>
   <g id="line2d_27">
    <path d="M 73.741663 177.704625 
L 74.058472 177.792787 
L 74.375281 178.059301 
L 74.850495 178.808535 
L 75.325708 180.01746 
L 75.800922 181.765971 
L 76.276136 184.196743 
L 76.751349 187.578312 
L 77.226563 192.487421 
L 77.701776 200.546362 
L 78.018586 210.896267 
L 78.17699 221.823103 
L 78.335395 247.802156 
L 78.493799 218.048648 
L 78.810608 203.925467 
L 79.285822 194.892349 
L 79.761036 189.877898 
L 80.394654 185.822922 
L 80.869868 183.934817 
L 81.345081 182.741257 
L 81.820295 182.116853 
L 82.137104 181.984061 
L 82.453913 182.067475 
L 82.770722 182.365673 
L 83.245936 183.228614 
L 83.721149 184.636225 
L 84.196363 186.68891 
L 84.671577 189.578606 
L 85.14679 193.695245 
L 85.622004 199.985809 
L 85.938813 206.77075 
L 86.255622 220.209327 
L 86.414027 241.806048 
L 86.889241 210.074527 
L 87.364454 200.191121 
L 87.839668 195.056767 
L 88.314882 191.922275 
L 88.790095 189.987407 
L 89.265309 188.925306 
L 89.582118 188.626665 
L 89.898927 188.633123 
L 90.215736 188.942722 
L 90.532545 189.568163 
L 91.007759 191.169919 
L 91.482973 193.769273 
L 91.958186 197.856275 
L 92.4334 204.778115 
L 92.750209 213.375833 
L 92.908614 221.372845 
L 93.067018 242.279626 
L 93.542232 210.746222 
L 94.017445 200.29264 
L 94.492659 194.599283 
L 95.126277 189.928182 
L 95.759896 187.095161 
L 96.235109 185.794439 
L 96.710323 185.067509 
L 97.027132 184.873282 
L 97.343941 184.903296 
L 97.66075 185.158308 
L 98.135964 185.981373 
L 98.611177 187.390212 
L 99.086391 189.506574 
L 99.561605 192.566036 
L 100.036818 197.067551 
L 100.512032 204.337353 
L 100.828841 213.035575 
L 100.987246 220.86803 
L 101.14565 239.697525 
L 101.937673 204.312751 
L 102.412887 197.989899 
L 102.8881 194.283861 
L 103.363314 192.028716 
L 103.838528 190.798547 
L 104.155337 190.458857 
L 104.472146 190.483234 
L 104.788955 190.879643 
L 105.105764 191.680253 
L 105.580978 193.794267 
L 106.056191 197.467151 
L 106.373001 201.381692 
L 106.68981 207.693052 
L 107.006619 221.308165 
L 107.165023 248.785644 
L 107.481832 214.260279 
L 107.798642 203.553243 
L 108.273855 195.102336 
L 108.907473 188.495672 
L 109.541092 184.281621 
L 110.17471 181.460525 
L 110.808328 179.629983 
L 111.283542 178.788221 
L 111.758755 178.353358 
L 112.075564 178.278664 
L 112.392374 178.373339 
L 112.867587 178.835704 
L 113.342801 179.697541 
L 113.818015 180.991852 
L 114.451633 183.492108 
L 115.085251 187.106522 
L 115.718869 192.33128 
L 116.194083 197.988395 
L 116.669296 206.671443 
L 116.986106 216.786316 
L 117.14451 226.044095 
L 117.302915 254.257023 
L 117.619724 221.390685 
L 117.936533 212.448719 
L 118.253342 208.27207 
L 118.570151 206.215396 
L 118.88696 205.57827 
L 119.045365 205.727911 
L 119.203769 206.197018 
L 119.520578 208.249083 
L 119.837388 212.46525 
L 120.154197 221.641222 
L 120.471006 249.064834 
L 120.787815 215.995451 
L 121.263029 202.678196 
L 121.738242 195.348607 
L 122.37186 189.014423 
L 123.005479 184.808369 
L 123.639097 182.00716 
L 124.11431 180.636722 
L 124.589524 179.821519 
L 124.906333 179.573146 
L 125.223142 179.559728 
L 125.539951 179.786259 
L 125.856761 180.263333 
L 126.331974 181.488187 
L 126.807188 183.411514 
L 127.282402 186.194897 
L 127.757615 190.124882 
L 128.232829 195.7679 
L 128.708042 204.526692 
L 129.024852 214.374187 
L 129.183256 222.635207 
L 129.341661 239.971017 
L 129.500065 238.931638 
L 129.816874 220.060025 
L 130.133683 216.16419 
L 130.292088 216.318867 
L 130.450493 217.880621 
L 130.608897 221.474222 
L 130.767302 229.445052 
L 130.925706 295.257756 
L 131.084111 226.096934 
L 131.40092 208.145249 
L 131.876134 195.51234 
L 132.509752 185.848857 
L 133.14337 180.11794 
L 133.618584 177.786463 
L 133.935393 177.238483 
L 134.093797 177.334682 
L 134.252202 177.739325 
L 134.569011 179.841199 
L 134.88582 185.17596 
L 135.044225 190.87225 
L 135.202629 204.342789 
L 135.361034 205.313435 
L 135.677843 179.115972 
L 136.153056 164.319043 
L 136.786675 152.205645 
L 137.578697 141.264875 
L 138.529125 131.021725 
L 139.637957 121.313647 
L 140.905193 112.098726 
L 142.330834 103.387922 
L 143.756475 95.974565 
L 145.340521 88.920449 
L 146.924566 82.876553 
L 148.508612 77.677213 
L 150.092657 73.203475 
L 151.676703 69.365342 
L 153.260748 66.091536 
L 154.844794 63.323116 
L 156.428839 61.009236 
L 158.012885 59.104168 
L 159.59693 57.565164 
L 161.180976 56.350908 
L 162.765021 55.4205 
L 164.349067 54.732961 
L 166.091517 54.208274 
L 168.150776 53.830022 
L 170.685249 53.608794 
L 174.486958 53.528161 
L 207.910319 53.528749 
L 300.893791 53.593929 
L 303.745073 53.830022 
L 305.804332 54.208274 
L 307.546783 54.732961 
L 309.130828 55.4205 
L 310.714874 56.350908 
L 312.140515 57.429801 
L 313.566156 58.768417 
L 314.991797 60.396777 
L 316.417438 62.345668 
L 317.843079 64.647481 
L 319.427124 67.661814 
L 321.01117 71.209764 
L 322.595215 75.355803 
L 324.179261 80.179585 
L 325.763306 85.783958 
L 327.188947 91.609404 
L 328.614588 98.321556 
L 330.040229 106.129176 
L 331.307465 114.252976 
L 332.574702 123.900963 
L 333.683534 134.189742 
L 334.633961 145.287068 
L 335.267579 154.835817 
L 335.742793 164.319043 
L 336.218007 179.115972 
L 336.376411 187.723901 
L 336.534816 205.313435 
L 336.69322 204.342789 
L 337.010029 185.17596 
L 337.326838 179.841199 
L 337.643648 177.739325 
L 337.802052 177.334682 
L 337.960457 177.238483 
L 338.118861 177.400118 
L 338.43567 178.375981 
L 338.910884 181.262137 
L 339.386098 185.848857 
L 339.861311 192.586466 
L 340.336525 203.029093 
L 340.653334 215.038343 
L 340.811739 226.096934 
L 340.970143 295.257756 
L 341.128548 229.445052 
L 341.445357 217.880621 
L 341.603761 216.318867 
L 341.762166 216.16419 
L 341.920571 217.31375 
L 342.078975 220.060025 
L 342.23738 225.500953 
L 342.395784 238.931638 
L 342.554189 239.971017 
L 342.870998 214.374187 
L 343.346212 201.091516 
L 343.821425 193.639608 
L 344.455043 187.357727 
L 345.088662 183.411514 
L 345.72228 181.008016 
L 346.197493 179.992578 
L 346.514303 179.642477 
L 346.831112 179.536881 
L 347.147921 179.668068 
L 347.46473 180.033697 
L 347.939944 181.029723 
L 348.415157 182.596415 
L 349.048775 185.710253 
L 349.682394 190.353407 
L 350.157607 195.348607 
L 350.632821 202.678196 
L 350.94963 210.295549 
L 351.266439 224.906785 
L 351.424844 249.064834 
L 351.741653 221.641222 
L 352.058462 212.46525 
L 352.375271 208.249083 
L 352.69208 206.197018 
L 353.008889 205.57827 
L 353.167294 205.737838 
L 353.484103 207.040763 
L 353.800912 210.012522 
L 354.117721 215.949692 
L 354.276126 221.390685 
L 354.43453 231.864027 
L 354.592935 254.257023 
L 354.909744 216.786316 
L 355.384958 203.255482 
L 355.860171 195.872132 
L 356.493789 189.468495 
L 357.127408 185.137776 
L 357.761026 182.12147 
L 358.394644 180.078709 
L 359.028262 178.835704 
L 359.503476 178.373339 
L 359.820285 178.278664 
L 360.137094 178.353358 
L 360.612308 178.788221 
L 361.087521 179.629983 
L 361.562735 180.919819 
L 362.196353 183.466974 
L 362.829971 187.274458 
L 363.305185 191.387034 
L 363.780399 197.41217 
L 364.097208 203.553243 
L 364.414017 214.260279 
L 364.572422 225.555617 
L 364.730826 248.785644 
L 365.047635 212.79158 
L 365.364444 204.10547 
L 365.839658 197.467151 
L 366.314872 193.794267 
L 366.790085 191.680253 
L 367.265299 190.633552 
L 367.582108 190.425558 
L 367.898917 190.582836 
L 368.215726 191.108454 
L 368.532535 192.028716 
L 369.007749 194.283861 
L 369.482963 197.989899 
L 369.958176 204.312751 
L 370.274985 211.928396 
L 370.43339 218.517502 
L 370.750199 239.697525 
L 371.067008 213.035575 
L 371.542222 201.440227 
L 372.017436 195.354783 
L 372.651054 190.404788 
L 373.284672 187.390212 
L 373.759886 185.981373 
L 374.235099 185.158308 
L 374.551908 184.903296 
L 374.868718 184.873282 
L 375.185527 185.067509 
L 375.502336 185.491973 
L 375.977549 186.592465 
L 376.452763 188.332707 
L 376.927977 190.885597 
L 377.40319 194.599283 
L 377.878404 200.29264 
L 378.195213 206.311417 
L 378.512022 217.275075 
L 378.828831 242.279626 
L 379.14564 213.375833 
L 379.46245 204.778115 
L 379.937663 197.856275 
L 380.412877 193.769273 
L 380.888091 191.169919 
L 381.363304 189.568163 
L 381.838518 188.749594 
L 382.155327 188.592214 
L 382.472136 188.737161 
L 382.788945 189.193696 
L 383.105754 189.987407 
L 383.580968 191.922275 
L 384.056182 195.056767 
L 384.531395 200.191121 
L 384.848204 205.835443 
L 385.165013 216.386224 
L 385.481823 241.806048 
L 385.798632 211.969531 
L 386.273845 199.985809 
L 386.749059 193.695245 
L 387.382677 188.504412 
L 388.016295 185.241771 
L 388.649914 183.228614 
L 389.125127 182.365673 
L 389.600341 181.998981 
L 389.91715 182.023089 
L 390.233959 182.266578 
L 390.709173 183.071301 
L 391.184386 184.478237 
L 391.6596 186.643448 
L 392.134814 189.877898 
L 392.610027 194.892349 
L 392.926837 200.148029 
L 393.243646 209.233696 
L 393.40205 218.048648 
L 393.560455 247.802156 
L 393.877264 210.896267 
L 394.194073 200.546362 
L 394.669287 192.487421 
L 395.302905 186.319871 
L 395.936523 182.490697 
L 396.570141 180.01746 
L 397.203759 178.51045 
L 397.678973 177.903462 
L 397.995782 177.726634 
L 397.995782 177.726634 
" clip-path="url(#pec3f62b858)" style="fill: none; stroke: #0000ff; stroke-width: 2; stroke-linecap: square"/>
   </g>
   <g id="line2d_28">
    <path d="M 73.741663 194.717472 
L 74.058472 194.901769 
L 74.375281 195.466173 
L 74.69209 196.448064 
L 75.167304 198.879492 
L 75.642517 202.991334 
L 75.959326 207.377294 
L 76.276136 214.644967 
L 76.43454 220.87465 
L 76.751349 246.865918 
L 77.068158 216.442718 
L 77.543372 204.304674 
L 78.018586 197.897907 
L 78.652204 192.569927 
L 79.285822 189.177567 
L 79.91944 187.032462 
L 80.394654 186.062762 
L 80.869868 185.576035 
L 81.186677 185.508601 
L 81.503486 185.647228 
L 81.820295 185.998689 
L 82.295509 186.956283 
L 82.770722 188.50792 
L 83.245936 190.810572 
L 83.721149 194.172141 
L 84.196363 199.288528 
L 84.513172 204.568223 
L 84.829981 213.521792 
L 84.988386 221.957994 
L 85.14679 246.298087 
L 85.4636 216.556155 
L 85.780409 206.013619 
L 86.255622 198.032061 
L 86.730836 193.297129 
L 87.364454 189.317897 
L 87.998072 186.922917 
L 88.473286 185.870379 
L 88.9485 185.351251 
L 89.265309 185.280594 
L 89.582118 185.426163 
L 89.898927 185.791765 
L 90.374141 186.778468 
L 90.849354 188.360754 
L 91.324568 190.683286 
L 91.799782 194.029771 
L 92.274995 199.029324 
L 92.591804 204.059483 
L 92.908614 212.205969 
L 93.067018 219.258163 
L 93.225423 233.967441 
L 93.383827 236.712627 
L 93.700636 212.985163 
L 94.17585 202.080441 
L 94.651064 196.458496 
L 95.126277 192.936058 
L 95.601491 190.628548 
L 96.076705 189.172591 
L 96.551918 188.39552 
L 96.868727 188.212376 
L 97.185536 188.285063 
L 97.502346 188.614073 
L 97.977559 189.613035 
L 98.452773 191.29768 
L 98.927987 193.844365 
L 99.4032 197.620504 
L 99.878414 203.515087 
L 100.195223 209.889521 
L 100.512032 222.130902 
L 100.670437 238.629223 
L 100.828841 236.064724 
L 101.14565 214.522131 
L 101.620864 204.018044 
L 102.096078 198.643798 
L 102.571291 195.388634 
L 103.046505 193.414125 
L 103.521719 192.394109 
L 103.838528 192.178136 
L 104.155337 192.323475 
L 104.472146 192.846011 
L 104.788955 193.787085 
L 105.264169 196.169801 
L 105.739382 200.275823 
L 106.056191 204.726283 
L 106.373001 212.258355 
L 106.531405 218.921128 
L 106.848214 237.486941 
L 107.165023 212.239563 
L 107.640237 200.500136 
L 108.115451 194.14091 
L 108.749069 188.778457 
L 109.382687 185.320883 
L 110.016305 183.102905 
L 110.491519 182.077949 
L 110.966733 181.536167 
L 111.283542 181.431679 
L 111.600351 181.532115 
L 111.91716 181.84293 
L 112.392374 182.730046 
L 112.867587 184.187586 
L 113.342801 186.344965 
L 113.818015 189.445278 
L 114.293228 193.998157 
L 114.768442 201.358117 
L 115.085251 210.20917 
L 115.243655 218.267138 
L 115.40206 238.593955 
L 115.877274 208.635891 
L 116.352487 198.670057 
L 116.827701 193.567471 
L 117.302915 190.543248 
L 117.778128 188.808246 
L 118.094937 188.210655 
L 118.411747 188.015147 
L 118.728556 188.215083 
L 119.045365 188.829595 
L 119.362174 189.908492 
L 119.837388 192.625957 
L 120.312601 197.376813 
L 120.62941 202.725623 
L 120.946219 212.69749 
L 121.104624 223.698989 
L 121.263029 245.683884 
L 121.579838 209.642772 
L 121.896647 200.282317 
L 122.37186 192.629235 
L 122.847074 187.951719 
L 123.480692 184.039314 
L 123.955906 182.256941 
L 124.43112 181.253448 
L 124.747929 180.981087 
L 125.064738 181.022338 
L 125.381547 181.389217 
L 125.698356 182.109235 
L 126.17357 183.965228 
L 126.648783 187.05345 
L 127.123997 192.13631 
L 127.440806 197.653363 
L 127.757615 207.56378 
L 127.91602 217.917843 
L 128.074424 252.62159 
L 128.232829 215.720107 
L 128.549638 201.092605 
L 129.024852 192.068779 
L 129.500065 187.399088 
L 129.975279 184.847667 
L 130.292088 183.994736 
L 130.608897 183.744578 
L 130.767302 183.844395 
L 131.084111 184.521163 
L 131.40092 185.91868 
L 131.717729 188.228286 
L 132.034538 191.840985 
L 132.351347 197.6864 
L 132.668156 209.060342 
L 132.984965 229.579115 
L 133.301775 204.849812 
L 133.618584 197.967481 
L 133.935393 195.59671 
L 134.093797 195.765663 
L 134.252202 197.054972 
L 134.410606 200.058035 
L 134.569011 206.66412 
L 134.727415 232.992293 
L 135.044225 194.209291 
L 135.519438 175.577876 
L 136.153056 161.30817 
L 136.945079 148.767375 
L 137.895507 137.260805 
L 139.004338 126.534122 
L 140.271575 116.486259 
L 141.697216 107.084215 
L 143.122857 99.139651 
L 144.706902 91.615937 
L 146.290948 85.188197 
L 147.874993 79.665242 
L 149.459039 74.912195 
L 151.043084 70.828734 
L 152.62713 67.33673 
L 154.211175 64.372686 
L 155.795221 61.882779 
L 157.379267 59.819449 
L 158.963312 58.138947 
L 160.547358 56.799555 
L 162.131403 55.760345 
L 163.715449 54.980459 
L 165.457899 54.373212 
L 167.358753 53.94862 
L 169.576417 53.680021 
L 172.744508 53.544695 
L 180.981545 53.528512 
L 298.992937 53.542253 
L 302.636241 53.706917 
L 305.01231 54.035077 
L 306.913164 54.515729 
L 308.655614 55.189633 
L 310.23966 56.043017 
L 311.823705 57.167997 
L 313.249346 58.446442 
L 314.674987 60.007854 
L 316.100628 61.882779 
L 317.526269 64.103184 
L 318.95191 66.703521 
L 320.535956 70.085222 
L 322.120001 74.044698 
L 323.704047 78.65665 
L 325.288092 84.016173 
L 326.872138 90.249891 
L 328.297779 96.752786 
L 329.72342 104.294201 
L 331.149061 113.161426 
L 332.416297 122.538918 
L 333.525129 132.386159 
L 334.475557 142.667066 
L 335.267579 153.345534 
L 335.901198 164.367084 
L 336.376411 175.577876 
L 336.69322 186.348786 
L 337.010029 207.075836 
L 337.168434 232.992293 
L 337.326838 206.66412 
L 337.643648 197.054972 
L 337.802052 195.765663 
L 337.960457 195.59671 
L 338.118861 196.336857 
L 338.43567 200.648319 
L 338.752479 211.964641 
L 338.910884 229.579115 
L 339.069289 222.887283 
L 339.386098 202.205596 
L 339.702907 194.38227 
L 340.17812 188.228286 
L 340.653334 185.120869 
L 340.970143 184.100211 
L 341.286952 183.744578 
L 341.445357 183.795368 
L 341.762166 184.343931 
L 342.078975 185.514634 
L 342.395784 187.399088 
L 342.870998 192.068779 
L 343.187807 197.272395 
L 343.504616 206.52793 
L 343.663021 215.720107 
L 343.821425 252.62159 
L 343.97983 217.917843 
L 344.296639 201.710691 
L 344.771852 192.13631 
L 345.247066 187.05345 
L 345.72228 183.965228 
L 346.197493 182.109235 
L 346.672707 181.16376 
L 346.989516 180.962087 
L 347.306325 181.078284 
L 347.623134 181.507166 
L 348.098348 182.758738 
L 348.573562 184.831929 
L 349.048775 187.951719 
L 349.523989 192.629235 
L 349.999203 200.282317 
L 350.316012 209.642772 
L 350.474416 218.468256 
L 350.632821 245.683884 
L 350.94963 212.69749 
L 351.266439 202.725623 
L 351.741653 195.479911 
L 352.216866 191.546931 
L 352.69208 189.30638 
L 353.167294 188.215083 
L 353.484103 188.015147 
L 353.800912 188.210655 
L 354.117721 188.808246 
L 354.43453 189.842201 
L 354.909744 192.383742 
L 355.384958 196.646213 
L 355.701767 201.165954 
L 356.018576 208.635891 
L 356.17698 215.057544 
L 356.493789 238.593955 
L 356.810598 210.20917 
L 357.285812 198.422612 
L 357.761026 192.266077 
L 358.394644 187.256404 
L 359.028262 184.187586 
L 359.503476 182.730046 
L 359.97869 181.84293 
L 360.453903 181.456066 
L 360.770712 181.458443 
L 361.087521 181.664975 
L 361.562735 182.364015 
L 362.037949 183.560092 
L 362.513162 185.320883 
L 362.988376 187.772129 
L 363.46359 191.150374 
L 363.938803 195.950026 
L 364.414017 203.472316 
L 364.730826 212.239563 
L 364.889231 219.951051 
L 365.047635 237.486941 
L 365.20604 232.76625 
L 365.522849 212.258355 
L 365.998063 202.257993 
L 366.473276 197.299108 
L 366.94849 194.436963 
L 367.423704 192.846011 
L 367.740513 192.323475 
L 368.057322 192.178136 
L 368.374131 192.394109 
L 368.69094 192.977099 
L 369.166154 194.610174 
L 369.641367 197.381934 
L 370.116581 201.893286 
L 370.43339 206.63629 
L 370.750199 214.522131 
L 370.908604 221.454856 
L 371.067008 236.064724 
L 371.225413 238.629223 
L 371.542222 214.71495 
L 372.017436 203.515087 
L 372.492649 197.620504 
L 373.126267 192.88283 
L 373.759886 190.092129 
L 374.235099 188.877428 
L 374.710313 188.285063 
L 375.027122 188.212376 
L 375.343931 188.39552 
L 375.66074 188.843522 
L 376.135954 190.059687 
L 376.611168 192.055655 
L 377.086381 195.112557 
L 377.561595 199.870629 
L 377.878404 204.794544 
L 378.195213 212.985163 
L 378.353618 220.299402 
L 378.512022 236.712627 
L 378.670427 233.967441 
L 378.987236 212.205969 
L 379.46245 201.301117 
L 379.937663 195.462877 
L 380.571281 190.683286 
L 381.2049 187.760142 
L 381.680113 186.388152 
L 382.155327 185.580962 
L 382.472136 185.326266 
L 382.788945 185.288879 
L 383.105754 185.468246 
L 383.422563 185.870379 
L 383.897777 186.922917 
L 384.372991 188.596363 
L 384.848204 191.060164 
L 385.323418 194.65478 
L 385.798632 200.177359 
L 386.115441 206.013619 
L 386.43225 216.556155 
L 386.749059 246.298087 
L 387.065868 213.521792 
L 387.382677 204.568223 
L 387.857891 197.311362 
L 388.333104 192.903874 
L 388.966723 189.181106 
L 389.600341 186.956283 
L 390.075555 185.998689 
L 390.550768 185.551874 
L 390.867577 185.516755 
L 391.184386 185.686482 
L 391.6596 186.330439 
L 392.134814 187.471226 
L 392.610027 189.177567 
L 393.085241 191.578408 
L 393.560455 194.917901 
L 394.035668 199.710762 
L 394.510882 207.334332 
L 394.827691 216.442718 
L 394.986096 224.777744 
L 395.1445 246.865918 
L 395.619714 214.644967 
L 396.094928 204.952989 
L 396.570141 200.017973 
L 397.045355 197.116591 
L 397.520569 195.466173 
L 397.837378 194.901769 
L 397.995782 194.763371 
L 397.995782 194.763371 
" clip-path="url(#pec3f62b858)" style="fill: none; stroke: #ff0000; stroke-width: 2; stroke-linecap: square"/>
   </g>
   <g id="patch_3">
    <path d="M 57.528957 307.344331 
L 57.528957 41.439685 
" style="fill: none; stroke: #000000; stroke-width: 0.8; stroke-linejoin: miter; stroke-linecap: square"/>
   </g>
   <g id="patch_4">
    <path d="M 414.208488 307.344331 
L 414.208488 41.439685 
" style="fill: none; stroke: #000000; stroke-width: 0.8; stroke-linejoin: miter; stroke-linecap: square"/>
   </g>
   <g id="patch_5">
    <path d="M 57.528957 307.344331 
L 414.208488 307.344331 
" style="fill: none; stroke: #000000; stroke-width: 0.8; stroke-linejoin: miter; stroke-linecap: square"/>
   </g>
   <g id="patch_6">
    <path d="M 57.528957 41.439685 
L 414.208488 41.439685 
" style="fill: none; stroke: #000000; stroke-width: 0.8; stroke-linejoin: miter; stroke-linecap: square"/>
   </g>
   <g id="text_15">
    <!-- Impulse response spectrum: MultiCycle filter vs Golden model -->
    <g transform="translate(49.476847 22.00231) scale(0.12 -0.12)">
     <defs>
      <path id="DejaVuSans-49" d="M 628 4666 
L 1259 4666 
L 1259 0 
L 628 0 
L 628 4666 
z
" transform="scale(0.015625)"/>
      <path id="DejaVuSans-70" d="M 1159 525 
L 1159 -1331 
L 581 -1331 
L 581 3500 
L 1159 3500 
L 1159 2969 
Q 1341 3281 1617 3432 
Q 1894 3584 2278 3584 
Q 2916 3584 3314 3078 
Q 3713 2572 3713 1747 
Q 3713 922 3314 415 
Q 2916 -91 2278 -91 
Q 1894 -91 1617 61 
Q 1341 213 1159 525 
z
M 3116 1747 
Q 3116 2381 2855 2742 
Q 2594 3103 2138 3103 
Q 1681 3103 1420 2742 
Q 1159 2381 1159 1747 
Q 1159 1113 1420 752 
Q 1681 391 2138 391 
Q 2594 391 2855 752 
Q 3116 1113 3116 1747 
z
" transform="scale(0.015625)"/>
      <path id="DejaVuSans-73" d="M 2834 3397 
L 2834 2853 
Q 2591 2978 2328 3040 
Q 2066 3103 1784 3103 
Q 1356 3103 1142 2972 
Q 928 2841 928 2578 
Q 928 2378 1081 2264 
Q 1234 2150 1697 2047 
L 1894 2003 
Q 2506 1872 2764 1633 
Q 3022 1394 3022 966 
Q 3022 478 2636 193 
Q 2250 -91 1575 -91 
Q 1294 -91 989 -36 
Q 684 19 347 128 
L 347 722 
Q 666 556 975 473 
Q 1284 391 1588 391 
Q 1994 391 2212 530 
Q 2431 669 2431 922 
Q 2431 1156 2273 1281 
Q 2116 1406 1581 1522 
L 1381 1569 
Q 847 1681 609 1914 
Q 372 2147 372 2553 
Q 372 3047 722 3315 
Q 1072 3584 1716 3584 
Q 2034 3584 2315 3537 
Q 2597 3491 2834 3397 
z
" transform="scale(0.015625)"/>
      <path id="DejaVuSans-74" d="M 1172 4494 
L 1172 3500 
L 2356 3500 
L 2356 3053 
L 1172 3053 
L 1172 1153 
Q 1172 725 1289 603 
Q 1406 481 1766 481 
L 2356 481 
L 2356 0 
L 1766 0 
Q 1100 0 847 248 
Q 594 497 594 1153 
L 594 3053 
L 172 3053 
L 172 3500 
L 594 3500 
L 594 4494 
L 1172 4494 
z
" transform="scale(0.015625)"/>
      <path id="DejaVuSans-3a" d="M 750 794 
L 1409 794 
L 1409 0 
L 750 0 
L 750 794 
z
M 750 3309 
L 1409 3309 
L 1409 2516 
L 750 2516 
L 750 3309 
z
" transform="scale(0.015625)"/>
      <path id="DejaVuSans-4d" d="M 628 4666 
L 1569 4666 
L 2759 1491 
L 3956 4666 
L 4897 4666 
L 4897 0 
L 4281 0 
L 4281 4097 
L 3078 897 
L 2444 897 
L 1241 4097 
L 1241 0 
L 628 0 
L 628 4666 
z
" transform="scale(0.015625)"/>
      <path id="DejaVuSans-43" d="M 4122 4306 
L 4122 3641 
Q 3803 3938 3442 4084 
Q 3081 4231 2675 4231 
Q 1875 4231 1450 3742 
Q 1025 3253 1025 2328 
Q 1025 1406 1450 917 
Q 1875 428 2675 428 
Q 3081 428 3442 575 
Q 3803 722 4122 1019 
L 4122 359 
Q 3791 134 3420 21 
Q 3050 -91 2638 -91 
Q 1578 -91 968 557 
Q 359 1206 359 2328 
Q 359 3453 968 4101 
Q 1578 4750 2638 4750 
Q 3056 4750 3426 4639 
Q 3797 4528 4122 4306 
z
" transform="scale(0.015625)"/>
      <path id="DejaVuSans-66" d="M 2375 4863 
L 2375 4384 
L 1825 4384 
Q 1516 4384 1395 4259 
Q 1275 4134 1275 3809 
L 1275 3500 
L 2222 3500 
L 2222 3053 
L 1275 3053 
L 1275 0 
L 697 0 
L 697 3053 
L 147 3053 
L 147 3500 
L 697 3500 
L 697 3744 
Q 697 4328 969 4595 
Q 1241 4863 1831 4863 
L 2375 4863 
z
" transform="scale(0.015625)"/>
      <path id="DejaVuSans-76" d="M 191 3500 
L 800 3500 
L 1894 563 
L 2988 3500 
L 3597 3500 
L 2284 0 
L 1503 0 
L 191 3500 
z
" transform="scale(0.015625)"/>
      <path id="DejaVuSans-47" d="M 3809 666 
L 3809 1919 
L 2778 1919 
L 2778 2438 
L 4434 2438 
L 4434 434 
Q 4069 175 3628 42 
Q 3188 -91 2688 -91 
Q 1594 -91 976 548 
Q 359 1188 359 2328 
Q 359 3472 976 4111 
Q 1594 4750 2688 4750 
Q 3144 4750 3555 4637 
Q 3966 4525 4313 4306 
L 4313 3634 
Q 3963 3931 3569 4081 
Q 3175 4231 2741 4231 
Q 1884 4231 1454 3753 
Q 1025 3275 1025 2328 
Q 1025 1384 1454 906 
Q 1884 428 2741 428 
Q 3075 428 3337 486 
Q 3600 544 3809 666 
z
" transform="scale(0.015625)"/>
     </defs>
     <use xlink:href="#DejaVuSans-49"/>
     <use xlink:href="#DejaVuSans-6d" transform="translate(29.492188 0)"/>
     <use xlink:href="#DejaVuSans-70" transform="translate(126.904297 0)"/>
     <use xlink:href="#DejaVuSans-75" transform="translate(190.380859 0)"/>
     <use xlink:href="#DejaVuSans-6c" transform="translate(253.759766 0)"/>
     <use xlink:href="#DejaVuSans-73" transform="translate(281.542969 0)"/>
     <use xlink:href="#DejaVuSans-65" transform="translate(333.642578 0)"/>
     <use xlink:href="#DejaVuSans-20" transform="translate(395.166016 0)"/>
     <use xlink:href="#DejaVuSans-72" transform="translate(426.953125 0)"/>
     <use xlink:href="#DejaVuSans-65" transform="translate(465.816406 0)"/>
     <use xlink:href="#DejaVuSans-73" transform="translate(527.339844 0)"/>
     <use xlink:href="#DejaVuSans-70" transform="translate(579.439453 0)"/>
     <use xlink:href="#DejaVuSans-6f" transform="translate(642.916016 0)"/>
     <use xlink:href="#DejaVuSans-6e" transform="translate(704.097656 0)"/>
     <use xlink:href="#DejaVuSans-73" transform="translate(767.476562 0)"/>
     <use xlink:href="#DejaVuSans-65" transform="translate(819.576172 0)"/>
     <use xlink:href="#DejaVuSans-20" transform="translate(881.099609 0)"/>
     <use xlink:href="#DejaVuSans-73" transform="translate(912.886719 0)"/>
     <use xlink:href="#DejaVuSans-70" transform="translate(964.986328 0)"/>
     <use xlink:href="#DejaVuSans-65" transform="translate(1028.462891 0)"/>
     <use xlink:href="#DejaVuSans-63" transform="translate(1089.986328 0)"/>
     <use xlink:href="#DejaVuSans-74" transform="translate(1144.966797 0)"/>
     <use xlink:href="#DejaVuSans-72" transform="translate(1184.175781 0)"/>
     <use xlink:href="#DejaVuSans-75" transform="translate(1225.289062 0)"/>
     <use xlink:href="#DejaVuSans-6d" transform="translate(1288.667969 0)"/>
     <use xlink:href="#DejaVuSans-3a" transform="translate(1386.080078 0)"/>
     <use xlink:href="#DejaVuSans-20" transform="translate(1419.771484 0)"/>
     <use xlink:href="#DejaVuSans-4d" transform="translate(1451.558594 0)"/>
     <use xlink:href="#DejaVuSans-75" transform="translate(1537.837891 0)"/>
     <use xlink:href="#DejaVuSans-6c" transform="translate(1601.216797 0)"/>
     <use xlink:href="#DejaVuSans-74" transform="translate(1629 0)"/>
     <use xlink:href="#DejaVuSans-69" transform="translate(1668.208984 0)"/>
     <use xlink:href="#DejaVuSans-43" transform="translate(1695.992188 0)"/>
     <use xlink:href="#DejaVuSans-79" transform="translate(1765.816406 0)"/>
     <use xlink:href="#DejaVuSans-63" transform="translate(1824.996094 0)"/>
     <use xlink:href="#DejaVuSans-6c" transform="translate(1879.976562 0)"/>
     <use xlink:href="#DejaVuSans-65" transform="translate(1907.759766 0)"/>
     <use xlink:href="#DejaVuSans-20" transform="translate(1969.283203 0)"/>
     <use xlink:href="#DejaVuSans-66" transform="translate(2001.070312 0)"/>
     <use xlink:href="#DejaVuSans-69" transform="translate(2036.275391 0)"/>
     <use xlink:href="#DejaVuSans-6c" transform="translate(2064.058594 0)"/>
     <use xlink:href="#DejaVuSans-74" transform="translate(2091.841797 0)"/>
     <use xlink:href="#DejaVuSans-65" transform="translate(2131.050781 0)"/>
     <use xlink:href="#DejaVuSans-72" transform="translate(2192.574219 0)"/>
     <use xlink:href="#DejaVuSans-20" transform="translate(2233.6875 0)"/>
     <use xlink:href="#DejaVuSans-76" transform="translate(2265.474609 0)"/>
     <use xlink:href="#DejaVuSans-73" transform="translate(2324.654297 0)"/>
     <use xlink:href="#DejaVuSans-20" transform="translate(2376.753906 0)"/>
     <use xlink:href="#DejaVuSans-47" transform="translate(2408.541016 0)"/>
     <use xlink:href="#DejaVuSans-6f" transform="translate(2486.03125 0)"/>
     <use xlink:href="#DejaVuSans-6c" transform="translate(2547.212891 0)"/>
     <use xlink:href="#DejaVuSans-64" transform="translate(2574.996094 0)"/>
     <use xlink:href="#DejaVuSans-65" transform="translate(2638.472656 0)"/>
     <use xlink:href="#DejaVuSans-6e" transform="translate(2699.996094 0)"/>
     <use xlink:href="#DejaVuSans-20" transform="translate(2763.375 0)"/>
     <use xlink:href="#DejaVuSans-6d" transform="translate(2795.162109 0)"/>
     <use xlink:href="#DejaVuSans-6f" transform="translate(2892.574219 0)"/>
     <use xlink:href="#DejaVuSans-64" transform="translate(2953.755859 0)"/>
     <use xlink:href="#DejaVuSans-65" transform="translate(3017.232422 0)"/>
     <use xlink:href="#DejaVuSans-6c" transform="translate(3078.755859 0)"/>
    </g>
    <!-- Taps=39, MACS=13 -->
    <g transform="translate(176.268097 35.439685) scale(0.12 -0.12)">
     <defs>
      <path id="DejaVuSans-54" d="M -19 4666 
L 3928 4666 
L 3928 4134 
L 2272 4134 
L 2272 0 
L 1638 0 
L 1638 4134 
L -19 4134 
L -19 4666 
z
" transform="scale(0.015625)"/>
      <path id="DejaVuSans-3d" d="M 678 2906 
L 4684 2906 
L 4684 2381 
L 678 2381 
L 678 2906 
z
M 678 1631 
L 4684 1631 
L 4684 1100 
L 678 1100 
L 678 1631 
z
" transform="scale(0.015625)"/>
      <path id="DejaVuSans-33" d="M 2597 2516 
Q 3050 2419 3304 2112 
Q 3559 1806 3559 1356 
Q 3559 666 3084 287 
Q 2609 -91 1734 -91 
Q 1441 -91 1130 -33 
Q 819 25 488 141 
L 488 750 
Q 750 597 1062 519 
Q 1375 441 1716 441 
Q 2309 441 2620 675 
Q 2931 909 2931 1356 
Q 2931 1769 2642 2001 
Q 2353 2234 1838 2234 
L 1294 2234 
L 1294 2753 
L 1863 2753 
Q 2328 2753 2575 2939 
Q 2822 3125 2822 3475 
Q 2822 3834 2567 4026 
Q 2313 4219 1838 4219 
Q 1578 4219 1281 4162 
Q 984 4106 628 3988 
L 628 4550 
Q 988 4650 1302 4700 
Q 1616 4750 1894 4750 
Q 2613 4750 3031 4423 
Q 3450 4097 3450 3541 
Q 3450 3153 3228 2886 
Q 3006 2619 2597 2516 
z
" transform="scale(0.015625)"/>
      <path id="DejaVuSans-39" d="M 703 97 
L 703 672 
Q 941 559 1184 500 
Q 1428 441 1663 441 
Q 2288 441 2617 861 
Q 2947 1281 2994 2138 
Q 2813 1869 2534 1725 
Q 2256 1581 1919 1581 
Q 1219 1581 811 2004 
Q 403 2428 403 3163 
Q 403 3881 828 4315 
Q 1253 4750 1959 4750 
Q 2769 4750 3195 4129 
Q 3622 3509 3622 2328 
Q 3622 1225 3098 567 
Q 2575 -91 1691 -91 
Q 1453 -91 1209 -44 
Q 966 3 703 97 
z
M 1959 2075 
Q 2384 2075 2632 2365 
Q 2881 2656 2881 3163 
Q 2881 3666 2632 3958 
Q 2384 4250 1959 4250 
Q 1534 4250 1286 3958 
Q 1038 3666 1038 3163 
Q 1038 2656 1286 2365 
Q 1534 2075 1959 2075 
z
" transform="scale(0.015625)"/>
      <path id="DejaVuSans-2c" d="M 750 794 
L 1409 794 
L 1409 256 
L 897 -744 
L 494 -744 
L 750 256 
L 750 794 
z
" transform="scale(0.015625)"/>
      <path id="DejaVuSans-41" d="M 2188 4044 
L 1331 1722 
L 3047 1722 
L 2188 4044 
z
M 1831 4666 
L 2547 4666 
L 4325 0 
L 3669 0 
L 3244 1197 
L 1141 1197 
L 716 0 
L 50 0 
L 1831 4666 
z
" transform="scale(0.015625)"/>
      <path id="DejaVuSans-53" d="M 3425 4513 
L 3425 3897 
Q 3066 4069 2747 4153 
Q 2428 4238 2131 4238 
Q 1616 4238 1336 4038 
Q 1056 3838 1056 3469 
Q 1056 3159 1242 3001 
Q 1428 2844 1947 2747 
L 2328 2669 
Q 3034 2534 3370 2195 
Q 3706 1856 3706 1288 
Q 3706 609 3251 259 
Q 2797 -91 1919 -91 
Q 1588 -91 1214 -16 
Q 841 59 441 206 
L 441 856 
Q 825 641 1194 531 
Q 1563 422 1919 422 
Q 2459 422 2753 634 
Q 3047 847 3047 1241 
Q 3047 1584 2836 1778 
Q 2625 1972 2144 2069 
L 1759 2144 
Q 1053 2284 737 2584 
Q 422 2884 422 3419 
Q 422 4038 858 4394 
Q 1294 4750 2059 4750 
Q 2388 4750 2728 4690 
Q 3069 4631 3425 4513 
z
" transform="scale(0.015625)"/>
     </defs>
     <use xlink:href="#DejaVuSans-54"/>
     <use xlink:href="#DejaVuSans-61" transform="translate(44.583984 0)"/>
     <use xlink:href="#DejaVuSans-70" transform="translate(105.863281 0)"/>
     <use xlink:href="#DejaVuSans-73" transform="translate(169.339844 0)"/>
     <use xlink:href="#DejaVuSans-3d" transform="translate(221.439453 0)"/>
     <use xlink:href="#DejaVuSans-33" transform="translate(305.228516 0)"/>
     <use xlink:href="#DejaVuSans-39" transform="translate(368.851562 0)"/>
     <use xlink:href="#DejaVuSans-2c" transform="translate(432.474609 0)"/>
     <use xlink:href="#DejaVuSans-20" transform="translate(464.261719 0)"/>
     <use xlink:href="#DejaVuSans-4d" transform="translate(496.048828 0)"/>
     <use xlink:href="#DejaVuSans-41" transform="translate(582.328125 0)"/>
     <use xlink:href="#DejaVuSans-43" transform="translate(648.986328 0)"/>
     <use xlink:href="#DejaVuSans-53" transform="translate(718.810547 0)"/>
     <use xlink:href="#DejaVuSans-3d" transform="translate(782.287109 0)"/>
     <use xlink:href="#DejaVuSans-31" transform="translate(866.076172 0)"/>
     <use xlink:href="#DejaVuSans-33" transform="translate(929.699219 0)"/>
    </g>
   </g>
   <g id="legend_1">
    <g id="patch_7">
     <path d="M 184.567941 302.344331 
L 287.169504 302.344331 
Q 289.169504 302.344331 289.169504 300.344331 
L 289.169504 271.988081 
Q 289.169504 269.988081 287.169504 269.988081 
L 184.567941 269.988081 
Q 182.567941 269.988081 182.567941 271.988081 
L 182.567941 300.344331 
Q 182.567941 302.344331 184.567941 302.344331 
z
" style="fill: #ffffff; opacity: 0.8; stroke: #cccccc; stroke-linejoin: miter"/>
    </g>
    <g id="line2d_29">
     <path d="M 186.567941 278.086518 
L 196.567941 278.086518 
L 206.567941 278.086518 
" style="fill: none; stroke: #0000ff; stroke-width: 2; stroke-linecap: square"/>
    </g>
    <g id="text_16">
     <!-- MultiCycle FIR -->
     <g transform="translate(214.567941 281.586518) scale(0.1 -0.1)">
      <defs>
       <path id="DejaVuSans-52" d="M 2841 2188 
Q 3044 2119 3236 1894 
Q 3428 1669 3622 1275 
L 4263 0 
L 3584 0 
L 2988 1197 
Q 2756 1666 2539 1819 
Q 2322 1972 1947 1972 
L 1259 1972 
L 1259 0 
L 628 0 
L 628 4666 
L 2053 4666 
Q 2853 4666 3247 4331 
Q 3641 3997 3641 3322 
Q 3641 2881 3436 2590 
Q 3231 2300 2841 2188 
z
M 1259 4147 
L 1259 2491 
L 2053 2491 
Q 2509 2491 2742 2702 
Q 2975 2913 2975 3322 
Q 2975 3731 2742 3939 
Q 2509 4147 2053 4147 
L 1259 4147 
z
" transform="scale(0.015625)"/>
      </defs>
      <use xlink:href="#DejaVuSans-4d"/>
      <use xlink:href="#DejaVuSans-75" transform="translate(86.279297 0)"/>
      <use xlink:href="#DejaVuSans-6c" transform="translate(149.658203 0)"/>
      <use xlink:href="#DejaVuSans-74" transform="translate(177.441406 0)"/>
      <use xlink:href="#DejaVuSans-69" transform="translate(216.650391 0)"/>
      <use xlink:href="#DejaVuSans-43" transform="translate(244.433594 0)"/>
      <use xlink:href="#DejaVuSans-79" transform="translate(314.257812 0)"/>
      <use xlink:href="#DejaVuSans-63" transform="translate(373.4375 0)"/>
      <use xlink:href="#DejaVuSans-6c" transform="translate(428.417969 0)"/>
      <use xlink:href="#DejaVuSans-65" transform="translate(456.201172 0)"/>
      <use xlink:href="#DejaVuSans-20" transform="translate(517.724609 0)"/>
      <use xlink:href="#DejaVuSans-46" transform="translate(549.511719 0)"/>
      <use xlink:href="#DejaVuSans-49" transform="translate(607.03125 0)"/>
      <use xlink:href="#DejaVuSans-52" transform="translate(636.523438 0)"/>
     </g>
    </g>
    <g id="line2d_30">
     <path d="M 186.567941 292.764643 
L 196.567941 292.764643 
L 206.567941 292.764643 
" style="fill: none; stroke: #ff0000; stroke-width: 2; stroke-linecap: square"/>
    </g>
    <g id="text_17">
     <!-- Golden model -->
     <g transform="translate(214.567941 296.264643) scale(0.1 -0.1)">
      <use xlink:href="#DejaVuSans-47"/>
      <use xlink:href="#DejaVuSans-6f" transform="translate(77.490234 0)"/>
      <use xlink:href="#DejaVuSans-6c" transform="translate(138.671875 0)"/>
      <use xlink:href="#DejaVuSans-64" transform="translate(166.455078 0)"/>
      <use xlink:href="#DejaVuSans-65" transform="translate(229.931641 0)"/>
      <use xlink:href="#DejaVuSans-6e" transform="translate(291.455078 0)"/>
      <use xlink:href="#DejaVuSans-20" transform="translate(354.833984 0)"/>
      <use xlink:href="#DejaVuSans-6d" transform="translate(386.621094 0)"/>
      <use xlink:href="#DejaVuSans-6f" transform="translate(484.033203 0)"/>
      <use xlink:href="#DejaVuSans-64" transform="translate(545.214844 0)"/>
      <use xlink:href="#DejaVuSans-65" transform="translate(608.691406 0)"/>
      <use xlink:href="#DejaVuSans-6c" transform="translate(670.214844 0)"/>
     </g>
    </g>
   </g>
  </g>
 </g>
 <defs>
  <clipPath id="pec3f62b858">
   <rect x="57.528957" y="41.439685" width="356.679531" height="265.904646"/>
  </clipPath>
 </defs>
</svg>
