<?xml version="1.0" encoding="utf-8" standalone="no"?>
<!DOCTYPE svg PUBLIC "-//W3C//DTD SVG 1.1//EN"
  "http://www.w3.org/Graphics/SVG/1.1/DTD/svg11.dtd">
<svg xmlns:xlink="http://www.w3.org/1999/xlink" width="460.231654pt" height="345.330709pt" viewBox="0 0 460.231654 345.330709" xmlns="http://www.w3.org/2000/svg" version="1.1">
 <metadata>
  <rdf:RDF xmlns:dc="http://purl.org/dc/elements/1.1/" xmlns:cc="http://creativecommons.org/ns#" xmlns:rdf="http://www.w3.org/1999/02/22-rdf-syntax-ns#">
   <cc:Work>
    <dc:type rdf:resource="http://purl.org/dc/dcmitype/StillImage"/>
    <dc:date>2026-03-23T10:59:22.526166</dc:date>
    <dc:format>image/svg+xml</dc:format>
    <dc:creator>
     <cc:Agent>
      <dc:title>Matplotlib v3.10.8, https://matplotlib.org/</dc:title>
     </cc:Agent>
    </dc:creator>
   </cc:Work>
  </rdf:RDF>
 </metadata>
 <defs>
  <style type="text/css">*{stroke-linejoin: round; stroke-linecap: butt}</style>
 </defs>
 <g id="figure_1">
  <g id="patch_1">
   <path d="M 0 345.330709 
L 460.231654 345.330709 
L 460.231654 0 
L 0 0 
z
" style="fill: #ffffff"/>
  </g>
  <g id="axes_1">
   <g id="patch_2">
    <path d="M 57.528957 307.344331 
L 414.208488 307.344331 
L 414.208488 41.439685 
L 57.528957 41.439685 
z
" style="fill: #ffffff"/>
   </g>
   <g id="matplotlib.axis_1">
    <g id="xtick_1">
     <g id="line2d_1">
      <path d="M 107.429683 307.344331 
L 107.429683 41.439685 
" clip-path="url(#p2ed13251a8)" style="fill: none; stroke: #b0b0b0; stroke-width: 0.8; stroke-linecap: square"/>
     </g>
     <g id="line2d_2">
      <defs>
       <path id="md8644119fa" d="M 0 0 
L 0 3.5 
" style="stroke: #000000; stroke-width: 0.8"/>
      </defs>
      <g>
       <use xlink:href="#md8644119fa" x="107.429683" y="307.344331" style="stroke: #000000; stroke-width: 0.8"/>
      </g>
     </g>
     <g id="text_1">
      <!-- −0.50 -->
      <g transform="translate(92.107027 321.942768) scale(0.1 -0.1)">
       <defs>
        <path id="DejaVuSans-2212" d="M 678 2272 
L 4684 2272 
L 4684 1741 
L 678 1741 
L 678 2272 
z
" transform="scale(0.015625)"/>
        <path id="DejaVuSans-30" d="M 2034 4250 
Q 1547 4250 1301 3770 
Q 1056 3291 1056 2328 
Q 1056 1369 1301 889 
Q 1547 409 2034 409 
Q 2525 409 2770 889 
Q 3016 1369 3016 2328 
Q 3016 3291 2770 3770 
Q 2525 4250 2034 4250 
z
M 2034 4750 
Q 2819 4750 3233 4129 
Q 3647 3509 3647 2328 
Q 3647 1150 3233 529 
Q 2819 -91 2034 -91 
Q 1250 -91 836 529 
Q 422 1150 422 2328 
Q 422 3509 836 4129 
Q 1250 4750 2034 4750 
z
" transform="scale(0.015625)"/>
        <path id="DejaVuSans-2e" d="M 684 794 
L 1344 794 
L 1344 0 
L 684 0 
L 684 794 
z
" transform="scale(0.015625)"/>
        <path id="DejaVuSans-35" d="M 691 4666 
L 3169 4666 
L 3169 4134 
L 1269 4134 
L 1269 2991 
Q 1406 3038 1543 3061 
Q 1681 3084 1819 3084 
Q 2600 3084 3056 2656 
Q 3513 2228 3513 1497 
Q 3513 744 3044 326 
Q 2575 -91 1722 -91 
Q 1428 -91 1123 -41 
Q 819 9 494 109 
L 494 744 
Q 775 591 1075 516 
Q 1375 441 1709 441 
Q 2250 441 2565 725 
Q 2881 1009 2881 1497 
Q 2881 1984 2565 2268 
Q 2250 2553 1709 2553 
Q 1456 2553 1204 2497 
Q 953 2441 691 2322 
L 691 4666 
z
" transform="scale(0.015625)"/>
       </defs>
       <use xlink:href="#DejaVuSans-2212"/>
       <use xlink:href="#DejaVuSans-30" transform="translate(83.789062 0)"/>
       <use xlink:href="#DejaVuSans-2e" transform="translate(147.412109 0)"/>
       <use xlink:href="#DejaVuSans-35" transform="translate(179.199219 0)"/>
       <use xlink:href="#DejaVuSans-30" transform="translate(242.822266 0)"/>
      </g>
     </g>
    </g>
    <g id="xtick_2">
     <g id="line2d_3">
      <path d="M 173.721282 307.344331 
L 173.721282 41.439685 
" clip-path="url(#p2ed13251a8)" style="fill: none; stroke: #b0b0b0; stroke-width: 0.8; stroke-linecap: square"/>
     </g>
     <g id="line2d_4">
      <g>
       <use xlink:href="#md8644119fa" x="173.721282" y="307.344331" style="stroke: #000000; stroke-width: 0.8"/>
      </g>
     </g>
     <g id="text_2">
      <!-- −0.45 -->
      <g transform="translate(158.398625 321.942768) scale(0.1 -0.1)">
       <defs>
        <path id="DejaVuSans-34" d="M 2419 4116 
L 825 1625 
L 2419 1625 
L 2419 4116 
z
M 2253 4666 
L 3047 4666 
L 3047 1625 
L 3713 1625 
L 3713 1100 
L 3047 1100 
L 3047 0 
L 2419 0 
L 2419 1100 
L 313 1100 
L 313 1709 
L 2253 4666 
z
" transform="scale(0.015625)"/>
       </defs>
       <use xlink:href="#DejaVuSans-2212"/>
       <use xlink:href="#DejaVuSans-30" transform="translate(83.789062 0)"/>
       <use xlink:href="#DejaVuSans-2e" transform="translate(147.412109 0)"/>
       <use xlink:href="#DejaVuSans-34" transform="translate(179.199219 0)"/>
       <use xlink:href="#DejaVuSans-35" transform="translate(242.822266 0)"/>
      </g>
     </g>
    </g>
    <g id="xtick_3">
     <g id="line2d_5">
      <path d="M 240.01288 307.344331 
L 240.01288 41.439685 
" clip-path="url(#p2ed13251a8)" style="fill: none; stroke: #b0b0b0; stroke-width: 0.8; stroke-linecap: square"/>
     </g>
     <g id="line2d_6">
      <g>
       <use xlink:href="#md8644119fa" x="240.01288" y="307.344331" style="stroke: #000000; stroke-width: 0.8"/>
      </g>
     </g>
     <g id="text_3">
      <!-- −0.40 -->
      <g transform="translate(224.690224 321.942768) scale(0.1 -0.1)">
       <use xlink:href="#DejaVuSans-2212"/>
       <use xlink:href="#DejaVuSans-30" transform="translate(83.789062 0)"/>
       <use xlink:href="#DejaVuSans-2e" transform="translate(147.412109 0)"/>
       <use xlink:href="#DejaVuSans-34" transform="translate(179.199219 0)"/>
       <use xlink:href="#DejaVuSans-30" transform="translate(242.822266 0)"/>
      </g>
     </g>
    </g>
    <g id="xtick_4">
     <g id="line2d_7">
      <path d="M 306.304479 307.344331 
L 306.304479 41.439685 
" clip-path="url(#p2ed13251a8)" style="fill: none; stroke: #b0b0b0; stroke-width: 0.8; stroke-linecap: square"/>
     </g>
     <g id="line2d_8">
      <g>
       <use xlink:href="#md8644119fa" x="306.304479" y="307.344331" style="stroke: #000000; stroke-width: 0.8"/>
      </g>
     </g>
     <g id="text_4">
      <!-- −0.35 -->
      <g transform="translate(290.981823 321.942768) scale(0.1 -0.1)">
       <defs>
        <path id="DejaVuSans-33" d="M 2597 2516 
Q 3050 2419 3304 2112 
Q 3559 1806 3559 1356 
Q 3559 666 3084 287 
Q 2609 -91 1734 -91 
Q 1441 -91 1130 -33 
Q 819 25 488 141 
L 488 750 
Q 750 597 1062 519 
Q 1375 441 1716 441 
Q 2309 441 2620 675 
Q 2931 909 2931 1356 
Q 2931 1769 2642 2001 
Q 2353 2234 1838 2234 
L 1294 2234 
L 1294 2753 
L 1863 2753 
Q 2328 2753 2575 2939 
Q 2822 3125 2822 3475 
Q 2822 3834 2567 4026 
Q 2313 4219 1838 4219 
Q 1578 4219 1281 4162 
Q 984 4106 628 3988 
L 628 4550 
Q 988 4650 1302 4700 
Q 1616 4750 1894 4750 
Q 2613 4750 3031 4423 
Q 3450 4097 3450 3541 
Q 3450 3153 3228 2886 
Q 3006 2619 2597 2516 
z
" transform="scale(0.015625)"/>
       </defs>
       <use xlink:href="#DejaVuSans-2212"/>
       <use xlink:href="#DejaVuSans-30" transform="translate(83.789062 0)"/>
       <use xlink:href="#DejaVuSans-2e" transform="translate(147.412109 0)"/>
       <use xlink:href="#DejaVuSans-33" transform="translate(179.199219 0)"/>
       <use xlink:href="#DejaVuSans-35" transform="translate(242.822266 0)"/>
      </g>
     </g>
    </g>
    <g id="xtick_5">
     <g id="line2d_9">
      <path d="M 372.596078 307.344331 
L 372.596078 41.439685 
" clip-path="url(#p2ed13251a8)" style="fill: none; stroke: #b0b0b0; stroke-width: 0.8; stroke-linecap: square"/>
     </g>
     <g id="line2d_10">
      <g>
       <use xlink:href="#md8644119fa" x="372.596078" y="307.344331" style="stroke: #000000; stroke-width: 0.8"/>
      </g>
     </g>
     <g id="text_5">
      <!-- −0.30 -->
      <g transform="translate(357.273422 321.942768) scale(0.1 -0.1)">
       <use xlink:href="#DejaVuSans-2212"/>
       <use xlink:href="#DejaVuSans-30" transform="translate(83.789062 0)"/>
       <use xlink:href="#DejaVuSans-2e" transform="translate(147.412109 0)"/>
       <use xlink:href="#DejaVuSans-33" transform="translate(179.199219 0)"/>
       <use xlink:href="#DejaVuSans-30" transform="translate(242.822266 0)"/>
      </g>
     </g>
    </g>
    <g id="text_6">
     <!-- Normalized Frequency -->
     <g transform="translate(180.094504 335.620893) scale(0.1 -0.1)">
      <defs>
       <path id="DejaVuSans-4e" d="M 628 4666 
L 1478 4666 
L 3547 763 
L 3547 4666 
L 4159 4666 
L 4159 0 
L 3309 0 
L 1241 3903 
L 1241 0 
L 628 0 
L 628 4666 
z
" transform="scale(0.015625)"/>
       <path id="DejaVuSans-6f" d="M 1959 3097 
Q 1497 3097 1228 2736 
Q 959 2375 959 1747 
Q 959 1119 1226 758 
Q 1494 397 1959 397 
Q 2419 397 2687 759 
Q 2956 1122 2956 1747 
Q 2956 2369 2687 2733 
Q 2419 3097 1959 3097 
z
M 1959 3584 
Q 2709 3584 3137 3096 
Q 3566 2609 3566 1747 
Q 3566 888 3137 398 
Q 2709 -91 1959 -91 
Q 1206 -91 779 398 
Q 353 888 353 1747 
Q 353 2609 779 3096 
Q 1206 3584 1959 3584 
z
" transform="scale(0.015625)"/>
       <path id="DejaVuSans-72" d="M 2631 2963 
Q 2534 3019 2420 3045 
Q 2306 3072 2169 3072 
Q 1681 3072 1420 2755 
Q 1159 2438 1159 1844 
L 1159 0 
L 581 0 
L 581 3500 
L 1159 3500 
L 1159 2956 
Q 1341 3275 1631 3429 
Q 1922 3584 2338 3584 
Q 2397 3584 2469 3576 
Q 2541 3569 2628 3553 
L 2631 2963 
z
" transform="scale(0.015625)"/>
       <path id="DejaVuSans-6d" d="M 3328 2828 
Q 3544 3216 3844 3400 
Q 4144 3584 4550 3584 
Q 5097 3584 5394 3201 
Q 5691 2819 5691 2113 
L 5691 0 
L 5113 0 
L 5113 2094 
Q 5113 2597 4934 2840 
Q 4756 3084 4391 3084 
Q 3944 3084 3684 2787 
Q 3425 2491 3425 1978 
L 3425 0 
L 2847 0 
L 2847 2094 
Q 2847 2600 2669 2842 
Q 2491 3084 2119 3084 
Q 1678 3084 1418 2786 
Q 1159 2488 1159 1978 
L 1159 0 
L 581 0 
L 581 3500 
L 1159 3500 
L 1159 2956 
Q 1356 3278 1631 3431 
Q 1906 3584 2284 3584 
Q 2666 3584 2933 3390 
Q 3200 3197 3328 2828 
z
" transform="scale(0.015625)"/>
       <path id="DejaVuSans-61" d="M 2194 1759 
Q 1497 1759 1228 1600 
Q 959 1441 959 1056 
Q 959 750 1161 570 
Q 1363 391 1709 391 
Q 2188 391 2477 730 
Q 2766 1069 2766 1631 
L 2766 1759 
L 2194 1759 
z
M 3341 1997 
L 3341 0 
L 2766 0 
L 2766 531 
Q 2569 213 2275 61 
Q 1981 -91 1556 -91 
Q 1019 -91 701 211 
Q 384 513 384 1019 
Q 384 1609 779 1909 
Q 1175 2209 1959 2209 
L 2766 2209 
L 2766 2266 
Q 2766 2663 2505 2880 
Q 2244 3097 1772 3097 
Q 1472 3097 1187 3025 
Q 903 2953 641 2809 
L 641 3341 
Q 956 3463 1253 3523 
Q 1550 3584 1831 3584 
Q 2591 3584 2966 3190 
Q 3341 2797 3341 1997 
z
" transform="scale(0.015625)"/>
       <path id="DejaVuSans-6c" d="M 603 4863 
L 1178 4863 
L 1178 0 
L 603 0 
L 603 4863 
z
" transform="scale(0.015625)"/>
       <path id="DejaVuSans-69" d="M 603 3500 
L 1178 3500 
L 1178 0 
L 603 0 
L 603 3500 
z
M 603 4863 
L 1178 4863 
L 1178 4134 
L 603 4134 
L 603 4863 
z
" transform="scale(0.015625)"/>
       <path id="DejaVuSans-7a" d="M 353 3500 
L 3084 3500 
L 3084 2975 
L 922 459 
L 3084 459 
L 3084 0 
L 275 0 
L 275 525 
L 2438 3041 
L 353 3041 
L 353 3500 
z
" transform="scale(0.015625)"/>
       <path id="DejaVuSans-65" d="M 3597 1894 
L 3597 1613 
L 953 1613 
Q 991 1019 1311 708 
Q 1631 397 2203 397 
Q 2534 397 2845 478 
Q 3156 559 3463 722 
L 3463 178 
Q 3153 47 2828 -22 
Q 2503 -91 2169 -91 
Q 1331 -91 842 396 
Q 353 884 353 1716 
Q 353 2575 817 3079 
Q 1281 3584 2069 3584 
Q 2775 3584 3186 3129 
Q 3597 2675 3597 1894 
z
M 3022 2063 
Q 3016 2534 2758 2815 
Q 2500 3097 2075 3097 
Q 1594 3097 1305 2825 
Q 1016 2553 972 2059 
L 3022 2063 
z
" transform="scale(0.015625)"/>
       <path id="DejaVuSans-64" d="M 2906 2969 
L 2906 4863 
L 3481 4863 
L 3481 0 
L 2906 0 
L 2906 525 
Q 2725 213 2448 61 
Q 2172 -91 1784 -91 
Q 1150 -91 751 415 
Q 353 922 353 1747 
Q 353 2572 751 3078 
Q 1150 3584 1784 3584 
Q 2172 3584 2448 3432 
Q 2725 3281 2906 2969 
z
M 947 1747 
Q 947 1113 1208 752 
Q 1469 391 1925 391 
Q 2381 391 2643 752 
Q 2906 1113 2906 1747 
Q 2906 2381 2643 2742 
Q 2381 3103 1925 3103 
Q 1469 3103 1208 2742 
Q 947 2381 947 1747 
z
" transform="scale(0.015625)"/>
       <path id="DejaVuSans-20" transform="scale(0.015625)"/>
       <path id="DejaVuSans-46" d="M 628 4666 
L 3309 4666 
L 3309 4134 
L 1259 4134 
L 1259 2759 
L 3109 2759 
L 3109 2228 
L 1259 2228 
L 1259 0 
L 628 0 
L 628 4666 
z
" transform="scale(0.015625)"/>
       <path id="DejaVuSans-71" d="M 947 1747 
Q 947 1113 1208 752 
Q 1469 391 1925 391 
Q 2381 391 2643 752 
Q 2906 1113 2906 1747 
Q 2906 2381 2643 2742 
Q 2381 3103 1925 3103 
Q 1469 3103 1208 2742 
Q 947 2381 947 1747 
z
M 2906 525 
Q 2725 213 2448 61 
Q 2172 -91 1784 -91 
Q 1150 -91 751 415 
Q 353 922 353 1747 
Q 353 2572 751 3078 
Q 1150 3584 1784 3584 
Q 2172 3584 2448 3432 
Q 2725 3281 2906 2969 
L 2906 3500 
L 3481 3500 
L 3481 -1331 
L 2906 -1331 
L 2906 525 
z
" transform="scale(0.015625)"/>
       <path id="DejaVuSans-75" d="M 544 1381 
L 544 3500 
L 1119 3500 
L 1119 1403 
Q 1119 906 1312 657 
Q 1506 409 1894 409 
Q 2359 409 2629 706 
Q 2900 1003 2900 1516 
L 2900 3500 
L 3475 3500 
L 3475 0 
L 2900 0 
L 2900 538 
Q 2691 219 2414 64 
Q 2138 -91 1772 -91 
Q 1169 -91 856 284 
Q 544 659 544 1381 
z
M 1991 3584 
L 1991 3584 
z
" transform="scale(0.015625)"/>
       <path id="DejaVuSans-6e" d="M 3513 2113 
L 3513 0 
L 2938 0 
L 2938 2094 
Q 2938 2591 2744 2837 
Q 2550 3084 2163 3084 
Q 1697 3084 1428 2787 
Q 1159 2491 1159 1978 
L 1159 0 
L 581 0 
L 581 3500 
L 1159 3500 
L 1159 2956 
Q 1366 3272 1645 3428 
Q 1925 3584 2291 3584 
Q 2894 3584 3203 3211 
Q 3513 2838 3513 2113 
z
" transform="scale(0.015625)"/>
       <path id="DejaVuSans-63" d="M 3122 3366 
L 3122 2828 
Q 2878 2963 2633 3030 
Q 2388 3097 2138 3097 
Q 1578 3097 1268 2742 
Q 959 2388 959 1747 
Q 959 1106 1268 751 
Q 1578 397 2138 397 
Q 2388 397 2633 464 
Q 2878 531 3122 666 
L 3122 134 
Q 2881 22 2623 -34 
Q 2366 -91 2075 -91 
Q 1284 -91 818 406 
Q 353 903 353 1747 
Q 353 2603 823 3093 
Q 1294 3584 2113 3584 
Q 2378 3584 2631 3529 
Q 2884 3475 3122 3366 
z
" transform="scale(0.015625)"/>
       <path id="DejaVuSans-79" d="M 2059 -325 
Q 1816 -950 1584 -1140 
Q 1353 -1331 966 -1331 
L 506 -1331 
L 506 -850 
L 844 -850 
Q 1081 -850 1212 -737 
Q 1344 -625 1503 -206 
L 1606 56 
L 191 3500 
L 800 3500 
L 1894 763 
L 2988 3500 
L 3597 3500 
L 2059 -325 
z
" transform="scale(0.015625)"/>
      </defs>
      <use xlink:href="#DejaVuSans-4e"/>
      <use xlink:href="#DejaVuSans-6f" transform="translate(74.804688 0)"/>
      <use xlink:href="#DejaVuSans-72" transform="translate(135.986328 0)"/>
      <use xlink:href="#DejaVuSans-6d" transform="translate(175.349609 0)"/>
      <use xlink:href="#DejaVuSans-61" transform="translate(272.761719 0)"/>
      <use xlink:href="#DejaVuSans-6c" transform="translate(334.041016 0)"/>
      <use xlink:href="#DejaVuSans-69" transform="translate(361.824219 0)"/>
      <use xlink:href="#DejaVuSans-7a" transform="translate(389.607422 0)"/>
      <use xlink:href="#DejaVuSans-65" transform="translate(442.097656 0)"/>
      <use xlink:href="#DejaVuSans-64" transform="translate(503.621094 0)"/>
      <use xlink:href="#DejaVuSans-20" transform="translate(567.097656 0)"/>
      <use xlink:href="#DejaVuSans-46" transform="translate(598.884766 0)"/>
      <use xlink:href="#DejaVuSans-72" transform="translate(649.154297 0)"/>
      <use xlink:href="#DejaVuSans-65" transform="translate(688.017578 0)"/>
      <use xlink:href="#DejaVuSans-71" transform="translate(749.541016 0)"/>
      <use xlink:href="#DejaVuSans-75" transform="translate(813.017578 0)"/>
      <use xlink:href="#DejaVuSans-65" transform="translate(876.396484 0)"/>
      <use xlink:href="#DejaVuSans-6e" transform="translate(937.919922 0)"/>
      <use xlink:href="#DejaVuSans-63" transform="translate(1001.298828 0)"/>
      <use xlink:href="#DejaVuSans-79" transform="translate(1056.279297 0)"/>
     </g>
    </g>
   </g>
   <g id="matplotlib.axis_2">
    <g id="ytick_1">
     <g id="line2d_11">
      <path d="M 57.528957 299.980454 
L 414.208488 299.980454 
" clip-path="url(#p2ed13251a8)" style="fill: none; stroke: #b0b0b0; stroke-width: 0.8; stroke-linecap: square"/>
     </g>
     <g id="line2d_12">
      <defs>
       <path id="mfeacf32bf0" d="M 0 0 
L -3.5 0 
" style="stroke: #000000; stroke-width: 0.8"/>
      </defs>
      <g>
       <use xlink:href="#mfeacf32bf0" x="57.528957" y="299.980454" style="stroke: #000000; stroke-width: 0.8"/>
      </g>
     </g>
     <g id="text_7">
      <!-- −150 -->
      <g transform="translate(23.061769 303.779673) scale(0.1 -0.1)">
       <defs>
        <path id="DejaVuSans-31" d="M 794 531 
L 1825 531 
L 1825 4091 
L 703 3866 
L 703 4441 
L 1819 4666 
L 2450 4666 
L 2450 531 
L 3481 531 
L 3481 0 
L 794 0 
L 794 531 
z
" transform="scale(0.015625)"/>
       </defs>
       <use xlink:href="#DejaVuSans-2212"/>
       <use xlink:href="#DejaVuSans-31" transform="translate(83.789062 0)"/>
       <use xlink:href="#DejaVuSans-35" transform="translate(147.412109 0)"/>
       <use xlink:href="#DejaVuSans-30" transform="translate(211.035156 0)"/>
      </g>
     </g>
    </g>
    <g id="ytick_2">
     <g id="line2d_13">
      <path d="M 57.528957 268.663543 
L 414.208488 268.663543 
" clip-path="url(#p2ed13251a8)" style="fill: none; stroke: #b0b0b0; stroke-width: 0.8; stroke-linecap: square"/>
     </g>
     <g id="line2d_14">
      <g>
       <use xlink:href="#mfeacf32bf0" x="57.528957" y="268.663543" style="stroke: #000000; stroke-width: 0.8"/>
      </g>
     </g>
     <g id="text_8">
      <!-- −140 -->
      <g transform="translate(23.061769 272.462762) scale(0.1 -0.1)">
       <use xlink:href="#DejaVuSans-2212"/>
       <use xlink:href="#DejaVuSans-31" transform="translate(83.789062 0)"/>
       <use xlink:href="#DejaVuSans-34" transform="translate(147.412109 0)"/>
       <use xlink:href="#DejaVuSans-30" transform="translate(211.035156 0)"/>
      </g>
     </g>
    </g>
    <g id="ytick_3">
     <g id="line2d_15">
      <path d="M 57.528957 237.346632 
L 414.208488 237.346632 
" clip-path="url(#p2ed13251a8)" style="fill: none; stroke: #b0b0b0; stroke-width: 0.8; stroke-linecap: square"/>
     </g>
     <g id="line2d_16">
      <g>
       <use xlink:href="#mfeacf32bf0" x="57.528957" y="237.346632" style="stroke: #000000; stroke-width: 0.8"/>
      </g>
     </g>
     <g id="text_9">
      <!-- −130 -->
      <g transform="translate(23.061769 241.145851) scale(0.1 -0.1)">
       <use xlink:href="#DejaVuSans-2212"/>
       <use xlink:href="#DejaVuSans-31" transform="translate(83.789062 0)"/>
       <use xlink:href="#DejaVuSans-33" transform="translate(147.412109 0)"/>
       <use xlink:href="#DejaVuSans-30" transform="translate(211.035156 0)"/>
      </g>
     </g>
    </g>
    <g id="ytick_4">
     <g id="line2d_17">
      <path d="M 57.528957 206.029721 
L 414.208488 206.029721 
" clip-path="url(#p2ed13251a8)" style="fill: none; stroke: #b0b0b0; stroke-width: 0.8; stroke-linecap: square"/>
     </g>
     <g id="line2d_18">
      <g>
       <use xlink:href="#mfeacf32bf0" x="57.528957" y="206.029721" style="stroke: #000000; stroke-width: 0.8"/>
      </g>
     </g>
     <g id="text_10">
      <!-- −120 -->
      <g transform="translate(23.061769 209.82894) scale(0.1 -0.1)">
       <defs>
        <path id="DejaVuSans-32" d="M 1228 531 
L 3431 531 
L 3431 0 
L 469 0 
L 469 531 
Q 828 903 1448 1529 
Q 2069 2156 2228 2338 
Q 2531 2678 2651 2914 
Q 2772 3150 2772 3378 
Q 2772 3750 2511 3984 
Q 2250 4219 1831 4219 
Q 1534 4219 1204 4116 
Q 875 4013 500 3803 
L 500 4441 
Q 881 4594 1212 4672 
Q 1544 4750 1819 4750 
Q 2544 4750 2975 4387 
Q 3406 4025 3406 3419 
Q 3406 3131 3298 2873 
Q 3191 2616 2906 2266 
Q 2828 2175 2409 1742 
Q 1991 1309 1228 531 
z
" transform="scale(0.015625)"/>
       </defs>
       <use xlink:href="#DejaVuSans-2212"/>
       <use xlink:href="#DejaVuSans-31" transform="translate(83.789062 0)"/>
       <use xlink:href="#DejaVuSans-32" transform="translate(147.412109 0)"/>
       <use xlink:href="#DejaVuSans-30" transform="translate(211.035156 0)"/>
      </g>
     </g>
    </g>
    <g id="ytick_5">
     <g id="line2d_19">
      <path d="M 57.528957 174.712811 
L 414.208488 174.712811 
" clip-path="url(#p2ed13251a8)" style="fill: none; stroke: #b0b0b0; stroke-width: 0.8; stroke-linecap: square"/>
     </g>
     <g id="line2d_20">
      <g>
       <use xlink:href="#mfeacf32bf0" x="57.528957" y="174.712811" style="stroke: #000000; stroke-width: 0.8"/>
      </g>
     </g>
     <g id="text_11">
      <!-- −110 -->
      <g transform="translate(23.061769 178.512029) scale(0.1 -0.1)">
       <use xlink:href="#DejaVuSans-2212"/>
       <use xlink:href="#DejaVuSans-31" transform="translate(83.789062 0)"/>
       <use xlink:href="#DejaVuSans-31" transform="translate(147.412109 0)"/>
       <use xlink:href="#DejaVuSans-30" transform="translate(211.035156 0)"/>
      </g>
     </g>
    </g>
    <g id="ytick_6">
     <g id="line2d_21">
      <path d="M 57.528957 143.3959 
L 414.208488 143.3959 
" clip-path="url(#p2ed13251a8)" style="fill: none; stroke: #b0b0b0; stroke-width: 0.8; stroke-linecap: square"/>
     </g>
     <g id="line2d_22">
      <g>
       <use xlink:href="#mfeacf32bf0" x="57.528957" y="143.3959" style="stroke: #000000; stroke-width: 0.8"/>
      </g>
     </g>
     <g id="text_12">
      <!-- −100 -->
      <g transform="translate(23.061769 147.195118) scale(0.1 -0.1)">
       <use xlink:href="#DejaVuSans-2212"/>
       <use xlink:href="#DejaVuSans-31" transform="translate(83.789062 0)"/>
       <use xlink:href="#DejaVuSans-30" transform="translate(147.412109 0)"/>
       <use xlink:href="#DejaVuSans-30" transform="translate(211.035156 0)"/>
      </g>
     </g>
    </g>
    <g id="ytick_7">
     <g id="line2d_23">
      <path d="M 57.528957 112.078989 
L 414.208488 112.078989 
" clip-path="url(#p2ed13251a8)" style="fill: none; stroke: #b0b0b0; stroke-width: 0.8; stroke-linecap: square"/>
     </g>
     <g id="line2d_24">
      <g>
       <use xlink:href="#mfeacf32bf0" x="57.528957" y="112.078989" style="stroke: #000000; stroke-width: 0.8"/>
      </g>
     </g>
     <g id="text_13">
      <!-- −90 -->
      <g transform="translate(29.424269 115.878207) scale(0.1 -0.1)">
       <defs>
        <path id="DejaVuSans-39" d="M 703 97 
L 703 672 
Q 941 559 1184 500 
Q 1428 441 1663 441 
Q 2288 441 2617 861 
Q 2947 1281 2994 2138 
Q 2813 1869 2534 1725 
Q 2256 1581 1919 1581 
Q 1219 1581 811 2004 
Q 403 2428 403 3163 
Q 403 3881 828 4315 
Q 1253 4750 1959 4750 
Q 2769 4750 3195 4129 
Q 3622 3509 3622 2328 
Q 3622 1225 3098 567 
Q 2575 -91 1691 -91 
Q 1453 -91 1209 -44 
Q 966 3 703 97 
z
M 1959 2075 
Q 2384 2075 2632 2365 
Q 2881 2656 2881 3163 
Q 2881 3666 2632 3958 
Q 2384 4250 1959 4250 
Q 1534 4250 1286 3958 
Q 1038 3666 1038 3163 
Q 1038 2656 1286 2365 
Q 1534 2075 1959 2075 
z
" transform="scale(0.015625)"/>
       </defs>
       <use xlink:href="#DejaVuSans-2212"/>
       <use xlink:href="#DejaVuSans-39" transform="translate(83.789062 0)"/>
       <use xlink:href="#DejaVuSans-30" transform="translate(147.412109 0)"/>
      </g>
     </g>
    </g>
    <g id="ytick_8">
     <g id="line2d_25">
      <path d="M 57.528957 80.762078 
L 414.208488 80.762078 
" clip-path="url(#p2ed13251a8)" style="fill: none; stroke: #b0b0b0; stroke-width: 0.8; stroke-linecap: square"/>
     </g>
     <g id="line2d_26">
      <g>
       <use xlink:href="#mfeacf32bf0" x="57.528957" y="80.762078" style="stroke: #000000; stroke-width: 0.8"/>
      </g>
     </g>
     <g id="text_14">
      <!-- −80 -->
      <g transform="translate(29.424269 84.561297) scale(0.1 -0.1)">
       <defs>
        <path id="DejaVuSans-38" d="M 2034 2216 
Q 1584 2216 1326 1975 
Q 1069 1734 1069 1313 
Q 1069 891 1326 650 
Q 1584 409 2034 409 
Q 2484 409 2743 651 
Q 3003 894 3003 1313 
Q 3003 1734 2745 1975 
Q 2488 2216 2034 2216 
z
M 1403 2484 
Q 997 2584 770 2862 
Q 544 3141 544 3541 
Q 544 4100 942 4425 
Q 1341 4750 2034 4750 
Q 2731 4750 3128 4425 
Q 3525 4100 3525 3541 
Q 3525 3141 3298 2862 
Q 3072 2584 2669 2484 
Q 3125 2378 3379 2068 
Q 3634 1759 3634 1313 
Q 3634 634 3220 271 
Q 2806 -91 2034 -91 
Q 1263 -91 848 271 
Q 434 634 434 1313 
Q 434 1759 690 2068 
Q 947 2378 1403 2484 
z
M 1172 3481 
Q 1172 3119 1398 2916 
Q 1625 2713 2034 2713 
Q 2441 2713 2670 2916 
Q 2900 3119 2900 3481 
Q 2900 3844 2670 4047 
Q 2441 4250 2034 4250 
Q 1625 4250 1398 4047 
Q 1172 3844 1172 3481 
z
" transform="scale(0.015625)"/>
       </defs>
       <use xlink:href="#DejaVuSans-2212"/>
       <use xlink:href="#DejaVuSans-38" transform="translate(83.789062 0)"/>
       <use xlink:href="#DejaVuSans-30" transform="translate(147.412109 0)"/>
      </g>
     </g>
    </g>
    <g id="ytick_9">
     <g id="line2d_27">
      <path d="M 57.528957 49.445167 
L 414.208488 49.445167 
" clip-path="url(#p2ed13251a8)" style="fill: none; stroke: #b0b0b0; stroke-width: 0.8; stroke-linecap: square"/>
     </g>
     <g id="line2d_28">
      <g>
       <use xlink:href="#mfeacf32bf0" x="57.528957" y="49.445167" style="stroke: #000000; stroke-width: 0.8"/>
      </g>
     </g>
     <g id="text_15">
      <!-- −70 -->
      <g transform="translate(29.424269 53.244386) scale(0.1 -0.1)">
       <defs>
        <path id="DejaVuSans-37" d="M 525 4666 
L 3525 4666 
L 3525 4397 
L 1831 0 
L 1172 0 
L 2766 4134 
L 525 4134 
L 525 4666 
z
" transform="scale(0.015625)"/>
       </defs>
       <use xlink:href="#DejaVuSans-2212"/>
       <use xlink:href="#DejaVuSans-37" transform="translate(83.789062 0)"/>
       <use xlink:href="#DejaVuSans-30" transform="translate(147.412109 0)"/>
      </g>
     </g>
    </g>
   </g>
   <g id="line2d_29">
    <path d="M 107.429683 69.270144 
L 108.724441 69.439855 
L 110.019198 69.952894 
L 111.313956 70.821356 
L 112.608714 72.06675 
L 113.903472 73.72235 
L 115.19823 75.837256 
L 116.492987 78.483332 
L 117.787745 81.76747 
L 119.082503 85.854492 
L 120.377261 91.013831 
L 121.672019 97.727026 
L 122.319397 101.938316 
L 122.966776 106.985376 
L 123.614155 113.240488 
L 124.261534 121.415518 
L 124.908913 133.164055 
L 125.556292 154.198213 
L 126.203671 204.20789 
L 126.85105 146.932388 
L 127.498429 129.963606 
L 128.145807 119.745265 
L 128.793186 112.473697 
L 129.440565 106.872841 
L 130.735323 98.606413 
L 132.030081 92.703693 
L 133.324839 88.280282 
L 134.619596 84.897866 
L 135.914354 82.309346 
L 137.209112 80.364011 
L 138.50387 78.96566 
L 139.798628 78.051904 
L 141.093385 77.583186 
L 142.388143 77.536779 
L 143.682901 77.903653 
L 144.977659 78.68725 
L 146.272417 79.903823 
L 147.567174 81.584429 
L 148.861932 83.77915 
L 150.15669 86.564891 
L 151.451448 90.059732 
L 152.746205 94.450658 
L 154.040963 100.052087 
L 155.335721 107.447173 
L 155.9831 112.161422 
L 156.630479 117.90866 
L 157.277858 125.222435 
L 157.925237 135.230088 
L 158.572615 151.091694 
L 159.219994 192.665383 
L 160.514752 143.73222 
L 161.162131 131.582205 
L 161.80951 123.421968 
L 162.456889 117.343444 
L 163.104268 112.556648 
L 164.399026 105.412382 
L 165.693783 100.340671 
L 166.988541 96.63912 
L 168.283299 93.948182 
L 169.578057 92.064891 
L 170.225436 91.386606 
L 170.872814 90.869954 
L 171.520193 90.507776 
L 172.167572 90.295071 
L 172.814951 90.228753 
L 173.46233 90.307503 
L 174.109709 90.531708 
L 174.757088 90.903481 
L 175.404467 91.426751 
L 176.051846 92.107455 
L 177.346603 93.976843 
L 178.641361 96.614408 
L 179.936119 100.194591 
L 181.230877 105.020866 
L 181.878256 108.06207 
L 182.525635 111.665522 
L 183.173013 116.009652 
L 183.820392 121.386612 
L 184.467771 128.32453 
L 185.11515 137.937219 
L 185.762529 153.331467 
L 186.409908 193.57702 
L 187.704666 145.443259 
L 188.352045 132.875218 
L 188.999424 124.338219 
L 189.646802 117.89675 
L 190.94156 108.496291 
L 192.236318 101.792359 
L 193.531076 96.728667 
L 194.825834 92.80049 
L 196.120591 89.729201 
L 197.415349 87.346926 
L 198.710107 85.547146 
L 200.004865 84.260789 
L 201.299623 83.443694 
L 202.59438 83.069808 
L 203.889138 83.127585 
L 205.183896 83.618484 
L 206.478654 84.557107 
L 207.773411 85.973037 
L 209.068169 87.914898 
L 210.362927 90.457928 
L 211.657685 93.717958 
L 212.952443 97.878359 
L 214.2472 103.246697 
L 215.541958 110.390611 
L 216.189337 114.961176 
L 216.836716 120.538146 
L 217.484095 127.627663 
L 218.131474 137.282222 
L 218.778853 152.359699 
L 219.426232 188.606476 
L 220.07361 173.225624 
L 220.720989 147.834932 
L 221.368368 135.150903 
L 222.015747 126.729186 
L 222.663126 120.490786 
L 223.310505 115.595462 
L 224.605263 108.319295 
L 225.900021 103.188069 
L 227.194778 99.483369 
L 228.489536 96.844018 
L 229.784294 95.072513 
L 230.431673 94.475943 
L 231.079052 94.0607 
L 231.726431 93.822041 
L 232.373809 93.757938 
L 233.021188 93.868965 
L 233.668567 94.158327 
L 234.315946 94.632054 
L 234.963325 95.299359 
L 235.610704 96.173227 
L 236.258083 97.271306 
L 236.905462 98.617243 
L 237.552841 100.242705 
L 238.20022 102.190494 
L 238.847598 104.51951 
L 239.494977 107.313005 
L 240.142356 110.693133 
L 240.789735 114.848498 
L 241.437114 120.09177 
L 242.084493 126.997864 
L 242.731872 136.812532 
L 243.379251 153.206959 
L 244.02663 206.101106 
L 244.674008 161.383303 
L 245.321387 139.639777 
L 245.968766 127.50829 
L 246.616145 119.028732 
L 247.263524 112.503697 
L 248.558282 102.760738 
L 249.85304 95.608781 
L 251.147797 90.04291 
L 252.442555 85.574872 
L 253.737313 81.930861 
L 255.032071 78.942628 
L 256.326829 76.50025 
L 257.621586 74.528917 
L 258.916344 72.976457 
L 260.211102 71.806192 
L 261.50586 70.992654 
L 262.800617 70.518954 
L 264.095375 70.375168 
L 265.390133 70.557418 
L 266.684891 71.067453 
L 267.979649 71.912661 
L 269.274406 73.106506 
L 270.569164 74.669467 
L 271.863922 76.630624 
L 273.15868 79.030229 
L 274.453438 81.923814 
L 275.748195 85.388945 
L 277.042953 89.536816 
L 278.337711 94.533433 
L 279.632469 100.641788 
L 280.927227 108.3164 
L 282.221984 118.455542 
L 282.869363 125.031269 
L 283.516742 133.296649 
L 284.164121 144.502399 
L 284.8115 162.323623 
L 285.458879 216.633509 
L 286.106258 173.526992 
L 286.753637 153.365809 
L 287.401015 142.891897 
L 288.048394 136.152525 
L 288.695773 131.462844 
L 289.343152 128.112476 
L 289.990531 125.742208 
L 290.63791 124.153378 
L 291.285289 123.234078 
L 291.932668 122.926911 
L 292.580047 123.214969 
L 293.227426 124.118001 
L 293.874804 125.696822 
L 294.522183 128.068225 
L 295.169562 131.439024 
L 295.816941 136.184346 
L 296.46432 143.052314 
L 297.111699 153.848093 
L 297.759078 175.243107 
L 298.406457 206.638546 
L 299.053836 160.134302 
L 299.701214 142.979984 
L 300.348593 132.007673 
L 300.995972 123.855193 
L 302.29073 111.921109 
L 303.585488 103.234809 
L 304.880246 96.477386 
L 306.175003 91.041504 
L 307.469761 86.596868 
L 308.764519 82.94485 
L 310.059277 79.95823 
L 311.354035 77.552522 
L 312.648792 75.670957 
L 313.94355 74.276125 
L 315.238308 73.345164 
L 316.533066 72.867046 
L 317.180445 72.797235 
L 317.827824 72.841217 
L 318.475202 73.000508 
L 319.76996 73.674452 
L 321.064718 74.845408 
L 322.359476 76.5535 
L 323.654234 78.856647 
L 324.948991 81.837294 
L 326.243749 85.613918 
L 327.538507 90.361694 
L 328.833265 96.352559 
L 330.128023 104.041948 
L 331.42278 114.289909 
L 332.070159 120.902622 
L 332.717538 129.095094 
L 333.364917 139.85905 
L 334.012296 155.761515 
L 334.659675 189.132948 
L 335.307054 187.132143 
L 335.954433 161.278076 
L 336.601811 150.804288 
L 337.24919 145.51771 
L 337.896569 143.304807 
L 338.543948 143.602558 
L 339.191327 146.608936 
L 339.838706 153.526618 
L 340.486085 168.870465 
L 341.133464 295.55992 
L 341.780843 162.425338 
L 342.428222 141.137551 
L 343.0756 127.868344 
L 343.722979 118.019744 
L 345.017737 103.549995 
L 346.312495 93.023482 
L 347.607253 84.947789 
L 348.90201 78.677765 
L 350.196768 73.915774 
L 350.844147 72.062924 
L 351.491526 70.562504 
L 352.138905 69.427681 
L 352.786284 68.683967 
L 353.433663 68.37282 
L 354.081042 68.558002 
L 354.728421 69.336941 
L 355.375799 70.861939 
L 356.023178 73.383047 
L 356.670557 77.345417 
L 357.317936 83.652464 
L 357.965315 94.617822 
L 358.612694 120.54861 
L 359.260073 122.417102 
L 359.907452 88.55725 
L 360.554831 71.986985 
L 361.202209 60.388335 
L 362.496967 43.502897 
L 363.791725 30.73746 
L 365.086483 20.184607 
L 366.381241 11.04441 
L 368.345531 -1 
L 368.345531 -1 
" clip-path="url(#p2ed13251a8)" style="fill: none; stroke: #0000ff; stroke-width: 2; stroke-linecap: square"/>
   </g>
   <g id="line2d_30">
    <path d="M 107.429683 102.019873 
L 108.077062 102.10823 
L 108.724441 102.374645 
L 109.37182 102.823234 
L 110.019198 103.461123 
L 110.666577 104.29889 
L 111.313956 105.351264 
L 111.961335 106.638179 
L 112.608714 108.186362 
L 113.256093 110.031763 
L 113.903472 112.223337 
L 114.550851 114.829194 
L 115.19823 117.947059 
L 115.845608 121.723245 
L 116.492987 126.390031 
L 117.140366 132.348084 
L 117.787745 140.380301 
L 118.435124 152.372441 
L 119.729882 202.405633 
L 120.377261 159.885898 
L 121.02464 143.840971 
L 121.672019 133.716447 
L 122.319397 126.30733 
L 122.966776 120.475237 
L 124.261534 111.631956 
L 125.556292 105.094204 
L 126.85105 100.01755 
L 128.145807 95.977176 
L 129.440565 92.730488 
L 130.735323 90.127504 
L 132.030081 88.070851 
L 133.324839 86.495805 
L 134.619596 85.359557 
L 135.914354 84.635217 
L 137.209112 84.308494 
L 138.50387 84.376098 
L 139.798628 84.845444 
L 141.093385 85.735582 
L 142.388143 87.079585 
L 143.682901 88.929087 
L 144.977659 91.362368 
L 146.272417 94.499091 
L 147.567174 98.528697 
L 148.861932 103.770459 
L 150.15669 110.819156 
L 150.804069 115.37399 
L 151.451448 120.98257 
L 152.098827 128.200745 
L 152.746205 138.218189 
L 153.393584 154.457879 
L 154.040963 201.312558 
L 154.688342 166.414107 
L 155.335721 144.059338 
L 155.9831 132.01417 
L 156.630479 123.764957 
L 157.277858 117.521746 
L 158.572615 108.400458 
L 159.867373 101.899191 
L 161.162131 96.995878 
L 162.456889 93.199117 
L 163.751647 90.236738 
L 165.046404 87.944446 
L 166.341162 86.217862 
L 167.63592 84.989219 
L 168.930678 84.215114 
L 170.225436 83.869831 
L 171.520193 83.941801 
L 172.814951 84.432092 
L 174.109709 85.354503 
L 175.404467 86.737292 
L 176.699225 88.627014 
L 177.993982 91.095706 
L 179.28874 94.254065 
L 180.583498 98.276712 
L 181.878256 103.454778 
L 183.173013 110.320189 
L 183.820392 114.693391 
L 184.467771 120.003246 
L 185.11515 126.699256 
L 185.762529 135.685231 
L 186.409908 149.260704 
L 187.057287 177.576063 
L 187.704666 182.860547 
L 188.352045 151.265089 
L 188.999424 137.185179 
L 189.646802 128.090367 
L 190.294181 121.418237 
L 190.94156 116.193589 
L 192.236318 108.387758 
L 193.531076 102.780413 
L 194.825834 98.590652 
L 196.120591 95.423203 
L 197.415349 93.053637 
L 198.710107 91.345977 
L 200.004865 90.215731 
L 201.299623 89.611643 
L 201.947001 89.497564 
L 202.59438 89.506324 
L 203.241759 89.637487 
L 203.889138 89.891724 
L 205.183896 90.777789 
L 206.478654 92.193833 
L 207.773411 94.193096 
L 209.068169 96.862141 
L 210.362927 100.339142 
L 211.657685 104.850867 
L 212.952443 110.795085 
L 213.599822 114.521867 
L 214.2472 118.955283 
L 214.894579 124.364409 
L 215.541958 131.226069 
L 216.189337 140.515019 
L 216.836716 154.790726 
L 217.484095 186.549994 
L 218.131474 181.613334 
L 218.778853 153.489338 
L 219.426232 140.143842 
L 220.07361 131.402484 
L 220.720989 124.963598 
L 221.368368 119.923475 
L 222.663126 112.437781 
L 223.957884 107.148963 
L 225.252642 103.311861 
L 226.547399 100.553486 
L 227.842157 98.669655 
L 228.489536 98.017902 
L 229.136915 97.5474 
L 229.784294 97.252856 
L 230.431673 97.131653 
L 231.079052 97.183698 
L 231.726431 97.411429 
L 232.373809 97.819945 
L 233.021188 98.41731 
L 233.668567 99.215044 
L 234.315946 100.228878 
L 234.963325 101.479894 
L 235.610704 102.996217 
L 236.258083 104.815608 
L 236.905462 106.989523 
L 237.552841 109.589735 
L 238.20022 112.7197 
L 238.847598 116.535376 
L 239.494977 121.286835 
L 240.142356 127.411843 
L 240.789735 135.786073 
L 241.437114 148.611912 
L 242.084493 175.263771 
L 242.731872 184.351102 
L 243.379251 150.594512 
L 244.02663 135.749899 
L 244.674008 126.07 
L 245.321387 118.872949 
L 246.616145 108.416369 
L 247.910903 100.909992 
L 249.205661 95.15321 
L 250.500419 90.58727 
L 251.795176 86.907635 
L 253.089934 83.931439 
L 254.384692 81.541924 
L 255.67945 79.661832 
L 256.974207 78.23947 
L 258.268965 77.240964 
L 259.563723 76.645862 
L 260.858481 76.444722 
L 262.153239 76.638062 
L 263.447996 77.236381 
L 264.742754 78.261288 
L 266.037512 79.747993 
L 267.33227 81.749844 
L 268.627028 84.3463 
L 269.921785 87.657319 
L 271.216543 91.8709 
L 272.511301 97.300939 
L 273.806059 104.526321 
L 274.453438 109.152268 
L 275.100816 114.803115 
L 275.748195 122.001003 
L 276.395574 131.841391 
L 277.042953 147.352981 
L 277.690332 186.482104 
L 278.98509 141.174512 
L 279.632469 128.81283 
L 280.279848 120.557956 
L 280.927227 114.433201 
L 281.574605 109.628599 
L 282.869363 102.508174 
L 284.164121 97.527444 
L 285.458879 93.984492 
L 286.753637 91.528216 
L 287.401015 90.644613 
L 288.048394 89.969934 
L 288.695773 89.49425 
L 289.343152 89.211266 
L 289.990531 89.117898 
L 290.63791 89.214086 
L 291.285289 89.502775 
L 291.932668 89.990089 
L 292.580047 90.685711 
L 293.227426 91.603521 
L 293.874804 92.762587 
L 294.522183 94.188679 
L 295.169562 95.916582 
L 295.816941 97.993708 
L 296.46432 100.485944 
L 297.111699 103.487569 
L 297.759078 107.139106 
L 298.406457 111.662201 
L 299.053836 117.435565 
L 299.701214 125.188366 
L 300.348593 136.631408 
L 300.995972 157.809295 
L 301.643351 200.130217 
L 302.29073 147.740133 
L 302.938109 130.751076 
L 303.585488 120.291706 
L 304.232867 112.7322 
L 304.880246 106.835389 
L 306.175003 98.000017 
L 307.469761 91.587021 
L 308.764519 86.726768 
L 310.059277 82.990204 
L 311.354035 80.139136 
L 312.648792 78.033352 
L 313.94355 76.590035 
L 314.590929 76.101627 
L 315.238308 75.764438 
L 315.885687 75.577334 
L 316.533066 75.540758 
L 317.180445 75.656741 
L 317.827824 75.928979 
L 318.475202 76.362984 
L 319.122581 76.966331 
L 319.76996 77.749018 
L 320.417339 78.723975 
L 321.712097 81.321805 
L 323.006855 84.959117 
L 324.301612 89.981876 
L 324.948991 93.197749 
L 325.59637 97.051136 
L 326.243749 101.755571 
L 326.891128 107.671464 
L 327.538507 115.481821 
L 328.185886 126.749016 
L 328.833265 146.680589 
L 329.480644 213.485301 
L 330.128023 142.449947 
L 330.775401 124.755005 
L 331.42278 114.292004 
L 332.070159 106.938101 
L 332.717538 101.3502 
L 333.364917 96.921139 
L 334.012296 93.32564 
L 335.307054 87.931984 
L 335.954433 85.928703 
L 336.601811 84.304411 
L 337.24919 83.0205 
L 337.896569 82.050807 
L 338.543948 81.378607 
L 339.191327 80.994823 
L 339.838706 80.897053 
L 340.486085 81.0892 
L 341.133464 81.581646 
L 341.780843 82.391978 
L 342.428222 83.546414 
L 343.0756 85.082199 
L 343.722979 87.051553 
L 344.370358 89.52819 
L 345.017737 92.618595 
L 345.665116 96.482636 
L 346.312495 101.374611 
L 346.959874 107.735061 
L 347.607253 116.434512 
L 348.254632 129.629898 
L 348.90201 156.24676 
L 349.549389 169.128537 
L 350.196768 135.220674 
L 350.844147 121.524628 
L 351.491526 113.436755 
L 352.138905 108.276141 
L 352.786284 105.137189 
L 353.433663 103.712407 
L 354.081042 104.037641 
L 354.728421 106.519562 
L 355.375799 112.300457 
L 356.023178 125.017172 
L 356.670557 175.698905 
L 357.317936 125.809724 
L 357.965315 101.041625 
L 358.612694 85.910152 
L 359.260073 74.521373 
L 360.554831 57.139338 
L 361.849588 43.595376 
L 363.144346 32.254498 
L 365.086483 17.857536 
L 367.028619 5.568809 
L 368.183753 -1 
L 368.183753 -1 
" clip-path="url(#p2ed13251a8)" style="fill: none; stroke: #ff0000; stroke-width: 2; stroke-linecap: square"/>
   </g>
   <g id="patch_3">
    <path d="M 57.528957 307.344331 
L 57.528957 41.439685 
" style="fill: none; stroke: #000000; stroke-width: 0.8; stroke-linejoin: miter; stroke-linecap: square"/>
   </g>
   <g id="patch_4">
    <path d="M 414.208488 307.344331 
L 414.208488 41.439685 
" style="fill: none; stroke: #000000; stroke-width: 0.8; stroke-linejoin: miter; stroke-linecap: square"/>
   </g>
   <g id="patch_5">
    <path d="M 57.528957 307.344331 
L 414.208488 307.344331 
" style="fill: none; stroke: #000000; stroke-width: 0.8; stroke-linejoin: miter; stroke-linecap: square"/>
   </g>
   <g id="patch_6">
    <path d="M 57.528957 41.439685 
L 414.208488 41.439685 
" style="fill: none; stroke: #000000; stroke-width: 0.8; stroke-linejoin: miter; stroke-linecap: square"/>
   </g>
   <g id="text_16">
    <!-- Impulse response spectrum: MultiCycle filter vs Golden model -->
    <g transform="translate(49.476847 22.00231) scale(0.12 -0.12)">
     <defs>
      <path id="DejaVuSans-49" d="M 628 4666 
L 1259 4666 
L 1259 0 
L 628 0 
L 628 4666 
z
" transform="scale(0.015625)"/>
      <path id="DejaVuSans-70" d="M 1159 525 
L 1159 -1331 
L 581 -1331 
L 581 3500 
L 1159 3500 
L 1159 2969 
Q 1341 3281 1617 3432 
Q 1894 3584 2278 3584 
Q 2916 3584 3314 3078 
Q 3713 2572 3713 1747 
Q 3713 922 3314 415 
Q 2916 -91 2278 -91 
Q 1894 -91 1617 61 
Q 1341 213 1159 525 
z
M 3116 1747 
Q 3116 2381 2855 2742 
Q 2594 3103 2138 3103 
Q 1681 3103 1420 2742 
Q 1159 2381 1159 1747 
Q 1159 1113 1420 752 
Q 1681 391 2138 391 
Q 2594 391 2855 752 
Q 3116 1113 3116 1747 
z
" transform="scale(0.015625)"/>
      <path id="DejaVuSans-73" d="M 2834 3397 
L 2834 2853 
Q 2591 2978 2328 3040 
Q 2066 3103 1784 3103 
Q 1356 3103 1142 2972 
Q 928 2841 928 2578 
Q 928 2378 1081 2264 
Q 1234 2150 1697 2047 
L 1894 2003 
Q 2506 1872 2764 1633 
Q 3022 1394 3022 966 
Q 3022 478 2636 193 
Q 2250 -91 1575 -91 
Q 1294 -91 989 -36 
Q 684 19 347 128 
L 347 722 
Q 666 556 975 473 
Q 1284 391 1588 391 
Q 1994 391 2212 530 
Q 2431 669 2431 922 
Q 2431 1156 2273 1281 
Q 2116 1406 1581 1522 
L 1381 1569 
Q 847 1681 609 1914 
Q 372 2147 372 2553 
Q 372 3047 722 3315 
Q 1072 3584 1716 3584 
Q 2034 3584 2315 3537 
Q 2597 3491 2834 3397 
z
" transform="scale(0.015625)"/>
      <path id="DejaVuSans-74" d="M 1172 4494 
L 1172 3500 
L 2356 3500 
L 2356 3053 
L 1172 3053 
L 1172 1153 
Q 1172 725 1289 603 
Q 1406 481 1766 481 
L 2356 481 
L 2356 0 
L 1766 0 
Q 1100 0 847 248 
Q 594 497 594 1153 
L 594 3053 
L 172 3053 
L 172 3500 
L 594 3500 
L 594 4494 
L 1172 4494 
z
" transform="scale(0.015625)"/>
      <path id="DejaVuSans-3a" d="M 750 794 
L 1409 794 
L 1409 0 
L 750 0 
L 750 794 
z
M 750 3309 
L 1409 3309 
L 1409 2516 
L 750 2516 
L 750 3309 
z
" transform="scale(0.015625)"/>
      <path id="DejaVuSans-4d" d="M 628 4666 
L 1569 4666 
L 2759 1491 
L 3956 4666 
L 4897 4666 
L 4897 0 
L 4281 0 
L 4281 4097 
L 3078 897 
L 2444 897 
L 1241 4097 
L 1241 0 
L 628 0 
L 628 4666 
z
" transform="scale(0.015625)"/>
      <path id="DejaVuSans-43" d="M 4122 4306 
L 4122 3641 
Q 3803 3938 3442 4084 
Q 3081 4231 2675 4231 
Q 1875 4231 1450 3742 
Q 1025 3253 1025 2328 
Q 1025 1406 1450 917 
Q 1875 428 2675 428 
Q 3081 428 3442 575 
Q 3803 722 4122 1019 
L 4122 359 
Q 3791 134 3420 21 
Q 3050 -91 2638 -91 
Q 1578 -91 968 557 
Q 359 1206 359 2328 
Q 359 3453 968 4101 
Q 1578 4750 2638 4750 
Q 3056 4750 3426 4639 
Q 3797 4528 4122 4306 
z
" transform="scale(0.015625)"/>
      <path id="DejaVuSans-66" d="M 2375 4863 
L 2375 4384 
L 1825 4384 
Q 1516 4384 1395 4259 
Q 1275 4134 1275 3809 
L 1275 3500 
L 2222 3500 
L 2222 3053 
L 1275 3053 
L 1275 0 
L 697 0 
L 697 3053 
L 147 3053 
L 147 3500 
L 697 3500 
L 697 3744 
Q 697 4328 969 4595 
Q 1241 4863 1831 4863 
L 2375 4863 
z
" transform="scale(0.015625)"/>
      <path id="DejaVuSans-76" d="M 191 3500 
L 800 3500 
L 1894 563 
L 2988 3500 
L 3597 3500 
L 2284 0 
L 1503 0 
L 191 3500 
z
" transform="scale(0.015625)"/>
      <path id="DejaVuSans-47" d="M 3809 666 
L 3809 1919 
L 2778 1919 
L 2778 2438 
L 4434 2438 
L 4434 434 
Q 4069 175 3628 42 
Q 3188 -91 2688 -91 
Q 1594 -91 976 548 
Q 359 1188 359 2328 
Q 359 3472 976 4111 
Q 1594 4750 2688 4750 
Q 3144 4750 3555 4637 
Q 3966 4525 4313 4306 
L 4313 3634 
Q 3963 3931 3569 4081 
Q 3175 4231 2741 4231 
Q 1884 4231 1454 3753 
Q 1025 3275 1025 2328 
Q 1025 1384 1454 906 
Q 1884 428 2741 428 
Q 3075 428 3337 486 
Q 3600 544 3809 666 
z
" transform="scale(0.015625)"/>
     </defs>
     <use xlink:href="#DejaVuSans-49"/>
     <use xlink:href="#DejaVuSans-6d" transform="translate(29.492188 0)"/>
     <use xlink:href="#DejaVuSans-70" transform="translate(126.904297 0)"/>
     <use xlink:href="#DejaVuSans-75" transform="translate(190.380859 0)"/>
     <use xlink:href="#DejaVuSans-6c" transform="translate(253.759766 0)"/>
     <use xlink:href="#DejaVuSans-73" transform="translate(281.542969 0)"/>
     <use xlink:href="#DejaVuSans-65" transform="translate(333.642578 0)"/>
     <use xlink:href="#DejaVuSans-20" transform="translate(395.166016 0)"/>
     <use xlink:href="#DejaVuSans-72" transform="translate(426.953125 0)"/>
     <use xlink:href="#DejaVuSans-65" transform="translate(465.816406 0)"/>
     <use xlink:href="#DejaVuSans-73" transform="translate(527.339844 0)"/>
     <use xlink:href="#DejaVuSans-70" transform="translate(579.439453 0)"/>
     <use xlink:href="#DejaVuSans-6f" transform="translate(642.916016 0)"/>
     <use xlink:href="#DejaVuSans-6e" transform="translate(704.097656 0)"/>
     <use xlink:href="#DejaVuSans-73" transform="translate(767.476562 0)"/>
     <use xlink:href="#DejaVuSans-65" transform="translate(819.576172 0)"/>
     <use xlink:href="#DejaVuSans-20" transform="translate(881.099609 0)"/>
     <use xlink:href="#DejaVuSans-73" transform="translate(912.886719 0)"/>
     <use xlink:href="#DejaVuSans-70" transform="translate(964.986328 0)"/>
     <use xlink:href="#DejaVuSans-65" transform="translate(1028.462891 0)"/>
     <use xlink:href="#DejaVuSans-63" transform="translate(1089.986328 0)"/>
     <use xlink:href="#DejaVuSans-74" transform="translate(1144.966797 0)"/>
     <use xlink:href="#DejaVuSans-72" transform="translate(1184.175781 0)"/>
     <use xlink:href="#DejaVuSans-75" transform="translate(1225.289062 0)"/>
     <use xlink:href="#DejaVuSans-6d" transform="translate(1288.667969 0)"/>
     <use xlink:href="#DejaVuSans-3a" transform="translate(1386.080078 0)"/>
     <use xlink:href="#DejaVuSans-20" transform="translate(1419.771484 0)"/>
     <use xlink:href="#DejaVuSans-4d" transform="translate(1451.558594 0)"/>
     <use xlink:href="#DejaVuSans-75" transform="translate(1537.837891 0)"/>
     <use xlink:href="#DejaVuSans-6c" transform="translate(1601.216797 0)"/>
     <use xlink:href="#DejaVuSans-74" transform="translate(1629 0)"/>
     <use xlink:href="#DejaVuSans-69" transform="translate(1668.208984 0)"/>
     <use xlink:href="#DejaVuSans-43" transform="translate(1695.992188 0)"/>
     <use xlink:href="#DejaVuSans-79" transform="translate(1765.816406 0)"/>
     <use xlink:href="#DejaVuSans-63" transform="translate(1824.996094 0)"/>
     <use xlink:href="#DejaVuSans-6c" transform="translate(1879.976562 0)"/>
     <use xlink:href="#DejaVuSans-65" transform="translate(1907.759766 0)"/>
     <use xlink:href="#DejaVuSans-20" transform="translate(1969.283203 0)"/>
     <use xlink:href="#DejaVuSans-66" transform="translate(2001.070312 0)"/>
     <use xlink:href="#DejaVuSans-69" transform="translate(2036.275391 0)"/>
     <use xlink:href="#DejaVuSans-6c" transform="translate(2064.058594 0)"/>
     <use xlink:href="#DejaVuSans-74" transform="translate(2091.841797 0)"/>
     <use xlink:href="#DejaVuSans-65" transform="translate(2131.050781 0)"/>
     <use xlink:href="#DejaVuSans-72" transform="translate(2192.574219 0)"/>
     <use xlink:href="#DejaVuSans-20" transform="translate(2233.6875 0)"/>
     <use xlink:href="#DejaVuSans-76" transform="translate(2265.474609 0)"/>
     <use xlink:href="#DejaVuSans-73" transform="translate(2324.654297 0)"/>
     <use xlink:href="#DejaVuSans-20" transform="translate(2376.753906 0)"/>
     <use xlink:href="#DejaVuSans-47" transform="translate(2408.541016 0)"/>
     <use xlink:href="#DejaVuSans-6f" transform="translate(2486.03125 0)"/>
     <use xlink:href="#DejaVuSans-6c" transform="translate(2547.212891 0)"/>
     <use xlink:href="#DejaVuSans-64" transform="translate(2574.996094 0)"/>
     <use xlink:href="#DejaVuSans-65" transform="translate(2638.472656 0)"/>
     <use xlink:href="#DejaVuSans-6e" transform="translate(2699.996094 0)"/>
     <use xlink:href="#DejaVuSans-20" transform="translate(2763.375 0)"/>
     <use xlink:href="#DejaVuSans-6d" transform="translate(2795.162109 0)"/>
     <use xlink:href="#DejaVuSans-6f" transform="translate(2892.574219 0)"/>
     <use xlink:href="#DejaVuSans-64" transform="translate(2953.755859 0)"/>
     <use xlink:href="#DejaVuSans-65" transform="translate(3017.232422 0)"/>
     <use xlink:href="#DejaVuSans-6c" transform="translate(3078.755859 0)"/>
    </g>
    <!-- Taps=39, MACS=13 -->
    <g transform="translate(176.268097 35.439685) scale(0.12 -0.12)">
     <defs>
      <path id="DejaVuSans-54" d="M -19 4666 
L 3928 4666 
L 3928 4134 
L 2272 4134 
L 2272 0 
L 1638 0 
L 1638 4134 
L -19 4134 
L -19 4666 
z
" transform="scale(0.015625)"/>
      <path id="DejaVuSans-3d" d="M 678 2906 
L 4684 2906 
L 4684 2381 
L 678 2381 
L 678 2906 
z
M 678 1631 
L 4684 1631 
L 4684 1100 
L 678 1100 
L 678 1631 
z
" transform="scale(0.015625)"/>
      <path id="DejaVuSans-2c" d="M 750 794 
L 1409 794 
L 1409 256 
L 897 -744 
L 494 -744 
L 750 256 
L 750 794 
z
" transform="scale(0.015625)"/>
      <path id="DejaVuSans-41" d="M 2188 4044 
L 1331 1722 
L 3047 1722 
L 2188 4044 
z
M 1831 4666 
L 2547 4666 
L 4325 0 
L 3669 0 
L 3244 1197 
L 1141 1197 
L 716 0 
L 50 0 
L 1831 4666 
z
" transform="scale(0.015625)"/>
      <path id="DejaVuSans-53" d="M 3425 4513 
L 3425 3897 
Q 3066 4069 2747 4153 
Q 2428 4238 2131 4238 
Q 1616 4238 1336 4038 
Q 1056 3838 1056 3469 
Q 1056 3159 1242 3001 
Q 1428 2844 1947 2747 
L 2328 2669 
Q 3034 2534 3370 2195 
Q 3706 1856 3706 1288 
Q 3706 609 3251 259 
Q 2797 -91 1919 -91 
Q 1588 -91 1214 -16 
Q 841 59 441 206 
L 441 856 
Q 825 641 1194 531 
Q 1563 422 1919 422 
Q 2459 422 2753 634 
Q 3047 847 3047 1241 
Q 3047 1584 2836 1778 
Q 2625 1972 2144 2069 
L 1759 2144 
Q 1053 2284 737 2584 
Q 422 2884 422 3419 
Q 422 4038 858 4394 
Q 1294 4750 2059 4750 
Q 2388 4750 2728 4690 
Q 3069 4631 3425 4513 
z
" transform="scale(0.015625)"/>
     </defs>
     <use xlink:href="#DejaVuSans-54"/>
     <use xlink:href="#DejaVuSans-61" transform="translate(44.583984 0)"/>
     <use xlink:href="#DejaVuSans-70" transform="translate(105.863281 0)"/>
     <use xlink:href="#DejaVuSans-73" transform="translate(169.339844 0)"/>
     <use xlink:href="#DejaVuSans-3d" transform="translate(221.439453 0)"/>
     <use xlink:href="#DejaVuSans-33" transform="translate(305.228516 0)"/>
     <use xlink:href="#DejaVuSans-39" transform="translate(368.851562 0)"/>
     <use xlink:href="#DejaVuSans-2c" transform="translate(432.474609 0)"/>
     <use xlink:href="#DejaVuSans-20" transform="translate(464.261719 0)"/>
     <use xlink:href="#DejaVuSans-4d" transform="translate(496.048828 0)"/>
     <use xlink:href="#DejaVuSans-41" transform="translate(582.328125 0)"/>
     <use xlink:href="#DejaVuSans-43" transform="translate(648.986328 0)"/>
     <use xlink:href="#DejaVuSans-53" transform="translate(718.810547 0)"/>
     <use xlink:href="#DejaVuSans-3d" transform="translate(782.287109 0)"/>
     <use xlink:href="#DejaVuSans-31" transform="translate(866.076172 0)"/>
     <use xlink:href="#DejaVuSans-33" transform="translate(929.699219 0)"/>
    </g>
   </g>
   <g id="legend_1">
    <g id="patch_7">
     <path d="M 64.528957 302.344331 
L 167.130519 302.344331 
Q 169.130519 302.344331 169.130519 300.344331 
L 169.130519 271.988081 
Q 169.130519 269.988081 167.130519 269.988081 
L 64.528957 269.988081 
Q 62.528957 269.988081 62.528957 271.988081 
L 62.528957 300.344331 
Q 62.528957 302.344331 64.528957 302.344331 
z
" style="fill: #ffffff; opacity: 0.8; stroke: #cccccc; stroke-linejoin: miter"/>
    </g>
    <g id="line2d_31">
     <path d="M 66.528957 278.086518 
L 76.528957 278.086518 
L 86.528957 278.086518 
" style="fill: none; stroke: #0000ff; stroke-width: 2; stroke-linecap: square"/>
    </g>
    <g id="text_17">
     <!-- MultiCycle FIR -->
     <g transform="translate(94.528957 281.586518) scale(0.1 -0.1)">
      <defs>
       <path id="DejaVuSans-52" d="M 2841 2188 
Q 3044 2119 3236 1894 
Q 3428 1669 3622 1275 
L 4263 0 
L 3584 0 
L 2988 1197 
Q 2756 1666 2539 1819 
Q 2322 1972 1947 1972 
L 1259 1972 
L 1259 0 
L 628 0 
L 628 4666 
L 2053 4666 
Q 2853 4666 3247 4331 
Q 3641 3997 3641 3322 
Q 3641 2881 3436 2590 
Q 3231 2300 2841 2188 
z
M 1259 4147 
L 1259 2491 
L 2053 2491 
Q 2509 2491 2742 2702 
Q 2975 2913 2975 3322 
Q 2975 3731 2742 3939 
Q 2509 4147 2053 4147 
L 1259 4147 
z
" transform="scale(0.015625)"/>
      </defs>
      <use xlink:href="#DejaVuSans-4d"/>
      <use xlink:href="#DejaVuSans-75" transform="translate(86.279297 0)"/>
      <use xlink:href="#DejaVuSans-6c" transform="translate(149.658203 0)"/>
      <use xlink:href="#DejaVuSans-74" transform="translate(177.441406 0)"/>
      <use xlink:href="#DejaVuSans-69" transform="translate(216.650391 0)"/>
      <use xlink:href="#DejaVuSans-43" transform="translate(244.433594 0)"/>
      <use xlink:href="#DejaVuSans-79" transform="translate(314.257812 0)"/>
      <use xlink:href="#DejaVuSans-63" transform="translate(373.4375 0)"/>
      <use xlink:href="#DejaVuSans-6c" transform="translate(428.417969 0)"/>
      <use xlink:href="#DejaVuSans-65" transform="translate(456.201172 0)"/>
      <use xlink:href="#DejaVuSans-20" transform="translate(517.724609 0)"/>
      <use xlink:href="#DejaVuSans-46" transform="translate(549.511719 0)"/>
      <use xlink:href="#DejaVuSans-49" transform="translate(607.03125 0)"/>
      <use xlink:href="#DejaVuSans-52" transform="translate(636.523438 0)"/>
     </g>
    </g>
    <g id="line2d_32">
     <path d="M 66.528957 292.764643 
L 76.528957 292.764643 
L 86.528957 292.764643 
" style="fill: none; stroke: #ff0000; stroke-width: 2; stroke-linecap: square"/>
    </g>
    <g id="text_18">
     <!-- Golden model -->
     <g transform="translate(94.528957 296.264643) scale(0.1 -0.1)">
      <use xlink:href="#DejaVuSans-47"/>
      <use xlink:href="#DejaVuSans-6f" transform="translate(77.490234 0)"/>
      <use xlink:href="#DejaVuSans-6c" transform="translate(138.671875 0)"/>
      <use xlink:href="#DejaVuSans-64" transform="translate(166.455078 0)"/>
      <use xlink:href="#DejaVuSans-65" transform="translate(229.931641 0)"/>
      <use xlink:href="#DejaVuSans-6e" transform="translate(291.455078 0)"/>
      <use xlink:href="#DejaVuSans-20" transform="translate(354.833984 0)"/>
      <use xlink:href="#DejaVuSans-6d" transform="translate(386.621094 0)"/>
      <use xlink:href="#DejaVuSans-6f" transform="translate(484.033203 0)"/>
      <use xlink:href="#DejaVuSans-64" transform="translate(545.214844 0)"/>
      <use xlink:href="#DejaVuSans-65" transform="translate(608.691406 0)"/>
      <use xlink:href="#DejaVuSans-6c" transform="translate(670.214844 0)"/>
     </g>
    </g>
   </g>
  </g>
 </g>
 <defs>
  <clipPath id="p2ed13251a8">
   <rect x="57.528957" y="41.439685" width="356.679531" height="265.904646"/>
  </clipPath>
 </defs>
</svg>
