<?xml version="1.0" encoding="utf-8" standalone="no"?>
<!DOCTYPE svg PUBLIC "-//W3C//DTD SVG 1.1//EN"
  "http://www.w3.org/Graphics/SVG/1.1/DTD/svg11.dtd">
<svg xmlns:xlink="http://www.w3.org/1999/xlink" width="460.231654pt" height="345.330709pt" viewBox="0 0 460.231654 345.330709" xmlns="http://www.w3.org/2000/svg" version="1.1">
 <metadata>
  <rdf:RDF xmlns:dc="http://purl.org/dc/elements/1.1/" xmlns:cc="http://creativecommons.org/ns#" xmlns:rdf="http://www.w3.org/1999/02/22-rdf-syntax-ns#">
   <cc:Work>
    <dc:type rdf:resource="http://purl.org/dc/dcmitype/StillImage"/>
    <dc:date>2026-03-23T10:48:53.836622</dc:date>
    <dc:format>image/svg+xml</dc:format>
    <dc:creator>
     <cc:Agent>
      <dc:title>Matplotlib v3.10.8, https://matplotlib.org/</dc:title>
     </cc:Agent>
    </dc:creator>
   </cc:Work>
  </rdf:RDF>
 </metadata>
 <defs>
  <style type="text/css">*{stroke-linejoin: round; stroke-linecap: butt}</style>
 </defs>
 <g id="figure_1">
  <g id="patch_1">
   <path d="M 0 345.330709 
L 460.231654 345.330709 
L 460.231654 0 
L 0 0 
z
" style="fill: #ffffff"/>
  </g>
  <g id="axes_1">
   <g id="patch_2">
    <path d="M 57.528957 307.344331 
L 414.208488 307.344331 
L 414.208488 41.439685 
L 57.528957 41.439685 
z
" style="fill: #ffffff"/>
   </g>
   <g id="matplotlib.axis_1">
    <g id="xtick_1">
     <g id="line2d_1">
      <path d="M 106.182915 307.344331 
L 106.182915 41.439685 
" clip-path="url(#pdb7f6327cf)" style="fill: none; stroke: #b0b0b0; stroke-width: 0.8; stroke-linecap: square"/>
     </g>
     <g id="line2d_2">
      <defs>
       <path id="md6a8a7aee7" d="M 0 0 
L 0 3.5 
" style="stroke: #000000; stroke-width: 0.8"/>
      </defs>
      <g>
       <use xlink:href="#md6a8a7aee7" x="106.182915" y="307.344331" style="stroke: #000000; stroke-width: 0.8"/>
      </g>
     </g>
     <g id="text_1">
      <!-- −0.4 -->
      <g transform="translate(94.041509 321.942768) scale(0.1 -0.1)">
       <defs>
        <path id="DejaVuSans-2212" d="M 678 2272 
L 4684 2272 
L 4684 1741 
L 678 1741 
L 678 2272 
z
" transform="scale(0.015625)"/>
        <path id="DejaVuSans-30" d="M 2034 4250 
Q 1547 4250 1301 3770 
Q 1056 3291 1056 2328 
Q 1056 1369 1301 889 
Q 1547 409 2034 409 
Q 2525 409 2770 889 
Q 3016 1369 3016 2328 
Q 3016 3291 2770 3770 
Q 2525 4250 2034 4250 
z
M 2034 4750 
Q 2819 4750 3233 4129 
Q 3647 3509 3647 2328 
Q 3647 1150 3233 529 
Q 2819 -91 2034 -91 
Q 1250 -91 836 529 
Q 422 1150 422 2328 
Q 422 3509 836 4129 
Q 1250 4750 2034 4750 
z
" transform="scale(0.015625)"/>
        <path id="DejaVuSans-2e" d="M 684 794 
L 1344 794 
L 1344 0 
L 684 0 
L 684 794 
z
" transform="scale(0.015625)"/>
        <path id="DejaVuSans-34" d="M 2419 4116 
L 825 1625 
L 2419 1625 
L 2419 4116 
z
M 2253 4666 
L 3047 4666 
L 3047 1625 
L 3713 1625 
L 3713 1100 
L 3047 1100 
L 3047 0 
L 2419 0 
L 2419 1100 
L 313 1100 
L 313 1709 
L 2253 4666 
z
" transform="scale(0.015625)"/>
       </defs>
       <use xlink:href="#DejaVuSans-2212"/>
       <use xlink:href="#DejaVuSans-30" transform="translate(83.789062 0)"/>
       <use xlink:href="#DejaVuSans-2e" transform="translate(147.412109 0)"/>
       <use xlink:href="#DejaVuSans-34" transform="translate(179.199219 0)"/>
      </g>
     </g>
    </g>
    <g id="xtick_2">
     <g id="line2d_3">
      <path d="M 171.06542 307.344331 
L 171.06542 41.439685 
" clip-path="url(#pdb7f6327cf)" style="fill: none; stroke: #b0b0b0; stroke-width: 0.8; stroke-linecap: square"/>
     </g>
     <g id="line2d_4">
      <g>
       <use xlink:href="#md6a8a7aee7" x="171.06542" y="307.344331" style="stroke: #000000; stroke-width: 0.8"/>
      </g>
     </g>
     <g id="text_2">
      <!-- −0.2 -->
      <g transform="translate(158.924014 321.942768) scale(0.1 -0.1)">
       <defs>
        <path id="DejaVuSans-32" d="M 1228 531 
L 3431 531 
L 3431 0 
L 469 0 
L 469 531 
Q 828 903 1448 1529 
Q 2069 2156 2228 2338 
Q 2531 2678 2651 2914 
Q 2772 3150 2772 3378 
Q 2772 3750 2511 3984 
Q 2250 4219 1831 4219 
Q 1534 4219 1204 4116 
Q 875 4013 500 3803 
L 500 4441 
Q 881 4594 1212 4672 
Q 1544 4750 1819 4750 
Q 2544 4750 2975 4387 
Q 3406 4025 3406 3419 
Q 3406 3131 3298 2873 
Q 3191 2616 2906 2266 
Q 2828 2175 2409 1742 
Q 1991 1309 1228 531 
z
" transform="scale(0.015625)"/>
       </defs>
       <use xlink:href="#DejaVuSans-2212"/>
       <use xlink:href="#DejaVuSans-30" transform="translate(83.789062 0)"/>
       <use xlink:href="#DejaVuSans-2e" transform="translate(147.412109 0)"/>
       <use xlink:href="#DejaVuSans-32" transform="translate(179.199219 0)"/>
      </g>
     </g>
    </g>
    <g id="xtick_3">
     <g id="line2d_5">
      <path d="M 235.947925 307.344331 
L 235.947925 41.439685 
" clip-path="url(#pdb7f6327cf)" style="fill: none; stroke: #b0b0b0; stroke-width: 0.8; stroke-linecap: square"/>
     </g>
     <g id="line2d_6">
      <g>
       <use xlink:href="#md6a8a7aee7" x="235.947925" y="307.344331" style="stroke: #000000; stroke-width: 0.8"/>
      </g>
     </g>
     <g id="text_3">
      <!-- 0.0 -->
      <g transform="translate(227.996362 321.942768) scale(0.1 -0.1)">
       <use xlink:href="#DejaVuSans-30"/>
       <use xlink:href="#DejaVuSans-2e" transform="translate(63.623047 0)"/>
       <use xlink:href="#DejaVuSans-30" transform="translate(95.410156 0)"/>
      </g>
     </g>
    </g>
    <g id="xtick_4">
     <g id="line2d_7">
      <path d="M 300.83043 307.344331 
L 300.83043 41.439685 
" clip-path="url(#pdb7f6327cf)" style="fill: none; stroke: #b0b0b0; stroke-width: 0.8; stroke-linecap: square"/>
     </g>
     <g id="line2d_8">
      <g>
       <use xlink:href="#md6a8a7aee7" x="300.83043" y="307.344331" style="stroke: #000000; stroke-width: 0.8"/>
      </g>
     </g>
     <g id="text_4">
      <!-- 0.2 -->
      <g transform="translate(292.878867 321.942768) scale(0.1 -0.1)">
       <use xlink:href="#DejaVuSans-30"/>
       <use xlink:href="#DejaVuSans-2e" transform="translate(63.623047 0)"/>
       <use xlink:href="#DejaVuSans-32" transform="translate(95.410156 0)"/>
      </g>
     </g>
    </g>
    <g id="xtick_5">
     <g id="line2d_9">
      <path d="M 365.712934 307.344331 
L 365.712934 41.439685 
" clip-path="url(#pdb7f6327cf)" style="fill: none; stroke: #b0b0b0; stroke-width: 0.8; stroke-linecap: square"/>
     </g>
     <g id="line2d_10">
      <g>
       <use xlink:href="#md6a8a7aee7" x="365.712934" y="307.344331" style="stroke: #000000; stroke-width: 0.8"/>
      </g>
     </g>
     <g id="text_5">
      <!-- 0.4 -->
      <g transform="translate(357.761372 321.942768) scale(0.1 -0.1)">
       <use xlink:href="#DejaVuSans-30"/>
       <use xlink:href="#DejaVuSans-2e" transform="translate(63.623047 0)"/>
       <use xlink:href="#DejaVuSans-34" transform="translate(95.410156 0)"/>
      </g>
     </g>
    </g>
    <g id="text_6">
     <!-- Normalized Frequency -->
     <g transform="translate(180.094504 335.620893) scale(0.1 -0.1)">
      <defs>
       <path id="DejaVuSans-4e" d="M 628 4666 
L 1478 4666 
L 3547 763 
L 3547 4666 
L 4159 4666 
L 4159 0 
L 3309 0 
L 1241 3903 
L 1241 0 
L 628 0 
L 628 4666 
z
" transform="scale(0.015625)"/>
       <path id="DejaVuSans-6f" d="M 1959 3097 
Q 1497 3097 1228 2736 
Q 959 2375 959 1747 
Q 959 1119 1226 758 
Q 1494 397 1959 397 
Q 2419 397 2687 759 
Q 2956 1122 2956 1747 
Q 2956 2369 2687 2733 
Q 2419 3097 1959 3097 
z
M 1959 3584 
Q 2709 3584 3137 3096 
Q 3566 2609 3566 1747 
Q 3566 888 3137 398 
Q 2709 -91 1959 -91 
Q 1206 -91 779 398 
Q 353 888 353 1747 
Q 353 2609 779 3096 
Q 1206 3584 1959 3584 
z
" transform="scale(0.015625)"/>
       <path id="DejaVuSans-72" d="M 2631 2963 
Q 2534 3019 2420 3045 
Q 2306 3072 2169 3072 
Q 1681 3072 1420 2755 
Q 1159 2438 1159 1844 
L 1159 0 
L 581 0 
L 581 3500 
L 1159 3500 
L 1159 2956 
Q 1341 3275 1631 3429 
Q 1922 3584 2338 3584 
Q 2397 3584 2469 3576 
Q 2541 3569 2628 3553 
L 2631 2963 
z
" transform="scale(0.015625)"/>
       <path id="DejaVuSans-6d" d="M 3328 2828 
Q 3544 3216 3844 3400 
Q 4144 3584 4550 3584 
Q 5097 3584 5394 3201 
Q 5691 2819 5691 2113 
L 5691 0 
L 5113 0 
L 5113 2094 
Q 5113 2597 4934 2840 
Q 4756 3084 4391 3084 
Q 3944 3084 3684 2787 
Q 3425 2491 3425 1978 
L 3425 0 
L 2847 0 
L 2847 2094 
Q 2847 2600 2669 2842 
Q 2491 3084 2119 3084 
Q 1678 3084 1418 2786 
Q 1159 2488 1159 1978 
L 1159 0 
L 581 0 
L 581 3500 
L 1159 3500 
L 1159 2956 
Q 1356 3278 1631 3431 
Q 1906 3584 2284 3584 
Q 2666 3584 2933 3390 
Q 3200 3197 3328 2828 
z
" transform="scale(0.015625)"/>
       <path id="DejaVuSans-61" d="M 2194 1759 
Q 1497 1759 1228 1600 
Q 959 1441 959 1056 
Q 959 750 1161 570 
Q 1363 391 1709 391 
Q 2188 391 2477 730 
Q 2766 1069 2766 1631 
L 2766 1759 
L 2194 1759 
z
M 3341 1997 
L 3341 0 
L 2766 0 
L 2766 531 
Q 2569 213 2275 61 
Q 1981 -91 1556 -91 
Q 1019 -91 701 211 
Q 384 513 384 1019 
Q 384 1609 779 1909 
Q 1175 2209 1959 2209 
L 2766 2209 
L 2766 2266 
Q 2766 2663 2505 2880 
Q 2244 3097 1772 3097 
Q 1472 3097 1187 3025 
Q 903 2953 641 2809 
L 641 3341 
Q 956 3463 1253 3523 
Q 1550 3584 1831 3584 
Q 2591 3584 2966 3190 
Q 3341 2797 3341 1997 
z
" transform="scale(0.015625)"/>
       <path id="DejaVuSans-6c" d="M 603 4863 
L 1178 4863 
L 1178 0 
L 603 0 
L 603 4863 
z
" transform="scale(0.015625)"/>
       <path id="DejaVuSans-69" d="M 603 3500 
L 1178 3500 
L 1178 0 
L 603 0 
L 603 3500 
z
M 603 4863 
L 1178 4863 
L 1178 4134 
L 603 4134 
L 603 4863 
z
" transform="scale(0.015625)"/>
       <path id="DejaVuSans-7a" d="M 353 3500 
L 3084 3500 
L 3084 2975 
L 922 459 
L 3084 459 
L 3084 0 
L 275 0 
L 275 525 
L 2438 3041 
L 353 3041 
L 353 3500 
z
" transform="scale(0.015625)"/>
       <path id="DejaVuSans-65" d="M 3597 1894 
L 3597 1613 
L 953 1613 
Q 991 1019 1311 708 
Q 1631 397 2203 397 
Q 2534 397 2845 478 
Q 3156 559 3463 722 
L 3463 178 
Q 3153 47 2828 -22 
Q 2503 -91 2169 -91 
Q 1331 -91 842 396 
Q 353 884 353 1716 
Q 353 2575 817 3079 
Q 1281 3584 2069 3584 
Q 2775 3584 3186 3129 
Q 3597 2675 3597 1894 
z
M 3022 2063 
Q 3016 2534 2758 2815 
Q 2500 3097 2075 3097 
Q 1594 3097 1305 2825 
Q 1016 2553 972 2059 
L 3022 2063 
z
" transform="scale(0.015625)"/>
       <path id="DejaVuSans-64" d="M 2906 2969 
L 2906 4863 
L 3481 4863 
L 3481 0 
L 2906 0 
L 2906 525 
Q 2725 213 2448 61 
Q 2172 -91 1784 -91 
Q 1150 -91 751 415 
Q 353 922 353 1747 
Q 353 2572 751 3078 
Q 1150 3584 1784 3584 
Q 2172 3584 2448 3432 
Q 2725 3281 2906 2969 
z
M 947 1747 
Q 947 1113 1208 752 
Q 1469 391 1925 391 
Q 2381 391 2643 752 
Q 2906 1113 2906 1747 
Q 2906 2381 2643 2742 
Q 2381 3103 1925 3103 
Q 1469 3103 1208 2742 
Q 947 2381 947 1747 
z
" transform="scale(0.015625)"/>
       <path id="DejaVuSans-20" transform="scale(0.015625)"/>
       <path id="DejaVuSans-46" d="M 628 4666 
L 3309 4666 
L 3309 4134 
L 1259 4134 
L 1259 2759 
L 3109 2759 
L 3109 2228 
L 1259 2228 
L 1259 0 
L 628 0 
L 628 4666 
z
" transform="scale(0.015625)"/>
       <path id="DejaVuSans-71" d="M 947 1747 
Q 947 1113 1208 752 
Q 1469 391 1925 391 
Q 2381 391 2643 752 
Q 2906 1113 2906 1747 
Q 2906 2381 2643 2742 
Q 2381 3103 1925 3103 
Q 1469 3103 1208 2742 
Q 947 2381 947 1747 
z
M 2906 525 
Q 2725 213 2448 61 
Q 2172 -91 1784 -91 
Q 1150 -91 751 415 
Q 353 922 353 1747 
Q 353 2572 751 3078 
Q 1150 3584 1784 3584 
Q 2172 3584 2448 3432 
Q 2725 3281 2906 2969 
L 2906 3500 
L 3481 3500 
L 3481 -1331 
L 2906 -1331 
L 2906 525 
z
" transform="scale(0.015625)"/>
       <path id="DejaVuSans-75" d="M 544 1381 
L 544 3500 
L 1119 3500 
L 1119 1403 
Q 1119 906 1312 657 
Q 1506 409 1894 409 
Q 2359 409 2629 706 
Q 2900 1003 2900 1516 
L 2900 3500 
L 3475 3500 
L 3475 0 
L 2900 0 
L 2900 538 
Q 2691 219 2414 64 
Q 2138 -91 1772 -91 
Q 1169 -91 856 284 
Q 544 659 544 1381 
z
M 1991 3584 
L 1991 3584 
z
" transform="scale(0.015625)"/>
       <path id="DejaVuSans-6e" d="M 3513 2113 
L 3513 0 
L 2938 0 
L 2938 2094 
Q 2938 2591 2744 2837 
Q 2550 3084 2163 3084 
Q 1697 3084 1428 2787 
Q 1159 2491 1159 1978 
L 1159 0 
L 581 0 
L 581 3500 
L 1159 3500 
L 1159 2956 
Q 1366 3272 1645 3428 
Q 1925 3584 2291 3584 
Q 2894 3584 3203 3211 
Q 3513 2838 3513 2113 
z
" transform="scale(0.015625)"/>
       <path id="DejaVuSans-63" d="M 3122 3366 
L 3122 2828 
Q 2878 2963 2633 3030 
Q 2388 3097 2138 3097 
Q 1578 3097 1268 2742 
Q 959 2388 959 1747 
Q 959 1106 1268 751 
Q 1578 397 2138 397 
Q 2388 397 2633 464 
Q 2878 531 3122 666 
L 3122 134 
Q 2881 22 2623 -34 
Q 2366 -91 2075 -91 
Q 1284 -91 818 406 
Q 353 903 353 1747 
Q 353 2603 823 3093 
Q 1294 3584 2113 3584 
Q 2378 3584 2631 3529 
Q 2884 3475 3122 3366 
z
" transform="scale(0.015625)"/>
       <path id="DejaVuSans-79" d="M 2059 -325 
Q 1816 -950 1584 -1140 
Q 1353 -1331 966 -1331 
L 506 -1331 
L 506 -850 
L 844 -850 
Q 1081 -850 1212 -737 
Q 1344 -625 1503 -206 
L 1606 56 
L 191 3500 
L 800 3500 
L 1894 763 
L 2988 3500 
L 3597 3500 
L 2059 -325 
z
" transform="scale(0.015625)"/>
      </defs>
      <use xlink:href="#DejaVuSans-4e"/>
      <use xlink:href="#DejaVuSans-6f" transform="translate(74.804688 0)"/>
      <use xlink:href="#DejaVuSans-72" transform="translate(135.986328 0)"/>
      <use xlink:href="#DejaVuSans-6d" transform="translate(175.349609 0)"/>
      <use xlink:href="#DejaVuSans-61" transform="translate(272.761719 0)"/>
      <use xlink:href="#DejaVuSans-6c" transform="translate(334.041016 0)"/>
      <use xlink:href="#DejaVuSans-69" transform="translate(361.824219 0)"/>
      <use xlink:href="#DejaVuSans-7a" transform="translate(389.607422 0)"/>
      <use xlink:href="#DejaVuSans-65" transform="translate(442.097656 0)"/>
      <use xlink:href="#DejaVuSans-64" transform="translate(503.621094 0)"/>
      <use xlink:href="#DejaVuSans-20" transform="translate(567.097656 0)"/>
      <use xlink:href="#DejaVuSans-46" transform="translate(598.884766 0)"/>
      <use xlink:href="#DejaVuSans-72" transform="translate(649.154297 0)"/>
      <use xlink:href="#DejaVuSans-65" transform="translate(688.017578 0)"/>
      <use xlink:href="#DejaVuSans-71" transform="translate(749.541016 0)"/>
      <use xlink:href="#DejaVuSans-75" transform="translate(813.017578 0)"/>
      <use xlink:href="#DejaVuSans-65" transform="translate(876.396484 0)"/>
      <use xlink:href="#DejaVuSans-6e" transform="translate(937.919922 0)"/>
      <use xlink:href="#DejaVuSans-63" transform="translate(1001.298828 0)"/>
      <use xlink:href="#DejaVuSans-79" transform="translate(1056.279297 0)"/>
     </g>
    </g>
   </g>
   <g id="matplotlib.axis_2">
    <g id="ytick_1">
     <g id="line2d_11">
      <path d="M 57.528957 286.777357 
L 414.208488 286.777357 
" clip-path="url(#pdb7f6327cf)" style="fill: none; stroke: #b0b0b0; stroke-width: 0.8; stroke-linecap: square"/>
     </g>
     <g id="line2d_12">
      <defs>
       <path id="m600f7aa2d5" d="M 0 0 
L -3.5 0 
" style="stroke: #000000; stroke-width: 0.8"/>
      </defs>
      <g>
       <use xlink:href="#m600f7aa2d5" x="57.528957" y="286.777357" style="stroke: #000000; stroke-width: 0.8"/>
      </g>
     </g>
     <g id="text_7">
      <!-- −140 -->
      <g transform="translate(23.061769 290.576576) scale(0.1 -0.1)">
       <defs>
        <path id="DejaVuSans-31" d="M 794 531 
L 1825 531 
L 1825 4091 
L 703 3866 
L 703 4441 
L 1819 4666 
L 2450 4666 
L 2450 531 
L 3481 531 
L 3481 0 
L 794 0 
L 794 531 
z
" transform="scale(0.015625)"/>
       </defs>
       <use xlink:href="#DejaVuSans-2212"/>
       <use xlink:href="#DejaVuSans-31" transform="translate(83.789062 0)"/>
       <use xlink:href="#DejaVuSans-34" transform="translate(147.412109 0)"/>
       <use xlink:href="#DejaVuSans-30" transform="translate(211.035156 0)"/>
      </g>
     </g>
    </g>
    <g id="ytick_2">
     <g id="line2d_13">
      <path d="M 57.528957 253.455772 
L 414.208488 253.455772 
" clip-path="url(#pdb7f6327cf)" style="fill: none; stroke: #b0b0b0; stroke-width: 0.8; stroke-linecap: square"/>
     </g>
     <g id="line2d_14">
      <g>
       <use xlink:href="#m600f7aa2d5" x="57.528957" y="253.455772" style="stroke: #000000; stroke-width: 0.8"/>
      </g>
     </g>
     <g id="text_8">
      <!-- −120 -->
      <g transform="translate(23.061769 257.254991) scale(0.1 -0.1)">
       <use xlink:href="#DejaVuSans-2212"/>
       <use xlink:href="#DejaVuSans-31" transform="translate(83.789062 0)"/>
       <use xlink:href="#DejaVuSans-32" transform="translate(147.412109 0)"/>
       <use xlink:href="#DejaVuSans-30" transform="translate(211.035156 0)"/>
      </g>
     </g>
    </g>
    <g id="ytick_3">
     <g id="line2d_15">
      <path d="M 57.528957 220.134186 
L 414.208488 220.134186 
" clip-path="url(#pdb7f6327cf)" style="fill: none; stroke: #b0b0b0; stroke-width: 0.8; stroke-linecap: square"/>
     </g>
     <g id="line2d_16">
      <g>
       <use xlink:href="#m600f7aa2d5" x="57.528957" y="220.134186" style="stroke: #000000; stroke-width: 0.8"/>
      </g>
     </g>
     <g id="text_9">
      <!-- −100 -->
      <g transform="translate(23.061769 223.933405) scale(0.1 -0.1)">
       <use xlink:href="#DejaVuSans-2212"/>
       <use xlink:href="#DejaVuSans-31" transform="translate(83.789062 0)"/>
       <use xlink:href="#DejaVuSans-30" transform="translate(147.412109 0)"/>
       <use xlink:href="#DejaVuSans-30" transform="translate(211.035156 0)"/>
      </g>
     </g>
    </g>
    <g id="ytick_4">
     <g id="line2d_17">
      <path d="M 57.528957 186.812601 
L 414.208488 186.812601 
" clip-path="url(#pdb7f6327cf)" style="fill: none; stroke: #b0b0b0; stroke-width: 0.8; stroke-linecap: square"/>
     </g>
     <g id="line2d_18">
      <g>
       <use xlink:href="#m600f7aa2d5" x="57.528957" y="186.812601" style="stroke: #000000; stroke-width: 0.8"/>
      </g>
     </g>
     <g id="text_10">
      <!-- −80 -->
      <g transform="translate(29.424269 190.61182) scale(0.1 -0.1)">
       <defs>
        <path id="DejaVuSans-38" d="M 2034 2216 
Q 1584 2216 1326 1975 
Q 1069 1734 1069 1313 
Q 1069 891 1326 650 
Q 1584 409 2034 409 
Q 2484 409 2743 651 
Q 3003 894 3003 1313 
Q 3003 1734 2745 1975 
Q 2488 2216 2034 2216 
z
M 1403 2484 
Q 997 2584 770 2862 
Q 544 3141 544 3541 
Q 544 4100 942 4425 
Q 1341 4750 2034 4750 
Q 2731 4750 3128 4425 
Q 3525 4100 3525 3541 
Q 3525 3141 3298 2862 
Q 3072 2584 2669 2484 
Q 3125 2378 3379 2068 
Q 3634 1759 3634 1313 
Q 3634 634 3220 271 
Q 2806 -91 2034 -91 
Q 1263 -91 848 271 
Q 434 634 434 1313 
Q 434 1759 690 2068 
Q 947 2378 1403 2484 
z
M 1172 3481 
Q 1172 3119 1398 2916 
Q 1625 2713 2034 2713 
Q 2441 2713 2670 2916 
Q 2900 3119 2900 3481 
Q 2900 3844 2670 4047 
Q 2441 4250 2034 4250 
Q 1625 4250 1398 4047 
Q 1172 3844 1172 3481 
z
" transform="scale(0.015625)"/>
       </defs>
       <use xlink:href="#DejaVuSans-2212"/>
       <use xlink:href="#DejaVuSans-38" transform="translate(83.789062 0)"/>
       <use xlink:href="#DejaVuSans-30" transform="translate(147.412109 0)"/>
      </g>
     </g>
    </g>
    <g id="ytick_5">
     <g id="line2d_19">
      <path d="M 57.528957 153.491016 
L 414.208488 153.491016 
" clip-path="url(#pdb7f6327cf)" style="fill: none; stroke: #b0b0b0; stroke-width: 0.8; stroke-linecap: square"/>
     </g>
     <g id="line2d_20">
      <g>
       <use xlink:href="#m600f7aa2d5" x="57.528957" y="153.491016" style="stroke: #000000; stroke-width: 0.8"/>
      </g>
     </g>
     <g id="text_11">
      <!-- −60 -->
      <g transform="translate(29.424269 157.290235) scale(0.1 -0.1)">
       <defs>
        <path id="DejaVuSans-36" d="M 2113 2584 
Q 1688 2584 1439 2293 
Q 1191 2003 1191 1497 
Q 1191 994 1439 701 
Q 1688 409 2113 409 
Q 2538 409 2786 701 
Q 3034 994 3034 1497 
Q 3034 2003 2786 2293 
Q 2538 2584 2113 2584 
z
M 3366 4563 
L 3366 3988 
Q 3128 4100 2886 4159 
Q 2644 4219 2406 4219 
Q 1781 4219 1451 3797 
Q 1122 3375 1075 2522 
Q 1259 2794 1537 2939 
Q 1816 3084 2150 3084 
Q 2853 3084 3261 2657 
Q 3669 2231 3669 1497 
Q 3669 778 3244 343 
Q 2819 -91 2113 -91 
Q 1303 -91 875 529 
Q 447 1150 447 2328 
Q 447 3434 972 4092 
Q 1497 4750 2381 4750 
Q 2619 4750 2861 4703 
Q 3103 4656 3366 4563 
z
" transform="scale(0.015625)"/>
       </defs>
       <use xlink:href="#DejaVuSans-2212"/>
       <use xlink:href="#DejaVuSans-36" transform="translate(83.789062 0)"/>
       <use xlink:href="#DejaVuSans-30" transform="translate(147.412109 0)"/>
      </g>
     </g>
    </g>
    <g id="ytick_6">
     <g id="line2d_21">
      <path d="M 57.528957 120.169431 
L 414.208488 120.169431 
" clip-path="url(#pdb7f6327cf)" style="fill: none; stroke: #b0b0b0; stroke-width: 0.8; stroke-linecap: square"/>
     </g>
     <g id="line2d_22">
      <g>
       <use xlink:href="#m600f7aa2d5" x="57.528957" y="120.169431" style="stroke: #000000; stroke-width: 0.8"/>
      </g>
     </g>
     <g id="text_12">
      <!-- −40 -->
      <g transform="translate(29.424269 123.968649) scale(0.1 -0.1)">
       <use xlink:href="#DejaVuSans-2212"/>
       <use xlink:href="#DejaVuSans-34" transform="translate(83.789062 0)"/>
       <use xlink:href="#DejaVuSans-30" transform="translate(147.412109 0)"/>
      </g>
     </g>
    </g>
    <g id="ytick_7">
     <g id="line2d_23">
      <path d="M 57.528957 86.847845 
L 414.208488 86.847845 
" clip-path="url(#pdb7f6327cf)" style="fill: none; stroke: #b0b0b0; stroke-width: 0.8; stroke-linecap: square"/>
     </g>
     <g id="line2d_24">
      <g>
       <use xlink:href="#m600f7aa2d5" x="57.528957" y="86.847845" style="stroke: #000000; stroke-width: 0.8"/>
      </g>
     </g>
     <g id="text_13">
      <!-- −20 -->
      <g transform="translate(29.424269 90.647064) scale(0.1 -0.1)">
       <use xlink:href="#DejaVuSans-2212"/>
       <use xlink:href="#DejaVuSans-32" transform="translate(83.789062 0)"/>
       <use xlink:href="#DejaVuSans-30" transform="translate(147.412109 0)"/>
      </g>
     </g>
    </g>
    <g id="ytick_8">
     <g id="line2d_25">
      <path d="M 57.528957 53.52626 
L 414.208488 53.52626 
" clip-path="url(#pdb7f6327cf)" style="fill: none; stroke: #b0b0b0; stroke-width: 0.8; stroke-linecap: square"/>
     </g>
     <g id="line2d_26">
      <g>
       <use xlink:href="#m600f7aa2d5" x="57.528957" y="53.52626" style="stroke: #000000; stroke-width: 0.8"/>
      </g>
     </g>
     <g id="text_14">
      <!-- 0 -->
      <g transform="translate(44.166457 57.325479) scale(0.1 -0.1)">
       <use xlink:href="#DejaVuSans-30"/>
      </g>
     </g>
    </g>
   </g>
   <g id="line2d_27">
    <path d="M 73.741663 193.959045 
L 74.058472 194.116843 
L 74.375281 194.597762 
L 74.850495 195.983173 
L 75.325708 198.337792 
L 75.800922 202.076761 
L 76.276136 208.272947 
L 76.592945 215.442372 
L 76.751349 221.302139 
L 76.909754 231.576456 
L 77.068158 275.625918 
L 77.226563 230.150971 
L 77.543372 214.654225 
L 78.018586 204.880456 
L 78.493799 199.421741 
L 79.127417 194.988646 
L 79.602631 192.945817 
L 80.077845 191.712415 
L 80.394654 191.285127 
L 80.711463 191.160681 
L 81.028272 191.343893 
L 81.345081 191.854756 
L 81.66189 192.732549 
L 82.137104 194.897329 
L 82.612318 198.52474 
L 82.929127 202.306883 
L 83.245936 208.244731 
L 83.562745 220.07338 
L 83.721149 236.157231 
L 83.879554 234.666416 
L 84.196363 211.467132 
L 84.671577 199.661811 
L 85.14679 193.078372 
L 85.780409 187.346411 
L 86.414027 183.4464 
L 87.047645 180.696763 
L 87.681263 178.791396 
L 88.314882 177.573886 
L 88.790095 177.061455 
L 89.265309 176.872895 
L 89.740523 177.003338 
L 90.215736 177.458797 
L 90.69095 178.257117 
L 91.324568 179.914197 
L 91.958186 182.382211 
L 92.591804 185.93491 
L 93.225423 191.166175 
L 93.700636 197.087703 
L 94.017445 202.991733 
L 94.334255 212.830178 
L 94.492659 222.153426 
L 94.651064 253.51289 
L 94.967873 215.463684 
L 95.284682 205.412102 
L 95.759896 197.968458 
L 96.235109 193.773749 
L 96.710323 191.18342 
L 97.185536 189.622936 
L 97.66075 188.836949 
L 97.977559 188.680564 
L 98.294368 188.797589 
L 98.611177 189.183307 
L 99.086391 190.281115 
L 99.561605 192.067909 
L 100.036818 194.698489 
L 100.512032 198.493734 
L 100.987246 204.197202 
L 101.304055 210.034154 
L 101.620864 219.96275 
L 101.779269 229.601101 
L 101.937673 268.327965 
L 102.096078 232.083394 
L 102.412887 215.853219 
L 102.8881 206.492917 
L 103.363314 201.697464 
L 103.838528 198.950849 
L 104.313741 197.516789 
L 104.63055 197.147579 
L 104.94736 197.21434 
L 105.264169 197.725161 
L 105.580978 198.722614 
L 106.056191 201.349809 
L 106.531405 206.041384 
L 106.848214 211.363496 
L 107.165023 221.276681 
L 107.323428 232.038054 
L 107.481832 260.20428 
L 107.640237 228.026654 
L 107.957046 212.900584 
L 108.43226 202.8487 
L 108.907473 196.979998 
L 109.541092 191.910807 
L 110.17471 188.625125 
L 110.808328 186.53782 
L 111.283542 185.598181 
L 111.758755 185.133414 
L 112.075564 185.074847 
L 112.392374 185.215221 
L 112.709183 185.557539 
L 113.184396 186.467398 
L 113.65961 187.897891 
L 114.134824 189.935541 
L 114.768442 193.87399 
L 115.243655 198.156459 
L 115.718869 204.406562 
L 116.035678 210.692711 
L 116.352487 221.318679 
L 116.510892 231.807225 
L 116.669296 288.455247 
L 116.827701 231.970624 
L 117.14451 217.154008 
L 117.461319 210.87064 
L 117.936533 206.087063 
L 118.253342 204.510926 
L 118.570151 203.840188 
L 118.728556 203.809715 
L 118.88696 203.98022 
L 119.203769 204.962507 
L 119.520578 206.963431 
L 119.837388 210.433534 
L 120.154197 216.622587 
L 120.312601 221.942647 
L 120.471006 231.414937 
L 120.62941 295.257756 
L 120.787815 230.919145 
L 121.104624 214.237133 
L 121.579838 203.444613 
L 122.055051 197.147841 
L 122.688669 191.739729 
L 123.322288 188.334616 
L 123.797501 186.736603 
L 124.272715 185.846248 
L 124.589524 185.631594 
L 124.906333 185.72692 
L 125.223142 186.152056 
L 125.539951 186.942821 
L 126.015165 188.952929 
L 126.490379 192.314738 
L 126.965592 197.979437 
L 127.282402 204.415957 
L 127.599211 217.444827 
L 127.757615 237.442195 
L 128.391233 202.846661 
L 128.866447 194.685426 
L 129.341661 190.201561 
L 129.816874 187.655759 
L 130.133683 186.757463 
L 130.450493 186.43223 
L 130.608897 186.483359 
L 130.925706 187.036572 
L 131.242515 188.263373 
L 131.559324 190.324346 
L 131.876134 193.535187 
L 132.192943 198.592322 
L 132.509752 207.555994 
L 132.668156 215.999242 
L 132.826561 238.435738 
L 133.301775 206.408443 
L 133.618584 200.217311 
L 133.935393 198.11629 
L 134.093797 198.377076 
L 134.252202 199.747472 
L 134.410606 202.823371 
L 134.569011 209.459661 
L 134.727415 234.100668 
L 135.044225 197.493174 
L 135.519438 178.335132 
L 136.153056 163.753203 
L 136.945079 150.954057 
L 137.895507 139.20928 
L 139.004338 128.254562 
L 140.271575 117.986263 
L 141.697216 108.371684 
L 143.122857 100.243008 
L 144.706902 92.541458 
L 146.290948 85.959435 
L 147.874993 80.302454 
L 149.459039 75.433207 
L 151.043084 71.249463 
L 152.62713 67.671532 
L 154.211175 64.634571 
L 155.795221 62.083555 
L 157.379267 59.969806 
L 158.963312 58.248497 
L 160.547358 56.876842 
L 162.131403 55.812839 
L 163.715449 55.014541 
L 165.457899 54.39311 
L 167.358753 53.958678 
L 169.576417 53.683824 
L 172.586104 53.547939 
L 179.872713 53.529257 
L 300.735387 53.589019 
L 303.586669 53.81572 
L 305.645928 54.185042 
L 307.388378 54.701885 
L 308.972424 55.383105 
L 310.556469 56.309002 
L 311.98211 57.386241 
L 313.407751 58.726254 
L 314.833392 60.359765 
L 316.259033 62.318213 
L 317.684674 64.634571 
L 319.110315 67.344464 
L 320.69436 70.865575 
L 322.278406 74.985445 
L 323.862452 79.781991 
L 325.446497 85.354729 
L 327.030543 91.836679 
L 328.456184 98.600964 
L 329.881825 106.451684 
L 331.149061 114.586958 
L 332.416297 124.172537 
L 333.525129 134.231873 
L 334.475557 144.72807 
L 335.267579 155.626147 
L 335.901198 166.87636 
L 336.376411 178.335132 
L 336.69322 189.38285 
L 337.010029 210.946844 
L 337.168434 234.100668 
L 337.326838 209.459661 
L 337.643648 199.747472 
L 337.802052 198.377076 
L 337.960457 198.11629 
L 338.118861 198.742925 
L 338.43567 202.654482 
L 338.752479 212.443693 
L 339.069289 238.435738 
L 339.386098 207.555994 
L 339.702907 198.592322 
L 340.17812 191.756164 
L 340.653334 188.263373 
L 340.970143 187.036572 
L 341.286952 186.483359 
L 341.445357 186.43223 
L 341.603761 186.524168 
L 341.920571 187.133269 
L 342.23738 188.332541 
L 342.712593 191.435626 
L 343.187807 196.831789 
L 343.504616 202.846661 
L 343.821425 214.129988 
L 344.138234 237.442195 
L 344.455043 209.445008 
L 344.771852 200.785176 
L 345.247066 193.867479 
L 345.72228 189.894154 
L 346.197493 187.492507 
L 346.672707 186.152056 
L 346.989516 185.72692 
L 347.306325 185.631594 
L 347.623134 185.846248 
L 347.939944 186.363595 
L 348.415157 187.719286 
L 348.890371 189.834973 
L 349.365585 192.867819 
L 349.840798 197.147841 
L 350.316012 203.444613 
L 350.632821 209.779697 
L 350.94963 220.449735 
L 351.108035 230.919145 
L 351.266439 295.257756 
L 351.424844 231.414937 
L 351.741653 216.622587 
L 352.058462 210.433534 
L 352.533676 205.816707 
L 352.850485 204.359195 
L 353.167294 203.809715 
L 353.325698 203.840188 
L 353.484103 204.071513 
L 353.800912 205.174024 
L 354.117721 207.291326 
L 354.43453 210.87064 
L 354.751339 217.154008 
L 354.909744 222.506679 
L 355.068148 231.970624 
L 355.226553 288.455247 
L 355.384958 231.807225 
L 355.701767 215.124797 
L 356.17698 204.406562 
L 356.652194 198.156459 
L 357.285812 192.731373 
L 357.91943 189.181316 
L 358.553049 186.883061 
L 359.028262 185.806575 
L 359.503476 185.215221 
L 359.820285 185.074847 
L 360.137094 185.133414 
L 360.453903 185.392159 
L 360.929117 186.169326 
L 361.404331 187.452259 
L 361.879544 189.319353 
L 362.354758 191.910807 
L 362.829971 195.488263 
L 363.305185 200.603558 
L 363.780399 208.753949 
L 364.097208 218.63663 
L 364.255612 228.026654 
L 364.414017 260.20428 
L 364.730826 221.276681 
L 365.047635 211.363496 
L 365.522849 204.161123 
L 365.998063 200.297134 
L 366.473276 198.158787 
L 366.790085 197.412481 
L 367.106894 197.126694 
L 367.423704 197.276972 
L 367.740513 197.871016 
L 368.057322 198.950849 
L 368.532535 201.697464 
L 369.007749 206.492917 
L 369.324558 211.853346 
L 369.641367 221.679695 
L 369.799772 232.083394 
L 369.958176 268.327965 
L 370.116581 229.601101 
L 370.43339 214.176579 
L 370.908604 204.197202 
L 371.383817 198.493734 
L 372.017436 193.713013 
L 372.651054 190.79472 
L 373.126267 189.478287 
L 373.601481 188.797589 
L 373.91829 188.680564 
L 374.235099 188.836949 
L 374.551908 189.282757 
L 375.027122 190.565366 
L 375.502336 192.770692 
L 375.977549 196.330081 
L 376.452763 202.353071 
L 376.769572 209.491102 
L 376.927977 215.463684 
L 377.086381 226.336042 
L 377.244786 253.51289 
L 377.40319 222.153426 
L 377.719999 207.123726 
L 378.195213 197.087703 
L 378.828831 189.643587 
L 379.46245 184.921324 
L 380.096068 181.677502 
L 380.729686 179.430973 
L 381.363304 177.951253 
L 381.838518 177.270029 
L 382.313731 176.924268 
L 382.788945 176.900287 
L 383.264159 177.195721 
L 383.739372 177.819143 
L 384.214586 178.791396 
L 384.848204 180.696763 
L 385.481823 183.4464 
L 386.115441 187.346411 
L 386.749059 193.078372 
L 387.224273 199.661811 
L 387.541082 206.461109 
L 387.857891 218.967258 
L 388.016295 234.666416 
L 388.1747 236.157231 
L 388.491509 212.863123 
L 388.808318 204.895261 
L 389.283532 198.52474 
L 389.758745 194.897329 
L 390.233959 192.732549 
L 390.709173 191.55644 
L 391.025982 191.212966 
L 391.342791 191.185078 
L 391.6596 191.46067 
L 391.976409 192.041966 
L 392.451623 193.528663 
L 392.926837 195.884797 
L 393.40205 199.421741 
L 393.877264 204.880456 
L 394.194073 210.570246 
L 394.510882 220.41363 
L 394.669287 230.150971 
L 394.827691 275.625918 
L 394.986096 231.576456 
L 395.302905 215.442372 
L 395.778118 205.805339 
L 396.253332 200.633316 
L 396.728546 197.426702 
L 397.203759 195.425823 
L 397.678973 194.315836 
L 397.995782 193.99838 
L 397.995782 193.99838 
" clip-path="url(#pdb7f6327cf)" style="fill: none; stroke: #0000ff; stroke-width: 2; stroke-linecap: square"/>
   </g>
   <g id="line2d_28">
    <path d="M 73.741663 198.121881 
L 74.058472 198.310622 
L 74.375281 198.888635 
L 74.69209 199.894202 
L 75.167304 202.384257 
L 75.642517 206.595244 
L 75.959326 211.086958 
L 76.276136 218.529869 
L 76.43454 224.909763 
L 76.751349 251.527734 
L 77.068158 220.370967 
L 77.543372 207.94025 
L 78.018586 201.379003 
L 78.652204 195.922555 
L 79.285822 192.448398 
L 79.91944 190.25157 
L 80.394654 189.258489 
L 80.869868 188.760026 
L 81.186677 188.690966 
L 81.503486 188.832936 
L 81.820295 189.192871 
L 82.295509 190.173555 
L 82.770722 191.762605 
L 83.245936 194.120778 
L 83.721149 197.563402 
L 84.196363 202.803155 
L 84.513172 208.210155 
L 84.829981 217.379612 
L 84.988386 226.019229 
L 85.14679 250.946211 
L 85.4636 220.48714 
L 85.780409 209.690402 
L 86.255622 201.516393 
L 86.730836 196.667291 
L 87.364454 192.592112 
L 87.998072 190.139384 
L 88.473286 189.061467 
L 88.9485 188.529822 
L 89.265309 188.457461 
L 89.582118 188.60654 
L 89.898927 188.980958 
L 90.374141 189.991452 
L 90.849354 191.61189 
L 91.324568 193.990423 
L 91.799782 197.417598 
L 92.274995 202.537701 
L 92.591804 207.689148 
L 92.908614 216.032063 
L 93.067018 223.254299 
L 93.225423 238.318248 
L 93.383827 241.129626 
L 93.700636 216.830044 
L 94.17585 205.662387 
L 94.651064 199.904886 
L 95.126277 196.297514 
L 95.601491 193.934365 
L 96.076705 192.443302 
L 96.551918 191.647495 
L 96.868727 191.459935 
L 97.185536 191.534374 
L 97.502346 191.871317 
L 97.977559 192.894367 
L 98.452773 194.619632 
L 98.927987 197.227722 
L 99.4032 201.094912 
L 99.878414 207.131626 
L 100.195223 213.65976 
L 100.512032 226.196305 
L 100.670437 243.092435 
L 100.828841 240.466101 
L 101.14565 218.404072 
L 101.620864 207.64671 
L 102.096078 202.14288 
L 102.571291 198.809227 
L 103.046505 196.787109 
L 103.521719 195.742498 
L 103.838528 195.521317 
L 104.155337 195.67016 
L 104.472146 196.205296 
L 104.788955 197.169061 
L 105.264169 199.60923 
L 105.739382 203.814256 
L 106.056191 208.372026 
L 106.373001 216.085711 
L 106.531405 222.909138 
L 106.848214 241.92261 
L 107.165023 216.066466 
L 107.640237 204.043978 
L 108.115451 197.531418 
L 108.749069 192.039665 
L 109.382687 188.498721 
L 110.016305 186.227263 
L 110.491519 185.177594 
L 110.966733 184.622748 
L 111.283542 184.515741 
L 111.600351 184.618599 
L 111.91716 184.936908 
L 112.392374 185.845414 
L 112.867587 187.338099 
L 113.342801 189.547496 
L 113.818015 192.722564 
L 114.293228 197.385223 
L 114.768442 204.922646 
L 115.085251 213.987116 
L 115.243655 222.239378 
L 115.40206 243.056317 
L 115.877274 212.375902 
L 116.352487 202.169771 
L 116.827701 196.944152 
L 117.302915 193.847008 
L 117.778128 192.070172 
L 118.094937 191.458172 
L 118.411747 191.25795 
L 118.728556 191.462707 
L 119.045365 192.092036 
L 119.362174 193.196947 
L 119.837388 195.979936 
L 120.312601 200.845345 
L 120.62941 206.323126 
L 120.946219 216.535435 
L 121.104624 227.802203 
L 121.263029 250.317198 
L 121.579838 213.407061 
L 121.896647 203.820907 
L 122.37186 195.983293 
L 122.847074 191.192992 
L 123.480692 187.186252 
L 123.955906 185.360902 
L 124.43112 184.333212 
L 124.747929 184.054285 
L 125.064738 184.09653 
L 125.381547 184.472256 
L 125.698356 185.209634 
L 126.17357 187.110379 
L 126.648783 190.273064 
L 127.123997 195.478482 
L 127.440806 201.128563 
L 127.757615 211.27794 
L 127.91602 221.881662 
L 128.074424 257.422187 
L 128.232829 219.630934 
L 128.549638 204.650732 
L 129.024852 195.409323 
L 129.500065 190.627036 
L 129.975279 188.014096 
L 130.292088 187.140599 
L 130.608897 186.884409 
L 130.767302 186.986632 
L 131.084111 187.679718 
L 131.40092 189.110933 
L 131.717729 191.476228 
L 132.034538 195.176036 
L 132.351347 201.162397 
L 132.668156 212.810587 
L 132.984965 233.824111 
L 133.301775 208.498533 
L 133.618584 201.450255 
L 133.935393 199.02232 
L 134.093797 199.195346 
L 134.252202 200.515744 
L 134.410606 203.591216 
L 134.569011 210.356588 
L 134.727415 237.319587 
L 135.044225 197.601447 
L 135.519438 178.520791 
L 136.153056 163.907013 
L 136.945079 151.063834 
L 137.895507 139.279817 
L 139.004338 128.294491 
L 140.271575 118.004354 
L 141.697216 108.375607 
L 143.122857 100.239484 
L 144.706902 92.534357 
L 146.290948 85.951632 
L 147.874993 80.295506 
L 149.459039 75.427854 
L 151.043084 71.245932 
L 152.62713 67.669729 
L 154.211175 64.634216 
L 155.795221 62.084271 
L 157.379267 59.971191 
L 158.963312 58.250169 
L 160.547358 56.878481 
L 162.131403 55.814213 
L 163.715449 55.015522 
L 165.457899 54.393634 
L 167.358753 53.958804 
L 169.576417 53.683728 
L 172.586104 53.547919 
L 179.872713 53.529284 
L 300.576982 53.582676 
L 303.428264 53.795835 
L 305.645928 54.185381 
L 307.388378 54.702654 
L 308.972424 55.384292 
L 310.556469 56.310531 
L 311.98211 57.387925 
L 313.407751 58.727876 
L 314.833392 60.361048 
L 316.259033 62.318841 
L 317.684674 64.634216 
L 319.110315 67.342821 
L 320.69436 70.862225 
L 322.278406 74.980271 
L 323.862452 79.77518 
L 325.446497 85.346958 
L 327.030543 91.829406 
L 328.456184 98.596406 
L 329.881825 106.453486 
L 331.149061 114.599352 
L 332.416297 124.202955 
L 333.525129 134.287633 
L 334.475557 144.816434 
L 335.267579 155.752381 
L 335.901198 167.039683 
L 336.376411 178.520791 
L 336.69322 189.551409 
L 337.010029 210.778231 
L 337.168434 237.319587 
L 337.326838 210.356588 
L 337.643648 200.515744 
L 337.802052 199.195346 
L 337.960457 199.02232 
L 338.118861 199.780313 
L 338.43567 204.195734 
L 338.752479 215.784915 
L 338.910884 233.824111 
L 339.069289 226.970925 
L 339.386098 205.790559 
L 339.702907 197.778598 
L 340.17812 191.476228 
L 340.653334 188.293885 
L 340.970143 187.248616 
L 341.286952 186.884409 
L 341.445357 186.936423 
L 341.762166 187.498213 
L 342.078975 188.697145 
L 342.395784 190.627036 
L 342.870998 195.409323 
L 343.187807 200.738409 
L 343.504616 210.217114 
L 343.663021 219.630934 
L 343.821425 257.422187 
L 343.97983 221.881662 
L 344.296639 205.283722 
L 344.771852 195.478482 
L 345.247066 190.273064 
L 345.72228 187.110379 
L 346.197493 185.209634 
L 346.672707 184.241362 
L 346.989516 184.034826 
L 347.306325 184.153825 
L 347.623134 184.593048 
L 348.098348 185.874799 
L 348.573562 187.997978 
L 349.048775 191.192992 
L 349.523989 195.983293 
L 349.999203 203.820907 
L 350.316012 213.407061 
L 350.474416 222.445346 
L 350.632821 250.317198 
L 350.94963 216.535435 
L 351.266439 206.323126 
L 351.741653 198.902705 
L 352.216866 194.874892 
L 352.69208 192.580317 
L 353.167294 191.462707 
L 353.484103 191.25795 
L 353.800912 191.458172 
L 354.117721 192.070172 
L 354.43453 193.129058 
L 354.909744 195.731881 
L 355.384958 200.097128 
L 355.701767 204.72585 
L 356.018576 212.375902 
L 356.17698 218.952394 
L 356.493789 243.056317 
L 356.810598 213.987116 
L 357.285812 201.91636 
L 357.761026 195.611379 
L 358.394644 190.480913 
L 359.028262 187.338099 
L 359.503476 185.845414 
L 359.97869 184.936908 
L 360.453903 184.540716 
L 360.770712 184.54315 
L 361.087521 184.754662 
L 361.562735 185.470558 
L 362.037949 186.695475 
L 362.513162 188.498721 
L 362.988376 191.009073 
L 363.46359 194.468773 
L 363.938803 199.384155 
L 364.414017 207.087823 
L 364.730826 216.066466 
L 364.889231 223.963894 
L 365.047635 241.92261 
L 365.20604 237.088094 
L 365.522849 216.085711 
L 365.998063 205.84422 
L 366.473276 200.765766 
L 366.94849 197.834609 
L 367.423704 196.205296 
L 367.740513 195.67016 
L 368.057322 195.521317 
L 368.374131 195.742498 
L 368.69094 196.339544 
L 369.166154 198.011997 
L 369.641367 200.850589 
L 370.116581 205.470719 
L 370.43339 210.328087 
L 370.750199 218.404072 
L 370.908604 225.503959 
L 371.067008 240.466101 
L 371.225413 243.092435 
L 371.542222 218.60154 
L 372.017436 207.131626 
L 372.492649 201.094912 
L 373.126267 196.243003 
L 373.759886 193.385012 
L 374.235099 192.141022 
L 374.710313 191.534374 
L 375.027122 191.459935 
L 375.343931 191.647495 
L 375.66074 192.106299 
L 376.135954 193.351788 
L 376.611168 195.395883 
L 377.086381 198.526493 
L 377.561595 203.399292 
L 377.878404 208.441932 
L 378.195213 216.830044 
L 378.353618 224.320644 
L 378.512022 241.129626 
L 378.670427 238.318248 
L 378.987236 216.032063 
L 379.46245 204.864272 
L 379.937663 198.88526 
L 380.571281 193.990423 
L 381.2049 190.996797 
L 381.680113 189.591725 
L 382.155327 188.765072 
L 382.472136 188.504234 
L 382.788945 188.465946 
L 383.105754 188.649638 
L 383.422563 189.061467 
L 383.897777 190.139384 
L 384.372991 191.85318 
L 384.848204 194.376388 
L 385.323418 198.057678 
L 385.798632 203.713418 
L 386.115441 209.690402 
L 386.43225 220.48714 
L 386.749059 250.946211 
L 387.065868 217.379612 
L 387.382677 208.210155 
L 387.857891 200.778316 
L 388.333104 196.264554 
L 388.966723 192.452022 
L 389.600341 190.173555 
L 390.075555 189.192871 
L 390.550768 188.735282 
L 390.867577 188.699317 
L 391.184386 188.873136 
L 391.501196 189.258489 
L 391.976409 190.25157 
L 392.451623 191.795066 
L 392.926837 193.996537 
L 393.40205 197.056633 
L 393.877264 201.379003 
L 394.352477 207.94025 
L 394.669287 214.984657 
L 394.986096 228.906969 
L 395.1445 251.527734 
L 395.619714 218.529869 
L 396.094928 208.604198 
L 396.570141 203.550188 
L 397.045355 200.578849 
L 397.520569 198.888635 
L 397.837378 198.310622 
L 397.995782 198.168888 
L 397.995782 198.168888 
" clip-path="url(#pdb7f6327cf)" style="fill: none; stroke: #ff0000; stroke-width: 2; stroke-linecap: square"/>
   </g>
   <g id="patch_3">
    <path d="M 57.528957 307.344331 
L 57.528957 41.439685 
" style="fill: none; stroke: #000000; stroke-width: 0.8; stroke-linejoin: miter; stroke-linecap: square"/>
   </g>
   <g id="patch_4">
    <path d="M 414.208488 307.344331 
L 414.208488 41.439685 
" style="fill: none; stroke: #000000; stroke-width: 0.8; stroke-linejoin: miter; stroke-linecap: square"/>
   </g>
   <g id="patch_5">
    <path d="M 57.528957 307.344331 
L 414.208488 307.344331 
" style="fill: none; stroke: #000000; stroke-width: 0.8; stroke-linejoin: miter; stroke-linecap: square"/>
   </g>
   <g id="patch_6">
    <path d="M 57.528957 41.439685 
L 414.208488 41.439685 
" style="fill: none; stroke: #000000; stroke-width: 0.8; stroke-linejoin: miter; stroke-linecap: square"/>
   </g>
   <g id="text_15">
    <!-- Impulse response spectrum: MultiCycle filter vs Golden model -->
    <g transform="translate(49.476847 22.00231) scale(0.12 -0.12)">
     <defs>
      <path id="DejaVuSans-49" d="M 628 4666 
L 1259 4666 
L 1259 0 
L 628 0 
L 628 4666 
z
" transform="scale(0.015625)"/>
      <path id="DejaVuSans-70" d="M 1159 525 
L 1159 -1331 
L 581 -1331 
L 581 3500 
L 1159 3500 
L 1159 2969 
Q 1341 3281 1617 3432 
Q 1894 3584 2278 3584 
Q 2916 3584 3314 3078 
Q 3713 2572 3713 1747 
Q 3713 922 3314 415 
Q 2916 -91 2278 -91 
Q 1894 -91 1617 61 
Q 1341 213 1159 525 
z
M 3116 1747 
Q 3116 2381 2855 2742 
Q 2594 3103 2138 3103 
Q 1681 3103 1420 2742 
Q 1159 2381 1159 1747 
Q 1159 1113 1420 752 
Q 1681 391 2138 391 
Q 2594 391 2855 752 
Q 3116 1113 3116 1747 
z
" transform="scale(0.015625)"/>
      <path id="DejaVuSans-73" d="M 2834 3397 
L 2834 2853 
Q 2591 2978 2328 3040 
Q 2066 3103 1784 3103 
Q 1356 3103 1142 2972 
Q 928 2841 928 2578 
Q 928 2378 1081 2264 
Q 1234 2150 1697 2047 
L 1894 2003 
Q 2506 1872 2764 1633 
Q 3022 1394 3022 966 
Q 3022 478 2636 193 
Q 2250 -91 1575 -91 
Q 1294 -91 989 -36 
Q 684 19 347 128 
L 347 722 
Q 666 556 975 473 
Q 1284 391 1588 391 
Q 1994 391 2212 530 
Q 2431 669 2431 922 
Q 2431 1156 2273 1281 
Q 2116 1406 1581 1522 
L 1381 1569 
Q 847 1681 609 1914 
Q 372 2147 372 2553 
Q 372 3047 722 3315 
Q 1072 3584 1716 3584 
Q 2034 3584 2315 3537 
Q 2597 3491 2834 3397 
z
" transform="scale(0.015625)"/>
      <path id="DejaVuSans-74" d="M 1172 4494 
L 1172 3500 
L 2356 3500 
L 2356 3053 
L 1172 3053 
L 1172 1153 
Q 1172 725 1289 603 
Q 1406 481 1766 481 
L 2356 481 
L 2356 0 
L 1766 0 
Q 1100 0 847 248 
Q 594 497 594 1153 
L 594 3053 
L 172 3053 
L 172 3500 
L 594 3500 
L 594 4494 
L 1172 4494 
z
" transform="scale(0.015625)"/>
      <path id="DejaVuSans-3a" d="M 750 794 
L 1409 794 
L 1409 0 
L 750 0 
L 750 794 
z
M 750 3309 
L 1409 3309 
L 1409 2516 
L 750 2516 
L 750 3309 
z
" transform="scale(0.015625)"/>
      <path id="DejaVuSans-4d" d="M 628 4666 
L 1569 4666 
L 2759 1491 
L 3956 4666 
L 4897 4666 
L 4897 0 
L 4281 0 
L 4281 4097 
L 3078 897 
L 2444 897 
L 1241 4097 
L 1241 0 
L 628 0 
L 628 4666 
z
" transform="scale(0.015625)"/>
      <path id="DejaVuSans-43" d="M 4122 4306 
L 4122 3641 
Q 3803 3938 3442 4084 
Q 3081 4231 2675 4231 
Q 1875 4231 1450 3742 
Q 1025 3253 1025 2328 
Q 1025 1406 1450 917 
Q 1875 428 2675 428 
Q 3081 428 3442 575 
Q 3803 722 4122 1019 
L 4122 359 
Q 3791 134 3420 21 
Q 3050 -91 2638 -91 
Q 1578 -91 968 557 
Q 359 1206 359 2328 
Q 359 3453 968 4101 
Q 1578 4750 2638 4750 
Q 3056 4750 3426 4639 
Q 3797 4528 4122 4306 
z
" transform="scale(0.015625)"/>
      <path id="DejaVuSans-66" d="M 2375 4863 
L 2375 4384 
L 1825 4384 
Q 1516 4384 1395 4259 
Q 1275 4134 1275 3809 
L 1275 3500 
L 2222 3500 
L 2222 3053 
L 1275 3053 
L 1275 0 
L 697 0 
L 697 3053 
L 147 3053 
L 147 3500 
L 697 3500 
L 697 3744 
Q 697 4328 969 4595 
Q 1241 4863 1831 4863 
L 2375 4863 
z
" transform="scale(0.015625)"/>
      <path id="DejaVuSans-76" d="M 191 3500 
L 800 3500 
L 1894 563 
L 2988 3500 
L 3597 3500 
L 2284 0 
L 1503 0 
L 191 3500 
z
" transform="scale(0.015625)"/>
      <path id="DejaVuSans-47" d="M 3809 666 
L 3809 1919 
L 2778 1919 
L 2778 2438 
L 4434 2438 
L 4434 434 
Q 4069 175 3628 42 
Q 3188 -91 2688 -91 
Q 1594 -91 976 548 
Q 359 1188 359 2328 
Q 359 3472 976 4111 
Q 1594 4750 2688 4750 
Q 3144 4750 3555 4637 
Q 3966 4525 4313 4306 
L 4313 3634 
Q 3963 3931 3569 4081 
Q 3175 4231 2741 4231 
Q 1884 4231 1454 3753 
Q 1025 3275 1025 2328 
Q 1025 1384 1454 906 
Q 1884 428 2741 428 
Q 3075 428 3337 486 
Q 3600 544 3809 666 
z
" transform="scale(0.015625)"/>
     </defs>
     <use xlink:href="#DejaVuSans-49"/>
     <use xlink:href="#DejaVuSans-6d" transform="translate(29.492188 0)"/>
     <use xlink:href="#DejaVuSans-70" transform="translate(126.904297 0)"/>
     <use xlink:href="#DejaVuSans-75" transform="translate(190.380859 0)"/>
     <use xlink:href="#DejaVuSans-6c" transform="translate(253.759766 0)"/>
     <use xlink:href="#DejaVuSans-73" transform="translate(281.542969 0)"/>
     <use xlink:href="#DejaVuSans-65" transform="translate(333.642578 0)"/>
     <use xlink:href="#DejaVuSans-20" transform="translate(395.166016 0)"/>
     <use xlink:href="#DejaVuSans-72" transform="translate(426.953125 0)"/>
     <use xlink:href="#DejaVuSans-65" transform="translate(465.816406 0)"/>
     <use xlink:href="#DejaVuSans-73" transform="translate(527.339844 0)"/>
     <use xlink:href="#DejaVuSans-70" transform="translate(579.439453 0)"/>
     <use xlink:href="#DejaVuSans-6f" transform="translate(642.916016 0)"/>
     <use xlink:href="#DejaVuSans-6e" transform="translate(704.097656 0)"/>
     <use xlink:href="#DejaVuSans-73" transform="translate(767.476562 0)"/>
     <use xlink:href="#DejaVuSans-65" transform="translate(819.576172 0)"/>
     <use xlink:href="#DejaVuSans-20" transform="translate(881.099609 0)"/>
     <use xlink:href="#DejaVuSans-73" transform="translate(912.886719 0)"/>
     <use xlink:href="#DejaVuSans-70" transform="translate(964.986328 0)"/>
     <use xlink:href="#DejaVuSans-65" transform="translate(1028.462891 0)"/>
     <use xlink:href="#DejaVuSans-63" transform="translate(1089.986328 0)"/>
     <use xlink:href="#DejaVuSans-74" transform="translate(1144.966797 0)"/>
     <use xlink:href="#DejaVuSans-72" transform="translate(1184.175781 0)"/>
     <use xlink:href="#DejaVuSans-75" transform="translate(1225.289062 0)"/>
     <use xlink:href="#DejaVuSans-6d" transform="translate(1288.667969 0)"/>
     <use xlink:href="#DejaVuSans-3a" transform="translate(1386.080078 0)"/>
     <use xlink:href="#DejaVuSans-20" transform="translate(1419.771484 0)"/>
     <use xlink:href="#DejaVuSans-4d" transform="translate(1451.558594 0)"/>
     <use xlink:href="#DejaVuSans-75" transform="translate(1537.837891 0)"/>
     <use xlink:href="#DejaVuSans-6c" transform="translate(1601.216797 0)"/>
     <use xlink:href="#DejaVuSans-74" transform="translate(1629 0)"/>
     <use xlink:href="#DejaVuSans-69" transform="translate(1668.208984 0)"/>
     <use xlink:href="#DejaVuSans-43" transform="translate(1695.992188 0)"/>
     <use xlink:href="#DejaVuSans-79" transform="translate(1765.816406 0)"/>
     <use xlink:href="#DejaVuSans-63" transform="translate(1824.996094 0)"/>
     <use xlink:href="#DejaVuSans-6c" transform="translate(1879.976562 0)"/>
     <use xlink:href="#DejaVuSans-65" transform="translate(1907.759766 0)"/>
     <use xlink:href="#DejaVuSans-20" transform="translate(1969.283203 0)"/>
     <use xlink:href="#DejaVuSans-66" transform="translate(2001.070312 0)"/>
     <use xlink:href="#DejaVuSans-69" transform="translate(2036.275391 0)"/>
     <use xlink:href="#DejaVuSans-6c" transform="translate(2064.058594 0)"/>
     <use xlink:href="#DejaVuSans-74" transform="translate(2091.841797 0)"/>
     <use xlink:href="#DejaVuSans-65" transform="translate(2131.050781 0)"/>
     <use xlink:href="#DejaVuSans-72" transform="translate(2192.574219 0)"/>
     <use xlink:href="#DejaVuSans-20" transform="translate(2233.6875 0)"/>
     <use xlink:href="#DejaVuSans-76" transform="translate(2265.474609 0)"/>
     <use xlink:href="#DejaVuSans-73" transform="translate(2324.654297 0)"/>
     <use xlink:href="#DejaVuSans-20" transform="translate(2376.753906 0)"/>
     <use xlink:href="#DejaVuSans-47" transform="translate(2408.541016 0)"/>
     <use xlink:href="#DejaVuSans-6f" transform="translate(2486.03125 0)"/>
     <use xlink:href="#DejaVuSans-6c" transform="translate(2547.212891 0)"/>
     <use xlink:href="#DejaVuSans-64" transform="translate(2574.996094 0)"/>
     <use xlink:href="#DejaVuSans-65" transform="translate(2638.472656 0)"/>
     <use xlink:href="#DejaVuSans-6e" transform="translate(2699.996094 0)"/>
     <use xlink:href="#DejaVuSans-20" transform="translate(2763.375 0)"/>
     <use xlink:href="#DejaVuSans-6d" transform="translate(2795.162109 0)"/>
     <use xlink:href="#DejaVuSans-6f" transform="translate(2892.574219 0)"/>
     <use xlink:href="#DejaVuSans-64" transform="translate(2953.755859 0)"/>
     <use xlink:href="#DejaVuSans-65" transform="translate(3017.232422 0)"/>
     <use xlink:href="#DejaVuSans-6c" transform="translate(3078.755859 0)"/>
    </g>
    <!-- Taps=39, MACS=13 -->
    <g transform="translate(176.268097 35.439685) scale(0.12 -0.12)">
     <defs>
      <path id="DejaVuSans-54" d="M -19 4666 
L 3928 4666 
L 3928 4134 
L 2272 4134 
L 2272 0 
L 1638 0 
L 1638 4134 
L -19 4134 
L -19 4666 
z
" transform="scale(0.015625)"/>
      <path id="DejaVuSans-3d" d="M 678 2906 
L 4684 2906 
L 4684 2381 
L 678 2381 
L 678 2906 
z
M 678 1631 
L 4684 1631 
L 4684 1100 
L 678 1100 
L 678 1631 
z
" transform="scale(0.015625)"/>
      <path id="DejaVuSans-33" d="M 2597 2516 
Q 3050 2419 3304 2112 
Q 3559 1806 3559 1356 
Q 3559 666 3084 287 
Q 2609 -91 1734 -91 
Q 1441 -91 1130 -33 
Q 819 25 488 141 
L 488 750 
Q 750 597 1062 519 
Q 1375 441 1716 441 
Q 2309 441 2620 675 
Q 2931 909 2931 1356 
Q 2931 1769 2642 2001 
Q 2353 2234 1838 2234 
L 1294 2234 
L 1294 2753 
L 1863 2753 
Q 2328 2753 2575 2939 
Q 2822 3125 2822 3475 
Q 2822 3834 2567 4026 
Q 2313 4219 1838 4219 
Q 1578 4219 1281 4162 
Q 984 4106 628 3988 
L 628 4550 
Q 988 4650 1302 4700 
Q 1616 4750 1894 4750 
Q 2613 4750 3031 4423 
Q 3450 4097 3450 3541 
Q 3450 3153 3228 2886 
Q 3006 2619 2597 2516 
z
" transform="scale(0.015625)"/>
      <path id="DejaVuSans-39" d="M 703 97 
L 703 672 
Q 941 559 1184 500 
Q 1428 441 1663 441 
Q 2288 441 2617 861 
Q 2947 1281 2994 2138 
Q 2813 1869 2534 1725 
Q 2256 1581 1919 1581 
Q 1219 1581 811 2004 
Q 403 2428 403 3163 
Q 403 3881 828 4315 
Q 1253 4750 1959 4750 
Q 2769 4750 3195 4129 
Q 3622 3509 3622 2328 
Q 3622 1225 3098 567 
Q 2575 -91 1691 -91 
Q 1453 -91 1209 -44 
Q 966 3 703 97 
z
M 1959 2075 
Q 2384 2075 2632 2365 
Q 2881 2656 2881 3163 
Q 2881 3666 2632 3958 
Q 2384 4250 1959 4250 
Q 1534 4250 1286 3958 
Q 1038 3666 1038 3163 
Q 1038 2656 1286 2365 
Q 1534 2075 1959 2075 
z
" transform="scale(0.015625)"/>
      <path id="DejaVuSans-2c" d="M 750 794 
L 1409 794 
L 1409 256 
L 897 -744 
L 494 -744 
L 750 256 
L 750 794 
z
" transform="scale(0.015625)"/>
      <path id="DejaVuSans-41" d="M 2188 4044 
L 1331 1722 
L 3047 1722 
L 2188 4044 
z
M 1831 4666 
L 2547 4666 
L 4325 0 
L 3669 0 
L 3244 1197 
L 1141 1197 
L 716 0 
L 50 0 
L 1831 4666 
z
" transform="scale(0.015625)"/>
      <path id="DejaVuSans-53" d="M 3425 4513 
L 3425 3897 
Q 3066 4069 2747 4153 
Q 2428 4238 2131 4238 
Q 1616 4238 1336 4038 
Q 1056 3838 1056 3469 
Q 1056 3159 1242 3001 
Q 1428 2844 1947 2747 
L 2328 2669 
Q 3034 2534 3370 2195 
Q 3706 1856 3706 1288 
Q 3706 609 3251 259 
Q 2797 -91 1919 -91 
Q 1588 -91 1214 -16 
Q 841 59 441 206 
L 441 856 
Q 825 641 1194 531 
Q 1563 422 1919 422 
Q 2459 422 2753 634 
Q 3047 847 3047 1241 
Q 3047 1584 2836 1778 
Q 2625 1972 2144 2069 
L 1759 2144 
Q 1053 2284 737 2584 
Q 422 2884 422 3419 
Q 422 4038 858 4394 
Q 1294 4750 2059 4750 
Q 2388 4750 2728 4690 
Q 3069 4631 3425 4513 
z
" transform="scale(0.015625)"/>
     </defs>
     <use xlink:href="#DejaVuSans-54"/>
     <use xlink:href="#DejaVuSans-61" transform="translate(44.583984 0)"/>
     <use xlink:href="#DejaVuSans-70" transform="translate(105.863281 0)"/>
     <use xlink:href="#DejaVuSans-73" transform="translate(169.339844 0)"/>
     <use xlink:href="#DejaVuSans-3d" transform="translate(221.439453 0)"/>
     <use xlink:href="#DejaVuSans-33" transform="translate(305.228516 0)"/>
     <use xlink:href="#DejaVuSans-39" transform="translate(368.851562 0)"/>
     <use xlink:href="#DejaVuSans-2c" transform="translate(432.474609 0)"/>
     <use xlink:href="#DejaVuSans-20" transform="translate(464.261719 0)"/>
     <use xlink:href="#DejaVuSans-4d" transform="translate(496.048828 0)"/>
     <use xlink:href="#DejaVuSans-41" transform="translate(582.328125 0)"/>
     <use xlink:href="#DejaVuSans-43" transform="translate(648.986328 0)"/>
     <use xlink:href="#DejaVuSans-53" transform="translate(718.810547 0)"/>
     <use xlink:href="#DejaVuSans-3d" transform="translate(782.287109 0)"/>
     <use xlink:href="#DejaVuSans-31" transform="translate(866.076172 0)"/>
     <use xlink:href="#DejaVuSans-33" transform="translate(929.699219 0)"/>
    </g>
   </g>
   <g id="legend_1">
    <g id="patch_7">
     <path d="M 184.567941 302.344331 
L 287.169504 302.344331 
Q 289.169504 302.344331 289.169504 300.344331 
L 289.169504 271.988081 
Q 289.169504 269.988081 287.169504 269.988081 
L 184.567941 269.988081 
Q 182.567941 269.988081 182.567941 271.988081 
L 182.567941 300.344331 
Q 182.567941 302.344331 184.567941 302.344331 
z
" style="fill: #ffffff; opacity: 0.8; stroke: #cccccc; stroke-linejoin: miter"/>
    </g>
    <g id="line2d_29">
     <path d="M 186.567941 278.086518 
L 196.567941 278.086518 
L 206.567941 278.086518 
" style="fill: none; stroke: #0000ff; stroke-width: 2; stroke-linecap: square"/>
    </g>
    <g id="text_16">
     <!-- MultiCycle FIR -->
     <g transform="translate(214.567941 281.586518) scale(0.1 -0.1)">
      <defs>
       <path id="DejaVuSans-52" d="M 2841 2188 
Q 3044 2119 3236 1894 
Q 3428 1669 3622 1275 
L 4263 0 
L 3584 0 
L 2988 1197 
Q 2756 1666 2539 1819 
Q 2322 1972 1947 1972 
L 1259 1972 
L 1259 0 
L 628 0 
L 628 4666 
L 2053 4666 
Q 2853 4666 3247 4331 
Q 3641 3997 3641 3322 
Q 3641 2881 3436 2590 
Q 3231 2300 2841 2188 
z
M 1259 4147 
L 1259 2491 
L 2053 2491 
Q 2509 2491 2742 2702 
Q 2975 2913 2975 3322 
Q 2975 3731 2742 3939 
Q 2509 4147 2053 4147 
L 1259 4147 
z
" transform="scale(0.015625)"/>
      </defs>
      <use xlink:href="#DejaVuSans-4d"/>
      <use xlink:href="#DejaVuSans-75" transform="translate(86.279297 0)"/>
      <use xlink:href="#DejaVuSans-6c" transform="translate(149.658203 0)"/>
      <use xlink:href="#DejaVuSans-74" transform="translate(177.441406 0)"/>
      <use xlink:href="#DejaVuSans-69" transform="translate(216.650391 0)"/>
      <use xlink:href="#DejaVuSans-43" transform="translate(244.433594 0)"/>
      <use xlink:href="#DejaVuSans-79" transform="translate(314.257812 0)"/>
      <use xlink:href="#DejaVuSans-63" transform="translate(373.4375 0)"/>
      <use xlink:href="#DejaVuSans-6c" transform="translate(428.417969 0)"/>
      <use xlink:href="#DejaVuSans-65" transform="translate(456.201172 0)"/>
      <use xlink:href="#DejaVuSans-20" transform="translate(517.724609 0)"/>
      <use xlink:href="#DejaVuSans-46" transform="translate(549.511719 0)"/>
      <use xlink:href="#DejaVuSans-49" transform="translate(607.03125 0)"/>
      <use xlink:href="#DejaVuSans-52" transform="translate(636.523438 0)"/>
     </g>
    </g>
    <g id="line2d_30">
     <path d="M 186.567941 292.764643 
L 196.567941 292.764643 
L 206.567941 292.764643 
" style="fill: none; stroke: #ff0000; stroke-width: 2; stroke-linecap: square"/>
    </g>
    <g id="text_17">
     <!-- Golden model -->
     <g transform="translate(214.567941 296.264643) scale(0.1 -0.1)">
      <use xlink:href="#DejaVuSans-47"/>
      <use xlink:href="#DejaVuSans-6f" transform="translate(77.490234 0)"/>
      <use xlink:href="#DejaVuSans-6c" transform="translate(138.671875 0)"/>
      <use xlink:href="#DejaVuSans-64" transform="translate(166.455078 0)"/>
      <use xlink:href="#DejaVuSans-65" transform="translate(229.931641 0)"/>
      <use xlink:href="#DejaVuSans-6e" transform="translate(291.455078 0)"/>
      <use xlink:href="#DejaVuSans-20" transform="translate(354.833984 0)"/>
      <use xlink:href="#DejaVuSans-6d" transform="translate(386.621094 0)"/>
      <use xlink:href="#DejaVuSans-6f" transform="translate(484.033203 0)"/>
      <use xlink:href="#DejaVuSans-64" transform="translate(545.214844 0)"/>
      <use xlink:href="#DejaVuSans-65" transform="translate(608.691406 0)"/>
      <use xlink:href="#DejaVuSans-6c" transform="translate(670.214844 0)"/>
     </g>
    </g>
   </g>
  </g>
 </g>
 <defs>
  <clipPath id="pdb7f6327cf">
   <rect x="57.528957" y="41.439685" width="356.679531" height="265.904646"/>
  </clipPath>
 </defs>
</svg>
