<?xml version="1.0" encoding="utf-8" standalone="no"?>
<!DOCTYPE svg PUBLIC "-//W3C//DTD SVG 1.1//EN"
  "http://www.w3.org/Graphics/SVG/1.1/DTD/svg11.dtd">
<svg xmlns:xlink="http://www.w3.org/1999/xlink" width="299.023479pt" height="232.863113pt" viewBox="0 0 299.023479 232.863113" xmlns="http://www.w3.org/2000/svg" version="1.1">
 <metadata>
  <rdf:RDF xmlns:dc="http://purl.org/dc/elements/1.1/" xmlns:cc="http://creativecommons.org/ns#" xmlns:rdf="http://www.w3.org/1999/02/22-rdf-syntax-ns#">
   <cc:Work>
    <dc:type rdf:resource="http://purl.org/dc/dcmitype/StillImage"/>
    <dc:date>2026-06-10T21:41:29.916491</dc:date>
    <dc:format>image/svg+xml</dc:format>
    <dc:creator>
     <cc:Agent>
      <dc:title>Matplotlib v3.10.8, https://matplotlib.org/</dc:title>
     </cc:Agent>
    </dc:creator>
   </cc:Work>
  </rdf:RDF>
 </metadata>
 <defs>
  <style type="text/css">*{stroke-linejoin: round; stroke-linecap: butt}</style>
 </defs>
 <g id="figure_1">
  <g id="patch_1">
   <path d="M 0 232.863113 
L 299.023479 232.863113 
L 299.023479 0 
L 0 0 
z
" style="fill: #ffffff"/>
  </g>
  <g id="axes_1">
   <g id="patch_2">
    <path d="M 28.136343 204.211444 
L 298.303479 204.211444 
L 298.303479 13.474578 
L 28.136343 13.474578 
z
" style="fill: #ffffff"/>
   </g>
   <g id="matplotlib.axis_1">
    <g id="xtick_1">
     <g id="line2d_1">
      <path d="M 55.166255 204.211444 
L 55.166255 13.474578 
" clip-path="url(#p0fd6623881)" style="fill: none; stroke: #cccccc; stroke-width: 0.8; stroke-linecap: square"/>
     </g>
     <g id="line2d_2">
      <defs>
       <path id="m3f6cc3669c" d="M 0 0 
L 0 3.5 
" style="stroke: #000000; stroke-width: 0.8"/>
      </defs>
      <g>
       <use xlink:href="#m3f6cc3669c" x="55.166255" y="204.211444" style="stroke: #000000; stroke-width: 0.8"/>
      </g>
     </g>
     <g id="text_1">
      <!-- $\mathdefault{−0.4}$ -->
      <g transform="translate(45.957882 217.29056) scale(0.09 -0.09)">
       <defs>
        <path id="CMSY10-0" d="M 4218 1472 
C 4326 1472 4442 1472 4442 1600 
C 4442 1728 4326 1728 4218 1728 
L 755 1728 
C 646 1728 531 1728 531 1600 
C 531 1472 646 1472 755 1472 
L 4218 1472 
z
" transform="scale(0.015625)"/>
        <path id="NimbusRomNo9L-Regu-30" d="M 1626 4352 
C 1274 4352 1005 4244 768 4020 
C 397 3661 154 2925 154 2176 
C 154 1479 365 730 666 372 
C 902 90 1229 -64 1600 -64 
C 1926 -64 2202 45 2432 269 
C 2803 621 3046 1364 3046 2138 
C 3046 3450 2464 4352 1626 4352 
z
M 1606 4186 
C 2144 4186 2432 3463 2432 2125 
C 2432 788 2150 103 1600 103 
C 1050 103 768 788 768 2119 
C 768 3476 1056 4186 1606 4186 
z
" transform="scale(0.015625)"/>
        <path id="CMMI10-3a" d="M 1229 338 
C 1229 522 1075 675 890 675 
C 704 675 550 522 550 338 
C 550 153 704 0 890 0 
C 1075 0 1229 153 1229 338 
z
" transform="scale(0.015625)"/>
        <path id="NimbusRomNo9L-Regu-34" d="M 3021 1497 
L 2368 1497 
L 2368 4352 
L 2086 4352 
L 77 1497 
L 77 1088 
L 1875 1088 
L 1875 32 
L 2368 32 
L 2368 1088 
L 3021 1088 
L 3021 1497 
z
M 1869 1497 
L 333 1497 
L 1869 3698 
L 1869 1497 
z
" transform="scale(0.015625)"/>
       </defs>
       <use xlink:href="#CMSY10-0" transform="scale(0.996264)"/>
       <use xlink:href="#NimbusRomNo9L-Regu-30" transform="translate(77.408707 0) scale(0.996264)"/>
       <use xlink:href="#CMMI10-3a" transform="translate(127.221908 0) scale(0.996264)"/>
       <use xlink:href="#NimbusRomNo9L-Regu-34" transform="translate(154.817414 0) scale(0.996264)"/>
      </g>
     </g>
    </g>
    <g id="xtick_2">
     <g id="line2d_3">
      <path d="M 109.226079 204.211444 
L 109.226079 13.474578 
" clip-path="url(#p0fd6623881)" style="fill: none; stroke: #cccccc; stroke-width: 0.8; stroke-linecap: square"/>
     </g>
     <g id="line2d_4">
      <g>
       <use xlink:href="#m3f6cc3669c" x="109.226079" y="204.211444" style="stroke: #000000; stroke-width: 0.8"/>
      </g>
     </g>
     <g id="text_2">
      <!-- $\mathdefault{−0.2}$ -->
      <g transform="translate(100.017705 217.29056) scale(0.09 -0.09)">
       <defs>
        <path id="NimbusRomNo9L-Regu-32" d="M 3040 875 
L 2957 907 
C 2720 544 2637 486 2349 486 
L 819 486 
L 1894 1609 
C 2464 2202 2714 2687 2714 3185 
C 2714 3823 2195 4313 1530 4313 
C 1178 4313 845 4173 608 3918 
C 403 3700 307 3496 198 3043 
L 333 3011 
C 589 3636 819 3840 1261 3840 
C 1798 3840 2163 3476 2163 2940 
C 2163 2443 1869 1850 1331 1282 
L 192 77 
L 192 0 
L 2688 0 
L 3040 875 
z
" transform="scale(0.015625)"/>
       </defs>
       <use xlink:href="#CMSY10-0" transform="scale(0.996264)"/>
       <use xlink:href="#NimbusRomNo9L-Regu-30" transform="translate(77.408707 0) scale(0.996264)"/>
       <use xlink:href="#CMMI10-3a" transform="translate(127.221908 0) scale(0.996264)"/>
       <use xlink:href="#NimbusRomNo9L-Regu-32" transform="translate(154.817414 0) scale(0.996264)"/>
      </g>
     </g>
    </g>
    <g id="xtick_3">
     <g id="line2d_5">
      <path d="M 163.285902 204.211444 
L 163.285902 13.474578 
" clip-path="url(#p0fd6623881)" style="fill: none; stroke: #cccccc; stroke-width: 0.8; stroke-linecap: square"/>
     </g>
     <g id="line2d_6">
      <g>
       <use xlink:href="#m3f6cc3669c" x="163.285902" y="204.211444" style="stroke: #000000; stroke-width: 0.8"/>
      </g>
     </g>
     <g id="text_3">
      <!-- $\mathdefault{0.0}$ -->
      <g transform="translate(157.560919 217.29056) scale(0.09 -0.09)">
       <use xlink:href="#NimbusRomNo9L-Regu-30" transform="scale(0.996264)"/>
       <use xlink:href="#CMMI10-3a" transform="translate(49.8132 0) scale(0.996264)"/>
       <use xlink:href="#NimbusRomNo9L-Regu-30" transform="translate(77.408707 0) scale(0.996264)"/>
      </g>
     </g>
    </g>
    <g id="xtick_4">
     <g id="line2d_7">
      <path d="M 217.345726 204.211444 
L 217.345726 13.474578 
" clip-path="url(#p0fd6623881)" style="fill: none; stroke: #cccccc; stroke-width: 0.8; stroke-linecap: square"/>
     </g>
     <g id="line2d_8">
      <g>
       <use xlink:href="#m3f6cc3669c" x="217.345726" y="204.211444" style="stroke: #000000; stroke-width: 0.8"/>
      </g>
     </g>
     <g id="text_4">
      <!-- $\mathdefault{0.2}$ -->
      <g transform="translate(211.620742 217.29056) scale(0.09 -0.09)">
       <use xlink:href="#NimbusRomNo9L-Regu-30" transform="scale(0.996264)"/>
       <use xlink:href="#CMMI10-3a" transform="translate(49.8132 0) scale(0.996264)"/>
       <use xlink:href="#NimbusRomNo9L-Regu-32" transform="translate(77.408707 0) scale(0.996264)"/>
      </g>
     </g>
    </g>
    <g id="xtick_5">
     <g id="line2d_9">
      <path d="M 271.405549 204.211444 
L 271.405549 13.474578 
" clip-path="url(#p0fd6623881)" style="fill: none; stroke: #cccccc; stroke-width: 0.8; stroke-linecap: square"/>
     </g>
     <g id="line2d_10">
      <g>
       <use xlink:href="#m3f6cc3669c" x="271.405549" y="204.211444" style="stroke: #000000; stroke-width: 0.8"/>
      </g>
     </g>
     <g id="text_5">
      <!-- $\mathdefault{0.4}$ -->
      <g transform="translate(265.680566 217.29056) scale(0.09 -0.09)">
       <use xlink:href="#NimbusRomNo9L-Regu-30" transform="scale(0.996264)"/>
       <use xlink:href="#CMMI10-3a" transform="translate(49.8132 0) scale(0.996264)"/>
       <use xlink:href="#NimbusRomNo9L-Regu-34" transform="translate(77.408707 0) scale(0.996264)"/>
      </g>
     </g>
    </g>
    <g id="text_6">
     <!-- Normalized Frequency -->
     <g transform="translate(117.506715 229.986284) scale(0.1 -0.1)">
      <defs>
       <path id="NimbusRomNo9L-Regu-4e" d="M 3917 -64 
L 3917 3287 
C 3917 3669 3981 3905 4102 3987 
C 4192 4051 4282 4077 4525 4102 
L 4525 4224 
L 3021 4224 
L 3021 4102 
C 3264 4083 3354 4057 3450 4000 
C 3578 3911 3635 3681 3635 3286 
L 3635 1136 
L 1171 4224 
L 77 4224 
L 77 4102 
C 352 4102 442 4051 698 3751 
L 698 938 
C 698 281 608 159 77 121 
L 77 0 
L 1581 0 
L 1581 134 
C 1088 134 979 281 979 928 
L 979 3439 
L 3808 -64 
L 3917 -64 
z
" transform="scale(0.015625)"/>
       <path id="NimbusRomNo9L-Regu-6f" d="M 1600 2944 
C 768 2944 186 2330 186 1446 
C 186 582 781 -64 1587 -64 
C 2394 -64 3008 614 3008 1498 
C 3008 2336 2419 2944 1600 2944 
z
M 1517 2765 
C 2054 2765 2432 2150 2432 1274 
C 2432 550 2144 115 1664 115 
C 1414 115 1178 269 1043 525 
C 864 858 762 1306 762 1760 
C 762 2368 1062 2765 1517 2765 
z
" transform="scale(0.015625)"/>
       <path id="NimbusRomNo9L-Regu-72" d="M 45 2496 
C 134 2515 192 2522 269 2522 
C 429 2522 486 2419 486 2138 
L 486 538 
C 486 218 442 173 32 96 
L 32 0 
L 1568 0 
L 1568 102 
C 1133 102 1024 199 1024 565 
L 1024 2013 
C 1024 2219 1299 2541 1472 2541 
C 1510 2541 1568 2509 1638 2445 
C 1741 2355 1811 2317 1894 2317 
C 2048 2317 2144 2426 2144 2605 
C 2144 2816 2010 2944 1792 2944 
C 1523 2944 1338 2797 1024 2343 
L 1024 2931 
L 992 2944 
C 653 2803 422 2721 45 2599 
L 45 2496 
z
" transform="scale(0.015625)"/>
       <path id="NimbusRomNo9L-Regu-6d" d="M 122 2547 
C 205 2566 256 2573 326 2573 
C 493 2573 550 2470 550 2162 
L 550 539 
C 550 192 461 96 102 96 
L 102 0 
L 1523 0 
L 1523 96 
C 1184 96 1088 166 1088 418 
L 1088 2234 
C 1088 2246 1139 2310 1184 2355 
C 1344 2502 1619 2611 1843 2611 
C 2125 2611 2266 2385 2266 1932 
L 2266 528 
C 2266 167 2195 96 1830 96 
L 1830 0 
L 3264 0 
L 3264 96 
C 2899 96 2803 205 2803 603 
L 2803 2221 
C 2995 2496 3206 2611 3501 2611 
C 3866 2611 3981 2438 3981 1907 
L 3981 557 
C 3981 192 3930 141 3558 96 
L 3558 0 
L 4960 0 
L 4960 96 
L 4794 115 
C 4602 115 4518 230 4518 480 
L 4518 1802 
C 4518 2559 4269 2944 3776 2944 
C 3405 2944 3078 2778 2733 2407 
C 2618 2771 2400 2944 2054 2944 
C 1773 2944 1594 2854 1062 2451 
L 1062 2931 
L 1018 2944 
C 691 2822 474 2752 122 2656 
L 122 2547 
z
" transform="scale(0.015625)"/>
       <path id="NimbusRomNo9L-Regu-61" d="M 2829 423 
C 2720 333 2643 301 2547 301 
C 2400 301 2355 390 2355 672 
L 2355 1920 
C 2355 2253 2323 2438 2227 2592 
C 2086 2822 1811 2944 1434 2944 
C 832 2944 358 2630 358 2227 
C 358 2080 486 1952 634 1952 
C 787 1952 922 2080 922 2221 
C 922 2246 915 2278 909 2323 
C 896 2381 890 2432 890 2477 
C 890 2650 1094 2790 1350 2790 
C 1664 2790 1837 2605 1837 2259 
L 1837 1869 
C 851 1472 742 1421 467 1178 
C 326 1050 237 832 237 621 
C 237 218 518 -64 909 -64 
C 1190 -64 1453 70 1843 403 
C 1875 70 1990 -64 2253 -64 
C 2470 -64 2605 13 2829 256 
L 2829 423 
z
M 1837 783 
C 1837 584 1805 526 1670 449 
C 1517 359 1338 301 1203 301 
C 979 301 800 520 800 796 
L 800 822 
C 800 1201 1062 1433 1837 1715 
L 1837 783 
z
" transform="scale(0.015625)"/>
       <path id="NimbusRomNo9L-Regu-6c" d="M 122 4000 
L 160 4000 
C 230 4000 307 4000 358 4000 
C 563 4000 627 3910 627 3610 
L 627 557 
C 627 211 538 128 134 96 
L 134 0 
L 1645 0 
L 1645 109 
C 1242 109 1165 173 1165 528 
L 1165 4371 
L 1139 4384 
C 806 4275 563 4211 122 4103 
L 122 4000 
z
" transform="scale(0.015625)"/>
       <path id="NimbusRomNo9L-Regu-69" d="M 1120 2929 
L 128 2579 
L 128 2484 
L 179 2490 
C 256 2502 339 2509 397 2509 
C 550 2509 608 2406 608 2125 
L 608 640 
C 608 179 544 109 102 109 
L 102 0 
L 1619 0 
L 1619 96 
C 1197 128 1146 191 1146 650 
L 1146 2910 
L 1120 2929 
z
M 819 4352 
C 646 4352 499 4205 499 4026 
C 499 3847 640 3699 819 3699 
C 1005 3699 1152 3840 1152 4026 
C 1152 4205 1005 4352 819 4352 
z
" transform="scale(0.015625)"/>
       <path id="NimbusRomNo9L-Regu-7a" d="M 2675 864 
L 2560 890 
C 2496 570 2458 467 2374 358 
C 2285 250 2067 192 1741 192 
L 858 192 
L 2579 2784 
L 2579 2880 
L 358 2880 
L 339 2125 
L 454 2125 
C 512 2592 608 2688 992 2688 
L 1875 2688 
L 173 96 
L 173 0 
L 2586 0 
L 2675 864 
z
" transform="scale(0.015625)"/>
       <path id="NimbusRomNo9L-Regu-65" d="M 2611 1053 
C 2304 564 2029 378 1619 378 
C 1254 378 979 564 794 930 
C 678 1174 634 1386 621 1779 
L 2592 1779 
C 2541 2193 2477 2377 2317 2581 
C 2125 2811 1830 2944 1498 2944 
C 1178 2944 877 2829 634 2611 
C 333 2349 160 1894 160 1370 
C 160 486 621 -64 1357 -64 
C 1965 -64 2445 315 2714 1008 
L 2611 1053 
z
M 634 1984 
C 704 2479 922 2714 1312 2714 
C 1702 2714 1856 2535 1939 1984 
L 634 1984 
z
" transform="scale(0.015625)"/>
       <path id="NimbusRomNo9L-Regu-64" d="M 2202 -64 
L 3142 269 
L 3142 365 
C 3027 365 3014 365 2995 365 
C 2765 365 2714 435 2714 731 
L 2714 4364 
L 2682 4377 
C 2374 4268 2150 4204 1741 4096 
L 1741 3994 
C 1792 4000 1830 4000 1882 4000 
C 2118 4000 2176 3936 2176 3672 
L 2176 2669 
C 1933 2874 1760 2944 1504 2944 
C 768 2944 173 2221 173 1312 
C 173 493 653 -64 1357 -64 
C 1715 -64 1958 64 2176 365 
L 2176 -45 
L 2202 -64 
z
M 2176 653 
C 2176 608 2131 531 2067 461 
C 1952 333 1792 269 1606 269 
C 1075 269 723 781 723 1568 
C 723 2291 1037 2765 1523 2765 
C 1862 2765 2176 2464 2176 2125 
L 2176 653 
z
" transform="scale(0.015625)"/>
       <path id="NimbusRomNo9L-Regu-46" d="M 3066 1472 
L 3066 2957 
L 2918 2957 
C 2842 2461 2726 2368 2214 2368 
L 1286 2368 
L 1286 3766 
C 1286 3943 1318 3981 1491 3981 
L 2362 3981 
C 3085 3981 3226 3886 3334 3314 
L 3494 3314 
L 3475 4224 
L 77 4224 
L 77 4102 
C 550 4064 634 3974 634 3525 
L 634 749 
C 634 217 563 134 77 134 
L 77 0 
L 1869 0 
L 1869 134 
C 1376 134 1286 225 1286 692 
L 1286 2106 
L 2214 2106 
C 2733 2106 2842 2007 2918 1472 
L 3066 1472 
z
" transform="scale(0.015625)"/>
       <path id="NimbusRomNo9L-Regu-71" d="M 2304 2701 
C 2010 2874 1818 2931 1568 2931 
C 768 2931 154 2218 154 1300 
C 154 498 576 -70 1178 -70 
C 1549 -70 1901 96 2182 403 
L 2182 -824 
C 2182 -1188 2067 -1286 1613 -1286 
L 1613 -1408 
L 3123 -1408 
L 3123 -1318 
C 2771 -1241 2720 -1190 2720 -921 
L 2720 2906 
L 2650 2906 
L 2304 2701 
z
M 2182 804 
C 2182 651 2157 569 2093 518 
C 1952 397 1741 320 1542 320 
C 1344 320 1171 384 1043 511 
C 838 696 704 1110 704 1530 
C 704 2282 1043 2752 1587 2752 
C 1984 2752 2182 2542 2182 2115 
L 2182 804 
z
" transform="scale(0.015625)"/>
       <path id="NimbusRomNo9L-Regu-75" d="M 3066 320 
L 3034 320 
C 2739 320 2669 390 2669 685 
L 2669 2880 
L 1658 2880 
L 1658 2758 
C 2054 2758 2131 2694 2131 2375 
L 2131 875 
C 2131 697 2099 607 2010 537 
C 1837 397 1638 320 1446 320 
C 1197 320 992 537 992 805 
L 992 2880 
L 58 2880 
L 58 2778 
C 365 2778 454 2682 454 2387 
L 454 770 
C 454 263 762 -64 1229 -64 
C 1466 -64 1715 38 1888 211 
L 2163 486 
L 2163 -45 
L 2189 -58 
C 2509 70 2739 141 3066 230 
L 3066 320 
z
" transform="scale(0.015625)"/>
       <path id="NimbusRomNo9L-Regu-6e" d="M 102 2579 
C 141 2598 205 2605 275 2605 
C 454 2605 512 2509 512 2195 
L 512 608 
C 512 243 442 154 115 128 
L 115 32 
L 1472 32 
L 1472 128 
C 1146 154 1050 230 1050 461 
L 1050 2259 
C 1357 2547 1498 2624 1709 2624 
C 2022 2624 2176 2426 2176 2003 
L 2176 666 
C 2176 262 2093 154 1773 128 
L 1773 32 
L 3104 32 
L 3104 128 
C 2790 160 2714 237 2714 550 
L 2714 2016 
C 2714 2618 2432 2976 1958 2976 
C 1664 2976 1466 2867 1030 2458 
L 1030 2963 
L 986 2976 
C 672 2861 454 2790 102 2688 
L 102 2579 
z
" transform="scale(0.015625)"/>
       <path id="NimbusRomNo9L-Regu-63" d="M 2547 998 
C 2240 550 2010 397 1645 397 
C 1062 397 653 909 653 1645 
C 653 2304 1005 2758 1523 2758 
C 1754 2758 1837 2688 1901 2451 
L 1939 2310 
C 1990 2131 2106 2016 2240 2016 
C 2406 2016 2547 2138 2547 2285 
C 2547 2643 2099 2944 1562 2944 
C 1248 2944 922 2816 659 2586 
C 339 2304 160 1869 160 1363 
C 160 531 666 -64 1376 -64 
C 1664 -64 1920 38 2150 237 
C 2323 390 2445 563 2637 941 
L 2547 998 
z
" transform="scale(0.015625)"/>
       <path id="NimbusRomNo9L-Regu-79" d="M 3040 2880 
L 2176 2880 
L 2176 2784 
C 2381 2784 2483 2726 2483 2623 
C 2483 2597 2477 2559 2458 2514 
L 1837 742 
L 1101 2377 
C 1062 2468 1037 2552 1037 2622 
C 1037 2739 1133 2784 1408 2784 
L 1408 2880 
L 90 2880 
L 90 2790 
C 256 2765 365 2694 416 2585 
L 1146 1005 
L 1165 953 
L 1261 761 
C 1440 440 1542 209 1542 112 
C 1542 16 1395 -389 1286 -582 
C 1197 -749 1056 -871 966 -871 
C 928 -871 870 -858 806 -826 
C 685 -781 576 -755 467 -755 
C 320 -755 192 -883 192 -1037 
C 192 -1248 397 -1408 666 -1408 
C 1094 -1408 1402 -1049 1747 -124 
L 2733 2495 
C 2816 2701 2886 2765 3040 2784 
L 3040 2880 
z
" transform="scale(0.015625)"/>
      </defs>
      <use xlink:href="#NimbusRomNo9L-Regu-4e" transform="scale(0.996264)"/>
      <use xlink:href="#NimbusRomNo9L-Regu-6f" transform="translate(71.929985 0) scale(0.996264)"/>
      <use xlink:href="#NimbusRomNo9L-Regu-72" transform="translate(121.743185 0) scale(0.996264)"/>
      <use xlink:href="#NimbusRomNo9L-Regu-6d" transform="translate(154.918415 0) scale(0.996264)"/>
      <use xlink:href="#NimbusRomNo9L-Regu-61" transform="translate(232.426785 0) scale(0.996264)"/>
      <use xlink:href="#NimbusRomNo9L-Regu-6c" transform="translate(276.660354 0) scale(0.996264)"/>
      <use xlink:href="#NimbusRomNo9L-Regu-69" transform="translate(304.355523 0) scale(0.996264)"/>
      <use xlink:href="#NimbusRomNo9L-Regu-7a" transform="translate(332.050693 0) scale(0.996264)"/>
      <use xlink:href="#NimbusRomNo9L-Regu-65" transform="translate(376.284262 0) scale(0.996264)"/>
      <use xlink:href="#NimbusRomNo9L-Regu-64" transform="translate(420.51783 0) scale(0.996264)"/>
      <use xlink:href="#NimbusRomNo9L-Regu-46" transform="translate(495.237631 0) scale(0.996264)"/>
      <use xlink:href="#NimbusRomNo9L-Regu-72" transform="translate(550.629308 0) scale(0.996264)"/>
      <use xlink:href="#NimbusRomNo9L-Regu-65" transform="translate(583.804538 0) scale(0.996264)"/>
      <use xlink:href="#NimbusRomNo9L-Regu-71" transform="translate(628.038107 0) scale(0.996264)"/>
      <use xlink:href="#NimbusRomNo9L-Regu-75" transform="translate(677.851307 0) scale(0.996264)"/>
      <use xlink:href="#NimbusRomNo9L-Regu-65" transform="translate(727.664508 0) scale(0.996264)"/>
      <use xlink:href="#NimbusRomNo9L-Regu-6e" transform="translate(771.898076 0) scale(0.996264)"/>
      <use xlink:href="#NimbusRomNo9L-Regu-63" transform="translate(821.711277 0) scale(0.996264)"/>
      <use xlink:href="#NimbusRomNo9L-Regu-79" transform="translate(864.451453 0) scale(0.996264)"/>
     </g>
    </g>
   </g>
   <g id="matplotlib.axis_2">
    <g id="ytick_1">
     <g id="line2d_11">
      <path d="M 28.136343 193.033796 
L 298.303479 193.033796 
" clip-path="url(#p0fd6623881)" style="fill: none; stroke: #cccccc; stroke-width: 0.8; stroke-linecap: square"/>
     </g>
     <g id="line2d_12">
      <defs>
       <path id="ma0ae3dfacd" d="M 0 0 
L -3.5 0 
" style="stroke: #000000; stroke-width: 0.8"/>
      </defs>
      <g>
       <use xlink:href="#ma0ae3dfacd" x="28.136343" y="193.033796" style="stroke: #000000; stroke-width: 0.8"/>
      </g>
     </g>
     <g id="text_7">
      <!-- $\mathdefault{−175}$ -->
      <g transform="translate(0.72 196.073354) scale(0.09 -0.09)">
       <defs>
        <path id="NimbusRomNo9L-Regu-31" d="M 1862 4339 
L 710 3757 
L 710 3667 
C 787 3699 858 3725 883 3738 
C 998 3783 1107 3808 1171 3808 
C 1306 3808 1363 3711 1363 3505 
L 1363 592 
C 1363 379 1312 232 1210 173 
C 1114 116 1024 96 755 96 
L 755 0 
L 2522 0 
L 2522 96 
C 2016 96 1914 160 1914 470 
L 1914 4327 
L 1862 4339 
z
" transform="scale(0.015625)"/>
        <path id="NimbusRomNo9L-Regu-37" d="M 2874 4250 
L 506 4250 
L 128 3310 
L 237 3258 
C 512 3693 627 3776 979 3776 
L 2368 3776 
L 1101 -32 
L 1517 -32 
L 2874 4148 
L 2874 4250 
z
" transform="scale(0.015625)"/>
        <path id="NimbusRomNo9L-Regu-35" d="M 1158 3776 
L 2413 3776 
C 2515 3776 2541 3789 2560 3834 
L 2803 4403 
L 2746 4448 
C 2650 4314 2586 4282 2451 4282 
L 1114 4282 
L 416 2759 
C 410 2746 410 2740 410 2727 
C 410 2695 435 2676 486 2676 
C 691 2676 947 2631 1210 2547 
C 1946 2309 2285 1910 2285 1274 
C 2285 656 1894 173 1395 173 
C 1267 173 1158 218 966 360 
C 762 508 614 572 480 572 
C 294 572 205 495 205 334 
C 205 90 506 -64 986 -64 
C 1523 -64 1984 110 2304 438 
C 2598 728 2733 1094 2733 1583 
C 2733 2046 2611 2342 2291 2663 
C 2010 2947 1645 3094 890 3229 
L 1158 3776 
z
" transform="scale(0.015625)"/>
       </defs>
       <use xlink:href="#CMSY10-0" transform="scale(0.996264)"/>
       <use xlink:href="#NimbusRomNo9L-Regu-31" transform="translate(77.408707 0) scale(0.996264)"/>
       <use xlink:href="#NimbusRomNo9L-Regu-37" transform="translate(127.221908 0) scale(0.996264)"/>
       <use xlink:href="#NimbusRomNo9L-Regu-35" transform="translate(177.035108 0) scale(0.996264)"/>
      </g>
     </g>
    </g>
    <g id="ytick_2">
     <g id="line2d_13">
      <path d="M 28.136343 171.275068 
L 298.303479 171.275068 
" clip-path="url(#p0fd6623881)" style="fill: none; stroke: #cccccc; stroke-width: 0.8; stroke-linecap: square"/>
     </g>
     <g id="line2d_14">
      <g>
       <use xlink:href="#ma0ae3dfacd" x="28.136343" y="171.275068" style="stroke: #000000; stroke-width: 0.8"/>
      </g>
     </g>
     <g id="text_8">
      <!-- $\mathdefault{−150}$ -->
      <g transform="translate(0.72 174.314627) scale(0.09 -0.09)">
       <use xlink:href="#CMSY10-0" transform="scale(0.996264)"/>
       <use xlink:href="#NimbusRomNo9L-Regu-31" transform="translate(77.408707 0) scale(0.996264)"/>
       <use xlink:href="#NimbusRomNo9L-Regu-35" transform="translate(127.221908 0) scale(0.996264)"/>
       <use xlink:href="#NimbusRomNo9L-Regu-30" transform="translate(177.035108 0) scale(0.996264)"/>
      </g>
     </g>
    </g>
    <g id="ytick_3">
     <g id="line2d_15">
      <path d="M 28.136343 149.51634 
L 298.303479 149.51634 
" clip-path="url(#p0fd6623881)" style="fill: none; stroke: #cccccc; stroke-width: 0.8; stroke-linecap: square"/>
     </g>
     <g id="line2d_16">
      <g>
       <use xlink:href="#ma0ae3dfacd" x="28.136343" y="149.51634" style="stroke: #000000; stroke-width: 0.8"/>
      </g>
     </g>
     <g id="text_9">
      <!-- $\mathdefault{−125}$ -->
      <g transform="translate(0.72 152.555899) scale(0.09 -0.09)">
       <use xlink:href="#CMSY10-0" transform="scale(0.996264)"/>
       <use xlink:href="#NimbusRomNo9L-Regu-31" transform="translate(77.408707 0) scale(0.996264)"/>
       <use xlink:href="#NimbusRomNo9L-Regu-32" transform="translate(127.221908 0) scale(0.996264)"/>
       <use xlink:href="#NimbusRomNo9L-Regu-35" transform="translate(177.035108 0) scale(0.996264)"/>
      </g>
     </g>
    </g>
    <g id="ytick_4">
     <g id="line2d_17">
      <path d="M 28.136343 127.757613 
L 298.303479 127.757613 
" clip-path="url(#p0fd6623881)" style="fill: none; stroke: #cccccc; stroke-width: 0.8; stroke-linecap: square"/>
     </g>
     <g id="line2d_18">
      <g>
       <use xlink:href="#ma0ae3dfacd" x="28.136343" y="127.757613" style="stroke: #000000; stroke-width: 0.8"/>
      </g>
     </g>
     <g id="text_10">
      <!-- $\mathdefault{−100}$ -->
      <g transform="translate(0.72 130.797171) scale(0.09 -0.09)">
       <use xlink:href="#CMSY10-0" transform="scale(0.996264)"/>
       <use xlink:href="#NimbusRomNo9L-Regu-31" transform="translate(77.408707 0) scale(0.996264)"/>
       <use xlink:href="#NimbusRomNo9L-Regu-30" transform="translate(127.221908 0) scale(0.996264)"/>
       <use xlink:href="#NimbusRomNo9L-Regu-30" transform="translate(177.035108 0) scale(0.996264)"/>
      </g>
     </g>
    </g>
    <g id="ytick_5">
     <g id="line2d_19">
      <path d="M 28.136343 105.998885 
L 298.303479 105.998885 
" clip-path="url(#p0fd6623881)" style="fill: none; stroke: #cccccc; stroke-width: 0.8; stroke-linecap: square"/>
     </g>
     <g id="line2d_20">
      <g>
       <use xlink:href="#ma0ae3dfacd" x="28.136343" y="105.998885" style="stroke: #000000; stroke-width: 0.8"/>
      </g>
     </g>
     <g id="text_11">
      <!-- $\mathdefault{−75}$ -->
      <g transform="translate(5.203188 109.038443) scale(0.09 -0.09)">
       <use xlink:href="#CMSY10-0" transform="scale(0.996264)"/>
       <use xlink:href="#NimbusRomNo9L-Regu-37" transform="translate(77.408707 0) scale(0.996264)"/>
       <use xlink:href="#NimbusRomNo9L-Regu-35" transform="translate(127.221908 0) scale(0.996264)"/>
      </g>
     </g>
    </g>
    <g id="ytick_6">
     <g id="line2d_21">
      <path d="M 28.136343 84.240157 
L 298.303479 84.240157 
" clip-path="url(#p0fd6623881)" style="fill: none; stroke: #cccccc; stroke-width: 0.8; stroke-linecap: square"/>
     </g>
     <g id="line2d_22">
      <g>
       <use xlink:href="#ma0ae3dfacd" x="28.136343" y="84.240157" style="stroke: #000000; stroke-width: 0.8"/>
      </g>
     </g>
     <g id="text_12">
      <!-- $\mathdefault{−50}$ -->
      <g transform="translate(5.203188 87.279715) scale(0.09 -0.09)">
       <use xlink:href="#CMSY10-0" transform="scale(0.996264)"/>
       <use xlink:href="#NimbusRomNo9L-Regu-35" transform="translate(77.408707 0) scale(0.996264)"/>
       <use xlink:href="#NimbusRomNo9L-Regu-30" transform="translate(127.221908 0) scale(0.996264)"/>
      </g>
     </g>
    </g>
    <g id="ytick_7">
     <g id="line2d_23">
      <path d="M 28.136343 62.481429 
L 298.303479 62.481429 
" clip-path="url(#p0fd6623881)" style="fill: none; stroke: #cccccc; stroke-width: 0.8; stroke-linecap: square"/>
     </g>
     <g id="line2d_24">
      <g>
       <use xlink:href="#ma0ae3dfacd" x="28.136343" y="62.481429" style="stroke: #000000; stroke-width: 0.8"/>
      </g>
     </g>
     <g id="text_13">
      <!-- $\mathdefault{−25}$ -->
      <g transform="translate(5.203188 65.520987) scale(0.09 -0.09)">
       <use xlink:href="#CMSY10-0" transform="scale(0.996264)"/>
       <use xlink:href="#NimbusRomNo9L-Regu-32" transform="translate(77.408707 0) scale(0.996264)"/>
       <use xlink:href="#NimbusRomNo9L-Regu-35" transform="translate(127.221908 0) scale(0.996264)"/>
      </g>
     </g>
    </g>
    <g id="ytick_8">
     <g id="line2d_25">
      <path d="M 28.136343 40.722701 
L 298.303479 40.722701 
" clip-path="url(#p0fd6623881)" style="fill: none; stroke: #cccccc; stroke-width: 0.8; stroke-linecap: square"/>
     </g>
     <g id="line2d_26">
      <g>
       <use xlink:href="#ma0ae3dfacd" x="28.136343" y="40.722701" style="stroke: #000000; stroke-width: 0.8"/>
      </g>
     </g>
     <g id="text_14">
      <!-- $\mathdefault{0}$ -->
      <g transform="translate(16.653155 43.76226) scale(0.09 -0.09)">
       <use xlink:href="#NimbusRomNo9L-Regu-30" transform="scale(0.996264)"/>
      </g>
     </g>
    </g>
    <g id="ytick_9">
     <g id="line2d_27">
      <path d="M 28.136343 18.963973 
L 298.303479 18.963973 
" clip-path="url(#p0fd6623881)" style="fill: none; stroke: #cccccc; stroke-width: 0.8; stroke-linecap: square"/>
     </g>
     <g id="line2d_28">
      <g>
       <use xlink:href="#ma0ae3dfacd" x="28.136343" y="18.963973" style="stroke: #000000; stroke-width: 0.8"/>
      </g>
     </g>
     <g id="text_15">
      <!-- $\mathdefault{25}$ -->
      <g transform="translate(12.169967 22.003532) scale(0.09 -0.09)">
       <use xlink:href="#NimbusRomNo9L-Regu-32" transform="scale(0.996264)"/>
       <use xlink:href="#NimbusRomNo9L-Regu-35" transform="translate(49.8132 0) scale(0.996264)"/>
      </g>
     </g>
    </g>
   </g>
   <g id="line2d_29">
    <path d="M 28.136343 176.96332 
L 28.532289 147.424686 
L 28.928235 137.037177 
L 29.456163 129.531152 
L 30.116073 123.830889 
L 30.775983 120.096844 
L 31.435893 117.539216 
L 32.095803 115.822281 
L 32.623731 114.945074 
L 33.151659 114.469006 
L 33.547605 114.37132 
L 33.943551 114.505481 
L 34.339497 114.893355 
L 34.735443 115.575225 
L 35.131389 116.622776 
L 35.527335 118.169858 
L 35.923281 120.499079 
L 36.319227 124.375782 
L 36.583191 129.218952 
L 36.715173 133.859456 
L 36.847155 148.467499 
L 37.111119 130.425498 
L 37.507065 123.147126 
L 37.903011 119.647468 
L 38.430939 116.88908 
L 38.958867 115.245185 
L 39.486795 114.32282 
L 39.882741 114.013137 
L 40.278687 114.008286 
L 40.674633 114.317192 
L 41.070578 114.978845 
L 41.466524 116.078613 
L 41.86247 117.794999 
L 42.258416 120.552162 
L 42.52238 123.548013 
L 42.786344 129.069672 
L 43.050308 144.71332 
L 43.314272 127.169647 
L 43.710218 120.644565 
L 44.238146 116.40063 
L 44.766074 113.896183 
L 45.294002 112.288382 
L 45.82193 111.283477 
L 46.349858 110.755469 
L 46.745804 110.640063 
L 47.14175 110.760175 
L 47.537696 111.126364 
L 47.933642 111.765799 
L 48.46157 113.138577 
L 48.989498 115.358622 
L 49.385444 117.973586 
L 49.78139 122.37742 
L 50.045354 128.271333 
L 50.309318 141.066363 
L 50.573282 125.987886 
L 50.969228 119.876157 
L 51.365174 116.763955 
L 51.893102 114.313686 
L 52.42103 112.899928 
L 52.948958 112.171398 
L 53.344904 111.989272 
L 53.74085 112.095112 
L 54.136796 112.491163 
L 54.532742 113.201684 
L 55.06067 114.737882 
L 55.588598 117.226966 
L 55.984543 120.172873 
L 56.380489 125.248432 
L 56.644453 132.724012 
L 56.776435 145.758142 
L 57.040399 130.198266 
L 57.436345 123.210709 
L 57.832291 120.183084 
L 58.228237 118.577729 
L 58.624183 117.835597 
L 58.888147 117.732324 
L 59.152111 117.936174 
L 59.416075 118.479251 
L 59.680039 119.441006 
L 59.944003 120.992562 
L 60.207967 123.542312 
L 60.471931 128.447914 
L 60.603913 133.796653 
L 60.735895 151.853755 
L 60.999859 127.039292 
L 61.395805 119.86096 
L 61.923733 115.09332 
L 62.451661 112.173622 
L 63.111571 109.831959 
L 63.639499 108.662243 
L 64.167427 107.9961 
L 64.563373 107.804293 
L 64.959319 107.880449 
L 65.355265 108.247583 
L 65.751211 108.953844 
L 66.147157 110.090636 
L 66.543103 111.839834 
L 66.939049 114.624192 
L 67.203013 117.625915 
L 67.466977 123.094126 
L 67.598959 129.065859 
L 67.730941 140.551367 
L 67.994905 121.610938 
L 68.390851 115.096209 
L 68.918779 110.987696 
L 69.446707 108.691073 
L 69.974635 107.372852 
L 70.370581 106.85823 
L 70.766526 106.703136 
L 71.03049 106.797456 
L 71.426436 107.255727 
L 71.822382 108.154447 
L 72.218328 109.631373 
L 72.614274 111.995999 
L 73.01022 116.134578 
L 73.274184 121.671815 
L 73.538148 138.748493 
L 73.802112 120.267759 
L 74.198058 113.94811 
L 74.594004 110.879194 
L 74.98995 109.094783 
L 75.385896 108.097609 
L 75.781842 107.708401 
L 76.045806 107.754968 
L 76.30977 108.044691 
L 76.705716 108.959343 
L 77.101662 110.507587 
L 77.62959 113.595822 
L 78.157518 116.666075 
L 78.2895 116.865888 
L 78.421482 116.612504 
L 78.685446 114.698583 
L 79.477338 104.579289 
L 80.26923 95.854929 
L 81.193104 88.098966 
L 82.24896 81.199995 
L 83.436798 74.99096 
L 84.756618 69.364772 
L 86.076437 64.688243 
L 87.528239 60.367038 
L 88.980041 56.726215 
L 90.431843 53.642214 
L 92.015627 50.812266 
L 93.599411 48.460918 
L 95.183195 46.525608 
L 96.766979 44.955605 
L 98.350763 43.70724 
L 99.934546 42.74072 
L 101.650312 41.967546 
L 103.49806 41.399832 
L 105.47779 41.029925 
L 107.985448 40.805636 
L 111.812926 40.725937 
L 150.087703 40.724301 
L 219.246266 40.844976 
L 221.753924 41.130172 
L 223.733654 41.574655 
L 225.44942 42.177855 
L 227.033204 42.958024 
L 228.616988 43.991397 
L 230.06879 45.193818 
L 231.520592 46.672289 
L 232.972393 48.460918 
L 234.424195 50.599005 
L 235.875997 53.134155 
L 237.327799 56.126983 
L 238.779601 59.658742 
L 240.099421 63.43305 
L 241.419241 67.874973 
L 242.607079 72.605951 
L 243.794917 78.276973 
L 244.850773 84.446639 
L 245.774647 91.174053 
L 246.566539 98.506207 
L 247.35843 108.005879 
L 248.01834 115.871348 
L 248.282304 116.865888 
L 248.414286 116.666075 
L 248.67825 115.356274 
L 249.602124 109.9168 
L 250.130052 108.283535 
L 250.525998 107.754968 
L 250.789962 107.708401 
L 251.053926 107.904904 
L 251.31789 108.356973 
L 251.713836 109.587561 
L 252.109782 111.716498 
L 252.505728 115.479429 
L 252.769692 120.267759 
L 252.901674 124.850199 
L 253.033656 138.748493 
L 253.29762 121.671815 
L 253.693566 114.440761 
L 254.089512 111.075863 
L 254.61744 108.572375 
L 255.145368 107.255727 
L 255.541314 106.797456 
L 255.93726 106.715649 
L 256.333206 106.988789 
L 256.729152 107.629567 
L 257.125098 108.691073 
L 257.521044 110.293903 
L 257.91699 112.71041 
L 258.312936 116.695674 
L 258.5769 121.610938 
L 258.708882 126.268804 
L 258.840864 140.551367 
L 259.104828 123.094126 
L 259.500774 115.953041 
L 259.89672 112.618468 
L 260.424648 110.090636 
L 260.952576 108.676312 
L 261.348521 108.090551 
L 261.744467 107.824287 
L 262.140413 107.83904 
L 262.536359 108.118244 
L 262.932305 108.662243 
L 263.460233 109.831959 
L 263.988161 111.610338 
L 264.516089 114.2432 
L 264.912035 117.135397 
L 265.307981 121.646989 
L 265.571945 127.039292 
L 265.703927 132.16111 
L 265.835909 151.853755 
L 266.099873 128.447914 
L 266.495819 122.098189 
L 266.891765 119.441006 
L 267.287711 118.161753 
L 267.551675 117.79471 
L 267.815639 117.746224 
L 268.079603 118.001529 
L 268.343567 118.577729 
L 268.739513 120.183084 
L 269.135459 123.210709 
L 269.399423 126.969819 
L 269.531405 130.198266 
L 269.795369 145.758142 
L 270.059333 128.121671 
L 270.455279 121.516245 
L 270.983207 117.226966 
L 271.511135 114.737882 
L 272.039063 113.201684 
L 272.566991 112.325901 
L 272.962937 112.028121 
L 273.358883 112.017499 
L 273.754829 112.298768 
L 274.150775 112.899928 
L 274.546721 113.882715 
L 274.942667 115.370856 
L 275.338613 117.631295 
L 275.734559 121.383426 
L 275.998523 125.987886 
L 276.130504 130.232992 
L 276.262486 141.066363 
L 276.658432 124.756396 
L 277.054378 119.155952 
L 277.582306 115.358622 
L 278.110234 113.138577 
L 278.638162 111.765799 
L 279.16609 110.975682 
L 279.562036 110.693616 
L 279.957982 110.652479 
L 280.353928 110.84645 
L 280.749874 111.283477 
L 281.277802 112.288382 
L 281.80573 113.896183 
L 282.333658 116.40063 
L 282.729604 119.318689 
L 283.12555 124.328166 
L 283.389514 131.734245 
L 283.521496 144.71332 
L 283.78546 129.069672 
L 284.181406 121.875582 
L 284.577352 118.563602 
L 285.10528 116.078613 
L 285.633208 114.715095 
L 286.029154 114.177679 
L 286.4251 113.976027 
L 286.821046 114.082184 
L 287.216992 114.496028 
L 287.612938 115.245185 
L 288.008884 116.395858 
L 288.40483 118.085125 
L 288.800776 120.618652 
L 289.196722 124.871359 
L 289.460686 130.425498 
L 289.592668 136.398436 
L 289.72465 148.467499 
L 289.988614 129.218952 
L 290.38456 122.814008 
L 290.780505 119.606131 
L 291.308433 117.073467 
L 291.836361 115.575225 
L 292.364289 114.733865 
L 292.760235 114.433952 
L 293.156181 114.378807 
L 293.552127 114.551165 
L 293.948073 114.945074 
L 294.476001 115.822281 
L 295.003929 117.135374 
L 295.663839 119.505746 
L 296.323749 122.962981 
L 296.851677 126.92509 
L 297.379605 132.782473 
L 297.775551 139.756527 
L 298.039515 147.424686 
L 298.303479 163.888927 
L 298.303479 163.888927 
" clip-path="url(#p0fd6623881)" style="fill: none; stroke: #0000ff; stroke-width: 2; stroke-linecap: square"/>
   </g>
   <g id="line2d_30">
    <path d="M 28.136343 116.258526 
L 28.400307 116.357123 
L 28.664271 116.659073 
L 29.060217 117.54203 
L 29.456163 119.094238 
L 29.852109 121.734421 
L 30.116073 124.68724 
L 30.380037 130.252343 
L 30.644001 144.1574 
L 30.907965 127.881305 
L 31.303911 121.387579 
L 31.831839 117.112934 
L 32.359767 114.579159 
L 32.887695 112.953438 
L 33.415623 111.944128 
L 33.943551 111.42704 
L 34.339497 111.331876 
L 34.735443 111.485466 
L 35.131389 111.903087 
L 35.527335 112.620378 
L 36.055263 114.168375 
L 36.451209 115.966779 
L 36.847155 118.703993 
L 37.243101 123.534626 
L 37.507065 130.831921 
L 37.639047 143.853616 
L 37.903011 127.941993 
L 38.298957 120.566754 
L 38.694903 117.060344 
L 39.222831 114.301904 
L 39.750759 112.644091 
L 40.278687 111.679741 
L 40.674633 111.310287 
L 41.070578 111.209894 
L 41.466524 111.370588 
L 41.86247 111.802427 
L 42.258416 112.536427 
L 42.786344 114.100278 
L 43.18229 115.890613 
L 43.578236 118.565322 
L 43.974182 123.117337 
L 44.238146 129.387539 
L 44.50211 138.725495 
L 44.766074 126.03155 
L 45.16202 120.197637 
L 45.689948 116.469892 
L 46.217876 114.425201 
L 46.745804 113.292072 
L 47.14175 112.876348 
L 47.537696 112.780802 
L 47.933642 112.993271 
L 48.329588 113.527705 
L 48.725534 114.428973 
L 49.12148 115.791422 
L 49.517426 117.811618 
L 49.913372 120.965158 
L 50.177336 124.375414 
L 50.4413 130.924425 
L 50.573282 139.750854 
L 50.705264 138.378874 
L 50.969228 126.853812 
L 51.365174 121.234235 
L 51.76112 118.359069 
L 52.289048 116.201123 
L 52.684994 115.327444 
L 53.08094 114.933692 
L 53.344904 114.914472 
L 53.608868 115.091296 
L 54.004814 115.760778 
L 54.40076 117.035507 
L 54.796706 119.232186 
L 55.06067 121.613135 
L 55.324634 125.642715 
L 55.456616 129.207229 
L 55.720579 139.139745 
L 55.984543 125.632662 
L 56.380489 119.352191 
L 56.908417 115.101394 
L 57.436345 112.54284 
L 57.964273 110.880567 
L 58.492201 109.83199 
L 59.020129 109.275576 
L 59.416075 109.150765 
L 59.812021 109.273273 
L 60.207967 109.655619 
L 60.603913 110.327902 
L 61.131841 111.779322 
L 61.659769 114.14265 
L 62.055715 116.955109 
L 62.451661 121.811614 
L 62.715625 128.857351 
L 62.847607 139.731986 
L 63.243553 123.704735 
L 63.639499 118.373117 
L 64.035445 115.643287 
L 64.563373 113.650307 
L 64.959319 112.909647 
L 65.223283 112.6988 
L 65.487247 112.699584 
L 65.751211 112.915248 
L 66.147157 113.685772 
L 66.543103 115.139587 
L 66.939049 117.681246 
L 67.203013 120.542803 
L 67.466977 125.877648 
L 67.598959 131.763335 
L 67.730941 143.525024 
L 67.994905 124.243406 
L 68.390851 117.596838 
L 68.918779 113.359062 
L 69.446707 110.969864 
L 69.974635 109.592272 
L 70.370581 109.055413 
L 70.766526 108.899539 
L 71.03049 109.007432 
L 71.426436 109.513251 
L 71.822382 110.506188 
L 72.218328 112.158354 
L 72.614274 114.877631 
L 72.878238 117.829197 
L 73.142202 123.131166 
L 73.274184 128.670482 
L 73.406166 147.236624 
L 73.67013 122.576997 
L 74.066076 116.072412 
L 74.462022 113.020915 
L 74.857968 111.335104 
L 75.253914 110.521974 
L 75.517878 110.388142 
L 75.781842 110.578402 
L 76.045806 111.124444 
L 76.30977 112.09858 
L 76.705716 114.719635 
L 76.96968 117.846872 
L 77.233644 123.931811 
L 77.497608 134.909141 
L 77.761572 121.679222 
L 78.025536 117.997247 
L 78.2895 116.728909 
L 78.421482 116.819297 
L 78.553464 117.509064 
L 78.685446 119.115671 
L 78.817428 122.649858 
L 78.94941 136.735156 
L 79.213374 115.986654 
L 79.60932 106.019042 
L 80.137248 98.384898 
L 80.92914 90.539337 
L 81.853014 83.753581 
L 82.90887 77.643753 
L 84.096708 72.05807 
L 85.416527 66.931698 
L 86.868329 62.2405 
L 88.320131 58.307797 
L 89.771933 54.982703 
L 91.223735 52.163954 
L 92.807519 49.581573 
L 94.391303 47.444677 
L 95.975087 45.697429 
L 97.558871 44.293151 
L 99.142655 43.190441 
L 100.726438 42.350538 
L 102.442204 41.693325 
L 104.289952 41.225678 
L 106.401664 40.921245 
L 109.173286 40.758964 
L 114.584547 40.723972 
L 219.774194 40.884857 
L 222.14987 41.20027 
L 224.1296 41.693325 
L 225.845366 42.350538 
L 227.42915 43.190441 
L 229.012934 44.293151 
L 230.464736 45.567903 
L 231.916538 47.127759 
L 233.368339 49.007969 
L 234.820141 51.249678 
L 236.271943 53.903413 
L 237.723745 57.034487 
L 239.175547 60.732019 
L 240.495367 64.692647 
L 241.815187 69.375648 
L 243.003025 74.405644 
L 244.058881 79.781145 
L 244.982755 85.519809 
L 245.774647 91.675704 
L 246.434557 98.384898 
L 246.962484 106.019042 
L 247.35843 115.986654 
L 247.490412 122.870121 
L 247.622394 136.735156 
L 247.886358 119.115671 
L 248.150322 116.819297 
L 248.282304 116.728909 
L 248.414286 117.12488 
L 248.67825 119.431467 
L 248.942214 125.485581 
L 249.074196 134.909141 
L 249.206178 131.329081 
L 249.470142 120.264594 
L 249.866088 114.719635 
L 250.262034 112.09858 
L 250.65798 110.803607 
L 250.921944 110.441543 
L 251.185908 110.415314 
L 251.449872 110.70879 
L 251.713836 111.335104 
L 252.109782 113.020915 
L 252.505728 116.072412 
L 252.769692 119.669155 
L 253.033656 127.494717 
L 253.165638 147.236624 
L 253.429602 123.131166 
L 253.825548 116.185072 
L 254.221494 112.912966 
L 254.749422 110.506188 
L 255.145368 109.513251 
L 255.541314 109.007432 
L 255.805278 108.899539 
L 256.069242 108.961703 
L 256.465188 109.369683 
L 256.861134 110.177504 
L 257.25708 111.455026 
L 257.653026 113.359062 
L 258.048972 116.260986 
L 258.444918 121.336572 
L 258.708882 128.964947 
L 258.840864 143.525024 
L 259.104828 125.877648 
L 259.500774 118.938289 
L 259.89672 115.832221 
L 260.292666 114.082106 
L 260.688612 113.108573 
L 261.084558 112.699584 
L 261.348521 112.6988 
L 261.612485 112.909647 
L 262.008431 113.650307 
L 262.404377 115.010005 
L 262.800323 117.290382 
L 263.196269 121.410568 
L 263.460233 127.140252 
L 263.724197 139.731986 
L 263.988161 124.546422 
L 264.384107 118.240737 
L 264.912035 114.14265 
L 265.439963 111.779322 
L 265.967891 110.327902 
L 266.495819 109.497869 
L 266.891765 109.204498 
L 267.287711 109.165084 
L 267.683657 109.372054 
L 268.079603 109.83199 
L 268.607531 110.880567 
L 269.135459 112.54284 
L 269.663387 115.101394 
L 270.059333 118.036218 
L 270.455279 122.942456 
L 270.719243 129.758227 
L 270.851225 139.139745 
L 270.983207 136.614225 
L 271.247171 125.642715 
L 271.643117 120.292626 
L 272.039063 117.639674 
L 272.435009 116.108456 
L 272.830955 115.257313 
L 273.226901 114.914472 
L 273.490865 114.933692 
L 273.754829 115.146311 
L 274.150775 115.850992 
L 274.546721 117.108329 
L 274.942667 119.153836 
L 275.338613 122.634969 
L 275.602577 126.853812 
L 275.734559 130.562747 
L 275.998523 139.750854 
L 276.262486 126.956968 
L 276.658432 120.965158 
L 277.18636 117.045306 
L 277.714288 114.825106 
L 278.242216 113.527705 
L 278.638162 112.993271 
L 279.034108 112.780802 
L 279.430054 112.876348 
L 279.826 113.292072 
L 280.221946 114.070994 
L 280.617892 115.305488 
L 281.013838 117.189956 
L 281.409784 120.197637 
L 281.673748 123.50395 
L 281.937712 129.944591 
L 282.069694 138.725495 
L 282.201676 137.256849 
L 282.46564 125.614689 
L 282.861586 119.780707 
L 283.389514 115.890613 
L 283.917442 113.63494 
L 284.44537 112.255171 
L 284.973298 111.483366 
L 285.369244 111.234328 
L 285.76519 111.247695 
L 286.161136 111.525423 
L 286.557082 112.08852 
L 286.953028 112.983796 
L 287.480956 114.862274 
L 287.876902 117.060344 
L 288.272848 120.566754 
L 288.536812 124.59444 
L 288.668794 127.941993 
L 288.932758 143.853616 
L 289.196722 126.318641 
L 289.592668 119.969857 
L 290.120596 115.966779 
L 290.648524 113.705361 
L 291.176451 112.344663 
L 291.704379 111.594068 
L 292.100325 111.355027 
L 292.496271 111.367952 
L 292.892217 111.628346 
L 293.288163 112.147126 
L 293.816091 113.294734 
L 294.344019 115.109612 
L 294.871947 117.960025 
L 295.267893 121.387579 
L 295.531857 125.067531 
L 295.795821 132.340458 
L 295.927803 144.1574 
L 296.323749 126.919527 
L 296.719695 121.734421 
L 297.115641 119.094238 
L 297.511587 117.54203 
L 297.907533 116.659073 
L 298.303479 116.283081 
L 298.303479 116.283081 
" clip-path="url(#p0fd6623881)" style="fill: none; stroke-dasharray: 7.4,3.2; stroke-dashoffset: 0; stroke: #ff0000; stroke-width: 2"/>
   </g>
   <g id="patch_3">
    <path d="M 28.136343 204.211444 
L 28.136343 13.474578 
" style="fill: none; stroke: #000000; stroke-width: 0.8; stroke-linejoin: miter; stroke-linecap: square"/>
   </g>
   <g id="patch_4">
    <path d="M 298.303479 204.211444 
L 298.303479 13.474578 
" style="fill: none; stroke: #000000; stroke-width: 0.8; stroke-linejoin: miter; stroke-linecap: square"/>
   </g>
   <g id="patch_5">
    <path d="M 28.136343 204.211444 
L 298.303479 204.211444 
" style="fill: none; stroke: #000000; stroke-width: 0.8; stroke-linejoin: miter; stroke-linecap: square"/>
   </g>
   <g id="patch_6">
    <path d="M 28.136343 13.474578 
L 298.303479 13.474578 
" style="fill: none; stroke: #000000; stroke-width: 0.8; stroke-linejoin: miter; stroke-linecap: square"/>
   </g>
   <g id="text_16">
    <!-- Impulse response spectrum: RTL vs Python-model -->
    <g transform="translate(61.801288 7.474578) scale(0.1 -0.1)">
     <defs>
      <path id="NimbusRomNo9L-Regu-49" d="M 736 689 
C 736 206 653 128 115 128 
L 115 0 
L 2016 0 
L 2016 128 
C 1491 128 1389 217 1389 688 
L 1389 3542 
C 1389 4012 1478 4096 2016 4096 
L 2016 4231 
L 115 4231 
L 115 4096 
C 659 4096 736 4026 736 3548 
L 736 689 
z
" transform="scale(0.015625)"/>
      <path id="NimbusRomNo9L-Regu-70" d="M 58 2516 
C 115 2522 160 2522 218 2522 
C 435 2522 480 2458 480 2155 
L 480 -855 
C 480 -1189 410 -1261 32 -1299 
L 32 -1408 
L 1581 -1408 
L 1581 -1293 
C 1101 -1293 1018 -1222 1018 -816 
L 1018 199 
C 1242 -13 1395 -77 1664 -77 
C 2419 -77 3008 643 3008 1575 
C 3008 2372 2560 2944 1939 2944 
C 1581 2944 1299 2784 1018 2438 
L 1018 2931 
L 979 2944 
C 634 2810 410 2726 58 2618 
L 58 2516 
z
M 1018 2136 
C 1018 2329 1376 2560 1670 2560 
C 2144 2560 2458 2071 2458 1324 
C 2458 611 2144 128 1683 128 
C 1382 128 1018 359 1018 552 
L 1018 2136 
z
" transform="scale(0.015625)"/>
      <path id="NimbusRomNo9L-Regu-73" d="M 2016 2010 
L 1990 2880 
L 1920 2880 
L 1907 2867 
C 1850 2822 1843 2816 1818 2816 
C 1779 2816 1715 2829 1645 2861 
C 1504 2915 1363 2944 1197 2944 
C 691 2944 326 2616 326 2154 
C 326 1796 531 1539 1075 1231 
L 1446 1020 
C 1670 892 1779 737 1779 539 
C 1779 256 1574 77 1248 77 
C 1030 77 832 159 710 298 
C 576 455 518 600 435 960 
L 333 960 
L 333 -39 
L 416 -39 
C 461 33 486 48 563 48 
C 621 48 710 35 858 -2 
C 1037 -39 1210 -64 1325 -64 
C 1818 -64 2227 308 2227 757 
C 2227 1077 2074 1289 1690 1520 
L 998 1930 
C 819 2033 723 2194 723 2367 
C 723 2624 922 2803 1216 2803 
C 1581 2803 1773 2583 1920 2010 
L 2016 2010 
z
" transform="scale(0.015625)"/>
      <path id="NimbusRomNo9L-Regu-74" d="M 1632 2880 
L 986 2880 
L 986 3622 
C 986 3686 979 3706 941 3706 
C 896 3648 858 3590 813 3526 
C 570 3174 294 2867 192 2841 
C 122 2794 83 2748 83 2715 
C 83 2695 90 2682 109 2682 
L 448 2682 
L 448 751 
C 448 212 640 -64 1018 -64 
C 1331 -64 1574 90 1786 423 
L 1702 493 
C 1568 333 1459 269 1318 269 
C 1082 269 986 443 986 847 
L 986 2682 
L 1632 2682 
L 1632 2880 
z
" transform="scale(0.015625)"/>
      <path id="NimbusRomNo9L-Regu-3a" d="M 870 2944 
C 678 2944 518 2777 518 2579 
C 518 2393 678 2233 864 2233 
C 1062 2233 1229 2393 1229 2579 
C 1229 2777 1062 2944 870 2944 
z
M 870 646 
C 678 646 518 480 518 281 
C 518 96 678 -64 864 -64 
C 1062 -64 1229 96 1229 281 
C 1229 480 1062 646 870 646 
z
" transform="scale(0.015625)"/>
      <path id="NimbusRomNo9L-Regu-52" d="M 4218 121 
C 3974 140 3846 205 3661 424 
L 2342 2061 
C 2771 2143 2963 2219 3174 2388 
C 3379 2553 3501 2818 3501 3113 
C 3501 3385 3418 3618 3251 3801 
C 3008 4059 2477 4224 1875 4224 
L 109 4224 
L 109 4102 
C 589 4051 653 3981 653 3528 
L 653 765 
C 653 236 589 159 109 121 
L 109 0 
L 1882 0 
L 1882 134 
C 1389 134 1306 219 1306 692 
L 1306 1984 
L 1664 1984 
L 3187 0 
L 4218 0 
L 4218 121 
z
M 1306 3762 
C 1306 3937 1376 3987 1632 3987 
C 2432 3987 2803 3716 2803 3123 
C 2803 2807 2669 2542 2438 2423 
C 2144 2258 1920 2221 1306 2221 
L 1306 3762 
z
" transform="scale(0.015625)"/>
      <path id="NimbusRomNo9L-Regu-54" d="M 1626 3968 
L 1626 751 
C 1626 204 1555 134 1024 134 
L 1024 0 
L 2893 0 
L 2893 134 
C 2368 134 2278 217 2278 687 
L 2278 3968 
L 2624 3968 
C 3354 3968 3494 3853 3642 3149 
L 3795 3149 
L 3757 4237 
L 147 4237 
L 109 3149 
L 262 3149 
C 416 3846 563 3968 1280 3968 
L 1626 3968 
z
" transform="scale(0.015625)"/>
      <path id="NimbusRomNo9L-Regu-4c" d="M 3667 1114 
C 3558 870 3469 723 3373 614 
C 3149 365 2797 250 2266 250 
L 1837 250 
C 1370 250 1286 288 1286 513 
L 1286 3550 
C 1286 4007 1376 4096 1882 4096 
L 1882 4237 
L 77 4237 
L 77 4115 
C 550 4077 634 3986 634 3536 
L 634 681 
C 634 230 544 134 77 134 
L 77 0 
L 3520 0 
L 3827 1114 
L 3667 1114 
z
" transform="scale(0.015625)"/>
      <path id="NimbusRomNo9L-Regu-76" d="M 3053 2854 
L 2163 2854 
L 2163 2758 
C 2368 2739 2464 2675 2464 2552 
C 2464 2488 2451 2424 2426 2359 
L 1792 695 
L 1139 2340 
C 1101 2431 1082 2520 1082 2578 
C 1082 2694 1152 2739 1376 2758 
L 1376 2854 
L 122 2854 
L 122 2752 
C 365 2752 410 2688 704 2024 
L 1472 175 
C 1485 137 1504 91 1523 40 
C 1562 -76 1600 -128 1638 -128 
C 1677 -128 1722 -44 1818 193 
L 2637 2257 
C 2822 2694 2861 2739 3053 2758 
L 3053 2854 
z
" transform="scale(0.015625)"/>
      <path id="NimbusRomNo9L-Regu-50" d="M 1293 1875 
C 1459 1856 1568 1856 1734 1856 
C 2234 1856 2579 1919 2854 2072 
C 3238 2274 3469 2660 3469 3078 
C 3469 3344 3379 3584 3206 3768 
C 2950 4047 2394 4224 1792 4224 
L 102 4224 
L 102 4102 
C 576 4051 640 3987 640 3528 
L 640 766 
C 640 230 589 166 102 122 
L 102 0 
L 1894 0 
L 1894 128 
C 1389 128 1293 218 1293 693 
L 1293 1875 
z
M 1293 3772 
C 1293 3943 1338 3987 1510 3987 
C 2374 3987 2771 3690 2771 3040 
C 2771 2428 2394 2112 1658 2112 
C 1530 2112 1440 2119 1293 2131 
L 1293 3772 
z
" transform="scale(0.015625)"/>
      <path id="NimbusRomNo9L-Regu-68" d="M 1005 2222 
C 1274 2516 1466 2624 1715 2624 
C 2035 2624 2195 2395 2195 1948 
L 2195 684 
C 2195 250 2131 166 1760 128 
L 1760 32 
L 3117 32 
L 3117 128 
C 2771 192 2733 243 2733 684 
L 2733 1954 
C 2733 2625 2464 2970 1946 2970 
C 1568 2970 1299 2816 1005 2432 
L 1005 4390 
L 973 4409 
C 755 4332 595 4281 237 4179 
L 64 4128 
L 64 4026 
C 90 4032 109 4032 141 4032 
C 416 4032 467 3980 467 3705 
L 467 686 
C 467 237 429 179 58 128 
L 58 32 
L 1440 32 
L 1440 128 
C 1069 166 1005 243 1005 684 
L 1005 2222 
z
" transform="scale(0.015625)"/>
      <path id="NimbusRomNo9L-Regu-2d" d="M 250 1619 
L 250 1216 
L 1824 1216 
L 1824 1619 
L 250 1619 
z
" transform="scale(0.015625)"/>
     </defs>
     <use xlink:href="#NimbusRomNo9L-Regu-49" transform="scale(0.996264)"/>
     <use xlink:href="#NimbusRomNo9L-Regu-6d" transform="translate(33.17523 0) scale(0.996264)"/>
     <use xlink:href="#NimbusRomNo9L-Regu-70" transform="translate(110.6836 0) scale(0.996264)"/>
     <use xlink:href="#NimbusRomNo9L-Regu-75" transform="translate(160.4968 0) scale(0.996264)"/>
     <use xlink:href="#NimbusRomNo9L-Regu-6c" transform="translate(210.310001 0) scale(0.996264)"/>
     <use xlink:href="#NimbusRomNo9L-Regu-73" transform="translate(238.00517 0) scale(0.996264)"/>
     <use xlink:href="#NimbusRomNo9L-Regu-65" transform="translate(276.758877 0) scale(0.996264)"/>
     <use xlink:href="#NimbusRomNo9L-Regu-72" transform="translate(345.899046 0) scale(0.996264)"/>
     <use xlink:href="#NimbusRomNo9L-Regu-65" transform="translate(379.074275 0) scale(0.996264)"/>
     <use xlink:href="#NimbusRomNo9L-Regu-73" transform="translate(423.307844 0) scale(0.996264)"/>
     <use xlink:href="#NimbusRomNo9L-Regu-70" transform="translate(462.06155 0) scale(0.996264)"/>
     <use xlink:href="#NimbusRomNo9L-Regu-6f" transform="translate(511.874751 0) scale(0.996264)"/>
     <use xlink:href="#NimbusRomNo9L-Regu-6e" transform="translate(561.687951 0) scale(0.996264)"/>
     <use xlink:href="#NimbusRomNo9L-Regu-73" transform="translate(611.501152 0) scale(0.996264)"/>
     <use xlink:href="#NimbusRomNo9L-Regu-65" transform="translate(650.254858 0) scale(0.996264)"/>
     <use xlink:href="#NimbusRomNo9L-Regu-73" transform="translate(719.395027 0) scale(0.996264)"/>
     <use xlink:href="#NimbusRomNo9L-Regu-70" transform="translate(758.148733 0) scale(0.996264)"/>
     <use xlink:href="#NimbusRomNo9L-Regu-65" transform="translate(807.961934 0) scale(0.996264)"/>
     <use xlink:href="#NimbusRomNo9L-Regu-63" transform="translate(852.195502 0) scale(0.996264)"/>
     <use xlink:href="#NimbusRomNo9L-Regu-74" transform="translate(896.429071 0) scale(0.996264)"/>
     <use xlink:href="#NimbusRomNo9L-Regu-72" transform="translate(924.124241 0) scale(0.996264)"/>
     <use xlink:href="#NimbusRomNo9L-Regu-75" transform="translate(957.29947 0) scale(0.996264)"/>
     <use xlink:href="#NimbusRomNo9L-Regu-6d" transform="translate(1007.112671 0) scale(0.996264)"/>
     <use xlink:href="#NimbusRomNo9L-Regu-3a" transform="translate(1084.621041 0) scale(0.996264)"/>
     <use xlink:href="#NimbusRomNo9L-Regu-52" transform="translate(1143.200243 0) scale(0.996264)"/>
     <use xlink:href="#NimbusRomNo9L-Regu-54" transform="translate(1203.672827 0) scale(0.996264)"/>
     <use xlink:href="#NimbusRomNo9L-Regu-4c" transform="translate(1264.544457 0) scale(0.996264)"/>
     <use xlink:href="#NimbusRomNo9L-Regu-76" transform="translate(1350.322688 0) scale(0.996264)"/>
     <use xlink:href="#NimbusRomNo9L-Regu-73" transform="translate(1400.135889 0) scale(0.996264)"/>
     <use xlink:href="#NimbusRomNo9L-Regu-50" transform="translate(1463.796195 0) scale(0.996264)"/>
     <use xlink:href="#NimbusRomNo9L-Regu-79" transform="translate(1519.187872 0) scale(0.996264)"/>
     <use xlink:href="#NimbusRomNo9L-Regu-74" transform="translate(1569.001073 0) scale(0.996264)"/>
     <use xlink:href="#NimbusRomNo9L-Regu-68" transform="translate(1596.696242 0) scale(0.996264)"/>
     <use xlink:href="#NimbusRomNo9L-Regu-6f" transform="translate(1646.509443 0) scale(0.996264)"/>
     <use xlink:href="#NimbusRomNo9L-Regu-6e" transform="translate(1696.322643 0) scale(0.996264)"/>
     <use xlink:href="#NimbusRomNo9L-Regu-2d" transform="translate(1746.135844 0) scale(0.996264)"/>
     <use xlink:href="#NimbusRomNo9L-Regu-6d" transform="translate(1779.311073 0) scale(0.996264)"/>
     <use xlink:href="#NimbusRomNo9L-Regu-6f" transform="translate(1856.819444 0) scale(0.996264)"/>
     <use xlink:href="#NimbusRomNo9L-Regu-64" transform="translate(1906.632644 0) scale(0.996264)"/>
     <use xlink:href="#NimbusRomNo9L-Regu-65" transform="translate(1956.445845 0) scale(0.996264)"/>
     <use xlink:href="#NimbusRomNo9L-Regu-6c" transform="translate(2000.679413 0) scale(0.996264)"/>
    </g>
   </g>
   <g id="legend_1">
    <g id="patch_7">
     <path d="M 224.337205 40.125504 
L 294.303479 40.125504 
L 294.303479 17.474578 
L 224.337205 17.474578 
z
" style="fill: #ffffff; stroke: #000000; stroke-width: 0.5; stroke-linejoin: miter"/>
    </g>
    <g id="line2d_31">
     <path d="M 226.737205 22.674578 
L 234.737205 22.674578 
L 242.737205 22.674578 
" style="fill: none; stroke: #0000ff; stroke-width: 2; stroke-linecap: square"/>
    </g>
    <g id="text_17">
     <!-- RTL -->
     <g transform="translate(246.737205 25.474578) scale(0.08 -0.08)">
      <use xlink:href="#NimbusRomNo9L-Regu-52" transform="scale(0.996264)"/>
      <use xlink:href="#NimbusRomNo9L-Regu-54" transform="translate(60.472584 0) scale(0.996264)"/>
      <use xlink:href="#NimbusRomNo9L-Regu-4c" transform="translate(121.344215 0) scale(0.996264)"/>
     </g>
    </g>
    <g id="line2d_32">
     <path d="M 226.737205 33.200041 
L 234.737205 33.200041 
L 242.737205 33.200041 
" style="fill: none; stroke-dasharray: 7.4,3.2; stroke-dashoffset: 0; stroke: #ff0000; stroke-width: 2"/>
    </g>
    <g id="text_18">
     <!-- Python-model -->
     <g transform="translate(246.737205 36.000041) scale(0.08 -0.08)">
      <use xlink:href="#NimbusRomNo9L-Regu-50" transform="scale(0.996264)"/>
      <use xlink:href="#NimbusRomNo9L-Regu-79" transform="translate(55.391677 0) scale(0.996264)"/>
      <use xlink:href="#NimbusRomNo9L-Regu-74" transform="translate(105.204877 0) scale(0.996264)"/>
      <use xlink:href="#NimbusRomNo9L-Regu-68" transform="translate(132.900047 0) scale(0.996264)"/>
      <use xlink:href="#NimbusRomNo9L-Regu-6f" transform="translate(182.713248 0) scale(0.996264)"/>
      <use xlink:href="#NimbusRomNo9L-Regu-6e" transform="translate(232.526448 0) scale(0.996264)"/>
      <use xlink:href="#NimbusRomNo9L-Regu-2d" transform="translate(282.339649 0) scale(0.996264)"/>
      <use xlink:href="#NimbusRomNo9L-Regu-6d" transform="translate(315.514878 0) scale(0.996264)"/>
      <use xlink:href="#NimbusRomNo9L-Regu-6f" transform="translate(393.023248 0) scale(0.996264)"/>
      <use xlink:href="#NimbusRomNo9L-Regu-64" transform="translate(442.836449 0) scale(0.996264)"/>
      <use xlink:href="#NimbusRomNo9L-Regu-65" transform="translate(492.649649 0) scale(0.996264)"/>
      <use xlink:href="#NimbusRomNo9L-Regu-6c" transform="translate(536.883218 0) scale(0.996264)"/>
     </g>
    </g>
   </g>
  </g>
 </g>
 <defs>
  <clipPath id="p0fd6623881">
   <rect x="28.136343" y="13.474578" width="270.167136" height="190.736866"/>
  </clipPath>
 </defs>
</svg>
