<?xml version="1.0" encoding="utf-8" standalone="no"?>
<!DOCTYPE svg PUBLIC "-//W3C//DTD SVG 1.1//EN"
  "http://www.w3.org/Graphics/SVG/1.1/DTD/svg11.dtd">
<svg xmlns:xlink="http://www.w3.org/1999/xlink" width="460.231654pt" height="345.330709pt" viewBox="0 0 460.231654 345.330709" xmlns="http://www.w3.org/2000/svg" version="1.1">
 <metadata>
  <rdf:RDF xmlns:dc="http://purl.org/dc/elements/1.1/" xmlns:cc="http://creativecommons.org/ns#" xmlns:rdf="http://www.w3.org/1999/02/22-rdf-syntax-ns#">
   <cc:Work>
    <dc:type rdf:resource="http://purl.org/dc/dcmitype/StillImage"/>
    <dc:date>2026-03-23T10:49:17.068709</dc:date>
    <dc:format>image/svg+xml</dc:format>
    <dc:creator>
     <cc:Agent>
      <dc:title>Matplotlib v3.10.8, https://matplotlib.org/</dc:title>
     </cc:Agent>
    </dc:creator>
   </cc:Work>
  </rdf:RDF>
 </metadata>
 <defs>
  <style type="text/css">*{stroke-linejoin: round; stroke-linecap: butt}</style>
 </defs>
 <g id="figure_1">
  <g id="patch_1">
   <path d="M 0 345.330709 
L 460.231654 345.330709 
L 460.231654 0 
L 0 0 
z
" style="fill: #ffffff"/>
  </g>
  <g id="axes_1">
   <g id="patch_2">
    <path d="M 57.528957 307.344331 
L 414.208488 307.344331 
L 414.208488 41.439685 
L 57.528957 41.439685 
z
" style="fill: #ffffff"/>
   </g>
   <g id="matplotlib.axis_1">
    <g id="xtick_1">
     <g id="line2d_1">
      <path d="M 107.480193 307.344331 
L 107.480193 41.439685 
" clip-path="url(#pdeef8df9cf)" style="fill: none; stroke: #b0b0b0; stroke-width: 0.8; stroke-linecap: square"/>
     </g>
     <g id="line2d_2">
      <defs>
       <path id="m7ad58db26a" d="M 0 0 
L 0 3.5 
" style="stroke: #000000; stroke-width: 0.8"/>
      </defs>
      <g>
       <use xlink:href="#m7ad58db26a" x="107.480193" y="307.344331" style="stroke: #000000; stroke-width: 0.8"/>
      </g>
     </g>
     <g id="text_1">
      <!-- −0.50 -->
      <g transform="translate(92.157537 321.942768) scale(0.1 -0.1)">
       <defs>
        <path id="DejaVuSans-2212" d="M 678 2272 
L 4684 2272 
L 4684 1741 
L 678 1741 
L 678 2272 
z
" transform="scale(0.015625)"/>
        <path id="DejaVuSans-30" d="M 2034 4250 
Q 1547 4250 1301 3770 
Q 1056 3291 1056 2328 
Q 1056 1369 1301 889 
Q 1547 409 2034 409 
Q 2525 409 2770 889 
Q 3016 1369 3016 2328 
Q 3016 3291 2770 3770 
Q 2525 4250 2034 4250 
z
M 2034 4750 
Q 2819 4750 3233 4129 
Q 3647 3509 3647 2328 
Q 3647 1150 3233 529 
Q 2819 -91 2034 -91 
Q 1250 -91 836 529 
Q 422 1150 422 2328 
Q 422 3509 836 4129 
Q 1250 4750 2034 4750 
z
" transform="scale(0.015625)"/>
        <path id="DejaVuSans-2e" d="M 684 794 
L 1344 794 
L 1344 0 
L 684 0 
L 684 794 
z
" transform="scale(0.015625)"/>
        <path id="DejaVuSans-35" d="M 691 4666 
L 3169 4666 
L 3169 4134 
L 1269 4134 
L 1269 2991 
Q 1406 3038 1543 3061 
Q 1681 3084 1819 3084 
Q 2600 3084 3056 2656 
Q 3513 2228 3513 1497 
Q 3513 744 3044 326 
Q 2575 -91 1722 -91 
Q 1428 -91 1123 -41 
Q 819 9 494 109 
L 494 744 
Q 775 591 1075 516 
Q 1375 441 1709 441 
Q 2250 441 2565 725 
Q 2881 1009 2881 1497 
Q 2881 1984 2565 2268 
Q 2250 2553 1709 2553 
Q 1456 2553 1204 2497 
Q 953 2441 691 2322 
L 691 4666 
z
" transform="scale(0.015625)"/>
       </defs>
       <use xlink:href="#DejaVuSans-2212"/>
       <use xlink:href="#DejaVuSans-30" transform="translate(83.789062 0)"/>
       <use xlink:href="#DejaVuSans-2e" transform="translate(147.412109 0)"/>
       <use xlink:href="#DejaVuSans-35" transform="translate(179.199219 0)"/>
       <use xlink:href="#DejaVuSans-30" transform="translate(242.822266 0)"/>
      </g>
     </g>
    </g>
    <g id="xtick_2">
     <g id="line2d_3">
      <path d="M 170.593427 307.344331 
L 170.593427 41.439685 
" clip-path="url(#pdeef8df9cf)" style="fill: none; stroke: #b0b0b0; stroke-width: 0.8; stroke-linecap: square"/>
     </g>
     <g id="line2d_4">
      <g>
       <use xlink:href="#m7ad58db26a" x="170.593427" y="307.344331" style="stroke: #000000; stroke-width: 0.8"/>
      </g>
     </g>
     <g id="text_2">
      <!-- −0.45 -->
      <g transform="translate(155.270771 321.942768) scale(0.1 -0.1)">
       <defs>
        <path id="DejaVuSans-34" d="M 2419 4116 
L 825 1625 
L 2419 1625 
L 2419 4116 
z
M 2253 4666 
L 3047 4666 
L 3047 1625 
L 3713 1625 
L 3713 1100 
L 3047 1100 
L 3047 0 
L 2419 0 
L 2419 1100 
L 313 1100 
L 313 1709 
L 2253 4666 
z
" transform="scale(0.015625)"/>
       </defs>
       <use xlink:href="#DejaVuSans-2212"/>
       <use xlink:href="#DejaVuSans-30" transform="translate(83.789062 0)"/>
       <use xlink:href="#DejaVuSans-2e" transform="translate(147.412109 0)"/>
       <use xlink:href="#DejaVuSans-34" transform="translate(179.199219 0)"/>
       <use xlink:href="#DejaVuSans-35" transform="translate(242.822266 0)"/>
      </g>
     </g>
    </g>
    <g id="xtick_3">
     <g id="line2d_5">
      <path d="M 233.706662 307.344331 
L 233.706662 41.439685 
" clip-path="url(#pdeef8df9cf)" style="fill: none; stroke: #b0b0b0; stroke-width: 0.8; stroke-linecap: square"/>
     </g>
     <g id="line2d_6">
      <g>
       <use xlink:href="#m7ad58db26a" x="233.706662" y="307.344331" style="stroke: #000000; stroke-width: 0.8"/>
      </g>
     </g>
     <g id="text_3">
      <!-- −0.40 -->
      <g transform="translate(218.384005 321.942768) scale(0.1 -0.1)">
       <use xlink:href="#DejaVuSans-2212"/>
       <use xlink:href="#DejaVuSans-30" transform="translate(83.789062 0)"/>
       <use xlink:href="#DejaVuSans-2e" transform="translate(147.412109 0)"/>
       <use xlink:href="#DejaVuSans-34" transform="translate(179.199219 0)"/>
       <use xlink:href="#DejaVuSans-30" transform="translate(242.822266 0)"/>
      </g>
     </g>
    </g>
    <g id="xtick_4">
     <g id="line2d_7">
      <path d="M 296.819896 307.344331 
L 296.819896 41.439685 
" clip-path="url(#pdeef8df9cf)" style="fill: none; stroke: #b0b0b0; stroke-width: 0.8; stroke-linecap: square"/>
     </g>
     <g id="line2d_8">
      <g>
       <use xlink:href="#m7ad58db26a" x="296.819896" y="307.344331" style="stroke: #000000; stroke-width: 0.8"/>
      </g>
     </g>
     <g id="text_4">
      <!-- −0.35 -->
      <g transform="translate(281.49724 321.942768) scale(0.1 -0.1)">
       <defs>
        <path id="DejaVuSans-33" d="M 2597 2516 
Q 3050 2419 3304 2112 
Q 3559 1806 3559 1356 
Q 3559 666 3084 287 
Q 2609 -91 1734 -91 
Q 1441 -91 1130 -33 
Q 819 25 488 141 
L 488 750 
Q 750 597 1062 519 
Q 1375 441 1716 441 
Q 2309 441 2620 675 
Q 2931 909 2931 1356 
Q 2931 1769 2642 2001 
Q 2353 2234 1838 2234 
L 1294 2234 
L 1294 2753 
L 1863 2753 
Q 2328 2753 2575 2939 
Q 2822 3125 2822 3475 
Q 2822 3834 2567 4026 
Q 2313 4219 1838 4219 
Q 1578 4219 1281 4162 
Q 984 4106 628 3988 
L 628 4550 
Q 988 4650 1302 4700 
Q 1616 4750 1894 4750 
Q 2613 4750 3031 4423 
Q 3450 4097 3450 3541 
Q 3450 3153 3228 2886 
Q 3006 2619 2597 2516 
z
" transform="scale(0.015625)"/>
       </defs>
       <use xlink:href="#DejaVuSans-2212"/>
       <use xlink:href="#DejaVuSans-30" transform="translate(83.789062 0)"/>
       <use xlink:href="#DejaVuSans-2e" transform="translate(147.412109 0)"/>
       <use xlink:href="#DejaVuSans-33" transform="translate(179.199219 0)"/>
       <use xlink:href="#DejaVuSans-35" transform="translate(242.822266 0)"/>
      </g>
     </g>
    </g>
    <g id="xtick_5">
     <g id="line2d_9">
      <path d="M 359.933131 307.344331 
L 359.933131 41.439685 
" clip-path="url(#pdeef8df9cf)" style="fill: none; stroke: #b0b0b0; stroke-width: 0.8; stroke-linecap: square"/>
     </g>
     <g id="line2d_10">
      <g>
       <use xlink:href="#m7ad58db26a" x="359.933131" y="307.344331" style="stroke: #000000; stroke-width: 0.8"/>
      </g>
     </g>
     <g id="text_5">
      <!-- −0.30 -->
      <g transform="translate(344.610474 321.942768) scale(0.1 -0.1)">
       <use xlink:href="#DejaVuSans-2212"/>
       <use xlink:href="#DejaVuSans-30" transform="translate(83.789062 0)"/>
       <use xlink:href="#DejaVuSans-2e" transform="translate(147.412109 0)"/>
       <use xlink:href="#DejaVuSans-33" transform="translate(179.199219 0)"/>
       <use xlink:href="#DejaVuSans-30" transform="translate(242.822266 0)"/>
      </g>
     </g>
    </g>
    <g id="text_6">
     <!-- Normalized Frequency -->
     <g transform="translate(180.094504 335.620893) scale(0.1 -0.1)">
      <defs>
       <path id="DejaVuSans-4e" d="M 628 4666 
L 1478 4666 
L 3547 763 
L 3547 4666 
L 4159 4666 
L 4159 0 
L 3309 0 
L 1241 3903 
L 1241 0 
L 628 0 
L 628 4666 
z
" transform="scale(0.015625)"/>
       <path id="DejaVuSans-6f" d="M 1959 3097 
Q 1497 3097 1228 2736 
Q 959 2375 959 1747 
Q 959 1119 1226 758 
Q 1494 397 1959 397 
Q 2419 397 2687 759 
Q 2956 1122 2956 1747 
Q 2956 2369 2687 2733 
Q 2419 3097 1959 3097 
z
M 1959 3584 
Q 2709 3584 3137 3096 
Q 3566 2609 3566 1747 
Q 3566 888 3137 398 
Q 2709 -91 1959 -91 
Q 1206 -91 779 398 
Q 353 888 353 1747 
Q 353 2609 779 3096 
Q 1206 3584 1959 3584 
z
" transform="scale(0.015625)"/>
       <path id="DejaVuSans-72" d="M 2631 2963 
Q 2534 3019 2420 3045 
Q 2306 3072 2169 3072 
Q 1681 3072 1420 2755 
Q 1159 2438 1159 1844 
L 1159 0 
L 581 0 
L 581 3500 
L 1159 3500 
L 1159 2956 
Q 1341 3275 1631 3429 
Q 1922 3584 2338 3584 
Q 2397 3584 2469 3576 
Q 2541 3569 2628 3553 
L 2631 2963 
z
" transform="scale(0.015625)"/>
       <path id="DejaVuSans-6d" d="M 3328 2828 
Q 3544 3216 3844 3400 
Q 4144 3584 4550 3584 
Q 5097 3584 5394 3201 
Q 5691 2819 5691 2113 
L 5691 0 
L 5113 0 
L 5113 2094 
Q 5113 2597 4934 2840 
Q 4756 3084 4391 3084 
Q 3944 3084 3684 2787 
Q 3425 2491 3425 1978 
L 3425 0 
L 2847 0 
L 2847 2094 
Q 2847 2600 2669 2842 
Q 2491 3084 2119 3084 
Q 1678 3084 1418 2786 
Q 1159 2488 1159 1978 
L 1159 0 
L 581 0 
L 581 3500 
L 1159 3500 
L 1159 2956 
Q 1356 3278 1631 3431 
Q 1906 3584 2284 3584 
Q 2666 3584 2933 3390 
Q 3200 3197 3328 2828 
z
" transform="scale(0.015625)"/>
       <path id="DejaVuSans-61" d="M 2194 1759 
Q 1497 1759 1228 1600 
Q 959 1441 959 1056 
Q 959 750 1161 570 
Q 1363 391 1709 391 
Q 2188 391 2477 730 
Q 2766 1069 2766 1631 
L 2766 1759 
L 2194 1759 
z
M 3341 1997 
L 3341 0 
L 2766 0 
L 2766 531 
Q 2569 213 2275 61 
Q 1981 -91 1556 -91 
Q 1019 -91 701 211 
Q 384 513 384 1019 
Q 384 1609 779 1909 
Q 1175 2209 1959 2209 
L 2766 2209 
L 2766 2266 
Q 2766 2663 2505 2880 
Q 2244 3097 1772 3097 
Q 1472 3097 1187 3025 
Q 903 2953 641 2809 
L 641 3341 
Q 956 3463 1253 3523 
Q 1550 3584 1831 3584 
Q 2591 3584 2966 3190 
Q 3341 2797 3341 1997 
z
" transform="scale(0.015625)"/>
       <path id="DejaVuSans-6c" d="M 603 4863 
L 1178 4863 
L 1178 0 
L 603 0 
L 603 4863 
z
" transform="scale(0.015625)"/>
       <path id="DejaVuSans-69" d="M 603 3500 
L 1178 3500 
L 1178 0 
L 603 0 
L 603 3500 
z
M 603 4863 
L 1178 4863 
L 1178 4134 
L 603 4134 
L 603 4863 
z
" transform="scale(0.015625)"/>
       <path id="DejaVuSans-7a" d="M 353 3500 
L 3084 3500 
L 3084 2975 
L 922 459 
L 3084 459 
L 3084 0 
L 275 0 
L 275 525 
L 2438 3041 
L 353 3041 
L 353 3500 
z
" transform="scale(0.015625)"/>
       <path id="DejaVuSans-65" d="M 3597 1894 
L 3597 1613 
L 953 1613 
Q 991 1019 1311 708 
Q 1631 397 2203 397 
Q 2534 397 2845 478 
Q 3156 559 3463 722 
L 3463 178 
Q 3153 47 2828 -22 
Q 2503 -91 2169 -91 
Q 1331 -91 842 396 
Q 353 884 353 1716 
Q 353 2575 817 3079 
Q 1281 3584 2069 3584 
Q 2775 3584 3186 3129 
Q 3597 2675 3597 1894 
z
M 3022 2063 
Q 3016 2534 2758 2815 
Q 2500 3097 2075 3097 
Q 1594 3097 1305 2825 
Q 1016 2553 972 2059 
L 3022 2063 
z
" transform="scale(0.015625)"/>
       <path id="DejaVuSans-64" d="M 2906 2969 
L 2906 4863 
L 3481 4863 
L 3481 0 
L 2906 0 
L 2906 525 
Q 2725 213 2448 61 
Q 2172 -91 1784 -91 
Q 1150 -91 751 415 
Q 353 922 353 1747 
Q 353 2572 751 3078 
Q 1150 3584 1784 3584 
Q 2172 3584 2448 3432 
Q 2725 3281 2906 2969 
z
M 947 1747 
Q 947 1113 1208 752 
Q 1469 391 1925 391 
Q 2381 391 2643 752 
Q 2906 1113 2906 1747 
Q 2906 2381 2643 2742 
Q 2381 3103 1925 3103 
Q 1469 3103 1208 2742 
Q 947 2381 947 1747 
z
" transform="scale(0.015625)"/>
       <path id="DejaVuSans-20" transform="scale(0.015625)"/>
       <path id="DejaVuSans-46" d="M 628 4666 
L 3309 4666 
L 3309 4134 
L 1259 4134 
L 1259 2759 
L 3109 2759 
L 3109 2228 
L 1259 2228 
L 1259 0 
L 628 0 
L 628 4666 
z
" transform="scale(0.015625)"/>
       <path id="DejaVuSans-71" d="M 947 1747 
Q 947 1113 1208 752 
Q 1469 391 1925 391 
Q 2381 391 2643 752 
Q 2906 1113 2906 1747 
Q 2906 2381 2643 2742 
Q 2381 3103 1925 3103 
Q 1469 3103 1208 2742 
Q 947 2381 947 1747 
z
M 2906 525 
Q 2725 213 2448 61 
Q 2172 -91 1784 -91 
Q 1150 -91 751 415 
Q 353 922 353 1747 
Q 353 2572 751 3078 
Q 1150 3584 1784 3584 
Q 2172 3584 2448 3432 
Q 2725 3281 2906 2969 
L 2906 3500 
L 3481 3500 
L 3481 -1331 
L 2906 -1331 
L 2906 525 
z
" transform="scale(0.015625)"/>
       <path id="DejaVuSans-75" d="M 544 1381 
L 544 3500 
L 1119 3500 
L 1119 1403 
Q 1119 906 1312 657 
Q 1506 409 1894 409 
Q 2359 409 2629 706 
Q 2900 1003 2900 1516 
L 2900 3500 
L 3475 3500 
L 3475 0 
L 2900 0 
L 2900 538 
Q 2691 219 2414 64 
Q 2138 -91 1772 -91 
Q 1169 -91 856 284 
Q 544 659 544 1381 
z
M 1991 3584 
L 1991 3584 
z
" transform="scale(0.015625)"/>
       <path id="DejaVuSans-6e" d="M 3513 2113 
L 3513 0 
L 2938 0 
L 2938 2094 
Q 2938 2591 2744 2837 
Q 2550 3084 2163 3084 
Q 1697 3084 1428 2787 
Q 1159 2491 1159 1978 
L 1159 0 
L 581 0 
L 581 3500 
L 1159 3500 
L 1159 2956 
Q 1366 3272 1645 3428 
Q 1925 3584 2291 3584 
Q 2894 3584 3203 3211 
Q 3513 2838 3513 2113 
z
" transform="scale(0.015625)"/>
       <path id="DejaVuSans-63" d="M 3122 3366 
L 3122 2828 
Q 2878 2963 2633 3030 
Q 2388 3097 2138 3097 
Q 1578 3097 1268 2742 
Q 959 2388 959 1747 
Q 959 1106 1268 751 
Q 1578 397 2138 397 
Q 2388 397 2633 464 
Q 2878 531 3122 666 
L 3122 134 
Q 2881 22 2623 -34 
Q 2366 -91 2075 -91 
Q 1284 -91 818 406 
Q 353 903 353 1747 
Q 353 2603 823 3093 
Q 1294 3584 2113 3584 
Q 2378 3584 2631 3529 
Q 2884 3475 3122 3366 
z
" transform="scale(0.015625)"/>
       <path id="DejaVuSans-79" d="M 2059 -325 
Q 1816 -950 1584 -1140 
Q 1353 -1331 966 -1331 
L 506 -1331 
L 506 -850 
L 844 -850 
Q 1081 -850 1212 -737 
Q 1344 -625 1503 -206 
L 1606 56 
L 191 3500 
L 800 3500 
L 1894 763 
L 2988 3500 
L 3597 3500 
L 2059 -325 
z
" transform="scale(0.015625)"/>
      </defs>
      <use xlink:href="#DejaVuSans-4e"/>
      <use xlink:href="#DejaVuSans-6f" transform="translate(74.804688 0)"/>
      <use xlink:href="#DejaVuSans-72" transform="translate(135.986328 0)"/>
      <use xlink:href="#DejaVuSans-6d" transform="translate(175.349609 0)"/>
      <use xlink:href="#DejaVuSans-61" transform="translate(272.761719 0)"/>
      <use xlink:href="#DejaVuSans-6c" transform="translate(334.041016 0)"/>
      <use xlink:href="#DejaVuSans-69" transform="translate(361.824219 0)"/>
      <use xlink:href="#DejaVuSans-7a" transform="translate(389.607422 0)"/>
      <use xlink:href="#DejaVuSans-65" transform="translate(442.097656 0)"/>
      <use xlink:href="#DejaVuSans-64" transform="translate(503.621094 0)"/>
      <use xlink:href="#DejaVuSans-20" transform="translate(567.097656 0)"/>
      <use xlink:href="#DejaVuSans-46" transform="translate(598.884766 0)"/>
      <use xlink:href="#DejaVuSans-72" transform="translate(649.154297 0)"/>
      <use xlink:href="#DejaVuSans-65" transform="translate(688.017578 0)"/>
      <use xlink:href="#DejaVuSans-71" transform="translate(749.541016 0)"/>
      <use xlink:href="#DejaVuSans-75" transform="translate(813.017578 0)"/>
      <use xlink:href="#DejaVuSans-65" transform="translate(876.396484 0)"/>
      <use xlink:href="#DejaVuSans-6e" transform="translate(937.919922 0)"/>
      <use xlink:href="#DejaVuSans-63" transform="translate(1001.298828 0)"/>
      <use xlink:href="#DejaVuSans-79" transform="translate(1056.279297 0)"/>
     </g>
    </g>
   </g>
   <g id="matplotlib.axis_2">
    <g id="ytick_1">
     <g id="line2d_11">
      <path d="M 57.528957 279.737102 
L 414.208488 279.737102 
" clip-path="url(#pdeef8df9cf)" style="fill: none; stroke: #b0b0b0; stroke-width: 0.8; stroke-linecap: square"/>
     </g>
     <g id="line2d_12">
      <defs>
       <path id="m52d79aa79b" d="M 0 0 
L -3.5 0 
" style="stroke: #000000; stroke-width: 0.8"/>
      </defs>
      <g>
       <use xlink:href="#m52d79aa79b" x="57.528957" y="279.737102" style="stroke: #000000; stroke-width: 0.8"/>
      </g>
     </g>
     <g id="text_7">
      <!-- −140 -->
      <g transform="translate(23.061769 283.536321) scale(0.1 -0.1)">
       <defs>
        <path id="DejaVuSans-31" d="M 794 531 
L 1825 531 
L 1825 4091 
L 703 3866 
L 703 4441 
L 1819 4666 
L 2450 4666 
L 2450 531 
L 3481 531 
L 3481 0 
L 794 0 
L 794 531 
z
" transform="scale(0.015625)"/>
       </defs>
       <use xlink:href="#DejaVuSans-2212"/>
       <use xlink:href="#DejaVuSans-31" transform="translate(83.789062 0)"/>
       <use xlink:href="#DejaVuSans-34" transform="translate(147.412109 0)"/>
       <use xlink:href="#DejaVuSans-30" transform="translate(211.035156 0)"/>
      </g>
     </g>
    </g>
    <g id="ytick_2">
     <g id="line2d_13">
      <path d="M 57.528957 248.237791 
L 414.208488 248.237791 
" clip-path="url(#pdeef8df9cf)" style="fill: none; stroke: #b0b0b0; stroke-width: 0.8; stroke-linecap: square"/>
     </g>
     <g id="line2d_14">
      <g>
       <use xlink:href="#m52d79aa79b" x="57.528957" y="248.237791" style="stroke: #000000; stroke-width: 0.8"/>
      </g>
     </g>
     <g id="text_8">
      <!-- −130 -->
      <g transform="translate(23.061769 252.03701) scale(0.1 -0.1)">
       <use xlink:href="#DejaVuSans-2212"/>
       <use xlink:href="#DejaVuSans-31" transform="translate(83.789062 0)"/>
       <use xlink:href="#DejaVuSans-33" transform="translate(147.412109 0)"/>
       <use xlink:href="#DejaVuSans-30" transform="translate(211.035156 0)"/>
      </g>
     </g>
    </g>
    <g id="ytick_3">
     <g id="line2d_15">
      <path d="M 57.528957 216.73848 
L 414.208488 216.73848 
" clip-path="url(#pdeef8df9cf)" style="fill: none; stroke: #b0b0b0; stroke-width: 0.8; stroke-linecap: square"/>
     </g>
     <g id="line2d_16">
      <g>
       <use xlink:href="#m52d79aa79b" x="57.528957" y="216.73848" style="stroke: #000000; stroke-width: 0.8"/>
      </g>
     </g>
     <g id="text_9">
      <!-- −120 -->
      <g transform="translate(23.061769 220.537699) scale(0.1 -0.1)">
       <defs>
        <path id="DejaVuSans-32" d="M 1228 531 
L 3431 531 
L 3431 0 
L 469 0 
L 469 531 
Q 828 903 1448 1529 
Q 2069 2156 2228 2338 
Q 2531 2678 2651 2914 
Q 2772 3150 2772 3378 
Q 2772 3750 2511 3984 
Q 2250 4219 1831 4219 
Q 1534 4219 1204 4116 
Q 875 4013 500 3803 
L 500 4441 
Q 881 4594 1212 4672 
Q 1544 4750 1819 4750 
Q 2544 4750 2975 4387 
Q 3406 4025 3406 3419 
Q 3406 3131 3298 2873 
Q 3191 2616 2906 2266 
Q 2828 2175 2409 1742 
Q 1991 1309 1228 531 
z
" transform="scale(0.015625)"/>
       </defs>
       <use xlink:href="#DejaVuSans-2212"/>
       <use xlink:href="#DejaVuSans-31" transform="translate(83.789062 0)"/>
       <use xlink:href="#DejaVuSans-32" transform="translate(147.412109 0)"/>
       <use xlink:href="#DejaVuSans-30" transform="translate(211.035156 0)"/>
      </g>
     </g>
    </g>
    <g id="ytick_4">
     <g id="line2d_17">
      <path d="M 57.528957 185.239169 
L 414.208488 185.239169 
" clip-path="url(#pdeef8df9cf)" style="fill: none; stroke: #b0b0b0; stroke-width: 0.8; stroke-linecap: square"/>
     </g>
     <g id="line2d_18">
      <g>
       <use xlink:href="#m52d79aa79b" x="57.528957" y="185.239169" style="stroke: #000000; stroke-width: 0.8"/>
      </g>
     </g>
     <g id="text_10">
      <!-- −110 -->
      <g transform="translate(23.061769 189.038388) scale(0.1 -0.1)">
       <use xlink:href="#DejaVuSans-2212"/>
       <use xlink:href="#DejaVuSans-31" transform="translate(83.789062 0)"/>
       <use xlink:href="#DejaVuSans-31" transform="translate(147.412109 0)"/>
       <use xlink:href="#DejaVuSans-30" transform="translate(211.035156 0)"/>
      </g>
     </g>
    </g>
    <g id="ytick_5">
     <g id="line2d_19">
      <path d="M 57.528957 153.739858 
L 414.208488 153.739858 
" clip-path="url(#pdeef8df9cf)" style="fill: none; stroke: #b0b0b0; stroke-width: 0.8; stroke-linecap: square"/>
     </g>
     <g id="line2d_20">
      <g>
       <use xlink:href="#m52d79aa79b" x="57.528957" y="153.739858" style="stroke: #000000; stroke-width: 0.8"/>
      </g>
     </g>
     <g id="text_11">
      <!-- −100 -->
      <g transform="translate(23.061769 157.539077) scale(0.1 -0.1)">
       <use xlink:href="#DejaVuSans-2212"/>
       <use xlink:href="#DejaVuSans-31" transform="translate(83.789062 0)"/>
       <use xlink:href="#DejaVuSans-30" transform="translate(147.412109 0)"/>
       <use xlink:href="#DejaVuSans-30" transform="translate(211.035156 0)"/>
      </g>
     </g>
    </g>
    <g id="ytick_6">
     <g id="line2d_21">
      <path d="M 57.528957 122.240547 
L 414.208488 122.240547 
" clip-path="url(#pdeef8df9cf)" style="fill: none; stroke: #b0b0b0; stroke-width: 0.8; stroke-linecap: square"/>
     </g>
     <g id="line2d_22">
      <g>
       <use xlink:href="#m52d79aa79b" x="57.528957" y="122.240547" style="stroke: #000000; stroke-width: 0.8"/>
      </g>
     </g>
     <g id="text_12">
      <!-- −90 -->
      <g transform="translate(29.424269 126.039765) scale(0.1 -0.1)">
       <defs>
        <path id="DejaVuSans-39" d="M 703 97 
L 703 672 
Q 941 559 1184 500 
Q 1428 441 1663 441 
Q 2288 441 2617 861 
Q 2947 1281 2994 2138 
Q 2813 1869 2534 1725 
Q 2256 1581 1919 1581 
Q 1219 1581 811 2004 
Q 403 2428 403 3163 
Q 403 3881 828 4315 
Q 1253 4750 1959 4750 
Q 2769 4750 3195 4129 
Q 3622 3509 3622 2328 
Q 3622 1225 3098 567 
Q 2575 -91 1691 -91 
Q 1453 -91 1209 -44 
Q 966 3 703 97 
z
M 1959 2075 
Q 2384 2075 2632 2365 
Q 2881 2656 2881 3163 
Q 2881 3666 2632 3958 
Q 2384 4250 1959 4250 
Q 1534 4250 1286 3958 
Q 1038 3666 1038 3163 
Q 1038 2656 1286 2365 
Q 1534 2075 1959 2075 
z
" transform="scale(0.015625)"/>
       </defs>
       <use xlink:href="#DejaVuSans-2212"/>
       <use xlink:href="#DejaVuSans-39" transform="translate(83.789062 0)"/>
       <use xlink:href="#DejaVuSans-30" transform="translate(147.412109 0)"/>
      </g>
     </g>
    </g>
    <g id="ytick_7">
     <g id="line2d_23">
      <path d="M 57.528957 90.741235 
L 414.208488 90.741235 
" clip-path="url(#pdeef8df9cf)" style="fill: none; stroke: #b0b0b0; stroke-width: 0.8; stroke-linecap: square"/>
     </g>
     <g id="line2d_24">
      <g>
       <use xlink:href="#m52d79aa79b" x="57.528957" y="90.741235" style="stroke: #000000; stroke-width: 0.8"/>
      </g>
     </g>
     <g id="text_13">
      <!-- −80 -->
      <g transform="translate(29.424269 94.540454) scale(0.1 -0.1)">
       <defs>
        <path id="DejaVuSans-38" d="M 2034 2216 
Q 1584 2216 1326 1975 
Q 1069 1734 1069 1313 
Q 1069 891 1326 650 
Q 1584 409 2034 409 
Q 2484 409 2743 651 
Q 3003 894 3003 1313 
Q 3003 1734 2745 1975 
Q 2488 2216 2034 2216 
z
M 1403 2484 
Q 997 2584 770 2862 
Q 544 3141 544 3541 
Q 544 4100 942 4425 
Q 1341 4750 2034 4750 
Q 2731 4750 3128 4425 
Q 3525 4100 3525 3541 
Q 3525 3141 3298 2862 
Q 3072 2584 2669 2484 
Q 3125 2378 3379 2068 
Q 3634 1759 3634 1313 
Q 3634 634 3220 271 
Q 2806 -91 2034 -91 
Q 1263 -91 848 271 
Q 434 634 434 1313 
Q 434 1759 690 2068 
Q 947 2378 1403 2484 
z
M 1172 3481 
Q 1172 3119 1398 2916 
Q 1625 2713 2034 2713 
Q 2441 2713 2670 2916 
Q 2900 3119 2900 3481 
Q 2900 3844 2670 4047 
Q 2441 4250 2034 4250 
Q 1625 4250 1398 4047 
Q 1172 3844 1172 3481 
z
" transform="scale(0.015625)"/>
       </defs>
       <use xlink:href="#DejaVuSans-2212"/>
       <use xlink:href="#DejaVuSans-38" transform="translate(83.789062 0)"/>
       <use xlink:href="#DejaVuSans-30" transform="translate(147.412109 0)"/>
      </g>
     </g>
    </g>
    <g id="ytick_8">
     <g id="line2d_25">
      <path d="M 57.528957 59.241924 
L 414.208488 59.241924 
" clip-path="url(#pdeef8df9cf)" style="fill: none; stroke: #b0b0b0; stroke-width: 0.8; stroke-linecap: square"/>
     </g>
     <g id="line2d_26">
      <g>
       <use xlink:href="#m52d79aa79b" x="57.528957" y="59.241924" style="stroke: #000000; stroke-width: 0.8"/>
      </g>
     </g>
     <g id="text_14">
      <!-- −70 -->
      <g transform="translate(29.424269 63.041143) scale(0.1 -0.1)">
       <defs>
        <path id="DejaVuSans-37" d="M 525 4666 
L 3525 4666 
L 3525 4397 
L 1831 0 
L 1172 0 
L 2766 4134 
L 525 4134 
L 525 4666 
z
" transform="scale(0.015625)"/>
       </defs>
       <use xlink:href="#DejaVuSans-2212"/>
       <use xlink:href="#DejaVuSans-37" transform="translate(83.789062 0)"/>
       <use xlink:href="#DejaVuSans-30" transform="translate(147.412109 0)"/>
      </g>
     </g>
    </g>
   </g>
   <g id="line2d_27">
    <path d="M 107.480193 104.252481 
L 108.096533 104.326848 
L 108.712873 104.550818 
L 109.329213 104.927039 
L 109.945553 105.460056 
L 110.561894 106.156537 
L 111.794574 108.079348 
L 113.027254 110.808519 
L 114.259935 114.536203 
L 115.492615 119.600037 
L 116.108955 122.814572 
L 116.725295 126.649381 
L 117.341636 131.314701 
L 117.957976 137.164927 
L 118.574316 144.869396 
L 119.190656 155.948018 
L 119.806996 175.372898 
L 120.423337 258.653913 
L 121.039677 172.677841 
L 121.656017 154.26818 
L 122.272357 143.379305 
L 122.888697 135.658033 
L 123.505037 129.707954 
L 124.737718 120.899584 
L 125.970398 114.580391 
L 127.203079 109.830099 
L 128.435759 106.199071 
L 129.668439 103.43879 
L 130.90112 101.403007 
L 132.1338 100.004947 
L 132.75014 99.52899 
L 133.36648 99.197104 
L 133.982821 99.00795 
L 134.599161 98.961823 
L 135.215501 99.060675 
L 135.831841 99.308209 
L 136.448181 99.710056 
L 137.064521 100.27406 
L 137.680862 101.01069 
L 138.297202 101.933637 
L 139.529882 104.41486 
L 140.762562 107.935463 
L 141.378903 110.196292 
L 141.995243 112.884499 
L 142.611583 116.109118 
L 143.227923 120.035112 
L 143.844263 124.928764 
L 144.460604 131.261355 
L 145.076944 139.993003 
L 145.693284 153.624896 
L 146.309624 184.033426 
L 146.925964 181.214854 
L 147.542304 151.533633 
L 148.158645 137.353708 
L 148.774985 127.889195 
L 149.391325 120.758837 
L 150.624005 110.255602 
L 151.856686 102.587458 
L 153.089366 96.60054 
L 154.322046 91.750469 
L 155.554727 87.736944 
L 156.787407 84.377011 
L 158.020088 81.551384 
L 159.252768 79.178479 
L 160.485448 77.200616 
L 161.718129 75.576144 
L 162.950809 74.274708 
L 164.183489 73.274289 
L 165.41617 72.559321 
L 166.64885 72.119487 
L 167.88153 71.948979 
L 169.114211 72.046106 
L 170.346891 72.413185 
L 171.579572 73.056699 
L 172.812252 73.987749 
L 174.044932 75.222871 
L 175.277613 76.785344 
L 176.510293 78.707247 
L 177.742973 81.032689 
L 178.975654 83.823013 
L 180.208334 87.165539 
L 181.441014 91.189072 
L 182.673695 96.093568 
L 183.906375 102.212855 
L 185.139055 110.167601 
L 185.755396 115.202758 
L 186.371736 121.329907 
L 186.988076 129.141955 
L 187.604416 139.930717 
L 188.220756 157.557482 
L 188.837097 216.846469 
L 189.453437 165.465241 
L 190.069777 144.909689 
L 190.686117 133.617777 
L 191.302457 125.905916 
L 191.918797 120.122437 
L 192.535138 115.555484 
L 193.767818 108.735221 
L 195.000498 103.902155 
L 196.233179 100.385402 
L 197.465859 97.836307 
L 198.698539 96.054524 
L 199.93122 94.918704 
L 200.54756 94.568518 
L 201.1639 94.354721 
L 201.78024 94.272853 
L 202.396581 94.319886 
L 203.012921 94.494103 
L 203.629261 94.795017 
L 204.861941 95.781048 
L 206.094622 97.298894 
L 207.327302 99.392546 
L 208.559982 102.136488 
L 209.792663 105.650492 
L 211.025343 110.129187 
L 212.258023 115.905773 
L 213.490704 123.608996 
L 214.107044 128.560789 
L 214.723384 134.644484 
L 215.339724 142.476257 
L 215.956064 153.415735 
L 216.572405 171.638243 
L 217.188745 244.856221 
L 217.805085 176.331329 
L 218.421425 156.661834 
L 219.037765 145.646154 
L 219.654106 138.083894 
L 220.270446 132.412472 
L 220.886786 127.949332 
L 222.119466 121.358041 
L 223.352147 116.81913 
L 224.584827 113.69011 
L 225.201167 112.546539 
L 225.817507 111.648551 
L 226.433848 110.978841 
L 227.050188 110.525436 
L 227.666528 110.280803 
L 228.282868 110.241318 
L 228.899208 110.407023 
L 229.515548 110.781634 
L 230.131889 111.372795 
L 230.748229 112.192618 
L 231.364569 113.258604 
L 231.980909 114.595078 
L 232.597249 116.235431 
L 233.21359 118.225644 
L 233.82993 120.630004 
L 234.44627 123.540785 
L 235.06261 127.095653 
L 235.67895 131.511512 
L 236.29529 137.157772 
L 236.911631 144.741209 
L 237.527971 155.899887 
L 238.144311 176.245606 
L 238.760651 229.497377 
L 239.376991 168.661554 
L 239.993332 150.90854 
L 240.609672 140.063829 
L 241.226012 132.224097 
L 242.458692 121.059484 
L 243.691373 113.158597 
L 244.924053 107.143658 
L 246.156733 102.392363 
L 247.389414 98.570934 
L 248.622094 95.480563 
L 249.854774 92.994519 
L 251.087455 91.02847 
L 252.320135 89.525044 
L 253.552815 88.445222 
L 254.785496 87.763346 
L 256.018176 87.464185 
L 257.250857 87.541311 
L 258.483537 87.996385 
L 259.716217 88.839218 
L 260.948898 90.088585 
L 262.181578 91.774001 
L 263.414258 93.938827 
L 264.646939 96.645544 
L 265.879619 99.984801 
L 267.112299 104.091674 
L 268.34498 109.177011 
L 269.57766 115.594308 
L 270.810341 124.004819 
L 271.426681 129.354795 
L 272.043021 135.889568 
L 272.659361 144.268981 
L 273.275701 155.979288 
L 273.892041 175.809197 
L 274.508382 282.909362 
L 275.124722 176.118122 
L 275.741062 158.225352 
L 276.357402 148.105458 
L 276.973742 141.247199 
L 277.590083 136.225965 
L 278.206423 132.408142 
L 278.822763 129.458825 
L 279.439103 127.182015 
L 280.055443 125.455801 
L 280.671783 124.202131 
L 281.288124 123.371365 
L 281.904464 122.934017 
L 282.520804 122.876404 
L 283.137144 123.198766 
L 283.753484 123.915265 
L 284.369825 125.055901 
L 284.986165 126.670873 
L 285.602505 128.838898 
L 286.218845 131.682726 
L 286.835185 135.399561 
L 287.451525 140.326314 
L 288.067866 147.100741 
L 288.684206 157.158979 
L 289.300546 175.067527 
L 289.916886 295.770356 
L 290.533226 174.13017 
L 291.149566 154.336442 
L 291.765907 142.590741 
L 292.382247 134.163402 
L 293.614927 122.186133 
L 294.847608 113.708001 
L 296.080288 107.259822 
L 297.312968 102.189382 
L 298.545649 98.15243 
L 299.778329 94.948631 
L 301.011009 92.455436 
L 302.24369 90.597552 
L 303.47637 89.331763 
L 304.09271 88.914224 
L 304.70905 88.639425 
L 305.325391 88.508395 
L 305.941731 88.523515 
L 306.558071 88.68862 
L 307.174411 89.009152 
L 307.790751 89.492392 
L 308.407092 90.147791 
L 309.023432 90.987433 
L 309.639772 92.026682 
L 310.872452 94.787792 
L 312.105133 98.666594 
L 313.337813 104.079364 
L 313.954153 107.590194 
L 314.570493 111.853534 
L 315.186834 117.158135 
L 315.803174 124.02258 
L 316.419514 133.530629 
L 317.035854 148.655287 
L 317.652194 186.462812 
L 318.268534 167.444085 
L 318.884875 142.388171 
L 319.501215 129.612622 
L 320.117555 121.055629 
L 320.733895 114.687945 
L 321.350235 109.683763 
L 322.582916 102.274743 
L 323.815596 97.148487 
L 325.048276 93.614872 
L 325.664617 92.33533 
L 326.280957 91.347498 
L 326.897297 90.63699 
L 327.513637 90.195917 
L 328.129977 90.022097 
L 328.746317 90.118763 
L 329.362658 90.494674 
L 329.978998 91.164681 
L 330.595338 92.150813 
L 331.211678 93.4841 
L 331.828018 95.207499 
L 332.444359 97.380628 
L 333.060699 100.087659 
L 333.677039 103.451124 
L 334.293379 107.657834 
L 334.909719 113.012271 
L 335.526059 120.062197 
L 336.1424 129.959212 
L 336.75874 145.922228 
L 337.37508 188.341229 
L 338.60776 139.200019 
L 339.224101 127.789623 
L 339.840441 120.692292 
L 340.456781 116.084516 
L 341.073121 113.297004 
L 341.689461 112.112273 
L 342.305801 112.60532 
L 342.922142 115.196225 
L 343.538482 121.011598 
L 344.154822 133.558333 
L 344.771162 180.145238 
L 345.387502 136.370039 
L 346.003843 110.934193 
L 346.620183 95.600613 
L 347.236523 84.115078 
L 348.469203 66.639777 
L 349.701884 53.04928 
L 350.934564 41.678257 
L 352.783585 27.247628 
L 354.632605 14.930259 
L 356.481626 4.092827 
L 357.429322 -1 
L 357.429322 -1 
" clip-path="url(#pdeef8df9cf)" style="fill: none; stroke: #0000ff; stroke-width: 2; stroke-linecap: square"/>
   </g>
   <g id="line2d_28">
    <path d="M 107.480193 112.122843 
L 108.096533 112.211715 
L 108.712873 112.479682 
L 109.329213 112.930883 
L 109.945553 113.572487 
L 110.561894 114.415134 
L 111.178234 115.473638 
L 111.794574 116.768047 
L 113.027254 120.181397 
L 113.643595 122.385736 
L 114.259935 125.00677 
L 114.876275 128.142795 
L 115.492615 131.940974 
L 116.108955 136.634941 
L 116.725295 142.627696 
L 117.341636 150.706695 
L 117.957976 162.768681 
L 119.190656 213.093283 
L 119.806996 170.325899 
L 120.423337 154.187522 
L 121.039677 144.004029 
L 121.656017 136.551759 
L 122.888697 125.865009 
L 124.121378 118.28084 
L 125.354058 112.510917 
L 126.586738 107.964743 
L 127.819419 104.323365 
L 129.052099 101.396414 
L 130.284779 99.062885 
L 131.51746 97.243036 
L 132.75014 95.883772 
L 133.982821 94.950594 
L 135.215501 94.423086 
L 136.448181 94.292519 
L 137.680862 94.560931 
L 138.913542 95.241432 
L 140.146222 96.359823 
L 141.378903 97.957957 
L 142.611583 100.099836 
L 143.844263 102.882538 
L 145.076944 106.456597 
L 146.309624 111.066967 
L 147.542304 117.145164 
L 148.158645 120.973377 
L 148.774985 125.554739 
L 149.391325 131.195985 
L 150.007665 138.456202 
L 150.624005 148.531991 
L 151.240346 164.866266 
L 151.856686 211.993842 
L 152.473026 176.892131 
L 153.089366 154.40716 
L 153.705706 142.291837 
L 154.322046 133.994578 
L 154.938387 127.715004 
L 156.171067 118.540591 
L 157.403747 112.001459 
L 158.636428 107.069587 
L 159.869108 103.250712 
L 161.101788 100.27108 
L 162.334469 97.965436 
L 163.567149 96.228796 
L 164.79983 94.992997 
L 166.03251 94.214383 
L 167.26519 93.86709 
L 168.497871 93.939479 
L 169.730551 94.432625 
L 170.963231 95.360409 
L 172.195912 96.751251 
L 173.428592 98.65198 
L 174.661272 101.13505 
L 175.893953 104.311805 
L 177.126633 108.357881 
L 178.359313 113.566106 
L 179.591994 120.471503 
L 180.208334 124.870176 
L 180.824674 130.210957 
L 181.441014 136.945967 
L 182.057355 145.98428 
L 182.673695 159.638821 
L 183.290035 188.119098 
L 183.906375 193.43436 
L 184.522715 161.65488 
L 185.139055 147.492964 
L 185.755396 138.345181 
L 186.371736 131.63419 
L 186.988076 126.379112 
L 188.220756 118.527817 
L 189.453437 112.887813 
L 190.686117 108.673649 
L 191.918797 105.487752 
L 193.151478 103.104385 
L 194.384158 101.386779 
L 195.616839 100.24995 
L 196.849519 99.642343 
L 197.465859 99.5276 
L 198.082199 99.536411 
L 198.698539 99.668338 
L 199.31488 99.924056 
L 200.54756 100.815281 
L 201.78024 102.239573 
L 203.012921 104.25048 
L 204.245601 106.935071 
L 205.478281 110.432323 
L 206.710962 114.970326 
L 207.943642 120.949165 
L 208.559982 124.697653 
L 209.176323 129.156891 
L 209.792663 134.597522 
L 210.409003 141.499146 
L 211.025343 150.842198 
L 211.641683 165.201051 
L 212.258023 197.145296 
L 212.874364 192.179884 
L 213.490704 163.892084 
L 214.107044 150.468859 
L 214.723384 141.676589 
L 215.339724 135.200201 
L 215.956064 130.130722 
L 217.188745 122.601428 
L 218.421425 117.281806 
L 219.654106 113.422356 
L 220.886786 110.647916 
L 222.119466 108.753112 
L 222.735806 108.097563 
L 223.352147 107.624321 
L 223.968487 107.328062 
L 224.584827 107.206152 
L 225.201167 107.258501 
L 225.817507 107.487558 
L 226.433848 107.898454 
L 227.050188 108.499298 
L 227.666528 109.301678 
L 228.282868 110.321417 
L 228.899208 111.579719 
L 229.515548 113.104874 
L 230.131889 114.934861 
L 230.748229 117.121438 
L 231.364569 119.736795 
L 231.980909 122.88499 
L 232.597249 126.722889 
L 233.21359 131.502023 
L 233.82993 137.662704 
L 234.44627 146.085709 
L 235.06261 158.98625 
L 235.67895 185.793339 
L 236.29529 194.933597 
L 236.911631 160.980398 
L 237.527971 146.049324 
L 238.144311 136.313046 
L 238.760651 129.074077 
L 239.993332 118.556595 
L 241.226012 111.006498 
L 242.458692 105.216186 
L 243.691373 100.623653 
L 244.924053 96.922586 
L 246.156733 93.929056 
L 247.389414 91.525623 
L 248.622094 89.634581 
L 249.854774 88.203935 
L 251.087455 87.199614 
L 252.320135 86.601045 
L 253.552815 86.398734 
L 254.785496 86.5932 
L 256.018176 87.195004 
L 257.250857 88.22588 
L 258.483537 89.721244 
L 259.716217 91.734755 
L 260.948898 94.346334 
L 262.181578 97.676637 
L 263.414258 101.914759 
L 264.646939 107.376424 
L 265.879619 114.643889 
L 266.495959 119.296779 
L 267.112299 124.980539 
L 267.72864 132.22035 
L 268.34498 142.118052 
L 268.96132 157.719986 
L 269.57766 197.07701 
L 270.810341 151.505532 
L 271.426681 139.071851 
L 272.043021 130.768898 
L 272.659361 124.608471 
L 273.275701 119.775885 
L 274.508382 112.613989 
L 275.741062 107.604249 
L 276.973742 104.040661 
L 278.206423 101.57008 
L 278.822763 100.68133 
L 279.439103 100.002721 
L 280.055443 99.524267 
L 280.671783 99.239634 
L 281.288124 99.145723 
L 281.904464 99.242471 
L 282.520804 99.532841 
L 283.137144 100.022994 
L 283.753484 100.722667 
L 284.369825 101.645823 
L 284.986165 102.81164 
L 285.602505 104.246038 
L 286.218845 105.984005 
L 286.835185 108.073228 
L 287.451525 110.57998 
L 288.067866 113.599087 
L 288.684206 117.271892 
L 289.300546 121.821332 
L 289.916886 127.628321 
L 290.533226 135.426278 
L 291.149566 146.935967 
L 291.765907 168.237201 
L 292.382247 210.804615 
L 292.998587 158.109393 
L 293.614927 141.021387 
L 294.231267 130.501097 
L 294.847608 122.897563 
L 295.463948 116.966406 
L 296.696628 108.079575 
L 297.929308 101.629227 
L 299.161989 96.740666 
L 300.394669 92.982339 
L 301.62735 90.114665 
L 302.86003 87.996616 
L 304.09271 86.544894 
L 304.70905 86.053641 
L 305.325391 85.714487 
L 305.941731 85.526294 
L 306.558071 85.489505 
L 307.174411 85.606164 
L 307.790751 85.879987 
L 308.407092 86.31652 
L 309.023432 86.923381 
L 309.639772 87.710627 
L 310.256112 88.691262 
L 311.488792 91.304222 
L 312.721473 94.962719 
L 313.954153 100.014733 
L 314.570493 103.249336 
L 315.186834 107.125167 
L 315.803174 111.857002 
L 316.419514 117.807351 
L 317.035854 125.663198 
L 317.652194 136.996017 
L 318.268534 157.043678 
L 318.884875 224.237483 
L 319.501215 152.788396 
L 320.117555 134.990392 
L 320.733895 124.466452 
L 321.350235 117.069717 
L 321.966575 111.44927 
L 322.582916 106.994413 
L 323.815596 100.405419 
L 325.048276 95.937953 
L 325.664617 94.3042 
L 326.280957 93.012812 
L 326.897297 92.037471 
L 327.513637 91.361356 
L 328.129977 90.975337 
L 328.746317 90.876997 
L 329.362658 91.070263 
L 329.978998 91.565577 
L 330.595338 92.380629 
L 331.211678 93.541788 
L 331.828018 95.086519 
L 332.444359 97.067342 
L 333.060699 99.558405 
L 333.677039 102.666809 
L 334.293379 106.553355 
L 334.909719 111.473823 
L 335.526059 117.871319 
L 336.1424 126.621438 
L 336.75874 139.893678 
L 337.37508 166.665566 
L 337.99142 179.62237 
L 338.60776 145.517017 
L 339.224101 131.7412 
L 339.840441 123.606221 
L 340.456781 118.41555 
L 341.073121 115.258316 
L 341.689461 113.825235 
L 342.305801 114.152363 
L 342.922142 116.64874 
L 343.538482 122.463304 
L 344.154822 135.254086 
L 344.771162 186.231006 
L 345.387502 136.051254 
L 346.003843 111.138897 
L 346.620183 95.919294 
L 347.852863 75.064532 
L 349.085543 59.822993 
L 350.318224 47.435359 
L 351.550904 36.830629 
L 353.399925 23.153722 
L 355.248945 11.342232 
L 357.453614 -1 
L 357.453614 -1 
" clip-path="url(#pdeef8df9cf)" style="fill: none; stroke: #ff0000; stroke-width: 2; stroke-linecap: square"/>
   </g>
   <g id="patch_3">
    <path d="M 57.528957 307.344331 
L 57.528957 41.439685 
" style="fill: none; stroke: #000000; stroke-width: 0.8; stroke-linejoin: miter; stroke-linecap: square"/>
   </g>
   <g id="patch_4">
    <path d="M 414.208488 307.344331 
L 414.208488 41.439685 
" style="fill: none; stroke: #000000; stroke-width: 0.8; stroke-linejoin: miter; stroke-linecap: square"/>
   </g>
   <g id="patch_5">
    <path d="M 57.528957 307.344331 
L 414.208488 307.344331 
" style="fill: none; stroke: #000000; stroke-width: 0.8; stroke-linejoin: miter; stroke-linecap: square"/>
   </g>
   <g id="patch_6">
    <path d="M 57.528957 41.439685 
L 414.208488 41.439685 
" style="fill: none; stroke: #000000; stroke-width: 0.8; stroke-linejoin: miter; stroke-linecap: square"/>
   </g>
   <g id="text_15">
    <!-- Impulse response spectrum: MultiCycle filter vs Golden model -->
    <g transform="translate(49.476847 22.00231) scale(0.12 -0.12)">
     <defs>
      <path id="DejaVuSans-49" d="M 628 4666 
L 1259 4666 
L 1259 0 
L 628 0 
L 628 4666 
z
" transform="scale(0.015625)"/>
      <path id="DejaVuSans-70" d="M 1159 525 
L 1159 -1331 
L 581 -1331 
L 581 3500 
L 1159 3500 
L 1159 2969 
Q 1341 3281 1617 3432 
Q 1894 3584 2278 3584 
Q 2916 3584 3314 3078 
Q 3713 2572 3713 1747 
Q 3713 922 3314 415 
Q 2916 -91 2278 -91 
Q 1894 -91 1617 61 
Q 1341 213 1159 525 
z
M 3116 1747 
Q 3116 2381 2855 2742 
Q 2594 3103 2138 3103 
Q 1681 3103 1420 2742 
Q 1159 2381 1159 1747 
Q 1159 1113 1420 752 
Q 1681 391 2138 391 
Q 2594 391 2855 752 
Q 3116 1113 3116 1747 
z
" transform="scale(0.015625)"/>
      <path id="DejaVuSans-73" d="M 2834 3397 
L 2834 2853 
Q 2591 2978 2328 3040 
Q 2066 3103 1784 3103 
Q 1356 3103 1142 2972 
Q 928 2841 928 2578 
Q 928 2378 1081 2264 
Q 1234 2150 1697 2047 
L 1894 2003 
Q 2506 1872 2764 1633 
Q 3022 1394 3022 966 
Q 3022 478 2636 193 
Q 2250 -91 1575 -91 
Q 1294 -91 989 -36 
Q 684 19 347 128 
L 347 722 
Q 666 556 975 473 
Q 1284 391 1588 391 
Q 1994 391 2212 530 
Q 2431 669 2431 922 
Q 2431 1156 2273 1281 
Q 2116 1406 1581 1522 
L 1381 1569 
Q 847 1681 609 1914 
Q 372 2147 372 2553 
Q 372 3047 722 3315 
Q 1072 3584 1716 3584 
Q 2034 3584 2315 3537 
Q 2597 3491 2834 3397 
z
" transform="scale(0.015625)"/>
      <path id="DejaVuSans-74" d="M 1172 4494 
L 1172 3500 
L 2356 3500 
L 2356 3053 
L 1172 3053 
L 1172 1153 
Q 1172 725 1289 603 
Q 1406 481 1766 481 
L 2356 481 
L 2356 0 
L 1766 0 
Q 1100 0 847 248 
Q 594 497 594 1153 
L 594 3053 
L 172 3053 
L 172 3500 
L 594 3500 
L 594 4494 
L 1172 4494 
z
" transform="scale(0.015625)"/>
      <path id="DejaVuSans-3a" d="M 750 794 
L 1409 794 
L 1409 0 
L 750 0 
L 750 794 
z
M 750 3309 
L 1409 3309 
L 1409 2516 
L 750 2516 
L 750 3309 
z
" transform="scale(0.015625)"/>
      <path id="DejaVuSans-4d" d="M 628 4666 
L 1569 4666 
L 2759 1491 
L 3956 4666 
L 4897 4666 
L 4897 0 
L 4281 0 
L 4281 4097 
L 3078 897 
L 2444 897 
L 1241 4097 
L 1241 0 
L 628 0 
L 628 4666 
z
" transform="scale(0.015625)"/>
      <path id="DejaVuSans-43" d="M 4122 4306 
L 4122 3641 
Q 3803 3938 3442 4084 
Q 3081 4231 2675 4231 
Q 1875 4231 1450 3742 
Q 1025 3253 1025 2328 
Q 1025 1406 1450 917 
Q 1875 428 2675 428 
Q 3081 428 3442 575 
Q 3803 722 4122 1019 
L 4122 359 
Q 3791 134 3420 21 
Q 3050 -91 2638 -91 
Q 1578 -91 968 557 
Q 359 1206 359 2328 
Q 359 3453 968 4101 
Q 1578 4750 2638 4750 
Q 3056 4750 3426 4639 
Q 3797 4528 4122 4306 
z
" transform="scale(0.015625)"/>
      <path id="DejaVuSans-66" d="M 2375 4863 
L 2375 4384 
L 1825 4384 
Q 1516 4384 1395 4259 
Q 1275 4134 1275 3809 
L 1275 3500 
L 2222 3500 
L 2222 3053 
L 1275 3053 
L 1275 0 
L 697 0 
L 697 3053 
L 147 3053 
L 147 3500 
L 697 3500 
L 697 3744 
Q 697 4328 969 4595 
Q 1241 4863 1831 4863 
L 2375 4863 
z
" transform="scale(0.015625)"/>
      <path id="DejaVuSans-76" d="M 191 3500 
L 800 3500 
L 1894 563 
L 2988 3500 
L 3597 3500 
L 2284 0 
L 1503 0 
L 191 3500 
z
" transform="scale(0.015625)"/>
      <path id="DejaVuSans-47" d="M 3809 666 
L 3809 1919 
L 2778 1919 
L 2778 2438 
L 4434 2438 
L 4434 434 
Q 4069 175 3628 42 
Q 3188 -91 2688 -91 
Q 1594 -91 976 548 
Q 359 1188 359 2328 
Q 359 3472 976 4111 
Q 1594 4750 2688 4750 
Q 3144 4750 3555 4637 
Q 3966 4525 4313 4306 
L 4313 3634 
Q 3963 3931 3569 4081 
Q 3175 4231 2741 4231 
Q 1884 4231 1454 3753 
Q 1025 3275 1025 2328 
Q 1025 1384 1454 906 
Q 1884 428 2741 428 
Q 3075 428 3337 486 
Q 3600 544 3809 666 
z
" transform="scale(0.015625)"/>
     </defs>
     <use xlink:href="#DejaVuSans-49"/>
     <use xlink:href="#DejaVuSans-6d" transform="translate(29.492188 0)"/>
     <use xlink:href="#DejaVuSans-70" transform="translate(126.904297 0)"/>
     <use xlink:href="#DejaVuSans-75" transform="translate(190.380859 0)"/>
     <use xlink:href="#DejaVuSans-6c" transform="translate(253.759766 0)"/>
     <use xlink:href="#DejaVuSans-73" transform="translate(281.542969 0)"/>
     <use xlink:href="#DejaVuSans-65" transform="translate(333.642578 0)"/>
     <use xlink:href="#DejaVuSans-20" transform="translate(395.166016 0)"/>
     <use xlink:href="#DejaVuSans-72" transform="translate(426.953125 0)"/>
     <use xlink:href="#DejaVuSans-65" transform="translate(465.816406 0)"/>
     <use xlink:href="#DejaVuSans-73" transform="translate(527.339844 0)"/>
     <use xlink:href="#DejaVuSans-70" transform="translate(579.439453 0)"/>
     <use xlink:href="#DejaVuSans-6f" transform="translate(642.916016 0)"/>
     <use xlink:href="#DejaVuSans-6e" transform="translate(704.097656 0)"/>
     <use xlink:href="#DejaVuSans-73" transform="translate(767.476562 0)"/>
     <use xlink:href="#DejaVuSans-65" transform="translate(819.576172 0)"/>
     <use xlink:href="#DejaVuSans-20" transform="translate(881.099609 0)"/>
     <use xlink:href="#DejaVuSans-73" transform="translate(912.886719 0)"/>
     <use xlink:href="#DejaVuSans-70" transform="translate(964.986328 0)"/>
     <use xlink:href="#DejaVuSans-65" transform="translate(1028.462891 0)"/>
     <use xlink:href="#DejaVuSans-63" transform="translate(1089.986328 0)"/>
     <use xlink:href="#DejaVuSans-74" transform="translate(1144.966797 0)"/>
     <use xlink:href="#DejaVuSans-72" transform="translate(1184.175781 0)"/>
     <use xlink:href="#DejaVuSans-75" transform="translate(1225.289062 0)"/>
     <use xlink:href="#DejaVuSans-6d" transform="translate(1288.667969 0)"/>
     <use xlink:href="#DejaVuSans-3a" transform="translate(1386.080078 0)"/>
     <use xlink:href="#DejaVuSans-20" transform="translate(1419.771484 0)"/>
     <use xlink:href="#DejaVuSans-4d" transform="translate(1451.558594 0)"/>
     <use xlink:href="#DejaVuSans-75" transform="translate(1537.837891 0)"/>
     <use xlink:href="#DejaVuSans-6c" transform="translate(1601.216797 0)"/>
     <use xlink:href="#DejaVuSans-74" transform="translate(1629 0)"/>
     <use xlink:href="#DejaVuSans-69" transform="translate(1668.208984 0)"/>
     <use xlink:href="#DejaVuSans-43" transform="translate(1695.992188 0)"/>
     <use xlink:href="#DejaVuSans-79" transform="translate(1765.816406 0)"/>
     <use xlink:href="#DejaVuSans-63" transform="translate(1824.996094 0)"/>
     <use xlink:href="#DejaVuSans-6c" transform="translate(1879.976562 0)"/>
     <use xlink:href="#DejaVuSans-65" transform="translate(1907.759766 0)"/>
     <use xlink:href="#DejaVuSans-20" transform="translate(1969.283203 0)"/>
     <use xlink:href="#DejaVuSans-66" transform="translate(2001.070312 0)"/>
     <use xlink:href="#DejaVuSans-69" transform="translate(2036.275391 0)"/>
     <use xlink:href="#DejaVuSans-6c" transform="translate(2064.058594 0)"/>
     <use xlink:href="#DejaVuSans-74" transform="translate(2091.841797 0)"/>
     <use xlink:href="#DejaVuSans-65" transform="translate(2131.050781 0)"/>
     <use xlink:href="#DejaVuSans-72" transform="translate(2192.574219 0)"/>
     <use xlink:href="#DejaVuSans-20" transform="translate(2233.6875 0)"/>
     <use xlink:href="#DejaVuSans-76" transform="translate(2265.474609 0)"/>
     <use xlink:href="#DejaVuSans-73" transform="translate(2324.654297 0)"/>
     <use xlink:href="#DejaVuSans-20" transform="translate(2376.753906 0)"/>
     <use xlink:href="#DejaVuSans-47" transform="translate(2408.541016 0)"/>
     <use xlink:href="#DejaVuSans-6f" transform="translate(2486.03125 0)"/>
     <use xlink:href="#DejaVuSans-6c" transform="translate(2547.212891 0)"/>
     <use xlink:href="#DejaVuSans-64" transform="translate(2574.996094 0)"/>
     <use xlink:href="#DejaVuSans-65" transform="translate(2638.472656 0)"/>
     <use xlink:href="#DejaVuSans-6e" transform="translate(2699.996094 0)"/>
     <use xlink:href="#DejaVuSans-20" transform="translate(2763.375 0)"/>
     <use xlink:href="#DejaVuSans-6d" transform="translate(2795.162109 0)"/>
     <use xlink:href="#DejaVuSans-6f" transform="translate(2892.574219 0)"/>
     <use xlink:href="#DejaVuSans-64" transform="translate(2953.755859 0)"/>
     <use xlink:href="#DejaVuSans-65" transform="translate(3017.232422 0)"/>
     <use xlink:href="#DejaVuSans-6c" transform="translate(3078.755859 0)"/>
    </g>
    <!-- Taps=39, MACS=13 -->
    <g transform="translate(176.268097 35.439685) scale(0.12 -0.12)">
     <defs>
      <path id="DejaVuSans-54" d="M -19 4666 
L 3928 4666 
L 3928 4134 
L 2272 4134 
L 2272 0 
L 1638 0 
L 1638 4134 
L -19 4134 
L -19 4666 
z
" transform="scale(0.015625)"/>
      <path id="DejaVuSans-3d" d="M 678 2906 
L 4684 2906 
L 4684 2381 
L 678 2381 
L 678 2906 
z
M 678 1631 
L 4684 1631 
L 4684 1100 
L 678 1100 
L 678 1631 
z
" transform="scale(0.015625)"/>
      <path id="DejaVuSans-2c" d="M 750 794 
L 1409 794 
L 1409 256 
L 897 -744 
L 494 -744 
L 750 256 
L 750 794 
z
" transform="scale(0.015625)"/>
      <path id="DejaVuSans-41" d="M 2188 4044 
L 1331 1722 
L 3047 1722 
L 2188 4044 
z
M 1831 4666 
L 2547 4666 
L 4325 0 
L 3669 0 
L 3244 1197 
L 1141 1197 
L 716 0 
L 50 0 
L 1831 4666 
z
" transform="scale(0.015625)"/>
      <path id="DejaVuSans-53" d="M 3425 4513 
L 3425 3897 
Q 3066 4069 2747 4153 
Q 2428 4238 2131 4238 
Q 1616 4238 1336 4038 
Q 1056 3838 1056 3469 
Q 1056 3159 1242 3001 
Q 1428 2844 1947 2747 
L 2328 2669 
Q 3034 2534 3370 2195 
Q 3706 1856 3706 1288 
Q 3706 609 3251 259 
Q 2797 -91 1919 -91 
Q 1588 -91 1214 -16 
Q 841 59 441 206 
L 441 856 
Q 825 641 1194 531 
Q 1563 422 1919 422 
Q 2459 422 2753 634 
Q 3047 847 3047 1241 
Q 3047 1584 2836 1778 
Q 2625 1972 2144 2069 
L 1759 2144 
Q 1053 2284 737 2584 
Q 422 2884 422 3419 
Q 422 4038 858 4394 
Q 1294 4750 2059 4750 
Q 2388 4750 2728 4690 
Q 3069 4631 3425 4513 
z
" transform="scale(0.015625)"/>
     </defs>
     <use xlink:href="#DejaVuSans-54"/>
     <use xlink:href="#DejaVuSans-61" transform="translate(44.583984 0)"/>
     <use xlink:href="#DejaVuSans-70" transform="translate(105.863281 0)"/>
     <use xlink:href="#DejaVuSans-73" transform="translate(169.339844 0)"/>
     <use xlink:href="#DejaVuSans-3d" transform="translate(221.439453 0)"/>
     <use xlink:href="#DejaVuSans-33" transform="translate(305.228516 0)"/>
     <use xlink:href="#DejaVuSans-39" transform="translate(368.851562 0)"/>
     <use xlink:href="#DejaVuSans-2c" transform="translate(432.474609 0)"/>
     <use xlink:href="#DejaVuSans-20" transform="translate(464.261719 0)"/>
     <use xlink:href="#DejaVuSans-4d" transform="translate(496.048828 0)"/>
     <use xlink:href="#DejaVuSans-41" transform="translate(582.328125 0)"/>
     <use xlink:href="#DejaVuSans-43" transform="translate(648.986328 0)"/>
     <use xlink:href="#DejaVuSans-53" transform="translate(718.810547 0)"/>
     <use xlink:href="#DejaVuSans-3d" transform="translate(782.287109 0)"/>
     <use xlink:href="#DejaVuSans-31" transform="translate(866.076172 0)"/>
     <use xlink:href="#DejaVuSans-33" transform="translate(929.699219 0)"/>
    </g>
   </g>
   <g id="legend_1">
    <g id="patch_7">
     <path d="M 64.528957 302.344331 
L 167.130519 302.344331 
Q 169.130519 302.344331 169.130519 300.344331 
L 169.130519 271.988081 
Q 169.130519 269.988081 167.130519 269.988081 
L 64.528957 269.988081 
Q 62.528957 269.988081 62.528957 271.988081 
L 62.528957 300.344331 
Q 62.528957 302.344331 64.528957 302.344331 
z
" style="fill: #ffffff; opacity: 0.8; stroke: #cccccc; stroke-linejoin: miter"/>
    </g>
    <g id="line2d_29">
     <path d="M 66.528957 278.086518 
L 76.528957 278.086518 
L 86.528957 278.086518 
" style="fill: none; stroke: #0000ff; stroke-width: 2; stroke-linecap: square"/>
    </g>
    <g id="text_16">
     <!-- MultiCycle FIR -->
     <g transform="translate(94.528957 281.586518) scale(0.1 -0.1)">
      <defs>
       <path id="DejaVuSans-52" d="M 2841 2188 
Q 3044 2119 3236 1894 
Q 3428 1669 3622 1275 
L 4263 0 
L 3584 0 
L 2988 1197 
Q 2756 1666 2539 1819 
Q 2322 1972 1947 1972 
L 1259 1972 
L 1259 0 
L 628 0 
L 628 4666 
L 2053 4666 
Q 2853 4666 3247 4331 
Q 3641 3997 3641 3322 
Q 3641 2881 3436 2590 
Q 3231 2300 2841 2188 
z
M 1259 4147 
L 1259 2491 
L 2053 2491 
Q 2509 2491 2742 2702 
Q 2975 2913 2975 3322 
Q 2975 3731 2742 3939 
Q 2509 4147 2053 4147 
L 1259 4147 
z
" transform="scale(0.015625)"/>
      </defs>
      <use xlink:href="#DejaVuSans-4d"/>
      <use xlink:href="#DejaVuSans-75" transform="translate(86.279297 0)"/>
      <use xlink:href="#DejaVuSans-6c" transform="translate(149.658203 0)"/>
      <use xlink:href="#DejaVuSans-74" transform="translate(177.441406 0)"/>
      <use xlink:href="#DejaVuSans-69" transform="translate(216.650391 0)"/>
      <use xlink:href="#DejaVuSans-43" transform="translate(244.433594 0)"/>
      <use xlink:href="#DejaVuSans-79" transform="translate(314.257812 0)"/>
      <use xlink:href="#DejaVuSans-63" transform="translate(373.4375 0)"/>
      <use xlink:href="#DejaVuSans-6c" transform="translate(428.417969 0)"/>
      <use xlink:href="#DejaVuSans-65" transform="translate(456.201172 0)"/>
      <use xlink:href="#DejaVuSans-20" transform="translate(517.724609 0)"/>
      <use xlink:href="#DejaVuSans-46" transform="translate(549.511719 0)"/>
      <use xlink:href="#DejaVuSans-49" transform="translate(607.03125 0)"/>
      <use xlink:href="#DejaVuSans-52" transform="translate(636.523438 0)"/>
     </g>
    </g>
    <g id="line2d_30">
     <path d="M 66.528957 292.764643 
L 76.528957 292.764643 
L 86.528957 292.764643 
" style="fill: none; stroke: #ff0000; stroke-width: 2; stroke-linecap: square"/>
    </g>
    <g id="text_17">
     <!-- Golden model -->
     <g transform="translate(94.528957 296.264643) scale(0.1 -0.1)">
      <use xlink:href="#DejaVuSans-47"/>
      <use xlink:href="#DejaVuSans-6f" transform="translate(77.490234 0)"/>
      <use xlink:href="#DejaVuSans-6c" transform="translate(138.671875 0)"/>
      <use xlink:href="#DejaVuSans-64" transform="translate(166.455078 0)"/>
      <use xlink:href="#DejaVuSans-65" transform="translate(229.931641 0)"/>
      <use xlink:href="#DejaVuSans-6e" transform="translate(291.455078 0)"/>
      <use xlink:href="#DejaVuSans-20" transform="translate(354.833984 0)"/>
      <use xlink:href="#DejaVuSans-6d" transform="translate(386.621094 0)"/>
      <use xlink:href="#DejaVuSans-6f" transform="translate(484.033203 0)"/>
      <use xlink:href="#DejaVuSans-64" transform="translate(545.214844 0)"/>
      <use xlink:href="#DejaVuSans-65" transform="translate(608.691406 0)"/>
      <use xlink:href="#DejaVuSans-6c" transform="translate(670.214844 0)"/>
     </g>
    </g>
   </g>
  </g>
 </g>
 <defs>
  <clipPath id="pdeef8df9cf">
   <rect x="57.528957" y="41.439685" width="356.679531" height="265.904646"/>
  </clipPath>
 </defs>
</svg>
