<?xml version="1.0" encoding="utf-8" standalone="no"?>
<!DOCTYPE svg PUBLIC "-//W3C//DTD SVG 1.1//EN"
  "http://www.w3.org/Graphics/SVG/1.1/DTD/svg11.dtd">
<svg xmlns:xlink="http://www.w3.org/1999/xlink" width="247.100154pt" height="124.829097pt" viewBox="0 0 247.100154 124.829097" xmlns="http://www.w3.org/2000/svg" version="1.1">
 <metadata>
  <rdf:RDF xmlns:dc="http://purl.org/dc/elements/1.1/" xmlns:cc="http://creativecommons.org/ns#" xmlns:rdf="http://www.w3.org/1999/02/22-rdf-syntax-ns#">
   <cc:Work>
    <dc:type rdf:resource="http://purl.org/dc/dcmitype/StillImage"/>
    <dc:date>2026-06-10T20:20:30.565211</dc:date>
    <dc:format>image/svg+xml</dc:format>
    <dc:creator>
     <cc:Agent>
      <dc:title>Matplotlib v3.10.8, https://matplotlib.org/</dc:title>
     </cc:Agent>
    </dc:creator>
   </cc:Work>
  </rdf:RDF>
 </metadata>
 <defs>
  <style type="text/css">*{stroke-linejoin: round; stroke-linecap: butt}</style>
 </defs>
 <g id="figure_1">
  <g id="patch_1">
   <path d="M 0 124.829097 
L 247.100154 124.829097 
L 247.100154 0 
L 0 0 
z
" style="fill: #ffffff"/>
  </g>
  <g id="axes_1">
   <g id="patch_2">
    <path d="M 41.04775 96.177428 
L 244.152032 96.177428 
L 244.152032 13.474578 
L 41.04775 13.474578 
z
" style="fill: #ffffff"/>
   </g>
   <g id="matplotlib.axis_1">
    <g id="xtick_1">
     <g id="line2d_1">
      <path d="M 43.429361 96.177428 
L 43.429361 13.474578 
" clip-path="url(#p4e3e49245a)" style="fill: none; stroke: #cccccc; stroke-width: 0.8; stroke-linecap: square"/>
     </g>
     <g id="line2d_2">
      <defs>
       <path id="mf93fd740f9" d="M 0 0 
L 0 3.5 
" style="stroke: #000000; stroke-width: 0.8"/>
      </defs>
      <g>
       <use xlink:href="#mf93fd740f9" x="43.429361" y="96.177428" style="stroke: #000000; stroke-width: 0.8"/>
      </g>
     </g>
     <g id="text_1">
      <!-- $\mathdefault{−60}$ -->
      <g transform="translate(35.462783 109.256545) scale(0.09 -0.09)">
       <defs>
        <path id="CMSY10-0" d="M 4218 1472 
C 4326 1472 4442 1472 4442 1600 
C 4442 1728 4326 1728 4218 1728 
L 755 1728 
C 646 1728 531 1728 531 1600 
C 531 1472 646 1472 755 1472 
L 4218 1472 
z
" transform="scale(0.015625)"/>
        <path id="NimbusRomNo9L-Regu-36" d="M 2854 4391 
C 2125 4327 1754 4205 1286 3879 
C 595 3386 218 2656 218 1802 
C 218 1248 390 688 666 370 
C 909 89 1254 -64 1651 -64 
C 2445 -64 2995 541 2995 1421 
C 2995 2236 2528 2752 1792 2752 
C 1510 2752 1376 2707 973 2464 
C 1146 3431 1862 4122 2867 4288 
L 2854 4391 
z
M 1549 2458 
C 2099 2458 2419 2000 2419 1204 
C 2419 504 2170 116 1722 116 
C 1158 116 813 714 813 1700 
C 813 2025 864 2203 992 2299 
C 1126 2400 1325 2458 1549 2458 
z
" transform="scale(0.015625)"/>
        <path id="NimbusRomNo9L-Regu-30" d="M 1626 4352 
C 1274 4352 1005 4244 768 4020 
C 397 3661 154 2925 154 2176 
C 154 1479 365 730 666 372 
C 902 90 1229 -64 1600 -64 
C 1926 -64 2202 45 2432 269 
C 2803 621 3046 1364 3046 2138 
C 3046 3450 2464 4352 1626 4352 
z
M 1606 4186 
C 2144 4186 2432 3463 2432 2125 
C 2432 788 2150 103 1600 103 
C 1050 103 768 788 768 2119 
C 768 3476 1056 4186 1606 4186 
z
" transform="scale(0.015625)"/>
       </defs>
       <use xlink:href="#CMSY10-0" transform="scale(0.996264)"/>
       <use xlink:href="#NimbusRomNo9L-Regu-36" transform="translate(77.408707 0) scale(0.996264)"/>
       <use xlink:href="#NimbusRomNo9L-Regu-30" transform="translate(127.221908 0) scale(0.996264)"/>
      </g>
     </g>
    </g>
    <g id="xtick_2">
     <g id="line2d_3">
      <path d="M 76.507295 96.177428 
L 76.507295 13.474578 
" clip-path="url(#p4e3e49245a)" style="fill: none; stroke: #cccccc; stroke-width: 0.8; stroke-linecap: square"/>
     </g>
     <g id="line2d_4">
      <g>
       <use xlink:href="#mf93fd740f9" x="76.507295" y="96.177428" style="stroke: #000000; stroke-width: 0.8"/>
      </g>
     </g>
     <g id="text_2">
      <!-- $\mathdefault{−40}$ -->
      <g transform="translate(68.540717 109.256545) scale(0.09 -0.09)">
       <defs>
        <path id="NimbusRomNo9L-Regu-34" d="M 3021 1497 
L 2368 1497 
L 2368 4352 
L 2086 4352 
L 77 1497 
L 77 1088 
L 1875 1088 
L 1875 32 
L 2368 32 
L 2368 1088 
L 3021 1088 
L 3021 1497 
z
M 1869 1497 
L 333 1497 
L 1869 3698 
L 1869 1497 
z
" transform="scale(0.015625)"/>
       </defs>
       <use xlink:href="#CMSY10-0" transform="scale(0.996264)"/>
       <use xlink:href="#NimbusRomNo9L-Regu-34" transform="translate(77.408707 0) scale(0.996264)"/>
       <use xlink:href="#NimbusRomNo9L-Regu-30" transform="translate(127.221908 0) scale(0.996264)"/>
      </g>
     </g>
    </g>
    <g id="xtick_3">
     <g id="line2d_5">
      <path d="M 109.585229 96.177428 
L 109.585229 13.474578 
" clip-path="url(#p4e3e49245a)" style="fill: none; stroke: #cccccc; stroke-width: 0.8; stroke-linecap: square"/>
     </g>
     <g id="line2d_6">
      <g>
       <use xlink:href="#mf93fd740f9" x="109.585229" y="96.177428" style="stroke: #000000; stroke-width: 0.8"/>
      </g>
     </g>
     <g id="text_3">
      <!-- $\mathdefault{−20}$ -->
      <g transform="translate(101.618652 109.256545) scale(0.09 -0.09)">
       <defs>
        <path id="NimbusRomNo9L-Regu-32" d="M 3040 875 
L 2957 907 
C 2720 544 2637 486 2349 486 
L 819 486 
L 1894 1609 
C 2464 2202 2714 2687 2714 3185 
C 2714 3823 2195 4313 1530 4313 
C 1178 4313 845 4173 608 3918 
C 403 3700 307 3496 198 3043 
L 333 3011 
C 589 3636 819 3840 1261 3840 
C 1798 3840 2163 3476 2163 2940 
C 2163 2443 1869 1850 1331 1282 
L 192 77 
L 192 0 
L 2688 0 
L 3040 875 
z
" transform="scale(0.015625)"/>
       </defs>
       <use xlink:href="#CMSY10-0" transform="scale(0.996264)"/>
       <use xlink:href="#NimbusRomNo9L-Regu-32" transform="translate(77.408707 0) scale(0.996264)"/>
       <use xlink:href="#NimbusRomNo9L-Regu-30" transform="translate(127.221908 0) scale(0.996264)"/>
      </g>
     </g>
    </g>
    <g id="xtick_4">
     <g id="line2d_7">
      <path d="M 142.663163 96.177428 
L 142.663163 13.474578 
" clip-path="url(#p4e3e49245a)" style="fill: none; stroke: #cccccc; stroke-width: 0.8; stroke-linecap: square"/>
     </g>
     <g id="line2d_8">
      <g>
       <use xlink:href="#mf93fd740f9" x="142.663163" y="96.177428" style="stroke: #000000; stroke-width: 0.8"/>
      </g>
     </g>
     <g id="text_4">
      <!-- $\mathdefault{0}$ -->
      <g transform="translate(140.421569 109.256545) scale(0.09 -0.09)">
       <use xlink:href="#NimbusRomNo9L-Regu-30" transform="scale(0.996264)"/>
      </g>
     </g>
    </g>
    <g id="xtick_5">
     <g id="line2d_9">
      <path d="M 175.741097 96.177428 
L 175.741097 13.474578 
" clip-path="url(#p4e3e49245a)" style="fill: none; stroke: #cccccc; stroke-width: 0.8; stroke-linecap: square"/>
     </g>
     <g id="line2d_10">
      <g>
       <use xlink:href="#mf93fd740f9" x="175.741097" y="96.177428" style="stroke: #000000; stroke-width: 0.8"/>
      </g>
     </g>
     <g id="text_5">
      <!-- $\mathdefault{20}$ -->
      <g transform="translate(171.257909 109.256545) scale(0.09 -0.09)">
       <use xlink:href="#NimbusRomNo9L-Regu-32" transform="scale(0.996264)"/>
       <use xlink:href="#NimbusRomNo9L-Regu-30" transform="translate(49.8132 0) scale(0.996264)"/>
      </g>
     </g>
    </g>
    <g id="xtick_6">
     <g id="line2d_11">
      <path d="M 208.819031 96.177428 
L 208.819031 13.474578 
" clip-path="url(#p4e3e49245a)" style="fill: none; stroke: #cccccc; stroke-width: 0.8; stroke-linecap: square"/>
     </g>
     <g id="line2d_12">
      <g>
       <use xlink:href="#mf93fd740f9" x="208.819031" y="96.177428" style="stroke: #000000; stroke-width: 0.8"/>
      </g>
     </g>
     <g id="text_6">
      <!-- $\mathdefault{40}$ -->
      <g transform="translate(204.335843 109.256545) scale(0.09 -0.09)">
       <use xlink:href="#NimbusRomNo9L-Regu-34" transform="scale(0.996264)"/>
       <use xlink:href="#NimbusRomNo9L-Regu-30" transform="translate(49.8132 0) scale(0.996264)"/>
      </g>
     </g>
    </g>
    <g id="xtick_7">
     <g id="line2d_13">
      <path d="M 241.896966 96.177428 
L 241.896966 13.474578 
" clip-path="url(#p4e3e49245a)" style="fill: none; stroke: #cccccc; stroke-width: 0.8; stroke-linecap: square"/>
     </g>
     <g id="line2d_14">
      <g>
       <use xlink:href="#mf93fd740f9" x="241.896966" y="96.177428" style="stroke: #000000; stroke-width: 0.8"/>
      </g>
     </g>
     <g id="text_7">
      <!-- $\mathdefault{60}$ -->
      <g transform="translate(237.413777 109.256545) scale(0.09 -0.09)">
       <use xlink:href="#NimbusRomNo9L-Regu-36" transform="scale(0.996264)"/>
       <use xlink:href="#NimbusRomNo9L-Regu-30" transform="translate(49.8132 0) scale(0.996264)"/>
      </g>
     </g>
    </g>
    <g id="text_8">
     <!-- Frequency [MHz] -->
     <g transform="translate(106.84919 121.952268) scale(0.1 -0.1)">
      <defs>
       <path id="NimbusRomNo9L-Regu-46" d="M 3066 1472 
L 3066 2957 
L 2918 2957 
C 2842 2461 2726 2368 2214 2368 
L 1286 2368 
L 1286 3766 
C 1286 3943 1318 3981 1491 3981 
L 2362 3981 
C 3085 3981 3226 3886 3334 3314 
L 3494 3314 
L 3475 4224 
L 77 4224 
L 77 4102 
C 550 4064 634 3974 634 3525 
L 634 749 
C 634 217 563 134 77 134 
L 77 0 
L 1869 0 
L 1869 134 
C 1376 134 1286 225 1286 692 
L 1286 2106 
L 2214 2106 
C 2733 2106 2842 2007 2918 1472 
L 3066 1472 
z
" transform="scale(0.015625)"/>
       <path id="NimbusRomNo9L-Regu-72" d="M 45 2496 
C 134 2515 192 2522 269 2522 
C 429 2522 486 2419 486 2138 
L 486 538 
C 486 218 442 173 32 96 
L 32 0 
L 1568 0 
L 1568 102 
C 1133 102 1024 199 1024 565 
L 1024 2013 
C 1024 2219 1299 2541 1472 2541 
C 1510 2541 1568 2509 1638 2445 
C 1741 2355 1811 2317 1894 2317 
C 2048 2317 2144 2426 2144 2605 
C 2144 2816 2010 2944 1792 2944 
C 1523 2944 1338 2797 1024 2343 
L 1024 2931 
L 992 2944 
C 653 2803 422 2721 45 2599 
L 45 2496 
z
" transform="scale(0.015625)"/>
       <path id="NimbusRomNo9L-Regu-65" d="M 2611 1053 
C 2304 564 2029 378 1619 378 
C 1254 378 979 564 794 930 
C 678 1174 634 1386 621 1779 
L 2592 1779 
C 2541 2193 2477 2377 2317 2581 
C 2125 2811 1830 2944 1498 2944 
C 1178 2944 877 2829 634 2611 
C 333 2349 160 1894 160 1370 
C 160 486 621 -64 1357 -64 
C 1965 -64 2445 315 2714 1008 
L 2611 1053 
z
M 634 1984 
C 704 2479 922 2714 1312 2714 
C 1702 2714 1856 2535 1939 1984 
L 634 1984 
z
" transform="scale(0.015625)"/>
       <path id="NimbusRomNo9L-Regu-71" d="M 2304 2701 
C 2010 2874 1818 2931 1568 2931 
C 768 2931 154 2218 154 1300 
C 154 498 576 -70 1178 -70 
C 1549 -70 1901 96 2182 403 
L 2182 -824 
C 2182 -1188 2067 -1286 1613 -1286 
L 1613 -1408 
L 3123 -1408 
L 3123 -1318 
C 2771 -1241 2720 -1190 2720 -921 
L 2720 2906 
L 2650 2906 
L 2304 2701 
z
M 2182 804 
C 2182 651 2157 569 2093 518 
C 1952 397 1741 320 1542 320 
C 1344 320 1171 384 1043 511 
C 838 696 704 1110 704 1530 
C 704 2282 1043 2752 1587 2752 
C 1984 2752 2182 2542 2182 2115 
L 2182 804 
z
" transform="scale(0.015625)"/>
       <path id="NimbusRomNo9L-Regu-75" d="M 3066 320 
L 3034 320 
C 2739 320 2669 390 2669 685 
L 2669 2880 
L 1658 2880 
L 1658 2758 
C 2054 2758 2131 2694 2131 2375 
L 2131 875 
C 2131 697 2099 607 2010 537 
C 1837 397 1638 320 1446 320 
C 1197 320 992 537 992 805 
L 992 2880 
L 58 2880 
L 58 2778 
C 365 2778 454 2682 454 2387 
L 454 770 
C 454 263 762 -64 1229 -64 
C 1466 -64 1715 38 1888 211 
L 2163 486 
L 2163 -45 
L 2189 -58 
C 2509 70 2739 141 3066 230 
L 3066 320 
z
" transform="scale(0.015625)"/>
       <path id="NimbusRomNo9L-Regu-6e" d="M 102 2579 
C 141 2598 205 2605 275 2605 
C 454 2605 512 2509 512 2195 
L 512 608 
C 512 243 442 154 115 128 
L 115 32 
L 1472 32 
L 1472 128 
C 1146 154 1050 230 1050 461 
L 1050 2259 
C 1357 2547 1498 2624 1709 2624 
C 2022 2624 2176 2426 2176 2003 
L 2176 666 
C 2176 262 2093 154 1773 128 
L 1773 32 
L 3104 32 
L 3104 128 
C 2790 160 2714 237 2714 550 
L 2714 2016 
C 2714 2618 2432 2976 1958 2976 
C 1664 2976 1466 2867 1030 2458 
L 1030 2963 
L 986 2976 
C 672 2861 454 2790 102 2688 
L 102 2579 
z
" transform="scale(0.015625)"/>
       <path id="NimbusRomNo9L-Regu-63" d="M 2547 998 
C 2240 550 2010 397 1645 397 
C 1062 397 653 909 653 1645 
C 653 2304 1005 2758 1523 2758 
C 1754 2758 1837 2688 1901 2451 
L 1939 2310 
C 1990 2131 2106 2016 2240 2016 
C 2406 2016 2547 2138 2547 2285 
C 2547 2643 2099 2944 1562 2944 
C 1248 2944 922 2816 659 2586 
C 339 2304 160 1869 160 1363 
C 160 531 666 -64 1376 -64 
C 1664 -64 1920 38 2150 237 
C 2323 390 2445 563 2637 941 
L 2547 998 
z
" transform="scale(0.015625)"/>
       <path id="NimbusRomNo9L-Regu-79" d="M 3040 2880 
L 2176 2880 
L 2176 2784 
C 2381 2784 2483 2726 2483 2623 
C 2483 2597 2477 2559 2458 2514 
L 1837 742 
L 1101 2377 
C 1062 2468 1037 2552 1037 2622 
C 1037 2739 1133 2784 1408 2784 
L 1408 2880 
L 90 2880 
L 90 2790 
C 256 2765 365 2694 416 2585 
L 1146 1005 
L 1165 953 
L 1261 761 
C 1440 440 1542 209 1542 112 
C 1542 16 1395 -389 1286 -582 
C 1197 -749 1056 -871 966 -871 
C 928 -871 870 -858 806 -826 
C 685 -781 576 -755 467 -755 
C 320 -755 192 -883 192 -1037 
C 192 -1248 397 -1408 666 -1408 
C 1094 -1408 1402 -1049 1747 -124 
L 2733 2495 
C 2816 2701 2886 2765 3040 2784 
L 3040 2880 
z
" transform="scale(0.015625)"/>
       <path id="NimbusRomNo9L-Regu-5b" d="M 1914 -864 
L 1363 -864 
C 1152 -864 1050 -756 1050 -531 
L 1050 3781 
C 1050 3981 1133 4064 1338 4064 
L 1914 4064 
L 1914 4224 
L 563 4224 
L 563 -1024 
L 1914 -1024 
L 1914 -864 
z
" transform="scale(0.015625)"/>
       <path id="NimbusRomNo9L-Regu-4d" d="M 4314 3667 
L 4314 751 
C 4314 217 4237 134 3731 134 
L 3731 0 
L 5523 0 
L 5523 134 
C 5056 134 4966 223 4966 681 
L 4966 3536 
C 4966 3993 5050 4077 5523 4115 
L 5523 4237 
L 4250 4237 
L 2835 1004 
L 1357 4237 
L 90 4237 
L 90 4096 
C 614 4096 698 4019 698 3550 
L 698 943 
C 698 282 608 159 77 121 
L 77 0 
L 1581 0 
L 1581 134 
C 1088 134 979 282 979 931 
L 979 3520 
L 2586 0 
L 2675 0 
L 4314 3667 
z
" transform="scale(0.015625)"/>
       <path id="NimbusRomNo9L-Regu-48" d="M 1338 2304 
L 1338 3533 
C 1338 3990 1408 4059 1901 4104 
L 1901 4224 
L 122 4224 
L 122 4104 
C 614 4059 685 3989 685 3527 
L 685 749 
C 685 210 621 134 122 134 
L 122 0 
L 1901 0 
L 1901 121 
C 1421 159 1338 242 1338 699 
L 1338 2022 
L 3277 2022 
L 3277 757 
C 3277 211 3213 134 2714 134 
L 2714 0 
L 4493 0 
L 4493 121 
C 4013 159 3930 242 3930 696 
L 3930 3529 
C 3930 3989 4000 4059 4493 4104 
L 4493 4224 
L 2714 4224 
L 2714 4104 
C 3206 4059 3277 3990 3277 3533 
L 3277 2304 
L 1338 2304 
z
" transform="scale(0.015625)"/>
       <path id="NimbusRomNo9L-Regu-7a" d="M 2675 864 
L 2560 890 
C 2496 570 2458 467 2374 358 
C 2285 250 2067 192 1741 192 
L 858 192 
L 2579 2784 
L 2579 2880 
L 358 2880 
L 339 2125 
L 454 2125 
C 512 2592 608 2688 992 2688 
L 1875 2688 
L 173 96 
L 173 0 
L 2586 0 
L 2675 864 
z
" transform="scale(0.015625)"/>
       <path id="NimbusRomNo9L-Regu-5d" d="M 218 -864 
L 218 -1024 
L 1568 -1024 
L 1568 4224 
L 218 4224 
L 218 4064 
L 768 4064 
C 979 4064 1082 3955 1082 3730 
L 1082 -582 
C 1082 -781 992 -864 794 -864 
L 218 -864 
z
" transform="scale(0.015625)"/>
      </defs>
      <use xlink:href="#NimbusRomNo9L-Regu-46" transform="scale(0.996264)"/>
      <use xlink:href="#NimbusRomNo9L-Regu-72" transform="translate(55.391677 0) scale(0.996264)"/>
      <use xlink:href="#NimbusRomNo9L-Regu-65" transform="translate(88.566907 0) scale(0.996264)"/>
      <use xlink:href="#NimbusRomNo9L-Regu-71" transform="translate(132.800475 0) scale(0.996264)"/>
      <use xlink:href="#NimbusRomNo9L-Regu-75" transform="translate(182.613676 0) scale(0.996264)"/>
      <use xlink:href="#NimbusRomNo9L-Regu-65" transform="translate(232.426876 0) scale(0.996264)"/>
      <use xlink:href="#NimbusRomNo9L-Regu-6e" transform="translate(276.660445 0) scale(0.996264)"/>
      <use xlink:href="#NimbusRomNo9L-Regu-63" transform="translate(326.473646 0) scale(0.996264)"/>
      <use xlink:href="#NimbusRomNo9L-Regu-79" transform="translate(369.213822 0) scale(0.996264)"/>
      <use xlink:href="#NimbusRomNo9L-Regu-5b" transform="translate(443.933622 0) scale(0.996264)"/>
      <use xlink:href="#NimbusRomNo9L-Regu-4d" transform="translate(477.108852 0) scale(0.996264)"/>
      <use xlink:href="#NimbusRomNo9L-Regu-48" transform="translate(565.675759 0) scale(0.996264)"/>
      <use xlink:href="#NimbusRomNo9L-Regu-7a" transform="translate(637.605744 0) scale(0.996264)"/>
      <use xlink:href="#NimbusRomNo9L-Regu-5d" transform="translate(681.839312 0) scale(0.996264)"/>
     </g>
    </g>
   </g>
   <g id="matplotlib.axis_2">
    <g id="ytick_1">
     <g id="line2d_15">
      <path d="M 41.04775 89.285524 
L 244.152032 89.285524 
" clip-path="url(#p4e3e49245a)" style="fill: none; stroke: #cccccc; stroke-width: 0.8; stroke-linecap: square"/>
     </g>
     <g id="line2d_16">
      <defs>
       <path id="m9148dd928b" d="M 0 0 
L -3.5 0 
" style="stroke: #000000; stroke-width: 0.8"/>
      </defs>
      <g>
       <use xlink:href="#m9148dd928b" x="41.04775" y="89.285524" style="stroke: #000000; stroke-width: 0.8"/>
      </g>
     </g>
     <g id="text_9">
      <!-- $\mathdefault{−100}$ -->
      <g transform="translate(13.631406 92.325082) scale(0.09 -0.09)">
       <defs>
        <path id="NimbusRomNo9L-Regu-31" d="M 1862 4339 
L 710 3757 
L 710 3667 
C 787 3699 858 3725 883 3738 
C 998 3783 1107 3808 1171 3808 
C 1306 3808 1363 3711 1363 3505 
L 1363 592 
C 1363 379 1312 232 1210 173 
C 1114 116 1024 96 755 96 
L 755 0 
L 2522 0 
L 2522 96 
C 2016 96 1914 160 1914 470 
L 1914 4327 
L 1862 4339 
z
" transform="scale(0.015625)"/>
       </defs>
       <use xlink:href="#CMSY10-0" transform="scale(0.996264)"/>
       <use xlink:href="#NimbusRomNo9L-Regu-31" transform="translate(77.408707 0) scale(0.996264)"/>
       <use xlink:href="#NimbusRomNo9L-Regu-30" transform="translate(127.221908 0) scale(0.996264)"/>
       <use xlink:href="#NimbusRomNo9L-Regu-30" transform="translate(177.035108 0) scale(0.996264)"/>
      </g>
     </g>
    </g>
    <g id="ytick_2">
     <g id="line2d_17">
      <path d="M 41.04775 54.826003 
L 244.152032 54.826003 
" clip-path="url(#p4e3e49245a)" style="fill: none; stroke: #cccccc; stroke-width: 0.8; stroke-linecap: square"/>
     </g>
     <g id="line2d_18">
      <g>
       <use xlink:href="#m9148dd928b" x="41.04775" y="54.826003" style="stroke: #000000; stroke-width: 0.8"/>
      </g>
     </g>
     <g id="text_10">
      <!-- $\mathdefault{−50}$ -->
      <g transform="translate(18.114594 57.865561) scale(0.09 -0.09)">
       <defs>
        <path id="NimbusRomNo9L-Regu-35" d="M 1158 3776 
L 2413 3776 
C 2515 3776 2541 3789 2560 3834 
L 2803 4403 
L 2746 4448 
C 2650 4314 2586 4282 2451 4282 
L 1114 4282 
L 416 2759 
C 410 2746 410 2740 410 2727 
C 410 2695 435 2676 486 2676 
C 691 2676 947 2631 1210 2547 
C 1946 2309 2285 1910 2285 1274 
C 2285 656 1894 173 1395 173 
C 1267 173 1158 218 966 360 
C 762 508 614 572 480 572 
C 294 572 205 495 205 334 
C 205 90 506 -64 986 -64 
C 1523 -64 1984 110 2304 438 
C 2598 728 2733 1094 2733 1583 
C 2733 2046 2611 2342 2291 2663 
C 2010 2947 1645 3094 890 3229 
L 1158 3776 
z
" transform="scale(0.015625)"/>
       </defs>
       <use xlink:href="#CMSY10-0" transform="scale(0.996264)"/>
       <use xlink:href="#NimbusRomNo9L-Regu-35" transform="translate(77.408707 0) scale(0.996264)"/>
       <use xlink:href="#NimbusRomNo9L-Regu-30" transform="translate(127.221908 0) scale(0.996264)"/>
      </g>
     </g>
    </g>
    <g id="ytick_3">
     <g id="line2d_19">
      <path d="M 41.04775 20.366482 
L 244.152032 20.366482 
" clip-path="url(#p4e3e49245a)" style="fill: none; stroke: #cccccc; stroke-width: 0.8; stroke-linecap: square"/>
     </g>
     <g id="line2d_20">
      <g>
       <use xlink:href="#m9148dd928b" x="41.04775" y="20.366482" style="stroke: #000000; stroke-width: 0.8"/>
      </g>
     </g>
     <g id="text_11">
      <!-- $\mathdefault{0}$ -->
      <g transform="translate(29.564562 23.40604) scale(0.09 -0.09)">
       <use xlink:href="#NimbusRomNo9L-Regu-30" transform="scale(0.996264)"/>
      </g>
     </g>
    </g>
    <g id="text_12">
     <!-- PSD [dB] -->
     <g transform="translate(7.474578 74.337673) rotate(-90) scale(0.1 -0.1)">
      <defs>
       <path id="NimbusRomNo9L-Regu-50" d="M 1293 1875 
C 1459 1856 1568 1856 1734 1856 
C 2234 1856 2579 1919 2854 2072 
C 3238 2274 3469 2660 3469 3078 
C 3469 3344 3379 3584 3206 3768 
C 2950 4047 2394 4224 1792 4224 
L 102 4224 
L 102 4102 
C 576 4051 640 3987 640 3528 
L 640 766 
C 640 230 589 166 102 122 
L 102 0 
L 1894 0 
L 1894 128 
C 1389 128 1293 218 1293 693 
L 1293 1875 
z
M 1293 3772 
C 1293 3943 1338 3987 1510 3987 
C 2374 3987 2771 3690 2771 3040 
C 2771 2428 2394 2112 1658 2112 
C 1530 2112 1440 2119 1293 2131 
L 1293 3772 
z
" transform="scale(0.015625)"/>
       <path id="NimbusRomNo9L-Regu-53" d="M 2861 4352 
L 2726 4352 
C 2701 4205 2630 4135 2522 4135 
C 2458 4135 2349 4160 2240 4212 
C 2003 4301 1766 4352 1562 4352 
C 1286 4352 1005 4244 794 4058 
C 570 3859 454 3590 454 3256 
C 454 2743 736 2385 1453 2006 
C 1914 1763 2246 1499 2406 1256 
C 2464 1173 2496 1038 2496 884 
C 2496 454 2176 160 1709 160 
C 1139 160 736 513 416 1296 
L 269 1296 
L 461 -64 
L 602 -64 
C 608 57 685 147 781 147 
C 851 147 960 122 1082 79 
C 1325 -14 1581 -64 1837 -64 
C 2573 -64 3142 442 3142 1101 
C 3142 1626 2790 2042 1946 2496 
C 1274 2868 1005 3149 1005 3495 
C 1005 3847 1274 4090 1670 4090 
C 1958 4090 2227 3968 2451 3738 
C 2650 3533 2739 3367 2842 2989 
L 3002 2989 
L 2861 4352 
z
" transform="scale(0.015625)"/>
       <path id="NimbusRomNo9L-Regu-44" d="M 666 679 
C 666 217 589 134 102 134 
L 102 0 
L 1920 0 
C 2662 0 3334 210 3731 568 
C 4147 944 4384 1512 4384 2131 
C 4384 2706 4192 3203 3840 3554 
C 3405 3994 2707 4224 1830 4224 
L 102 4224 
L 102 4102 
C 608 4057 666 4000 666 3525 
L 666 679 
z
M 1318 3738 
C 1318 3936 1389 3987 1651 3987 
C 2202 3987 2618 3885 2925 3668 
C 3424 3323 3686 2775 3686 2087 
C 3686 1334 3424 798 2906 498 
C 2579 314 2208 237 1651 237 
C 1395 237 1318 294 1318 498 
L 1318 3738 
z
" transform="scale(0.015625)"/>
       <path id="NimbusRomNo9L-Regu-64" d="M 2202 -64 
L 3142 269 
L 3142 365 
C 3027 365 3014 365 2995 365 
C 2765 365 2714 435 2714 731 
L 2714 4364 
L 2682 4377 
C 2374 4268 2150 4204 1741 4096 
L 1741 3994 
C 1792 4000 1830 4000 1882 4000 
C 2118 4000 2176 3936 2176 3672 
L 2176 2669 
C 1933 2874 1760 2944 1504 2944 
C 768 2944 173 2221 173 1312 
C 173 493 653 -64 1357 -64 
C 1715 -64 1958 64 2176 365 
L 2176 -45 
L 2202 -64 
z
M 2176 653 
C 2176 608 2131 531 2067 461 
C 1952 333 1792 269 1606 269 
C 1075 269 723 781 723 1568 
C 723 2291 1037 2765 1523 2765 
C 1862 2765 2176 2464 2176 2125 
L 2176 653 
z
" transform="scale(0.015625)"/>
       <path id="NimbusRomNo9L-Regu-42" d="M 109 4237 
L 109 4096 
C 646 4096 723 4026 723 3548 
L 723 689 
C 723 212 640 128 109 128 
L 109 0 
L 2246 0 
C 2746 0 3200 136 3437 356 
C 3667 564 3795 855 3795 1165 
C 3795 1451 3680 1710 3482 1897 
C 3290 2072 3117 2150 2701 2253 
C 3034 2335 3168 2398 3322 2531 
C 3482 2671 3578 2903 3578 3163 
C 3578 3871 3008 4237 1901 4237 
L 109 4237 
z
M 1376 2112 
C 1997 2112 2291 2080 2522 1982 
C 2886 1827 3059 1568 3059 1159 
C 3059 809 2925 555 2669 406 
C 2464 290 2202 238 1779 238 
C 1466 238 1376 296 1376 504 
L 1376 2112 
z
M 1376 2368 
L 1376 3812 
C 1376 3944 1421 4001 1517 4001 
L 1798 4001 
C 2534 4001 2925 3699 2925 3137 
C 2925 2646 2586 2368 1984 2368 
L 1376 2368 
z
" transform="scale(0.015625)"/>
      </defs>
      <use xlink:href="#NimbusRomNo9L-Regu-50" transform="scale(0.996264)"/>
      <use xlink:href="#NimbusRomNo9L-Regu-53" transform="translate(55.391677 0) scale(0.996264)"/>
      <use xlink:href="#NimbusRomNo9L-Regu-44" transform="translate(110.783354 0) scale(0.996264)"/>
      <use xlink:href="#NimbusRomNo9L-Regu-5b" transform="translate(207.619939 0) scale(0.996264)"/>
      <use xlink:href="#NimbusRomNo9L-Regu-64" transform="translate(240.795169 0) scale(0.996264)"/>
      <use xlink:href="#NimbusRomNo9L-Regu-42" transform="translate(290.608369 0) scale(0.996264)"/>
      <use xlink:href="#NimbusRomNo9L-Regu-5d" transform="translate(357.0584 0) scale(0.996264)"/>
     </g>
    </g>
   </g>
   <g id="line2d_21">
    <path d="M 41.04775 77.108607 
L 41.174295 76.969951 
L 41.300839 77.048011 
L 41.553929 76.96598 
L 41.680473 77.061049 
L 41.807018 76.961211 
L 41.933563 77.105169 
L 42.060108 76.982536 
L 42.313197 77.006621 
L 42.439742 76.946963 
L 42.566287 77.068344 
L 42.692831 76.95738 
L 42.819376 77.093859 
L 43.072465 77.009621 
L 43.831734 77.015472 
L 44.211368 76.91874 
L 44.337913 77.061865 
L 44.464457 76.962762 
L 44.717547 77.032659 
L 44.844092 76.967734 
L 44.970636 77.047231 
L 45.097181 76.910929 
L 45.223726 77.048111 
L 45.35027 76.970876 
L 45.60336 77.048278 
L 45.729905 76.94902 
L 45.856449 77.049521 
L 45.982994 76.907964 
L 46.109539 77.027738 
L 46.362628 77.000327 
L 46.489173 77.060065 
L 46.615718 76.934068 
L 46.742262 77.0444 
L 46.868807 76.91001 
L 47.121897 76.992331 
L 47.248441 76.972929 
L 47.374986 77.066437 
L 47.501531 76.923624 
L 47.628075 77.032221 
L 47.75462 76.915569 
L 48.00771 77.001683 
L 48.134254 76.947299 
L 48.260799 77.066389 
L 48.387344 76.917688 
L 48.513889 77.013464 
L 48.766978 76.941872 
L 48.893523 77.008099 
L 49.020067 76.924689 
L 49.146612 77.059286 
L 49.273157 76.916218 
L 49.399702 76.989034 
L 49.652791 76.910356 
L 49.779336 77.010146 
L 49.905881 76.906064 
L 50.032425 77.044517 
L 50.15897 76.918808 
L 50.412059 76.941967 
L 50.538604 76.880529 
L 50.665149 77.005844 
L 50.791694 76.892284 
L 50.918238 77.022109 
L 51.171328 76.928457 
L 51.297872 76.948426 
L 51.424417 76.853872 
L 51.550962 76.994429 
L 51.677507 76.882941 
L 51.804051 76.993683 
L 52.057141 76.896414 
L 52.183686 76.950729 
L 52.31023 76.831024 
L 52.436775 76.975765 
L 52.56332 76.877507 
L 52.816409 76.937881 
L 52.942954 76.8652 
L 53.069499 76.947647 
L 53.196043 76.812628 
L 53.322588 76.950141 
L 53.575678 76.923822 
L 53.702222 76.942733 
L 53.828767 76.836069 
L 53.955312 76.937981 
L 54.081856 76.799064 
L 54.208401 76.917921 
L 54.461491 76.885334 
L 54.588035 76.943489 
L 54.71458 76.810828 
L 54.841125 76.920822 
L 54.967669 76.790372 
L 55.220759 76.875258 
L 55.347304 76.847483 
L 55.473848 76.938664 
L 55.600393 76.790158 
L 55.726938 76.896623 
L 55.853483 76.785032 
L 56.106572 76.873435 
L 56.233117 76.811508 
L 56.359661 76.927227 
L 56.486206 76.773953 
L 56.612751 76.865858 
L 56.86584 76.79717 
L 56.992385 76.868374 
L 57.11893 76.778627 
L 57.245475 76.90862 
L 57.372019 76.762147 
L 57.625109 76.779846 
L 57.751653 76.754336 
L 57.878198 76.8587 
L 58.004743 76.749781 
L 58.131288 76.882223 
L 58.257832 76.754271 
L 58.510922 76.777195 
L 58.637466 76.713337 
L 58.764011 76.842294 
L 58.890556 76.725697 
L 59.017101 76.848238 
L 59.27019 76.745688 
L 59.396735 76.771628 
L 59.52328 76.675578 
L 59.649824 76.818652 
L 59.776369 76.705972 
L 59.902914 76.808322 
L 60.156003 76.702281 
L 60.282548 76.761606 
L 60.409093 76.641638 
L 60.535637 76.787594 
L 60.662182 76.689953 
L 60.915272 76.740562 
L 61.041816 76.659835 
L 61.168361 76.745943 
L 61.294906 76.612134 
L 61.42145 76.749517 
L 61.67454 76.715714 
L 61.801085 76.733958 
L 61.927629 76.619601 
L 62.054174 76.72349 
L 62.180719 76.587492 
L 62.307263 76.70478 
L 62.560353 76.665997 
L 62.686898 76.722831 
L 62.813442 76.583491 
L 62.939987 76.693426 
L 63.066532 76.567409 
L 63.319621 76.654192 
L 63.446166 76.617086 
L 63.572711 76.705946 
L 63.699255 76.551917 
L 63.8258 76.656324 
L 63.952345 76.550481 
L 64.205434 76.64043 
L 64.331979 76.570096 
L 64.458524 76.682192 
L 64.585069 76.524726 
L 64.711613 76.612638 
L 64.964703 76.546988 
L 65.091247 76.623032 
L 65.217792 76.526209 
L 65.344337 76.651087 
L 65.470882 76.501836 
L 65.723971 76.521224 
L 65.850516 76.492009 
L 65.97706 76.600714 
L 66.103605 76.486386 
L 66.23015 76.611886 
L 66.483239 76.50984 
L 69.267223 76.434456 
L 69.393768 76.301807 
L 69.520313 76.43761 
L 69.773402 76.394948 
L 69.899947 76.413944 
L 70.026492 76.291604 
L 70.153036 76.39784 
L 70.279581 76.265151 
L 70.532671 76.344358 
L 71.545028 76.271825 
L 71.671573 76.359165 
L 71.798118 76.19974 
L 71.924663 76.301865 
L 72.051207 76.202663 
L 72.304297 76.292945 
L 72.430841 76.212669 
L 72.557386 76.321557 
L 72.683931 76.160202 
L 72.810476 76.243611 
L 73.063565 76.180396 
L 73.19011 76.261841 
L 73.316654 76.156587 
L 73.443199 76.276328 
L 73.569744 76.124813 
L 73.822833 76.146559 
L 73.949378 76.112086 
L 74.075923 76.225106 
L 74.202468 76.104628 
L 74.329012 76.222533 
L 74.582102 76.111992 
L 75.59446 76.083292 
L 75.721004 75.982655 
L 75.847549 76.128361 
L 75.974094 76.013152 
L 76.100638 76.094567 
L 76.353728 75.972684 
L 76.480273 76.04448 
L 76.606817 75.923173 
L 76.733362 76.068201 
L 76.859907 75.972423 
L 77.112996 76.002456 
L 77.239541 75.903857 
L 77.366086 75.99918 
L 77.49263 75.86798 
L 77.619175 76.000643 
L 77.872265 75.947583 
L 77.998809 75.968276 
L 78.125354 75.837936 
L 78.251899 75.946217 
L 78.378443 75.817673 
L 78.631533 75.896301 
L 79.390801 75.846804 
L 79.770435 75.882169 
L 79.89698 75.71816 
L 80.023525 75.816953 
L 80.276614 75.764291 
L 80.403159 75.814403 
L 80.529704 75.722565 
L 80.656248 75.828177 
L 80.782793 75.664251 
L 80.909338 75.741688 
L 81.162427 75.679866 
L 81.288972 75.767216 
L 81.415517 75.652085 
L 81.542062 75.765781 
L 81.668606 75.614411 
L 81.921696 75.638526 
L 82.04824 75.5961 
L 82.174785 75.713079 
L 82.30133 75.585773 
L 82.427875 75.69489 
L 82.680964 75.576285 
L 83.060598 75.650839 
L 83.187143 75.523175 
L 83.313688 75.616657 
L 83.566777 75.489907 
L 83.693322 75.540299 
L 83.819867 75.43503 
L 83.946411 75.580698 
L 84.072956 75.464244 
L 84.326045 75.47543 
L 84.45259 75.403158 
L 84.579135 75.482992 
L 84.70568 75.359402 
L 84.832224 75.502006 
L 85.085314 75.442881 
L 87.489664 75.223225 
L 87.869298 75.249612 
L 87.995842 75.080852 
L 88.122387 75.175037 
L 88.375477 75.121362 
L 88.502021 75.178354 
L 88.628566 75.073183 
L 88.755111 75.174944 
L 88.881656 75.009266 
L 89.134745 75.030851 
L 89.514379 74.985009 
L 89.640924 75.090947 
L 89.767469 74.941396 
L 90.020558 74.966638 
L 90.147103 74.914501 
L 90.273648 75.034529 
L 90.400192 74.900453 
L 90.526737 74.998581 
L 90.779826 74.87146 
L 91.159461 74.949845 
L 91.286005 74.818798 
L 91.41255 74.898267 
L 91.665639 74.763831 
L 91.792184 74.824667 
L 91.918729 74.713601 
L 92.045274 74.856688 
L 92.171818 74.740368 
L 92.424908 74.741873 
L 92.551453 74.655652 
L 92.677997 74.743955 
L 92.804542 74.618024 
L 92.931087 74.753576 
L 93.184176 74.679065 
L 93.310721 74.670695 
L 93.437266 74.548986 
L 93.56381 74.654296 
L 93.690355 74.525848 
L 93.8169 74.64248 
L 94.323079 74.444928 
L 94.449623 74.555933 
L 94.576168 74.436405 
L 94.829258 74.508082 
L 95.208892 74.343155 
L 95.335436 74.447968 
L 95.461981 74.348393 
L 95.715071 74.426181 
L 95.841615 74.331885 
L 95.96816 74.417816 
L 96.094705 74.245021 
L 96.22125 74.331728 
L 96.474339 74.273422 
L 96.600884 74.338351 
L 96.727428 74.21734 
L 96.853973 74.315049 
L 96.980518 74.149756 
L 97.233607 74.172843 
L 97.360152 74.143936 
L 97.486697 74.242186 
L 97.613242 74.105038 
L 97.739786 74.202727 
L 97.992876 74.077947 
L 98.625599 74.081222 
L 98.878689 73.943729 
L 99.005233 73.982951 
L 99.131778 73.885772 
L 99.258323 74.022359 
L 99.384868 73.887492 
L 99.511412 73.950225 
L 99.764502 73.806771 
L 99.891047 73.878193 
L 100.017591 73.759528 
L 100.144136 73.896694 
L 100.397225 73.812659 
L 100.903404 73.635074 
L 101.029949 73.760102 
L 101.283039 73.668915 
L 101.409583 73.667912 
L 101.536128 73.53266 
L 101.662673 73.639226 
L 101.789217 73.512312 
L 101.915762 73.614705 
L 102.421941 73.397342 
L 102.548486 73.504684 
L 102.67503 73.390987 
L 102.92812 73.454229 
L 103.054665 73.371886 
L 103.181209 73.436366 
L 103.307754 73.262992 
L 103.434299 73.358181 
L 103.687388 73.30026 
L 103.813933 73.33519 
L 103.940478 73.221621 
L 104.067022 73.304865 
L 104.193567 73.131253 
L 104.320112 73.203018 
L 104.573201 73.135962 
L 104.699746 73.208001 
L 104.826291 73.071333 
L 104.952836 73.161142 
L 105.07938 72.999063 
L 105.33247 73.017541 
L 105.459014 72.967152 
L 105.585559 73.06961 
L 105.712104 72.920828 
L 105.838649 73.005602 
L 106.091738 72.866038 
L 106.471372 72.920932 
L 106.597917 72.771547 
L 106.724462 72.838514 
L 106.977551 72.687875 
L 107.104096 72.74039 
L 107.230641 72.626508 
L 107.357185 72.75677 
L 107.48373 72.620391 
L 107.736819 72.591228 
L 107.863364 72.505473 
L 107.989909 72.586069 
L 108.116454 72.455562 
L 108.242998 72.581405 
L 108.496088 72.473786 
L 115.202958 70.899252 
L 115.329503 70.767661 
L 115.456048 70.880176 
L 115.709137 70.754322 
L 116.215316 70.498785 
L 116.341861 70.600863 
L 116.59495 70.466053 
L 116.721495 70.439003 
L 116.84804 70.281747 
L 116.974584 70.362269 
L 117.101129 70.215404 
L 117.227674 70.292788 
L 117.986942 69.912432 
L 118.240032 69.928446 
L 118.619666 69.645983 
L 118.74621 69.713117 
L 118.9993 69.598767 
L 119.125845 69.60403 
L 119.252389 69.45732 
L 119.378934 69.507104 
L 119.505479 69.287192 
L 119.632024 69.329084 
L 119.885113 69.196268 
L 120.011658 69.238005 
L 120.138202 69.064687 
L 120.264747 69.123377 
L 120.391292 68.903372 
L 120.644381 68.841626 
L 120.770926 68.76593 
L 120.897471 68.832431 
L 121.024015 68.635301 
L 121.15056 68.686731 
L 121.40365 68.436164 
L 122.036373 68.176255 
L 122.289463 67.897187 
L 122.669097 67.795043 
L 122.795642 67.572699 
L 122.922186 67.594615 
L 123.175276 67.264852 
L 123.55491 67.08989 
L 123.681455 66.84637 
L 123.807999 66.844731 
L 124.061089 66.469815 
L 124.693812 65.856582 
L 124.946902 65.46356 
L 125.326536 64.467139 
L 125.453081 63.62829 
L 125.832715 49.907922 
L 126.212349 42.274631 
L 126.591983 39.082075 
L 126.971618 37.900154 
L 127.604341 36.113235 
L 127.983975 34.230086 
L 128.11052 32.851952 
L 128.490154 20.863717 
L 128.616699 22.525109 
L 128.743244 21.967881 
L 128.869788 22.234992 
L 129.249423 20.847205 
L 129.375967 21.446882 
L 129.629057 21.191803 
L 129.755601 21.882519 
L 129.882146 21.381563 
L 130.008691 22.110501 
L 130.135236 21.515129 
L 130.26178 21.817725 
L 130.388325 21.05148 
L 130.894504 22.50727 
L 131.021049 20.886805 
L 131.147593 20.758003 
L 131.274138 21.322684 
L 131.400683 20.798452 
L 131.527228 22.216369 
L 131.906862 21.553489 
L 132.033406 21.12492 
L 132.159951 22.058227 
L 132.286496 21.945731 
L 132.413041 21.044251 
L 132.539585 22.484042 
L 132.66613 22.319164 
L 133.045764 21.061501 
L 133.172309 20.762848 
L 133.425398 21.642632 
L 133.551943 21.266116 
L 133.678488 21.607011 
L 133.805033 23.36277 
L 133.931577 22.382615 
L 134.184667 22.843669 
L 134.311212 21.834443 
L 134.564301 21.664858 
L 134.690846 20.973355 
L 135.07048 21.559166 
L 135.197025 20.839535 
L 135.323569 22.163204 
L 135.450114 21.184534 
L 135.576659 21.404687 
L 135.703203 21.94459 
L 135.829748 21.938765 
L 135.956293 20.640319 
L 136.082838 20.697425 
L 136.209382 20.453437 
L 136.335927 20.621557 
L 136.589017 21.27263 
L 136.842106 21.095953 
L 136.968651 21.614802 
L 137.095195 21.004267 
L 137.47483 21.665951 
L 137.601374 22.544814 
L 137.727919 22.460066 
L 137.981009 20.667232 
L 138.107553 20.390418 
L 138.234098 21.598606 
L 138.360643 21.486955 
L 138.487187 20.950871 
L 138.613732 21.976995 
L 138.740277 21.624967 
L 138.866822 20.569138 
L 139.119911 21.570499 
L 139.373 20.885634 
L 139.62609 21.328882 
L 139.752635 23.169808 
L 139.879179 23.139625 
L 140.005724 22.838072 
L 140.132269 21.571745 
L 140.258814 21.569369 
L 140.385358 21.075677 
L 140.511903 21.055323 
L 140.638448 21.709126 
L 140.891537 20.366482 
L 141.018082 22.130412 
L 141.271171 21.615519 
L 141.524261 23.065246 
L 141.650806 21.510432 
L 141.903895 22.207164 
L 142.03044 21.591537 
L 142.156984 21.581682 
L 142.410074 22.757197 
L 142.663163 20.711719 
L 142.916253 22.757197 
L 143.295887 21.591537 
L 143.422432 22.207164 
L 143.548976 22.017574 
L 143.675521 21.510432 
L 143.802066 23.065246 
L 144.055155 21.615519 
L 144.1817 21.860381 
L 144.308245 22.130412 
L 144.434789 20.366482 
L 144.687879 21.709126 
L 144.814424 21.055323 
L 144.940968 21.075677 
L 145.067513 21.569369 
L 145.194058 21.571745 
L 145.447147 23.139625 
L 145.573692 23.169808 
L 145.700237 21.328882 
L 145.953326 20.885634 
L 146.206416 21.570499 
L 146.33296 21.235287 
L 146.459505 20.569138 
L 146.712594 21.976995 
L 146.839139 20.950871 
L 147.092229 21.598606 
L 147.218773 20.390418 
L 147.471863 21.020501 
L 147.598408 22.460066 
L 147.724952 22.544814 
L 147.978042 21.536786 
L 148.231131 21.004267 
L 148.357676 21.614802 
L 148.484221 21.095953 
L 148.610765 21.095971 
L 148.73731 21.27263 
L 148.863855 21.179819 
L 149.116944 20.453437 
L 149.243489 20.697425 
L 149.370034 20.640319 
L 149.496578 21.938765 
L 149.623123 21.94459 
L 149.876213 21.184534 
L 150.002757 22.163204 
L 150.129302 20.839535 
L 150.255847 21.559166 
L 150.508936 21.190657 
L 150.635481 20.973355 
L 150.88857 21.771769 
L 151.015115 21.834443 
L 151.14166 22.843669 
L 151.268205 22.726007 
L 151.394749 22.382615 
L 151.521294 23.36277 
L 151.774383 21.266116 
L 151.900928 21.642632 
L 152.154018 20.762848 
L 152.533652 21.730804 
L 152.786741 22.484042 
L 152.913286 21.044251 
L 153.166375 22.058227 
L 153.29292 21.12492 
L 153.672554 22.028094 
L 153.799099 22.216369 
L 153.925644 20.798452 
L 154.052188 21.322684 
L 154.178733 20.758003 
L 154.305278 20.886805 
L 154.431823 22.50727 
L 154.558367 22.304305 
L 154.938002 21.05148 
L 155.064546 21.817725 
L 155.191091 21.515129 
L 155.317636 22.110501 
L 155.44418 21.381563 
L 155.570725 21.882519 
L 155.69727 21.191803 
L 155.950359 21.446882 
L 156.076904 20.847205 
L 156.456538 22.234992 
L 156.583083 21.967881 
L 156.709628 22.525109 
L 156.836172 20.863717 
L 156.962717 22.221393 
L 157.215807 32.851952 
L 157.468896 35.018769 
L 157.975075 36.940524 
L 158.734343 39.082075 
L 158.987433 40.965385 
L 159.240522 44.046169 
L 159.620156 53.121167 
L 159.999791 64.467139 
L 160.25288 65.183369 
L 160.632514 65.856582 
L 160.759059 65.900459 
L 160.885604 66.179756 
L 161.012148 66.178425 
L 161.518327 66.844731 
L 161.644872 66.84637 
L 161.771417 67.08989 
L 161.897961 67.025101 
L 162.40414 67.594615 
L 162.530685 67.572699 
L 162.65723 67.795043 
L 162.783774 67.708521 
L 163.036864 67.897187 
L 163.163409 67.961426 
L 163.289953 68.176255 
L 163.416498 68.136031 
L 163.543043 68.345048 
L 163.669588 68.264355 
L 164.175766 68.686731 
L 164.302311 68.635301 
L 164.428856 68.832431 
L 164.555401 68.76593 
L 165.441214 69.196268 
L 165.820848 69.287192 
L 165.947393 69.507104 
L 166.073937 69.45732 
L 166.327027 69.598767 
L 166.453571 69.592173 
L 166.580116 69.713117 
L 166.706661 69.645983 
L 166.833206 69.85388 
L 166.95975 69.819305 
L 167.21284 69.959225 
L 167.339385 69.912432 
L 167.465929 70.049556 
L 167.592474 69.969788 
L 167.845563 70.150569 
L 168.098653 70.292788 
L 168.225198 70.215404 
L 168.351742 70.362269 
L 168.478287 70.281747 
L 168.731376 70.466053 
L 169.743734 70.74622 
L 169.870279 70.880176 
L 169.996824 70.767661 
L 170.123368 70.899252 
L 170.249913 70.850281 
L 170.756092 71.14153 
L 170.882637 71.028686 
L 171.135726 71.115015 
L 171.51536 71.217002 
L 171.641905 71.375988 
L 171.76845 71.276668 
L 172.021539 71.366525 
L 172.148084 71.354006 
L 172.274629 71.517472 
L 172.401173 71.441116 
L 172.527718 71.594376 
L 172.780808 71.556504 
L 173.540076 71.751924 
L 173.91971 71.750272 
L 174.046255 71.933427 
L 174.1728 71.86919 
L 174.425889 71.976655 
L 174.552434 71.931569 
L 174.678979 72.042623 
L 174.805523 71.943374 
L 174.932068 72.11842 
L 175.185157 72.149503 
L 175.311702 72.189781 
L 175.438247 72.10823 
L 175.564792 72.237393 
L 175.691336 72.131765 
L 175.944426 72.277737 
L 176.450605 72.419212 
L 176.577149 72.320713 
L 176.830239 72.473786 
L 176.956784 72.468848 
L 177.083328 72.581405 
L 177.209873 72.455562 
L 177.336418 72.586069 
L 177.462962 72.505473 
L 177.716052 72.659805 
L 177.842597 72.620391 
L 177.969141 72.75677 
L 178.095686 72.626508 
L 178.222231 72.74039 
L 178.47532 72.731687 
L 178.601865 72.838514 
L 178.72841 72.771547 
L 178.854954 72.920932 
L 178.981499 72.797839 
L 179.234589 72.866038 
L 179.361133 72.86648 
L 179.487678 73.005602 
L 179.614223 72.920828 
L 179.740767 73.06961 
L 179.867312 72.967152 
L 180.373491 73.161142 
L 180.500036 73.071333 
L 180.626581 73.208001 
L 180.87967 73.14624 
L 181.006215 73.203018 
L 181.132759 73.131253 
L 181.259304 73.304865 
L 181.385849 73.221621 
L 181.638938 73.30026 
L 181.765483 73.269346 
L 181.892028 73.358181 
L 182.018573 73.262992 
L 182.145117 73.436366 
L 182.271662 73.371886 
L 182.524751 73.461103 
L 182.651296 73.390987 
L 182.777841 73.504684 
L 182.904386 73.397342 
L 183.03093 73.557456 
L 183.28402 73.566589 
L 183.410564 73.614705 
L 183.537109 73.512312 
L 183.663654 73.639226 
L 183.790199 73.53266 
L 184.043288 73.668915 
L 185.055646 73.781706 
L 185.182191 73.896694 
L 185.308735 73.759528 
L 185.43528 73.878193 
L 185.561825 73.806771 
L 186.068004 74.022359 
L 186.194548 73.885772 
L 186.447638 73.943729 
L 186.827272 73.995477 
L 186.953817 74.137666 
L 187.080361 74.014824 
L 187.333451 74.077947 
L 187.459996 74.056377 
L 187.58654 74.202727 
L 187.713085 74.105038 
L 187.83963 74.242186 
L 188.092719 74.172843 
L 188.851988 74.273422 
L 189.231622 74.245021 
L 189.358167 74.417816 
L 189.484711 74.331885 
L 189.737801 74.400647 
L 189.864345 74.348393 
L 189.99089 74.447968 
L 190.117435 74.343155 
L 190.24398 74.510161 
L 190.497069 74.508082 
L 190.876703 74.555933 
L 191.003248 74.444928 
L 191.129793 74.594291 
L 191.382882 74.58675 
L 191.509427 74.64248 
L 191.635972 74.525848 
L 191.762516 74.654296 
L 191.889061 74.548986 
L 192.14215 74.679065 
L 192.521785 74.618024 
L 192.648329 74.743955 
L 192.774874 74.655652 
L 193.027964 74.7915 
L 193.154508 74.740368 
L 193.281053 74.856688 
L 193.407598 74.713601 
L 193.534142 74.824667 
L 193.787232 74.809043 
L 193.913777 74.898267 
L 194.040321 74.818798 
L 194.166866 74.949845 
L 194.293411 74.812648 
L 194.5465 74.87146 
L 194.673045 74.875101 
L 194.79959 74.998581 
L 194.926134 74.900453 
L 195.052679 75.034529 
L 195.179224 74.914501 
L 195.432313 74.976913 
L 195.558858 74.941396 
L 195.685403 75.090947 
L 195.811947 74.985009 
L 195.938492 75.110238 
L 196.191582 75.030851 
L 196.571216 75.174944 
L 196.697761 75.073183 
L 196.824305 75.178354 
L 197.077395 75.093334 
L 197.203939 75.175037 
L 197.330484 75.080852 
L 197.457029 75.249612 
L 197.583574 75.164362 
L 197.836663 75.223225 
L 197.963208 75.156176 
L 198.089752 75.263959 
L 198.216297 75.155989 
L 198.342842 75.315577 
L 198.595931 75.297679 
L 198.722476 75.321786 
L 198.849021 75.220975 
L 198.975566 75.345375 
L 199.10211 75.235092 
L 199.3552 75.350544 
L 200.367558 75.407894 
L 200.494102 75.502006 
L 200.620647 75.359402 
L 200.747192 75.482992 
L 200.873736 75.403158 
L 201.126826 75.532437 
L 201.253371 75.464244 
L 201.379915 75.580698 
L 201.50646 75.43503 
L 201.633005 75.540299 
L 201.886094 75.521552 
L 202.012639 75.616657 
L 202.139184 75.523175 
L 202.265728 75.650839 
L 202.392273 75.514039 
L 202.645363 75.576285 
L 202.771907 75.567402 
L 202.898452 75.69489 
L 203.024997 75.585773 
L 203.151541 75.713079 
L 203.278086 75.5961 
L 203.784265 75.765781 
L 203.91081 75.652085 
L 204.037355 75.767216 
L 204.290444 75.682223 
L 204.416989 75.741688 
L 204.543533 75.664251 
L 204.670078 75.828177 
L 204.796623 75.722565 
L 204.923168 75.814403 
L 205.176257 75.725938 
L 205.302802 75.816953 
L 205.429346 75.71816 
L 205.555891 75.882169 
L 205.682436 75.796054 
L 205.935525 75.846804 
L 206.06207 75.770565 
L 206.188615 75.885212 
L 206.31516 75.775946 
L 206.441704 75.928429 
L 206.694794 75.896301 
L 206.821338 75.926141 
L 206.947883 75.817673 
L 207.074428 75.946217 
L 207.200973 75.837936 
L 207.454062 75.947583 
L 208.086786 75.903857 
L 208.339875 76.022725 
L 208.46642 75.972423 
L 208.592965 76.068201 
L 208.719509 75.923173 
L 208.846054 76.04448 
L 208.972599 75.972684 
L 209.225688 76.094567 
L 209.352233 76.013152 
L 209.478778 76.128361 
L 209.605322 75.982655 
L 209.858412 76.042496 
L 210.744225 76.111992 
L 210.87077 76.093027 
L 210.997314 76.222533 
L 211.123859 76.104628 
L 211.250404 76.225106 
L 211.503493 76.146559 
L 211.883127 76.276328 
L 212.009672 76.156587 
L 212.136217 76.261841 
L 212.389306 76.17435 
L 212.515851 76.243611 
L 212.642396 76.160202 
L 212.76894 76.321557 
L 212.895485 76.212669 
L 213.148575 76.248872 
L 213.275119 76.202663 
L 213.401664 76.301865 
L 213.528209 76.19974 
L 213.654754 76.359165 
L 213.781298 76.271825 
L 214.034388 76.315573 
L 214.160932 76.232472 
L 214.287477 76.353408 
L 214.414022 76.243484 
L 214.540567 76.389555 
L 214.793656 76.344358 
L 214.920201 76.379063 
L 215.046746 76.265151 
L 215.17329 76.39784 
L 215.299835 76.291604 
L 215.552924 76.394948 
L 215.932559 76.301807 
L 216.059103 76.434456 
L 216.185648 76.34398 
L 216.438737 76.455413 
L 216.565282 76.392558 
L 216.691827 76.489373 
L 216.818372 76.343401 
L 216.944916 76.463915 
L 217.198006 76.450119 
L 217.324551 76.512723 
L 217.451095 76.420135 
L 217.57764 76.534013 
L 217.704185 76.389354 
L 217.957274 76.454494 
L 219.7289 76.563476 
L 219.855445 76.501836 
L 219.98199 76.651087 
L 220.108534 76.526209 
L 220.235079 76.623032 
L 220.488169 76.535484 
L 220.614713 76.612638 
L 220.741258 76.524726 
L 220.867803 76.682192 
L 220.994348 76.570096 
L 221.247437 76.60186 
L 221.373982 76.550481 
L 221.500526 76.656324 
L 221.627071 76.551917 
L 221.753616 76.705946 
L 222.006705 76.654192 
L 224.664145 76.689953 
L 224.790689 76.787594 
L 224.917234 76.641638 
L 225.043779 76.761606 
L 225.296868 76.745133 
L 225.423413 76.808322 
L 225.549958 76.705972 
L 225.676502 76.818652 
L 225.803047 76.675578 
L 226.056137 76.745688 
L 236.559349 76.941872 
L 236.938983 76.917688 
L 237.065528 77.066389 
L 237.192072 76.947299 
L 237.445162 76.972978 
L 237.571706 76.915569 
L 237.698251 77.032221 
L 237.824796 76.923624 
L 237.951341 77.066437 
L 238.20443 76.992331 
L 239.216788 77.027738 
L 239.343333 76.907964 
L 239.469877 77.049521 
L 239.596422 76.94902 
L 239.849511 77.028186 
L 239.976056 76.970876 
L 240.102601 77.048111 
L 240.229146 76.910929 
L 240.35569 77.047231 
L 240.482235 76.967734 
L 240.735325 77.054049 
L 240.861869 76.962762 
L 240.988414 77.061865 
L 241.114959 76.91874 
L 241.241503 77.038474 
L 241.494593 77.015472 
L 241.621138 77.076418 
L 241.747682 76.958037 
L 241.874227 77.068666 
L 242.000772 76.930975 
L 242.253861 77.009621 
L 243.266219 76.982536 
L 243.392764 77.105169 
L 243.519308 76.961211 
L 243.645853 77.061049 
L 243.898943 76.986336 
L 244.025487 77.048011 
L 244.152032 76.969951 
L 244.152032 76.969951 
" clip-path="url(#p4e3e49245a)" style="fill: none; stroke: #000000; stroke-linecap: square"/>
   </g>
   <g id="patch_3">
    <path d="M 41.04775 96.177428 
L 41.04775 13.474578 
" style="fill: none; stroke: #000000; stroke-width: 0.8; stroke-linejoin: miter; stroke-linecap: square"/>
   </g>
   <g id="patch_4">
    <path d="M 244.152032 96.177428 
L 244.152032 13.474578 
" style="fill: none; stroke: #000000; stroke-width: 0.8; stroke-linejoin: miter; stroke-linecap: square"/>
   </g>
   <g id="patch_5">
    <path d="M 41.04775 96.177428 
L 244.152032 96.177428 
" style="fill: none; stroke: #000000; stroke-width: 0.8; stroke-linejoin: miter; stroke-linecap: square"/>
   </g>
   <g id="patch_6">
    <path d="M 41.04775 13.474578 
L 244.152032 13.474578 
" style="fill: none; stroke: #000000; stroke-width: 0.8; stroke-linejoin: miter; stroke-linecap: square"/>
   </g>
   <g id="text_13">
    <!-- -78.84 -->
    <g style="fill: #ff0000" transform="translate(59.968328 73.800908) scale(0.0833 -0.0833)">
     <defs>
      <path id="NimbusRomNo9L-Regu-2d" d="M 250 1619 
L 250 1216 
L 1824 1216 
L 1824 1619 
L 250 1619 
z
" transform="scale(0.015625)"/>
      <path id="NimbusRomNo9L-Regu-37" d="M 2874 4250 
L 506 4250 
L 128 3310 
L 237 3258 
C 512 3693 627 3776 979 3776 
L 2368 3776 
L 1101 -32 
L 1517 -32 
L 2874 4148 
L 2874 4250 
z
" transform="scale(0.015625)"/>
      <path id="NimbusRomNo9L-Regu-38" d="M 1856 2400 
C 2490 2740 2714 3008 2714 3444 
C 2714 3968 2253 4352 1613 4352 
C 915 4352 397 3924 397 3341 
C 397 2925 518 2740 1190 2151 
C 499 1626 358 1428 358 992 
C 358 372 864 -64 1587 -64 
C 2355 -64 2848 359 2848 1018 
C 2848 1511 2630 1824 1856 2400 
z
M 1741 1741 
C 2208 1408 2362 1178 2362 820 
C 2362 404 2074 116 1658 116 
C 1171 116 845 487 845 1044 
C 845 1453 986 1722 1357 2023 
L 1741 1741 
z
M 1670 2516 
C 1101 2887 870 3181 870 3540 
C 870 3911 1158 4173 1562 4173 
C 1997 4173 2272 3892 2272 3450 
C 2272 3085 2093 2797 1728 2554 
C 1696 2535 1696 2535 1670 2516 
z
" transform="scale(0.015625)"/>
      <path id="NimbusRomNo9L-Regu-2e" d="M 800 646 
C 608 646 448 480 448 281 
C 448 96 608 -64 794 -64 
C 992 -64 1158 96 1158 281 
C 1158 480 992 646 800 646 
z
" transform="scale(0.015625)"/>
     </defs>
     <use xlink:href="#NimbusRomNo9L-Regu-2d" transform="scale(0.996264)"/>
     <use xlink:href="#NimbusRomNo9L-Regu-37" transform="translate(33.17523 0) scale(0.996264)"/>
     <use xlink:href="#NimbusRomNo9L-Regu-38" transform="translate(82.98843 0) scale(0.996264)"/>
     <use xlink:href="#NimbusRomNo9L-Regu-2e" transform="translate(132.801631 0) scale(0.996264)"/>
     <use xlink:href="#NimbusRomNo9L-Regu-38" transform="translate(157.708231 0) scale(0.996264)"/>
     <use xlink:href="#NimbusRomNo9L-Regu-34" transform="translate(207.521431 0) scale(0.996264)"/>
    </g>
   </g>
   <g id="text_14">
    <!-- -71.13 -->
    <g style="fill: #ff0000" transform="translate(93.046262 68.489166) scale(0.0833 -0.0833)">
     <defs>
      <path id="NimbusRomNo9L-Regu-33" d="M 979 2138 
C 1357 2138 1504 2125 1658 2068 
C 2054 1927 2304 1562 2304 1120 
C 2304 583 1939 167 1466 167 
C 1293 167 1165 212 928 365 
C 736 480 627 525 518 525 
C 371 525 275 436 275 301 
C 275 77 550 -64 998 -64 
C 1491 -64 1997 103 2298 365 
C 2598 628 2765 999 2765 1428 
C 2765 1754 2662 2055 2477 2253 
C 2349 2394 2227 2471 1946 2592 
C 2387 2893 2547 3130 2547 3476 
C 2547 3994 2138 4352 1549 4352 
C 1229 4352 947 4244 717 4039 
C 525 3866 429 3699 288 3315 
L 384 3290 
C 646 3757 934 3968 1338 3968 
C 1754 3968 2042 3687 2042 3284 
C 2042 3053 1946 2823 1786 2663 
C 1594 2471 1414 2375 979 2221 
L 979 2138 
z
" transform="scale(0.015625)"/>
     </defs>
     <use xlink:href="#NimbusRomNo9L-Regu-2d" transform="scale(0.996264)"/>
     <use xlink:href="#NimbusRomNo9L-Regu-37" transform="translate(33.17523 0) scale(0.996264)"/>
     <use xlink:href="#NimbusRomNo9L-Regu-31" transform="translate(82.98843 0) scale(0.996264)"/>
     <use xlink:href="#NimbusRomNo9L-Regu-2e" transform="translate(132.801631 0) scale(0.996264)"/>
     <use xlink:href="#NimbusRomNo9L-Regu-31" transform="translate(157.708231 0) scale(0.996264)"/>
     <use xlink:href="#NimbusRomNo9L-Regu-33" transform="translate(207.521431 0) scale(0.996264)"/>
    </g>
   </g>
   <g id="text_15">
    <!-- -71.01 -->
    <g style="fill: #ff0000" transform="translate(159.20213 68.401588) scale(0.0833 -0.0833)">
     <use xlink:href="#NimbusRomNo9L-Regu-2d" transform="scale(0.996264)"/>
     <use xlink:href="#NimbusRomNo9L-Regu-37" transform="translate(33.17523 0) scale(0.996264)"/>
     <use xlink:href="#NimbusRomNo9L-Regu-31" transform="translate(82.98843 0) scale(0.996264)"/>
     <use xlink:href="#NimbusRomNo9L-Regu-2e" transform="translate(132.801631 0) scale(0.996264)"/>
     <use xlink:href="#NimbusRomNo9L-Regu-30" transform="translate(157.708231 0) scale(0.996264)"/>
     <use xlink:href="#NimbusRomNo9L-Regu-31" transform="translate(207.521431 0) scale(0.996264)"/>
    </g>
   </g>
   <g id="text_16">
    <!-- -78.83 -->
    <g style="fill: #ff0000" transform="translate(192.280064 73.792606) scale(0.0833 -0.0833)">
     <use xlink:href="#NimbusRomNo9L-Regu-2d" transform="scale(0.996264)"/>
     <use xlink:href="#NimbusRomNo9L-Regu-37" transform="translate(33.17523 0) scale(0.996264)"/>
     <use xlink:href="#NimbusRomNo9L-Regu-38" transform="translate(82.98843 0) scale(0.996264)"/>
     <use xlink:href="#NimbusRomNo9L-Regu-2e" transform="translate(132.801631 0) scale(0.996264)"/>
     <use xlink:href="#NimbusRomNo9L-Regu-38" transform="translate(157.708231 0) scale(0.996264)"/>
     <use xlink:href="#NimbusRomNo9L-Regu-33" transform="translate(207.521431 0) scale(0.996264)"/>
    </g>
   </g>
   <g id="text_17">
    <!-- Signal spectrum -->
    <g transform="translate(110.361197 7.474578) scale(0.1 -0.1)">
     <defs>
      <path id="NimbusRomNo9L-Regu-69" d="M 1120 2929 
L 128 2579 
L 128 2484 
L 179 2490 
C 256 2502 339 2509 397 2509 
C 550 2509 608 2406 608 2125 
L 608 640 
C 608 179 544 109 102 109 
L 102 0 
L 1619 0 
L 1619 96 
C 1197 128 1146 191 1146 650 
L 1146 2910 
L 1120 2929 
z
M 819 4352 
C 646 4352 499 4205 499 4026 
C 499 3847 640 3699 819 3699 
C 1005 3699 1152 3840 1152 4026 
C 1152 4205 1005 4352 819 4352 
z
" transform="scale(0.015625)"/>
      <path id="NimbusRomNo9L-Regu-67" d="M 3008 2496 
L 3008 2746 
L 2515 2746 
C 2387 2746 2291 2763 2163 2802 
L 2022 2847 
C 1850 2903 1677 2931 1510 2931 
C 915 2931 442 2467 442 1881 
C 442 1476 614 1230 1037 1018 
C 915 906 800 799 762 768 
C 550 588 467 463 467 338 
C 467 206 544 131 806 6 
C 352 -329 179 -543 179 -781 
C 179 -1124 678 -1408 1286 -1408 
C 1766 -1408 2266 -1238 2598 -962 
C 2842 -759 2950 -548 2950 -299 
C 2950 108 2650 384 2176 384 
L 1350 384 
C 1011 384 851 443 851 548 
C 851 678 1062 908 1235 960 
C 1293 953 1338 947 1357 947 
C 1478 934 1562 928 1600 928 
C 1837 928 2093 1026 2291 1203 
C 2502 1387 2598 1617 2598 1945 
C 2598 2135 2566 2286 2477 2496 
L 3008 2496 
z
M 941 -13 
C 1152 -58 1664 -96 1978 -96 
C 2560 -96 2771 -180 2771 -414 
C 2771 -791 2285 -1043 1562 -1043 
C 998 -1043 627 -855 627 -570 
C 627 -420 672 -336 941 -13 
z
M 973 2145 
C 973 2526 1152 2752 1446 2752 
C 1645 2752 1811 2642 1914 2449 
C 2029 2223 2106 1927 2106 1675 
C 2106 1314 1920 1088 1626 1088 
C 1242 1088 973 1507 973 2126 
L 973 2145 
z
" transform="scale(0.015625)"/>
      <path id="NimbusRomNo9L-Regu-61" d="M 2829 423 
C 2720 333 2643 301 2547 301 
C 2400 301 2355 390 2355 672 
L 2355 1920 
C 2355 2253 2323 2438 2227 2592 
C 2086 2822 1811 2944 1434 2944 
C 832 2944 358 2630 358 2227 
C 358 2080 486 1952 634 1952 
C 787 1952 922 2080 922 2221 
C 922 2246 915 2278 909 2323 
C 896 2381 890 2432 890 2477 
C 890 2650 1094 2790 1350 2790 
C 1664 2790 1837 2605 1837 2259 
L 1837 1869 
C 851 1472 742 1421 467 1178 
C 326 1050 237 832 237 621 
C 237 218 518 -64 909 -64 
C 1190 -64 1453 70 1843 403 
C 1875 70 1990 -64 2253 -64 
C 2470 -64 2605 13 2829 256 
L 2829 423 
z
M 1837 783 
C 1837 584 1805 526 1670 449 
C 1517 359 1338 301 1203 301 
C 979 301 800 520 800 796 
L 800 822 
C 800 1201 1062 1433 1837 1715 
L 1837 783 
z
" transform="scale(0.015625)"/>
      <path id="NimbusRomNo9L-Regu-6c" d="M 122 4000 
L 160 4000 
C 230 4000 307 4000 358 4000 
C 563 4000 627 3910 627 3610 
L 627 557 
C 627 211 538 128 134 96 
L 134 0 
L 1645 0 
L 1645 109 
C 1242 109 1165 173 1165 528 
L 1165 4371 
L 1139 4384 
C 806 4275 563 4211 122 4103 
L 122 4000 
z
" transform="scale(0.015625)"/>
      <path id="NimbusRomNo9L-Regu-73" d="M 2016 2010 
L 1990 2880 
L 1920 2880 
L 1907 2867 
C 1850 2822 1843 2816 1818 2816 
C 1779 2816 1715 2829 1645 2861 
C 1504 2915 1363 2944 1197 2944 
C 691 2944 326 2616 326 2154 
C 326 1796 531 1539 1075 1231 
L 1446 1020 
C 1670 892 1779 737 1779 539 
C 1779 256 1574 77 1248 77 
C 1030 77 832 159 710 298 
C 576 455 518 600 435 960 
L 333 960 
L 333 -39 
L 416 -39 
C 461 33 486 48 563 48 
C 621 48 710 35 858 -2 
C 1037 -39 1210 -64 1325 -64 
C 1818 -64 2227 308 2227 757 
C 2227 1077 2074 1289 1690 1520 
L 998 1930 
C 819 2033 723 2194 723 2367 
C 723 2624 922 2803 1216 2803 
C 1581 2803 1773 2583 1920 2010 
L 2016 2010 
z
" transform="scale(0.015625)"/>
      <path id="NimbusRomNo9L-Regu-70" d="M 58 2516 
C 115 2522 160 2522 218 2522 
C 435 2522 480 2458 480 2155 
L 480 -855 
C 480 -1189 410 -1261 32 -1299 
L 32 -1408 
L 1581 -1408 
L 1581 -1293 
C 1101 -1293 1018 -1222 1018 -816 
L 1018 199 
C 1242 -13 1395 -77 1664 -77 
C 2419 -77 3008 643 3008 1575 
C 3008 2372 2560 2944 1939 2944 
C 1581 2944 1299 2784 1018 2438 
L 1018 2931 
L 979 2944 
C 634 2810 410 2726 58 2618 
L 58 2516 
z
M 1018 2136 
C 1018 2329 1376 2560 1670 2560 
C 2144 2560 2458 2071 2458 1324 
C 2458 611 2144 128 1683 128 
C 1382 128 1018 359 1018 552 
L 1018 2136 
z
" transform="scale(0.015625)"/>
      <path id="NimbusRomNo9L-Regu-74" d="M 1632 2880 
L 986 2880 
L 986 3622 
C 986 3686 979 3706 941 3706 
C 896 3648 858 3590 813 3526 
C 570 3174 294 2867 192 2841 
C 122 2794 83 2748 83 2715 
C 83 2695 90 2682 109 2682 
L 448 2682 
L 448 751 
C 448 212 640 -64 1018 -64 
C 1331 -64 1574 90 1786 423 
L 1702 493 
C 1568 333 1459 269 1318 269 
C 1082 269 986 443 986 847 
L 986 2682 
L 1632 2682 
L 1632 2880 
z
" transform="scale(0.015625)"/>
      <path id="NimbusRomNo9L-Regu-6d" d="M 122 2547 
C 205 2566 256 2573 326 2573 
C 493 2573 550 2470 550 2162 
L 550 539 
C 550 192 461 96 102 96 
L 102 0 
L 1523 0 
L 1523 96 
C 1184 96 1088 166 1088 418 
L 1088 2234 
C 1088 2246 1139 2310 1184 2355 
C 1344 2502 1619 2611 1843 2611 
C 2125 2611 2266 2385 2266 1932 
L 2266 528 
C 2266 167 2195 96 1830 96 
L 1830 0 
L 3264 0 
L 3264 96 
C 2899 96 2803 205 2803 603 
L 2803 2221 
C 2995 2496 3206 2611 3501 2611 
C 3866 2611 3981 2438 3981 1907 
L 3981 557 
C 3981 192 3930 141 3558 96 
L 3558 0 
L 4960 0 
L 4960 96 
L 4794 115 
C 4602 115 4518 230 4518 480 
L 4518 1802 
C 4518 2559 4269 2944 3776 2944 
C 3405 2944 3078 2778 2733 2407 
C 2618 2771 2400 2944 2054 2944 
C 1773 2944 1594 2854 1062 2451 
L 1062 2931 
L 1018 2944 
C 691 2822 474 2752 122 2656 
L 122 2547 
z
" transform="scale(0.015625)"/>
     </defs>
     <use xlink:href="#NimbusRomNo9L-Regu-53" transform="scale(0.996264)"/>
     <use xlink:href="#NimbusRomNo9L-Regu-69" transform="translate(55.391677 0) scale(0.996264)"/>
     <use xlink:href="#NimbusRomNo9L-Regu-67" transform="translate(83.086847 0) scale(0.996264)"/>
     <use xlink:href="#NimbusRomNo9L-Regu-6e" transform="translate(132.900047 0) scale(0.996264)"/>
     <use xlink:href="#NimbusRomNo9L-Regu-61" transform="translate(182.713248 0) scale(0.996264)"/>
     <use xlink:href="#NimbusRomNo9L-Regu-6c" transform="translate(226.946816 0) scale(0.996264)"/>
     <use xlink:href="#NimbusRomNo9L-Regu-73" transform="translate(279.548586 0) scale(0.996264)"/>
     <use xlink:href="#NimbusRomNo9L-Regu-70" transform="translate(318.302292 0) scale(0.996264)"/>
     <use xlink:href="#NimbusRomNo9L-Regu-65" transform="translate(368.115493 0) scale(0.996264)"/>
     <use xlink:href="#NimbusRomNo9L-Regu-63" transform="translate(412.349062 0) scale(0.996264)"/>
     <use xlink:href="#NimbusRomNo9L-Regu-74" transform="translate(456.58263 0) scale(0.996264)"/>
     <use xlink:href="#NimbusRomNo9L-Regu-72" transform="translate(484.2778 0) scale(0.996264)"/>
     <use xlink:href="#NimbusRomNo9L-Regu-75" transform="translate(517.45303 0) scale(0.996264)"/>
     <use xlink:href="#NimbusRomNo9L-Regu-6d" transform="translate(567.26623 0) scale(0.996264)"/>
    </g>
   </g>
   <g id="legend_1">
    <g id="patch_7">
     <path d="M 185.902714 29.600041 
L 240.152032 29.600041 
L 240.152032 17.474578 
L 185.902714 17.474578 
z
" style="fill: #ffffff; stroke: #000000; stroke-width: 0.5; stroke-linejoin: miter"/>
    </g>
    <g id="line2d_22">
     <path d="M 188.302714 22.674578 
L 196.302714 22.674578 
L 204.302714 22.674578 
" style="fill: none; stroke: #000000; stroke-linecap: square"/>
    </g>
    <g id="text_18">
     <!-- NR input -->
     <g transform="translate(208.302714 25.474578) scale(0.08 -0.08)">
      <defs>
       <path id="NimbusRomNo9L-Regu-4e" d="M 3917 -64 
L 3917 3287 
C 3917 3669 3981 3905 4102 3987 
C 4192 4051 4282 4077 4525 4102 
L 4525 4224 
L 3021 4224 
L 3021 4102 
C 3264 4083 3354 4057 3450 4000 
C 3578 3911 3635 3681 3635 3286 
L 3635 1136 
L 1171 4224 
L 77 4224 
L 77 4102 
C 352 4102 442 4051 698 3751 
L 698 938 
C 698 281 608 159 77 121 
L 77 0 
L 1581 0 
L 1581 134 
C 1088 134 979 281 979 928 
L 979 3439 
L 3808 -64 
L 3917 -64 
z
" transform="scale(0.015625)"/>
       <path id="NimbusRomNo9L-Regu-52" d="M 4218 121 
C 3974 140 3846 205 3661 424 
L 2342 2061 
C 2771 2143 2963 2219 3174 2388 
C 3379 2553 3501 2818 3501 3113 
C 3501 3385 3418 3618 3251 3801 
C 3008 4059 2477 4224 1875 4224 
L 109 4224 
L 109 4102 
C 589 4051 653 3981 653 3528 
L 653 765 
C 653 236 589 159 109 121 
L 109 0 
L 1882 0 
L 1882 134 
C 1389 134 1306 219 1306 692 
L 1306 1984 
L 1664 1984 
L 3187 0 
L 4218 0 
L 4218 121 
z
M 1306 3762 
C 1306 3937 1376 3987 1632 3987 
C 2432 3987 2803 3716 2803 3123 
C 2803 2807 2669 2542 2438 2423 
C 2144 2258 1920 2221 1306 2221 
L 1306 3762 
z
" transform="scale(0.015625)"/>
      </defs>
      <use xlink:href="#NimbusRomNo9L-Regu-4e" transform="scale(0.996264)"/>
      <use xlink:href="#NimbusRomNo9L-Regu-52" transform="translate(71.929985 0) scale(0.996264)"/>
      <use xlink:href="#NimbusRomNo9L-Regu-69" transform="translate(163.286616 0) scale(0.996264)"/>
      <use xlink:href="#NimbusRomNo9L-Regu-6e" transform="translate(190.981786 0) scale(0.996264)"/>
      <use xlink:href="#NimbusRomNo9L-Regu-70" transform="translate(240.794986 0) scale(0.996264)"/>
      <use xlink:href="#NimbusRomNo9L-Regu-75" transform="translate(290.608187 0) scale(0.996264)"/>
      <use xlink:href="#NimbusRomNo9L-Regu-74" transform="translate(340.421387 0) scale(0.996264)"/>
     </g>
    </g>
   </g>
   <g id="LineCollection_1">
    <path d="M 60.729121 75.868479 
L 92.28547 75.868479 
" clip-path="url(#p4e3e49245a)" style="fill: none; stroke: #ff0000"/>
   </g>
   <g id="LineCollection_2">
    <path d="M 93.807055 70.556737 
L 125.363404 70.556737 
" clip-path="url(#p4e3e49245a)" style="fill: none; stroke: #ff0000"/>
   </g>
   <g id="LineCollection_3">
    <path d="M 159.962923 70.469159 
L 191.519272 70.469159 
" clip-path="url(#p4e3e49245a)" style="fill: none; stroke: #ff0000"/>
   </g>
   <g id="LineCollection_4">
    <path d="M 193.040857 75.860178 
L 224.597206 75.860178 
" clip-path="url(#p4e3e49245a)" style="fill: none; stroke: #ff0000"/>
   </g>
  </g>
 </g>
 <defs>
  <clipPath id="p4e3e49245a">
   <rect x="41.04775" y="13.474578" width="203.104282" height="82.70285"/>
  </clipPath>
 </defs>
</svg>
