<?xml version="1.0" encoding="utf-8" standalone="no"?>
<!DOCTYPE svg PUBLIC "-//W3C//DTD SVG 1.1//EN"
  "http://www.w3.org/Graphics/SVG/1.1/DTD/svg11.dtd">
<svg xmlns:xlink="http://www.w3.org/1999/xlink" width="247.141867pt" height="124.850544pt" viewBox="0 0 247.141867 124.850544" xmlns="http://www.w3.org/2000/svg" version="1.1">
 <metadata>
  <rdf:RDF xmlns:dc="http://purl.org/dc/elements/1.1/" xmlns:cc="http://creativecommons.org/ns#" xmlns:rdf="http://www.w3.org/1999/02/22-rdf-syntax-ns#">
   <cc:Work>
    <dc:type rdf:resource="http://purl.org/dc/dcmitype/StillImage"/>
    <dc:date>2026-04-22T09:27:37.582554</dc:date>
    <dc:format>image/svg+xml</dc:format>
    <dc:creator>
     <cc:Agent>
      <dc:title>Matplotlib v3.10.8, https://matplotlib.org/</dc:title>
     </cc:Agent>
    </dc:creator>
   </cc:Work>
  </rdf:RDF>
 </metadata>
 <defs>
  <style type="text/css">*{stroke-linejoin: round; stroke-linecap: butt}</style>
 </defs>
 <g id="figure_1">
  <g id="patch_1">
   <path d="M 0 124.850544 
L 247.141867 124.850544 
L 247.141867 0 
L 0 0 
z
" style="fill: #ffffff"/>
  </g>
  <g id="axes_1">
   <g id="patch_2">
    <path d="M 41.04775 96.198874 
L 244.245554 96.198874 
L 244.245554 13.474578 
L 41.04775 13.474578 
z
" style="fill: #ffffff"/>
   </g>
   <g id="matplotlib.axis_1">
    <g id="xtick_1">
     <g id="line2d_1">
      <path d="M 43.429856 96.198874 
L 43.429856 13.474578 
" clip-path="url(#p5aad78d936)" style="fill: none; stroke: #cccccc; stroke-width: 0.8; stroke-linecap: square"/>
     </g>
     <g id="line2d_2">
      <defs>
       <path id="m507780e238" d="M 0 0 
L 0 3.5 
" style="stroke: #000000; stroke-width: 0.8"/>
      </defs>
      <g>
       <use xlink:href="#m507780e238" x="43.429856" y="96.198874" style="stroke: #000000; stroke-width: 0.8"/>
      </g>
     </g>
     <g id="text_1">
      <!-- $\mathdefault{−60}$ -->
      <g transform="translate(35.463278 109.277991) scale(0.09 -0.09)">
       <defs>
        <path id="CMSY10-0" d="M 4218 1472 
C 4326 1472 4442 1472 4442 1600 
C 4442 1728 4326 1728 4218 1728 
L 755 1728 
C 646 1728 531 1728 531 1600 
C 531 1472 646 1472 755 1472 
L 4218 1472 
z
" transform="scale(0.015625)"/>
        <path id="NimbusRomNo9L-Regu-36" d="M 2854 4391 
C 2125 4327 1754 4205 1286 3879 
C 595 3386 218 2656 218 1802 
C 218 1248 390 688 666 370 
C 909 89 1254 -64 1651 -64 
C 2445 -64 2995 541 2995 1421 
C 2995 2236 2528 2752 1792 2752 
C 1510 2752 1376 2707 973 2464 
C 1146 3431 1862 4122 2867 4288 
L 2854 4391 
z
M 1549 2458 
C 2099 2458 2419 2000 2419 1204 
C 2419 504 2170 116 1722 116 
C 1158 116 813 714 813 1700 
C 813 2025 864 2203 992 2299 
C 1126 2400 1325 2458 1549 2458 
z
" transform="scale(0.015625)"/>
        <path id="NimbusRomNo9L-Regu-30" d="M 1626 4352 
C 1274 4352 1005 4244 768 4020 
C 397 3661 154 2925 154 2176 
C 154 1479 365 730 666 372 
C 902 90 1229 -64 1600 -64 
C 1926 -64 2202 45 2432 269 
C 2803 621 3046 1364 3046 2138 
C 3046 3450 2464 4352 1626 4352 
z
M 1606 4186 
C 2144 4186 2432 3463 2432 2125 
C 2432 788 2150 103 1600 103 
C 1050 103 768 788 768 2119 
C 768 3476 1056 4186 1606 4186 
z
" transform="scale(0.015625)"/>
       </defs>
       <use xlink:href="#CMSY10-0" transform="scale(0.996264)"/>
       <use xlink:href="#NimbusRomNo9L-Regu-36" transform="translate(77.408707 0) scale(0.996264)"/>
       <use xlink:href="#NimbusRomNo9L-Regu-30" transform="translate(127.221908 0) scale(0.996264)"/>
      </g>
     </g>
    </g>
    <g id="xtick_2">
     <g id="line2d_3">
      <path d="M 76.51466 96.198874 
L 76.51466 13.474578 
" clip-path="url(#p5aad78d936)" style="fill: none; stroke: #cccccc; stroke-width: 0.8; stroke-linecap: square"/>
     </g>
     <g id="line2d_4">
      <g>
       <use xlink:href="#m507780e238" x="76.51466" y="96.198874" style="stroke: #000000; stroke-width: 0.8"/>
      </g>
     </g>
     <g id="text_2">
      <!-- $\mathdefault{−40}$ -->
      <g transform="translate(68.548082 109.277991) scale(0.09 -0.09)">
       <defs>
        <path id="NimbusRomNo9L-Regu-34" d="M 3021 1497 
L 2368 1497 
L 2368 4352 
L 2086 4352 
L 77 1497 
L 77 1088 
L 1875 1088 
L 1875 32 
L 2368 32 
L 2368 1088 
L 3021 1088 
L 3021 1497 
z
M 1869 1497 
L 333 1497 
L 1869 3698 
L 1869 1497 
z
" transform="scale(0.015625)"/>
       </defs>
       <use xlink:href="#CMSY10-0" transform="scale(0.996264)"/>
       <use xlink:href="#NimbusRomNo9L-Regu-34" transform="translate(77.408707 0) scale(0.996264)"/>
       <use xlink:href="#NimbusRomNo9L-Regu-30" transform="translate(127.221908 0) scale(0.996264)"/>
      </g>
     </g>
    </g>
    <g id="xtick_3">
     <g id="line2d_5">
      <path d="M 109.599463 96.198874 
L 109.599463 13.474578 
" clip-path="url(#p5aad78d936)" style="fill: none; stroke: #cccccc; stroke-width: 0.8; stroke-linecap: square"/>
     </g>
     <g id="line2d_6">
      <g>
       <use xlink:href="#m507780e238" x="109.599463" y="96.198874" style="stroke: #000000; stroke-width: 0.8"/>
      </g>
     </g>
     <g id="text_3">
      <!-- $\mathdefault{−20}$ -->
      <g transform="translate(101.632886 109.277991) scale(0.09 -0.09)">
       <defs>
        <path id="NimbusRomNo9L-Regu-32" d="M 3040 875 
L 2957 907 
C 2720 544 2637 486 2349 486 
L 819 486 
L 1894 1609 
C 2464 2202 2714 2687 2714 3185 
C 2714 3823 2195 4313 1530 4313 
C 1178 4313 845 4173 608 3918 
C 403 3700 307 3496 198 3043 
L 333 3011 
C 589 3636 819 3840 1261 3840 
C 1798 3840 2163 3476 2163 2940 
C 2163 2443 1869 1850 1331 1282 
L 192 77 
L 192 0 
L 2688 0 
L 3040 875 
z
" transform="scale(0.015625)"/>
       </defs>
       <use xlink:href="#CMSY10-0" transform="scale(0.996264)"/>
       <use xlink:href="#NimbusRomNo9L-Regu-32" transform="translate(77.408707 0) scale(0.996264)"/>
       <use xlink:href="#NimbusRomNo9L-Regu-30" transform="translate(127.221908 0) scale(0.996264)"/>
      </g>
     </g>
    </g>
    <g id="xtick_4">
     <g id="line2d_7">
      <path d="M 142.684267 96.198874 
L 142.684267 13.474578 
" clip-path="url(#p5aad78d936)" style="fill: none; stroke: #cccccc; stroke-width: 0.8; stroke-linecap: square"/>
     </g>
     <g id="line2d_8">
      <g>
       <use xlink:href="#m507780e238" x="142.684267" y="96.198874" style="stroke: #000000; stroke-width: 0.8"/>
      </g>
     </g>
     <g id="text_4">
      <!-- $\mathdefault{0}$ -->
      <g transform="translate(140.442673 109.277991) scale(0.09 -0.09)">
       <use xlink:href="#NimbusRomNo9L-Regu-30" transform="scale(0.996264)"/>
      </g>
     </g>
    </g>
    <g id="xtick_5">
     <g id="line2d_9">
      <path d="M 175.769071 96.198874 
L 175.769071 13.474578 
" clip-path="url(#p5aad78d936)" style="fill: none; stroke: #cccccc; stroke-width: 0.8; stroke-linecap: square"/>
     </g>
     <g id="line2d_10">
      <g>
       <use xlink:href="#m507780e238" x="175.769071" y="96.198874" style="stroke: #000000; stroke-width: 0.8"/>
      </g>
     </g>
     <g id="text_5">
      <!-- $\mathdefault{20}$ -->
      <g transform="translate(171.285883 109.277991) scale(0.09 -0.09)">
       <use xlink:href="#NimbusRomNo9L-Regu-32" transform="scale(0.996264)"/>
       <use xlink:href="#NimbusRomNo9L-Regu-30" transform="translate(49.8132 0) scale(0.996264)"/>
      </g>
     </g>
    </g>
    <g id="xtick_6">
     <g id="line2d_11">
      <path d="M 208.853875 96.198874 
L 208.853875 13.474578 
" clip-path="url(#p5aad78d936)" style="fill: none; stroke: #cccccc; stroke-width: 0.8; stroke-linecap: square"/>
     </g>
     <g id="line2d_12">
      <g>
       <use xlink:href="#m507780e238" x="208.853875" y="96.198874" style="stroke: #000000; stroke-width: 0.8"/>
      </g>
     </g>
     <g id="text_6">
      <!-- $\mathdefault{40}$ -->
      <g transform="translate(204.370687 109.277991) scale(0.09 -0.09)">
       <use xlink:href="#NimbusRomNo9L-Regu-34" transform="scale(0.996264)"/>
       <use xlink:href="#NimbusRomNo9L-Regu-30" transform="translate(49.8132 0) scale(0.996264)"/>
      </g>
     </g>
    </g>
    <g id="xtick_7">
     <g id="line2d_13">
      <path d="M 241.938679 96.198874 
L 241.938679 13.474578 
" clip-path="url(#p5aad78d936)" style="fill: none; stroke: #cccccc; stroke-width: 0.8; stroke-linecap: square"/>
     </g>
     <g id="line2d_14">
      <g>
       <use xlink:href="#m507780e238" x="241.938679" y="96.198874" style="stroke: #000000; stroke-width: 0.8"/>
      </g>
     </g>
     <g id="text_7">
      <!-- $\mathdefault{60}$ -->
      <g transform="translate(237.455491 109.277991) scale(0.09 -0.09)">
       <use xlink:href="#NimbusRomNo9L-Regu-36" transform="scale(0.996264)"/>
       <use xlink:href="#NimbusRomNo9L-Regu-30" transform="translate(49.8132 0) scale(0.996264)"/>
      </g>
     </g>
    </g>
    <g id="text_8">
     <!-- Frequency [MHz] -->
     <g transform="translate(106.895951 121.973715) scale(0.1 -0.1)">
      <defs>
       <path id="NimbusRomNo9L-Regu-46" d="M 3066 1472 
L 3066 2957 
L 2918 2957 
C 2842 2461 2726 2368 2214 2368 
L 1286 2368 
L 1286 3766 
C 1286 3943 1318 3981 1491 3981 
L 2362 3981 
C 3085 3981 3226 3886 3334 3314 
L 3494 3314 
L 3475 4224 
L 77 4224 
L 77 4102 
C 550 4064 634 3974 634 3525 
L 634 749 
C 634 217 563 134 77 134 
L 77 0 
L 1869 0 
L 1869 134 
C 1376 134 1286 225 1286 692 
L 1286 2106 
L 2214 2106 
C 2733 2106 2842 2007 2918 1472 
L 3066 1472 
z
" transform="scale(0.015625)"/>
       <path id="NimbusRomNo9L-Regu-72" d="M 45 2496 
C 134 2515 192 2522 269 2522 
C 429 2522 486 2419 486 2138 
L 486 538 
C 486 218 442 173 32 96 
L 32 0 
L 1568 0 
L 1568 102 
C 1133 102 1024 199 1024 565 
L 1024 2013 
C 1024 2219 1299 2541 1472 2541 
C 1510 2541 1568 2509 1638 2445 
C 1741 2355 1811 2317 1894 2317 
C 2048 2317 2144 2426 2144 2605 
C 2144 2816 2010 2944 1792 2944 
C 1523 2944 1338 2797 1024 2343 
L 1024 2931 
L 992 2944 
C 653 2803 422 2721 45 2599 
L 45 2496 
z
" transform="scale(0.015625)"/>
       <path id="NimbusRomNo9L-Regu-65" d="M 2611 1053 
C 2304 564 2029 378 1619 378 
C 1254 378 979 564 794 930 
C 678 1174 634 1386 621 1779 
L 2592 1779 
C 2541 2193 2477 2377 2317 2581 
C 2125 2811 1830 2944 1498 2944 
C 1178 2944 877 2829 634 2611 
C 333 2349 160 1894 160 1370 
C 160 486 621 -64 1357 -64 
C 1965 -64 2445 315 2714 1008 
L 2611 1053 
z
M 634 1984 
C 704 2479 922 2714 1312 2714 
C 1702 2714 1856 2535 1939 1984 
L 634 1984 
z
" transform="scale(0.015625)"/>
       <path id="NimbusRomNo9L-Regu-71" d="M 2304 2701 
C 2010 2874 1818 2931 1568 2931 
C 768 2931 154 2218 154 1300 
C 154 498 576 -70 1178 -70 
C 1549 -70 1901 96 2182 403 
L 2182 -824 
C 2182 -1188 2067 -1286 1613 -1286 
L 1613 -1408 
L 3123 -1408 
L 3123 -1318 
C 2771 -1241 2720 -1190 2720 -921 
L 2720 2906 
L 2650 2906 
L 2304 2701 
z
M 2182 804 
C 2182 651 2157 569 2093 518 
C 1952 397 1741 320 1542 320 
C 1344 320 1171 384 1043 511 
C 838 696 704 1110 704 1530 
C 704 2282 1043 2752 1587 2752 
C 1984 2752 2182 2542 2182 2115 
L 2182 804 
z
" transform="scale(0.015625)"/>
       <path id="NimbusRomNo9L-Regu-75" d="M 3066 320 
L 3034 320 
C 2739 320 2669 390 2669 685 
L 2669 2880 
L 1658 2880 
L 1658 2758 
C 2054 2758 2131 2694 2131 2375 
L 2131 875 
C 2131 697 2099 607 2010 537 
C 1837 397 1638 320 1446 320 
C 1197 320 992 537 992 805 
L 992 2880 
L 58 2880 
L 58 2778 
C 365 2778 454 2682 454 2387 
L 454 770 
C 454 263 762 -64 1229 -64 
C 1466 -64 1715 38 1888 211 
L 2163 486 
L 2163 -45 
L 2189 -58 
C 2509 70 2739 141 3066 230 
L 3066 320 
z
" transform="scale(0.015625)"/>
       <path id="NimbusRomNo9L-Regu-6e" d="M 102 2579 
C 141 2598 205 2605 275 2605 
C 454 2605 512 2509 512 2195 
L 512 608 
C 512 243 442 154 115 128 
L 115 32 
L 1472 32 
L 1472 128 
C 1146 154 1050 230 1050 461 
L 1050 2259 
C 1357 2547 1498 2624 1709 2624 
C 2022 2624 2176 2426 2176 2003 
L 2176 666 
C 2176 262 2093 154 1773 128 
L 1773 32 
L 3104 32 
L 3104 128 
C 2790 160 2714 237 2714 550 
L 2714 2016 
C 2714 2618 2432 2976 1958 2976 
C 1664 2976 1466 2867 1030 2458 
L 1030 2963 
L 986 2976 
C 672 2861 454 2790 102 2688 
L 102 2579 
z
" transform="scale(0.015625)"/>
       <path id="NimbusRomNo9L-Regu-63" d="M 2547 998 
C 2240 550 2010 397 1645 397 
C 1062 397 653 909 653 1645 
C 653 2304 1005 2758 1523 2758 
C 1754 2758 1837 2688 1901 2451 
L 1939 2310 
C 1990 2131 2106 2016 2240 2016 
C 2406 2016 2547 2138 2547 2285 
C 2547 2643 2099 2944 1562 2944 
C 1248 2944 922 2816 659 2586 
C 339 2304 160 1869 160 1363 
C 160 531 666 -64 1376 -64 
C 1664 -64 1920 38 2150 237 
C 2323 390 2445 563 2637 941 
L 2547 998 
z
" transform="scale(0.015625)"/>
       <path id="NimbusRomNo9L-Regu-79" d="M 3040 2880 
L 2176 2880 
L 2176 2784 
C 2381 2784 2483 2726 2483 2623 
C 2483 2597 2477 2559 2458 2514 
L 1837 742 
L 1101 2377 
C 1062 2468 1037 2552 1037 2622 
C 1037 2739 1133 2784 1408 2784 
L 1408 2880 
L 90 2880 
L 90 2790 
C 256 2765 365 2694 416 2585 
L 1146 1005 
L 1165 953 
L 1261 761 
C 1440 440 1542 209 1542 112 
C 1542 16 1395 -389 1286 -582 
C 1197 -749 1056 -871 966 -871 
C 928 -871 870 -858 806 -826 
C 685 -781 576 -755 467 -755 
C 320 -755 192 -883 192 -1037 
C 192 -1248 397 -1408 666 -1408 
C 1094 -1408 1402 -1049 1747 -124 
L 2733 2495 
C 2816 2701 2886 2765 3040 2784 
L 3040 2880 
z
" transform="scale(0.015625)"/>
       <path id="NimbusRomNo9L-Regu-5b" d="M 1914 -864 
L 1363 -864 
C 1152 -864 1050 -756 1050 -531 
L 1050 3781 
C 1050 3981 1133 4064 1338 4064 
L 1914 4064 
L 1914 4224 
L 563 4224 
L 563 -1024 
L 1914 -1024 
L 1914 -864 
z
" transform="scale(0.015625)"/>
       <path id="NimbusRomNo9L-Regu-4d" d="M 4314 3667 
L 4314 751 
C 4314 217 4237 134 3731 134 
L 3731 0 
L 5523 0 
L 5523 134 
C 5056 134 4966 223 4966 681 
L 4966 3536 
C 4966 3993 5050 4077 5523 4115 
L 5523 4237 
L 4250 4237 
L 2835 1004 
L 1357 4237 
L 90 4237 
L 90 4096 
C 614 4096 698 4019 698 3550 
L 698 943 
C 698 282 608 159 77 121 
L 77 0 
L 1581 0 
L 1581 134 
C 1088 134 979 282 979 931 
L 979 3520 
L 2586 0 
L 2675 0 
L 4314 3667 
z
" transform="scale(0.015625)"/>
       <path id="NimbusRomNo9L-Regu-48" d="M 1338 2304 
L 1338 3533 
C 1338 3990 1408 4059 1901 4104 
L 1901 4224 
L 122 4224 
L 122 4104 
C 614 4059 685 3989 685 3527 
L 685 749 
C 685 210 621 134 122 134 
L 122 0 
L 1901 0 
L 1901 121 
C 1421 159 1338 242 1338 699 
L 1338 2022 
L 3277 2022 
L 3277 757 
C 3277 211 3213 134 2714 134 
L 2714 0 
L 4493 0 
L 4493 121 
C 4013 159 3930 242 3930 696 
L 3930 3529 
C 3930 3989 4000 4059 4493 4104 
L 4493 4224 
L 2714 4224 
L 2714 4104 
C 3206 4059 3277 3990 3277 3533 
L 3277 2304 
L 1338 2304 
z
" transform="scale(0.015625)"/>
       <path id="NimbusRomNo9L-Regu-7a" d="M 2675 864 
L 2560 890 
C 2496 570 2458 467 2374 358 
C 2285 250 2067 192 1741 192 
L 858 192 
L 2579 2784 
L 2579 2880 
L 358 2880 
L 339 2125 
L 454 2125 
C 512 2592 608 2688 992 2688 
L 1875 2688 
L 173 96 
L 173 0 
L 2586 0 
L 2675 864 
z
" transform="scale(0.015625)"/>
       <path id="NimbusRomNo9L-Regu-5d" d="M 218 -864 
L 218 -1024 
L 1568 -1024 
L 1568 4224 
L 218 4224 
L 218 4064 
L 768 4064 
C 979 4064 1082 3955 1082 3730 
L 1082 -582 
C 1082 -781 992 -864 794 -864 
L 218 -864 
z
" transform="scale(0.015625)"/>
      </defs>
      <use xlink:href="#NimbusRomNo9L-Regu-46" transform="scale(0.996264)"/>
      <use xlink:href="#NimbusRomNo9L-Regu-72" transform="translate(55.391677 0) scale(0.996264)"/>
      <use xlink:href="#NimbusRomNo9L-Regu-65" transform="translate(88.566907 0) scale(0.996264)"/>
      <use xlink:href="#NimbusRomNo9L-Regu-71" transform="translate(132.800475 0) scale(0.996264)"/>
      <use xlink:href="#NimbusRomNo9L-Regu-75" transform="translate(182.613676 0) scale(0.996264)"/>
      <use xlink:href="#NimbusRomNo9L-Regu-65" transform="translate(232.426876 0) scale(0.996264)"/>
      <use xlink:href="#NimbusRomNo9L-Regu-6e" transform="translate(276.660445 0) scale(0.996264)"/>
      <use xlink:href="#NimbusRomNo9L-Regu-63" transform="translate(326.473646 0) scale(0.996264)"/>
      <use xlink:href="#NimbusRomNo9L-Regu-79" transform="translate(369.213822 0) scale(0.996264)"/>
      <use xlink:href="#NimbusRomNo9L-Regu-5b" transform="translate(443.933622 0) scale(0.996264)"/>
      <use xlink:href="#NimbusRomNo9L-Regu-4d" transform="translate(477.108852 0) scale(0.996264)"/>
      <use xlink:href="#NimbusRomNo9L-Regu-48" transform="translate(565.675759 0) scale(0.996264)"/>
      <use xlink:href="#NimbusRomNo9L-Regu-7a" transform="translate(637.605744 0) scale(0.996264)"/>
      <use xlink:href="#NimbusRomNo9L-Regu-5d" transform="translate(681.839312 0) scale(0.996264)"/>
     </g>
    </g>
   </g>
   <g id="matplotlib.axis_2">
    <g id="ytick_1">
     <g id="line2d_15">
      <path d="M 41.04775 89.305183 
L 244.245554 89.305183 
" clip-path="url(#p5aad78d936)" style="fill: none; stroke: #cccccc; stroke-width: 0.8; stroke-linecap: square"/>
     </g>
     <g id="line2d_16">
      <defs>
       <path id="ma2e39dff02" d="M 0 0 
L -3.5 0 
" style="stroke: #000000; stroke-width: 0.8"/>
      </defs>
      <g>
       <use xlink:href="#ma2e39dff02" x="41.04775" y="89.305183" style="stroke: #000000; stroke-width: 0.8"/>
      </g>
     </g>
     <g id="text_9">
      <!-- $\mathdefault{−100}$ -->
      <g transform="translate(13.631406 92.344741) scale(0.09 -0.09)">
       <defs>
        <path id="NimbusRomNo9L-Regu-31" d="M 1862 4339 
L 710 3757 
L 710 3667 
C 787 3699 858 3725 883 3738 
C 998 3783 1107 3808 1171 3808 
C 1306 3808 1363 3711 1363 3505 
L 1363 592 
C 1363 379 1312 232 1210 173 
C 1114 116 1024 96 755 96 
L 755 0 
L 2522 0 
L 2522 96 
C 2016 96 1914 160 1914 470 
L 1914 4327 
L 1862 4339 
z
" transform="scale(0.015625)"/>
       </defs>
       <use xlink:href="#CMSY10-0" transform="scale(0.996264)"/>
       <use xlink:href="#NimbusRomNo9L-Regu-31" transform="translate(77.408707 0) scale(0.996264)"/>
       <use xlink:href="#NimbusRomNo9L-Regu-30" transform="translate(127.221908 0) scale(0.996264)"/>
       <use xlink:href="#NimbusRomNo9L-Regu-30" transform="translate(177.035108 0) scale(0.996264)"/>
      </g>
     </g>
    </g>
    <g id="ytick_2">
     <g id="line2d_17">
      <path d="M 41.04775 54.836726 
L 244.245554 54.836726 
" clip-path="url(#p5aad78d936)" style="fill: none; stroke: #cccccc; stroke-width: 0.8; stroke-linecap: square"/>
     </g>
     <g id="line2d_18">
      <g>
       <use xlink:href="#ma2e39dff02" x="41.04775" y="54.836726" style="stroke: #000000; stroke-width: 0.8"/>
      </g>
     </g>
     <g id="text_10">
      <!-- $\mathdefault{−50}$ -->
      <g transform="translate(18.114594 57.876284) scale(0.09 -0.09)">
       <defs>
        <path id="NimbusRomNo9L-Regu-35" d="M 1158 3776 
L 2413 3776 
C 2515 3776 2541 3789 2560 3834 
L 2803 4403 
L 2746 4448 
C 2650 4314 2586 4282 2451 4282 
L 1114 4282 
L 416 2759 
C 410 2746 410 2740 410 2727 
C 410 2695 435 2676 486 2676 
C 691 2676 947 2631 1210 2547 
C 1946 2309 2285 1910 2285 1274 
C 2285 656 1894 173 1395 173 
C 1267 173 1158 218 966 360 
C 762 508 614 572 480 572 
C 294 572 205 495 205 334 
C 205 90 506 -64 986 -64 
C 1523 -64 1984 110 2304 438 
C 2598 728 2733 1094 2733 1583 
C 2733 2046 2611 2342 2291 2663 
C 2010 2947 1645 3094 890 3229 
L 1158 3776 
z
" transform="scale(0.015625)"/>
       </defs>
       <use xlink:href="#CMSY10-0" transform="scale(0.996264)"/>
       <use xlink:href="#NimbusRomNo9L-Regu-35" transform="translate(77.408707 0) scale(0.996264)"/>
       <use xlink:href="#NimbusRomNo9L-Regu-30" transform="translate(127.221908 0) scale(0.996264)"/>
      </g>
     </g>
    </g>
    <g id="ytick_3">
     <g id="line2d_19">
      <path d="M 41.04775 20.368269 
L 244.245554 20.368269 
" clip-path="url(#p5aad78d936)" style="fill: none; stroke: #cccccc; stroke-width: 0.8; stroke-linecap: square"/>
     </g>
     <g id="line2d_20">
      <g>
       <use xlink:href="#ma2e39dff02" x="41.04775" y="20.368269" style="stroke: #000000; stroke-width: 0.8"/>
      </g>
     </g>
     <g id="text_11">
      <!-- $\mathdefault{0}$ -->
      <g transform="translate(29.564562 23.407827) scale(0.09 -0.09)">
       <use xlink:href="#NimbusRomNo9L-Regu-30" transform="scale(0.996264)"/>
      </g>
     </g>
    </g>
    <g id="text_12">
     <!-- PSD [dB] -->
     <g transform="translate(7.474578 74.348396) rotate(-90) scale(0.1 -0.1)">
      <defs>
       <path id="NimbusRomNo9L-Regu-50" d="M 1293 1875 
C 1459 1856 1568 1856 1734 1856 
C 2234 1856 2579 1919 2854 2072 
C 3238 2274 3469 2660 3469 3078 
C 3469 3344 3379 3584 3206 3768 
C 2950 4047 2394 4224 1792 4224 
L 102 4224 
L 102 4102 
C 576 4051 640 3987 640 3528 
L 640 766 
C 640 230 589 166 102 122 
L 102 0 
L 1894 0 
L 1894 128 
C 1389 128 1293 218 1293 693 
L 1293 1875 
z
M 1293 3772 
C 1293 3943 1338 3987 1510 3987 
C 2374 3987 2771 3690 2771 3040 
C 2771 2428 2394 2112 1658 2112 
C 1530 2112 1440 2119 1293 2131 
L 1293 3772 
z
" transform="scale(0.015625)"/>
       <path id="NimbusRomNo9L-Regu-53" d="M 2861 4352 
L 2726 4352 
C 2701 4205 2630 4135 2522 4135 
C 2458 4135 2349 4160 2240 4212 
C 2003 4301 1766 4352 1562 4352 
C 1286 4352 1005 4244 794 4058 
C 570 3859 454 3590 454 3256 
C 454 2743 736 2385 1453 2006 
C 1914 1763 2246 1499 2406 1256 
C 2464 1173 2496 1038 2496 884 
C 2496 454 2176 160 1709 160 
C 1139 160 736 513 416 1296 
L 269 1296 
L 461 -64 
L 602 -64 
C 608 57 685 147 781 147 
C 851 147 960 122 1082 79 
C 1325 -14 1581 -64 1837 -64 
C 2573 -64 3142 442 3142 1101 
C 3142 1626 2790 2042 1946 2496 
C 1274 2868 1005 3149 1005 3495 
C 1005 3847 1274 4090 1670 4090 
C 1958 4090 2227 3968 2451 3738 
C 2650 3533 2739 3367 2842 2989 
L 3002 2989 
L 2861 4352 
z
" transform="scale(0.015625)"/>
       <path id="NimbusRomNo9L-Regu-44" d="M 666 679 
C 666 217 589 134 102 134 
L 102 0 
L 1920 0 
C 2662 0 3334 210 3731 568 
C 4147 944 4384 1512 4384 2131 
C 4384 2706 4192 3203 3840 3554 
C 3405 3994 2707 4224 1830 4224 
L 102 4224 
L 102 4102 
C 608 4057 666 4000 666 3525 
L 666 679 
z
M 1318 3738 
C 1318 3936 1389 3987 1651 3987 
C 2202 3987 2618 3885 2925 3668 
C 3424 3323 3686 2775 3686 2087 
C 3686 1334 3424 798 2906 498 
C 2579 314 2208 237 1651 237 
C 1395 237 1318 294 1318 498 
L 1318 3738 
z
" transform="scale(0.015625)"/>
       <path id="NimbusRomNo9L-Regu-64" d="M 2202 -64 
L 3142 269 
L 3142 365 
C 3027 365 3014 365 2995 365 
C 2765 365 2714 435 2714 731 
L 2714 4364 
L 2682 4377 
C 2374 4268 2150 4204 1741 4096 
L 1741 3994 
C 1792 4000 1830 4000 1882 4000 
C 2118 4000 2176 3936 2176 3672 
L 2176 2669 
C 1933 2874 1760 2944 1504 2944 
C 768 2944 173 2221 173 1312 
C 173 493 653 -64 1357 -64 
C 1715 -64 1958 64 2176 365 
L 2176 -45 
L 2202 -64 
z
M 2176 653 
C 2176 608 2131 531 2067 461 
C 1952 333 1792 269 1606 269 
C 1075 269 723 781 723 1568 
C 723 2291 1037 2765 1523 2765 
C 1862 2765 2176 2464 2176 2125 
L 2176 653 
z
" transform="scale(0.015625)"/>
       <path id="NimbusRomNo9L-Regu-42" d="M 109 4237 
L 109 4096 
C 646 4096 723 4026 723 3548 
L 723 689 
C 723 212 640 128 109 128 
L 109 0 
L 2246 0 
C 2746 0 3200 136 3437 356 
C 3667 564 3795 855 3795 1165 
C 3795 1451 3680 1710 3482 1897 
C 3290 2072 3117 2150 2701 2253 
C 3034 2335 3168 2398 3322 2531 
C 3482 2671 3578 2903 3578 3163 
C 3578 3871 3008 4237 1901 4237 
L 109 4237 
z
M 1376 2112 
C 1997 2112 2291 2080 2522 1982 
C 2886 1827 3059 1568 3059 1159 
C 3059 809 2925 555 2669 406 
C 2464 290 2202 238 1779 238 
C 1466 238 1376 296 1376 504 
L 1376 2112 
z
M 1376 2368 
L 1376 3812 
C 1376 3944 1421 4001 1517 4001 
L 1798 4001 
C 2534 4001 2925 3699 2925 3137 
C 2925 2646 2586 2368 1984 2368 
L 1376 2368 
z
" transform="scale(0.015625)"/>
      </defs>
      <use xlink:href="#NimbusRomNo9L-Regu-50" transform="scale(0.996264)"/>
      <use xlink:href="#NimbusRomNo9L-Regu-53" transform="translate(55.391677 0) scale(0.996264)"/>
      <use xlink:href="#NimbusRomNo9L-Regu-44" transform="translate(110.783354 0) scale(0.996264)"/>
      <use xlink:href="#NimbusRomNo9L-Regu-5b" transform="translate(207.619939 0) scale(0.996264)"/>
      <use xlink:href="#NimbusRomNo9L-Regu-64" transform="translate(240.795169 0) scale(0.996264)"/>
      <use xlink:href="#NimbusRomNo9L-Regu-42" transform="translate(290.608369 0) scale(0.996264)"/>
      <use xlink:href="#NimbusRomNo9L-Regu-5d" transform="translate(357.0584 0) scale(0.996264)"/>
     </g>
    </g>
   </g>
   <g id="line2d_21">
    <path d="M 41.04775 94.424854 
L 41.198211 94.217236 
L 41.348672 94.391307 
L 41.499133 94.185555 
L 41.649594 94.391814 
L 41.800056 94.217541 
L 41.950517 94.424966 
L 42.100978 94.21596 
L 42.251439 94.38947 
L 42.4019 94.184663 
L 42.552361 94.390662 
L 42.702823 94.216914 
L 42.853284 94.422154 
L 43.003745 94.213237 
L 43.154206 94.385557 
L 43.304667 94.182621 
L 43.455128 94.388103 
L 43.60559 94.21528 
L 43.756051 94.418425 
L 43.906512 94.210024 
L 44.056973 94.381052 
L 44.207434 94.179804 
L 44.357895 94.384216 
L 44.508357 94.212328 
L 44.658818 94.41304 
L 44.809279 94.205155 
L 44.95974 94.374342 
L 45.110201 94.17512 
L 45.260662 94.378616 
L 45.411124 94.208361 
L 45.561585 94.406538 
L 45.712046 94.19938 
L 45.862507 94.36663 
L 46.012968 94.1702 
L 46.163429 94.372203 
L 46.313891 94.203875 
L 46.464352 94.397735 
L 46.614813 94.192622 
L 46.765274 94.356581 
L 46.915735 94.16431 
L 47.066196 94.363005 
L 47.216658 94.198014 
L 47.367119 94.387025 
L 47.51758 94.185294 
L 47.668041 94.345393 
L 47.818502 94.157876 
L 47.968963 94.352918 
L 48.119425 94.191726 
L 48.269886 94.375239 
L 48.420347 94.176921 
L 48.570808 94.332411 
L 48.721269 94.149874 
L 48.87173 94.340688 
L 49.022192 94.183669 
L 49.172653 94.361364 
L 49.323114 94.16715 
L 49.473575 94.318061 
L 49.624036 94.141046 
L 49.774497 94.327695 
L 49.924959 94.175155 
L 50.07542 94.346655 
L 50.225881 94.15667 
L 50.376342 94.302269 
L 50.526803 94.131453 
L 50.677264 94.312384 
L 50.827726 94.165167 
L 50.978187 94.329038 
L 51.128648 94.145022 
L 51.279109 94.284445 
L 51.42957 94.120967 
L 51.580031 94.29557 
L 51.730493 94.154489 
L 51.880954 94.31071 
L 52.031415 94.133047 
L 52.181876 94.26592 
L 52.332337 94.109384 
L 52.482798 94.277164 
L 52.63326 94.142172 
L 52.783721 94.290582 
L 52.934182 94.119101 
L 53.084643 94.24516 
L 53.235104 94.095848 
L 53.385565 94.257393 
L 53.536027 94.1289 
L 53.686488 94.269744 
L 53.836949 94.104089 
L 53.98741 94.223872 
L 54.137871 94.0818 
L 54.288332 94.237065 
L 54.438794 94.114302 
L 54.589255 94.246636 
L 54.739716 94.087568 
L 54.890177 94.200372 
L 55.040638 94.066297 
L 55.191099 94.213934 
L 55.341561 94.098319 
L 55.492022 94.222103 
L 55.642483 94.070619 
L 55.792944 94.175926 
L 55.943405 94.050074 
L 56.093866 94.190208 
L 56.244328 94.081845 
L 56.394789 94.196519 
L 56.54525 94.051905 
L 56.695711 94.149334 
L 56.846172 94.031888 
L 56.996633 94.164495 
L 57.147095 94.063335 
L 57.297556 94.168823 
L 57.448017 94.031634 
L 57.598478 94.121871 
L 57.748939 94.013025 
L 57.8994 94.138407 
L 58.049862 94.044033 
L 58.200323 94.140533 
L 58.350784 94.010384 
L 58.501245 94.093034 
L 58.651706 93.992586 
L 58.802167 94.109619 
L 58.952629 94.023004 
L 59.027859 94.156126 
L 59.10309 94.10954 
L 59.253551 93.98778 
L 59.328781 94.109422 
L 59.404012 94.061839 
L 59.479243 93.928709 
L 59.554473 93.971353 
L 59.704934 94.079843 
L 59.855396 94.001788 
L 59.930626 94.132341 
L 60.005857 94.077744 
L 60.156318 93.964548 
L 60.231548 94.084332 
L 60.306779 94.02981 
L 60.38201 93.899257 
L 60.45724 93.94917 
L 60.607701 94.04822 
L 60.682932 93.926479 
L 60.758163 93.978272 
L 60.833393 94.105963 
L 60.908624 94.043376 
L 61.059085 93.93927 
L 61.134315 94.05708 
L 61.209546 93.995714 
L 61.284777 93.867985 
L 61.360007 93.925104 
L 61.435238 94.062121 
L 61.510468 94.014952 
L 61.585699 93.895444 
L 61.66093 93.953727 
L 61.73616 94.07871 
L 61.811391 94.00873 
L 61.886621 93.869296 
L 61.961852 93.913341 
L 62.037082 94.028991 
L 62.112313 93.961368 
L 62.187544 93.836526 
L 62.262774 93.900099 
L 62.338005 94.034666 
L 62.413235 93.980808 
L 62.488466 93.863654 
L 62.563697 93.927431 
L 62.638927 94.048712 
L 62.714158 93.971728 
L 62.789388 93.835314 
L 62.864619 93.885525 
L 62.939849 93.998102 
L 63.01508 93.924297 
L 63.090311 93.803172 
L 63.165541 93.873221 
L 63.240772 94.004445 
L 63.316002 93.94383 
L 63.391233 93.830029 
L 63.466464 93.899867 
L 63.541694 94.017221 
L 63.616925 93.933395 
L 63.692155 93.800684 
L 63.767386 93.857341 
L 63.842616 93.96661 
L 63.917847 93.88659 
L 63.993078 93.769364 
L 64.068308 93.845903 
L 64.143539 93.973647 
L 64.218769 93.906281 
L 64.294 93.795758 
L 64.369231 93.871418 
L 64.444461 93.984543 
L 64.594922 93.764269 
L 64.670153 93.827066 
L 64.745383 93.932794 
L 64.895845 93.733162 
L 64.971075 93.816141 
L 65.046306 93.940289 
L 65.121536 93.866216 
L 65.196767 93.759074 
L 65.271998 93.840503 
L 65.347228 93.949408 
L 65.497689 93.726266 
L 65.57292 93.795371 
L 65.64815 93.89787 
L 65.798612 93.696574 
L 65.873842 93.785623 
L 65.949073 93.90631 
L 66.024303 93.826137 
L 66.099534 93.722166 
L 66.249995 93.91318 
L 66.400456 93.687884 
L 66.475687 93.762268 
L 66.550917 93.860899 
L 66.701379 93.658582 
L 66.85184 93.868808 
L 66.92707 93.78283 
L 67.002301 93.683079 
L 67.152762 93.874034 
L 67.303223 93.647588 
L 67.378454 93.727377 
L 67.453684 93.821407 
L 67.604146 93.619162 
L 67.754607 93.830598 
L 67.829837 93.739134 
L 67.905068 93.644044 
L 68.055529 93.834365 
L 68.20599 93.606583 
L 68.281221 93.691655 
L 68.356451 93.780936 
L 68.506913 93.578757 
L 68.657374 93.790463 
L 68.807835 93.602405 
L 68.958296 93.791488 
L 69.108757 93.56299 
L 69.259218 93.737714 
L 69.40968 93.536165 
L 69.560141 93.748156 
L 69.710602 93.560159 
L 69.861063 93.748103 
L 70.011524 93.519393 
L 70.161985 93.693299 
L 70.312447 93.493429 
L 70.462908 93.704459 
L 70.613369 93.517149 
L 70.76383 93.701178 
L 70.914291 93.473332 
L 71.064752 93.645159 
L 71.215214 93.448745 
L 71.365675 93.657771 
L 71.516136 93.472195 
L 71.666597 93.652203 
L 71.817058 93.42702 
L 71.967519 93.596905 
L 72.117981 93.404086 
L 72.268442 93.610075 
L 72.418903 93.426222 
L 72.569364 93.601894 
L 72.719825 93.378941 
L 72.870286 93.545556 
L 73.020748 93.355915 
L 73.171209 93.558855 
L 73.32167 93.377805 
L 73.472131 93.549217 
L 73.622592 93.329022 
L 73.773053 93.492726 
L 73.923515 93.307776 
L 74.073976 93.507633 
L 74.224437 93.329413 
L 74.374898 93.494912 
L 74.525359 93.278242 
L 74.67582 93.437845 
L 74.826282 93.257701 
L 74.976743 93.452332 
L 75.127204 93.277366 
L 75.277665 93.436914 
L 75.428126 93.225189 
L 75.578587 93.380957 
L 75.729049 93.206223 
L 75.87951 93.396146 
L 76.029971 93.224984 
L 76.180432 93.379082 
L 76.330893 93.17166 
L 76.481354 93.323426 
L 76.631816 93.152669 
L 76.782277 93.337465 
L 76.932738 93.16883 
L 77.083199 93.317765 
L 77.23366 93.11449 
L 77.384121 93.262868 
L 77.534583 93.096133 
L 77.685044 93.276949 
L 77.835505 93.111821 
L 77.985966 93.256402 
L 78.136427 93.057362 
L 78.286888 93.201733 
L 78.43735 93.039165 
L 78.587811 93.214862 
L 78.738272 93.052945 
L 78.888733 93.191354 
L 79.039194 92.99625 
L 79.189655 93.136383 
L 79.340117 92.978983 
L 79.490578 93.149703 
L 79.641039 92.991534 
L 79.7915 93.124602 
L 79.941961 92.934887 
L 80.092422 93.071421 
L 80.242883 92.918548 
L 80.393345 93.083898 
L 80.543806 92.928899 
L 80.694267 93.056407 
L 80.844728 92.870474 
L 80.995189 93.002032 
L 81.14565 92.853332 
L 81.296112 93.014157 
L 81.446573 92.863397 
L 81.597034 92.984963 
L 81.747495 92.803817 
L 81.897956 92.931042 
L 82.048417 92.789262 
L 82.198879 92.944377 
L 82.34934 92.798227 
L 82.499801 92.911526 
L 82.650262 92.736136 
L 82.800723 92.857145 
L 82.951184 92.721948 
L 83.101646 92.868973 
L 83.252107 92.728554 
L 83.402568 92.833571 
L 83.553029 92.666093 
L 83.70349 92.779901 
L 83.853951 92.653014 
L 84.004413 92.792781 
L 84.154874 92.660348 
L 84.305335 92.756103 
L 84.455796 92.595073 
L 84.606257 92.700459 
L 84.756718 92.582186 
L 84.90718 92.713814 
L 85.057641 92.587586 
L 85.208102 92.672112 
L 85.358563 92.519088 
L 85.509024 92.617171 
L 85.659485 92.509695 
L 85.809947 92.631583 
L 85.960408 92.513696 
L 86.035638 92.634942 
L 86.110869 92.587537 
L 86.26133 92.445247 
L 86.411791 92.533924 
L 86.562252 92.436096 
L 86.712714 92.546205 
L 86.863175 92.436776 
L 86.938405 92.554592 
L 87.013636 92.498666 
L 87.164097 92.366444 
L 87.314558 92.444453 
L 87.465019 92.357387 
L 87.615481 92.456485 
L 87.765942 92.357461 
L 87.841172 92.471612 
L 87.916403 92.408352 
L 88.066864 92.287219 
L 88.142095 92.404196 
L 88.217325 92.355721 
L 88.292556 92.231349 
L 88.367786 92.278833 
L 88.443017 92.410962 
L 88.518248 92.366997 
L 88.668709 92.275859 
L 88.743939 92.385573 
L 88.81917 92.315317 
L 88.969631 92.203037 
L 89.044862 92.316447 
L 89.120092 92.261974 
L 89.195323 92.141325 
L 89.270553 92.194132 
L 89.345784 92.321722 
L 89.421015 92.271271 
L 89.571476 92.189121 
L 89.646706 92.294009 
L 89.721937 92.218149 
L 89.872398 92.117151 
L 89.947629 92.226874 
L 90.022859 92.167534 
L 90.09809 92.05185 
L 90.17332 92.110109 
L 90.248551 92.232915 
L 90.323782 92.176389 
L 90.474243 92.10182 
L 90.549473 92.201682 
L 90.624704 92.120103 
L 90.699935 91.985755 
L 90.775165 92.028779 
L 90.850396 92.134896 
L 90.925626 92.070049 
L 91.000857 91.957548 
L 91.076087 92.01995 
L 91.151318 92.137633 
L 91.226549 92.074134 
L 91.301779 91.956629 
L 91.37701 92.007237 
L 91.45224 92.103305 
L 91.677932 91.936113 
L 91.753163 92.039095 
L 91.828393 91.969034 
L 91.903624 91.859924 
L 91.978854 91.926906 
L 92.054085 92.041196 
L 92.129316 91.972746 
L 92.204546 91.858649 
L 92.279777 91.914046 
L 92.355007 92.006986 
L 92.580699 91.8411 
L 92.65593 91.940941 
L 92.73116 91.866129 
L 92.806391 91.759462 
L 92.881621 91.830598 
L 92.956852 91.941381 
L 93.032083 91.867395 
L 93.107313 91.754991 
L 93.182544 91.813532 
L 93.257774 91.902078 
L 93.483466 91.73906 
L 93.558697 91.836642 
L 93.633927 91.757688 
L 93.709158 91.654804 
L 93.784388 91.730785 
L 93.859619 91.838036 
L 93.93485 91.758497 
L 94.01008 91.648696 
L 94.085311 91.711802 
L 94.160541 91.797474 
L 94.311002 91.575499 
L 94.386233 91.638829 
L 94.461464 91.733791 
L 94.611925 91.548319 
L 94.687155 91.628158 
L 94.762386 91.732115 
L 94.837617 91.646613 
L 94.912847 91.538599 
L 94.988078 91.606108 
L 95.063308 91.688478 
L 95.213769 91.461746 
L 95.289 91.529255 
L 95.364231 91.621144 
L 95.514692 91.432982 
L 95.589922 91.518676 
L 95.665153 91.620664 
L 95.815614 91.425229 
L 95.890845 91.496983 
L 95.966075 91.575791 
L 96.116536 91.346315 
L 96.191767 91.418533 
L 96.266998 91.508866 
L 96.417459 91.321057 
L 96.56792 91.509728 
L 96.718381 91.309732 
L 96.793612 91.383834 
L 96.868842 91.458263 
L 97.019303 91.22645 
L 97.094534 91.303009 
L 97.169765 91.389804 
L 97.320226 91.199742 
L 97.470687 91.387293 
L 97.621148 91.185812 
L 97.696379 91.264605 
L 97.771609 91.335456 
L 97.92207 91.104344 
L 98.072532 91.267585 
L 98.222993 91.077392 
L 98.373454 91.266504 
L 98.523915 91.064834 
L 98.674376 91.213106 
L 98.824837 90.977828 
L 98.975299 91.139317 
L 99.12576 90.948024 
L 99.276221 91.13723 
L 99.426682 90.932455 
L 99.577143 91.078463 
L 99.727604 90.843206 
L 99.878066 91.006128 
L 100.028527 90.816848 
L 100.178988 91.005674 
L 100.329449 90.800626 
L 100.47991 90.945581 
L 100.630371 90.709766 
L 100.780833 90.871868 
L 100.931294 90.680063 
L 101.081755 90.866782 
L 101.232216 90.657559 
L 101.382677 90.80058 
L 101.533138 90.56323 
L 101.6836 90.727917 
L 101.834061 90.534746 
L 101.984522 90.722021 
L 102.134983 90.511046 
L 102.285444 90.657163 
L 102.435905 90.418712 
L 102.586367 90.586785 
L 102.736828 90.386487 
L 102.887289 90.574702 
L 103.03775 90.357258 
L 103.188211 90.505219 
L 103.338672 90.259878 
L 103.489134 90.430157 
L 103.639595 90.225453 
L 103.790056 90.417186 
L 103.940517 90.196917 
L 104.090978 90.34704 
L 104.241439 90.098363 
L 104.391901 90.276397 
L 104.542362 90.068554 
L 104.692823 90.262476 
L 104.843284 90.031213 
L 104.993745 90.181933 
L 105.144206 89.92873 
L 105.294668 90.111517 
L 105.445129 89.895006 
L 105.59559 90.087262 
L 105.746051 89.851314 
L 105.896512 90.008199 
L 106.046973 89.753756 
L 106.197435 89.939886 
L 106.347896 89.719865 
L 106.498357 89.915829 
L 106.648818 89.677859 
L 106.799279 89.832228 
L 106.94974 89.571385 
L 107.100202 89.755803 
L 107.250663 89.535601 
L 107.401124 89.726119 
L 107.551585 89.484864 
L 107.702046 89.631395 
L 107.852507 89.37773 
L 108.002969 89.561516 
L 108.15343 89.347821 
L 108.303891 89.528738 
L 108.454352 89.294793 
L 108.604813 89.435516 
L 108.755274 89.189392 
L 108.905736 89.359474 
L 109.056197 89.147828 
L 109.206658 89.316 
L 109.357119 89.09192 
L 109.50758 89.215312 
L 109.658041 88.977177 
L 109.808503 89.131246 
L 109.958964 88.9384 
L 110.109425 89.094439 
L 110.259886 88.885695 
L 110.410347 88.990795 
L 110.560808 88.769275 
L 110.71127 88.907316 
L 110.861731 88.729948 
L 111.012192 88.862262 
L 111.162653 88.662857 
L 111.313114 88.745879 
L 111.463575 88.541325 
L 111.614037 88.65432 
L 111.764498 88.491578 
L 111.914959 88.603588 
L 112.06542 88.426291 
L 112.215881 88.495274 
L 112.366342 88.307737 
L 112.516804 88.400942 
L 112.667265 88.252259 
L 112.817726 88.347778 
L 112.968187 88.180868 
L 113.118648 88.229907 
L 113.269109 88.04473 
L 113.419571 88.121856 
L 113.570032 87.9735 
L 113.720493 88.054614 
L 113.870954 87.899927 
L 114.021415 87.941083 
L 114.171876 87.758933 
L 114.322338 87.834223 
L 114.472799 87.68508 
L 114.62326 87.765894 
L 114.773721 87.617205 
L 114.924182 87.643237 
L 115.074643 87.441093 
L 115.225105 87.529763 
L 115.375566 87.361529 
L 115.526027 87.434168 
L 115.751719 87.307695 
L 115.826949 87.296259 
L 115.97741 87.087478 
L 116.127872 87.208838 
L 116.353563 87.037733 
L 116.504024 87.004402 
L 116.654486 86.956268 
L 116.729716 86.964812 
L 116.880177 86.732659 
L 117.030639 86.86922 
L 117.25633 86.635527 
L 117.406791 86.64039 
L 117.557253 86.561743 
L 117.632483 86.566554 
L 117.782944 86.291714 
L 117.858175 86.367226 
L 117.933406 86.464851 
L 118.159097 86.209086 
L 118.234328 86.308578 
L 118.309558 86.234735 
L 118.46002 86.126405 
L 118.53525 86.138082 
L 118.685711 85.857762 
L 118.836173 86.075602 
L 119.061864 85.761104 
L 119.137095 85.844487 
L 119.212325 85.769607 
L 119.362787 85.644946 
L 119.438017 85.645651 
L 119.588478 85.352541 
L 119.73894 85.587236 
L 119.964631 85.18868 
L 120.039862 85.296419 
L 120.115092 85.232354 
L 120.265554 85.11844 
L 120.340784 85.102139 
L 120.491245 84.79575 
L 120.641707 85.031955 
L 120.867398 84.628292 
L 121.017859 84.67444 
L 121.394012 84.150217 
L 121.544473 84.374437 
L 121.770165 83.897876 
L 121.920626 83.922041 
L 122.146318 83.582869 
L 122.221549 83.375678 
L 122.296779 83.465872 
L 122.37201 83.630186 
L 122.44724 83.58046 
L 122.597702 83.036973 
L 122.672932 83.065463 
L 122.823393 83.154454 
L 122.973855 82.872034 
L 123.124316 82.532167 
L 123.274777 82.742944 
L 123.500469 81.97847 
L 123.575699 82.088134 
L 123.65093 82.211537 
L 123.801391 81.888866 
L 123.951852 81.371978 
L 124.102313 81.563025 
L 124.328005 80.863549 
L 124.403236 80.964901 
L 124.478466 81.112178 
L 124.704158 80.305804 
L 124.854619 80.420555 
L 124.92985 80.283204 
L 125.306003 77.991392 
L 125.456464 69.583045 
L 125.757386 53.781705 
L 126.133539 44.381616 
L 126.509692 40.177421 
L 126.885845 38.573224 
L 127.56292 36.57491 
L 127.939073 34.7916 
L 128.164765 32.733064 
L 128.239995 31.592487 
L 128.465687 20.791875 
L 128.84184 22.906193 
L 128.917071 22.295455 
L 128.992301 22.354418 
L 129.067532 22.323024 
L 129.217993 20.962404 
L 129.293224 20.916549 
L 129.443685 22.75697 
L 129.669376 21.539186 
L 129.744607 22.07822 
L 129.819838 21.385874 
L 129.895068 21.473825 
L 129.970299 22.653784 
L 130.045529 22.359429 
L 130.12076 21.883711 
L 130.195991 21.908412 
L 130.271221 22.17097 
L 130.421682 21.621525 
L 130.496913 21.972987 
L 130.572143 21.947698 
L 130.647374 21.353628 
L 130.722605 22.635949 
L 130.797835 22.510344 
L 130.873066 21.089182 
L 131.023527 22.315565 
L 131.098758 21.167745 
L 131.173988 21.609826 
L 131.249219 22.480591 
L 131.324449 21.264324 
L 131.39968 21.601201 
L 131.625372 22.164939 
L 131.700602 21.303099 
L 131.775833 21.437914 
L 131.851063 21.1516 
L 132.001525 22.364517 
L 132.076755 21.650032 
L 132.151986 21.99615 
L 132.227216 21.956076 
L 132.302447 22.149953 
L 132.452908 21.618868 
L 132.603369 23.312548 
L 132.75383 21.760417 
L 132.829061 21.955293 
L 132.904292 22.544914 
L 132.979522 21.109932 
L 133.054753 21.66874 
L 133.129983 21.028844 
L 133.205214 21.335755 
L 133.280444 23.070439 
L 133.430906 21.612423 
L 133.506136 22.473386 
L 133.656597 21.392709 
L 133.807059 22.786697 
L 133.882289 22.717796 
L 133.95752 21.686319 
L 134.03275 21.745559 
L 134.107981 22.295923 
L 134.183211 22.138679 
L 134.258442 22.228451 
L 134.333673 20.764995 
L 134.484134 22.467152 
L 134.559364 21.914591 
L 134.709826 20.608989 
L 134.785056 21.648434 
L 134.860287 21.311075 
L 134.935517 20.880571 
L 135.010748 21.931994 
L 135.085978 21.893391 
L 135.161209 20.572668 
L 135.386901 22.252522 
L 135.462131 22.383787 
L 135.612592 21.561683 
L 135.763054 23.690184 
L 135.988745 21.178237 
L 136.063976 20.514801 
L 136.364898 22.083506 
L 136.440129 21.869474 
L 136.515359 21.948508 
L 136.59059 21.616581 
L 136.665821 20.368269 
L 136.741051 21.494152 
L 136.816282 21.452451 
L 136.891512 21.743155 
L 136.966743 22.63295 
L 137.117204 21.248235 
L 137.192435 22.393191 
L 137.342896 21.088918 
L 137.418126 22.317936 
L 137.493357 21.888566 
L 137.643818 23.252317 
L 137.794279 21.756739 
L 137.86951 21.619622 
L 137.944741 21.126234 
L 138.019971 21.503075 
L 138.170432 20.47199 
L 138.320893 22.797471 
L 138.471355 21.771855 
L 138.546585 21.684844 
L 138.621816 22.557624 
L 138.697046 22.328166 
L 138.772277 22.049536 
L 138.847508 22.214123 
L 138.922738 21.198919 
L 138.997969 22.064974 
L 139.073199 21.651402 
L 139.374122 21.15683 
L 139.524583 21.585621 
L 139.599813 21.279372 
L 139.750275 22.546984 
L 139.825505 22.684768 
L 139.900736 22.019043 
L 140.051197 23.141072 
L 140.126427 23.61071 
L 140.276889 22.445851 
L 140.42735 21.24498 
L 140.653042 22.916554 
L 140.803503 21.018229 
L 140.878733 21.21984 
L 140.953964 20.90544 
L 141.104425 22.283012 
L 141.179656 21.687434 
L 141.254886 22.460373 
L 141.330117 22.175455 
L 141.405347 21.918895 
L 141.555809 23.630855 
L 141.70627 22.09329 
L 141.7815 22.754526 
L 141.856731 22.73815 
L 141.931961 22.732683 
L 142.007192 22.603553 
L 142.082423 21.510115 
L 142.157653 21.783017 
L 142.232884 21.828813 
L 142.308114 22.09161 
L 142.383345 21.94861 
L 142.533806 22.552794 
L 142.609037 21.301229 
L 142.684267 21.373222 
L 142.759498 21.301229 
L 142.834728 22.552794 
L 142.909959 22.230829 
L 142.98519 21.94861 
L 143.06042 22.09161 
L 143.286112 21.510115 
L 143.436573 22.732683 
L 143.587034 22.754526 
L 143.662265 22.09329 
L 143.812726 23.630855 
L 143.963187 21.918895 
L 144.038418 22.175455 
L 144.113648 22.460373 
L 144.188879 21.687434 
L 144.26411 22.283012 
L 144.33934 22.099122 
L 144.414571 20.90544 
L 144.489801 21.21984 
L 144.565032 21.018229 
L 144.715493 22.916554 
L 144.790724 22.660213 
L 144.941185 21.24498 
L 145.242107 23.61071 
L 145.467799 22.019043 
L 145.543029 22.684768 
L 145.61826 22.546984 
L 145.693491 22.535706 
L 145.768721 21.279372 
L 145.843952 21.585621 
L 145.994413 21.15683 
L 146.069644 21.232827 
L 146.370566 22.064974 
L 146.445796 21.198919 
L 146.521027 22.214123 
L 146.596258 22.049536 
L 146.746719 22.557624 
L 146.821949 21.684844 
L 146.89718 21.771855 
L 146.972411 21.921824 
L 147.047641 22.797471 
L 147.198102 20.47199 
L 147.273333 21.183779 
L 147.348563 21.503075 
L 147.423794 21.126234 
L 147.574255 21.756739 
L 147.649486 21.814483 
L 147.724716 23.252317 
L 147.875178 21.888566 
L 147.950408 22.317936 
L 148.025639 21.088918 
L 148.100869 21.478504 
L 148.1761 22.393191 
L 148.25133 21.248235 
L 148.326561 21.407676 
L 148.401792 22.63295 
L 148.552253 21.452451 
L 148.627483 21.494152 
L 148.702714 20.368269 
L 148.853175 21.948508 
L 148.928406 21.869474 
L 149.003636 22.083506 
L 149.154097 21.387116 
L 149.304559 20.514801 
L 149.605481 23.690184 
L 149.755942 21.561683 
L 149.906403 22.383787 
L 150.056864 22.175436 
L 150.207326 20.572668 
L 150.357787 21.931994 
L 150.433017 20.880571 
L 150.508248 21.311075 
L 150.583478 21.648434 
L 150.658709 20.608989 
L 150.884401 22.467152 
L 151.034862 20.764995 
L 151.110093 22.228451 
L 151.185323 22.138679 
L 151.260554 22.295923 
L 151.411015 21.686319 
L 151.561476 22.786697 
L 151.711937 21.392709 
L 151.787168 21.536012 
L 151.862398 22.473386 
L 151.937629 21.612423 
L 152.01286 21.728169 
L 152.08809 23.070439 
L 152.238551 21.028844 
L 152.313782 21.66874 
L 152.389012 21.109932 
L 152.464243 22.544914 
L 152.539474 21.955293 
L 152.614704 21.760417 
L 152.765165 23.312548 
L 152.840396 22.709493 
L 152.915627 21.618868 
L 152.990857 21.739191 
L 153.066088 22.149953 
L 153.141318 21.956076 
L 153.216549 21.99615 
L 153.291779 21.650032 
L 153.36701 22.364517 
L 153.442241 22.195925 
L 153.517471 21.1516 
L 153.592702 21.437914 
L 153.667932 21.303099 
L 153.743163 22.164939 
L 153.818394 21.812603 
L 153.893624 21.884005 
L 154.044085 21.264324 
L 154.119316 22.480591 
L 154.269777 21.167745 
L 154.345008 22.315565 
L 154.420238 22.121162 
L 154.495469 21.089182 
L 154.64593 22.635949 
L 154.721161 21.353628 
L 154.796391 21.947698 
L 154.871622 21.972987 
L 154.946852 21.621525 
L 155.097313 22.17097 
L 155.247775 21.883711 
L 155.398236 22.653784 
L 155.548697 21.385874 
L 155.623928 22.07822 
L 155.699158 21.539186 
L 155.774389 21.616457 
L 155.92485 22.75697 
L 156.075311 20.916549 
L 156.150542 20.962404 
L 156.225772 21.330421 
L 156.376233 22.354418 
L 156.451464 22.295455 
L 156.526695 22.906193 
L 156.902847 20.791875 
L 157.354231 34.24068 
L 157.730384 36.285708 
L 158.332229 38.188049 
L 158.708381 39.348224 
L 158.934073 40.736867 
L 159.234996 44.381616 
L 159.535918 51.301951 
L 159.83684 64.367567 
L 160.137763 78.939284 
L 160.438685 80.283204 
L 160.513915 80.420555 
L 160.589146 80.374986 
L 160.664377 80.305804 
L 160.890068 81.112178 
L 160.965299 80.964901 
L 161.04053 80.863549 
L 161.266221 81.563025 
L 161.341452 81.459445 
L 161.416682 81.371978 
L 161.567144 81.888866 
L 161.717605 82.211537 
L 161.868066 81.97847 
L 162.093758 82.742944 
L 162.168988 82.660493 
L 162.244219 82.532167 
L 162.319449 82.620172 
L 162.545141 83.154454 
L 162.620372 83.171983 
L 162.770833 83.036973 
L 162.996525 83.630186 
L 163.146986 83.375678 
L 163.447908 83.922041 
L 163.598369 83.897876 
L 163.6736 83.915317 
L 163.824061 84.374437 
L 163.899292 84.319228 
L 163.974522 84.150217 
L 164.049753 84.199671 
L 164.275445 84.555938 
L 164.425906 84.724942 
L 164.576367 84.610213 
L 164.726828 85.031955 
L 164.877289 84.79575 
L 164.95252 84.916058 
L 165.102981 85.11844 
L 165.178212 85.114299 
L 165.328673 85.296419 
L 165.479134 85.198726 
L 165.629595 85.587236 
L 165.780056 85.352541 
L 166.005748 85.644946 
L 166.080979 85.632174 
L 166.23144 85.844487 
L 166.381901 85.747996 
L 166.532362 86.075602 
L 166.682823 85.857762 
L 166.908515 86.126405 
L 166.983746 86.116819 
L 167.134207 86.308578 
L 167.284668 86.186811 
L 167.435129 86.464851 
L 167.58559 86.291714 
L 167.811282 86.561743 
L 167.886513 86.535055 
L 168.036974 86.704562 
L 168.187435 86.615948 
L 168.337896 86.86922 
L 168.488357 86.732659 
L 168.714049 86.956268 
L 168.86451 87.004402 
L 169.014971 87.037733 
L 169.090202 87.008891 
L 169.315894 87.159824 
L 169.391124 87.087478 
L 169.842508 87.434168 
L 170.068199 87.427867 
L 170.218661 87.509431 
L 170.369122 87.508688 
L 170.519583 87.66643 
L 170.670044 87.662231 
L 170.820505 87.755675 
L 170.970966 87.724577 
L 171.121428 87.831618 
L 171.271889 87.803194 
L 171.42235 87.966689 
L 171.572811 87.934365 
L 171.723272 88.060558 
L 171.873733 87.99972 
L 172.024195 88.130704 
L 172.174656 88.082626 
L 172.325117 88.26119 
L 172.475578 88.213479 
L 172.626039 88.356918 
L 172.7765 88.270179 
L 172.926962 88.408135 
L 173.077423 88.340263 
L 173.227884 88.522088 
L 173.378345 88.457138 
L 173.528806 88.60882 
L 173.679267 88.51219 
L 173.829729 88.655445 
L 173.98019 88.578883 
L 174.130651 88.768041 
L 174.281112 88.702975 
L 174.431573 88.858426 
L 174.582034 88.758117 
L 174.732496 88.895091 
L 174.807726 88.769275 
L 174.882957 88.815235 
L 175.033418 89.000988 
L 175.183879 88.932178 
L 175.33434 89.075946 
L 175.484801 88.975404 
L 175.635263 89.107856 
L 175.710493 88.977177 
L 175.785724 89.033658 
L 175.936185 89.21343 
L 176.011415 89.09192 
L 176.086646 89.148455 
L 176.237107 89.286698 
L 176.312338 89.147828 
L 176.387568 89.199573 
L 176.462799 89.359474 
L 176.53803 89.323903 
L 176.61326 89.189392 
L 176.688491 89.254851 
L 176.838952 89.4182 
L 176.914182 89.294793 
L 176.989413 89.362223 
L 177.064644 89.528738 
L 177.139874 89.486996 
L 177.215105 89.347821 
L 177.290335 89.40591 
L 177.365566 89.561516 
L 177.440797 89.512959 
L 177.516027 89.37773 
L 177.591258 89.452426 
L 177.741719 89.605336 
L 177.816949 89.484864 
L 177.89218 89.562098 
L 177.967411 89.726119 
L 178.042641 89.673948 
L 178.117872 89.535601 
L 178.193102 89.60219 
L 178.268333 89.755803 
L 178.343564 89.699955 
L 178.418794 89.571385 
L 178.494025 89.656677 
L 178.569255 89.832228 
L 178.644486 89.796504 
L 178.719716 89.677859 
L 178.794947 89.75922 
L 178.870178 89.915829 
L 178.945408 89.85446 
L 179.020639 89.719865 
L 179.095869 89.791717 
L 179.1711 89.939886 
L 179.246331 89.878691 
L 179.321561 89.753756 
L 179.396792 89.841223 
L 179.472022 90.008199 
L 179.547253 89.965731 
L 179.622483 89.851314 
L 179.697714 89.935985 
L 179.772945 90.087262 
L 179.848175 90.022956 
L 179.923406 89.895006 
L 179.998636 89.970028 
L 180.073867 90.111517 
L 180.149098 90.046316 
L 180.224328 89.92873 
L 180.45002 90.137628 
L 180.52525 90.031213 
L 180.675712 90.262476 
L 180.750942 90.192814 
L 180.826173 90.068554 
L 180.901403 90.143647 
L 180.976634 90.276397 
L 181.051865 90.209072 
L 181.127095 90.098363 
L 181.352787 90.299695 
L 181.428017 90.196917 
L 181.578479 90.417186 
L 181.653709 90.344628 
L 181.72894 90.225453 
L 181.80417 90.301886 
L 181.879401 90.430157 
L 181.954632 90.363285 
L 182.029862 90.259878 
L 182.255554 90.455223 
L 182.330784 90.357258 
L 182.481246 90.574702 
L 182.556476 90.500326 
L 182.631707 90.386487 
L 182.706937 90.464224 
L 182.782168 90.586785 
L 182.857399 90.51823 
L 182.932629 90.418712 
L 183.158321 90.604975 
L 183.233551 90.511046 
L 183.384013 90.722021 
L 183.459243 90.645763 
L 183.534474 90.534746 
L 183.609704 90.611491 
L 183.684935 90.727917 
L 183.760166 90.65796 
L 183.835396 90.56323 
L 184.061088 90.746881 
L 184.136318 90.657559 
L 184.28678 90.866782 
L 184.36201 90.787351 
L 184.437241 90.680063 
L 184.512471 90.759161 
L 184.587702 90.871868 
L 184.662933 90.799536 
L 184.738163 90.709766 
L 184.888624 90.945581 
L 184.963855 90.887517 
L 185.039085 90.800626 
L 185.189547 91.005674 
L 185.264777 90.921942 
L 185.340008 90.816848 
L 185.415238 90.89773 
L 185.490469 91.006128 
L 185.5657 90.930269 
L 185.64093 90.843206 
L 185.791391 91.078463 
L 185.866622 91.016795 
L 185.941852 90.932455 
L 186.092314 91.13723 
L 186.167544 91.049939 
L 186.242775 90.948024 
L 186.318005 91.033004 
L 186.393236 91.139317 
L 186.468467 91.060861 
L 186.543697 90.977828 
L 186.694158 91.213106 
L 186.769389 91.146896 
L 186.844619 91.064834 
L 186.995081 91.266504 
L 187.070311 91.175272 
L 187.145542 91.077392 
L 187.296003 91.267585 
L 187.371234 91.184903 
L 187.446464 91.104344 
L 187.596925 91.335456 
L 187.672156 91.264605 
L 187.747386 91.185812 
L 187.897848 91.387293 
L 188.048309 91.199742 
L 188.19877 91.389804 
L 188.274001 91.303009 
L 188.349231 91.22645 
L 188.499692 91.458263 
L 188.574923 91.383834 
L 188.650153 91.309732 
L 188.800615 91.509728 
L 188.951076 91.321057 
L 189.101537 91.508866 
L 189.251998 91.346315 
L 189.402459 91.575791 
L 189.47769 91.496983 
L 189.55292 91.425229 
L 189.703382 91.620664 
L 189.853843 91.432982 
L 190.004304 91.621144 
L 190.154765 91.461746 
L 190.305226 91.688478 
L 190.455687 91.538599 
L 190.606149 91.732115 
L 190.75661 91.548319 
L 190.907071 91.733791 
L 191.057532 91.575499 
L 191.207993 91.797474 
L 191.358454 91.648696 
L 191.508916 91.838036 
L 191.659377 91.654804 
L 191.809838 91.836642 
L 191.960299 91.681054 
L 192.11076 91.902078 
L 192.261221 91.754991 
L 192.411683 91.941381 
L 192.562144 91.759462 
L 192.712605 91.940941 
L 192.863066 91.788226 
L 193.013527 92.006986 
L 193.163988 91.858649 
L 193.31445 92.041196 
L 193.464911 91.859924 
L 193.615372 92.039095 
L 193.765833 91.887268 
L 193.916294 92.103305 
L 194.066755 91.956629 
L 194.217217 92.137633 
L 194.367678 91.957548 
L 194.518139 92.134896 
L 194.6686 91.985755 
L 194.819061 92.201682 
L 194.969522 92.055934 
L 195.119984 92.232915 
L 195.270445 92.05185 
L 195.420906 92.226874 
L 195.571367 92.079722 
L 195.721828 92.294009 
L 195.872289 92.147415 
L 196.022751 92.321722 
L 196.173212 92.141325 
L 196.323673 92.316447 
L 196.474134 92.171746 
L 196.624595 92.385573 
L 196.775056 92.239228 
L 196.925518 92.410962 
L 197.075979 92.231349 
L 197.22644 92.404196 
L 197.376901 92.261528 
L 197.527362 92.471612 
L 197.677823 92.326014 
L 197.828285 92.49321 
L 197.978746 92.316393 
L 198.129207 92.486405 
L 198.279668 92.347976 
L 198.430129 92.554592 
L 198.58059 92.412359 
L 198.731052 92.575044 
L 198.881513 92.402548 
L 199.031974 92.568102 
L 199.182435 92.434111 
L 199.332896 92.634942 
L 199.483357 92.495971 
L 199.633819 92.651583 
L 199.78428 92.483297 
L 199.934741 92.643761 
L 200.085202 92.51592 
L 200.235663 92.711432 
L 200.386124 92.576766 
L 200.536586 92.725512 
L 200.687047 92.564033 
L 200.837508 92.720088 
L 200.987969 92.599558 
L 201.13843 92.786004 
L 201.288891 92.656096 
L 201.439353 92.796031 
L 201.589814 92.643064 
L 201.740275 92.79135 
L 201.890736 92.67768 
L 202.041197 92.854489 
L 202.191658 92.732126 
L 202.34212 92.864203 
L 202.492581 92.720152 
L 202.643042 92.860656 
L 202.793503 92.755795 
L 202.943964 92.923953 
L 203.094425 92.808842 
L 203.244886 92.931011 
L 203.395348 92.794575 
L 203.545809 92.927251 
L 203.69627 92.830363 
L 203.846731 92.989264 
L 203.997192 92.879823 
L 204.147653 92.993783 
L 204.298115 92.865638 
L 204.448576 92.99239 
L 204.599037 92.903182 
L 204.749498 93.053748 
L 204.899959 92.951179 
L 205.05042 93.057143 
L 205.200882 92.936795 
L 205.351343 93.055295 
L 205.501804 92.973258 
L 205.652265 93.115214 
L 205.802726 93.019063 
L 205.953187 93.11634 
L 206.103649 93.00282 
L 206.25411 93.114713 
L 206.404571 93.040838 
L 206.555032 93.175768 
L 206.705493 93.085743 
L 206.855954 93.175284 
L 207.006416 93.068864 
L 207.156877 93.174567 
L 207.232107 93.057362 
L 207.307338 93.107274 
L 207.457799 93.234391 
L 207.60826 93.149216 
L 207.683491 93.276949 
L 207.758721 93.231558 
L 207.909183 93.130671 
L 208.059644 93.230693 
L 208.134874 93.11449 
L 208.210105 93.16935 
L 208.360566 93.290496 
L 208.511027 93.210978 
L 208.586258 93.337465 
L 208.661488 93.286693 
L 208.81195 93.192369 
L 208.962411 93.286057 
L 209.037641 93.17166 
L 209.112872 93.23212 
L 209.263333 93.345692 
L 209.338564 93.224984 
L 209.413794 93.271877 
L 209.489025 93.396146 
L 209.564255 93.339036 
L 209.639486 93.206223 
L 209.714717 93.251264 
L 209.865178 93.337903 
L 209.940408 93.225189 
L 210.015639 93.291417 
L 210.09087 93.436914 
L 210.1661 93.397027 
L 210.241331 93.277366 
L 210.316561 93.329742 
L 210.391792 93.452332 
L 210.467022 93.388838 
L 210.542253 93.257701 
L 210.617484 93.309084 
L 210.692714 93.437845 
L 210.767945 93.388901 
L 210.843175 93.278242 
L 210.918406 93.350921 
L 210.993637 93.494912 
L 211.068867 93.448026 
L 211.144098 93.329413 
L 211.219328 93.387291 
L 211.294559 93.507633 
L 211.369789 93.437287 
L 211.44502 93.307776 
L 211.520251 93.365318 
L 211.595481 93.492726 
L 211.670712 93.4378 
L 211.745942 93.329022 
L 211.821173 93.407463 
L 211.896404 93.549217 
L 211.971634 93.49531 
L 212.046865 93.377805 
L 212.122095 93.440863 
L 212.197326 93.558855 
L 212.272556 93.482571 
L 212.347787 93.355915 
L 212.423018 93.41991 
L 212.498248 93.545556 
L 212.573479 93.484882 
L 212.648709 93.378941 
L 212.72394 93.463316 
L 212.799171 93.601894 
L 212.874401 93.541011 
L 212.949632 93.426222 
L 213.024862 93.495325 
L 213.100093 93.610075 
L 213.175323 93.527305 
L 213.250554 93.404086 
L 213.325785 93.474429 
L 213.401015 93.596905 
L 213.476246 93.529702 
L 213.551476 93.42702 
L 213.701938 93.652203 
L 213.777168 93.584088 
L 213.852399 93.472195 
L 213.927629 93.547012 
L 214.00286 93.657771 
L 214.153321 93.448745 
L 214.228552 93.525696 
L 214.303782 93.645159 
L 214.379013 93.57193 
L 214.454243 93.473332 
L 214.604705 93.701178 
L 214.679935 93.625829 
L 214.755166 93.517149 
L 214.830396 93.597806 
L 214.905627 93.704459 
L 215.056088 93.493429 
L 215.131319 93.577163 
L 215.206549 93.693299 
L 215.28178 93.614102 
L 215.35701 93.519393 
L 215.507472 93.748103 
L 215.582702 93.665739 
L 215.657933 93.560159 
L 215.733163 93.645819 
L 215.808394 93.748156 
L 215.958855 93.536165 
L 216.034086 93.625495 
L 216.109316 93.737714 
L 216.184547 93.65339 
L 216.259777 93.56299 
L 216.410239 93.791488 
L 216.485469 93.703399 
L 216.5607 93.602405 
L 216.711161 93.790463 
L 216.861622 93.578757 
L 217.012083 93.780936 
L 217.087314 93.691655 
L 217.162544 93.606583 
L 217.313005 93.834365 
L 217.463467 93.644044 
L 217.613928 93.830598 
L 217.764389 93.619162 
L 217.91485 93.821407 
L 218.065311 93.647588 
L 218.215772 93.874034 
L 218.366234 93.683079 
L 218.516695 93.868808 
L 218.667156 93.658582 
L 218.817617 93.860899 
L 218.968078 93.687884 
L 219.118539 93.91318 
L 219.269001 93.722166 
L 219.419462 93.90631 
L 219.569923 93.696574 
L 219.720384 93.89787 
L 219.870845 93.726266 
L 220.021306 93.949408 
L 220.171768 93.759074 
L 220.322229 93.940289 
L 220.47269 93.733162 
L 220.623151 93.932794 
L 220.773612 93.764269 
L 220.924073 93.984543 
L 221.074535 93.795758 
L 221.224996 93.973647 
L 221.375457 93.769364 
L 221.525918 93.96661 
L 221.676379 93.800684 
L 221.82684 94.017221 
L 221.977302 93.830029 
L 222.127763 94.004445 
L 222.278224 93.803172 
L 222.428685 93.998102 
L 222.579146 93.835314 
L 222.729607 94.048712 
L 222.880069 93.863654 
L 223.03053 94.034666 
L 223.180991 93.836526 
L 223.331452 94.028991 
L 223.481913 93.869296 
L 223.632374 94.07871 
L 223.782836 93.895444 
L 223.933297 94.062121 
L 224.083758 93.867985 
L 224.234219 94.05708 
L 224.38468 93.901677 
L 224.535141 94.105963 
L 224.685603 93.926479 
L 224.836064 94.088191 
L 224.986525 93.899257 
L 225.136986 94.084332 
L 225.287447 93.933938 
L 225.437908 94.132341 
L 225.58837 93.956367 
L 225.738831 94.112243 
L 225.889292 93.928709 
L 226.039753 94.109422 
L 226.190214 93.963972 
L 226.340675 94.156126 
L 226.491137 93.984178 
L 226.641598 94.134871 
L 226.792059 93.957372 
L 226.94252 94.133737 
L 227.092981 93.993307 
L 227.243442 94.179365 
L 227.393904 94.011548 
L 227.544365 94.156556 
L 227.694826 93.984526 
L 227.845287 94.155997 
L 227.995748 94.020899 
L 228.146209 94.200031 
L 228.296671 94.037061 
L 228.447132 94.175598 
L 228.597593 94.010685 
L 228.748054 94.176596 
L 228.898515 94.048151 
L 229.048976 94.219623 
L 229.199438 94.062276 
L 229.349899 94.193893 
L 229.50036 94.036299 
L 229.650821 94.195855 
L 229.801282 94.07361 
L 229.951743 94.237019 
L 230.102205 94.085533 
L 230.252666 94.210231 
L 230.403127 94.059819 
L 230.553588 94.213111 
L 230.704049 94.097624 
L 230.85451 94.253729 
L 231.004972 94.108278 
L 231.155433 94.225946 
L 231.305894 94.082422 
L 231.456355 94.229748 
L 231.606816 94.120772 
L 231.757277 94.26905 
L 231.907739 94.128901 
L 232.0582 94.239337 
L 232.208661 94.103502 
L 232.359122 94.244217 
L 232.509583 94.142396 
L 232.660044 94.281998 
L 232.810506 94.149102 
L 232.960967 94.251814 
L 233.111428 94.124492 
L 233.261889 94.25748 
L 233.41235 94.163411 
L 233.562811 94.293899 
L 233.713273 94.168398 
L 233.863734 94.262431 
L 234.014195 94.143478 
L 234.164656 94.268465 
L 234.315117 94.182685 
L 234.465578 94.303987 
L 234.61604 94.18615 
L 234.766501 94.271575 
L 234.916962 94.161673 
L 235.067423 94.278906 
L 235.217884 94.201549 
L 235.368345 94.313345 
L 235.518807 94.202822 
L 235.594037 94.327695 
L 235.669268 94.279509 
L 235.819729 94.178467 
L 235.97019 94.287709 
L 236.045421 94.16715 
L 236.120651 94.218549 
L 236.195882 94.361364 
L 236.271112 94.320179 
L 236.421574 94.217959 
L 236.496804 94.340688 
L 236.572035 94.285488 
L 236.647265 94.149874 
L 236.722496 94.194714 
L 236.872957 94.294874 
L 236.948188 94.176921 
L 237.023418 94.235306 
L 237.098649 94.375239 
L 237.173879 94.325922 
L 237.324341 94.232927 
L 237.399571 94.352918 
L 237.474802 94.29034 
L 237.550032 94.157876 
L 237.625263 94.210157 
L 237.700493 94.345393 
L 237.775724 94.300439 
L 237.850955 94.185294 
L 237.926185 94.2505 
L 238.001416 94.387025 
L 238.076646 94.329568 
L 238.151877 94.198014 
L 238.227108 94.246055 
L 238.302338 94.363005 
L 238.377569 94.29326 
L 238.452799 94.16431 
L 238.52803 94.223977 
L 238.60326 94.356581 
L 238.678491 94.304538 
L 238.753722 94.192622 
L 238.828952 94.264679 
L 238.904183 94.397735 
L 238.979413 94.332511 
L 239.054644 94.203875 
L 239.129875 94.258526 
L 239.205105 94.372203 
L 239.280336 94.295556 
L 239.355566 94.1702 
L 239.430797 94.236844 
L 239.506027 94.36663 
L 239.581258 94.307995 
L 239.656489 94.19938 
L 239.731719 94.277495 
L 239.80695 94.406538 
L 239.88218 94.334023 
L 239.957411 94.208361 
L 240.032642 94.26868 
L 240.107872 94.378616 
L 240.183103 94.296111 
L 240.258333 94.17512 
L 240.333564 94.248117 
L 240.408794 94.374342 
L 240.484025 94.309751 
L 240.559256 94.205155 
L 240.634486 94.288808 
L 240.709717 94.41304 
L 240.784947 94.33385 
L 240.860178 94.212328 
L 240.935409 94.278532 
L 241.010639 94.384216 
L 241.1611 94.179804 
L 241.236331 94.259041 
L 241.311561 94.381052 
L 241.386792 94.310329 
L 241.462023 94.210024 
L 241.612484 94.418425 
L 241.687714 94.332586 
L 241.762945 94.21528 
L 241.838176 94.287085 
L 241.913406 94.388103 
L 242.063867 94.182621 
L 242.139098 94.267852 
L 242.214328 94.385557 
L 242.289559 94.309022 
L 242.36479 94.213237 
L 242.515251 94.422154 
L 242.590481 94.329963 
L 242.665712 94.216914 
L 242.740943 94.294178 
L 242.816173 94.390662 
L 242.966634 94.184663 
L 243.041865 94.275879 
L 243.117095 94.38947 
L 243.192326 94.307406 
L 243.267557 94.21596 
L 243.418018 94.424966 
L 243.568479 94.217541 
L 243.64371 94.299787 
L 243.71894 94.391814 
L 243.869401 94.185555 
L 244.019862 94.391307 
L 244.095093 94.304361 
L 244.170324 94.217236 
L 244.245554 94.321315 
L 244.245554 94.321315 
" clip-path="url(#p5aad78d936)" style="fill: none; stroke: #000000; stroke-linecap: square"/>
   </g>
   <g id="patch_3">
    <path d="M 41.04775 96.198874 
L 41.04775 13.474578 
" style="fill: none; stroke: #000000; stroke-width: 0.8; stroke-linejoin: miter; stroke-linecap: square"/>
   </g>
   <g id="patch_4">
    <path d="M 244.245554 96.198874 
L 244.245554 13.474578 
" style="fill: none; stroke: #000000; stroke-width: 0.8; stroke-linejoin: miter; stroke-linecap: square"/>
   </g>
   <g id="patch_5">
    <path d="M 41.04775 96.198874 
L 244.245554 96.198874 
" style="fill: none; stroke: #000000; stroke-width: 0.8; stroke-linejoin: miter; stroke-linecap: square"/>
   </g>
   <g id="patch_6">
    <path d="M 41.04775 13.474578 
L 244.245554 13.474578 
" style="fill: none; stroke: #000000; stroke-width: 0.8; stroke-linejoin: miter; stroke-linecap: square"/>
   </g>
   <g id="text_13">
    <!-- -103.35 -->
    <g style="fill: #ff0000" transform="translate(59.972258 91.030663) scale(0.0833 -0.0833)">
     <defs>
      <path id="NimbusRomNo9L-Regu-2d" d="M 250 1619 
L 250 1216 
L 1824 1216 
L 1824 1619 
L 250 1619 
z
" transform="scale(0.015625)"/>
      <path id="NimbusRomNo9L-Regu-33" d="M 979 2138 
C 1357 2138 1504 2125 1658 2068 
C 2054 1927 2304 1562 2304 1120 
C 2304 583 1939 167 1466 167 
C 1293 167 1165 212 928 365 
C 736 480 627 525 518 525 
C 371 525 275 436 275 301 
C 275 77 550 -64 998 -64 
C 1491 -64 1997 103 2298 365 
C 2598 628 2765 999 2765 1428 
C 2765 1754 2662 2055 2477 2253 
C 2349 2394 2227 2471 1946 2592 
C 2387 2893 2547 3130 2547 3476 
C 2547 3994 2138 4352 1549 4352 
C 1229 4352 947 4244 717 4039 
C 525 3866 429 3699 288 3315 
L 384 3290 
C 646 3757 934 3968 1338 3968 
C 1754 3968 2042 3687 2042 3284 
C 2042 3053 1946 2823 1786 2663 
C 1594 2471 1414 2375 979 2221 
L 979 2138 
z
" transform="scale(0.015625)"/>
      <path id="NimbusRomNo9L-Regu-2e" d="M 800 646 
C 608 646 448 480 448 281 
C 448 96 608 -64 794 -64 
C 992 -64 1158 96 1158 281 
C 1158 480 992 646 800 646 
z
" transform="scale(0.015625)"/>
     </defs>
     <use xlink:href="#NimbusRomNo9L-Regu-2d" transform="scale(0.996264)"/>
     <use xlink:href="#NimbusRomNo9L-Regu-31" transform="translate(33.17523 0) scale(0.996264)"/>
     <use xlink:href="#NimbusRomNo9L-Regu-30" transform="translate(82.98843 0) scale(0.996264)"/>
     <use xlink:href="#NimbusRomNo9L-Regu-33" transform="translate(132.801631 0) scale(0.996264)"/>
     <use xlink:href="#NimbusRomNo9L-Regu-2e" transform="translate(182.614831 0) scale(0.996264)"/>
     <use xlink:href="#NimbusRomNo9L-Regu-33" transform="translate(207.521431 0) scale(0.996264)"/>
     <use xlink:href="#NimbusRomNo9L-Regu-35" transform="translate(257.334632 0) scale(0.996264)"/>
    </g>
   </g>
   <g id="text_14">
    <!-- -93.45 -->
    <g style="fill: #ff0000" transform="translate(93.057061 84.199847) scale(0.0833 -0.0833)">
     <defs>
      <path id="NimbusRomNo9L-Regu-39" d="M 378 -123 
C 1094 -40 1446 82 1882 396 
C 2547 882 2938 1676 2938 2539 
C 2938 3593 2349 4339 1523 4339 
C 762 4339 192 3694 192 2832 
C 192 2053 653 1536 1344 1536 
C 1696 1536 1965 1638 2304 1900 
C 2042 856 1331 172 358 5 
L 378 -123 
z
M 2317 2290 
C 2317 2162 2291 2104 2221 2047 
C 2042 1894 1805 1811 1574 1811 
C 1088 1811 781 2290 781 3050 
C 781 3413 883 3796 1018 3963 
C 1126 4090 1286 4160 1472 4160 
C 2029 4160 2317 3611 2317 2539 
L 2317 2290 
z
" transform="scale(0.015625)"/>
     </defs>
     <use xlink:href="#NimbusRomNo9L-Regu-2d" transform="scale(0.996264)"/>
     <use xlink:href="#NimbusRomNo9L-Regu-39" transform="translate(33.17523 0) scale(0.996264)"/>
     <use xlink:href="#NimbusRomNo9L-Regu-33" transform="translate(82.98843 0) scale(0.996264)"/>
     <use xlink:href="#NimbusRomNo9L-Regu-2e" transform="translate(132.801631 0) scale(0.996264)"/>
     <use xlink:href="#NimbusRomNo9L-Regu-34" transform="translate(157.708231 0) scale(0.996264)"/>
     <use xlink:href="#NimbusRomNo9L-Regu-35" transform="translate(207.521431 0) scale(0.996264)"/>
    </g>
   </g>
   <g id="text_15">
    <!-- -93.09 -->
    <g style="fill: #ff0000" transform="translate(159.226669 83.952232) scale(0.0833 -0.0833)">
     <use xlink:href="#NimbusRomNo9L-Regu-2d" transform="scale(0.996264)"/>
     <use xlink:href="#NimbusRomNo9L-Regu-39" transform="translate(33.17523 0) scale(0.996264)"/>
     <use xlink:href="#NimbusRomNo9L-Regu-33" transform="translate(82.98843 0) scale(0.996264)"/>
     <use xlink:href="#NimbusRomNo9L-Regu-2e" transform="translate(132.801631 0) scale(0.996264)"/>
     <use xlink:href="#NimbusRomNo9L-Regu-30" transform="translate(157.708231 0) scale(0.996264)"/>
     <use xlink:href="#NimbusRomNo9L-Regu-39" transform="translate(207.521431 0) scale(0.996264)"/>
    </g>
   </g>
   <g id="text_16">
    <!-- -103.35 -->
    <g style="fill: #ff0000" transform="translate(192.311473 91.025381) scale(0.0833 -0.0833)">
     <use xlink:href="#NimbusRomNo9L-Regu-2d" transform="scale(0.996264)"/>
     <use xlink:href="#NimbusRomNo9L-Regu-31" transform="translate(33.17523 0) scale(0.996264)"/>
     <use xlink:href="#NimbusRomNo9L-Regu-30" transform="translate(82.98843 0) scale(0.996264)"/>
     <use xlink:href="#NimbusRomNo9L-Regu-33" transform="translate(132.801631 0) scale(0.996264)"/>
     <use xlink:href="#NimbusRomNo9L-Regu-2e" transform="translate(182.614831 0) scale(0.996264)"/>
     <use xlink:href="#NimbusRomNo9L-Regu-33" transform="translate(207.521431 0) scale(0.996264)"/>
     <use xlink:href="#NimbusRomNo9L-Regu-35" transform="translate(257.334632 0) scale(0.996264)"/>
    </g>
   </g>
   <g id="text_17">
    <!-- Signal spectrum -->
    <g transform="translate(110.407958 7.474578) scale(0.1 -0.1)">
     <defs>
      <path id="NimbusRomNo9L-Regu-69" d="M 1120 2929 
L 128 2579 
L 128 2484 
L 179 2490 
C 256 2502 339 2509 397 2509 
C 550 2509 608 2406 608 2125 
L 608 640 
C 608 179 544 109 102 109 
L 102 0 
L 1619 0 
L 1619 96 
C 1197 128 1146 191 1146 650 
L 1146 2910 
L 1120 2929 
z
M 819 4352 
C 646 4352 499 4205 499 4026 
C 499 3847 640 3699 819 3699 
C 1005 3699 1152 3840 1152 4026 
C 1152 4205 1005 4352 819 4352 
z
" transform="scale(0.015625)"/>
      <path id="NimbusRomNo9L-Regu-67" d="M 3008 2496 
L 3008 2746 
L 2515 2746 
C 2387 2746 2291 2763 2163 2802 
L 2022 2847 
C 1850 2903 1677 2931 1510 2931 
C 915 2931 442 2467 442 1881 
C 442 1476 614 1230 1037 1018 
C 915 906 800 799 762 768 
C 550 588 467 463 467 338 
C 467 206 544 131 806 6 
C 352 -329 179 -543 179 -781 
C 179 -1124 678 -1408 1286 -1408 
C 1766 -1408 2266 -1238 2598 -962 
C 2842 -759 2950 -548 2950 -299 
C 2950 108 2650 384 2176 384 
L 1350 384 
C 1011 384 851 443 851 548 
C 851 678 1062 908 1235 960 
C 1293 953 1338 947 1357 947 
C 1478 934 1562 928 1600 928 
C 1837 928 2093 1026 2291 1203 
C 2502 1387 2598 1617 2598 1945 
C 2598 2135 2566 2286 2477 2496 
L 3008 2496 
z
M 941 -13 
C 1152 -58 1664 -96 1978 -96 
C 2560 -96 2771 -180 2771 -414 
C 2771 -791 2285 -1043 1562 -1043 
C 998 -1043 627 -855 627 -570 
C 627 -420 672 -336 941 -13 
z
M 973 2145 
C 973 2526 1152 2752 1446 2752 
C 1645 2752 1811 2642 1914 2449 
C 2029 2223 2106 1927 2106 1675 
C 2106 1314 1920 1088 1626 1088 
C 1242 1088 973 1507 973 2126 
L 973 2145 
z
" transform="scale(0.015625)"/>
      <path id="NimbusRomNo9L-Regu-61" d="M 2829 423 
C 2720 333 2643 301 2547 301 
C 2400 301 2355 390 2355 672 
L 2355 1920 
C 2355 2253 2323 2438 2227 2592 
C 2086 2822 1811 2944 1434 2944 
C 832 2944 358 2630 358 2227 
C 358 2080 486 1952 634 1952 
C 787 1952 922 2080 922 2221 
C 922 2246 915 2278 909 2323 
C 896 2381 890 2432 890 2477 
C 890 2650 1094 2790 1350 2790 
C 1664 2790 1837 2605 1837 2259 
L 1837 1869 
C 851 1472 742 1421 467 1178 
C 326 1050 237 832 237 621 
C 237 218 518 -64 909 -64 
C 1190 -64 1453 70 1843 403 
C 1875 70 1990 -64 2253 -64 
C 2470 -64 2605 13 2829 256 
L 2829 423 
z
M 1837 783 
C 1837 584 1805 526 1670 449 
C 1517 359 1338 301 1203 301 
C 979 301 800 520 800 796 
L 800 822 
C 800 1201 1062 1433 1837 1715 
L 1837 783 
z
" transform="scale(0.015625)"/>
      <path id="NimbusRomNo9L-Regu-6c" d="M 122 4000 
L 160 4000 
C 230 4000 307 4000 358 4000 
C 563 4000 627 3910 627 3610 
L 627 557 
C 627 211 538 128 134 96 
L 134 0 
L 1645 0 
L 1645 109 
C 1242 109 1165 173 1165 528 
L 1165 4371 
L 1139 4384 
C 806 4275 563 4211 122 4103 
L 122 4000 
z
" transform="scale(0.015625)"/>
      <path id="NimbusRomNo9L-Regu-73" d="M 2016 2010 
L 1990 2880 
L 1920 2880 
L 1907 2867 
C 1850 2822 1843 2816 1818 2816 
C 1779 2816 1715 2829 1645 2861 
C 1504 2915 1363 2944 1197 2944 
C 691 2944 326 2616 326 2154 
C 326 1796 531 1539 1075 1231 
L 1446 1020 
C 1670 892 1779 737 1779 539 
C 1779 256 1574 77 1248 77 
C 1030 77 832 159 710 298 
C 576 455 518 600 435 960 
L 333 960 
L 333 -39 
L 416 -39 
C 461 33 486 48 563 48 
C 621 48 710 35 858 -2 
C 1037 -39 1210 -64 1325 -64 
C 1818 -64 2227 308 2227 757 
C 2227 1077 2074 1289 1690 1520 
L 998 1930 
C 819 2033 723 2194 723 2367 
C 723 2624 922 2803 1216 2803 
C 1581 2803 1773 2583 1920 2010 
L 2016 2010 
z
" transform="scale(0.015625)"/>
      <path id="NimbusRomNo9L-Regu-70" d="M 58 2516 
C 115 2522 160 2522 218 2522 
C 435 2522 480 2458 480 2155 
L 480 -855 
C 480 -1189 410 -1261 32 -1299 
L 32 -1408 
L 1581 -1408 
L 1581 -1293 
C 1101 -1293 1018 -1222 1018 -816 
L 1018 199 
C 1242 -13 1395 -77 1664 -77 
C 2419 -77 3008 643 3008 1575 
C 3008 2372 2560 2944 1939 2944 
C 1581 2944 1299 2784 1018 2438 
L 1018 2931 
L 979 2944 
C 634 2810 410 2726 58 2618 
L 58 2516 
z
M 1018 2136 
C 1018 2329 1376 2560 1670 2560 
C 2144 2560 2458 2071 2458 1324 
C 2458 611 2144 128 1683 128 
C 1382 128 1018 359 1018 552 
L 1018 2136 
z
" transform="scale(0.015625)"/>
      <path id="NimbusRomNo9L-Regu-74" d="M 1632 2880 
L 986 2880 
L 986 3622 
C 986 3686 979 3706 941 3706 
C 896 3648 858 3590 813 3526 
C 570 3174 294 2867 192 2841 
C 122 2794 83 2748 83 2715 
C 83 2695 90 2682 109 2682 
L 448 2682 
L 448 751 
C 448 212 640 -64 1018 -64 
C 1331 -64 1574 90 1786 423 
L 1702 493 
C 1568 333 1459 269 1318 269 
C 1082 269 986 443 986 847 
L 986 2682 
L 1632 2682 
L 1632 2880 
z
" transform="scale(0.015625)"/>
      <path id="NimbusRomNo9L-Regu-6d" d="M 122 2547 
C 205 2566 256 2573 326 2573 
C 493 2573 550 2470 550 2162 
L 550 539 
C 550 192 461 96 102 96 
L 102 0 
L 1523 0 
L 1523 96 
C 1184 96 1088 166 1088 418 
L 1088 2234 
C 1088 2246 1139 2310 1184 2355 
C 1344 2502 1619 2611 1843 2611 
C 2125 2611 2266 2385 2266 1932 
L 2266 528 
C 2266 167 2195 96 1830 96 
L 1830 0 
L 3264 0 
L 3264 96 
C 2899 96 2803 205 2803 603 
L 2803 2221 
C 2995 2496 3206 2611 3501 2611 
C 3866 2611 3981 2438 3981 1907 
L 3981 557 
C 3981 192 3930 141 3558 96 
L 3558 0 
L 4960 0 
L 4960 96 
L 4794 115 
C 4602 115 4518 230 4518 480 
L 4518 1802 
C 4518 2559 4269 2944 3776 2944 
C 3405 2944 3078 2778 2733 2407 
C 2618 2771 2400 2944 2054 2944 
C 1773 2944 1594 2854 1062 2451 
L 1062 2931 
L 1018 2944 
C 691 2822 474 2752 122 2656 
L 122 2547 
z
" transform="scale(0.015625)"/>
     </defs>
     <use xlink:href="#NimbusRomNo9L-Regu-53" transform="scale(0.996264)"/>
     <use xlink:href="#NimbusRomNo9L-Regu-69" transform="translate(55.391677 0) scale(0.996264)"/>
     <use xlink:href="#NimbusRomNo9L-Regu-67" transform="translate(83.086847 0) scale(0.996264)"/>
     <use xlink:href="#NimbusRomNo9L-Regu-6e" transform="translate(132.900047 0) scale(0.996264)"/>
     <use xlink:href="#NimbusRomNo9L-Regu-61" transform="translate(182.713248 0) scale(0.996264)"/>
     <use xlink:href="#NimbusRomNo9L-Regu-6c" transform="translate(226.946816 0) scale(0.996264)"/>
     <use xlink:href="#NimbusRomNo9L-Regu-73" transform="translate(279.548586 0) scale(0.996264)"/>
     <use xlink:href="#NimbusRomNo9L-Regu-70" transform="translate(318.302292 0) scale(0.996264)"/>
     <use xlink:href="#NimbusRomNo9L-Regu-65" transform="translate(368.115493 0) scale(0.996264)"/>
     <use xlink:href="#NimbusRomNo9L-Regu-63" transform="translate(412.349062 0) scale(0.996264)"/>
     <use xlink:href="#NimbusRomNo9L-Regu-74" transform="translate(456.58263 0) scale(0.996264)"/>
     <use xlink:href="#NimbusRomNo9L-Regu-72" transform="translate(484.2778 0) scale(0.996264)"/>
     <use xlink:href="#NimbusRomNo9L-Regu-75" transform="translate(517.45303 0) scale(0.996264)"/>
     <use xlink:href="#NimbusRomNo9L-Regu-6d" transform="translate(567.26623 0) scale(0.996264)"/>
    </g>
   </g>
   <g id="legend_1">
    <g id="patch_7">
     <path d="M 185.996236 29.600041 
L 240.245554 29.600041 
L 240.245554 17.474578 
L 185.996236 17.474578 
z
" style="fill: #ffffff; stroke: #000000; stroke-width: 0.5; stroke-linejoin: miter"/>
    </g>
    <g id="line2d_22">
     <path d="M 188.396236 22.674578 
L 196.396236 22.674578 
L 204.396236 22.674578 
" style="fill: none; stroke: #000000; stroke-linecap: square"/>
    </g>
    <g id="text_18">
     <!-- NR input -->
     <g transform="translate(208.396236 25.474578) scale(0.08 -0.08)">
      <defs>
       <path id="NimbusRomNo9L-Regu-4e" d="M 3917 -64 
L 3917 3287 
C 3917 3669 3981 3905 4102 3987 
C 4192 4051 4282 4077 4525 4102 
L 4525 4224 
L 3021 4224 
L 3021 4102 
C 3264 4083 3354 4057 3450 4000 
C 3578 3911 3635 3681 3635 3286 
L 3635 1136 
L 1171 4224 
L 77 4224 
L 77 4102 
C 352 4102 442 4051 698 3751 
L 698 938 
C 698 281 608 159 77 121 
L 77 0 
L 1581 0 
L 1581 134 
C 1088 134 979 281 979 928 
L 979 3439 
L 3808 -64 
L 3917 -64 
z
" transform="scale(0.015625)"/>
       <path id="NimbusRomNo9L-Regu-52" d="M 4218 121 
C 3974 140 3846 205 3661 424 
L 2342 2061 
C 2771 2143 2963 2219 3174 2388 
C 3379 2553 3501 2818 3501 3113 
C 3501 3385 3418 3618 3251 3801 
C 3008 4059 2477 4224 1875 4224 
L 109 4224 
L 109 4102 
C 589 4051 653 3981 653 3528 
L 653 765 
C 653 236 589 159 109 121 
L 109 0 
L 1882 0 
L 1882 134 
C 1389 134 1306 219 1306 692 
L 1306 1984 
L 1664 1984 
L 3187 0 
L 4218 0 
L 4218 121 
z
M 1306 3762 
C 1306 3937 1376 3987 1632 3987 
C 2432 3987 2803 3716 2803 3123 
C 2803 2807 2669 2542 2438 2423 
C 2144 2258 1920 2221 1306 2221 
L 1306 3762 
z
" transform="scale(0.015625)"/>
      </defs>
      <use xlink:href="#NimbusRomNo9L-Regu-4e" transform="scale(0.996264)"/>
      <use xlink:href="#NimbusRomNo9L-Regu-52" transform="translate(71.929985 0) scale(0.996264)"/>
      <use xlink:href="#NimbusRomNo9L-Regu-69" transform="translate(163.286616 0) scale(0.996264)"/>
      <use xlink:href="#NimbusRomNo9L-Regu-6e" transform="translate(190.981786 0) scale(0.996264)"/>
      <use xlink:href="#NimbusRomNo9L-Regu-70" transform="translate(240.794986 0) scale(0.996264)"/>
      <use xlink:href="#NimbusRomNo9L-Regu-75" transform="translate(290.608187 0) scale(0.996264)"/>
      <use xlink:href="#NimbusRomNo9L-Regu-74" transform="translate(340.421387 0) scale(0.996264)"/>
     </g>
    </g>
   </g>
   <g id="LineCollection_1">
    <path d="M 60.733208 93.098771 
L 92.296111 93.098771 
" clip-path="url(#p5aad78d936)" style="fill: none; stroke: #ff0000"/>
   </g>
   <g id="LineCollection_2">
    <path d="M 93.818012 86.267954 
L 125.380915 86.267954 
" clip-path="url(#p5aad78d936)" style="fill: none; stroke: #ff0000"/>
   </g>
   <g id="LineCollection_3">
    <path d="M 159.98762 86.020339 
L 191.550523 86.020339 
" clip-path="url(#p5aad78d936)" style="fill: none; stroke: #ff0000"/>
   </g>
   <g id="LineCollection_4">
    <path d="M 193.072424 93.093488 
L 224.635326 93.093488 
" clip-path="url(#p5aad78d936)" style="fill: none; stroke: #ff0000"/>
   </g>
  </g>
 </g>
 <defs>
  <clipPath id="p5aad78d936">
   <rect x="41.04775" y="13.474578" width="203.197804" height="82.724297"/>
  </clipPath>
 </defs>
</svg>
