<?xml version="1.0" encoding="utf-8" standalone="no"?>
<!DOCTYPE svg PUBLIC "-//W3C//DTD SVG 1.1//EN"
  "http://www.w3.org/Graphics/SVG/1.1/DTD/svg11.dtd">
<svg xmlns:xlink="http://www.w3.org/1999/xlink" width="247.141867pt" height="124.850544pt" viewBox="0 0 247.141867 124.850544" xmlns="http://www.w3.org/2000/svg" version="1.1">
 <metadata>
  <rdf:RDF xmlns:dc="http://purl.org/dc/elements/1.1/" xmlns:cc="http://creativecommons.org/ns#" xmlns:rdf="http://www.w3.org/1999/02/22-rdf-syntax-ns#">
   <cc:Work>
    <dc:type rdf:resource="http://purl.org/dc/dcmitype/StillImage"/>
    <dc:date>2026-04-22T09:27:51.773704</dc:date>
    <dc:format>image/svg+xml</dc:format>
    <dc:creator>
     <cc:Agent>
      <dc:title>Matplotlib v3.10.8, https://matplotlib.org/</dc:title>
     </cc:Agent>
    </dc:creator>
   </cc:Work>
  </rdf:RDF>
 </metadata>
 <defs>
  <style type="text/css">*{stroke-linejoin: round; stroke-linecap: butt}</style>
 </defs>
 <g id="figure_1">
  <g id="patch_1">
   <path d="M 0 124.850544 
L 247.141867 124.850544 
L 247.141867 0 
L 0 0 
z
" style="fill: #ffffff"/>
  </g>
  <g id="axes_1">
   <g id="patch_2">
    <path d="M 41.04775 96.198874 
L 244.020085 96.198874 
L 244.020085 13.474578 
L 41.04775 13.474578 
z
" style="fill: #ffffff"/>
   </g>
   <g id="matplotlib.axis_1">
    <g id="xtick_1">
     <g id="line2d_1">
      <path d="M 43.429856 96.198874 
L 43.429856 13.474578 
" clip-path="url(#pfd2c4c108e)" style="fill: none; stroke: #cccccc; stroke-width: 0.8; stroke-linecap: square"/>
     </g>
     <g id="line2d_2">
      <defs>
       <path id="m182baccc73" d="M 0 0 
L 0 3.5 
" style="stroke: #000000; stroke-width: 0.8"/>
      </defs>
      <g>
       <use xlink:href="#m182baccc73" x="43.429856" y="96.198874" style="stroke: #000000; stroke-width: 0.8"/>
      </g>
     </g>
     <g id="text_1">
      <!-- $\mathdefault{−15}$ -->
      <g transform="translate(35.463278 109.277991) scale(0.09 -0.09)">
       <defs>
        <path id="CMSY10-0" d="M 4218 1472 
C 4326 1472 4442 1472 4442 1600 
C 4442 1728 4326 1728 4218 1728 
L 755 1728 
C 646 1728 531 1728 531 1600 
C 531 1472 646 1472 755 1472 
L 4218 1472 
z
" transform="scale(0.015625)"/>
        <path id="NimbusRomNo9L-Regu-31" d="M 1862 4339 
L 710 3757 
L 710 3667 
C 787 3699 858 3725 883 3738 
C 998 3783 1107 3808 1171 3808 
C 1306 3808 1363 3711 1363 3505 
L 1363 592 
C 1363 379 1312 232 1210 173 
C 1114 116 1024 96 755 96 
L 755 0 
L 2522 0 
L 2522 96 
C 2016 96 1914 160 1914 470 
L 1914 4327 
L 1862 4339 
z
" transform="scale(0.015625)"/>
        <path id="NimbusRomNo9L-Regu-35" d="M 1158 3776 
L 2413 3776 
C 2515 3776 2541 3789 2560 3834 
L 2803 4403 
L 2746 4448 
C 2650 4314 2586 4282 2451 4282 
L 1114 4282 
L 416 2759 
C 410 2746 410 2740 410 2727 
C 410 2695 435 2676 486 2676 
C 691 2676 947 2631 1210 2547 
C 1946 2309 2285 1910 2285 1274 
C 2285 656 1894 173 1395 173 
C 1267 173 1158 218 966 360 
C 762 508 614 572 480 572 
C 294 572 205 495 205 334 
C 205 90 506 -64 986 -64 
C 1523 -64 1984 110 2304 438 
C 2598 728 2733 1094 2733 1583 
C 2733 2046 2611 2342 2291 2663 
C 2010 2947 1645 3094 890 3229 
L 1158 3776 
z
" transform="scale(0.015625)"/>
       </defs>
       <use xlink:href="#CMSY10-0" transform="scale(0.996264)"/>
       <use xlink:href="#NimbusRomNo9L-Regu-31" transform="translate(77.408707 0) scale(0.996264)"/>
       <use xlink:href="#NimbusRomNo9L-Regu-35" transform="translate(127.221908 0) scale(0.996264)"/>
      </g>
     </g>
    </g>
    <g id="xtick_2">
     <g id="line2d_3">
      <path d="M 76.51466 96.198874 
L 76.51466 13.474578 
" clip-path="url(#pfd2c4c108e)" style="fill: none; stroke: #cccccc; stroke-width: 0.8; stroke-linecap: square"/>
     </g>
     <g id="line2d_4">
      <g>
       <use xlink:href="#m182baccc73" x="76.51466" y="96.198874" style="stroke: #000000; stroke-width: 0.8"/>
      </g>
     </g>
     <g id="text_2">
      <!-- $\mathdefault{−10}$ -->
      <g transform="translate(68.548082 109.277991) scale(0.09 -0.09)">
       <defs>
        <path id="NimbusRomNo9L-Regu-30" d="M 1626 4352 
C 1274 4352 1005 4244 768 4020 
C 397 3661 154 2925 154 2176 
C 154 1479 365 730 666 372 
C 902 90 1229 -64 1600 -64 
C 1926 -64 2202 45 2432 269 
C 2803 621 3046 1364 3046 2138 
C 3046 3450 2464 4352 1626 4352 
z
M 1606 4186 
C 2144 4186 2432 3463 2432 2125 
C 2432 788 2150 103 1600 103 
C 1050 103 768 788 768 2119 
C 768 3476 1056 4186 1606 4186 
z
" transform="scale(0.015625)"/>
       </defs>
       <use xlink:href="#CMSY10-0" transform="scale(0.996264)"/>
       <use xlink:href="#NimbusRomNo9L-Regu-31" transform="translate(77.408707 0) scale(0.996264)"/>
       <use xlink:href="#NimbusRomNo9L-Regu-30" transform="translate(127.221908 0) scale(0.996264)"/>
      </g>
     </g>
    </g>
    <g id="xtick_3">
     <g id="line2d_5">
      <path d="M 109.599463 96.198874 
L 109.599463 13.474578 
" clip-path="url(#pfd2c4c108e)" style="fill: none; stroke: #cccccc; stroke-width: 0.8; stroke-linecap: square"/>
     </g>
     <g id="line2d_6">
      <g>
       <use xlink:href="#m182baccc73" x="109.599463" y="96.198874" style="stroke: #000000; stroke-width: 0.8"/>
      </g>
     </g>
     <g id="text_3">
      <!-- $\mathdefault{−5}$ -->
      <g transform="translate(103.87448 109.277991) scale(0.09 -0.09)">
       <use xlink:href="#CMSY10-0" transform="scale(0.996264)"/>
       <use xlink:href="#NimbusRomNo9L-Regu-35" transform="translate(77.408707 0) scale(0.996264)"/>
      </g>
     </g>
    </g>
    <g id="xtick_4">
     <g id="line2d_7">
      <path d="M 142.684267 96.198874 
L 142.684267 13.474578 
" clip-path="url(#pfd2c4c108e)" style="fill: none; stroke: #cccccc; stroke-width: 0.8; stroke-linecap: square"/>
     </g>
     <g id="line2d_8">
      <g>
       <use xlink:href="#m182baccc73" x="142.684267" y="96.198874" style="stroke: #000000; stroke-width: 0.8"/>
      </g>
     </g>
     <g id="text_4">
      <!-- $\mathdefault{0}$ -->
      <g transform="translate(140.442673 109.277991) scale(0.09 -0.09)">
       <use xlink:href="#NimbusRomNo9L-Regu-30" transform="scale(0.996264)"/>
      </g>
     </g>
    </g>
    <g id="xtick_5">
     <g id="line2d_9">
      <path d="M 175.769071 96.198874 
L 175.769071 13.474578 
" clip-path="url(#pfd2c4c108e)" style="fill: none; stroke: #cccccc; stroke-width: 0.8; stroke-linecap: square"/>
     </g>
     <g id="line2d_10">
      <g>
       <use xlink:href="#m182baccc73" x="175.769071" y="96.198874" style="stroke: #000000; stroke-width: 0.8"/>
      </g>
     </g>
     <g id="text_5">
      <!-- $\mathdefault{5}$ -->
      <g transform="translate(173.527477 109.277991) scale(0.09 -0.09)">
       <use xlink:href="#NimbusRomNo9L-Regu-35" transform="scale(0.996264)"/>
      </g>
     </g>
    </g>
    <g id="xtick_6">
     <g id="line2d_11">
      <path d="M 208.853875 96.198874 
L 208.853875 13.474578 
" clip-path="url(#pfd2c4c108e)" style="fill: none; stroke: #cccccc; stroke-width: 0.8; stroke-linecap: square"/>
     </g>
     <g id="line2d_12">
      <g>
       <use xlink:href="#m182baccc73" x="208.853875" y="96.198874" style="stroke: #000000; stroke-width: 0.8"/>
      </g>
     </g>
     <g id="text_6">
      <!-- $\mathdefault{10}$ -->
      <g transform="translate(204.370687 109.277991) scale(0.09 -0.09)">
       <use xlink:href="#NimbusRomNo9L-Regu-31" transform="scale(0.996264)"/>
       <use xlink:href="#NimbusRomNo9L-Regu-30" transform="translate(49.8132 0) scale(0.996264)"/>
      </g>
     </g>
    </g>
    <g id="xtick_7">
     <g id="line2d_13">
      <path d="M 241.938679 96.198874 
L 241.938679 13.474578 
" clip-path="url(#pfd2c4c108e)" style="fill: none; stroke: #cccccc; stroke-width: 0.8; stroke-linecap: square"/>
     </g>
     <g id="line2d_14">
      <g>
       <use xlink:href="#m182baccc73" x="241.938679" y="96.198874" style="stroke: #000000; stroke-width: 0.8"/>
      </g>
     </g>
     <g id="text_7">
      <!-- $\mathdefault{15}$ -->
      <g transform="translate(237.455491 109.277991) scale(0.09 -0.09)">
       <use xlink:href="#NimbusRomNo9L-Regu-31" transform="scale(0.996264)"/>
       <use xlink:href="#NimbusRomNo9L-Regu-35" transform="translate(49.8132 0) scale(0.996264)"/>
      </g>
     </g>
    </g>
    <g id="text_8">
     <!-- Frequency [MHz] -->
     <g transform="translate(106.783217 121.973715) scale(0.1 -0.1)">
      <defs>
       <path id="NimbusRomNo9L-Regu-46" d="M 3066 1472 
L 3066 2957 
L 2918 2957 
C 2842 2461 2726 2368 2214 2368 
L 1286 2368 
L 1286 3766 
C 1286 3943 1318 3981 1491 3981 
L 2362 3981 
C 3085 3981 3226 3886 3334 3314 
L 3494 3314 
L 3475 4224 
L 77 4224 
L 77 4102 
C 550 4064 634 3974 634 3525 
L 634 749 
C 634 217 563 134 77 134 
L 77 0 
L 1869 0 
L 1869 134 
C 1376 134 1286 225 1286 692 
L 1286 2106 
L 2214 2106 
C 2733 2106 2842 2007 2918 1472 
L 3066 1472 
z
" transform="scale(0.015625)"/>
       <path id="NimbusRomNo9L-Regu-72" d="M 45 2496 
C 134 2515 192 2522 269 2522 
C 429 2522 486 2419 486 2138 
L 486 538 
C 486 218 442 173 32 96 
L 32 0 
L 1568 0 
L 1568 102 
C 1133 102 1024 199 1024 565 
L 1024 2013 
C 1024 2219 1299 2541 1472 2541 
C 1510 2541 1568 2509 1638 2445 
C 1741 2355 1811 2317 1894 2317 
C 2048 2317 2144 2426 2144 2605 
C 2144 2816 2010 2944 1792 2944 
C 1523 2944 1338 2797 1024 2343 
L 1024 2931 
L 992 2944 
C 653 2803 422 2721 45 2599 
L 45 2496 
z
" transform="scale(0.015625)"/>
       <path id="NimbusRomNo9L-Regu-65" d="M 2611 1053 
C 2304 564 2029 378 1619 378 
C 1254 378 979 564 794 930 
C 678 1174 634 1386 621 1779 
L 2592 1779 
C 2541 2193 2477 2377 2317 2581 
C 2125 2811 1830 2944 1498 2944 
C 1178 2944 877 2829 634 2611 
C 333 2349 160 1894 160 1370 
C 160 486 621 -64 1357 -64 
C 1965 -64 2445 315 2714 1008 
L 2611 1053 
z
M 634 1984 
C 704 2479 922 2714 1312 2714 
C 1702 2714 1856 2535 1939 1984 
L 634 1984 
z
" transform="scale(0.015625)"/>
       <path id="NimbusRomNo9L-Regu-71" d="M 2304 2701 
C 2010 2874 1818 2931 1568 2931 
C 768 2931 154 2218 154 1300 
C 154 498 576 -70 1178 -70 
C 1549 -70 1901 96 2182 403 
L 2182 -824 
C 2182 -1188 2067 -1286 1613 -1286 
L 1613 -1408 
L 3123 -1408 
L 3123 -1318 
C 2771 -1241 2720 -1190 2720 -921 
L 2720 2906 
L 2650 2906 
L 2304 2701 
z
M 2182 804 
C 2182 651 2157 569 2093 518 
C 1952 397 1741 320 1542 320 
C 1344 320 1171 384 1043 511 
C 838 696 704 1110 704 1530 
C 704 2282 1043 2752 1587 2752 
C 1984 2752 2182 2542 2182 2115 
L 2182 804 
z
" transform="scale(0.015625)"/>
       <path id="NimbusRomNo9L-Regu-75" d="M 3066 320 
L 3034 320 
C 2739 320 2669 390 2669 685 
L 2669 2880 
L 1658 2880 
L 1658 2758 
C 2054 2758 2131 2694 2131 2375 
L 2131 875 
C 2131 697 2099 607 2010 537 
C 1837 397 1638 320 1446 320 
C 1197 320 992 537 992 805 
L 992 2880 
L 58 2880 
L 58 2778 
C 365 2778 454 2682 454 2387 
L 454 770 
C 454 263 762 -64 1229 -64 
C 1466 -64 1715 38 1888 211 
L 2163 486 
L 2163 -45 
L 2189 -58 
C 2509 70 2739 141 3066 230 
L 3066 320 
z
" transform="scale(0.015625)"/>
       <path id="NimbusRomNo9L-Regu-6e" d="M 102 2579 
C 141 2598 205 2605 275 2605 
C 454 2605 512 2509 512 2195 
L 512 608 
C 512 243 442 154 115 128 
L 115 32 
L 1472 32 
L 1472 128 
C 1146 154 1050 230 1050 461 
L 1050 2259 
C 1357 2547 1498 2624 1709 2624 
C 2022 2624 2176 2426 2176 2003 
L 2176 666 
C 2176 262 2093 154 1773 128 
L 1773 32 
L 3104 32 
L 3104 128 
C 2790 160 2714 237 2714 550 
L 2714 2016 
C 2714 2618 2432 2976 1958 2976 
C 1664 2976 1466 2867 1030 2458 
L 1030 2963 
L 986 2976 
C 672 2861 454 2790 102 2688 
L 102 2579 
z
" transform="scale(0.015625)"/>
       <path id="NimbusRomNo9L-Regu-63" d="M 2547 998 
C 2240 550 2010 397 1645 397 
C 1062 397 653 909 653 1645 
C 653 2304 1005 2758 1523 2758 
C 1754 2758 1837 2688 1901 2451 
L 1939 2310 
C 1990 2131 2106 2016 2240 2016 
C 2406 2016 2547 2138 2547 2285 
C 2547 2643 2099 2944 1562 2944 
C 1248 2944 922 2816 659 2586 
C 339 2304 160 1869 160 1363 
C 160 531 666 -64 1376 -64 
C 1664 -64 1920 38 2150 237 
C 2323 390 2445 563 2637 941 
L 2547 998 
z
" transform="scale(0.015625)"/>
       <path id="NimbusRomNo9L-Regu-79" d="M 3040 2880 
L 2176 2880 
L 2176 2784 
C 2381 2784 2483 2726 2483 2623 
C 2483 2597 2477 2559 2458 2514 
L 1837 742 
L 1101 2377 
C 1062 2468 1037 2552 1037 2622 
C 1037 2739 1133 2784 1408 2784 
L 1408 2880 
L 90 2880 
L 90 2790 
C 256 2765 365 2694 416 2585 
L 1146 1005 
L 1165 953 
L 1261 761 
C 1440 440 1542 209 1542 112 
C 1542 16 1395 -389 1286 -582 
C 1197 -749 1056 -871 966 -871 
C 928 -871 870 -858 806 -826 
C 685 -781 576 -755 467 -755 
C 320 -755 192 -883 192 -1037 
C 192 -1248 397 -1408 666 -1408 
C 1094 -1408 1402 -1049 1747 -124 
L 2733 2495 
C 2816 2701 2886 2765 3040 2784 
L 3040 2880 
z
" transform="scale(0.015625)"/>
       <path id="NimbusRomNo9L-Regu-5b" d="M 1914 -864 
L 1363 -864 
C 1152 -864 1050 -756 1050 -531 
L 1050 3781 
C 1050 3981 1133 4064 1338 4064 
L 1914 4064 
L 1914 4224 
L 563 4224 
L 563 -1024 
L 1914 -1024 
L 1914 -864 
z
" transform="scale(0.015625)"/>
       <path id="NimbusRomNo9L-Regu-4d" d="M 4314 3667 
L 4314 751 
C 4314 217 4237 134 3731 134 
L 3731 0 
L 5523 0 
L 5523 134 
C 5056 134 4966 223 4966 681 
L 4966 3536 
C 4966 3993 5050 4077 5523 4115 
L 5523 4237 
L 4250 4237 
L 2835 1004 
L 1357 4237 
L 90 4237 
L 90 4096 
C 614 4096 698 4019 698 3550 
L 698 943 
C 698 282 608 159 77 121 
L 77 0 
L 1581 0 
L 1581 134 
C 1088 134 979 282 979 931 
L 979 3520 
L 2586 0 
L 2675 0 
L 4314 3667 
z
" transform="scale(0.015625)"/>
       <path id="NimbusRomNo9L-Regu-48" d="M 1338 2304 
L 1338 3533 
C 1338 3990 1408 4059 1901 4104 
L 1901 4224 
L 122 4224 
L 122 4104 
C 614 4059 685 3989 685 3527 
L 685 749 
C 685 210 621 134 122 134 
L 122 0 
L 1901 0 
L 1901 121 
C 1421 159 1338 242 1338 699 
L 1338 2022 
L 3277 2022 
L 3277 757 
C 3277 211 3213 134 2714 134 
L 2714 0 
L 4493 0 
L 4493 121 
C 4013 159 3930 242 3930 696 
L 3930 3529 
C 3930 3989 4000 4059 4493 4104 
L 4493 4224 
L 2714 4224 
L 2714 4104 
C 3206 4059 3277 3990 3277 3533 
L 3277 2304 
L 1338 2304 
z
" transform="scale(0.015625)"/>
       <path id="NimbusRomNo9L-Regu-7a" d="M 2675 864 
L 2560 890 
C 2496 570 2458 467 2374 358 
C 2285 250 2067 192 1741 192 
L 858 192 
L 2579 2784 
L 2579 2880 
L 358 2880 
L 339 2125 
L 454 2125 
C 512 2592 608 2688 992 2688 
L 1875 2688 
L 173 96 
L 173 0 
L 2586 0 
L 2675 864 
z
" transform="scale(0.015625)"/>
       <path id="NimbusRomNo9L-Regu-5d" d="M 218 -864 
L 218 -1024 
L 1568 -1024 
L 1568 4224 
L 218 4224 
L 218 4064 
L 768 4064 
C 979 4064 1082 3955 1082 3730 
L 1082 -582 
C 1082 -781 992 -864 794 -864 
L 218 -864 
z
" transform="scale(0.015625)"/>
      </defs>
      <use xlink:href="#NimbusRomNo9L-Regu-46" transform="scale(0.996264)"/>
      <use xlink:href="#NimbusRomNo9L-Regu-72" transform="translate(55.391677 0) scale(0.996264)"/>
      <use xlink:href="#NimbusRomNo9L-Regu-65" transform="translate(88.566907 0) scale(0.996264)"/>
      <use xlink:href="#NimbusRomNo9L-Regu-71" transform="translate(132.800475 0) scale(0.996264)"/>
      <use xlink:href="#NimbusRomNo9L-Regu-75" transform="translate(182.613676 0) scale(0.996264)"/>
      <use xlink:href="#NimbusRomNo9L-Regu-65" transform="translate(232.426876 0) scale(0.996264)"/>
      <use xlink:href="#NimbusRomNo9L-Regu-6e" transform="translate(276.660445 0) scale(0.996264)"/>
      <use xlink:href="#NimbusRomNo9L-Regu-63" transform="translate(326.473646 0) scale(0.996264)"/>
      <use xlink:href="#NimbusRomNo9L-Regu-79" transform="translate(369.213822 0) scale(0.996264)"/>
      <use xlink:href="#NimbusRomNo9L-Regu-5b" transform="translate(443.933622 0) scale(0.996264)"/>
      <use xlink:href="#NimbusRomNo9L-Regu-4d" transform="translate(477.108852 0) scale(0.996264)"/>
      <use xlink:href="#NimbusRomNo9L-Regu-48" transform="translate(565.675759 0) scale(0.996264)"/>
      <use xlink:href="#NimbusRomNo9L-Regu-7a" transform="translate(637.605744 0) scale(0.996264)"/>
      <use xlink:href="#NimbusRomNo9L-Regu-5d" transform="translate(681.839312 0) scale(0.996264)"/>
     </g>
    </g>
   </g>
   <g id="matplotlib.axis_2">
    <g id="ytick_1">
     <g id="line2d_15">
      <path d="M 41.04775 89.305183 
L 244.020085 89.305183 
" clip-path="url(#pfd2c4c108e)" style="fill: none; stroke: #cccccc; stroke-width: 0.8; stroke-linecap: square"/>
     </g>
     <g id="line2d_16">
      <defs>
       <path id="m35a2bb7ed4" d="M 0 0 
L -3.5 0 
" style="stroke: #000000; stroke-width: 0.8"/>
      </defs>
      <g>
       <use xlink:href="#m35a2bb7ed4" x="41.04775" y="89.305183" style="stroke: #000000; stroke-width: 0.8"/>
      </g>
     </g>
     <g id="text_9">
      <!-- $\mathdefault{−100}$ -->
      <g transform="translate(13.631406 92.344741) scale(0.09 -0.09)">
       <use xlink:href="#CMSY10-0" transform="scale(0.996264)"/>
       <use xlink:href="#NimbusRomNo9L-Regu-31" transform="translate(77.408707 0) scale(0.996264)"/>
       <use xlink:href="#NimbusRomNo9L-Regu-30" transform="translate(127.221908 0) scale(0.996264)"/>
       <use xlink:href="#NimbusRomNo9L-Regu-30" transform="translate(177.035108 0) scale(0.996264)"/>
      </g>
     </g>
    </g>
    <g id="ytick_2">
     <g id="line2d_17">
      <path d="M 41.04775 54.836726 
L 244.020085 54.836726 
" clip-path="url(#pfd2c4c108e)" style="fill: none; stroke: #cccccc; stroke-width: 0.8; stroke-linecap: square"/>
     </g>
     <g id="line2d_18">
      <g>
       <use xlink:href="#m35a2bb7ed4" x="41.04775" y="54.836726" style="stroke: #000000; stroke-width: 0.8"/>
      </g>
     </g>
     <g id="text_10">
      <!-- $\mathdefault{−50}$ -->
      <g transform="translate(18.114594 57.876284) scale(0.09 -0.09)">
       <use xlink:href="#CMSY10-0" transform="scale(0.996264)"/>
       <use xlink:href="#NimbusRomNo9L-Regu-35" transform="translate(77.408707 0) scale(0.996264)"/>
       <use xlink:href="#NimbusRomNo9L-Regu-30" transform="translate(127.221908 0) scale(0.996264)"/>
      </g>
     </g>
    </g>
    <g id="ytick_3">
     <g id="line2d_19">
      <path d="M 41.04775 20.368269 
L 244.020085 20.368269 
" clip-path="url(#pfd2c4c108e)" style="fill: none; stroke: #cccccc; stroke-width: 0.8; stroke-linecap: square"/>
     </g>
     <g id="line2d_20">
      <g>
       <use xlink:href="#m35a2bb7ed4" x="41.04775" y="20.368269" style="stroke: #000000; stroke-width: 0.8"/>
      </g>
     </g>
     <g id="text_11">
      <!-- $\mathdefault{0}$ -->
      <g transform="translate(29.564562 23.407827) scale(0.09 -0.09)">
       <use xlink:href="#NimbusRomNo9L-Regu-30" transform="scale(0.996264)"/>
      </g>
     </g>
    </g>
    <g id="text_12">
     <!-- PSD [dB] -->
     <g transform="translate(7.474578 74.348396) rotate(-90) scale(0.1 -0.1)">
      <defs>
       <path id="NimbusRomNo9L-Regu-50" d="M 1293 1875 
C 1459 1856 1568 1856 1734 1856 
C 2234 1856 2579 1919 2854 2072 
C 3238 2274 3469 2660 3469 3078 
C 3469 3344 3379 3584 3206 3768 
C 2950 4047 2394 4224 1792 4224 
L 102 4224 
L 102 4102 
C 576 4051 640 3987 640 3528 
L 640 766 
C 640 230 589 166 102 122 
L 102 0 
L 1894 0 
L 1894 128 
C 1389 128 1293 218 1293 693 
L 1293 1875 
z
M 1293 3772 
C 1293 3943 1338 3987 1510 3987 
C 2374 3987 2771 3690 2771 3040 
C 2771 2428 2394 2112 1658 2112 
C 1530 2112 1440 2119 1293 2131 
L 1293 3772 
z
" transform="scale(0.015625)"/>
       <path id="NimbusRomNo9L-Regu-53" d="M 2861 4352 
L 2726 4352 
C 2701 4205 2630 4135 2522 4135 
C 2458 4135 2349 4160 2240 4212 
C 2003 4301 1766 4352 1562 4352 
C 1286 4352 1005 4244 794 4058 
C 570 3859 454 3590 454 3256 
C 454 2743 736 2385 1453 2006 
C 1914 1763 2246 1499 2406 1256 
C 2464 1173 2496 1038 2496 884 
C 2496 454 2176 160 1709 160 
C 1139 160 736 513 416 1296 
L 269 1296 
L 461 -64 
L 602 -64 
C 608 57 685 147 781 147 
C 851 147 960 122 1082 79 
C 1325 -14 1581 -64 1837 -64 
C 2573 -64 3142 442 3142 1101 
C 3142 1626 2790 2042 1946 2496 
C 1274 2868 1005 3149 1005 3495 
C 1005 3847 1274 4090 1670 4090 
C 1958 4090 2227 3968 2451 3738 
C 2650 3533 2739 3367 2842 2989 
L 3002 2989 
L 2861 4352 
z
" transform="scale(0.015625)"/>
       <path id="NimbusRomNo9L-Regu-44" d="M 666 679 
C 666 217 589 134 102 134 
L 102 0 
L 1920 0 
C 2662 0 3334 210 3731 568 
C 4147 944 4384 1512 4384 2131 
C 4384 2706 4192 3203 3840 3554 
C 3405 3994 2707 4224 1830 4224 
L 102 4224 
L 102 4102 
C 608 4057 666 4000 666 3525 
L 666 679 
z
M 1318 3738 
C 1318 3936 1389 3987 1651 3987 
C 2202 3987 2618 3885 2925 3668 
C 3424 3323 3686 2775 3686 2087 
C 3686 1334 3424 798 2906 498 
C 2579 314 2208 237 1651 237 
C 1395 237 1318 294 1318 498 
L 1318 3738 
z
" transform="scale(0.015625)"/>
       <path id="NimbusRomNo9L-Regu-64" d="M 2202 -64 
L 3142 269 
L 3142 365 
C 3027 365 3014 365 2995 365 
C 2765 365 2714 435 2714 731 
L 2714 4364 
L 2682 4377 
C 2374 4268 2150 4204 1741 4096 
L 1741 3994 
C 1792 4000 1830 4000 1882 4000 
C 2118 4000 2176 3936 2176 3672 
L 2176 2669 
C 1933 2874 1760 2944 1504 2944 
C 768 2944 173 2221 173 1312 
C 173 493 653 -64 1357 -64 
C 1715 -64 1958 64 2176 365 
L 2176 -45 
L 2202 -64 
z
M 2176 653 
C 2176 608 2131 531 2067 461 
C 1952 333 1792 269 1606 269 
C 1075 269 723 781 723 1568 
C 723 2291 1037 2765 1523 2765 
C 1862 2765 2176 2464 2176 2125 
L 2176 653 
z
" transform="scale(0.015625)"/>
       <path id="NimbusRomNo9L-Regu-42" d="M 109 4237 
L 109 4096 
C 646 4096 723 4026 723 3548 
L 723 689 
C 723 212 640 128 109 128 
L 109 0 
L 2246 0 
C 2746 0 3200 136 3437 356 
C 3667 564 3795 855 3795 1165 
C 3795 1451 3680 1710 3482 1897 
C 3290 2072 3117 2150 2701 2253 
C 3034 2335 3168 2398 3322 2531 
C 3482 2671 3578 2903 3578 3163 
C 3578 3871 3008 4237 1901 4237 
L 109 4237 
z
M 1376 2112 
C 1997 2112 2291 2080 2522 1982 
C 2886 1827 3059 1568 3059 1159 
C 3059 809 2925 555 2669 406 
C 2464 290 2202 238 1779 238 
C 1466 238 1376 296 1376 504 
L 1376 2112 
z
M 1376 2368 
L 1376 3812 
C 1376 3944 1421 4001 1517 4001 
L 1798 4001 
C 2534 4001 2925 3699 2925 3137 
C 2925 2646 2586 2368 1984 2368 
L 1376 2368 
z
" transform="scale(0.015625)"/>
      </defs>
      <use xlink:href="#NimbusRomNo9L-Regu-50" transform="scale(0.996264)"/>
      <use xlink:href="#NimbusRomNo9L-Regu-53" transform="translate(55.391677 0) scale(0.996264)"/>
      <use xlink:href="#NimbusRomNo9L-Regu-44" transform="translate(110.783354 0) scale(0.996264)"/>
      <use xlink:href="#NimbusRomNo9L-Regu-5b" transform="translate(207.619939 0) scale(0.996264)"/>
      <use xlink:href="#NimbusRomNo9L-Regu-64" transform="translate(240.795169 0) scale(0.996264)"/>
      <use xlink:href="#NimbusRomNo9L-Regu-42" transform="translate(290.608369 0) scale(0.996264)"/>
      <use xlink:href="#NimbusRomNo9L-Regu-5d" transform="translate(357.0584 0) scale(0.996264)"/>
     </g>
    </g>
   </g>
   <g id="line2d_21">
    <path d="M 41.04775 81.178409 
L 41.34845 78.832097 
L 41.649149 78.481489 
L 41.949849 78.394218 
L 42.551249 79.634709 
L 42.851948 79.851637 
L 43.152648 79.598496 
L 43.754048 78.16058 
L 44.054747 78.201673 
L 44.355447 78.015205 
L 44.656147 78.144965 
L 44.956847 77.962529 
L 45.257546 77.230367 
L 45.558246 78.658615 
L 45.858946 78.73444 
L 46.159646 77.907438 
L 46.460345 76.555758 
L 46.761045 76.357801 
L 47.061745 77.309972 
L 47.663144 76.309994 
L 47.963844 76.580339 
L 48.264544 78.21528 
L 48.565244 77.499657 
L 48.865943 78.53542 
L 49.467343 76.042366 
L 49.768043 77.004966 
L 50.068742 77.027601 
L 50.369442 78.225453 
L 50.670142 78.297194 
L 50.970842 77.919559 
L 51.271542 76.445546 
L 51.572241 75.825722 
L 51.872941 76.811741 
L 52.173641 76.668995 
L 52.474341 77.002204 
L 52.77504 76.683943 
L 53.07574 77.460565 
L 53.37644 78.749911 
L 53.67714 78.796882 
L 53.977839 77.079951 
L 54.278539 77.276248 
L 54.579239 78.140957 
L 54.879939 76.787845 
L 55.180638 78.659254 
L 55.481338 76.971817 
L 55.782038 77.788955 
L 56.082738 77.700153 
L 56.383437 76.631559 
L 56.684137 77.304379 
L 56.984837 76.717745 
L 57.285537 76.605867 
L 57.586236 76.290763 
L 57.886936 77.854298 
L 58.187636 77.93309 
L 58.488336 76.44304 
L 59.089735 78.032684 
L 59.390435 77.294734 
L 59.691135 77.869139 
L 59.991834 77.537563 
L 60.292534 78.701899 
L 60.593234 76.854019 
L 60.893934 76.573156 
L 61.194633 76.856731 
L 61.495333 77.487552 
L 61.796033 76.455791 
L 62.397432 77.086601 
L 62.698132 76.71633 
L 62.998832 77.528617 
L 63.299532 76.443077 
L 63.600232 78.068252 
L 63.900931 76.480211 
L 64.502331 76.520547 
L 64.803031 77.763775 
L 65.10373 77.850889 
L 65.40443 76.291862 
L 65.70513 76.172826 
L 66.00583 76.354151 
L 66.306529 76.297158 
L 66.607229 76.112782 
L 67.208629 76.486625 
L 67.810028 75.630654 
L 68.110728 76.803305 
L 68.411428 77.370366 
L 68.712127 75.986877 
L 69.012827 77.247319 
L 69.313527 75.811204 
L 69.614227 78.148824 
L 69.914926 77.890306 
L 70.215626 75.975777 
L 70.516326 77.826555 
L 70.817026 75.800405 
L 71.418425 75.399659 
L 71.719125 75.913155 
L 72.019825 77.069071 
L 72.320524 75.052254 
L 72.621224 75.989381 
L 72.921924 77.527164 
L 73.523323 74.126056 
L 74.425423 59.902829 
L 75.026822 53.726864 
L 75.628222 49.240704 
L 76.229621 45.875488 
L 76.831021 43.417607 
L 77.43242 41.663164 
L 78.03382 40.43948 
L 78.635219 39.629002 
L 79.537319 38.853016 
L 81.642217 37.341054 
L 82.845016 36.154985 
L 83.747115 34.930343 
L 84.348515 33.71608 
L 84.649214 32.762126 
L 84.949914 31.368349 
L 85.551314 23.183541 
L 85.852013 20.920462 
L 86.453413 22.772968 
L 86.754113 22.512507 
L 87.355512 23.005963 
L 87.656212 22.643588 
L 87.956912 22.848938 
L 88.257611 22.590741 
L 88.558311 21.505666 
L 88.859011 21.211708 
L 89.159711 21.258882 
L 89.460411 22.476626 
L 89.76111 22.89343 
L 90.06181 22.630773 
L 90.36251 21.917502 
L 90.66321 22.052149 
L 90.963909 22.378596 
L 91.264609 21.708905 
L 91.565309 22.029212 
L 91.866009 23.404007 
L 92.166708 23.208625 
L 92.467408 22.173633 
L 92.768108 22.095571 
L 93.068808 22.321207 
L 93.369507 21.92371 
L 93.670207 21.722097 
L 93.970907 22.043817 
L 94.271607 22.028631 
L 94.572306 21.494254 
L 94.873006 22.919896 
L 95.173706 22.469578 
L 95.474406 21.143825 
L 95.775105 22.424165 
L 96.075805 22.421281 
L 96.376505 21.232221 
L 96.977904 22.646813 
L 97.278604 21.461094 
L 97.579304 21.841598 
L 97.880004 21.95105 
L 98.180703 22.54537 
L 98.481403 22.439582 
L 98.782103 21.315937 
L 99.082803 21.50245 
L 99.383502 21.331011 
L 99.684202 22.335974 
L 99.984902 22.357023 
L 100.285602 21.795114 
L 100.586301 22.633954 
L 100.887001 22.866341 
L 101.187701 22.463289 
L 101.488401 21.795911 
L 101.7891 21.8131 
L 102.0898 22.896084 
L 102.3905 23.468217 
L 102.9919 22.159948 
L 103.593299 22.463705 
L 103.893999 21.091329 
L 104.194699 21.776247 
L 104.495398 20.855421 
L 104.796098 21.544197 
L 105.096798 23.027248 
L 105.397498 21.688624 
L 105.698197 21.855906 
L 105.998897 22.679498 
L 106.299597 21.359485 
L 106.600297 21.426439 
L 106.900996 21.895732 
L 107.201696 22.853898 
L 107.502396 22.885952 
L 107.803096 21.527251 
L 108.103795 21.903938 
L 108.404495 22.470058 
L 108.705195 22.359321 
L 109.005895 22.033913 
L 109.306594 20.763524 
L 109.907994 22.6116 
L 110.208694 21.794725 
L 110.509393 21.39668 
L 110.810093 20.628 
L 111.110793 21.74463 
L 111.411493 21.272719 
L 111.712192 21.016532 
L 112.012892 22.050708 
L 112.313592 21.740946 
L 112.614292 20.738861 
L 112.914991 21.647343 
L 113.215691 22.048464 
L 113.817091 22.233203 
L 114.11779 22.013215 
L 114.41849 21.551876 
L 114.71919 22.364763 
L 115.01989 23.648456 
L 115.32059 22.30171 
L 115.621289 22.253136 
L 115.921989 21.137829 
L 116.222689 20.467865 
L 116.824088 21.399659 
L 117.124788 22.180057 
L 117.425488 22.06198 
L 117.726188 21.740319 
L 118.026887 21.826564 
L 118.327587 21.438477 
L 118.628287 20.658067 
L 118.928987 21.699858 
L 119.229686 21.295825 
L 119.530386 21.702387 
L 119.831086 22.482024 
L 120.131786 21.475828 
L 120.432485 21.594174 
L 120.733185 22.28198 
L 121.033885 21.302273 
L 121.334585 21.141508 
L 121.635284 22.193831 
L 121.935984 21.839364 
L 122.537384 23.294159 
L 122.838083 22.210897 
L 123.138783 22.370842 
L 123.740183 21.125791 
L 124.040882 21.515295 
L 124.642282 20.368269 
L 124.942982 22.067632 
L 125.243681 22.880176 
L 125.544381 21.704757 
L 125.845081 21.504238 
L 126.145781 21.517638 
L 126.44648 22.44001 
L 127.04788 21.932886 
L 127.34858 21.964447 
L 127.649279 21.024014 
L 127.949979 21.902448 
L 128.551379 21.341993 
L 129.453478 20.924847 
L 130.054878 21.557622 
L 130.355577 21.139135 
L 130.656277 22.579412 
L 130.956977 22.680338 
L 131.257677 22.658813 
L 131.558376 21.924695 
L 131.859076 22.950815 
L 132.159776 22.974544 
L 132.460476 23.861299 
L 132.761175 22.493146 
L 133.061875 22.481674 
L 133.362575 22.352327 
L 133.663275 21.387715 
L 133.963974 21.701528 
L 134.264674 22.493803 
L 134.565374 22.749193 
L 135.166773 20.800073 
L 135.467473 20.98069 
L 135.768173 20.673585 
L 136.068873 21.873883 
L 136.369572 22.298065 
L 136.670272 21.59103 
L 136.970972 22.416344 
L 137.572371 21.724784 
L 138.173771 23.480382 
L 138.474471 22.461781 
L 138.77517 21.872666 
L 139.07587 22.565269 
L 139.67727 22.480437 
L 139.977969 22.343616 
L 140.278669 21.295297 
L 140.579369 21.62303 
L 140.880069 21.688916 
L 141.180769 22.321076 
L 141.481468 22.148937 
L 141.782168 22.1466 
L 142.082868 22.361471 
L 142.383568 21.052324 
L 142.984967 21.052324 
L 143.285667 22.361471 
L 143.586367 22.1466 
L 143.887066 22.148937 
L 144.187766 22.321076 
L 144.488466 21.688916 
L 144.789166 21.62303 
L 145.089865 21.295297 
L 145.390565 22.343616 
L 145.991965 22.570443 
L 146.292664 22.565269 
L 146.593364 21.872666 
L 146.894064 22.461781 
L 147.194764 23.480382 
L 147.796163 21.724784 
L 148.397563 22.416344 
L 148.698262 21.59103 
L 148.998962 22.298065 
L 149.299662 21.873883 
L 149.600362 20.673585 
L 149.901061 20.98069 
L 150.201761 20.800073 
L 150.803161 22.749193 
L 151.10386 22.493803 
L 151.40456 21.701528 
L 151.70526 21.387715 
L 152.00596 22.352327 
L 152.607359 22.493146 
L 152.908059 23.861299 
L 153.208759 22.974544 
L 153.509458 22.950815 
L 153.810158 21.924695 
L 154.110858 22.658813 
L 154.411558 22.680338 
L 154.712258 22.579412 
L 155.012957 21.139135 
L 155.313657 21.557622 
L 155.915057 20.924847 
L 156.516456 21.196046 
L 157.117856 21.534817 
L 157.418555 21.902448 
L 157.719255 21.024014 
L 158.019955 21.964447 
L 158.320655 21.932886 
L 158.922054 22.44001 
L 159.222754 21.517638 
L 159.523454 21.504238 
L 159.824153 21.704757 
L 160.124853 22.880176 
L 160.425553 22.067632 
L 160.726253 20.368269 
L 161.327652 21.515295 
L 161.628352 21.125791 
L 162.229751 22.370842 
L 162.530451 22.210897 
L 162.831151 23.294159 
L 163.43255 21.839364 
L 163.73325 22.193831 
L 164.03395 21.141508 
L 164.33465 21.302273 
L 164.635349 22.28198 
L 164.936049 21.594174 
L 165.236749 21.475828 
L 165.537449 22.482024 
L 165.838148 21.702387 
L 166.138848 21.295825 
L 166.439548 21.699858 
L 166.740248 20.658067 
L 167.040948 21.438477 
L 167.341647 21.826564 
L 167.642347 21.740319 
L 167.943047 22.06198 
L 168.243747 22.180057 
L 168.544446 21.399659 
L 169.145846 20.467865 
L 169.446546 21.137829 
L 169.747245 22.253136 
L 170.047945 22.30171 
L 170.348645 23.648456 
L 170.950044 21.551876 
L 171.250744 22.013215 
L 171.551444 22.233203 
L 172.152843 22.048464 
L 172.453543 21.647343 
L 172.754243 20.738861 
L 173.054943 21.740946 
L 173.355642 22.050708 
L 173.656342 21.016532 
L 173.957042 21.272719 
L 174.257742 21.74463 
L 174.558441 20.628 
L 174.859141 21.39668 
L 175.159841 21.794725 
L 175.460541 22.6116 
L 176.06194 20.763524 
L 176.36264 22.033913 
L 176.66334 22.359321 
L 176.964039 22.470058 
L 177.565439 21.527251 
L 177.866139 22.885952 
L 178.166838 22.853898 
L 178.467538 21.895732 
L 178.768238 21.426439 
L 179.068938 21.359485 
L 179.369637 22.679498 
L 179.670337 21.855906 
L 179.971037 21.688624 
L 180.271737 23.027248 
L 180.572437 21.544197 
L 180.873136 20.855421 
L 181.173836 21.776247 
L 181.474536 21.091329 
L 181.775236 22.463705 
L 182.376635 22.159948 
L 182.978035 23.468217 
L 183.278734 22.896084 
L 183.579434 21.8131 
L 183.880134 21.795911 
L 184.481533 22.866341 
L 184.782233 22.633954 
L 185.082933 21.795114 
L 185.383633 22.357023 
L 185.684332 22.335974 
L 185.985032 21.331011 
L 186.285732 21.50245 
L 186.586432 21.315937 
L 186.887131 22.439582 
L 187.187831 22.54537 
L 187.488531 21.95105 
L 187.789231 21.841598 
L 188.08993 21.461094 
L 188.39063 22.646813 
L 188.69133 22.092354 
L 188.99203 21.232221 
L 189.292729 22.421281 
L 189.593429 22.424165 
L 189.894129 21.143825 
L 190.194829 22.469578 
L 190.495528 22.919896 
L 190.796228 21.494254 
L 191.096928 22.028631 
L 191.397628 22.043817 
L 191.698327 21.722097 
L 191.999027 21.92371 
L 192.299727 22.321207 
L 192.600427 22.095571 
L 192.901127 22.173633 
L 193.201826 23.208625 
L 193.502526 23.404007 
L 193.803226 22.029212 
L 194.103926 21.708905 
L 194.404625 22.378596 
L 194.705325 22.052149 
L 195.006025 21.917502 
L 195.306725 22.630773 
L 195.607424 22.89343 
L 195.908124 22.476626 
L 196.208824 21.258882 
L 196.509524 21.211708 
L 196.810223 21.505666 
L 197.110923 22.590741 
L 197.411623 22.848938 
L 197.712323 22.643588 
L 198.013022 23.005963 
L 198.614422 22.512507 
L 198.915122 22.772968 
L 199.516521 20.920462 
L 199.817221 23.183541 
L 200.41862 31.368349 
L 201.02002 33.71608 
L 201.922119 35.395825 
L 202.824218 36.490298 
L 204.027017 37.591149 
L 206.733315 39.629002 
L 207.334715 40.43948 
L 207.936114 41.663164 
L 208.537514 43.417607 
L 209.138913 45.875488 
L 209.740313 49.240704 
L 210.341712 53.726864 
L 210.943112 59.902829 
L 211.544511 68.89542 
L 211.845211 74.126056 
L 212.446611 77.527164 
L 212.74731 75.989381 
L 213.04801 75.052254 
L 213.34871 77.069071 
L 213.64941 75.913155 
L 213.950109 75.399659 
L 214.551509 75.800405 
L 214.852209 77.826555 
L 215.152908 75.975777 
L 215.453608 77.890306 
L 215.754308 78.148824 
L 216.055008 75.811204 
L 216.355707 77.247319 
L 216.656407 75.986877 
L 216.957107 77.370366 
L 217.257807 76.803305 
L 217.558506 75.630654 
L 218.159906 76.486625 
L 218.761306 76.112782 
L 219.362705 76.354151 
L 219.663405 76.172826 
L 219.964105 76.291862 
L 220.264804 77.850889 
L 220.565504 77.763775 
L 220.866204 76.520547 
L 221.467603 76.480211 
L 221.768303 78.068252 
L 222.069003 76.443077 
L 222.369703 77.528617 
L 222.670402 76.71633 
L 222.971102 77.086601 
L 223.572502 76.455791 
L 223.873201 77.487552 
L 224.173901 76.856731 
L 224.474601 76.573156 
L 224.775301 76.854019 
L 225.076 78.701899 
L 225.3767 77.537563 
L 225.6774 77.869139 
L 225.9781 77.294734 
L 226.278799 78.032684 
L 226.880199 76.44304 
L 227.180899 77.93309 
L 227.481598 77.854298 
L 227.782298 76.290763 
L 228.082998 76.605867 
L 228.383698 76.717745 
L 228.684397 77.304379 
L 228.985097 76.631559 
L 229.285797 77.700153 
L 229.586497 77.788955 
L 229.887196 76.971817 
L 230.187896 78.659254 
L 230.488596 76.787845 
L 230.789296 78.140957 
L 231.089995 77.276248 
L 231.390695 77.079951 
L 231.691395 78.796882 
L 231.992095 78.749911 
L 232.292795 77.460565 
L 232.593494 76.683943 
L 232.894194 77.002204 
L 233.194894 76.668995 
L 233.495594 76.811741 
L 233.796293 75.825722 
L 234.096993 76.445546 
L 234.397693 77.919559 
L 234.698393 78.297194 
L 234.999092 78.225453 
L 235.299792 77.027601 
L 235.600492 77.004966 
L 235.901192 76.042366 
L 236.502591 78.53542 
L 236.803291 77.499657 
L 237.103991 78.21528 
L 237.40469 76.580339 
L 237.70539 76.309994 
L 238.30679 77.309972 
L 238.607489 76.357801 
L 238.908189 76.555758 
L 239.208889 77.907438 
L 239.509589 78.73444 
L 239.810288 78.658615 
L 240.110988 77.230367 
L 240.411688 77.962529 
L 240.712388 78.144965 
L 241.013087 78.015205 
L 241.313787 78.201673 
L 241.614487 78.16058 
L 241.915187 78.716089 
L 242.215886 79.598496 
L 242.516586 79.851637 
L 242.817286 79.634709 
L 243.418685 78.394218 
L 243.719385 78.481489 
L 244.020085 78.832097 
L 244.020085 78.832097 
" clip-path="url(#pfd2c4c108e)" style="fill: none; stroke: #000000; stroke-linecap: square"/>
   </g>
   <g id="patch_3">
    <path d="M 41.04775 96.198874 
L 41.04775 13.474578 
" style="fill: none; stroke: #000000; stroke-width: 0.8; stroke-linejoin: miter; stroke-linecap: square"/>
   </g>
   <g id="patch_4">
    <path d="M 244.020085 96.198874 
L 244.020085 13.474578 
" style="fill: none; stroke: #000000; stroke-width: 0.8; stroke-linejoin: miter; stroke-linecap: square"/>
   </g>
   <g id="patch_5">
    <path d="M 41.04775 96.198874 
L 244.020085 96.198874 
" style="fill: none; stroke: #000000; stroke-width: 0.8; stroke-linejoin: miter; stroke-linecap: square"/>
   </g>
   <g id="patch_6">
    <path d="M 41.04775 13.474578 
L 244.020085 13.474578 
" style="fill: none; stroke: #000000; stroke-width: 0.8; stroke-linejoin: miter; stroke-linecap: square"/>
   </g>
   <g id="text_13">
    <!-- Signal spectrum -->
    <g transform="translate(110.295224 7.474578) scale(0.1 -0.1)">
     <defs>
      <path id="NimbusRomNo9L-Regu-69" d="M 1120 2929 
L 128 2579 
L 128 2484 
L 179 2490 
C 256 2502 339 2509 397 2509 
C 550 2509 608 2406 608 2125 
L 608 640 
C 608 179 544 109 102 109 
L 102 0 
L 1619 0 
L 1619 96 
C 1197 128 1146 191 1146 650 
L 1146 2910 
L 1120 2929 
z
M 819 4352 
C 646 4352 499 4205 499 4026 
C 499 3847 640 3699 819 3699 
C 1005 3699 1152 3840 1152 4026 
C 1152 4205 1005 4352 819 4352 
z
" transform="scale(0.015625)"/>
      <path id="NimbusRomNo9L-Regu-67" d="M 3008 2496 
L 3008 2746 
L 2515 2746 
C 2387 2746 2291 2763 2163 2802 
L 2022 2847 
C 1850 2903 1677 2931 1510 2931 
C 915 2931 442 2467 442 1881 
C 442 1476 614 1230 1037 1018 
C 915 906 800 799 762 768 
C 550 588 467 463 467 338 
C 467 206 544 131 806 6 
C 352 -329 179 -543 179 -781 
C 179 -1124 678 -1408 1286 -1408 
C 1766 -1408 2266 -1238 2598 -962 
C 2842 -759 2950 -548 2950 -299 
C 2950 108 2650 384 2176 384 
L 1350 384 
C 1011 384 851 443 851 548 
C 851 678 1062 908 1235 960 
C 1293 953 1338 947 1357 947 
C 1478 934 1562 928 1600 928 
C 1837 928 2093 1026 2291 1203 
C 2502 1387 2598 1617 2598 1945 
C 2598 2135 2566 2286 2477 2496 
L 3008 2496 
z
M 941 -13 
C 1152 -58 1664 -96 1978 -96 
C 2560 -96 2771 -180 2771 -414 
C 2771 -791 2285 -1043 1562 -1043 
C 998 -1043 627 -855 627 -570 
C 627 -420 672 -336 941 -13 
z
M 973 2145 
C 973 2526 1152 2752 1446 2752 
C 1645 2752 1811 2642 1914 2449 
C 2029 2223 2106 1927 2106 1675 
C 2106 1314 1920 1088 1626 1088 
C 1242 1088 973 1507 973 2126 
L 973 2145 
z
" transform="scale(0.015625)"/>
      <path id="NimbusRomNo9L-Regu-61" d="M 2829 423 
C 2720 333 2643 301 2547 301 
C 2400 301 2355 390 2355 672 
L 2355 1920 
C 2355 2253 2323 2438 2227 2592 
C 2086 2822 1811 2944 1434 2944 
C 832 2944 358 2630 358 2227 
C 358 2080 486 1952 634 1952 
C 787 1952 922 2080 922 2221 
C 922 2246 915 2278 909 2323 
C 896 2381 890 2432 890 2477 
C 890 2650 1094 2790 1350 2790 
C 1664 2790 1837 2605 1837 2259 
L 1837 1869 
C 851 1472 742 1421 467 1178 
C 326 1050 237 832 237 621 
C 237 218 518 -64 909 -64 
C 1190 -64 1453 70 1843 403 
C 1875 70 1990 -64 2253 -64 
C 2470 -64 2605 13 2829 256 
L 2829 423 
z
M 1837 783 
C 1837 584 1805 526 1670 449 
C 1517 359 1338 301 1203 301 
C 979 301 800 520 800 796 
L 800 822 
C 800 1201 1062 1433 1837 1715 
L 1837 783 
z
" transform="scale(0.015625)"/>
      <path id="NimbusRomNo9L-Regu-6c" d="M 122 4000 
L 160 4000 
C 230 4000 307 4000 358 4000 
C 563 4000 627 3910 627 3610 
L 627 557 
C 627 211 538 128 134 96 
L 134 0 
L 1645 0 
L 1645 109 
C 1242 109 1165 173 1165 528 
L 1165 4371 
L 1139 4384 
C 806 4275 563 4211 122 4103 
L 122 4000 
z
" transform="scale(0.015625)"/>
      <path id="NimbusRomNo9L-Regu-73" d="M 2016 2010 
L 1990 2880 
L 1920 2880 
L 1907 2867 
C 1850 2822 1843 2816 1818 2816 
C 1779 2816 1715 2829 1645 2861 
C 1504 2915 1363 2944 1197 2944 
C 691 2944 326 2616 326 2154 
C 326 1796 531 1539 1075 1231 
L 1446 1020 
C 1670 892 1779 737 1779 539 
C 1779 256 1574 77 1248 77 
C 1030 77 832 159 710 298 
C 576 455 518 600 435 960 
L 333 960 
L 333 -39 
L 416 -39 
C 461 33 486 48 563 48 
C 621 48 710 35 858 -2 
C 1037 -39 1210 -64 1325 -64 
C 1818 -64 2227 308 2227 757 
C 2227 1077 2074 1289 1690 1520 
L 998 1930 
C 819 2033 723 2194 723 2367 
C 723 2624 922 2803 1216 2803 
C 1581 2803 1773 2583 1920 2010 
L 2016 2010 
z
" transform="scale(0.015625)"/>
      <path id="NimbusRomNo9L-Regu-70" d="M 58 2516 
C 115 2522 160 2522 218 2522 
C 435 2522 480 2458 480 2155 
L 480 -855 
C 480 -1189 410 -1261 32 -1299 
L 32 -1408 
L 1581 -1408 
L 1581 -1293 
C 1101 -1293 1018 -1222 1018 -816 
L 1018 199 
C 1242 -13 1395 -77 1664 -77 
C 2419 -77 3008 643 3008 1575 
C 3008 2372 2560 2944 1939 2944 
C 1581 2944 1299 2784 1018 2438 
L 1018 2931 
L 979 2944 
C 634 2810 410 2726 58 2618 
L 58 2516 
z
M 1018 2136 
C 1018 2329 1376 2560 1670 2560 
C 2144 2560 2458 2071 2458 1324 
C 2458 611 2144 128 1683 128 
C 1382 128 1018 359 1018 552 
L 1018 2136 
z
" transform="scale(0.015625)"/>
      <path id="NimbusRomNo9L-Regu-74" d="M 1632 2880 
L 986 2880 
L 986 3622 
C 986 3686 979 3706 941 3706 
C 896 3648 858 3590 813 3526 
C 570 3174 294 2867 192 2841 
C 122 2794 83 2748 83 2715 
C 83 2695 90 2682 109 2682 
L 448 2682 
L 448 751 
C 448 212 640 -64 1018 -64 
C 1331 -64 1574 90 1786 423 
L 1702 493 
C 1568 333 1459 269 1318 269 
C 1082 269 986 443 986 847 
L 986 2682 
L 1632 2682 
L 1632 2880 
z
" transform="scale(0.015625)"/>
      <path id="NimbusRomNo9L-Regu-6d" d="M 122 2547 
C 205 2566 256 2573 326 2573 
C 493 2573 550 2470 550 2162 
L 550 539 
C 550 192 461 96 102 96 
L 102 0 
L 1523 0 
L 1523 96 
C 1184 96 1088 166 1088 418 
L 1088 2234 
C 1088 2246 1139 2310 1184 2355 
C 1344 2502 1619 2611 1843 2611 
C 2125 2611 2266 2385 2266 1932 
L 2266 528 
C 2266 167 2195 96 1830 96 
L 1830 0 
L 3264 0 
L 3264 96 
C 2899 96 2803 205 2803 603 
L 2803 2221 
C 2995 2496 3206 2611 3501 2611 
C 3866 2611 3981 2438 3981 1907 
L 3981 557 
C 3981 192 3930 141 3558 96 
L 3558 0 
L 4960 0 
L 4960 96 
L 4794 115 
C 4602 115 4518 230 4518 480 
L 4518 1802 
C 4518 2559 4269 2944 3776 2944 
C 3405 2944 3078 2778 2733 2407 
C 2618 2771 2400 2944 2054 2944 
C 1773 2944 1594 2854 1062 2451 
L 1062 2931 
L 1018 2944 
C 691 2822 474 2752 122 2656 
L 122 2547 
z
" transform="scale(0.015625)"/>
     </defs>
     <use xlink:href="#NimbusRomNo9L-Regu-53" transform="scale(0.996264)"/>
     <use xlink:href="#NimbusRomNo9L-Regu-69" transform="translate(55.391677 0) scale(0.996264)"/>
     <use xlink:href="#NimbusRomNo9L-Regu-67" transform="translate(83.086847 0) scale(0.996264)"/>
     <use xlink:href="#NimbusRomNo9L-Regu-6e" transform="translate(132.900047 0) scale(0.996264)"/>
     <use xlink:href="#NimbusRomNo9L-Regu-61" transform="translate(182.713248 0) scale(0.996264)"/>
     <use xlink:href="#NimbusRomNo9L-Regu-6c" transform="translate(226.946816 0) scale(0.996264)"/>
     <use xlink:href="#NimbusRomNo9L-Regu-73" transform="translate(279.548586 0) scale(0.996264)"/>
     <use xlink:href="#NimbusRomNo9L-Regu-70" transform="translate(318.302292 0) scale(0.996264)"/>
     <use xlink:href="#NimbusRomNo9L-Regu-65" transform="translate(368.115493 0) scale(0.996264)"/>
     <use xlink:href="#NimbusRomNo9L-Regu-63" transform="translate(412.349062 0) scale(0.996264)"/>
     <use xlink:href="#NimbusRomNo9L-Regu-74" transform="translate(456.58263 0) scale(0.996264)"/>
     <use xlink:href="#NimbusRomNo9L-Regu-72" transform="translate(484.2778 0) scale(0.996264)"/>
     <use xlink:href="#NimbusRomNo9L-Regu-75" transform="translate(517.45303 0) scale(0.996264)"/>
     <use xlink:href="#NimbusRomNo9L-Regu-6d" transform="translate(567.26623 0) scale(0.996264)"/>
    </g>
   </g>
   <g id="legend_1">
    <g id="patch_7">
     <path d="M 45.04775 92.198874 
L 103.282124 92.198874 
L 103.282124 80.073411 
L 45.04775 80.073411 
z
" style="fill: #ffffff; stroke: #000000; stroke-width: 0.5; stroke-linejoin: miter"/>
    </g>
    <g id="line2d_22">
     <path d="M 47.44775 85.273411 
L 55.44775 85.273411 
L 63.44775 85.273411 
" style="fill: none; stroke: #000000; stroke-linecap: square"/>
    </g>
    <g id="text_14">
     <!-- NR output -->
     <g transform="translate(67.44775 88.073411) scale(0.08 -0.08)">
      <defs>
       <path id="NimbusRomNo9L-Regu-4e" d="M 3917 -64 
L 3917 3287 
C 3917 3669 3981 3905 4102 3987 
C 4192 4051 4282 4077 4525 4102 
L 4525 4224 
L 3021 4224 
L 3021 4102 
C 3264 4083 3354 4057 3450 4000 
C 3578 3911 3635 3681 3635 3286 
L 3635 1136 
L 1171 4224 
L 77 4224 
L 77 4102 
C 352 4102 442 4051 698 3751 
L 698 938 
C 698 281 608 159 77 121 
L 77 0 
L 1581 0 
L 1581 134 
C 1088 134 979 281 979 928 
L 979 3439 
L 3808 -64 
L 3917 -64 
z
" transform="scale(0.015625)"/>
       <path id="NimbusRomNo9L-Regu-52" d="M 4218 121 
C 3974 140 3846 205 3661 424 
L 2342 2061 
C 2771 2143 2963 2219 3174 2388 
C 3379 2553 3501 2818 3501 3113 
C 3501 3385 3418 3618 3251 3801 
C 3008 4059 2477 4224 1875 4224 
L 109 4224 
L 109 4102 
C 589 4051 653 3981 653 3528 
L 653 765 
C 653 236 589 159 109 121 
L 109 0 
L 1882 0 
L 1882 134 
C 1389 134 1306 219 1306 692 
L 1306 1984 
L 1664 1984 
L 3187 0 
L 4218 0 
L 4218 121 
z
M 1306 3762 
C 1306 3937 1376 3987 1632 3987 
C 2432 3987 2803 3716 2803 3123 
C 2803 2807 2669 2542 2438 2423 
C 2144 2258 1920 2221 1306 2221 
L 1306 3762 
z
" transform="scale(0.015625)"/>
       <path id="NimbusRomNo9L-Regu-6f" d="M 1600 2944 
C 768 2944 186 2330 186 1446 
C 186 582 781 -64 1587 -64 
C 2394 -64 3008 614 3008 1498 
C 3008 2336 2419 2944 1600 2944 
z
M 1517 2765 
C 2054 2765 2432 2150 2432 1274 
C 2432 550 2144 115 1664 115 
C 1414 115 1178 269 1043 525 
C 864 858 762 1306 762 1760 
C 762 2368 1062 2765 1517 2765 
z
" transform="scale(0.015625)"/>
      </defs>
      <use xlink:href="#NimbusRomNo9L-Regu-4e" transform="scale(0.996264)"/>
      <use xlink:href="#NimbusRomNo9L-Regu-52" transform="translate(71.929985 0) scale(0.996264)"/>
      <use xlink:href="#NimbusRomNo9L-Regu-6f" transform="translate(163.286616 0) scale(0.996264)"/>
      <use xlink:href="#NimbusRomNo9L-Regu-75" transform="translate(213.099817 0) scale(0.996264)"/>
      <use xlink:href="#NimbusRomNo9L-Regu-74" transform="translate(262.913017 0) scale(0.996264)"/>
      <use xlink:href="#NimbusRomNo9L-Regu-70" transform="translate(290.608187 0) scale(0.996264)"/>
      <use xlink:href="#NimbusRomNo9L-Regu-75" transform="translate(340.421387 0) scale(0.996264)"/>
      <use xlink:href="#NimbusRomNo9L-Regu-74" transform="translate(390.234588 0) scale(0.996264)"/>
     </g>
    </g>
   </g>
  </g>
 </g>
 <defs>
  <clipPath id="pfd2c4c108e">
   <rect x="41.04775" y="13.474578" width="202.972335" height="82.724297"/>
  </clipPath>
 </defs>
</svg>
