<?xml version="1.0" encoding="utf-8" standalone="no"?>
<!DOCTYPE svg PUBLIC "-//W3C//DTD SVG 1.1//EN"
  "http://www.w3.org/Graphics/SVG/1.1/DTD/svg11.dtd">
<svg xmlns:xlink="http://www.w3.org/1999/xlink" width="247.141867pt" height="124.850544pt" viewBox="0 0 247.141867 124.850544" xmlns="http://www.w3.org/2000/svg" version="1.1">
 <metadata>
  <rdf:RDF xmlns:dc="http://purl.org/dc/elements/1.1/" xmlns:cc="http://creativecommons.org/ns#" xmlns:rdf="http://www.w3.org/1999/02/22-rdf-syntax-ns#">
   <cc:Work>
    <dc:type rdf:resource="http://purl.org/dc/dcmitype/StillImage"/>
    <dc:date>2026-04-22T09:33:50.583545</dc:date>
    <dc:format>image/svg+xml</dc:format>
    <dc:creator>
     <cc:Agent>
      <dc:title>Matplotlib v3.10.8, https://matplotlib.org/</dc:title>
     </cc:Agent>
    </dc:creator>
   </cc:Work>
  </rdf:RDF>
 </metadata>
 <defs>
  <style type="text/css">*{stroke-linejoin: round; stroke-linecap: butt}</style>
 </defs>
 <g id="figure_1">
  <g id="patch_1">
   <path d="M 0 124.850544 
L 247.141867 124.850544 
L 247.141867 0 
L 0 0 
z
" style="fill: #ffffff"/>
  </g>
  <g id="axes_1">
   <g id="patch_2">
    <path d="M 41.04775 96.198874 
L 244.258269 96.198874 
L 244.258269 13.474578 
L 41.04775 13.474578 
z
" style="fill: #ffffff"/>
   </g>
   <g id="matplotlib.axis_1">
    <g id="xtick_1">
     <g id="line2d_1">
      <path d="M 43.36734 96.198874 
L 43.36734 13.474578 
" clip-path="url(#p527b37f296)" style="fill: none; stroke: #cccccc; stroke-width: 0.8; stroke-linecap: square"/>
     </g>
     <g id="line2d_2">
      <defs>
       <path id="m7d571b0057" d="M 0 0 
L 0 3.5 
" style="stroke: #000000; stroke-width: 0.8"/>
      </defs>
      <g>
       <use xlink:href="#m7d571b0057" x="43.36734" y="96.198874" style="stroke: #000000; stroke-width: 0.8"/>
      </g>
     </g>
     <g id="text_1">
      <!-- $\mathdefault{−60}$ -->
      <g transform="translate(35.400762 109.277991) scale(0.09 -0.09)">
       <defs>
        <path id="CMSY10-0" d="M 4218 1472 
C 4326 1472 4442 1472 4442 1600 
C 4442 1728 4326 1728 4218 1728 
L 755 1728 
C 646 1728 531 1728 531 1600 
C 531 1472 646 1472 755 1472 
L 4218 1472 
z
" transform="scale(0.015625)"/>
        <path id="NimbusRomNo9L-Regu-36" d="M 2854 4391 
C 2125 4327 1754 4205 1286 3879 
C 595 3386 218 2656 218 1802 
C 218 1248 390 688 666 370 
C 909 89 1254 -64 1651 -64 
C 2445 -64 2995 541 2995 1421 
C 2995 2236 2528 2752 1792 2752 
C 1510 2752 1376 2707 973 2464 
C 1146 3431 1862 4122 2867 4288 
L 2854 4391 
z
M 1549 2458 
C 2099 2458 2419 2000 2419 1204 
C 2419 504 2170 116 1722 116 
C 1158 116 813 714 813 1700 
C 813 2025 864 2203 992 2299 
C 1126 2400 1325 2458 1549 2458 
z
" transform="scale(0.015625)"/>
        <path id="NimbusRomNo9L-Regu-30" d="M 1626 4352 
C 1274 4352 1005 4244 768 4020 
C 397 3661 154 2925 154 2176 
C 154 1479 365 730 666 372 
C 902 90 1229 -64 1600 -64 
C 1926 -64 2202 45 2432 269 
C 2803 621 3046 1364 3046 2138 
C 3046 3450 2464 4352 1626 4352 
z
M 1606 4186 
C 2144 4186 2432 3463 2432 2125 
C 2432 788 2150 103 1600 103 
C 1050 103 768 788 768 2119 
C 768 3476 1056 4186 1606 4186 
z
" transform="scale(0.015625)"/>
       </defs>
       <use xlink:href="#CMSY10-0" transform="scale(0.996264)"/>
       <use xlink:href="#NimbusRomNo9L-Regu-36" transform="translate(77.408707 0) scale(0.996264)"/>
       <use xlink:href="#NimbusRomNo9L-Regu-30" transform="translate(127.221908 0) scale(0.996264)"/>
      </g>
     </g>
    </g>
    <g id="xtick_2">
     <g id="line2d_3">
      <path d="M 76.462563 96.198874 
L 76.462563 13.474578 
" clip-path="url(#p527b37f296)" style="fill: none; stroke: #cccccc; stroke-width: 0.8; stroke-linecap: square"/>
     </g>
     <g id="line2d_4">
      <g>
       <use xlink:href="#m7d571b0057" x="76.462563" y="96.198874" style="stroke: #000000; stroke-width: 0.8"/>
      </g>
     </g>
     <g id="text_2">
      <!-- $\mathdefault{−40}$ -->
      <g transform="translate(68.495985 109.277991) scale(0.09 -0.09)">
       <defs>
        <path id="NimbusRomNo9L-Regu-34" d="M 3021 1497 
L 2368 1497 
L 2368 4352 
L 2086 4352 
L 77 1497 
L 77 1088 
L 1875 1088 
L 1875 32 
L 2368 32 
L 2368 1088 
L 3021 1088 
L 3021 1497 
z
M 1869 1497 
L 333 1497 
L 1869 3698 
L 1869 1497 
z
" transform="scale(0.015625)"/>
       </defs>
       <use xlink:href="#CMSY10-0" transform="scale(0.996264)"/>
       <use xlink:href="#NimbusRomNo9L-Regu-34" transform="translate(77.408707 0) scale(0.996264)"/>
       <use xlink:href="#NimbusRomNo9L-Regu-30" transform="translate(127.221908 0) scale(0.996264)"/>
      </g>
     </g>
    </g>
    <g id="xtick_3">
     <g id="line2d_5">
      <path d="M 109.557786 96.198874 
L 109.557786 13.474578 
" clip-path="url(#p527b37f296)" style="fill: none; stroke: #cccccc; stroke-width: 0.8; stroke-linecap: square"/>
     </g>
     <g id="line2d_6">
      <g>
       <use xlink:href="#m7d571b0057" x="109.557786" y="96.198874" style="stroke: #000000; stroke-width: 0.8"/>
      </g>
     </g>
     <g id="text_3">
      <!-- $\mathdefault{−20}$ -->
      <g transform="translate(101.591209 109.277991) scale(0.09 -0.09)">
       <defs>
        <path id="NimbusRomNo9L-Regu-32" d="M 3040 875 
L 2957 907 
C 2720 544 2637 486 2349 486 
L 819 486 
L 1894 1609 
C 2464 2202 2714 2687 2714 3185 
C 2714 3823 2195 4313 1530 4313 
C 1178 4313 845 4173 608 3918 
C 403 3700 307 3496 198 3043 
L 333 3011 
C 589 3636 819 3840 1261 3840 
C 1798 3840 2163 3476 2163 2940 
C 2163 2443 1869 1850 1331 1282 
L 192 77 
L 192 0 
L 2688 0 
L 3040 875 
z
" transform="scale(0.015625)"/>
       </defs>
       <use xlink:href="#CMSY10-0" transform="scale(0.996264)"/>
       <use xlink:href="#NimbusRomNo9L-Regu-32" transform="translate(77.408707 0) scale(0.996264)"/>
       <use xlink:href="#NimbusRomNo9L-Regu-30" transform="translate(127.221908 0) scale(0.996264)"/>
      </g>
     </g>
    </g>
    <g id="xtick_4">
     <g id="line2d_7">
      <path d="M 142.653009 96.198874 
L 142.653009 13.474578 
" clip-path="url(#p527b37f296)" style="fill: none; stroke: #cccccc; stroke-width: 0.8; stroke-linecap: square"/>
     </g>
     <g id="line2d_8">
      <g>
       <use xlink:href="#m7d571b0057" x="142.653009" y="96.198874" style="stroke: #000000; stroke-width: 0.8"/>
      </g>
     </g>
     <g id="text_4">
      <!-- $\mathdefault{0}$ -->
      <g transform="translate(140.411415 109.277991) scale(0.09 -0.09)">
       <use xlink:href="#NimbusRomNo9L-Regu-30" transform="scale(0.996264)"/>
      </g>
     </g>
    </g>
    <g id="xtick_5">
     <g id="line2d_9">
      <path d="M 175.748233 96.198874 
L 175.748233 13.474578 
" clip-path="url(#p527b37f296)" style="fill: none; stroke: #cccccc; stroke-width: 0.8; stroke-linecap: square"/>
     </g>
     <g id="line2d_10">
      <g>
       <use xlink:href="#m7d571b0057" x="175.748233" y="96.198874" style="stroke: #000000; stroke-width: 0.8"/>
      </g>
     </g>
     <g id="text_5">
      <!-- $\mathdefault{20}$ -->
      <g transform="translate(171.265044 109.277991) scale(0.09 -0.09)">
       <use xlink:href="#NimbusRomNo9L-Regu-32" transform="scale(0.996264)"/>
       <use xlink:href="#NimbusRomNo9L-Regu-30" transform="translate(49.8132 0) scale(0.996264)"/>
      </g>
     </g>
    </g>
    <g id="xtick_6">
     <g id="line2d_11">
      <path d="M 208.843456 96.198874 
L 208.843456 13.474578 
" clip-path="url(#p527b37f296)" style="fill: none; stroke: #cccccc; stroke-width: 0.8; stroke-linecap: square"/>
     </g>
     <g id="line2d_12">
      <g>
       <use xlink:href="#m7d571b0057" x="208.843456" y="96.198874" style="stroke: #000000; stroke-width: 0.8"/>
      </g>
     </g>
     <g id="text_6">
      <!-- $\mathdefault{40}$ -->
      <g transform="translate(204.360268 109.277991) scale(0.09 -0.09)">
       <use xlink:href="#NimbusRomNo9L-Regu-34" transform="scale(0.996264)"/>
       <use xlink:href="#NimbusRomNo9L-Regu-30" transform="translate(49.8132 0) scale(0.996264)"/>
      </g>
     </g>
    </g>
    <g id="xtick_7">
     <g id="line2d_13">
      <path d="M 241.938679 96.198874 
L 241.938679 13.474578 
" clip-path="url(#p527b37f296)" style="fill: none; stroke: #cccccc; stroke-width: 0.8; stroke-linecap: square"/>
     </g>
     <g id="line2d_14">
      <g>
       <use xlink:href="#m7d571b0057" x="241.938679" y="96.198874" style="stroke: #000000; stroke-width: 0.8"/>
      </g>
     </g>
     <g id="text_7">
      <!-- $\mathdefault{60}$ -->
      <g transform="translate(237.455491 109.277991) scale(0.09 -0.09)">
       <use xlink:href="#NimbusRomNo9L-Regu-36" transform="scale(0.996264)"/>
       <use xlink:href="#NimbusRomNo9L-Regu-30" transform="translate(49.8132 0) scale(0.996264)"/>
      </g>
     </g>
    </g>
    <g id="text_8">
     <!-- Frequency [MHz] -->
     <g transform="translate(106.902309 121.973715) scale(0.1 -0.1)">
      <defs>
       <path id="NimbusRomNo9L-Regu-46" d="M 3066 1472 
L 3066 2957 
L 2918 2957 
C 2842 2461 2726 2368 2214 2368 
L 1286 2368 
L 1286 3766 
C 1286 3943 1318 3981 1491 3981 
L 2362 3981 
C 3085 3981 3226 3886 3334 3314 
L 3494 3314 
L 3475 4224 
L 77 4224 
L 77 4102 
C 550 4064 634 3974 634 3525 
L 634 749 
C 634 217 563 134 77 134 
L 77 0 
L 1869 0 
L 1869 134 
C 1376 134 1286 225 1286 692 
L 1286 2106 
L 2214 2106 
C 2733 2106 2842 2007 2918 1472 
L 3066 1472 
z
" transform="scale(0.015625)"/>
       <path id="NimbusRomNo9L-Regu-72" d="M 45 2496 
C 134 2515 192 2522 269 2522 
C 429 2522 486 2419 486 2138 
L 486 538 
C 486 218 442 173 32 96 
L 32 0 
L 1568 0 
L 1568 102 
C 1133 102 1024 199 1024 565 
L 1024 2013 
C 1024 2219 1299 2541 1472 2541 
C 1510 2541 1568 2509 1638 2445 
C 1741 2355 1811 2317 1894 2317 
C 2048 2317 2144 2426 2144 2605 
C 2144 2816 2010 2944 1792 2944 
C 1523 2944 1338 2797 1024 2343 
L 1024 2931 
L 992 2944 
C 653 2803 422 2721 45 2599 
L 45 2496 
z
" transform="scale(0.015625)"/>
       <path id="NimbusRomNo9L-Regu-65" d="M 2611 1053 
C 2304 564 2029 378 1619 378 
C 1254 378 979 564 794 930 
C 678 1174 634 1386 621 1779 
L 2592 1779 
C 2541 2193 2477 2377 2317 2581 
C 2125 2811 1830 2944 1498 2944 
C 1178 2944 877 2829 634 2611 
C 333 2349 160 1894 160 1370 
C 160 486 621 -64 1357 -64 
C 1965 -64 2445 315 2714 1008 
L 2611 1053 
z
M 634 1984 
C 704 2479 922 2714 1312 2714 
C 1702 2714 1856 2535 1939 1984 
L 634 1984 
z
" transform="scale(0.015625)"/>
       <path id="NimbusRomNo9L-Regu-71" d="M 2304 2701 
C 2010 2874 1818 2931 1568 2931 
C 768 2931 154 2218 154 1300 
C 154 498 576 -70 1178 -70 
C 1549 -70 1901 96 2182 403 
L 2182 -824 
C 2182 -1188 2067 -1286 1613 -1286 
L 1613 -1408 
L 3123 -1408 
L 3123 -1318 
C 2771 -1241 2720 -1190 2720 -921 
L 2720 2906 
L 2650 2906 
L 2304 2701 
z
M 2182 804 
C 2182 651 2157 569 2093 518 
C 1952 397 1741 320 1542 320 
C 1344 320 1171 384 1043 511 
C 838 696 704 1110 704 1530 
C 704 2282 1043 2752 1587 2752 
C 1984 2752 2182 2542 2182 2115 
L 2182 804 
z
" transform="scale(0.015625)"/>
       <path id="NimbusRomNo9L-Regu-75" d="M 3066 320 
L 3034 320 
C 2739 320 2669 390 2669 685 
L 2669 2880 
L 1658 2880 
L 1658 2758 
C 2054 2758 2131 2694 2131 2375 
L 2131 875 
C 2131 697 2099 607 2010 537 
C 1837 397 1638 320 1446 320 
C 1197 320 992 537 992 805 
L 992 2880 
L 58 2880 
L 58 2778 
C 365 2778 454 2682 454 2387 
L 454 770 
C 454 263 762 -64 1229 -64 
C 1466 -64 1715 38 1888 211 
L 2163 486 
L 2163 -45 
L 2189 -58 
C 2509 70 2739 141 3066 230 
L 3066 320 
z
" transform="scale(0.015625)"/>
       <path id="NimbusRomNo9L-Regu-6e" d="M 102 2579 
C 141 2598 205 2605 275 2605 
C 454 2605 512 2509 512 2195 
L 512 608 
C 512 243 442 154 115 128 
L 115 32 
L 1472 32 
L 1472 128 
C 1146 154 1050 230 1050 461 
L 1050 2259 
C 1357 2547 1498 2624 1709 2624 
C 2022 2624 2176 2426 2176 2003 
L 2176 666 
C 2176 262 2093 154 1773 128 
L 1773 32 
L 3104 32 
L 3104 128 
C 2790 160 2714 237 2714 550 
L 2714 2016 
C 2714 2618 2432 2976 1958 2976 
C 1664 2976 1466 2867 1030 2458 
L 1030 2963 
L 986 2976 
C 672 2861 454 2790 102 2688 
L 102 2579 
z
" transform="scale(0.015625)"/>
       <path id="NimbusRomNo9L-Regu-63" d="M 2547 998 
C 2240 550 2010 397 1645 397 
C 1062 397 653 909 653 1645 
C 653 2304 1005 2758 1523 2758 
C 1754 2758 1837 2688 1901 2451 
L 1939 2310 
C 1990 2131 2106 2016 2240 2016 
C 2406 2016 2547 2138 2547 2285 
C 2547 2643 2099 2944 1562 2944 
C 1248 2944 922 2816 659 2586 
C 339 2304 160 1869 160 1363 
C 160 531 666 -64 1376 -64 
C 1664 -64 1920 38 2150 237 
C 2323 390 2445 563 2637 941 
L 2547 998 
z
" transform="scale(0.015625)"/>
       <path id="NimbusRomNo9L-Regu-79" d="M 3040 2880 
L 2176 2880 
L 2176 2784 
C 2381 2784 2483 2726 2483 2623 
C 2483 2597 2477 2559 2458 2514 
L 1837 742 
L 1101 2377 
C 1062 2468 1037 2552 1037 2622 
C 1037 2739 1133 2784 1408 2784 
L 1408 2880 
L 90 2880 
L 90 2790 
C 256 2765 365 2694 416 2585 
L 1146 1005 
L 1165 953 
L 1261 761 
C 1440 440 1542 209 1542 112 
C 1542 16 1395 -389 1286 -582 
C 1197 -749 1056 -871 966 -871 
C 928 -871 870 -858 806 -826 
C 685 -781 576 -755 467 -755 
C 320 -755 192 -883 192 -1037 
C 192 -1248 397 -1408 666 -1408 
C 1094 -1408 1402 -1049 1747 -124 
L 2733 2495 
C 2816 2701 2886 2765 3040 2784 
L 3040 2880 
z
" transform="scale(0.015625)"/>
       <path id="NimbusRomNo9L-Regu-5b" d="M 1914 -864 
L 1363 -864 
C 1152 -864 1050 -756 1050 -531 
L 1050 3781 
C 1050 3981 1133 4064 1338 4064 
L 1914 4064 
L 1914 4224 
L 563 4224 
L 563 -1024 
L 1914 -1024 
L 1914 -864 
z
" transform="scale(0.015625)"/>
       <path id="NimbusRomNo9L-Regu-4d" d="M 4314 3667 
L 4314 751 
C 4314 217 4237 134 3731 134 
L 3731 0 
L 5523 0 
L 5523 134 
C 5056 134 4966 223 4966 681 
L 4966 3536 
C 4966 3993 5050 4077 5523 4115 
L 5523 4237 
L 4250 4237 
L 2835 1004 
L 1357 4237 
L 90 4237 
L 90 4096 
C 614 4096 698 4019 698 3550 
L 698 943 
C 698 282 608 159 77 121 
L 77 0 
L 1581 0 
L 1581 134 
C 1088 134 979 282 979 931 
L 979 3520 
L 2586 0 
L 2675 0 
L 4314 3667 
z
" transform="scale(0.015625)"/>
       <path id="NimbusRomNo9L-Regu-48" d="M 1338 2304 
L 1338 3533 
C 1338 3990 1408 4059 1901 4104 
L 1901 4224 
L 122 4224 
L 122 4104 
C 614 4059 685 3989 685 3527 
L 685 749 
C 685 210 621 134 122 134 
L 122 0 
L 1901 0 
L 1901 121 
C 1421 159 1338 242 1338 699 
L 1338 2022 
L 3277 2022 
L 3277 757 
C 3277 211 3213 134 2714 134 
L 2714 0 
L 4493 0 
L 4493 121 
C 4013 159 3930 242 3930 696 
L 3930 3529 
C 3930 3989 4000 4059 4493 4104 
L 4493 4224 
L 2714 4224 
L 2714 4104 
C 3206 4059 3277 3990 3277 3533 
L 3277 2304 
L 1338 2304 
z
" transform="scale(0.015625)"/>
       <path id="NimbusRomNo9L-Regu-7a" d="M 2675 864 
L 2560 890 
C 2496 570 2458 467 2374 358 
C 2285 250 2067 192 1741 192 
L 858 192 
L 2579 2784 
L 2579 2880 
L 358 2880 
L 339 2125 
L 454 2125 
C 512 2592 608 2688 992 2688 
L 1875 2688 
L 173 96 
L 173 0 
L 2586 0 
L 2675 864 
z
" transform="scale(0.015625)"/>
       <path id="NimbusRomNo9L-Regu-5d" d="M 218 -864 
L 218 -1024 
L 1568 -1024 
L 1568 4224 
L 218 4224 
L 218 4064 
L 768 4064 
C 979 4064 1082 3955 1082 3730 
L 1082 -582 
C 1082 -781 992 -864 794 -864 
L 218 -864 
z
" transform="scale(0.015625)"/>
      </defs>
      <use xlink:href="#NimbusRomNo9L-Regu-46" transform="scale(0.996264)"/>
      <use xlink:href="#NimbusRomNo9L-Regu-72" transform="translate(55.391677 0) scale(0.996264)"/>
      <use xlink:href="#NimbusRomNo9L-Regu-65" transform="translate(88.566907 0) scale(0.996264)"/>
      <use xlink:href="#NimbusRomNo9L-Regu-71" transform="translate(132.800475 0) scale(0.996264)"/>
      <use xlink:href="#NimbusRomNo9L-Regu-75" transform="translate(182.613676 0) scale(0.996264)"/>
      <use xlink:href="#NimbusRomNo9L-Regu-65" transform="translate(232.426876 0) scale(0.996264)"/>
      <use xlink:href="#NimbusRomNo9L-Regu-6e" transform="translate(276.660445 0) scale(0.996264)"/>
      <use xlink:href="#NimbusRomNo9L-Regu-63" transform="translate(326.473646 0) scale(0.996264)"/>
      <use xlink:href="#NimbusRomNo9L-Regu-79" transform="translate(369.213822 0) scale(0.996264)"/>
      <use xlink:href="#NimbusRomNo9L-Regu-5b" transform="translate(443.933622 0) scale(0.996264)"/>
      <use xlink:href="#NimbusRomNo9L-Regu-4d" transform="translate(477.108852 0) scale(0.996264)"/>
      <use xlink:href="#NimbusRomNo9L-Regu-48" transform="translate(565.675759 0) scale(0.996264)"/>
      <use xlink:href="#NimbusRomNo9L-Regu-7a" transform="translate(637.605744 0) scale(0.996264)"/>
      <use xlink:href="#NimbusRomNo9L-Regu-5d" transform="translate(681.839312 0) scale(0.996264)"/>
     </g>
    </g>
   </g>
   <g id="matplotlib.axis_2">
    <g id="ytick_1">
     <g id="line2d_15">
      <path d="M 41.04775 89.305183 
L 244.258269 89.305183 
" clip-path="url(#p527b37f296)" style="fill: none; stroke: #cccccc; stroke-width: 0.8; stroke-linecap: square"/>
     </g>
     <g id="line2d_16">
      <defs>
       <path id="m80b23b395c" d="M 0 0 
L -3.5 0 
" style="stroke: #000000; stroke-width: 0.8"/>
      </defs>
      <g>
       <use xlink:href="#m80b23b395c" x="41.04775" y="89.305183" style="stroke: #000000; stroke-width: 0.8"/>
      </g>
     </g>
     <g id="text_9">
      <!-- $\mathdefault{−100}$ -->
      <g transform="translate(13.631406 92.344741) scale(0.09 -0.09)">
       <defs>
        <path id="NimbusRomNo9L-Regu-31" d="M 1862 4339 
L 710 3757 
L 710 3667 
C 787 3699 858 3725 883 3738 
C 998 3783 1107 3808 1171 3808 
C 1306 3808 1363 3711 1363 3505 
L 1363 592 
C 1363 379 1312 232 1210 173 
C 1114 116 1024 96 755 96 
L 755 0 
L 2522 0 
L 2522 96 
C 2016 96 1914 160 1914 470 
L 1914 4327 
L 1862 4339 
z
" transform="scale(0.015625)"/>
       </defs>
       <use xlink:href="#CMSY10-0" transform="scale(0.996264)"/>
       <use xlink:href="#NimbusRomNo9L-Regu-31" transform="translate(77.408707 0) scale(0.996264)"/>
       <use xlink:href="#NimbusRomNo9L-Regu-30" transform="translate(127.221908 0) scale(0.996264)"/>
       <use xlink:href="#NimbusRomNo9L-Regu-30" transform="translate(177.035108 0) scale(0.996264)"/>
      </g>
     </g>
    </g>
    <g id="ytick_2">
     <g id="line2d_17">
      <path d="M 41.04775 54.836726 
L 244.258269 54.836726 
" clip-path="url(#p527b37f296)" style="fill: none; stroke: #cccccc; stroke-width: 0.8; stroke-linecap: square"/>
     </g>
     <g id="line2d_18">
      <g>
       <use xlink:href="#m80b23b395c" x="41.04775" y="54.836726" style="stroke: #000000; stroke-width: 0.8"/>
      </g>
     </g>
     <g id="text_10">
      <!-- $\mathdefault{−50}$ -->
      <g transform="translate(18.114594 57.876284) scale(0.09 -0.09)">
       <defs>
        <path id="NimbusRomNo9L-Regu-35" d="M 1158 3776 
L 2413 3776 
C 2515 3776 2541 3789 2560 3834 
L 2803 4403 
L 2746 4448 
C 2650 4314 2586 4282 2451 4282 
L 1114 4282 
L 416 2759 
C 410 2746 410 2740 410 2727 
C 410 2695 435 2676 486 2676 
C 691 2676 947 2631 1210 2547 
C 1946 2309 2285 1910 2285 1274 
C 2285 656 1894 173 1395 173 
C 1267 173 1158 218 966 360 
C 762 508 614 572 480 572 
C 294 572 205 495 205 334 
C 205 90 506 -64 986 -64 
C 1523 -64 1984 110 2304 438 
C 2598 728 2733 1094 2733 1583 
C 2733 2046 2611 2342 2291 2663 
C 2010 2947 1645 3094 890 3229 
L 1158 3776 
z
" transform="scale(0.015625)"/>
       </defs>
       <use xlink:href="#CMSY10-0" transform="scale(0.996264)"/>
       <use xlink:href="#NimbusRomNo9L-Regu-35" transform="translate(77.408707 0) scale(0.996264)"/>
       <use xlink:href="#NimbusRomNo9L-Regu-30" transform="translate(127.221908 0) scale(0.996264)"/>
      </g>
     </g>
    </g>
    <g id="ytick_3">
     <g id="line2d_19">
      <path d="M 41.04775 20.368269 
L 244.258269 20.368269 
" clip-path="url(#p527b37f296)" style="fill: none; stroke: #cccccc; stroke-width: 0.8; stroke-linecap: square"/>
     </g>
     <g id="line2d_20">
      <g>
       <use xlink:href="#m80b23b395c" x="41.04775" y="20.368269" style="stroke: #000000; stroke-width: 0.8"/>
      </g>
     </g>
     <g id="text_11">
      <!-- $\mathdefault{0}$ -->
      <g transform="translate(29.564562 23.407827) scale(0.09 -0.09)">
       <use xlink:href="#NimbusRomNo9L-Regu-30" transform="scale(0.996264)"/>
      </g>
     </g>
    </g>
    <g id="text_12">
     <!-- PSD [dB] -->
     <g transform="translate(7.474578 74.348396) rotate(-90) scale(0.1 -0.1)">
      <defs>
       <path id="NimbusRomNo9L-Regu-50" d="M 1293 1875 
C 1459 1856 1568 1856 1734 1856 
C 2234 1856 2579 1919 2854 2072 
C 3238 2274 3469 2660 3469 3078 
C 3469 3344 3379 3584 3206 3768 
C 2950 4047 2394 4224 1792 4224 
L 102 4224 
L 102 4102 
C 576 4051 640 3987 640 3528 
L 640 766 
C 640 230 589 166 102 122 
L 102 0 
L 1894 0 
L 1894 128 
C 1389 128 1293 218 1293 693 
L 1293 1875 
z
M 1293 3772 
C 1293 3943 1338 3987 1510 3987 
C 2374 3987 2771 3690 2771 3040 
C 2771 2428 2394 2112 1658 2112 
C 1530 2112 1440 2119 1293 2131 
L 1293 3772 
z
" transform="scale(0.015625)"/>
       <path id="NimbusRomNo9L-Regu-53" d="M 2861 4352 
L 2726 4352 
C 2701 4205 2630 4135 2522 4135 
C 2458 4135 2349 4160 2240 4212 
C 2003 4301 1766 4352 1562 4352 
C 1286 4352 1005 4244 794 4058 
C 570 3859 454 3590 454 3256 
C 454 2743 736 2385 1453 2006 
C 1914 1763 2246 1499 2406 1256 
C 2464 1173 2496 1038 2496 884 
C 2496 454 2176 160 1709 160 
C 1139 160 736 513 416 1296 
L 269 1296 
L 461 -64 
L 602 -64 
C 608 57 685 147 781 147 
C 851 147 960 122 1082 79 
C 1325 -14 1581 -64 1837 -64 
C 2573 -64 3142 442 3142 1101 
C 3142 1626 2790 2042 1946 2496 
C 1274 2868 1005 3149 1005 3495 
C 1005 3847 1274 4090 1670 4090 
C 1958 4090 2227 3968 2451 3738 
C 2650 3533 2739 3367 2842 2989 
L 3002 2989 
L 2861 4352 
z
" transform="scale(0.015625)"/>
       <path id="NimbusRomNo9L-Regu-44" d="M 666 679 
C 666 217 589 134 102 134 
L 102 0 
L 1920 0 
C 2662 0 3334 210 3731 568 
C 4147 944 4384 1512 4384 2131 
C 4384 2706 4192 3203 3840 3554 
C 3405 3994 2707 4224 1830 4224 
L 102 4224 
L 102 4102 
C 608 4057 666 4000 666 3525 
L 666 679 
z
M 1318 3738 
C 1318 3936 1389 3987 1651 3987 
C 2202 3987 2618 3885 2925 3668 
C 3424 3323 3686 2775 3686 2087 
C 3686 1334 3424 798 2906 498 
C 2579 314 2208 237 1651 237 
C 1395 237 1318 294 1318 498 
L 1318 3738 
z
" transform="scale(0.015625)"/>
       <path id="NimbusRomNo9L-Regu-64" d="M 2202 -64 
L 3142 269 
L 3142 365 
C 3027 365 3014 365 2995 365 
C 2765 365 2714 435 2714 731 
L 2714 4364 
L 2682 4377 
C 2374 4268 2150 4204 1741 4096 
L 1741 3994 
C 1792 4000 1830 4000 1882 4000 
C 2118 4000 2176 3936 2176 3672 
L 2176 2669 
C 1933 2874 1760 2944 1504 2944 
C 768 2944 173 2221 173 1312 
C 173 493 653 -64 1357 -64 
C 1715 -64 1958 64 2176 365 
L 2176 -45 
L 2202 -64 
z
M 2176 653 
C 2176 608 2131 531 2067 461 
C 1952 333 1792 269 1606 269 
C 1075 269 723 781 723 1568 
C 723 2291 1037 2765 1523 2765 
C 1862 2765 2176 2464 2176 2125 
L 2176 653 
z
" transform="scale(0.015625)"/>
       <path id="NimbusRomNo9L-Regu-42" d="M 109 4237 
L 109 4096 
C 646 4096 723 4026 723 3548 
L 723 689 
C 723 212 640 128 109 128 
L 109 0 
L 2246 0 
C 2746 0 3200 136 3437 356 
C 3667 564 3795 855 3795 1165 
C 3795 1451 3680 1710 3482 1897 
C 3290 2072 3117 2150 2701 2253 
C 3034 2335 3168 2398 3322 2531 
C 3482 2671 3578 2903 3578 3163 
C 3578 3871 3008 4237 1901 4237 
L 109 4237 
z
M 1376 2112 
C 1997 2112 2291 2080 2522 1982 
C 2886 1827 3059 1568 3059 1159 
C 3059 809 2925 555 2669 406 
C 2464 290 2202 238 1779 238 
C 1466 238 1376 296 1376 504 
L 1376 2112 
z
M 1376 2368 
L 1376 3812 
C 1376 3944 1421 4001 1517 4001 
L 1798 4001 
C 2534 4001 2925 3699 2925 3137 
C 2925 2646 2586 2368 1984 2368 
L 1376 2368 
z
" transform="scale(0.015625)"/>
      </defs>
      <use xlink:href="#NimbusRomNo9L-Regu-50" transform="scale(0.996264)"/>
      <use xlink:href="#NimbusRomNo9L-Regu-53" transform="translate(55.391677 0) scale(0.996264)"/>
      <use xlink:href="#NimbusRomNo9L-Regu-44" transform="translate(110.783354 0) scale(0.996264)"/>
      <use xlink:href="#NimbusRomNo9L-Regu-5b" transform="translate(207.619939 0) scale(0.996264)"/>
      <use xlink:href="#NimbusRomNo9L-Regu-64" transform="translate(240.795169 0) scale(0.996264)"/>
      <use xlink:href="#NimbusRomNo9L-Regu-42" transform="translate(290.608369 0) scale(0.996264)"/>
      <use xlink:href="#NimbusRomNo9L-Regu-5d" transform="translate(357.0584 0) scale(0.996264)"/>
     </g>
    </g>
   </g>
   <g id="line2d_21">
    <path d="M 41.04775 81.71218 
L 41.174282 81.630386 
L 41.300814 81.711807 
L 41.427346 81.564523 
L 41.553878 81.716093 
L 41.68041 81.625676 
L 41.933474 81.703112 
L 42.060006 81.634361 
L 42.186539 81.7057 
L 42.313071 81.564101 
L 42.439603 81.718573 
L 42.566135 81.620315 
L 42.819199 81.692853 
L 43.198795 81.563153 
L 43.325327 81.719183 
L 43.451859 81.61438 
L 43.578391 81.730833 
L 44.08452 81.562124 
L 44.211052 81.717794 
L 44.337584 81.608278 
L 44.464116 81.733577 
L 44.71718 81.641032 
L 44.843712 81.677073 
L 44.970244 81.560905 
L 45.096776 81.714306 
L 45.223308 81.601322 
L 45.349841 81.734738 
L 45.602905 81.641592 
L 45.729437 81.664065 
L 45.855969 81.559153 
L 45.982501 81.708931 
L 46.109033 81.593914 
L 46.235565 81.734376 
L 46.488629 81.641283 
L 47.500886 81.633595 
L 47.627418 81.553895 
L 47.75395 81.692445 
L 47.880482 81.577516 
L 48.007014 81.728074 
L 48.260078 81.636455 
L 48.766207 81.569132 
L 48.892739 81.721524 
L 49.019271 81.591408 
L 49.272335 81.598027 
L 49.398867 81.546676 
L 49.525399 81.668196 
L 49.651931 81.559875 
L 49.778463 81.712906 
L 49.904995 81.573532 
L 50.15806 81.578309 
L 50.284592 81.542346 
L 50.411124 81.653419 
L 50.537656 81.550587 
L 50.664188 81.70281 
L 50.79072 81.5553 
L 50.917252 81.619575 
L 51.170316 81.536906 
L 51.296848 81.636484 
L 51.42338 81.54025 
L 51.549912 81.690191 
L 51.676444 81.535921 
L 51.802977 81.610694 
L 52.056041 81.530509 
L 52.182573 81.618171 
L 52.309105 81.529776 
L 52.435637 81.676229 
L 52.562169 81.516579 
L 52.688701 81.600546 
L 52.941765 81.52333 
L 53.068297 81.59846 
L 53.194829 81.518625 
L 53.321361 81.659245 
L 53.447894 81.496298 
L 53.574426 81.587954 
L 53.82749 81.514858 
L 53.954022 81.576323 
L 54.080554 81.506821 
L 54.207086 81.640344 
L 54.333618 81.475892 
L 54.46015 81.574445 
L 54.586682 81.464287 
L 55.092811 81.619702 
L 55.219343 81.454858 
L 55.345875 81.558816 
L 55.472407 81.438481 
L 55.725471 81.527818 
L 55.852003 81.481354 
L 55.978535 81.596554 
L 56.105067 81.43297 
L 56.231599 81.541357 
L 56.358131 81.412158 
L 56.611196 81.501778 
L 56.737728 81.467884 
L 56.86426 81.572297 
L 56.990792 81.411084 
L 57.117324 81.522255 
L 57.243856 81.385341 
L 57.49692 81.474198 
L 57.623452 81.452749 
L 57.749984 81.544914 
L 57.876516 81.388126 
L 58.003048 81.500335 
L 58.129581 81.357855 
L 58.382645 81.445055 
L 60.280626 81.403006 
L 60.407158 81.452149 
L 60.53369 81.317745 
L 60.660222 81.424401 
L 60.786754 81.272123 
L 60.913286 81.402482 
L 61.16635 81.384428 
L 61.292882 81.417919 
L 61.419415 81.292851 
L 61.545947 81.394908 
L 61.672479 81.24217 
L 61.799011 81.380873 
L 62.052075 81.363771 
L 62.178607 81.381523 
L 62.305139 81.267091 
L 62.431671 81.363184 
L 62.558203 81.212391 
L 62.684735 81.357579 
L 62.811267 81.282706 
L 63.064332 81.3436 
L 63.190864 81.241102 
L 63.317396 81.329565 
L 63.443928 81.181857 
L 63.57046 81.332248 
L 63.696992 81.247105 
L 63.950056 81.303875 
L 64.076588 81.214029 
L 64.20312 81.293869 
L 64.329652 81.150643 
L 64.456184 81.30511 
L 64.582717 81.210784 
L 64.835781 81.262881 
L 64.962313 81.186111 
L 65.088845 81.256295 
L 65.215377 81.118669 
L 65.341909 81.275814 
L 65.468441 81.173359 
L 65.594973 81.268335 
L 66.101101 81.086097 
L 66.227634 81.244749 
L 66.354166 81.135776 
L 66.480698 81.240252 
L 66.733762 81.126789 
L 66.860294 81.175612 
L 66.986826 81.05344 
L 67.113358 81.211017 
L 67.23989 81.096778 
L 67.366422 81.209821 
L 67.619486 81.095399 
L 67.746019 81.131935 
L 67.872551 81.01976 
L 67.999083 81.17519 
L 68.125615 81.05721 
L 68.252147 81.178218 
L 68.505211 81.063694 
L 68.631743 81.087291 
L 68.758275 80.985916 
L 68.884807 81.137628 
L 69.011339 81.016778 
L 69.137871 81.144299 
L 69.390936 81.029679 
L 70.27666 80.994907 
L 73.060366 80.836481 
L 73.186898 80.80199 
L 73.31343 80.914258 
L 73.439962 80.802316 
L 73.566494 80.940558 
L 73.693026 80.780679 
L 73.94609 80.780378 
L 74.072622 80.761217 
L 74.199155 80.862608 
L 74.325687 80.756918 
L 74.452219 80.893521 
L 74.578751 80.727306 
L 74.705283 80.795747 
L 74.958347 80.721006 
L 75.084879 80.810526 
L 75.211411 80.711207 
L 75.337943 80.843258 
L 75.464475 80.672024 
L 75.591007 80.749122 
L 75.844072 80.677177 
L 75.970604 80.753612 
L 76.097136 80.662867 
L 76.223668 80.789626 
L 76.3502 80.615719 
L 76.476732 80.701592 
L 76.729796 80.634263 
L 76.856328 80.69733 
L 76.98286 80.615931 
L 77.109392 80.735765 
L 77.235924 80.559573 
L 77.362457 80.652201 
L 77.488989 80.547624 
L 77.995117 80.676854 
L 78.121649 80.499999 
L 78.248181 80.599005 
L 78.374713 80.48497 
L 78.627777 80.575776 
L 78.754309 80.515127 
L 78.880841 80.618289 
L 79.007374 80.441874 
L 79.133906 80.545767 
L 79.260438 80.423177 
L 79.513502 80.512916 
L 79.640034 80.462586 
L 79.766566 80.554697 
L 79.893098 80.380668 
L 80.01963 80.487478 
L 80.146162 80.357638 
L 80.399226 80.446444 
L 80.525759 80.4086 
L 80.652291 80.489411 
L 80.778823 80.319886 
L 80.905355 80.429203 
L 81.031887 80.293153 
L 81.284951 80.380009 
L 82.170676 80.309312 
L 85.46051 79.946281 
L 85.587042 80.088628 
L 85.840106 80.050874 
L 85.966638 80.044946 
L 86.09317 79.925929 
L 86.219702 80.018745 
L 86.346234 79.872536 
L 86.472766 80.020712 
L 86.599298 79.934353 
L 86.852362 79.962607 
L 86.978895 79.855203 
L 87.105427 79.941228 
L 87.231959 79.79793 
L 87.358491 79.950482 
L 87.485023 79.854147 
L 87.738087 79.877531 
L 87.864619 79.782282 
L 87.991151 79.860157 
L 88.117683 79.721813 
L 88.244215 79.876669 
L 88.370747 79.772072 
L 88.623812 79.790686 
L 88.750344 79.708403 
L 88.876876 79.777055 
L 89.003408 79.644467 
L 89.12994 79.800604 
L 89.256472 79.688067 
L 89.383004 79.767884 
L 89.889132 79.563933 
L 90.015664 79.720522 
L 90.142197 79.601664 
L 90.268729 79.690722 
L 90.521793 79.552988 
L 90.648325 79.601336 
L 90.774857 79.483389 
L 90.901389 79.639609 
L 91.027921 79.514894 
L 91.154453 79.611401 
L 91.407517 79.471049 
L 91.534049 79.508436 
L 91.660581 79.398731 
L 91.787114 79.552412 
L 91.913646 79.423483 
L 92.040178 79.526436 
L 92.293242 79.387174 
L 92.419774 79.413437 
L 92.546306 79.314484 
L 92.672838 79.465016 
L 92.79937 79.333439 
L 92.925902 79.442256 
L 93.178966 79.302635 
L 93.558563 79.371851 
L 93.685095 79.237383 
L 93.811627 79.350452 
L 94.064691 79.211684 
L 95.076948 79.111555 
L 95.20348 79.046631 
L 95.330012 79.178391 
L 95.456544 79.043094 
L 95.583076 79.16141 
L 95.709608 79.00326 
L 95.962672 79.0013 
L 96.089204 78.949241 
L 96.215736 79.071681 
L 96.342268 78.93937 
L 96.4688 79.059179 
L 96.595333 78.893599 
L 96.848397 78.893476 
L 96.974929 78.855794 
L 97.101461 78.967999 
L 97.227993 78.838756 
L 97.354525 78.95716 
L 97.481057 78.782853 
L 97.734121 78.77876 
L 97.860653 78.753385 
L 97.987185 78.853125 
L 98.113718 78.727779 
L 98.24025 78.844139 
L 98.366782 78.66419 
L 98.619846 78.661078 
L 98.999442 78.62123 
L 99.125974 78.734926 
L 99.252506 78.550744 
L 99.379038 78.618017 
L 99.632102 78.545584 
L 99.758635 78.620622 
L 99.885167 78.50655 
L 100.011699 78.613739 
L 100.138231 78.425884 
L 100.264763 78.500729 
L 100.517827 78.431709 
L 100.644359 78.494853 
L 100.770891 78.389978 
L 100.897423 78.493014 
L 101.023955 78.304595 
L 101.150487 78.387872 
L 101.403552 78.321914 
L 101.530084 78.371337 
L 101.656616 78.27301 
L 101.783148 78.367837 
L 101.90968 78.176148 
L 102.036212 78.263681 
L 102.289276 78.198312 
L 102.415808 78.235064 
L 102.54234 78.144946 
L 102.668872 78.233506 
L 102.795404 78.042719 
L 102.921937 78.137083 
L 103.048469 78.025912 
L 103.301533 78.103351 
L 103.428065 78.022267 
L 103.554597 78.101968 
L 103.681129 77.910994 
L 103.807661 78.0078 
L 103.934193 77.88692 
L 104.187257 77.959574 
L 104.313789 77.886544 
L 104.440321 77.956122 
L 104.566854 77.766341 
L 104.693386 77.867107 
L 104.819918 77.739809 
L 105.072982 77.814303 
L 105.452578 77.625633 
L 105.57911 77.729558 
L 105.705642 77.594553 
L 105.958706 77.664807 
L 106.338303 77.473206 
L 106.464835 77.577788 
L 106.591367 77.436987 
L 106.844431 77.50487 
L 107.477091 77.281024 
L 107.603623 77.389758 
L 108.362816 77.115127 
L 108.489348 77.232153 
L 108.995476 76.994133 
L 109.122008 77.096837 
L 109.24854 76.94494 
L 109.375073 77.071102 
L 109.628137 76.98769 
L 109.754669 76.980628 
L 109.881201 76.82442 
L 110.007733 76.922895 
L 110.134265 76.769694 
L 110.260797 76.900199 
L 110.513861 76.813415 
L 110.640393 76.791607 
L 110.766925 76.646418 
L 110.893457 76.739162 
L 111.01999 76.586864 
L 111.146522 76.721408 
L 111.399586 76.632478 
L 112.791439 76.197978 
L 112.917971 76.335563 
L 113.171035 76.243641 
L 113.677163 75.988016 
L 113.803695 76.123286 
L 113.930227 75.993334 
L 114.183292 75.95033 
L 114.309824 75.848197 
L 114.436356 75.908726 
L 114.562888 75.767372 
L 114.68942 75.903341 
L 114.815952 75.769159 
L 114.942484 75.811972 
L 115.448612 75.540031 
L 115.575144 75.67322 
L 115.701677 75.528651 
L 115.828209 75.573877 
L 116.081273 75.380347 
L 116.207805 75.420614 
L 116.334337 75.283588 
L 116.460869 75.418496 
L 116.587401 75.270132 
L 116.713933 75.325913 
L 116.966997 75.13404 
L 117.093529 75.168187 
L 117.220061 75.036049 
L 117.346594 75.171962 
L 117.473126 75.014174 
L 117.599658 75.071732 
L 117.852722 74.859626 
L 117.979254 74.876784 
L 118.105786 74.743573 
L 118.232318 74.875738 
L 118.35885 74.708807 
L 118.485382 74.77396 
L 118.738446 74.563737 
L 118.864978 74.574095 
L 118.991511 74.455739 
L 119.118043 74.594163 
L 119.244575 74.42397 
L 119.371107 74.498855 
L 119.624171 74.272563 
L 120.003767 74.265529 
L 120.130299 74.07657 
L 120.256831 74.148583 
L 120.509896 73.907812 
L 121.142556 73.811118 
L 121.39562 73.581926 
L 121.648684 73.445999 
L 121.775216 73.550562 
L 121.901748 73.350683 
L 122.02828 73.421729 
L 122.281345 73.15193 
L 122.534409 72.989088 
L 122.660941 73.065344 
L 122.787473 72.876367 
L 122.914005 72.949401 
L 123.040537 72.685745 
L 123.167069 72.719632 
L 123.420133 72.588753 
L 123.546665 72.641444 
L 123.673197 72.465821 
L 123.79973 72.514648 
L 123.926262 72.21714 
L 124.052794 72.243673 
L 124.305858 72.046191 
L 124.43239 72.014164 
L 124.811986 71.533813 
L 124.938518 71.575792 
L 125.06505 71.370425 
L 125.191582 71.431824 
L 125.571179 71.20456 
L 125.697711 70.964419 
L 125.824243 70.982612 
L 125.950775 70.738364 
L 126.077307 70.790643 
L 126.456903 70.160134 
L 126.836499 69.722842 
L 126.963032 69.136803 
L 127.089564 67.798816 
L 127.46916 52.674923 
L 127.848756 45.036406 
L 128.228352 41.842853 
L 128.607949 40.656653 
L 129.114077 39.249176 
L 129.493673 37.699592 
L 129.746737 36.122405 
L 129.873269 34.774375 
L 130.379398 21.965141 
L 130.50593 21.898676 
L 130.632462 21.548259 
L 130.885526 22.929276 
L 131.012058 21.824663 
L 131.13859 22.563032 
L 131.265122 21.918384 
L 131.391654 22.446581 
L 131.644718 24.490558 
L 131.771251 25.027586 
L 132.024315 22.512701 
L 132.277379 21.583393 
L 132.403911 22.13177 
L 132.530443 23.229645 
L 132.656975 22.813068 
L 132.783507 21.789014 
L 132.910039 22.861831 
L 133.163103 22.259263 
L 133.289636 22.71203 
L 133.5427 21.65722 
L 133.795764 22.210772 
L 133.922296 22.102565 
L 134.048828 21.722213 
L 134.17536 22.361916 
L 134.301892 22.201782 
L 134.554956 22.687514 
L 134.681488 22.241021 
L 134.80802 23.885651 
L 134.934553 23.836588 
L 135.187617 21.959282 
L 135.314149 22.906255 
L 135.567213 22.023657 
L 135.693745 21.818253 
L 135.946809 23.928562 
L 136.073341 22.241504 
L 136.199873 22.734425 
L 136.326405 22.14836 
L 136.452937 20.834155 
L 136.706002 21.414103 
L 136.832534 22.587033 
L 136.959066 21.60193 
L 137.085598 21.722292 
L 137.21213 22.042505 
L 137.338662 21.708729 
L 137.465194 22.345084 
L 137.718258 22.032555 
L 138.097855 20.764202 
L 138.224387 21.842396 
L 138.350919 21.694005 
L 138.477451 21.26258 
L 138.603983 22.79309 
L 138.730515 21.5548 
L 138.857047 21.636618 
L 139.110111 22.258297 
L 139.236643 22.262431 
L 139.363175 23.201827 
L 139.489707 23.081556 
L 139.742772 21.233737 
L 139.995836 22.177582 
L 140.2489 20.964171 
L 140.501964 22.100368 
L 140.628496 22.322437 
L 140.755028 21.523557 
L 141.008092 22.356273 
L 141.261156 21.112011 
L 141.387689 21.51349 
L 141.514221 22.423829 
L 141.640753 22.34247 
L 141.893817 20.948018 
L 142.020349 20.368269 
L 142.273413 22.672175 
L 142.653009 21.034582 
L 142.779541 21.282718 
L 143.032606 22.672175 
L 143.28567 20.368269 
L 143.791798 22.423829 
L 144.044862 21.112011 
L 144.297926 22.356273 
L 144.550991 21.523557 
L 144.677523 22.322437 
L 144.930587 21.95848 
L 145.057119 20.964171 
L 145.183651 21.239073 
L 145.310183 22.177582 
L 145.563247 21.233737 
L 145.816311 23.081556 
L 145.942843 23.201827 
L 146.069375 22.262431 
L 146.195908 22.258297 
L 146.575504 21.5548 
L 146.702036 22.79309 
L 146.828568 21.26258 
L 147.081632 21.842396 
L 147.208164 20.764202 
L 147.334696 20.991799 
L 147.714293 22.209537 
L 147.840825 22.345084 
L 147.967357 21.708729 
L 148.093889 22.042505 
L 148.346953 21.60193 
L 148.473485 22.587033 
L 148.726549 21.067935 
L 148.853081 20.834155 
L 149.106145 22.734425 
L 149.232677 22.241504 
L 149.35921 23.928562 
L 149.612274 21.818253 
L 149.865338 22.335312 
L 149.99187 22.906255 
L 150.118402 21.959282 
L 150.497998 23.885651 
L 150.62453 22.241021 
L 150.751062 22.687514 
L 151.004127 22.201782 
L 151.130659 22.361916 
L 151.257191 21.722213 
L 151.510255 22.210772 
L 151.763319 21.65722 
L 152.016383 22.71203 
L 152.142915 22.259263 
L 152.269447 22.345349 
L 152.395979 22.861831 
L 152.522512 21.789014 
L 152.775576 23.229645 
L 153.02864 21.583393 
L 153.281704 22.512701 
L 153.408236 23.206671 
L 153.534768 25.027586 
L 153.787832 23.976548 
L 154.040896 21.918384 
L 154.167429 22.563032 
L 154.293961 21.824663 
L 154.420493 22.929276 
L 154.673557 21.548259 
L 154.926621 21.965141 
L 155.053153 22.036261 
L 155.179685 24.780536 
L 155.432749 34.774375 
L 155.812346 37.699592 
L 156.318474 39.668702 
L 157.204198 42.592987 
L 157.457263 45.036406 
L 157.710327 49.453788 
L 158.089923 61.25787 
L 158.342987 69.136803 
L 158.596051 69.826457 
L 159.228712 70.790643 
L 159.355244 70.738364 
L 159.481776 70.982612 
L 159.608308 70.964419 
L 159.861372 71.263552 
L 160.114436 71.431824 
L 160.240968 71.370425 
L 160.3675 71.575792 
L 160.494033 71.533813 
L 160.620565 71.828532 
L 160.747097 71.839837 
L 161.000161 72.046191 
L 161.126693 72.06014 
L 161.253225 72.243673 
L 161.379757 72.21714 
L 161.506289 72.514648 
L 161.632821 72.465821 
L 161.759353 72.641444 
L 162.012417 72.607198 
L 162.392014 72.949401 
L 162.518546 72.876367 
L 162.645078 73.065344 
L 162.77161 72.989088 
L 163.151206 73.161112 
L 163.277738 73.421729 
L 163.40427 73.350683 
L 163.530802 73.550562 
L 163.657334 73.445999 
L 164.163463 73.811118 
L 164.289995 73.722687 
L 164.416527 73.905636 
L 164.543059 73.778948 
L 165.049187 74.148583 
L 165.175719 74.07657 
L 165.302252 74.265529 
L 165.428784 74.140485 
L 165.681848 74.272563 
L 165.80838 74.324259 
L 165.934912 74.498855 
L 166.061444 74.42397 
L 166.187976 74.594163 
L 166.314508 74.455739 
L 166.567572 74.563737 
L 167.706361 75.071732 
L 167.832893 75.014174 
L 167.959425 75.171962 
L 168.085957 75.036049 
L 168.212489 75.168187 
L 168.465554 75.210448 
L 168.592086 75.325913 
L 168.718618 75.270132 
L 168.84515 75.418496 
L 168.971682 75.283588 
L 169.098214 75.420614 
L 169.224746 75.380347 
L 169.730874 75.67322 
L 169.857406 75.540031 
L 169.983938 75.680528 
L 170.110471 75.629637 
L 170.363535 75.811972 
L 170.490067 75.769159 
L 170.616599 75.903341 
L 170.743131 75.767372 
L 170.869663 75.908726 
L 170.996195 75.848197 
L 171.249259 76.027749 
L 171.375791 75.993334 
L 171.502323 76.123286 
L 171.628855 75.988016 
L 171.755388 76.134974 
L 171.88192 76.065969 
L 172.134984 76.243641 
L 172.261516 76.215235 
L 172.388048 76.335563 
L 172.51458 76.197978 
L 172.641112 76.34603 
L 172.767644 76.267983 
L 173.020708 76.44087 
L 173.14724 76.420056 
L 173.273773 76.53167 
L 173.400305 76.395468 
L 173.526837 76.546717 
L 173.653369 76.461324 
L 173.906433 76.632478 
L 174.286029 76.586864 
L 174.412561 76.739162 
L 174.539093 76.646418 
L 174.792157 76.813415 
L 175.171754 76.769694 
L 175.298286 76.922895 
L 175.424818 76.82442 
L 175.677882 76.98769 
L 176.310542 76.994133 
L 176.563607 77.15173 
L 181.62489 77.910994 
L 181.751422 78.101968 
L 181.877954 78.022267 
L 182.131018 78.078551 
L 182.25755 78.025912 
L 182.384082 78.137083 
L 182.510614 78.042719 
L 182.637146 78.233506 
L 182.763678 78.144946 
L 183.016743 78.198312 
L 183.143275 78.158941 
L 183.269807 78.263681 
L 183.396339 78.176148 
L 183.522871 78.367837 
L 183.649403 78.27301 
L 183.775935 78.371337 
L 184.028999 78.293968 
L 184.155531 78.387872 
L 184.282063 78.304595 
L 184.408595 78.493014 
L 184.535128 78.389978 
L 184.66166 78.494853 
L 184.914724 78.416602 
L 185.041256 78.500729 
L 185.167788 78.425884 
L 185.29432 78.613739 
L 185.420852 78.50655 
L 185.547384 78.620622 
L 185.800448 78.544481 
L 185.92698 78.618017 
L 186.053513 78.550744 
L 186.180045 78.734926 
L 186.306577 78.62123 
L 186.433109 78.740379 
L 186.686173 78.661078 
L 187.065769 78.844139 
L 187.192301 78.727779 
L 187.318833 78.853125 
L 187.571897 78.77876 
L 187.951494 78.95716 
L 188.078026 78.838756 
L 188.204558 78.967999 
L 188.33109 78.855794 
L 189.090282 79.071681 
L 189.216814 78.949241 
L 189.722943 79.16141 
L 189.849475 79.043094 
L 189.976007 79.178391 
L 190.102539 79.046631 
L 190.355603 79.122929 
L 190.482135 79.112046 
L 190.608667 79.259253 
L 190.735199 79.141499 
L 190.861732 79.27591 
L 190.988264 79.136216 
L 191.241328 79.211684 
L 191.36786 79.214357 
L 191.494392 79.350452 
L 191.620924 79.237383 
L 191.747456 79.371851 
L 191.873988 79.226997 
L 192.127052 79.302635 
L 194.40463 79.639609 
L 194.531162 79.483389 
L 194.657694 79.601336 
L 194.910758 79.608824 
L 195.03729 79.690722 
L 195.163822 79.601664 
L 195.290354 79.720522 
L 195.416886 79.563933 
L 195.543418 79.689651 
L 195.669951 79.631181 
L 195.923015 79.767884 
L 196.049547 79.688067 
L 196.176079 79.800604 
L 196.302611 79.644467 
L 196.429143 79.777055 
L 196.555675 79.708403 
L 196.808739 79.842518 
L 196.935271 79.772072 
L 197.061803 79.876669 
L 197.188335 79.721813 
L 197.314868 79.860157 
L 197.4414 79.782282 
L 197.694464 79.914262 
L 197.820996 79.854147 
L 197.947528 79.950482 
L 198.07406 79.79793 
L 198.200592 79.941228 
L 198.327124 79.855203 
L 198.580188 79.984041 
L 198.70672 79.934353 
L 198.833252 80.020712 
L 198.959785 79.872536 
L 199.086317 80.018745 
L 199.212849 79.925929 
L 199.465913 80.050874 
L 199.845509 79.946281 
L 199.972041 80.094297 
L 200.098573 79.995279 
L 200.351637 80.115486 
L 200.731234 80.017601 
L 200.857766 80.166006 
L 200.984298 80.062043 
L 201.237362 80.177609 
L 201.870022 80.128814 
L 201.996554 80.27929 
L 202.249619 80.238936 
L 202.376151 80.275672 
L 202.502683 80.157261 
L 202.629215 80.302753 
L 202.755747 80.193081 
L 202.882279 80.351002 
L 203.135343 80.309312 
L 203.261875 80.332286 
L 203.388407 80.225379 
L 203.514939 80.367126 
L 203.641472 80.257492 
L 203.768004 80.422161 
L 204.021068 80.380009 
L 211.992589 80.914258 
L 212.245653 80.836481 
L 212.625249 80.986669 
L 212.751781 80.847349 
L 212.878313 80.963566 
L 213.004845 80.840418 
L 213.510974 81.028585 
L 213.637506 80.890093 
L 213.764038 81.010015 
L 213.89057 80.877697 
L 214.143634 80.958234 
L 214.270166 80.937951 
L 214.396698 81.070287 
L 214.52323 80.93376 
L 214.649762 81.055663 
L 214.776294 80.914784 
L 215.029359 80.994907 
L 215.155891 80.987594 
L 215.282423 81.108214 
L 215.408955 80.974986 
L 215.535487 81.096979 
L 215.662019 80.950137 
L 215.915083 81.029679 
L 219.078385 81.244749 
L 219.204917 81.086097 
L 219.331449 81.21681 
L 219.457981 81.156847 
L 219.711046 81.268335 
L 219.837578 81.173359 
L 219.96411 81.275814 
L 220.090642 81.118669 
L 220.217174 81.256295 
L 220.343706 81.186111 
L 220.59677 81.294696 
L 220.723302 81.210784 
L 220.849834 81.30511 
L 220.976366 81.150643 
L 221.102898 81.293869 
L 221.22943 81.214029 
L 221.482495 81.319131 
L 221.609027 81.247105 
L 221.735559 81.332248 
L 221.862091 81.181857 
L 221.988623 81.329565 
L 222.115155 81.241102 
L 222.368219 81.342281 
L 222.494751 81.282706 
L 222.621283 81.357579 
L 222.747815 81.212391 
L 222.874348 81.363184 
L 223.00088 81.267091 
L 223.253944 81.363771 
L 223.63354 81.24217 
L 223.760072 81.394908 
L 223.886604 81.292851 
L 224.013136 81.417919 
L 224.519265 81.272123 
L 224.645797 81.424401 
L 224.772329 81.317745 
L 224.898861 81.452149 
L 225.404989 81.301193 
L 225.531521 81.451637 
L 225.658053 81.341854 
L 225.784585 81.48497 
L 226.03765 81.414786 
L 226.164182 81.439802 
L 226.290714 81.330205 
L 226.417246 81.477328 
L 226.543778 81.365549 
L 226.67031 81.516034 
L 226.923374 81.445055 
L 227.935631 81.470416 
L 228.062163 81.385341 
L 228.188695 81.522255 
L 228.315227 81.411084 
L 228.441759 81.572297 
L 228.694823 81.501778 
L 229.200951 81.43297 
L 229.327484 81.596554 
L 229.454016 81.481354 
L 229.70708 81.49526 
L 229.833612 81.438481 
L 229.960144 81.558816 
L 230.086676 81.454858 
L 230.213208 81.619702 
L 230.33974 81.49481 
L 230.592804 81.506044 
L 230.719336 81.464287 
L 230.845869 81.574445 
L 230.972401 81.475892 
L 231.098933 81.640344 
L 231.225465 81.506821 
L 231.351997 81.576323 
L 231.605061 81.488612 
L 231.731593 81.587954 
L 231.858125 81.496298 
L 231.984657 81.659245 
L 232.111189 81.518625 
L 232.237721 81.59846 
L 232.490786 81.512607 
L 232.617318 81.600546 
L 232.74385 81.516579 
L 232.870382 81.676229 
L 232.996914 81.529776 
L 233.123446 81.618171 
L 233.37651 81.535133 
L 233.503042 81.610694 
L 233.629574 81.535921 
L 233.756106 81.690191 
L 233.882638 81.54025 
L 234.00917 81.636484 
L 234.262235 81.557368 
L 234.388767 81.619575 
L 234.515299 81.5553 
L 234.641831 81.70281 
L 234.768363 81.550587 
L 234.894895 81.653419 
L 235.147959 81.578309 
L 235.527555 81.712906 
L 235.654088 81.559875 
L 235.78062 81.668196 
L 235.907152 81.546676 
L 236.41328 81.721524 
L 236.539812 81.569132 
L 236.666344 81.681615 
L 236.792876 81.550623 
L 237.04594 81.636455 
L 237.172472 81.608426 
L 237.299005 81.728074 
L 237.425537 81.577516 
L 237.552069 81.692445 
L 237.678601 81.553895 
L 237.931665 81.63954 
L 238.058197 81.624671 
L 238.184729 81.732106 
L 238.311261 81.585953 
L 238.437793 81.701676 
L 238.564325 81.556942 
L 238.817389 81.641283 
L 242.48682 81.692853 
L 242.613352 81.726165 
L 242.739884 81.620315 
L 242.866416 81.718573 
L 242.992948 81.564101 
L 243.11948 81.7057 
L 243.246012 81.634361 
L 243.499076 81.71985 
L 243.625609 81.625676 
L 243.752141 81.716093 
L 243.878673 81.564523 
L 244.005205 81.711807 
L 244.131737 81.630386 
L 244.258269 81.71218 
L 244.258269 81.71218 
" clip-path="url(#p527b37f296)" style="fill: none; stroke: #000000; stroke-linecap: square"/>
   </g>
   <g id="patch_3">
    <path d="M 41.04775 96.198874 
L 41.04775 13.474578 
" style="fill: none; stroke: #000000; stroke-width: 0.8; stroke-linejoin: miter; stroke-linecap: square"/>
   </g>
   <g id="patch_4">
    <path d="M 244.258269 96.198874 
L 244.258269 13.474578 
" style="fill: none; stroke: #000000; stroke-width: 0.8; stroke-linejoin: miter; stroke-linecap: square"/>
   </g>
   <g id="patch_5">
    <path d="M 41.04775 96.198874 
L 244.258269 96.198874 
" style="fill: none; stroke: #000000; stroke-width: 0.8; stroke-linejoin: miter; stroke-linecap: square"/>
   </g>
   <g id="patch_6">
    <path d="M 41.04775 13.474578 
L 244.258269 13.474578 
" style="fill: none; stroke: #000000; stroke-width: 0.8; stroke-linejoin: miter; stroke-linecap: square"/>
   </g>
   <g id="text_13">
    <!-- -84.21 -->
    <g style="fill: #ff0000" transform="translate(68.188757 78.049115) scale(0.0833 -0.0833)">
     <defs>
      <path id="NimbusRomNo9L-Regu-2d" d="M 250 1619 
L 250 1216 
L 1824 1216 
L 1824 1619 
L 250 1619 
z
" transform="scale(0.015625)"/>
      <path id="NimbusRomNo9L-Regu-38" d="M 1856 2400 
C 2490 2740 2714 3008 2714 3444 
C 2714 3968 2253 4352 1613 4352 
C 915 4352 397 3924 397 3341 
C 397 2925 518 2740 1190 2151 
C 499 1626 358 1428 358 992 
C 358 372 864 -64 1587 -64 
C 2355 -64 2848 359 2848 1018 
C 2848 1511 2630 1824 1856 2400 
z
M 1741 1741 
C 2208 1408 2362 1178 2362 820 
C 2362 404 2074 116 1658 116 
C 1171 116 845 487 845 1044 
C 845 1453 986 1722 1357 2023 
L 1741 1741 
z
M 1670 2516 
C 1101 2887 870 3181 870 3540 
C 870 3911 1158 4173 1562 4173 
C 1997 4173 2272 3892 2272 3450 
C 2272 3085 2093 2797 1728 2554 
C 1696 2535 1696 2535 1670 2516 
z
" transform="scale(0.015625)"/>
      <path id="NimbusRomNo9L-Regu-2e" d="M 800 646 
C 608 646 448 480 448 281 
C 448 96 608 -64 794 -64 
C 992 -64 1158 96 1158 281 
C 1158 480 992 646 800 646 
z
" transform="scale(0.015625)"/>
     </defs>
     <use xlink:href="#NimbusRomNo9L-Regu-2d" transform="scale(0.996264)"/>
     <use xlink:href="#NimbusRomNo9L-Regu-38" transform="translate(33.17523 0) scale(0.996264)"/>
     <use xlink:href="#NimbusRomNo9L-Regu-34" transform="translate(82.98843 0) scale(0.996264)"/>
     <use xlink:href="#NimbusRomNo9L-Regu-2e" transform="translate(132.801631 0) scale(0.996264)"/>
     <use xlink:href="#NimbusRomNo9L-Regu-32" transform="translate(157.708231 0) scale(0.996264)"/>
     <use xlink:href="#NimbusRomNo9L-Regu-31" transform="translate(207.521431 0) scale(0.996264)"/>
    </g>
   </g>
   <g id="text_14">
    <!-- -77.12 -->
    <g style="fill: #ff0000" transform="translate(97.974458 73.159023) scale(0.0833 -0.0833)">
     <defs>
      <path id="NimbusRomNo9L-Regu-37" d="M 2874 4250 
L 506 4250 
L 128 3310 
L 237 3258 
C 512 3693 627 3776 979 3776 
L 2368 3776 
L 1101 -32 
L 1517 -32 
L 2874 4148 
L 2874 4250 
z
" transform="scale(0.015625)"/>
     </defs>
     <use xlink:href="#NimbusRomNo9L-Regu-2d" transform="scale(0.996264)"/>
     <use xlink:href="#NimbusRomNo9L-Regu-37" transform="translate(33.17523 0) scale(0.996264)"/>
     <use xlink:href="#NimbusRomNo9L-Regu-37" transform="translate(82.98843 0) scale(0.996264)"/>
     <use xlink:href="#NimbusRomNo9L-Regu-2e" transform="translate(132.801631 0) scale(0.996264)"/>
     <use xlink:href="#NimbusRomNo9L-Regu-31" transform="translate(157.708231 0) scale(0.996264)"/>
     <use xlink:href="#NimbusRomNo9L-Regu-32" transform="translate(207.521431 0) scale(0.996264)"/>
    </g>
   </g>
   <g id="text_15">
    <!-- -77.05 -->
    <g style="fill: #ff0000" transform="translate(157.54586 73.10922) scale(0.0833 -0.0833)">
     <use xlink:href="#NimbusRomNo9L-Regu-2d" transform="scale(0.996264)"/>
     <use xlink:href="#NimbusRomNo9L-Regu-37" transform="translate(33.17523 0) scale(0.996264)"/>
     <use xlink:href="#NimbusRomNo9L-Regu-37" transform="translate(82.98843 0) scale(0.996264)"/>
     <use xlink:href="#NimbusRomNo9L-Regu-2e" transform="translate(132.801631 0) scale(0.996264)"/>
     <use xlink:href="#NimbusRomNo9L-Regu-30" transform="translate(157.708231 0) scale(0.996264)"/>
     <use xlink:href="#NimbusRomNo9L-Regu-35" transform="translate(207.521431 0) scale(0.996264)"/>
    </g>
   </g>
   <g id="text_16">
    <!-- -84.2 -->
    <g style="fill: #ff0000" transform="translate(187.331561 78.039906) scale(0.0833 -0.0833)">
     <use xlink:href="#NimbusRomNo9L-Regu-2d" transform="scale(0.996264)"/>
     <use xlink:href="#NimbusRomNo9L-Regu-38" transform="translate(33.17523 0) scale(0.996264)"/>
     <use xlink:href="#NimbusRomNo9L-Regu-34" transform="translate(82.98843 0) scale(0.996264)"/>
     <use xlink:href="#NimbusRomNo9L-Regu-2e" transform="translate(132.801631 0) scale(0.996264)"/>
     <use xlink:href="#NimbusRomNo9L-Regu-32" transform="translate(157.708231 0) scale(0.996264)"/>
    </g>
   </g>
   <g id="text_17">
    <!-- Signal spectrum -->
    <g transform="translate(110.414316 7.474578) scale(0.1 -0.1)">
     <defs>
      <path id="NimbusRomNo9L-Regu-69" d="M 1120 2929 
L 128 2579 
L 128 2484 
L 179 2490 
C 256 2502 339 2509 397 2509 
C 550 2509 608 2406 608 2125 
L 608 640 
C 608 179 544 109 102 109 
L 102 0 
L 1619 0 
L 1619 96 
C 1197 128 1146 191 1146 650 
L 1146 2910 
L 1120 2929 
z
M 819 4352 
C 646 4352 499 4205 499 4026 
C 499 3847 640 3699 819 3699 
C 1005 3699 1152 3840 1152 4026 
C 1152 4205 1005 4352 819 4352 
z
" transform="scale(0.015625)"/>
      <path id="NimbusRomNo9L-Regu-67" d="M 3008 2496 
L 3008 2746 
L 2515 2746 
C 2387 2746 2291 2763 2163 2802 
L 2022 2847 
C 1850 2903 1677 2931 1510 2931 
C 915 2931 442 2467 442 1881 
C 442 1476 614 1230 1037 1018 
C 915 906 800 799 762 768 
C 550 588 467 463 467 338 
C 467 206 544 131 806 6 
C 352 -329 179 -543 179 -781 
C 179 -1124 678 -1408 1286 -1408 
C 1766 -1408 2266 -1238 2598 -962 
C 2842 -759 2950 -548 2950 -299 
C 2950 108 2650 384 2176 384 
L 1350 384 
C 1011 384 851 443 851 548 
C 851 678 1062 908 1235 960 
C 1293 953 1338 947 1357 947 
C 1478 934 1562 928 1600 928 
C 1837 928 2093 1026 2291 1203 
C 2502 1387 2598 1617 2598 1945 
C 2598 2135 2566 2286 2477 2496 
L 3008 2496 
z
M 941 -13 
C 1152 -58 1664 -96 1978 -96 
C 2560 -96 2771 -180 2771 -414 
C 2771 -791 2285 -1043 1562 -1043 
C 998 -1043 627 -855 627 -570 
C 627 -420 672 -336 941 -13 
z
M 973 2145 
C 973 2526 1152 2752 1446 2752 
C 1645 2752 1811 2642 1914 2449 
C 2029 2223 2106 1927 2106 1675 
C 2106 1314 1920 1088 1626 1088 
C 1242 1088 973 1507 973 2126 
L 973 2145 
z
" transform="scale(0.015625)"/>
      <path id="NimbusRomNo9L-Regu-61" d="M 2829 423 
C 2720 333 2643 301 2547 301 
C 2400 301 2355 390 2355 672 
L 2355 1920 
C 2355 2253 2323 2438 2227 2592 
C 2086 2822 1811 2944 1434 2944 
C 832 2944 358 2630 358 2227 
C 358 2080 486 1952 634 1952 
C 787 1952 922 2080 922 2221 
C 922 2246 915 2278 909 2323 
C 896 2381 890 2432 890 2477 
C 890 2650 1094 2790 1350 2790 
C 1664 2790 1837 2605 1837 2259 
L 1837 1869 
C 851 1472 742 1421 467 1178 
C 326 1050 237 832 237 621 
C 237 218 518 -64 909 -64 
C 1190 -64 1453 70 1843 403 
C 1875 70 1990 -64 2253 -64 
C 2470 -64 2605 13 2829 256 
L 2829 423 
z
M 1837 783 
C 1837 584 1805 526 1670 449 
C 1517 359 1338 301 1203 301 
C 979 301 800 520 800 796 
L 800 822 
C 800 1201 1062 1433 1837 1715 
L 1837 783 
z
" transform="scale(0.015625)"/>
      <path id="NimbusRomNo9L-Regu-6c" d="M 122 4000 
L 160 4000 
C 230 4000 307 4000 358 4000 
C 563 4000 627 3910 627 3610 
L 627 557 
C 627 211 538 128 134 96 
L 134 0 
L 1645 0 
L 1645 109 
C 1242 109 1165 173 1165 528 
L 1165 4371 
L 1139 4384 
C 806 4275 563 4211 122 4103 
L 122 4000 
z
" transform="scale(0.015625)"/>
      <path id="NimbusRomNo9L-Regu-73" d="M 2016 2010 
L 1990 2880 
L 1920 2880 
L 1907 2867 
C 1850 2822 1843 2816 1818 2816 
C 1779 2816 1715 2829 1645 2861 
C 1504 2915 1363 2944 1197 2944 
C 691 2944 326 2616 326 2154 
C 326 1796 531 1539 1075 1231 
L 1446 1020 
C 1670 892 1779 737 1779 539 
C 1779 256 1574 77 1248 77 
C 1030 77 832 159 710 298 
C 576 455 518 600 435 960 
L 333 960 
L 333 -39 
L 416 -39 
C 461 33 486 48 563 48 
C 621 48 710 35 858 -2 
C 1037 -39 1210 -64 1325 -64 
C 1818 -64 2227 308 2227 757 
C 2227 1077 2074 1289 1690 1520 
L 998 1930 
C 819 2033 723 2194 723 2367 
C 723 2624 922 2803 1216 2803 
C 1581 2803 1773 2583 1920 2010 
L 2016 2010 
z
" transform="scale(0.015625)"/>
      <path id="NimbusRomNo9L-Regu-70" d="M 58 2516 
C 115 2522 160 2522 218 2522 
C 435 2522 480 2458 480 2155 
L 480 -855 
C 480 -1189 410 -1261 32 -1299 
L 32 -1408 
L 1581 -1408 
L 1581 -1293 
C 1101 -1293 1018 -1222 1018 -816 
L 1018 199 
C 1242 -13 1395 -77 1664 -77 
C 2419 -77 3008 643 3008 1575 
C 3008 2372 2560 2944 1939 2944 
C 1581 2944 1299 2784 1018 2438 
L 1018 2931 
L 979 2944 
C 634 2810 410 2726 58 2618 
L 58 2516 
z
M 1018 2136 
C 1018 2329 1376 2560 1670 2560 
C 2144 2560 2458 2071 2458 1324 
C 2458 611 2144 128 1683 128 
C 1382 128 1018 359 1018 552 
L 1018 2136 
z
" transform="scale(0.015625)"/>
      <path id="NimbusRomNo9L-Regu-74" d="M 1632 2880 
L 986 2880 
L 986 3622 
C 986 3686 979 3706 941 3706 
C 896 3648 858 3590 813 3526 
C 570 3174 294 2867 192 2841 
C 122 2794 83 2748 83 2715 
C 83 2695 90 2682 109 2682 
L 448 2682 
L 448 751 
C 448 212 640 -64 1018 -64 
C 1331 -64 1574 90 1786 423 
L 1702 493 
C 1568 333 1459 269 1318 269 
C 1082 269 986 443 986 847 
L 986 2682 
L 1632 2682 
L 1632 2880 
z
" transform="scale(0.015625)"/>
      <path id="NimbusRomNo9L-Regu-6d" d="M 122 2547 
C 205 2566 256 2573 326 2573 
C 493 2573 550 2470 550 2162 
L 550 539 
C 550 192 461 96 102 96 
L 102 0 
L 1523 0 
L 1523 96 
C 1184 96 1088 166 1088 418 
L 1088 2234 
C 1088 2246 1139 2310 1184 2355 
C 1344 2502 1619 2611 1843 2611 
C 2125 2611 2266 2385 2266 1932 
L 2266 528 
C 2266 167 2195 96 1830 96 
L 1830 0 
L 3264 0 
L 3264 96 
C 2899 96 2803 205 2803 603 
L 2803 2221 
C 2995 2496 3206 2611 3501 2611 
C 3866 2611 3981 2438 3981 1907 
L 3981 557 
C 3981 192 3930 141 3558 96 
L 3558 0 
L 4960 0 
L 4960 96 
L 4794 115 
C 4602 115 4518 230 4518 480 
L 4518 1802 
C 4518 2559 4269 2944 3776 2944 
C 3405 2944 3078 2778 2733 2407 
C 2618 2771 2400 2944 2054 2944 
C 1773 2944 1594 2854 1062 2451 
L 1062 2931 
L 1018 2944 
C 691 2822 474 2752 122 2656 
L 122 2547 
z
" transform="scale(0.015625)"/>
     </defs>
     <use xlink:href="#NimbusRomNo9L-Regu-53" transform="scale(0.996264)"/>
     <use xlink:href="#NimbusRomNo9L-Regu-69" transform="translate(55.391677 0) scale(0.996264)"/>
     <use xlink:href="#NimbusRomNo9L-Regu-67" transform="translate(83.086847 0) scale(0.996264)"/>
     <use xlink:href="#NimbusRomNo9L-Regu-6e" transform="translate(132.900047 0) scale(0.996264)"/>
     <use xlink:href="#NimbusRomNo9L-Regu-61" transform="translate(182.713248 0) scale(0.996264)"/>
     <use xlink:href="#NimbusRomNo9L-Regu-6c" transform="translate(226.946816 0) scale(0.996264)"/>
     <use xlink:href="#NimbusRomNo9L-Regu-73" transform="translate(279.548586 0) scale(0.996264)"/>
     <use xlink:href="#NimbusRomNo9L-Regu-70" transform="translate(318.302292 0) scale(0.996264)"/>
     <use xlink:href="#NimbusRomNo9L-Regu-65" transform="translate(368.115493 0) scale(0.996264)"/>
     <use xlink:href="#NimbusRomNo9L-Regu-63" transform="translate(412.349062 0) scale(0.996264)"/>
     <use xlink:href="#NimbusRomNo9L-Regu-74" transform="translate(456.58263 0) scale(0.996264)"/>
     <use xlink:href="#NimbusRomNo9L-Regu-72" transform="translate(484.2778 0) scale(0.996264)"/>
     <use xlink:href="#NimbusRomNo9L-Regu-75" transform="translate(517.45303 0) scale(0.996264)"/>
     <use xlink:href="#NimbusRomNo9L-Regu-6d" transform="translate(567.26623 0) scale(0.996264)"/>
    </g>
   </g>
   <g id="legend_1">
    <g id="patch_7">
     <path d="M 186.00895 29.600041 
L 240.258269 29.600041 
L 240.258269 17.474578 
L 186.00895 17.474578 
z
" style="fill: #ffffff; stroke: #000000; stroke-width: 0.5; stroke-linejoin: miter"/>
    </g>
    <g id="line2d_22">
     <path d="M 188.40895 22.674578 
L 196.40895 22.674578 
L 204.40895 22.674578 
" style="fill: none; stroke: #000000; stroke-linecap: square"/>
    </g>
    <g id="text_18">
     <!-- NR input -->
     <g transform="translate(208.40895 25.474578) scale(0.08 -0.08)">
      <defs>
       <path id="NimbusRomNo9L-Regu-4e" d="M 3917 -64 
L 3917 3287 
C 3917 3669 3981 3905 4102 3987 
C 4192 4051 4282 4077 4525 4102 
L 4525 4224 
L 3021 4224 
L 3021 4102 
C 3264 4083 3354 4057 3450 4000 
C 3578 3911 3635 3681 3635 3286 
L 3635 1136 
L 1171 4224 
L 77 4224 
L 77 4102 
C 352 4102 442 4051 698 3751 
L 698 938 
C 698 281 608 159 77 121 
L 77 0 
L 1581 0 
L 1581 134 
C 1088 134 979 281 979 928 
L 979 3439 
L 3808 -64 
L 3917 -64 
z
" transform="scale(0.015625)"/>
       <path id="NimbusRomNo9L-Regu-52" d="M 4218 121 
C 3974 140 3846 205 3661 424 
L 2342 2061 
C 2771 2143 2963 2219 3174 2388 
C 3379 2553 3501 2818 3501 3113 
C 3501 3385 3418 3618 3251 3801 
C 3008 4059 2477 4224 1875 4224 
L 109 4224 
L 109 4102 
C 589 4051 653 3981 653 3528 
L 653 765 
C 653 236 589 159 109 121 
L 109 0 
L 1882 0 
L 1882 134 
C 1389 134 1306 219 1306 692 
L 1306 1984 
L 1664 1984 
L 3187 0 
L 4218 0 
L 4218 121 
z
M 1306 3762 
C 1306 3937 1376 3987 1632 3987 
C 2432 3987 2803 3716 2803 3123 
C 2803 2807 2669 2542 2438 2423 
C 2144 2258 1920 2221 1306 2221 
L 1306 3762 
z
" transform="scale(0.015625)"/>
      </defs>
      <use xlink:href="#NimbusRomNo9L-Regu-4e" transform="scale(0.996264)"/>
      <use xlink:href="#NimbusRomNo9L-Regu-52" transform="translate(71.929985 0) scale(0.996264)"/>
      <use xlink:href="#NimbusRomNo9L-Regu-69" transform="translate(163.286616 0) scale(0.996264)"/>
      <use xlink:href="#NimbusRomNo9L-Regu-6e" transform="translate(190.981786 0) scale(0.996264)"/>
      <use xlink:href="#NimbusRomNo9L-Regu-70" transform="translate(240.794986 0) scale(0.996264)"/>
      <use xlink:href="#NimbusRomNo9L-Regu-75" transform="translate(290.608187 0) scale(0.996264)"/>
      <use xlink:href="#NimbusRomNo9L-Regu-74" transform="translate(340.421387 0) scale(0.996264)"/>
     </g>
    </g>
   </g>
   <g id="LineCollection_1">
    <path d="M 70.571613 80.117222 
L 95.591602 80.117222 
" clip-path="url(#p527b37f296)" style="fill: none; stroke: #ff0000"/>
   </g>
   <g id="LineCollection_2">
    <path d="M 100.357314 75.227131 
L 125.377303 75.227131 
" clip-path="url(#p527b37f296)" style="fill: none; stroke: #ff0000"/>
   </g>
   <g id="LineCollection_3">
    <path d="M 159.928716 75.177328 
L 184.948705 75.177328 
" clip-path="url(#p527b37f296)" style="fill: none; stroke: #ff0000"/>
   </g>
   <g id="LineCollection_4">
    <path d="M 189.714417 80.108014 
L 214.734405 80.108014 
" clip-path="url(#p527b37f296)" style="fill: none; stroke: #ff0000"/>
   </g>
  </g>
 </g>
 <defs>
  <clipPath id="p527b37f296">
   <rect x="41.04775" y="13.474578" width="203.210519" height="82.724297"/>
  </clipPath>
 </defs>
</svg>
