<?xml version="1.0" encoding="utf-8" standalone="no"?>
<!DOCTYPE svg PUBLIC "-//W3C//DTD SVG 1.1//EN"
  "http://www.w3.org/Graphics/SVG/1.1/DTD/svg11.dtd">
<svg xmlns:xlink="http://www.w3.org/1999/xlink" width="460.231654pt" height="345.330709pt" viewBox="0 0 460.231654 345.330709" xmlns="http://www.w3.org/2000/svg" version="1.1">
 <metadata>
  <rdf:RDF xmlns:dc="http://purl.org/dc/elements/1.1/" xmlns:cc="http://creativecommons.org/ns#" xmlns:rdf="http://www.w3.org/1999/02/22-rdf-syntax-ns#">
   <cc:Work>
    <dc:type rdf:resource="http://purl.org/dc/dcmitype/StillImage"/>
    <dc:date>2026-03-23T13:00:31.989775</dc:date>
    <dc:format>image/svg+xml</dc:format>
    <dc:creator>
     <cc:Agent>
      <dc:title>Matplotlib v3.10.8, https://matplotlib.org/</dc:title>
     </cc:Agent>
    </dc:creator>
   </cc:Work>
  </rdf:RDF>
 </metadata>
 <defs>
  <style type="text/css">*{stroke-linejoin: round; stroke-linecap: butt}</style>
 </defs>
 <g id="figure_1">
  <g id="patch_1">
   <path d="M 0 345.330709 
L 460.231654 345.330709 
L 460.231654 0 
L 0 0 
z
" style="fill: #ffffff"/>
  </g>
  <g id="axes_1">
   <g id="patch_2">
    <path d="M 57.528957 307.344331 
L 414.208488 307.344331 
L 414.208488 41.439685 
L 57.528957 41.439685 
z
" style="fill: #ffffff"/>
   </g>
   <g id="matplotlib.axis_1">
    <g id="xtick_1">
     <g id="line2d_1">
      <path d="M 100.532365 307.344331 
L 100.532365 41.439685 
" clip-path="url(#p9f85a53141)" style="fill: none; stroke: #b0b0b0; stroke-width: 0.8; stroke-linecap: square"/>
     </g>
     <g id="line2d_2">
      <defs>
       <path id="m2ec2b86e28" d="M 0 0 
L 0 3.5 
" style="stroke: #000000; stroke-width: 0.8"/>
      </defs>
      <g>
       <use xlink:href="#m2ec2b86e28" x="100.532365" y="307.344331" style="stroke: #000000; stroke-width: 0.8"/>
      </g>
     </g>
     <g id="text_1">
      <!-- −0.50 -->
      <g transform="translate(85.209708 321.942768) scale(0.1 -0.1)">
       <defs>
        <path id="DejaVuSans-2212" d="M 678 2272 
L 4684 2272 
L 4684 1741 
L 678 1741 
L 678 2272 
z
" transform="scale(0.015625)"/>
        <path id="DejaVuSans-30" d="M 2034 4250 
Q 1547 4250 1301 3770 
Q 1056 3291 1056 2328 
Q 1056 1369 1301 889 
Q 1547 409 2034 409 
Q 2525 409 2770 889 
Q 3016 1369 3016 2328 
Q 3016 3291 2770 3770 
Q 2525 4250 2034 4250 
z
M 2034 4750 
Q 2819 4750 3233 4129 
Q 3647 3509 3647 2328 
Q 3647 1150 3233 529 
Q 2819 -91 2034 -91 
Q 1250 -91 836 529 
Q 422 1150 422 2328 
Q 422 3509 836 4129 
Q 1250 4750 2034 4750 
z
" transform="scale(0.015625)"/>
        <path id="DejaVuSans-2e" d="M 684 794 
L 1344 794 
L 1344 0 
L 684 0 
L 684 794 
z
" transform="scale(0.015625)"/>
        <path id="DejaVuSans-35" d="M 691 4666 
L 3169 4666 
L 3169 4134 
L 1269 4134 
L 1269 2991 
Q 1406 3038 1543 3061 
Q 1681 3084 1819 3084 
Q 2600 3084 3056 2656 
Q 3513 2228 3513 1497 
Q 3513 744 3044 326 
Q 2575 -91 1722 -91 
Q 1428 -91 1123 -41 
Q 819 9 494 109 
L 494 744 
Q 775 591 1075 516 
Q 1375 441 1709 441 
Q 2250 441 2565 725 
Q 2881 1009 2881 1497 
Q 2881 1984 2565 2268 
Q 2250 2553 1709 2553 
Q 1456 2553 1204 2497 
Q 953 2441 691 2322 
L 691 4666 
z
" transform="scale(0.015625)"/>
       </defs>
       <use xlink:href="#DejaVuSans-2212"/>
       <use xlink:href="#DejaVuSans-30" transform="translate(83.789062 0)"/>
       <use xlink:href="#DejaVuSans-2e" transform="translate(147.412109 0)"/>
       <use xlink:href="#DejaVuSans-35" transform="translate(179.199219 0)"/>
       <use xlink:href="#DejaVuSans-30" transform="translate(242.822266 0)"/>
      </g>
     </g>
    </g>
    <g id="xtick_2">
     <g id="line2d_3">
      <path d="M 160.758065 307.344331 
L 160.758065 41.439685 
" clip-path="url(#p9f85a53141)" style="fill: none; stroke: #b0b0b0; stroke-width: 0.8; stroke-linecap: square"/>
     </g>
     <g id="line2d_4">
      <g>
       <use xlink:href="#m2ec2b86e28" x="160.758065" y="307.344331" style="stroke: #000000; stroke-width: 0.8"/>
      </g>
     </g>
     <g id="text_2">
      <!-- −0.45 -->
      <g transform="translate(145.435409 321.942768) scale(0.1 -0.1)">
       <defs>
        <path id="DejaVuSans-34" d="M 2419 4116 
L 825 1625 
L 2419 1625 
L 2419 4116 
z
M 2253 4666 
L 3047 4666 
L 3047 1625 
L 3713 1625 
L 3713 1100 
L 3047 1100 
L 3047 0 
L 2419 0 
L 2419 1100 
L 313 1100 
L 313 1709 
L 2253 4666 
z
" transform="scale(0.015625)"/>
       </defs>
       <use xlink:href="#DejaVuSans-2212"/>
       <use xlink:href="#DejaVuSans-30" transform="translate(83.789062 0)"/>
       <use xlink:href="#DejaVuSans-2e" transform="translate(147.412109 0)"/>
       <use xlink:href="#DejaVuSans-34" transform="translate(179.199219 0)"/>
       <use xlink:href="#DejaVuSans-35" transform="translate(242.822266 0)"/>
      </g>
     </g>
    </g>
    <g id="xtick_3">
     <g id="line2d_5">
      <path d="M 220.983766 307.344331 
L 220.983766 41.439685 
" clip-path="url(#p9f85a53141)" style="fill: none; stroke: #b0b0b0; stroke-width: 0.8; stroke-linecap: square"/>
     </g>
     <g id="line2d_6">
      <g>
       <use xlink:href="#m2ec2b86e28" x="220.983766" y="307.344331" style="stroke: #000000; stroke-width: 0.8"/>
      </g>
     </g>
     <g id="text_3">
      <!-- −0.40 -->
      <g transform="translate(205.66111 321.942768) scale(0.1 -0.1)">
       <use xlink:href="#DejaVuSans-2212"/>
       <use xlink:href="#DejaVuSans-30" transform="translate(83.789062 0)"/>
       <use xlink:href="#DejaVuSans-2e" transform="translate(147.412109 0)"/>
       <use xlink:href="#DejaVuSans-34" transform="translate(179.199219 0)"/>
       <use xlink:href="#DejaVuSans-30" transform="translate(242.822266 0)"/>
      </g>
     </g>
    </g>
    <g id="xtick_4">
     <g id="line2d_7">
      <path d="M 281.209467 307.344331 
L 281.209467 41.439685 
" clip-path="url(#p9f85a53141)" style="fill: none; stroke: #b0b0b0; stroke-width: 0.8; stroke-linecap: square"/>
     </g>
     <g id="line2d_8">
      <g>
       <use xlink:href="#m2ec2b86e28" x="281.209467" y="307.344331" style="stroke: #000000; stroke-width: 0.8"/>
      </g>
     </g>
     <g id="text_4">
      <!-- −0.35 -->
      <g transform="translate(265.886811 321.942768) scale(0.1 -0.1)">
       <defs>
        <path id="DejaVuSans-33" d="M 2597 2516 
Q 3050 2419 3304 2112 
Q 3559 1806 3559 1356 
Q 3559 666 3084 287 
Q 2609 -91 1734 -91 
Q 1441 -91 1130 -33 
Q 819 25 488 141 
L 488 750 
Q 750 597 1062 519 
Q 1375 441 1716 441 
Q 2309 441 2620 675 
Q 2931 909 2931 1356 
Q 2931 1769 2642 2001 
Q 2353 2234 1838 2234 
L 1294 2234 
L 1294 2753 
L 1863 2753 
Q 2328 2753 2575 2939 
Q 2822 3125 2822 3475 
Q 2822 3834 2567 4026 
Q 2313 4219 1838 4219 
Q 1578 4219 1281 4162 
Q 984 4106 628 3988 
L 628 4550 
Q 988 4650 1302 4700 
Q 1616 4750 1894 4750 
Q 2613 4750 3031 4423 
Q 3450 4097 3450 3541 
Q 3450 3153 3228 2886 
Q 3006 2619 2597 2516 
z
" transform="scale(0.015625)"/>
       </defs>
       <use xlink:href="#DejaVuSans-2212"/>
       <use xlink:href="#DejaVuSans-30" transform="translate(83.789062 0)"/>
       <use xlink:href="#DejaVuSans-2e" transform="translate(147.412109 0)"/>
       <use xlink:href="#DejaVuSans-33" transform="translate(179.199219 0)"/>
       <use xlink:href="#DejaVuSans-35" transform="translate(242.822266 0)"/>
      </g>
     </g>
    </g>
    <g id="xtick_5">
     <g id="line2d_9">
      <path d="M 341.435168 307.344331 
L 341.435168 41.439685 
" clip-path="url(#p9f85a53141)" style="fill: none; stroke: #b0b0b0; stroke-width: 0.8; stroke-linecap: square"/>
     </g>
     <g id="line2d_10">
      <g>
       <use xlink:href="#m2ec2b86e28" x="341.435168" y="307.344331" style="stroke: #000000; stroke-width: 0.8"/>
      </g>
     </g>
     <g id="text_5">
      <!-- −0.30 -->
      <g transform="translate(326.112512 321.942768) scale(0.1 -0.1)">
       <use xlink:href="#DejaVuSans-2212"/>
       <use xlink:href="#DejaVuSans-30" transform="translate(83.789062 0)"/>
       <use xlink:href="#DejaVuSans-2e" transform="translate(147.412109 0)"/>
       <use xlink:href="#DejaVuSans-33" transform="translate(179.199219 0)"/>
       <use xlink:href="#DejaVuSans-30" transform="translate(242.822266 0)"/>
      </g>
     </g>
    </g>
    <g id="xtick_6">
     <g id="line2d_11">
      <path d="M 401.660869 307.344331 
L 401.660869 41.439685 
" clip-path="url(#p9f85a53141)" style="fill: none; stroke: #b0b0b0; stroke-width: 0.8; stroke-linecap: square"/>
     </g>
     <g id="line2d_12">
      <g>
       <use xlink:href="#m2ec2b86e28" x="401.660869" y="307.344331" style="stroke: #000000; stroke-width: 0.8"/>
      </g>
     </g>
     <g id="text_6">
      <!-- −0.25 -->
      <g transform="translate(386.338213 321.942768) scale(0.1 -0.1)">
       <defs>
        <path id="DejaVuSans-32" d="M 1228 531 
L 3431 531 
L 3431 0 
L 469 0 
L 469 531 
Q 828 903 1448 1529 
Q 2069 2156 2228 2338 
Q 2531 2678 2651 2914 
Q 2772 3150 2772 3378 
Q 2772 3750 2511 3984 
Q 2250 4219 1831 4219 
Q 1534 4219 1204 4116 
Q 875 4013 500 3803 
L 500 4441 
Q 881 4594 1212 4672 
Q 1544 4750 1819 4750 
Q 2544 4750 2975 4387 
Q 3406 4025 3406 3419 
Q 3406 3131 3298 2873 
Q 3191 2616 2906 2266 
Q 2828 2175 2409 1742 
Q 1991 1309 1228 531 
z
" transform="scale(0.015625)"/>
       </defs>
       <use xlink:href="#DejaVuSans-2212"/>
       <use xlink:href="#DejaVuSans-30" transform="translate(83.789062 0)"/>
       <use xlink:href="#DejaVuSans-2e" transform="translate(147.412109 0)"/>
       <use xlink:href="#DejaVuSans-32" transform="translate(179.199219 0)"/>
       <use xlink:href="#DejaVuSans-35" transform="translate(242.822266 0)"/>
      </g>
     </g>
    </g>
    <g id="text_7">
     <!-- Normalized Frequency -->
     <g transform="translate(180.094504 335.620893) scale(0.1 -0.1)">
      <defs>
       <path id="DejaVuSans-4e" d="M 628 4666 
L 1478 4666 
L 3547 763 
L 3547 4666 
L 4159 4666 
L 4159 0 
L 3309 0 
L 1241 3903 
L 1241 0 
L 628 0 
L 628 4666 
z
" transform="scale(0.015625)"/>
       <path id="DejaVuSans-6f" d="M 1959 3097 
Q 1497 3097 1228 2736 
Q 959 2375 959 1747 
Q 959 1119 1226 758 
Q 1494 397 1959 397 
Q 2419 397 2687 759 
Q 2956 1122 2956 1747 
Q 2956 2369 2687 2733 
Q 2419 3097 1959 3097 
z
M 1959 3584 
Q 2709 3584 3137 3096 
Q 3566 2609 3566 1747 
Q 3566 888 3137 398 
Q 2709 -91 1959 -91 
Q 1206 -91 779 398 
Q 353 888 353 1747 
Q 353 2609 779 3096 
Q 1206 3584 1959 3584 
z
" transform="scale(0.015625)"/>
       <path id="DejaVuSans-72" d="M 2631 2963 
Q 2534 3019 2420 3045 
Q 2306 3072 2169 3072 
Q 1681 3072 1420 2755 
Q 1159 2438 1159 1844 
L 1159 0 
L 581 0 
L 581 3500 
L 1159 3500 
L 1159 2956 
Q 1341 3275 1631 3429 
Q 1922 3584 2338 3584 
Q 2397 3584 2469 3576 
Q 2541 3569 2628 3553 
L 2631 2963 
z
" transform="scale(0.015625)"/>
       <path id="DejaVuSans-6d" d="M 3328 2828 
Q 3544 3216 3844 3400 
Q 4144 3584 4550 3584 
Q 5097 3584 5394 3201 
Q 5691 2819 5691 2113 
L 5691 0 
L 5113 0 
L 5113 2094 
Q 5113 2597 4934 2840 
Q 4756 3084 4391 3084 
Q 3944 3084 3684 2787 
Q 3425 2491 3425 1978 
L 3425 0 
L 2847 0 
L 2847 2094 
Q 2847 2600 2669 2842 
Q 2491 3084 2119 3084 
Q 1678 3084 1418 2786 
Q 1159 2488 1159 1978 
L 1159 0 
L 581 0 
L 581 3500 
L 1159 3500 
L 1159 2956 
Q 1356 3278 1631 3431 
Q 1906 3584 2284 3584 
Q 2666 3584 2933 3390 
Q 3200 3197 3328 2828 
z
" transform="scale(0.015625)"/>
       <path id="DejaVuSans-61" d="M 2194 1759 
Q 1497 1759 1228 1600 
Q 959 1441 959 1056 
Q 959 750 1161 570 
Q 1363 391 1709 391 
Q 2188 391 2477 730 
Q 2766 1069 2766 1631 
L 2766 1759 
L 2194 1759 
z
M 3341 1997 
L 3341 0 
L 2766 0 
L 2766 531 
Q 2569 213 2275 61 
Q 1981 -91 1556 -91 
Q 1019 -91 701 211 
Q 384 513 384 1019 
Q 384 1609 779 1909 
Q 1175 2209 1959 2209 
L 2766 2209 
L 2766 2266 
Q 2766 2663 2505 2880 
Q 2244 3097 1772 3097 
Q 1472 3097 1187 3025 
Q 903 2953 641 2809 
L 641 3341 
Q 956 3463 1253 3523 
Q 1550 3584 1831 3584 
Q 2591 3584 2966 3190 
Q 3341 2797 3341 1997 
z
" transform="scale(0.015625)"/>
       <path id="DejaVuSans-6c" d="M 603 4863 
L 1178 4863 
L 1178 0 
L 603 0 
L 603 4863 
z
" transform="scale(0.015625)"/>
       <path id="DejaVuSans-69" d="M 603 3500 
L 1178 3500 
L 1178 0 
L 603 0 
L 603 3500 
z
M 603 4863 
L 1178 4863 
L 1178 4134 
L 603 4134 
L 603 4863 
z
" transform="scale(0.015625)"/>
       <path id="DejaVuSans-7a" d="M 353 3500 
L 3084 3500 
L 3084 2975 
L 922 459 
L 3084 459 
L 3084 0 
L 275 0 
L 275 525 
L 2438 3041 
L 353 3041 
L 353 3500 
z
" transform="scale(0.015625)"/>
       <path id="DejaVuSans-65" d="M 3597 1894 
L 3597 1613 
L 953 1613 
Q 991 1019 1311 708 
Q 1631 397 2203 397 
Q 2534 397 2845 478 
Q 3156 559 3463 722 
L 3463 178 
Q 3153 47 2828 -22 
Q 2503 -91 2169 -91 
Q 1331 -91 842 396 
Q 353 884 353 1716 
Q 353 2575 817 3079 
Q 1281 3584 2069 3584 
Q 2775 3584 3186 3129 
Q 3597 2675 3597 1894 
z
M 3022 2063 
Q 3016 2534 2758 2815 
Q 2500 3097 2075 3097 
Q 1594 3097 1305 2825 
Q 1016 2553 972 2059 
L 3022 2063 
z
" transform="scale(0.015625)"/>
       <path id="DejaVuSans-64" d="M 2906 2969 
L 2906 4863 
L 3481 4863 
L 3481 0 
L 2906 0 
L 2906 525 
Q 2725 213 2448 61 
Q 2172 -91 1784 -91 
Q 1150 -91 751 415 
Q 353 922 353 1747 
Q 353 2572 751 3078 
Q 1150 3584 1784 3584 
Q 2172 3584 2448 3432 
Q 2725 3281 2906 2969 
z
M 947 1747 
Q 947 1113 1208 752 
Q 1469 391 1925 391 
Q 2381 391 2643 752 
Q 2906 1113 2906 1747 
Q 2906 2381 2643 2742 
Q 2381 3103 1925 3103 
Q 1469 3103 1208 2742 
Q 947 2381 947 1747 
z
" transform="scale(0.015625)"/>
       <path id="DejaVuSans-20" transform="scale(0.015625)"/>
       <path id="DejaVuSans-46" d="M 628 4666 
L 3309 4666 
L 3309 4134 
L 1259 4134 
L 1259 2759 
L 3109 2759 
L 3109 2228 
L 1259 2228 
L 1259 0 
L 628 0 
L 628 4666 
z
" transform="scale(0.015625)"/>
       <path id="DejaVuSans-71" d="M 947 1747 
Q 947 1113 1208 752 
Q 1469 391 1925 391 
Q 2381 391 2643 752 
Q 2906 1113 2906 1747 
Q 2906 2381 2643 2742 
Q 2381 3103 1925 3103 
Q 1469 3103 1208 2742 
Q 947 2381 947 1747 
z
M 2906 525 
Q 2725 213 2448 61 
Q 2172 -91 1784 -91 
Q 1150 -91 751 415 
Q 353 922 353 1747 
Q 353 2572 751 3078 
Q 1150 3584 1784 3584 
Q 2172 3584 2448 3432 
Q 2725 3281 2906 2969 
L 2906 3500 
L 3481 3500 
L 3481 -1331 
L 2906 -1331 
L 2906 525 
z
" transform="scale(0.015625)"/>
       <path id="DejaVuSans-75" d="M 544 1381 
L 544 3500 
L 1119 3500 
L 1119 1403 
Q 1119 906 1312 657 
Q 1506 409 1894 409 
Q 2359 409 2629 706 
Q 2900 1003 2900 1516 
L 2900 3500 
L 3475 3500 
L 3475 0 
L 2900 0 
L 2900 538 
Q 2691 219 2414 64 
Q 2138 -91 1772 -91 
Q 1169 -91 856 284 
Q 544 659 544 1381 
z
M 1991 3584 
L 1991 3584 
z
" transform="scale(0.015625)"/>
       <path id="DejaVuSans-6e" d="M 3513 2113 
L 3513 0 
L 2938 0 
L 2938 2094 
Q 2938 2591 2744 2837 
Q 2550 3084 2163 3084 
Q 1697 3084 1428 2787 
Q 1159 2491 1159 1978 
L 1159 0 
L 581 0 
L 581 3500 
L 1159 3500 
L 1159 2956 
Q 1366 3272 1645 3428 
Q 1925 3584 2291 3584 
Q 2894 3584 3203 3211 
Q 3513 2838 3513 2113 
z
" transform="scale(0.015625)"/>
       <path id="DejaVuSans-63" d="M 3122 3366 
L 3122 2828 
Q 2878 2963 2633 3030 
Q 2388 3097 2138 3097 
Q 1578 3097 1268 2742 
Q 959 2388 959 1747 
Q 959 1106 1268 751 
Q 1578 397 2138 397 
Q 2388 397 2633 464 
Q 2878 531 3122 666 
L 3122 134 
Q 2881 22 2623 -34 
Q 2366 -91 2075 -91 
Q 1284 -91 818 406 
Q 353 903 353 1747 
Q 353 2603 823 3093 
Q 1294 3584 2113 3584 
Q 2378 3584 2631 3529 
Q 2884 3475 3122 3366 
z
" transform="scale(0.015625)"/>
       <path id="DejaVuSans-79" d="M 2059 -325 
Q 1816 -950 1584 -1140 
Q 1353 -1331 966 -1331 
L 506 -1331 
L 506 -850 
L 844 -850 
Q 1081 -850 1212 -737 
Q 1344 -625 1503 -206 
L 1606 56 
L 191 3500 
L 800 3500 
L 1894 763 
L 2988 3500 
L 3597 3500 
L 2059 -325 
z
" transform="scale(0.015625)"/>
      </defs>
      <use xlink:href="#DejaVuSans-4e"/>
      <use xlink:href="#DejaVuSans-6f" transform="translate(74.804688 0)"/>
      <use xlink:href="#DejaVuSans-72" transform="translate(135.986328 0)"/>
      <use xlink:href="#DejaVuSans-6d" transform="translate(175.349609 0)"/>
      <use xlink:href="#DejaVuSans-61" transform="translate(272.761719 0)"/>
      <use xlink:href="#DejaVuSans-6c" transform="translate(334.041016 0)"/>
      <use xlink:href="#DejaVuSans-69" transform="translate(361.824219 0)"/>
      <use xlink:href="#DejaVuSans-7a" transform="translate(389.607422 0)"/>
      <use xlink:href="#DejaVuSans-65" transform="translate(442.097656 0)"/>
      <use xlink:href="#DejaVuSans-64" transform="translate(503.621094 0)"/>
      <use xlink:href="#DejaVuSans-20" transform="translate(567.097656 0)"/>
      <use xlink:href="#DejaVuSans-46" transform="translate(598.884766 0)"/>
      <use xlink:href="#DejaVuSans-72" transform="translate(649.154297 0)"/>
      <use xlink:href="#DejaVuSans-65" transform="translate(688.017578 0)"/>
      <use xlink:href="#DejaVuSans-71" transform="translate(749.541016 0)"/>
      <use xlink:href="#DejaVuSans-75" transform="translate(813.017578 0)"/>
      <use xlink:href="#DejaVuSans-65" transform="translate(876.396484 0)"/>
      <use xlink:href="#DejaVuSans-6e" transform="translate(937.919922 0)"/>
      <use xlink:href="#DejaVuSans-63" transform="translate(1001.298828 0)"/>
      <use xlink:href="#DejaVuSans-79" transform="translate(1056.279297 0)"/>
     </g>
    </g>
   </g>
   <g id="matplotlib.axis_2">
    <g id="ytick_1">
     <g id="line2d_13">
      <path d="M 57.528957 295.776782 
L 414.208488 295.776782 
" clip-path="url(#p9f85a53141)" style="fill: none; stroke: #b0b0b0; stroke-width: 0.8; stroke-linecap: square"/>
     </g>
     <g id="line2d_14">
      <defs>
       <path id="m5775e038d4" d="M 0 0 
L -3.5 0 
" style="stroke: #000000; stroke-width: 0.8"/>
      </defs>
      <g>
       <use xlink:href="#m5775e038d4" x="57.528957" y="295.776782" style="stroke: #000000; stroke-width: 0.8"/>
      </g>
     </g>
     <g id="text_8">
      <!-- −150 -->
      <g transform="translate(23.061769 299.576) scale(0.1 -0.1)">
       <defs>
        <path id="DejaVuSans-31" d="M 794 531 
L 1825 531 
L 1825 4091 
L 703 3866 
L 703 4441 
L 1819 4666 
L 2450 4666 
L 2450 531 
L 3481 531 
L 3481 0 
L 794 0 
L 794 531 
z
" transform="scale(0.015625)"/>
       </defs>
       <use xlink:href="#DejaVuSans-2212"/>
       <use xlink:href="#DejaVuSans-31" transform="translate(83.789062 0)"/>
       <use xlink:href="#DejaVuSans-35" transform="translate(147.412109 0)"/>
       <use xlink:href="#DejaVuSans-30" transform="translate(211.035156 0)"/>
      </g>
     </g>
    </g>
    <g id="ytick_2">
     <g id="line2d_15">
      <path d="M 57.528957 266.079711 
L 414.208488 266.079711 
" clip-path="url(#p9f85a53141)" style="fill: none; stroke: #b0b0b0; stroke-width: 0.8; stroke-linecap: square"/>
     </g>
     <g id="line2d_16">
      <g>
       <use xlink:href="#m5775e038d4" x="57.528957" y="266.079711" style="stroke: #000000; stroke-width: 0.8"/>
      </g>
     </g>
     <g id="text_9">
      <!-- −140 -->
      <g transform="translate(23.061769 269.87893) scale(0.1 -0.1)">
       <use xlink:href="#DejaVuSans-2212"/>
       <use xlink:href="#DejaVuSans-31" transform="translate(83.789062 0)"/>
       <use xlink:href="#DejaVuSans-34" transform="translate(147.412109 0)"/>
       <use xlink:href="#DejaVuSans-30" transform="translate(211.035156 0)"/>
      </g>
     </g>
    </g>
    <g id="ytick_3">
     <g id="line2d_17">
      <path d="M 57.528957 236.38264 
L 414.208488 236.38264 
" clip-path="url(#p9f85a53141)" style="fill: none; stroke: #b0b0b0; stroke-width: 0.8; stroke-linecap: square"/>
     </g>
     <g id="line2d_18">
      <g>
       <use xlink:href="#m5775e038d4" x="57.528957" y="236.38264" style="stroke: #000000; stroke-width: 0.8"/>
      </g>
     </g>
     <g id="text_10">
      <!-- −130 -->
      <g transform="translate(23.061769 240.181859) scale(0.1 -0.1)">
       <use xlink:href="#DejaVuSans-2212"/>
       <use xlink:href="#DejaVuSans-31" transform="translate(83.789062 0)"/>
       <use xlink:href="#DejaVuSans-33" transform="translate(147.412109 0)"/>
       <use xlink:href="#DejaVuSans-30" transform="translate(211.035156 0)"/>
      </g>
     </g>
    </g>
    <g id="ytick_4">
     <g id="line2d_19">
      <path d="M 57.528957 206.685569 
L 414.208488 206.685569 
" clip-path="url(#p9f85a53141)" style="fill: none; stroke: #b0b0b0; stroke-width: 0.8; stroke-linecap: square"/>
     </g>
     <g id="line2d_20">
      <g>
       <use xlink:href="#m5775e038d4" x="57.528957" y="206.685569" style="stroke: #000000; stroke-width: 0.8"/>
      </g>
     </g>
     <g id="text_11">
      <!-- −120 -->
      <g transform="translate(23.061769 210.484788) scale(0.1 -0.1)">
       <use xlink:href="#DejaVuSans-2212"/>
       <use xlink:href="#DejaVuSans-31" transform="translate(83.789062 0)"/>
       <use xlink:href="#DejaVuSans-32" transform="translate(147.412109 0)"/>
       <use xlink:href="#DejaVuSans-30" transform="translate(211.035156 0)"/>
      </g>
     </g>
    </g>
    <g id="ytick_5">
     <g id="line2d_21">
      <path d="M 57.528957 176.988499 
L 414.208488 176.988499 
" clip-path="url(#p9f85a53141)" style="fill: none; stroke: #b0b0b0; stroke-width: 0.8; stroke-linecap: square"/>
     </g>
     <g id="line2d_22">
      <g>
       <use xlink:href="#m5775e038d4" x="57.528957" y="176.988499" style="stroke: #000000; stroke-width: 0.8"/>
      </g>
     </g>
     <g id="text_12">
      <!-- −110 -->
      <g transform="translate(23.061769 180.787717) scale(0.1 -0.1)">
       <use xlink:href="#DejaVuSans-2212"/>
       <use xlink:href="#DejaVuSans-31" transform="translate(83.789062 0)"/>
       <use xlink:href="#DejaVuSans-31" transform="translate(147.412109 0)"/>
       <use xlink:href="#DejaVuSans-30" transform="translate(211.035156 0)"/>
      </g>
     </g>
    </g>
    <g id="ytick_6">
     <g id="line2d_23">
      <path d="M 57.528957 147.291428 
L 414.208488 147.291428 
" clip-path="url(#p9f85a53141)" style="fill: none; stroke: #b0b0b0; stroke-width: 0.8; stroke-linecap: square"/>
     </g>
     <g id="line2d_24">
      <g>
       <use xlink:href="#m5775e038d4" x="57.528957" y="147.291428" style="stroke: #000000; stroke-width: 0.8"/>
      </g>
     </g>
     <g id="text_13">
      <!-- −100 -->
      <g transform="translate(23.061769 151.090647) scale(0.1 -0.1)">
       <use xlink:href="#DejaVuSans-2212"/>
       <use xlink:href="#DejaVuSans-31" transform="translate(83.789062 0)"/>
       <use xlink:href="#DejaVuSans-30" transform="translate(147.412109 0)"/>
       <use xlink:href="#DejaVuSans-30" transform="translate(211.035156 0)"/>
      </g>
     </g>
    </g>
    <g id="ytick_7">
     <g id="line2d_25">
      <path d="M 57.528957 117.594357 
L 414.208488 117.594357 
" clip-path="url(#p9f85a53141)" style="fill: none; stroke: #b0b0b0; stroke-width: 0.8; stroke-linecap: square"/>
     </g>
     <g id="line2d_26">
      <g>
       <use xlink:href="#m5775e038d4" x="57.528957" y="117.594357" style="stroke: #000000; stroke-width: 0.8"/>
      </g>
     </g>
     <g id="text_14">
      <!-- −90 -->
      <g transform="translate(29.424269 121.393576) scale(0.1 -0.1)">
       <defs>
        <path id="DejaVuSans-39" d="M 703 97 
L 703 672 
Q 941 559 1184 500 
Q 1428 441 1663 441 
Q 2288 441 2617 861 
Q 2947 1281 2994 2138 
Q 2813 1869 2534 1725 
Q 2256 1581 1919 1581 
Q 1219 1581 811 2004 
Q 403 2428 403 3163 
Q 403 3881 828 4315 
Q 1253 4750 1959 4750 
Q 2769 4750 3195 4129 
Q 3622 3509 3622 2328 
Q 3622 1225 3098 567 
Q 2575 -91 1691 -91 
Q 1453 -91 1209 -44 
Q 966 3 703 97 
z
M 1959 2075 
Q 2384 2075 2632 2365 
Q 2881 2656 2881 3163 
Q 2881 3666 2632 3958 
Q 2384 4250 1959 4250 
Q 1534 4250 1286 3958 
Q 1038 3666 1038 3163 
Q 1038 2656 1286 2365 
Q 1534 2075 1959 2075 
z
" transform="scale(0.015625)"/>
       </defs>
       <use xlink:href="#DejaVuSans-2212"/>
       <use xlink:href="#DejaVuSans-39" transform="translate(83.789062 0)"/>
       <use xlink:href="#DejaVuSans-30" transform="translate(147.412109 0)"/>
      </g>
     </g>
    </g>
    <g id="ytick_8">
     <g id="line2d_27">
      <path d="M 57.528957 87.897287 
L 414.208488 87.897287 
" clip-path="url(#p9f85a53141)" style="fill: none; stroke: #b0b0b0; stroke-width: 0.8; stroke-linecap: square"/>
     </g>
     <g id="line2d_28">
      <g>
       <use xlink:href="#m5775e038d4" x="57.528957" y="87.897287" style="stroke: #000000; stroke-width: 0.8"/>
      </g>
     </g>
     <g id="text_15">
      <!-- −80 -->
      <g transform="translate(29.424269 91.696505) scale(0.1 -0.1)">
       <defs>
        <path id="DejaVuSans-38" d="M 2034 2216 
Q 1584 2216 1326 1975 
Q 1069 1734 1069 1313 
Q 1069 891 1326 650 
Q 1584 409 2034 409 
Q 2484 409 2743 651 
Q 3003 894 3003 1313 
Q 3003 1734 2745 1975 
Q 2488 2216 2034 2216 
z
M 1403 2484 
Q 997 2584 770 2862 
Q 544 3141 544 3541 
Q 544 4100 942 4425 
Q 1341 4750 2034 4750 
Q 2731 4750 3128 4425 
Q 3525 4100 3525 3541 
Q 3525 3141 3298 2862 
Q 3072 2584 2669 2484 
Q 3125 2378 3379 2068 
Q 3634 1759 3634 1313 
Q 3634 634 3220 271 
Q 2806 -91 2034 -91 
Q 1263 -91 848 271 
Q 434 634 434 1313 
Q 434 1759 690 2068 
Q 947 2378 1403 2484 
z
M 1172 3481 
Q 1172 3119 1398 2916 
Q 1625 2713 2034 2713 
Q 2441 2713 2670 2916 
Q 2900 3119 2900 3481 
Q 2900 3844 2670 4047 
Q 2441 4250 2034 4250 
Q 1625 4250 1398 4047 
Q 1172 3844 1172 3481 
z
" transform="scale(0.015625)"/>
       </defs>
       <use xlink:href="#DejaVuSans-2212"/>
       <use xlink:href="#DejaVuSans-38" transform="translate(83.789062 0)"/>
       <use xlink:href="#DejaVuSans-30" transform="translate(147.412109 0)"/>
      </g>
     </g>
    </g>
    <g id="ytick_9">
     <g id="line2d_29">
      <path d="M 57.528957 58.200216 
L 414.208488 58.200216 
" clip-path="url(#p9f85a53141)" style="fill: none; stroke: #b0b0b0; stroke-width: 0.8; stroke-linecap: square"/>
     </g>
     <g id="line2d_30">
      <g>
       <use xlink:href="#m5775e038d4" x="57.528957" y="58.200216" style="stroke: #000000; stroke-width: 0.8"/>
      </g>
     </g>
     <g id="text_16">
      <!-- −70 -->
      <g transform="translate(29.424269 61.999435) scale(0.1 -0.1)">
       <defs>
        <path id="DejaVuSans-37" d="M 525 4666 
L 3525 4666 
L 3525 4397 
L 1831 0 
L 1172 0 
L 2766 4134 
L 525 4134 
L 525 4666 
z
" transform="scale(0.015625)"/>
       </defs>
       <use xlink:href="#DejaVuSans-2212"/>
       <use xlink:href="#DejaVuSans-37" transform="translate(83.789062 0)"/>
       <use xlink:href="#DejaVuSans-30" transform="translate(147.412109 0)"/>
      </g>
     </g>
    </g>
   </g>
   <g id="line2d_31">
    <path d="M 100.532365 76.999763 
L 101.708648 77.160696 
L 102.884931 77.647199 
L 104.061214 78.47074 
L 105.237497 79.651717 
L 106.413781 81.221683 
L 107.590064 83.227197 
L 108.766347 85.736407 
L 109.94263 88.850676 
L 111.118914 92.7263 
L 112.295197 97.618777 
L 113.47148 103.984737 
L 114.059622 107.978202 
L 114.647763 112.764207 
L 115.235905 118.695779 
L 115.824046 126.447962 
L 116.412188 137.588817 
L 117.00033 157.535001 
L 117.588471 204.95797 
L 118.176613 150.644994 
L 118.764754 134.553908 
L 119.352896 124.864102 
L 119.941038 117.968649 
L 120.529179 112.657493 
L 121.705463 104.818639 
L 122.881746 99.221232 
L 124.058029 95.026618 
L 125.234312 91.819155 
L 126.410595 89.364524 
L 127.586879 87.51981 
L 128.763162 86.193787 
L 129.939445 85.327294 
L 131.115728 84.88282 
L 132.292011 84.838814 
L 133.468295 85.186712 
L 134.644578 85.929778 
L 135.820861 87.083424 
L 136.997144 88.677102 
L 138.173428 90.758303 
L 139.349711 93.399954 
L 140.525994 96.714028 
L 141.702277 100.877837 
L 142.87856 106.189536 
L 144.054844 113.202118 
L 144.642985 117.672527 
L 145.231127 123.122494 
L 145.819269 130.05797 
L 146.40741 139.547986 
L 146.995552 154.589164 
L 147.583693 194.01249 
L 148.759977 147.610353 
L 149.348118 136.088787 
L 149.93626 128.350631 
L 150.524401 122.586513 
L 151.700685 114.350022 
L 152.876968 108.674901 
L 154.053251 104.571778 
L 155.229534 101.57186 
L 156.405818 99.421133 
L 157.582101 97.97227 
L 158.170242 97.482341 
L 158.758384 97.138897 
L 159.346526 96.937194 
L 159.934667 96.874306 
L 160.522809 96.948983 
L 161.11095 97.161591 
L 161.699092 97.514134 
L 162.287234 98.010339 
L 163.463517 99.458429 
L 164.6398 101.579729 
L 165.816083 104.501288 
L 166.992366 108.43986 
L 168.16865 113.78521 
L 168.756791 117.202277 
L 169.344933 121.32171 
L 169.933075 126.420552 
L 170.521216 132.999612 
L 171.109358 142.115093 
L 171.697499 156.713087 
L 172.285641 194.876973 
L 173.461924 149.232889 
L 174.050066 137.31492 
L 174.638207 129.219489 
L 175.226349 123.111199 
L 176.402632 114.196972 
L 177.578915 107.839795 
L 178.755199 103.038018 
L 179.931482 99.313022 
L 181.107765 96.400593 
L 182.284048 94.141539 
L 183.460332 92.434852 
L 184.636615 91.21503 
L 185.812898 90.440199 
L 186.989181 90.085651 
L 188.165464 90.14044 
L 189.341748 90.605948 
L 190.518031 91.496021 
L 191.694314 92.838714 
L 192.870597 94.680133 
L 194.046881 97.091627 
L 195.223164 100.183035 
L 196.399447 104.128243 
L 197.57573 109.218909 
L 198.752013 115.99331 
L 199.340155 120.327466 
L 199.928297 125.615972 
L 200.516438 132.33879 
L 201.10458 141.493975 
L 201.692721 155.791582 
L 202.280863 190.163527 
L 202.869005 175.578236 
L 203.457146 151.500856 
L 204.045288 139.472897 
L 204.63343 131.486786 
L 205.221571 125.571062 
L 206.397854 117.15858 
L 207.574138 111.396081 
L 208.750421 107.264015 
L 209.926704 104.286769 
L 211.102987 102.212519 
L 212.27927 100.901814 
L 212.867412 100.508049 
L 213.455554 100.281734 
L 214.043695 100.220948 
L 214.631837 100.326231 
L 215.219978 100.600626 
L 215.80812 101.04985 
L 216.396262 101.682639 
L 216.984403 102.511308 
L 217.572545 103.552589 
L 218.748828 106.370295 
L 219.925111 110.425886 
L 220.513253 113.07489 
L 221.101395 116.280184 
L 221.689536 120.220616 
L 222.277678 125.192685 
L 222.865819 131.741567 
L 223.453961 141.048579 
L 224.042103 156.595018 
L 224.630244 206.753261 
L 225.218386 164.348448 
L 225.806527 143.729588 
L 226.394669 132.225591 
L 226.982811 124.184631 
L 228.159094 112.974526 
L 229.335377 105.136803 
L 230.51166 99.184679 
L 231.687944 94.468832 
L 232.864227 90.647337 
L 234.04051 87.518533 
L 235.216793 84.954262 
L 236.393076 82.868878 
L 237.56936 81.20326 
L 238.745643 79.915923 
L 239.921926 78.977793 
L 241.098209 78.369026 
L 242.274493 78.077056 
L 243.450776 78.095415 
L 244.627059 78.423118 
L 245.803342 79.064469 
L 246.979625 80.029276 
L 248.155909 81.33349 
L 249.332192 83.000369 
L 250.508475 85.062409 
L 251.684758 87.564413 
L 252.861042 90.568467 
L 254.037325 94.162278 
L 255.213608 98.473896 
L 256.389891 103.699713 
L 257.566174 110.163294 
L 258.742458 118.457955 
L 259.330599 123.641089 
L 259.918741 129.876692 
L 260.506882 137.714552 
L 261.095024 148.340695 
L 261.683166 165.240131 
L 262.271307 216.740885 
L 262.859449 175.864016 
L 263.447591 156.745653 
L 264.035732 146.813495 
L 264.623874 140.422711 
L 265.212015 135.9756 
L 265.800157 132.798526 
L 266.388299 130.550859 
L 266.97644 129.04421 
L 267.564582 128.172459 
L 268.152723 127.88118 
L 268.740865 128.154339 
L 269.329007 129.010662 
L 269.917148 130.50782 
L 270.50529 132.756565 
L 271.093431 135.953011 
L 271.681573 140.452886 
L 272.269715 146.965614 
L 272.857856 157.202991 
L 273.445998 177.491366 
L 274.034139 207.262903 
L 274.622281 163.164051 
L 275.210423 146.897025 
L 275.798564 136.492247 
L 276.386706 128.761448 
L 277.562989 117.444644 
L 278.739272 109.207635 
L 279.915556 102.799734 
L 281.091839 97.645019 
L 282.268122 93.430278 
L 283.444405 89.967157 
L 284.620688 87.135018 
L 285.796972 84.853743 
L 286.973255 83.0695 
L 288.149538 81.746814 
L 289.325821 80.864007 
L 290.502105 80.410618 
L 291.678388 80.386126 
L 292.854671 80.799642 
L 294.030954 81.670507 
L 295.207237 83.029875 
L 296.383521 84.923626 
L 297.559804 87.417295 
L 298.736087 90.604375 
L 299.91237 94.620834 
L 301.088654 99.672085 
L 302.264937 106.087975 
L 303.44122 114.450866 
L 304.029362 119.690919 
L 304.617503 125.961596 
L 305.205645 133.730319 
L 305.793786 143.937519 
L 306.381928 159.017442 
L 306.97007 190.662767 
L 307.558211 188.765452 
L 308.146353 164.248664 
L 308.734494 154.316624 
L 309.322636 149.303489 
L 309.910778 147.205047 
L 310.498919 147.487398 
L 311.087061 150.338273 
L 311.675203 156.898144 
L 312.263344 171.448343 
L 312.851486 291.584896 
L 313.439627 165.336585 
L 314.027769 145.149891 
L 314.615911 132.567022 
L 315.204052 123.227832 
L 316.380335 109.506518 
L 317.556619 99.52448 
L 318.732902 91.866496 
L 319.909185 85.920783 
L 321.085468 81.405102 
L 322.261752 78.225277 
L 322.849893 77.149151 
L 323.438035 76.443906 
L 324.026176 76.148852 
L 324.614318 76.324456 
L 325.20246 77.063106 
L 325.790601 78.509224 
L 326.378743 80.89993 
L 326.966884 84.65735 
L 327.555026 90.63817 
L 328.143168 101.036354 
L 328.731309 125.625894 
L 329.319451 127.397741 
L 329.907592 95.289261 
L 330.495734 79.576078 
L 331.083876 68.577358 
L 332.260159 52.565305 
L 333.436442 40.460149 
L 334.612725 30.453133 
L 336.37715 17.823749 
L 338.141575 7.05574 
L 339.629047 -1 
L 339.629047 -1 
" clip-path="url(#p9f85a53141)" style="fill: none; stroke: #0000ff; stroke-width: 2; stroke-linecap: square"/>
   </g>
   <g id="line2d_32">
    <path d="M 100.532365 108.055541 
L 101.120506 108.139327 
L 101.708648 108.391963 
L 102.296789 108.817349 
L 102.884931 109.422243 
L 103.473073 110.216678 
L 104.061214 111.214619 
L 105.237497 113.903073 
L 106.413781 117.73124 
L 107.001922 120.202311 
L 107.590064 123.158907 
L 108.178205 126.739772 
L 108.766347 131.165173 
L 109.354489 136.815051 
L 109.94263 144.431809 
L 110.530772 155.803665 
L 111.707055 203.248933 
L 112.295197 162.928495 
L 112.883338 147.713479 
L 113.47148 138.112637 
L 114.059622 131.08675 
L 115.235905 121.011445 
L 116.412188 113.861206 
L 117.588471 108.421411 
L 118.764754 104.135347 
L 119.941038 100.702311 
L 121.117321 97.942827 
L 122.293604 95.742811 
L 123.469887 94.027085 
L 124.646171 92.745592 
L 125.822454 91.865806 
L 126.998737 91.368479 
L 128.17502 91.245382 
L 129.351303 91.498437 
L 130.527587 92.140004 
L 131.70387 93.194405 
L 132.880153 94.701102 
L 134.056436 96.720432 
L 135.23272 99.343921 
L 136.409003 102.71349 
L 137.585286 107.060077 
L 138.761569 112.790509 
L 139.349711 116.399689 
L 139.937852 120.718928 
L 140.525994 126.037409 
L 141.114136 132.88223 
L 141.702277 142.38153 
L 142.290419 157.781236 
L 142.87856 202.212397 
L 143.466702 169.119038 
L 144.054844 147.92055 
L 144.642985 136.498409 
L 145.231127 128.675879 
L 145.819269 122.755593 
L 146.995552 114.106096 
L 148.171835 107.941101 
L 149.348118 103.291408 
L 150.524401 99.691031 
L 151.700685 96.881878 
L 152.876968 94.708153 
L 154.053251 93.070875 
L 155.229534 91.905783 
L 156.405818 91.171718 
L 157.582101 90.844294 
L 158.758384 90.912542 
L 159.934667 91.377472 
L 161.11095 92.252173 
L 162.287234 93.563438 
L 163.463517 95.355416 
L 164.6398 97.696417 
L 165.816083 100.691412 
L 166.992366 104.505991 
L 168.16865 109.416227 
L 169.344933 115.92653 
L 169.933075 120.073532 
L 170.521216 125.108739 
L 171.109358 131.458404 
L 171.697499 139.979587 
L 172.285641 152.852881 
L 172.873783 179.703652 
L 173.461924 184.7148 
L 174.050066 154.75359 
L 174.638207 141.401952 
L 175.226349 132.777561 
L 175.814491 126.450541 
L 176.990774 117.462273 
L 178.167057 111.233661 
L 179.34334 106.650831 
L 180.519624 103.196577 
L 181.695907 100.591492 
L 182.87219 98.670845 
L 184.048473 97.333051 
L 185.224756 96.515255 
L 186.40104 96.180938 
L 186.989181 96.189244 
L 187.577323 96.313623 
L 188.753606 96.914207 
L 189.929889 98.000976 
L 191.106172 99.612297 
L 192.282456 101.812947 
L 193.458739 104.706529 
L 194.635022 108.459921 
L 195.811305 113.354827 
L 196.987589 119.910879 
L 197.57573 124.114982 
L 198.163872 129.244325 
L 198.752013 135.751071 
L 199.340155 144.559559 
L 199.928297 158.096867 
L 200.516438 188.213414 
L 201.10458 183.532099 
L 201.692721 156.862792 
L 202.280863 144.20758 
L 202.869005 135.918362 
L 203.457146 129.812522 
L 204.63343 121.154494 
L 205.809713 115.222779 
L 206.985996 110.955145 
L 208.162279 107.859676 
L 209.338562 105.676372 
L 210.514846 104.260568 
L 211.102987 103.814402 
L 211.691129 103.535094 
L 212.27927 103.420159 
L 212.867412 103.469513 
L 213.455554 103.685464 
L 214.043695 104.072851 
L 214.631837 104.639318 
L 215.219978 105.395789 
L 215.80812 106.357183 
L 216.396262 107.543491 
L 217.572545 110.706669 
L 218.748828 115.233859 
L 219.33697 118.201928 
L 219.925111 121.820242 
L 220.513253 126.325936 
L 221.101395 132.134133 
L 221.689536 140.075214 
L 222.277678 152.237647 
L 222.865819 177.510962 
L 223.453961 186.128258 
L 224.042103 154.117699 
L 224.630244 140.04091 
L 225.218386 130.861695 
L 225.806527 124.036906 
L 226.982811 114.121183 
L 228.159094 107.003068 
L 229.335377 101.54405 
L 230.51166 97.214279 
L 231.687944 93.72497 
L 232.864227 90.902715 
L 234.04051 88.636796 
L 235.216793 86.85395 
L 236.393076 85.505158 
L 237.56936 84.5583 
L 238.745643 83.993978 
L 239.921926 83.803243 
L 241.098209 83.986582 
L 242.274493 84.553953 
L 243.450776 85.525848 
L 244.627059 86.935654 
L 245.803342 88.833961 
L 246.979625 91.296118 
L 248.155909 94.435877 
L 249.332192 98.431514 
L 250.508475 103.580689 
L 251.684758 110.432344 
L 252.2729 114.819018 
L 252.861042 120.177581 
L 253.449183 127.003164 
L 254.037325 136.334567 
L 254.625466 151.043832 
L 255.213608 188.149035 
L 256.389891 145.18494 
L 256.978033 133.462655 
L 257.566174 125.634757 
L 258.154316 119.8268 
L 259.330599 111.576325 
L 260.506882 105.956294 
L 261.683166 101.970879 
L 262.859449 99.15607 
L 264.035732 97.268657 
L 264.623874 96.628874 
L 265.212015 96.177795 
L 265.800157 95.909447 
L 266.388299 95.820909 
L 266.97644 95.912122 
L 267.564582 96.185878 
L 268.152723 96.647987 
L 268.740865 97.307629 
L 269.329007 98.177965 
L 269.917148 99.27708 
L 270.50529 100.629409 
L 271.093431 102.267937 
L 271.681573 104.237625 
L 272.269715 106.600953 
L 272.857856 109.447321 
L 273.445998 112.909986 
L 274.034139 117.199128 
L 274.622281 122.673869 
L 275.210423 130.025664 
L 275.798564 140.876824 
L 276.386706 160.959303 
L 276.974848 201.091212 
L 277.562989 151.410959 
L 278.151131 135.300647 
L 278.739272 125.382279 
L 279.327414 118.213782 
L 280.503697 108.063935 
L 281.67998 100.981887 
L 282.856264 95.705126 
L 284.032547 91.665582 
L 285.20883 88.563301 
L 286.385113 86.225698 
L 287.561397 84.550209 
L 288.73768 83.477894 
L 289.325821 83.158145 
L 289.913963 82.980719 
L 290.502105 82.946035 
L 291.090246 83.056019 
L 291.678388 83.314176 
L 292.266529 83.725732 
L 292.854671 84.297872 
L 293.442813 85.040075 
L 294.619096 87.087195 
L 295.795379 90.013337 
L 296.971662 94.065397 
L 298.147945 99.689733 
L 298.736087 103.343808 
L 299.324229 107.804909 
L 299.91237 113.414808 
L 300.500512 120.821181 
L 301.088654 131.50559 
L 301.676795 150.40622 
L 302.264937 213.755515 
L 302.853078 146.394404 
L 303.44122 129.614718 
L 304.029362 119.692907 
L 304.617503 112.719377 
L 305.205645 107.420506 
L 306.381928 99.81101 
L 307.558211 94.696336 
L 308.734494 91.256396 
L 309.322636 90.038894 
L 309.910778 89.119358 
L 310.498919 88.481926 
L 311.087061 88.117994 
L 311.675203 88.02528 
L 312.263344 88.207488 
L 312.851486 88.674463 
L 313.439627 89.442882 
L 314.027769 90.537605 
L 314.615911 91.993954 
L 315.204052 93.861444 
L 315.792194 96.20998 
L 316.380335 99.140536 
L 316.968477 102.804712 
L 317.556619 107.443654 
L 318.14476 113.475116 
L 318.732902 121.724595 
L 319.321043 134.237461 
L 319.909185 159.477589 
L 320.497327 171.693067 
L 321.085468 139.539059 
L 321.67361 126.551429 
L 322.261752 118.881894 
L 322.849893 113.988209 
L 323.438035 111.011617 
L 324.026176 109.66053 
L 324.614318 109.968941 
L 325.20246 112.322487 
L 325.790601 117.80437 
L 326.378743 129.863324 
L 326.966884 177.923588 
L 327.555026 130.614882 
L 328.143168 107.127892 
L 328.731309 92.779082 
L 329.907592 73.117529 
L 331.083876 58.748038 
L 332.260159 47.069165 
L 334.024584 32.533921 
L 335.789009 20.299427 
L 337.553433 9.628195 
L 339.538051 -1 
L 339.538051 -1 
" clip-path="url(#p9f85a53141)" style="fill: none; stroke: #ff0000; stroke-width: 2; stroke-linecap: square"/>
   </g>
   <g id="patch_3">
    <path d="M 57.528957 307.344331 
L 57.528957 41.439685 
" style="fill: none; stroke: #000000; stroke-width: 0.8; stroke-linejoin: miter; stroke-linecap: square"/>
   </g>
   <g id="patch_4">
    <path d="M 414.208488 307.344331 
L 414.208488 41.439685 
" style="fill: none; stroke: #000000; stroke-width: 0.8; stroke-linejoin: miter; stroke-linecap: square"/>
   </g>
   <g id="patch_5">
    <path d="M 57.528957 307.344331 
L 414.208488 307.344331 
" style="fill: none; stroke: #000000; stroke-width: 0.8; stroke-linejoin: miter; stroke-linecap: square"/>
   </g>
   <g id="patch_6">
    <path d="M 57.528957 41.439685 
L 414.208488 41.439685 
" style="fill: none; stroke: #000000; stroke-width: 0.8; stroke-linejoin: miter; stroke-linecap: square"/>
   </g>
   <g id="text_17">
    <!-- Impulse response spectrum: MultiCycle filter vs Golden model -->
    <g transform="translate(49.476847 22.00231) scale(0.12 -0.12)">
     <defs>
      <path id="DejaVuSans-49" d="M 628 4666 
L 1259 4666 
L 1259 0 
L 628 0 
L 628 4666 
z
" transform="scale(0.015625)"/>
      <path id="DejaVuSans-70" d="M 1159 525 
L 1159 -1331 
L 581 -1331 
L 581 3500 
L 1159 3500 
L 1159 2969 
Q 1341 3281 1617 3432 
Q 1894 3584 2278 3584 
Q 2916 3584 3314 3078 
Q 3713 2572 3713 1747 
Q 3713 922 3314 415 
Q 2916 -91 2278 -91 
Q 1894 -91 1617 61 
Q 1341 213 1159 525 
z
M 3116 1747 
Q 3116 2381 2855 2742 
Q 2594 3103 2138 3103 
Q 1681 3103 1420 2742 
Q 1159 2381 1159 1747 
Q 1159 1113 1420 752 
Q 1681 391 2138 391 
Q 2594 391 2855 752 
Q 3116 1113 3116 1747 
z
" transform="scale(0.015625)"/>
      <path id="DejaVuSans-73" d="M 2834 3397 
L 2834 2853 
Q 2591 2978 2328 3040 
Q 2066 3103 1784 3103 
Q 1356 3103 1142 2972 
Q 928 2841 928 2578 
Q 928 2378 1081 2264 
Q 1234 2150 1697 2047 
L 1894 2003 
Q 2506 1872 2764 1633 
Q 3022 1394 3022 966 
Q 3022 478 2636 193 
Q 2250 -91 1575 -91 
Q 1294 -91 989 -36 
Q 684 19 347 128 
L 347 722 
Q 666 556 975 473 
Q 1284 391 1588 391 
Q 1994 391 2212 530 
Q 2431 669 2431 922 
Q 2431 1156 2273 1281 
Q 2116 1406 1581 1522 
L 1381 1569 
Q 847 1681 609 1914 
Q 372 2147 372 2553 
Q 372 3047 722 3315 
Q 1072 3584 1716 3584 
Q 2034 3584 2315 3537 
Q 2597 3491 2834 3397 
z
" transform="scale(0.015625)"/>
      <path id="DejaVuSans-74" d="M 1172 4494 
L 1172 3500 
L 2356 3500 
L 2356 3053 
L 1172 3053 
L 1172 1153 
Q 1172 725 1289 603 
Q 1406 481 1766 481 
L 2356 481 
L 2356 0 
L 1766 0 
Q 1100 0 847 248 
Q 594 497 594 1153 
L 594 3053 
L 172 3053 
L 172 3500 
L 594 3500 
L 594 4494 
L 1172 4494 
z
" transform="scale(0.015625)"/>
      <path id="DejaVuSans-3a" d="M 750 794 
L 1409 794 
L 1409 0 
L 750 0 
L 750 794 
z
M 750 3309 
L 1409 3309 
L 1409 2516 
L 750 2516 
L 750 3309 
z
" transform="scale(0.015625)"/>
      <path id="DejaVuSans-4d" d="M 628 4666 
L 1569 4666 
L 2759 1491 
L 3956 4666 
L 4897 4666 
L 4897 0 
L 4281 0 
L 4281 4097 
L 3078 897 
L 2444 897 
L 1241 4097 
L 1241 0 
L 628 0 
L 628 4666 
z
" transform="scale(0.015625)"/>
      <path id="DejaVuSans-43" d="M 4122 4306 
L 4122 3641 
Q 3803 3938 3442 4084 
Q 3081 4231 2675 4231 
Q 1875 4231 1450 3742 
Q 1025 3253 1025 2328 
Q 1025 1406 1450 917 
Q 1875 428 2675 428 
Q 3081 428 3442 575 
Q 3803 722 4122 1019 
L 4122 359 
Q 3791 134 3420 21 
Q 3050 -91 2638 -91 
Q 1578 -91 968 557 
Q 359 1206 359 2328 
Q 359 3453 968 4101 
Q 1578 4750 2638 4750 
Q 3056 4750 3426 4639 
Q 3797 4528 4122 4306 
z
" transform="scale(0.015625)"/>
      <path id="DejaVuSans-66" d="M 2375 4863 
L 2375 4384 
L 1825 4384 
Q 1516 4384 1395 4259 
Q 1275 4134 1275 3809 
L 1275 3500 
L 2222 3500 
L 2222 3053 
L 1275 3053 
L 1275 0 
L 697 0 
L 697 3053 
L 147 3053 
L 147 3500 
L 697 3500 
L 697 3744 
Q 697 4328 969 4595 
Q 1241 4863 1831 4863 
L 2375 4863 
z
" transform="scale(0.015625)"/>
      <path id="DejaVuSans-76" d="M 191 3500 
L 800 3500 
L 1894 563 
L 2988 3500 
L 3597 3500 
L 2284 0 
L 1503 0 
L 191 3500 
z
" transform="scale(0.015625)"/>
      <path id="DejaVuSans-47" d="M 3809 666 
L 3809 1919 
L 2778 1919 
L 2778 2438 
L 4434 2438 
L 4434 434 
Q 4069 175 3628 42 
Q 3188 -91 2688 -91 
Q 1594 -91 976 548 
Q 359 1188 359 2328 
Q 359 3472 976 4111 
Q 1594 4750 2688 4750 
Q 3144 4750 3555 4637 
Q 3966 4525 4313 4306 
L 4313 3634 
Q 3963 3931 3569 4081 
Q 3175 4231 2741 4231 
Q 1884 4231 1454 3753 
Q 1025 3275 1025 2328 
Q 1025 1384 1454 906 
Q 1884 428 2741 428 
Q 3075 428 3337 486 
Q 3600 544 3809 666 
z
" transform="scale(0.015625)"/>
     </defs>
     <use xlink:href="#DejaVuSans-49"/>
     <use xlink:href="#DejaVuSans-6d" transform="translate(29.492188 0)"/>
     <use xlink:href="#DejaVuSans-70" transform="translate(126.904297 0)"/>
     <use xlink:href="#DejaVuSans-75" transform="translate(190.380859 0)"/>
     <use xlink:href="#DejaVuSans-6c" transform="translate(253.759766 0)"/>
     <use xlink:href="#DejaVuSans-73" transform="translate(281.542969 0)"/>
     <use xlink:href="#DejaVuSans-65" transform="translate(333.642578 0)"/>
     <use xlink:href="#DejaVuSans-20" transform="translate(395.166016 0)"/>
     <use xlink:href="#DejaVuSans-72" transform="translate(426.953125 0)"/>
     <use xlink:href="#DejaVuSans-65" transform="translate(465.816406 0)"/>
     <use xlink:href="#DejaVuSans-73" transform="translate(527.339844 0)"/>
     <use xlink:href="#DejaVuSans-70" transform="translate(579.439453 0)"/>
     <use xlink:href="#DejaVuSans-6f" transform="translate(642.916016 0)"/>
     <use xlink:href="#DejaVuSans-6e" transform="translate(704.097656 0)"/>
     <use xlink:href="#DejaVuSans-73" transform="translate(767.476562 0)"/>
     <use xlink:href="#DejaVuSans-65" transform="translate(819.576172 0)"/>
     <use xlink:href="#DejaVuSans-20" transform="translate(881.099609 0)"/>
     <use xlink:href="#DejaVuSans-73" transform="translate(912.886719 0)"/>
     <use xlink:href="#DejaVuSans-70" transform="translate(964.986328 0)"/>
     <use xlink:href="#DejaVuSans-65" transform="translate(1028.462891 0)"/>
     <use xlink:href="#DejaVuSans-63" transform="translate(1089.986328 0)"/>
     <use xlink:href="#DejaVuSans-74" transform="translate(1144.966797 0)"/>
     <use xlink:href="#DejaVuSans-72" transform="translate(1184.175781 0)"/>
     <use xlink:href="#DejaVuSans-75" transform="translate(1225.289062 0)"/>
     <use xlink:href="#DejaVuSans-6d" transform="translate(1288.667969 0)"/>
     <use xlink:href="#DejaVuSans-3a" transform="translate(1386.080078 0)"/>
     <use xlink:href="#DejaVuSans-20" transform="translate(1419.771484 0)"/>
     <use xlink:href="#DejaVuSans-4d" transform="translate(1451.558594 0)"/>
     <use xlink:href="#DejaVuSans-75" transform="translate(1537.837891 0)"/>
     <use xlink:href="#DejaVuSans-6c" transform="translate(1601.216797 0)"/>
     <use xlink:href="#DejaVuSans-74" transform="translate(1629 0)"/>
     <use xlink:href="#DejaVuSans-69" transform="translate(1668.208984 0)"/>
     <use xlink:href="#DejaVuSans-43" transform="translate(1695.992188 0)"/>
     <use xlink:href="#DejaVuSans-79" transform="translate(1765.816406 0)"/>
     <use xlink:href="#DejaVuSans-63" transform="translate(1824.996094 0)"/>
     <use xlink:href="#DejaVuSans-6c" transform="translate(1879.976562 0)"/>
     <use xlink:href="#DejaVuSans-65" transform="translate(1907.759766 0)"/>
     <use xlink:href="#DejaVuSans-20" transform="translate(1969.283203 0)"/>
     <use xlink:href="#DejaVuSans-66" transform="translate(2001.070312 0)"/>
     <use xlink:href="#DejaVuSans-69" transform="translate(2036.275391 0)"/>
     <use xlink:href="#DejaVuSans-6c" transform="translate(2064.058594 0)"/>
     <use xlink:href="#DejaVuSans-74" transform="translate(2091.841797 0)"/>
     <use xlink:href="#DejaVuSans-65" transform="translate(2131.050781 0)"/>
     <use xlink:href="#DejaVuSans-72" transform="translate(2192.574219 0)"/>
     <use xlink:href="#DejaVuSans-20" transform="translate(2233.6875 0)"/>
     <use xlink:href="#DejaVuSans-76" transform="translate(2265.474609 0)"/>
     <use xlink:href="#DejaVuSans-73" transform="translate(2324.654297 0)"/>
     <use xlink:href="#DejaVuSans-20" transform="translate(2376.753906 0)"/>
     <use xlink:href="#DejaVuSans-47" transform="translate(2408.541016 0)"/>
     <use xlink:href="#DejaVuSans-6f" transform="translate(2486.03125 0)"/>
     <use xlink:href="#DejaVuSans-6c" transform="translate(2547.212891 0)"/>
     <use xlink:href="#DejaVuSans-64" transform="translate(2574.996094 0)"/>
     <use xlink:href="#DejaVuSans-65" transform="translate(2638.472656 0)"/>
     <use xlink:href="#DejaVuSans-6e" transform="translate(2699.996094 0)"/>
     <use xlink:href="#DejaVuSans-20" transform="translate(2763.375 0)"/>
     <use xlink:href="#DejaVuSans-6d" transform="translate(2795.162109 0)"/>
     <use xlink:href="#DejaVuSans-6f" transform="translate(2892.574219 0)"/>
     <use xlink:href="#DejaVuSans-64" transform="translate(2953.755859 0)"/>
     <use xlink:href="#DejaVuSans-65" transform="translate(3017.232422 0)"/>
     <use xlink:href="#DejaVuSans-6c" transform="translate(3078.755859 0)"/>
    </g>
    <!-- Taps=39, MACS=13 -->
    <g transform="translate(176.268097 35.439685) scale(0.12 -0.12)">
     <defs>
      <path id="DejaVuSans-54" d="M -19 4666 
L 3928 4666 
L 3928 4134 
L 2272 4134 
L 2272 0 
L 1638 0 
L 1638 4134 
L -19 4134 
L -19 4666 
z
" transform="scale(0.015625)"/>
      <path id="DejaVuSans-3d" d="M 678 2906 
L 4684 2906 
L 4684 2381 
L 678 2381 
L 678 2906 
z
M 678 1631 
L 4684 1631 
L 4684 1100 
L 678 1100 
L 678 1631 
z
" transform="scale(0.015625)"/>
      <path id="DejaVuSans-2c" d="M 750 794 
L 1409 794 
L 1409 256 
L 897 -744 
L 494 -744 
L 750 256 
L 750 794 
z
" transform="scale(0.015625)"/>
      <path id="DejaVuSans-41" d="M 2188 4044 
L 1331 1722 
L 3047 1722 
L 2188 4044 
z
M 1831 4666 
L 2547 4666 
L 4325 0 
L 3669 0 
L 3244 1197 
L 1141 1197 
L 716 0 
L 50 0 
L 1831 4666 
z
" transform="scale(0.015625)"/>
      <path id="DejaVuSans-53" d="M 3425 4513 
L 3425 3897 
Q 3066 4069 2747 4153 
Q 2428 4238 2131 4238 
Q 1616 4238 1336 4038 
Q 1056 3838 1056 3469 
Q 1056 3159 1242 3001 
Q 1428 2844 1947 2747 
L 2328 2669 
Q 3034 2534 3370 2195 
Q 3706 1856 3706 1288 
Q 3706 609 3251 259 
Q 2797 -91 1919 -91 
Q 1588 -91 1214 -16 
Q 841 59 441 206 
L 441 856 
Q 825 641 1194 531 
Q 1563 422 1919 422 
Q 2459 422 2753 634 
Q 3047 847 3047 1241 
Q 3047 1584 2836 1778 
Q 2625 1972 2144 2069 
L 1759 2144 
Q 1053 2284 737 2584 
Q 422 2884 422 3419 
Q 422 4038 858 4394 
Q 1294 4750 2059 4750 
Q 2388 4750 2728 4690 
Q 3069 4631 3425 4513 
z
" transform="scale(0.015625)"/>
     </defs>
     <use xlink:href="#DejaVuSans-54"/>
     <use xlink:href="#DejaVuSans-61" transform="translate(44.583984 0)"/>
     <use xlink:href="#DejaVuSans-70" transform="translate(105.863281 0)"/>
     <use xlink:href="#DejaVuSans-73" transform="translate(169.339844 0)"/>
     <use xlink:href="#DejaVuSans-3d" transform="translate(221.439453 0)"/>
     <use xlink:href="#DejaVuSans-33" transform="translate(305.228516 0)"/>
     <use xlink:href="#DejaVuSans-39" transform="translate(368.851562 0)"/>
     <use xlink:href="#DejaVuSans-2c" transform="translate(432.474609 0)"/>
     <use xlink:href="#DejaVuSans-20" transform="translate(464.261719 0)"/>
     <use xlink:href="#DejaVuSans-4d" transform="translate(496.048828 0)"/>
     <use xlink:href="#DejaVuSans-41" transform="translate(582.328125 0)"/>
     <use xlink:href="#DejaVuSans-43" transform="translate(648.986328 0)"/>
     <use xlink:href="#DejaVuSans-53" transform="translate(718.810547 0)"/>
     <use xlink:href="#DejaVuSans-3d" transform="translate(782.287109 0)"/>
     <use xlink:href="#DejaVuSans-31" transform="translate(866.076172 0)"/>
     <use xlink:href="#DejaVuSans-33" transform="translate(929.699219 0)"/>
    </g>
   </g>
   <g id="legend_1">
    <g id="patch_7">
     <path d="M 64.528957 302.344331 
L 167.130519 302.344331 
Q 169.130519 302.344331 169.130519 300.344331 
L 169.130519 271.988081 
Q 169.130519 269.988081 167.130519 269.988081 
L 64.528957 269.988081 
Q 62.528957 269.988081 62.528957 271.988081 
L 62.528957 300.344331 
Q 62.528957 302.344331 64.528957 302.344331 
z
" style="fill: #ffffff; opacity: 0.8; stroke: #cccccc; stroke-linejoin: miter"/>
    </g>
    <g id="line2d_33">
     <path d="M 66.528957 278.086518 
L 76.528957 278.086518 
L 86.528957 278.086518 
" style="fill: none; stroke: #0000ff; stroke-width: 2; stroke-linecap: square"/>
    </g>
    <g id="text_18">
     <!-- MultiCycle FIR -->
     <g transform="translate(94.528957 281.586518) scale(0.1 -0.1)">
      <defs>
       <path id="DejaVuSans-52" d="M 2841 2188 
Q 3044 2119 3236 1894 
Q 3428 1669 3622 1275 
L 4263 0 
L 3584 0 
L 2988 1197 
Q 2756 1666 2539 1819 
Q 2322 1972 1947 1972 
L 1259 1972 
L 1259 0 
L 628 0 
L 628 4666 
L 2053 4666 
Q 2853 4666 3247 4331 
Q 3641 3997 3641 3322 
Q 3641 2881 3436 2590 
Q 3231 2300 2841 2188 
z
M 1259 4147 
L 1259 2491 
L 2053 2491 
Q 2509 2491 2742 2702 
Q 2975 2913 2975 3322 
Q 2975 3731 2742 3939 
Q 2509 4147 2053 4147 
L 1259 4147 
z
" transform="scale(0.015625)"/>
      </defs>
      <use xlink:href="#DejaVuSans-4d"/>
      <use xlink:href="#DejaVuSans-75" transform="translate(86.279297 0)"/>
      <use xlink:href="#DejaVuSans-6c" transform="translate(149.658203 0)"/>
      <use xlink:href="#DejaVuSans-74" transform="translate(177.441406 0)"/>
      <use xlink:href="#DejaVuSans-69" transform="translate(216.650391 0)"/>
      <use xlink:href="#DejaVuSans-43" transform="translate(244.433594 0)"/>
      <use xlink:href="#DejaVuSans-79" transform="translate(314.257812 0)"/>
      <use xlink:href="#DejaVuSans-63" transform="translate(373.4375 0)"/>
      <use xlink:href="#DejaVuSans-6c" transform="translate(428.417969 0)"/>
      <use xlink:href="#DejaVuSans-65" transform="translate(456.201172 0)"/>
      <use xlink:href="#DejaVuSans-20" transform="translate(517.724609 0)"/>
      <use xlink:href="#DejaVuSans-46" transform="translate(549.511719 0)"/>
      <use xlink:href="#DejaVuSans-49" transform="translate(607.03125 0)"/>
      <use xlink:href="#DejaVuSans-52" transform="translate(636.523438 0)"/>
     </g>
    </g>
    <g id="line2d_34">
     <path d="M 66.528957 292.764643 
L 76.528957 292.764643 
L 86.528957 292.764643 
" style="fill: none; stroke: #ff0000; stroke-width: 2; stroke-linecap: square"/>
    </g>
    <g id="text_19">
     <!-- Golden model -->
     <g transform="translate(94.528957 296.264643) scale(0.1 -0.1)">
      <use xlink:href="#DejaVuSans-47"/>
      <use xlink:href="#DejaVuSans-6f" transform="translate(77.490234 0)"/>
      <use xlink:href="#DejaVuSans-6c" transform="translate(138.671875 0)"/>
      <use xlink:href="#DejaVuSans-64" transform="translate(166.455078 0)"/>
      <use xlink:href="#DejaVuSans-65" transform="translate(229.931641 0)"/>
      <use xlink:href="#DejaVuSans-6e" transform="translate(291.455078 0)"/>
      <use xlink:href="#DejaVuSans-20" transform="translate(354.833984 0)"/>
      <use xlink:href="#DejaVuSans-6d" transform="translate(386.621094 0)"/>
      <use xlink:href="#DejaVuSans-6f" transform="translate(484.033203 0)"/>
      <use xlink:href="#DejaVuSans-64" transform="translate(545.214844 0)"/>
      <use xlink:href="#DejaVuSans-65" transform="translate(608.691406 0)"/>
      <use xlink:href="#DejaVuSans-6c" transform="translate(670.214844 0)"/>
     </g>
    </g>
   </g>
  </g>
 </g>
 <defs>
  <clipPath id="p9f85a53141">
   <rect x="57.528957" y="41.439685" width="356.679531" height="265.904646"/>
  </clipPath>
 </defs>
</svg>
