<?xml version="1.0" encoding="utf-8" standalone="no"?>
<!DOCTYPE svg PUBLIC "-//W3C//DTD SVG 1.1//EN"
  "http://www.w3.org/Graphics/SVG/1.1/DTD/svg11.dtd">
<svg xmlns:xlink="http://www.w3.org/1999/xlink" width="460.231654pt" height="345.330709pt" viewBox="0 0 460.231654 345.330709" xmlns="http://www.w3.org/2000/svg" version="1.1">
 <metadata>
  <rdf:RDF xmlns:dc="http://purl.org/dc/elements/1.1/" xmlns:cc="http://creativecommons.org/ns#" xmlns:rdf="http://www.w3.org/1999/02/22-rdf-syntax-ns#">
   <cc:Work>
    <dc:type rdf:resource="http://purl.org/dc/dcmitype/StillImage"/>
    <dc:date>2026-03-23T12:51:46.209499</dc:date>
    <dc:format>image/svg+xml</dc:format>
    <dc:creator>
     <cc:Agent>
      <dc:title>Matplotlib v3.10.8, https://matplotlib.org/</dc:title>
     </cc:Agent>
    </dc:creator>
   </cc:Work>
  </rdf:RDF>
 </metadata>
 <defs>
  <style type="text/css">*{stroke-linejoin: round; stroke-linecap: butt}</style>
 </defs>
 <g id="figure_1">
  <g id="patch_1">
   <path d="M 0 345.330709 
L 460.231654 345.330709 
L 460.231654 0 
L 0 0 
z
" style="fill: #ffffff"/>
  </g>
  <g id="axes_1">
   <g id="patch_2">
    <path d="M 57.528957 307.344331 
L 414.208488 307.344331 
L 414.208488 41.439685 
L 57.528957 41.439685 
z
" style="fill: #ffffff"/>
   </g>
   <g id="matplotlib.axis_1">
    <g id="xtick_1">
     <g id="line2d_1">
      <defs>
       <path id="ma4aac515c6" d="M 0 0 
L 0 3.5 
" style="stroke: #000000; stroke-width: 0.8"/>
      </defs>
      <g>
       <use xlink:href="#ma4aac515c6" x="106.170317" y="307.344331" style="stroke: #000000; stroke-width: 0.8"/>
      </g>
     </g>
     <g id="text_1">
      <!-- −0.4 -->
      <g transform="translate(94.028911 321.942768) scale(0.1 -0.1)">
       <defs>
        <path id="DejaVuSans-2212" d="M 678 2272 
L 4684 2272 
L 4684 1741 
L 678 1741 
L 678 2272 
z
" transform="scale(0.015625)"/>
        <path id="DejaVuSans-30" d="M 2034 4250 
Q 1547 4250 1301 3770 
Q 1056 3291 1056 2328 
Q 1056 1369 1301 889 
Q 1547 409 2034 409 
Q 2525 409 2770 889 
Q 3016 1369 3016 2328 
Q 3016 3291 2770 3770 
Q 2525 4250 2034 4250 
z
M 2034 4750 
Q 2819 4750 3233 4129 
Q 3647 3509 3647 2328 
Q 3647 1150 3233 529 
Q 2819 -91 2034 -91 
Q 1250 -91 836 529 
Q 422 1150 422 2328 
Q 422 3509 836 4129 
Q 1250 4750 2034 4750 
z
" transform="scale(0.015625)"/>
        <path id="DejaVuSans-2e" d="M 684 794 
L 1344 794 
L 1344 0 
L 684 0 
L 684 794 
z
" transform="scale(0.015625)"/>
        <path id="DejaVuSans-34" d="M 2419 4116 
L 825 1625 
L 2419 1625 
L 2419 4116 
z
M 2253 4666 
L 3047 4666 
L 3047 1625 
L 3713 1625 
L 3713 1100 
L 3047 1100 
L 3047 0 
L 2419 0 
L 2419 1100 
L 313 1100 
L 313 1709 
L 2253 4666 
z
" transform="scale(0.015625)"/>
       </defs>
       <use xlink:href="#DejaVuSans-2212"/>
       <use xlink:href="#DejaVuSans-30" transform="translate(83.789062 0)"/>
       <use xlink:href="#DejaVuSans-2e" transform="translate(147.412109 0)"/>
       <use xlink:href="#DejaVuSans-34" transform="translate(179.199219 0)"/>
      </g>
     </g>
    </g>
    <g id="xtick_2">
     <g id="line2d_2">
      <g>
       <use xlink:href="#ma4aac515c6" x="171.027627" y="307.344331" style="stroke: #000000; stroke-width: 0.8"/>
      </g>
     </g>
     <g id="text_2">
      <!-- −0.2 -->
      <g transform="translate(158.886221 321.942768) scale(0.1 -0.1)">
       <defs>
        <path id="DejaVuSans-32" d="M 1228 531 
L 3431 531 
L 3431 0 
L 469 0 
L 469 531 
Q 828 903 1448 1529 
Q 2069 2156 2228 2338 
Q 2531 2678 2651 2914 
Q 2772 3150 2772 3378 
Q 2772 3750 2511 3984 
Q 2250 4219 1831 4219 
Q 1534 4219 1204 4116 
Q 875 4013 500 3803 
L 500 4441 
Q 881 4594 1212 4672 
Q 1544 4750 1819 4750 
Q 2544 4750 2975 4387 
Q 3406 4025 3406 3419 
Q 3406 3131 3298 2873 
Q 3191 2616 2906 2266 
Q 2828 2175 2409 1742 
Q 1991 1309 1228 531 
z
" transform="scale(0.015625)"/>
       </defs>
       <use xlink:href="#DejaVuSans-2212"/>
       <use xlink:href="#DejaVuSans-30" transform="translate(83.789062 0)"/>
       <use xlink:href="#DejaVuSans-2e" transform="translate(147.412109 0)"/>
       <use xlink:href="#DejaVuSans-32" transform="translate(179.199219 0)"/>
      </g>
     </g>
    </g>
    <g id="xtick_3">
     <g id="line2d_3">
      <g>
       <use xlink:href="#ma4aac515c6" x="235.884937" y="307.344331" style="stroke: #000000; stroke-width: 0.8"/>
      </g>
     </g>
     <g id="text_3">
      <!-- 0.0 -->
      <g transform="translate(227.933374 321.942768) scale(0.1 -0.1)">
       <use xlink:href="#DejaVuSans-30"/>
       <use xlink:href="#DejaVuSans-2e" transform="translate(63.623047 0)"/>
       <use xlink:href="#DejaVuSans-30" transform="translate(95.410156 0)"/>
      </g>
     </g>
    </g>
    <g id="xtick_4">
     <g id="line2d_4">
      <g>
       <use xlink:href="#ma4aac515c6" x="300.742246" y="307.344331" style="stroke: #000000; stroke-width: 0.8"/>
      </g>
     </g>
     <g id="text_4">
      <!-- 0.2 -->
      <g transform="translate(292.790684 321.942768) scale(0.1 -0.1)">
       <use xlink:href="#DejaVuSans-30"/>
       <use xlink:href="#DejaVuSans-2e" transform="translate(63.623047 0)"/>
       <use xlink:href="#DejaVuSans-32" transform="translate(95.410156 0)"/>
      </g>
     </g>
    </g>
    <g id="xtick_5">
     <g id="line2d_5">
      <g>
       <use xlink:href="#ma4aac515c6" x="365.599556" y="307.344331" style="stroke: #000000; stroke-width: 0.8"/>
      </g>
     </g>
     <g id="text_5">
      <!-- 0.4 -->
      <g transform="translate(357.647994 321.942768) scale(0.1 -0.1)">
       <use xlink:href="#DejaVuSans-30"/>
       <use xlink:href="#DejaVuSans-2e" transform="translate(63.623047 0)"/>
       <use xlink:href="#DejaVuSans-34" transform="translate(95.410156 0)"/>
      </g>
     </g>
    </g>
    <g id="text_6">
     <!-- Normalized Frequency -->
     <g transform="translate(180.094504 335.620893) scale(0.1 -0.1)">
      <defs>
       <path id="DejaVuSans-4e" d="M 628 4666 
L 1478 4666 
L 3547 763 
L 3547 4666 
L 4159 4666 
L 4159 0 
L 3309 0 
L 1241 3903 
L 1241 0 
L 628 0 
L 628 4666 
z
" transform="scale(0.015625)"/>
       <path id="DejaVuSans-6f" d="M 1959 3097 
Q 1497 3097 1228 2736 
Q 959 2375 959 1747 
Q 959 1119 1226 758 
Q 1494 397 1959 397 
Q 2419 397 2687 759 
Q 2956 1122 2956 1747 
Q 2956 2369 2687 2733 
Q 2419 3097 1959 3097 
z
M 1959 3584 
Q 2709 3584 3137 3096 
Q 3566 2609 3566 1747 
Q 3566 888 3137 398 
Q 2709 -91 1959 -91 
Q 1206 -91 779 398 
Q 353 888 353 1747 
Q 353 2609 779 3096 
Q 1206 3584 1959 3584 
z
" transform="scale(0.015625)"/>
       <path id="DejaVuSans-72" d="M 2631 2963 
Q 2534 3019 2420 3045 
Q 2306 3072 2169 3072 
Q 1681 3072 1420 2755 
Q 1159 2438 1159 1844 
L 1159 0 
L 581 0 
L 581 3500 
L 1159 3500 
L 1159 2956 
Q 1341 3275 1631 3429 
Q 1922 3584 2338 3584 
Q 2397 3584 2469 3576 
Q 2541 3569 2628 3553 
L 2631 2963 
z
" transform="scale(0.015625)"/>
       <path id="DejaVuSans-6d" d="M 3328 2828 
Q 3544 3216 3844 3400 
Q 4144 3584 4550 3584 
Q 5097 3584 5394 3201 
Q 5691 2819 5691 2113 
L 5691 0 
L 5113 0 
L 5113 2094 
Q 5113 2597 4934 2840 
Q 4756 3084 4391 3084 
Q 3944 3084 3684 2787 
Q 3425 2491 3425 1978 
L 3425 0 
L 2847 0 
L 2847 2094 
Q 2847 2600 2669 2842 
Q 2491 3084 2119 3084 
Q 1678 3084 1418 2786 
Q 1159 2488 1159 1978 
L 1159 0 
L 581 0 
L 581 3500 
L 1159 3500 
L 1159 2956 
Q 1356 3278 1631 3431 
Q 1906 3584 2284 3584 
Q 2666 3584 2933 3390 
Q 3200 3197 3328 2828 
z
" transform="scale(0.015625)"/>
       <path id="DejaVuSans-61" d="M 2194 1759 
Q 1497 1759 1228 1600 
Q 959 1441 959 1056 
Q 959 750 1161 570 
Q 1363 391 1709 391 
Q 2188 391 2477 730 
Q 2766 1069 2766 1631 
L 2766 1759 
L 2194 1759 
z
M 3341 1997 
L 3341 0 
L 2766 0 
L 2766 531 
Q 2569 213 2275 61 
Q 1981 -91 1556 -91 
Q 1019 -91 701 211 
Q 384 513 384 1019 
Q 384 1609 779 1909 
Q 1175 2209 1959 2209 
L 2766 2209 
L 2766 2266 
Q 2766 2663 2505 2880 
Q 2244 3097 1772 3097 
Q 1472 3097 1187 3025 
Q 903 2953 641 2809 
L 641 3341 
Q 956 3463 1253 3523 
Q 1550 3584 1831 3584 
Q 2591 3584 2966 3190 
Q 3341 2797 3341 1997 
z
" transform="scale(0.015625)"/>
       <path id="DejaVuSans-6c" d="M 603 4863 
L 1178 4863 
L 1178 0 
L 603 0 
L 603 4863 
z
" transform="scale(0.015625)"/>
       <path id="DejaVuSans-69" d="M 603 3500 
L 1178 3500 
L 1178 0 
L 603 0 
L 603 3500 
z
M 603 4863 
L 1178 4863 
L 1178 4134 
L 603 4134 
L 603 4863 
z
" transform="scale(0.015625)"/>
       <path id="DejaVuSans-7a" d="M 353 3500 
L 3084 3500 
L 3084 2975 
L 922 459 
L 3084 459 
L 3084 0 
L 275 0 
L 275 525 
L 2438 3041 
L 353 3041 
L 353 3500 
z
" transform="scale(0.015625)"/>
       <path id="DejaVuSans-65" d="M 3597 1894 
L 3597 1613 
L 953 1613 
Q 991 1019 1311 708 
Q 1631 397 2203 397 
Q 2534 397 2845 478 
Q 3156 559 3463 722 
L 3463 178 
Q 3153 47 2828 -22 
Q 2503 -91 2169 -91 
Q 1331 -91 842 396 
Q 353 884 353 1716 
Q 353 2575 817 3079 
Q 1281 3584 2069 3584 
Q 2775 3584 3186 3129 
Q 3597 2675 3597 1894 
z
M 3022 2063 
Q 3016 2534 2758 2815 
Q 2500 3097 2075 3097 
Q 1594 3097 1305 2825 
Q 1016 2553 972 2059 
L 3022 2063 
z
" transform="scale(0.015625)"/>
       <path id="DejaVuSans-64" d="M 2906 2969 
L 2906 4863 
L 3481 4863 
L 3481 0 
L 2906 0 
L 2906 525 
Q 2725 213 2448 61 
Q 2172 -91 1784 -91 
Q 1150 -91 751 415 
Q 353 922 353 1747 
Q 353 2572 751 3078 
Q 1150 3584 1784 3584 
Q 2172 3584 2448 3432 
Q 2725 3281 2906 2969 
z
M 947 1747 
Q 947 1113 1208 752 
Q 1469 391 1925 391 
Q 2381 391 2643 752 
Q 2906 1113 2906 1747 
Q 2906 2381 2643 2742 
Q 2381 3103 1925 3103 
Q 1469 3103 1208 2742 
Q 947 2381 947 1747 
z
" transform="scale(0.015625)"/>
       <path id="DejaVuSans-20" transform="scale(0.015625)"/>
       <path id="DejaVuSans-46" d="M 628 4666 
L 3309 4666 
L 3309 4134 
L 1259 4134 
L 1259 2759 
L 3109 2759 
L 3109 2228 
L 1259 2228 
L 1259 0 
L 628 0 
L 628 4666 
z
" transform="scale(0.015625)"/>
       <path id="DejaVuSans-71" d="M 947 1747 
Q 947 1113 1208 752 
Q 1469 391 1925 391 
Q 2381 391 2643 752 
Q 2906 1113 2906 1747 
Q 2906 2381 2643 2742 
Q 2381 3103 1925 3103 
Q 1469 3103 1208 2742 
Q 947 2381 947 1747 
z
M 2906 525 
Q 2725 213 2448 61 
Q 2172 -91 1784 -91 
Q 1150 -91 751 415 
Q 353 922 353 1747 
Q 353 2572 751 3078 
Q 1150 3584 1784 3584 
Q 2172 3584 2448 3432 
Q 2725 3281 2906 2969 
L 2906 3500 
L 3481 3500 
L 3481 -1331 
L 2906 -1331 
L 2906 525 
z
" transform="scale(0.015625)"/>
       <path id="DejaVuSans-75" d="M 544 1381 
L 544 3500 
L 1119 3500 
L 1119 1403 
Q 1119 906 1312 657 
Q 1506 409 1894 409 
Q 2359 409 2629 706 
Q 2900 1003 2900 1516 
L 2900 3500 
L 3475 3500 
L 3475 0 
L 2900 0 
L 2900 538 
Q 2691 219 2414 64 
Q 2138 -91 1772 -91 
Q 1169 -91 856 284 
Q 544 659 544 1381 
z
M 1991 3584 
L 1991 3584 
z
" transform="scale(0.015625)"/>
       <path id="DejaVuSans-6e" d="M 3513 2113 
L 3513 0 
L 2938 0 
L 2938 2094 
Q 2938 2591 2744 2837 
Q 2550 3084 2163 3084 
Q 1697 3084 1428 2787 
Q 1159 2491 1159 1978 
L 1159 0 
L 581 0 
L 581 3500 
L 1159 3500 
L 1159 2956 
Q 1366 3272 1645 3428 
Q 1925 3584 2291 3584 
Q 2894 3584 3203 3211 
Q 3513 2838 3513 2113 
z
" transform="scale(0.015625)"/>
       <path id="DejaVuSans-63" d="M 3122 3366 
L 3122 2828 
Q 2878 2963 2633 3030 
Q 2388 3097 2138 3097 
Q 1578 3097 1268 2742 
Q 959 2388 959 1747 
Q 959 1106 1268 751 
Q 1578 397 2138 397 
Q 2388 397 2633 464 
Q 2878 531 3122 666 
L 3122 134 
Q 2881 22 2623 -34 
Q 2366 -91 2075 -91 
Q 1284 -91 818 406 
Q 353 903 353 1747 
Q 353 2603 823 3093 
Q 1294 3584 2113 3584 
Q 2378 3584 2631 3529 
Q 2884 3475 3122 3366 
z
" transform="scale(0.015625)"/>
       <path id="DejaVuSans-79" d="M 2059 -325 
Q 1816 -950 1584 -1140 
Q 1353 -1331 966 -1331 
L 506 -1331 
L 506 -850 
L 844 -850 
Q 1081 -850 1212 -737 
Q 1344 -625 1503 -206 
L 1606 56 
L 191 3500 
L 800 3500 
L 1894 763 
L 2988 3500 
L 3597 3500 
L 2059 -325 
z
" transform="scale(0.015625)"/>
      </defs>
      <use xlink:href="#DejaVuSans-4e"/>
      <use xlink:href="#DejaVuSans-6f" transform="translate(74.804688 0)"/>
      <use xlink:href="#DejaVuSans-72" transform="translate(135.986328 0)"/>
      <use xlink:href="#DejaVuSans-6d" transform="translate(175.349609 0)"/>
      <use xlink:href="#DejaVuSans-61" transform="translate(272.761719 0)"/>
      <use xlink:href="#DejaVuSans-6c" transform="translate(334.041016 0)"/>
      <use xlink:href="#DejaVuSans-69" transform="translate(361.824219 0)"/>
      <use xlink:href="#DejaVuSans-7a" transform="translate(389.607422 0)"/>
      <use xlink:href="#DejaVuSans-65" transform="translate(442.097656 0)"/>
      <use xlink:href="#DejaVuSans-64" transform="translate(503.621094 0)"/>
      <use xlink:href="#DejaVuSans-20" transform="translate(567.097656 0)"/>
      <use xlink:href="#DejaVuSans-46" transform="translate(598.884766 0)"/>
      <use xlink:href="#DejaVuSans-72" transform="translate(649.154297 0)"/>
      <use xlink:href="#DejaVuSans-65" transform="translate(688.017578 0)"/>
      <use xlink:href="#DejaVuSans-71" transform="translate(749.541016 0)"/>
      <use xlink:href="#DejaVuSans-75" transform="translate(813.017578 0)"/>
      <use xlink:href="#DejaVuSans-65" transform="translate(876.396484 0)"/>
      <use xlink:href="#DejaVuSans-6e" transform="translate(937.919922 0)"/>
      <use xlink:href="#DejaVuSans-63" transform="translate(1001.298828 0)"/>
      <use xlink:href="#DejaVuSans-79" transform="translate(1056.279297 0)"/>
     </g>
    </g>
   </g>
   <g id="matplotlib.axis_2">
    <g id="ytick_1">
     <g id="line2d_6">
      <defs>
       <path id="mb51ec492f0" d="M 0 0 
L -3.5 0 
" style="stroke: #000000; stroke-width: 0.8"/>
      </defs>
      <g>
       <use xlink:href="#mb51ec492f0" x="57.528957" y="266.663863" style="stroke: #000000; stroke-width: 0.8"/>
      </g>
     </g>
     <g id="text_7">
      <!-- −80 -->
      <g transform="translate(29.424269 270.463082) scale(0.1 -0.1)">
       <defs>
        <path id="DejaVuSans-38" d="M 2034 2216 
Q 1584 2216 1326 1975 
Q 1069 1734 1069 1313 
Q 1069 891 1326 650 
Q 1584 409 2034 409 
Q 2484 409 2743 651 
Q 3003 894 3003 1313 
Q 3003 1734 2745 1975 
Q 2488 2216 2034 2216 
z
M 1403 2484 
Q 997 2584 770 2862 
Q 544 3141 544 3541 
Q 544 4100 942 4425 
Q 1341 4750 2034 4750 
Q 2731 4750 3128 4425 
Q 3525 4100 3525 3541 
Q 3525 3141 3298 2862 
Q 3072 2584 2669 2484 
Q 3125 2378 3379 2068 
Q 3634 1759 3634 1313 
Q 3634 634 3220 271 
Q 2806 -91 2034 -91 
Q 1263 -91 848 271 
Q 434 634 434 1313 
Q 434 1759 690 2068 
Q 947 2378 1403 2484 
z
M 1172 3481 
Q 1172 3119 1398 2916 
Q 1625 2713 2034 2713 
Q 2441 2713 2670 2916 
Q 2900 3119 2900 3481 
Q 2900 3844 2670 4047 
Q 2441 4250 2034 4250 
Q 1625 4250 1398 4047 
Q 1172 3844 1172 3481 
z
" transform="scale(0.015625)"/>
       </defs>
       <use xlink:href="#DejaVuSans-2212"/>
       <use xlink:href="#DejaVuSans-38" transform="translate(83.789062 0)"/>
       <use xlink:href="#DejaVuSans-30" transform="translate(147.412109 0)"/>
      </g>
     </g>
    </g>
    <g id="ytick_2">
     <g id="line2d_7">
      <g>
       <use xlink:href="#mb51ec492f0" x="57.528957" y="213.379462" style="stroke: #000000; stroke-width: 0.8"/>
      </g>
     </g>
     <g id="text_8">
      <!-- −60 -->
      <g transform="translate(29.424269 217.178681) scale(0.1 -0.1)">
       <defs>
        <path id="DejaVuSans-36" d="M 2113 2584 
Q 1688 2584 1439 2293 
Q 1191 2003 1191 1497 
Q 1191 994 1439 701 
Q 1688 409 2113 409 
Q 2538 409 2786 701 
Q 3034 994 3034 1497 
Q 3034 2003 2786 2293 
Q 2538 2584 2113 2584 
z
M 3366 4563 
L 3366 3988 
Q 3128 4100 2886 4159 
Q 2644 4219 2406 4219 
Q 1781 4219 1451 3797 
Q 1122 3375 1075 2522 
Q 1259 2794 1537 2939 
Q 1816 3084 2150 3084 
Q 2853 3084 3261 2657 
Q 3669 2231 3669 1497 
Q 3669 778 3244 343 
Q 2819 -91 2113 -91 
Q 1303 -91 875 529 
Q 447 1150 447 2328 
Q 447 3434 972 4092 
Q 1497 4750 2381 4750 
Q 2619 4750 2861 4703 
Q 3103 4656 3366 4563 
z
" transform="scale(0.015625)"/>
       </defs>
       <use xlink:href="#DejaVuSans-2212"/>
       <use xlink:href="#DejaVuSans-36" transform="translate(83.789062 0)"/>
       <use xlink:href="#DejaVuSans-30" transform="translate(147.412109 0)"/>
      </g>
     </g>
    </g>
    <g id="ytick_3">
     <g id="line2d_8">
      <g>
       <use xlink:href="#mb51ec492f0" x="57.528957" y="160.095061" style="stroke: #000000; stroke-width: 0.8"/>
      </g>
     </g>
     <g id="text_9">
      <!-- −40 -->
      <g transform="translate(29.424269 163.89428) scale(0.1 -0.1)">
       <use xlink:href="#DejaVuSans-2212"/>
       <use xlink:href="#DejaVuSans-34" transform="translate(83.789062 0)"/>
       <use xlink:href="#DejaVuSans-30" transform="translate(147.412109 0)"/>
      </g>
     </g>
    </g>
    <g id="ytick_4">
     <g id="line2d_9">
      <g>
       <use xlink:href="#mb51ec492f0" x="57.528957" y="106.810661" style="stroke: #000000; stroke-width: 0.8"/>
      </g>
     </g>
     <g id="text_10">
      <!-- −20 -->
      <g transform="translate(29.424269 110.609879) scale(0.1 -0.1)">
       <use xlink:href="#DejaVuSans-2212"/>
       <use xlink:href="#DejaVuSans-32" transform="translate(83.789062 0)"/>
       <use xlink:href="#DejaVuSans-30" transform="translate(147.412109 0)"/>
      </g>
     </g>
    </g>
    <g id="ytick_5">
     <g id="line2d_10">
      <g>
       <use xlink:href="#mb51ec492f0" x="57.528957" y="53.52626" style="stroke: #000000; stroke-width: 0.8"/>
      </g>
     </g>
     <g id="text_11">
      <!-- 0 -->
      <g transform="translate(44.166457 57.325479) scale(0.1 -0.1)">
       <use xlink:href="#DejaVuSans-30"/>
      </g>
     </g>
    </g>
   </g>
   <g id="line2d_11">
    <path d="M 73.741663 229.548711 
L 73.871377 281.903153 
L 76.952099 281.942245 
L 76.984528 247.571665 
L 77.049385 281.943236 
L 80.194965 281.88322 
L 80.227394 276.810007 
L 80.292251 281.878826 
L 83.43783 281.846533 
L 83.470259 224.369771 
L 83.535116 281.853348 
L 85.318692 282.097447 
L 86.680696 282.388788 
L 86.713125 271.916333 
L 86.777982 282.409883 
L 88.626415 282.694449 
L 89.858704 282.655606 
L 89.923561 282.647271 
L 89.95599 244.178404 
L 90.020847 282.633613 
L 91.350422 282.326215 
L 93.166427 281.737878 
L 93.198856 240.675658 
L 93.263713 281.708271 
L 94.852717 281.345212 
L 96.247149 281.261059 
L 96.409292 281.264782 
L 96.441721 280.91386 
L 96.506578 281.268156 
L 98.582012 281.461286 
L 99.652158 281.563701 
L 99.684587 295.257756 
L 99.749444 281.570708 
L 101.857306 281.605294 
L 102.895023 281.562728 
L 102.927452 256.801245 
L 102.992309 281.557949 
L 106.137889 281.391962 
L 106.170317 271.533329 
L 106.235175 281.385184 
L 108.699753 281.098203 
L 109.380754 280.982035 
L 109.413183 240.746656 
L 109.47804 280.964826 
L 112.526334 280.533544 
L 112.62362 280.527072 
L 112.656048 282.392024 
L 112.720906 280.52115 
L 115.055769 280.497709 
L 115.866485 280.498786 
L 115.898914 257.130612 
L 115.963771 280.497441 
L 117.877062 280.357477 
L 119.109351 280.14001 
L 119.141779 252.197913 
L 119.206637 280.119411 
L 122.352216 279.402016 
L 122.384645 254.59703 
L 122.449502 279.382789 
L 124.751937 279.043954 
L 125.595082 278.974053 
L 125.62751 262.216636 
L 125.692368 278.967602 
L 128.837947 278.873164 
L 128.870376 240.038089 
L 128.935233 278.871635 
L 132.048384 278.712755 
L 132.080813 278.709332 
L 132.113241 246.580289 
L 132.178099 278.698793 
L 134.415676 278.340752 
L 135.323678 278.125364 
L 135.356107 239.629082 
L 135.420964 278.099377 
L 137.172111 277.512461 
L 138.566544 276.879684 
L 138.598972 179.058159 
L 138.66383 276.832116 
L 140.57712 276.014072 
L 141.420265 275.899854 
L 141.809409 275.948276 
L 141.841838 139.516639 
L 141.906695 275.972838 
L 142.52284 276.264776 
L 143.106555 276.800254 
L 143.690271 277.64814 
L 144.306416 278.955055 
L 144.954989 280.878161 
L 145.052275 281.22078 
L 145.084703 113.049112 
L 145.149561 281.578301 
L 145.89542 284.821975 
L 147.549281 292.497952 
L 147.743853 292.62563 
L 147.905996 292.450515 
L 148.132997 291.759378 
L 148.29514 290.965929 
L 148.327569 93.805242 
L 148.392426 290.38435 
L 148.911285 286.352152 
L 150.95429 269.367999 
L 151.538006 265.660819 
L 151.570434 79.765698 
L 151.635292 265.093651 
L 152.608151 260.137268 
L 153.548582 256.436534 
L 154.456585 253.735314 
L 154.780871 252.95954 
L 154.8133 69.596884 
L 154.878157 252.745325 
L 155.656445 251.32955 
L 156.337446 250.511689 
L 156.953591 250.100971 
L 157.504878 249.995961 
L 158.023737 250.123903 
L 158.056165 62.553126 
L 158.121023 250.172513 
L 158.67231 250.596181 
L 159.288454 251.371369 
L 159.969456 252.603957 
L 160.747744 254.492639 
L 161.266602 256.017375 
L 161.299031 58.012267 
L 161.363888 256.324036 
L 163.698751 263.442756 
L 164.055466 263.806276 
L 164.314896 263.812844 
L 164.509468 263.668188 
L 164.541896 55.391619 
L 164.606753 263.548267 
L 164.963469 262.853579 
L 165.482327 261.249747 
L 166.390329 257.526626 
L 167.752333 251.860283 
L 167.784762 54.123108 
L 167.849619 251.494166 
L 168.919765 247.929064 
L 169.860196 245.511502 
L 170.735769 243.839661 
L 170.995198 243.446859 
L 171.027627 53.657563 
L 171.092484 243.311339 
L 171.838343 242.481715 
L 172.519345 242.040992 
L 173.13549 241.898383 
L 173.719205 241.987436 
L 174.238064 242.251847 
L 174.270493 53.552247 
L 174.33535 242.321134 
L 174.983923 242.945971 
L 175.697353 243.973053 
L 176.443212 245.45463 
L 177.253929 247.58417 
L 177.480929 248.285611 
L 177.513358 53.556691 
L 177.578215 248.601088 
L 178.453789 251.86316 
L 179.426649 256.418245 
L 180.723795 263.449691 
L 180.756224 53.549679 
L 180.821081 263.940607 
L 181.404797 266.311026 
L 181.761512 266.999649 
L 181.988512 267.043265 
L 182.183084 266.826018 
L 182.474942 266.08937 
L 182.928943 264.173346 
L 183.836946 259.06867 
L 183.96666 258.315865 
L 183.999089 53.548727 
L 184.063946 257.756243 
L 185.263807 251.507743 
L 186.269095 247.406375 
L 187.209526 244.457067 
L 187.241955 53.556052 
L 187.306812 244.196631 
L 188.182386 242.198977 
L 188.993102 240.869168 
L 189.738961 240.056716 
L 190.387534 239.65786 
L 190.452391 239.633504 
L 190.48482 53.558693 
L 190.549677 239.602254 
L 191.133393 239.548172 
L 191.717109 239.725359 
L 192.300825 240.140771 
L 192.949398 240.896286 
L 193.6304 242.049114 
L 193.695257 242.179492 
L 193.727686 53.55348 
L 193.792543 242.382103 
L 194.538402 244.233971 
L 195.31669 246.804746 
L 196.094977 250.179419 
L 196.873265 254.588946 
L 196.938122 255.012667 
L 196.970551 53.548406 
L 197.035408 255.666326 
L 197.813696 261.749776 
L 199.435129 275.309239 
L 199.564843 275.360341 
L 199.694558 275.086222 
L 199.921559 273.892638 
L 200.180988 271.701677 
L 200.213416 53.550063 
L 200.278274 270.738193 
L 202.06185 253.58758 
L 202.969852 247.580448 
L 203.423853 245.134484 
L 203.456282 53.557042 
L 203.521139 244.651039 
L 204.46157 240.612505 
L 205.402001 237.538926 
L 206.310004 235.315612 
L 206.666719 234.618603 
L 206.699147 53.5584 
L 206.764005 234.444765 
L 207.574721 233.256004 
L 208.288152 232.579647 
L 208.936725 232.257477 
L 209.52044 232.206802 
L 209.909584 232.301861 
L 209.942013 53.553847 
L 210.00687 232.342135 
L 210.590586 232.727346 
L 211.20673 233.41605 
L 211.855304 234.487011 
L 212.536305 236.050253 
L 213.15245 237.926387 
L 213.184878 53.543908 
L 213.249736 238.269102 
L 213.963166 241.247891 
L 214.644168 245.058329 
L 215.292741 249.976004 
L 215.876457 256.107475 
L 216.395315 263.900838 
L 216.427744 53.542785 
L 216.492601 265.742819 
L 216.946602 276.840049 
L 217.465461 291.092319 
L 217.497889 291.079204 
L 217.595175 289.787772 
L 217.887033 280.275677 
L 218.470749 263.747662 
L 219.086894 252.731604 
L 219.638181 245.666387 
L 219.670609 53.562281 
L 219.735467 244.594011 
L 220.546183 237.034871 
L 221.454185 230.5638 
L 222.491902 224.761382 
L 222.881046 222.899323 
L 222.913475 53.566457 
L 222.978332 222.455987 
L 224.113335 217.840086 
L 225.313195 213.860751 
L 226.123912 211.582133 
L 226.15634 53.567009 
L 226.221198 211.327985 
L 227.485915 208.356967 
L 228.750633 205.931978 
L 229.366777 204.924543 
L 229.399206 53.542103 
L 229.464063 204.77522 
L 230.696352 203.102058 
L 231.896212 201.841029 
L 232.609643 201.254555 
L 232.642071 53.52626 
L 232.706929 201.183786 
L 233.809503 200.533541 
L 234.84722 200.17286 
L 235.852508 200.053046 
L 235.884937 152.437763 
L 235.949794 200.053397 
L 236.955082 200.180477 
L 237.960371 200.533541 
L 238.998088 201.137824 
L 239.095374 201.207132 
L 239.127802 53.52626 
L 239.19266 201.278632 
L 240.295234 202.244215 
L 241.430237 203.54576 
L 242.338239 204.824705 
L 242.370668 53.542103 
L 242.435525 204.974898 
L 243.635385 207.05069 
L 244.835245 209.579189 
L 245.581105 211.412266 
L 245.613533 53.567009 
L 245.678391 211.667725 
L 246.845822 215.065217 
L 247.980825 219.063165 
L 248.82397 222.602828 
L 248.856399 53.566457 
L 248.921256 223.048997 
L 249.926544 228.225583 
L 250.834547 234.060405 
L 251.645263 240.693831 
L 252.066836 244.946654 
L 252.099264 53.562281 
L 252.164121 246.033741 
L 252.812695 254.707071 
L 253.363982 265.211365 
L 253.850412 279.144558 
L 254.271984 291.079204 
L 254.304413 291.092319 
L 254.401699 289.89513 
L 254.693557 280.928271 
L 255.244844 266.391615 
L 255.309701 265.111925 
L 255.34213 53.542785 
L 255.406987 263.319231 
L 255.990703 254.932458 
L 256.639276 248.595742 
L 257.352706 243.660978 
L 258.130994 239.785261 
L 258.552566 238.153337 
L 258.584995 53.543908 
L 258.649852 237.815165 
L 259.42814 235.55327 
L 260.173999 234.013238 
L 260.88743 233.01593 
L 261.536003 232.462349 
L 261.795432 232.327967 
L 261.827861 53.553847 
L 261.892718 232.289919 
L 262.476434 232.199279 
L 263.06015 232.338604 
L 263.676294 232.730509 
L 264.324867 233.415678 
L 265.038297 234.501949 
L 265.070726 53.5584 
L 265.135583 234.678078 
L 265.913871 236.343439 
L 266.757016 238.707413 
L 267.600161 241.751432 
L 268.281163 244.810681 
L 268.313592 53.557042 
L 268.378449 245.298677 
L 269.221594 250.164947 
L 270.03231 256.1717 
L 270.875455 264.163938 
L 271.524028 271.06526 
L 271.556457 53.550063 
L 271.621314 272.009513 
L 272.042887 274.968499 
L 272.269887 275.375554 
L 272.399602 275.163352 
L 272.626603 274.089017 
L 273.015747 270.85412 
L 274.604751 256.57271 
L 274.766894 255.445994 
L 274.799323 53.548406 
L 274.86418 254.799619 
L 275.707325 250.020065 
L 276.55047 246.443214 
L 277.393615 243.784258 
L 278.009759 242.313619 
L 278.042188 53.55348 
L 278.107045 242.113837 
L 278.885333 240.806213 
L 279.598763 240.027348 
L 280.247337 239.640263 
L 280.831052 239.540719 
L 281.252625 239.611966 
L 281.285054 53.558693 
L 281.349911 239.64533 
L 281.933627 239.978823 
L 282.5822 240.620115 
L 283.29563 241.664911 
L 284.073918 243.233378 
L 284.49549 244.282555 
L 284.527919 53.556052 
L 284.592776 244.545663 
L 285.435921 247.176693 
L 286.343924 250.775303 
L 287.316783 255.5822 
L 287.738356 257.942218 
L 287.770784 53.548727 
L 287.835642 258.50345 
L 289.197645 265.747236 
L 289.619218 266.878213 
L 289.878647 267.063926 
L 290.073219 266.928782 
L 290.332648 266.402266 
L 290.721792 265.000585 
L 290.981221 263.779003 
L 291.01365 53.549679 
L 291.078507 263.282268 
L 293.575514 250.815086 
L 294.224087 248.494925 
L 294.256515 53.556691 
L 294.321373 248.182451 
L 295.229375 245.680542 
L 296.07252 243.973053 
L 296.850808 242.870536 
L 297.466952 242.29734 
L 297.499381 53.552247 
L 297.564238 242.230146 
L 298.212811 241.940717 
L 298.796527 241.9124 
L 299.380243 242.10194 
L 299.996387 242.539329 
L 300.677389 243.311339 
L 300.709818 243.355802 
L 300.742246 53.657563 
L 300.807104 243.493454 
L 301.552963 244.764827 
L 302.363679 246.596018 
L 303.271681 249.23007 
L 303.952683 251.615466 
L 303.985112 54.123108 
L 304.049969 251.983787 
L 305.347115 257.385573 
L 306.546976 262.126062 
L 307.065834 263.397529 
L 307.195549 263.591708 
L 307.227977 55.391619 
L 307.292835 263.701175 
L 307.584693 263.837882 
L 307.844122 263.719534 
L 308.168408 263.279153 
L 308.62241 262.222044 
L 309.400697 259.728691 
L 310.438414 256.221155 
L 310.470843 58.012267 
L 310.5357 255.916503 
L 311.50856 253.25316 
L 312.319276 251.628914 
L 313.032707 250.662697 
L 313.648851 250.172513 
L 313.68128 250.155442 
L 313.713708 62.553126 
L 313.778566 250.109433 
L 314.329853 249.995457 
L 314.848711 250.114859 
L 315.399998 250.482322 
L 316.016143 251.18902 
L 316.697145 252.342081 
L 316.924145 252.815791 
L 316.956574 69.596884 
L 317.021431 253.032827 
L 317.799719 255.082441 
L 318.642864 257.974315 
L 319.518438 261.810597 
L 320.167011 265.281164 
L 320.199439 79.765698 
L 320.264297 265.852981 
L 321.172299 271.905952 
L 322.177587 280.194302 
L 323.409876 290.586285 
L 323.442305 93.805242 
L 323.507162 291.142995 
L 323.863877 292.450515 
L 324.090878 292.622454 
L 324.253021 292.443628 
L 324.51245 291.72274 
L 324.966452 289.63843 
L 326.555456 281.825024 
L 326.652742 281.457458 
L 326.68517 113.049112 
L 326.750028 281.104928 
L 327.495887 278.874415 
L 328.176888 277.482412 
L 328.825461 276.62283 
L 329.441606 276.145251 
L 329.895607 275.964058 
L 329.928036 139.516639 
L 329.992893 275.941259 
L 330.673895 275.912855 
L 331.51704 276.116345 
L 332.846615 276.70497 
L 333.138473 276.847988 
L 333.170901 179.058159 
L 333.235759 276.895502 
L 335.278764 277.769419 
L 336.381338 278.108107 
L 336.413767 239.629082 
L 336.478624 278.133892 
L 338.554058 278.560821 
L 339.624204 278.702351 
L 339.656632 246.580289 
L 339.72149 278.712755 
L 342.186067 278.85898 
L 342.867069 278.872152 
L 342.899498 240.038089 
L 342.964355 278.873661 
L 346.109935 278.969718 
L 346.142363 262.216636 
L 346.20722 278.976274 
L 348.606941 279.253523 
L 349.3528 279.389157 
L 349.385229 254.59703 
L 349.450086 279.408505 
L 352.595665 280.126321 
L 352.628094 252.197913 
L 352.692951 280.146786 
L 354.638671 280.440912 
L 355.838531 280.497935 
L 355.87096 257.130612 
L 355.935817 280.499145 
L 359.081396 280.523063 
L 359.113825 282.392024 
L 359.178682 280.529168 
L 361.189259 280.772059 
L 362.324262 280.970572 
L 362.356691 240.746656 
L 362.421548 280.98775 
L 365.145555 281.355257 
L 365.567127 281.387472 
L 365.599556 271.533329 
L 365.664413 281.394165 
L 368.809993 281.559549 
L 368.842422 256.801245 
L 368.907279 281.564305 
L 371.696143 281.590599 
L 372.052858 281.568424 
L 372.085287 295.257756 
L 372.150144 281.561263 
L 375.295724 281.266939 
L 375.328152 280.91386 
L 375.39301 281.263844 
L 376.852299 281.336274 
L 378.27916 281.641736 
L 378.538589 281.718073 
L 378.571018 240.675658 
L 378.635875 281.747877 
L 381.781455 282.638319 
L 381.813883 244.178404 
L 381.878741 282.651516 
L 383.11103 282.69626 
L 384.505462 282.510333 
L 385.02432 282.402877 
L 385.056749 271.916333 
L 385.121606 282.381709 
L 387.942899 281.877889 
L 388.267186 281.851002 
L 388.299614 224.369771 
L 388.364472 281.84441 
L 390.34262 281.830422 
L 391.510051 281.880296 
L 391.54248 276.810007 
L 391.607337 281.884673 
L 394.752917 281.942919 
L 394.785345 247.571665 
L 394.850203 281.94189 
L 397.995782 281.903056 
L 397.995782 281.903056 
" clip-path="url(#pc6e94b187c)" style="fill: none; stroke: #000000; stroke-width: 2; stroke-linecap: square"/>
   </g>
   <g id="patch_3">
    <path d="M 57.528957 307.344331 
L 57.528957 41.439685 
" style="fill: none; stroke: #000000; stroke-width: 0.8; stroke-linejoin: miter; stroke-linecap: square"/>
   </g>
   <g id="patch_4">
    <path d="M 414.208488 307.344331 
L 414.208488 41.439685 
" style="fill: none; stroke: #000000; stroke-width: 0.8; stroke-linejoin: miter; stroke-linecap: square"/>
   </g>
   <g id="patch_5">
    <path d="M 57.528957 307.344331 
L 414.208488 307.344331 
" style="fill: none; stroke: #000000; stroke-width: 0.8; stroke-linejoin: miter; stroke-linecap: square"/>
   </g>
   <g id="patch_6">
    <path d="M 57.528957 41.439685 
L 414.208488 41.439685 
" style="fill: none; stroke: #000000; stroke-width: 0.8; stroke-linejoin: miter; stroke-linecap: square"/>
   </g>
   <g id="text_12">
    <!-- Filtered (MultiCycle FIR: Taps= 39, MACS= 13) -->
    <g transform="translate(97.537785 35.439685) scale(0.12 -0.12)">
     <defs>
      <path id="DejaVuSans-74" d="M 1172 4494 
L 1172 3500 
L 2356 3500 
L 2356 3053 
L 1172 3053 
L 1172 1153 
Q 1172 725 1289 603 
Q 1406 481 1766 481 
L 2356 481 
L 2356 0 
L 1766 0 
Q 1100 0 847 248 
Q 594 497 594 1153 
L 594 3053 
L 172 3053 
L 172 3500 
L 594 3500 
L 594 4494 
L 1172 4494 
z
" transform="scale(0.015625)"/>
      <path id="DejaVuSans-28" d="M 1984 4856 
Q 1566 4138 1362 3434 
Q 1159 2731 1159 2009 
Q 1159 1288 1364 580 
Q 1569 -128 1984 -844 
L 1484 -844 
Q 1016 -109 783 600 
Q 550 1309 550 2009 
Q 550 2706 781 3412 
Q 1013 4119 1484 4856 
L 1984 4856 
z
" transform="scale(0.015625)"/>
      <path id="DejaVuSans-4d" d="M 628 4666 
L 1569 4666 
L 2759 1491 
L 3956 4666 
L 4897 4666 
L 4897 0 
L 4281 0 
L 4281 4097 
L 3078 897 
L 2444 897 
L 1241 4097 
L 1241 0 
L 628 0 
L 628 4666 
z
" transform="scale(0.015625)"/>
      <path id="DejaVuSans-43" d="M 4122 4306 
L 4122 3641 
Q 3803 3938 3442 4084 
Q 3081 4231 2675 4231 
Q 1875 4231 1450 3742 
Q 1025 3253 1025 2328 
Q 1025 1406 1450 917 
Q 1875 428 2675 428 
Q 3081 428 3442 575 
Q 3803 722 4122 1019 
L 4122 359 
Q 3791 134 3420 21 
Q 3050 -91 2638 -91 
Q 1578 -91 968 557 
Q 359 1206 359 2328 
Q 359 3453 968 4101 
Q 1578 4750 2638 4750 
Q 3056 4750 3426 4639 
Q 3797 4528 4122 4306 
z
" transform="scale(0.015625)"/>
      <path id="DejaVuSans-49" d="M 628 4666 
L 1259 4666 
L 1259 0 
L 628 0 
L 628 4666 
z
" transform="scale(0.015625)"/>
      <path id="DejaVuSans-52" d="M 2841 2188 
Q 3044 2119 3236 1894 
Q 3428 1669 3622 1275 
L 4263 0 
L 3584 0 
L 2988 1197 
Q 2756 1666 2539 1819 
Q 2322 1972 1947 1972 
L 1259 1972 
L 1259 0 
L 628 0 
L 628 4666 
L 2053 4666 
Q 2853 4666 3247 4331 
Q 3641 3997 3641 3322 
Q 3641 2881 3436 2590 
Q 3231 2300 2841 2188 
z
M 1259 4147 
L 1259 2491 
L 2053 2491 
Q 2509 2491 2742 2702 
Q 2975 2913 2975 3322 
Q 2975 3731 2742 3939 
Q 2509 4147 2053 4147 
L 1259 4147 
z
" transform="scale(0.015625)"/>
      <path id="DejaVuSans-3a" d="M 750 794 
L 1409 794 
L 1409 0 
L 750 0 
L 750 794 
z
M 750 3309 
L 1409 3309 
L 1409 2516 
L 750 2516 
L 750 3309 
z
" transform="scale(0.015625)"/>
      <path id="DejaVuSans-54" d="M -19 4666 
L 3928 4666 
L 3928 4134 
L 2272 4134 
L 2272 0 
L 1638 0 
L 1638 4134 
L -19 4134 
L -19 4666 
z
" transform="scale(0.015625)"/>
      <path id="DejaVuSans-70" d="M 1159 525 
L 1159 -1331 
L 581 -1331 
L 581 3500 
L 1159 3500 
L 1159 2969 
Q 1341 3281 1617 3432 
Q 1894 3584 2278 3584 
Q 2916 3584 3314 3078 
Q 3713 2572 3713 1747 
Q 3713 922 3314 415 
Q 2916 -91 2278 -91 
Q 1894 -91 1617 61 
Q 1341 213 1159 525 
z
M 3116 1747 
Q 3116 2381 2855 2742 
Q 2594 3103 2138 3103 
Q 1681 3103 1420 2742 
Q 1159 2381 1159 1747 
Q 1159 1113 1420 752 
Q 1681 391 2138 391 
Q 2594 391 2855 752 
Q 3116 1113 3116 1747 
z
" transform="scale(0.015625)"/>
      <path id="DejaVuSans-73" d="M 2834 3397 
L 2834 2853 
Q 2591 2978 2328 3040 
Q 2066 3103 1784 3103 
Q 1356 3103 1142 2972 
Q 928 2841 928 2578 
Q 928 2378 1081 2264 
Q 1234 2150 1697 2047 
L 1894 2003 
Q 2506 1872 2764 1633 
Q 3022 1394 3022 966 
Q 3022 478 2636 193 
Q 2250 -91 1575 -91 
Q 1294 -91 989 -36 
Q 684 19 347 128 
L 347 722 
Q 666 556 975 473 
Q 1284 391 1588 391 
Q 1994 391 2212 530 
Q 2431 669 2431 922 
Q 2431 1156 2273 1281 
Q 2116 1406 1581 1522 
L 1381 1569 
Q 847 1681 609 1914 
Q 372 2147 372 2553 
Q 372 3047 722 3315 
Q 1072 3584 1716 3584 
Q 2034 3584 2315 3537 
Q 2597 3491 2834 3397 
z
" transform="scale(0.015625)"/>
      <path id="DejaVuSans-3d" d="M 678 2906 
L 4684 2906 
L 4684 2381 
L 678 2381 
L 678 2906 
z
M 678 1631 
L 4684 1631 
L 4684 1100 
L 678 1100 
L 678 1631 
z
" transform="scale(0.015625)"/>
      <path id="DejaVuSans-33" d="M 2597 2516 
Q 3050 2419 3304 2112 
Q 3559 1806 3559 1356 
Q 3559 666 3084 287 
Q 2609 -91 1734 -91 
Q 1441 -91 1130 -33 
Q 819 25 488 141 
L 488 750 
Q 750 597 1062 519 
Q 1375 441 1716 441 
Q 2309 441 2620 675 
Q 2931 909 2931 1356 
Q 2931 1769 2642 2001 
Q 2353 2234 1838 2234 
L 1294 2234 
L 1294 2753 
L 1863 2753 
Q 2328 2753 2575 2939 
Q 2822 3125 2822 3475 
Q 2822 3834 2567 4026 
Q 2313 4219 1838 4219 
Q 1578 4219 1281 4162 
Q 984 4106 628 3988 
L 628 4550 
Q 988 4650 1302 4700 
Q 1616 4750 1894 4750 
Q 2613 4750 3031 4423 
Q 3450 4097 3450 3541 
Q 3450 3153 3228 2886 
Q 3006 2619 2597 2516 
z
" transform="scale(0.015625)"/>
      <path id="DejaVuSans-39" d="M 703 97 
L 703 672 
Q 941 559 1184 500 
Q 1428 441 1663 441 
Q 2288 441 2617 861 
Q 2947 1281 2994 2138 
Q 2813 1869 2534 1725 
Q 2256 1581 1919 1581 
Q 1219 1581 811 2004 
Q 403 2428 403 3163 
Q 403 3881 828 4315 
Q 1253 4750 1959 4750 
Q 2769 4750 3195 4129 
Q 3622 3509 3622 2328 
Q 3622 1225 3098 567 
Q 2575 -91 1691 -91 
Q 1453 -91 1209 -44 
Q 966 3 703 97 
z
M 1959 2075 
Q 2384 2075 2632 2365 
Q 2881 2656 2881 3163 
Q 2881 3666 2632 3958 
Q 2384 4250 1959 4250 
Q 1534 4250 1286 3958 
Q 1038 3666 1038 3163 
Q 1038 2656 1286 2365 
Q 1534 2075 1959 2075 
z
" transform="scale(0.015625)"/>
      <path id="DejaVuSans-2c" d="M 750 794 
L 1409 794 
L 1409 256 
L 897 -744 
L 494 -744 
L 750 256 
L 750 794 
z
" transform="scale(0.015625)"/>
      <path id="DejaVuSans-41" d="M 2188 4044 
L 1331 1722 
L 3047 1722 
L 2188 4044 
z
M 1831 4666 
L 2547 4666 
L 4325 0 
L 3669 0 
L 3244 1197 
L 1141 1197 
L 716 0 
L 50 0 
L 1831 4666 
z
" transform="scale(0.015625)"/>
      <path id="DejaVuSans-53" d="M 3425 4513 
L 3425 3897 
Q 3066 4069 2747 4153 
Q 2428 4238 2131 4238 
Q 1616 4238 1336 4038 
Q 1056 3838 1056 3469 
Q 1056 3159 1242 3001 
Q 1428 2844 1947 2747 
L 2328 2669 
Q 3034 2534 3370 2195 
Q 3706 1856 3706 1288 
Q 3706 609 3251 259 
Q 2797 -91 1919 -91 
Q 1588 -91 1214 -16 
Q 841 59 441 206 
L 441 856 
Q 825 641 1194 531 
Q 1563 422 1919 422 
Q 2459 422 2753 634 
Q 3047 847 3047 1241 
Q 3047 1584 2836 1778 
Q 2625 1972 2144 2069 
L 1759 2144 
Q 1053 2284 737 2584 
Q 422 2884 422 3419 
Q 422 4038 858 4394 
Q 1294 4750 2059 4750 
Q 2388 4750 2728 4690 
Q 3069 4631 3425 4513 
z
" transform="scale(0.015625)"/>
      <path id="DejaVuSans-31" d="M 794 531 
L 1825 531 
L 1825 4091 
L 703 3866 
L 703 4441 
L 1819 4666 
L 2450 4666 
L 2450 531 
L 3481 531 
L 3481 0 
L 794 0 
L 794 531 
z
" transform="scale(0.015625)"/>
      <path id="DejaVuSans-29" d="M 513 4856 
L 1013 4856 
Q 1481 4119 1714 3412 
Q 1947 2706 1947 2009 
Q 1947 1309 1714 600 
Q 1481 -109 1013 -844 
L 513 -844 
Q 928 -128 1133 580 
Q 1338 1288 1338 2009 
Q 1338 2731 1133 3434 
Q 928 4138 513 4856 
z
" transform="scale(0.015625)"/>
     </defs>
     <use xlink:href="#DejaVuSans-46"/>
     <use xlink:href="#DejaVuSans-69" transform="translate(50.269531 0)"/>
     <use xlink:href="#DejaVuSans-6c" transform="translate(78.052734 0)"/>
     <use xlink:href="#DejaVuSans-74" transform="translate(105.835938 0)"/>
     <use xlink:href="#DejaVuSans-65" transform="translate(145.044922 0)"/>
     <use xlink:href="#DejaVuSans-72" transform="translate(206.568359 0)"/>
     <use xlink:href="#DejaVuSans-65" transform="translate(245.431641 0)"/>
     <use xlink:href="#DejaVuSans-64" transform="translate(306.955078 0)"/>
     <use xlink:href="#DejaVuSans-20" transform="translate(370.431641 0)"/>
     <use xlink:href="#DejaVuSans-28" transform="translate(402.21875 0)"/>
     <use xlink:href="#DejaVuSans-4d" transform="translate(441.232422 0)"/>
     <use xlink:href="#DejaVuSans-75" transform="translate(527.511719 0)"/>
     <use xlink:href="#DejaVuSans-6c" transform="translate(590.890625 0)"/>
     <use xlink:href="#DejaVuSans-74" transform="translate(618.673828 0)"/>
     <use xlink:href="#DejaVuSans-69" transform="translate(657.882812 0)"/>
     <use xlink:href="#DejaVuSans-43" transform="translate(685.666016 0)"/>
     <use xlink:href="#DejaVuSans-79" transform="translate(755.490234 0)"/>
     <use xlink:href="#DejaVuSans-63" transform="translate(814.669922 0)"/>
     <use xlink:href="#DejaVuSans-6c" transform="translate(869.650391 0)"/>
     <use xlink:href="#DejaVuSans-65" transform="translate(897.433594 0)"/>
     <use xlink:href="#DejaVuSans-20" transform="translate(958.957031 0)"/>
     <use xlink:href="#DejaVuSans-46" transform="translate(990.744141 0)"/>
     <use xlink:href="#DejaVuSans-49" transform="translate(1048.263672 0)"/>
     <use xlink:href="#DejaVuSans-52" transform="translate(1077.755859 0)"/>
     <use xlink:href="#DejaVuSans-3a" transform="translate(1144.113281 0)"/>
     <use xlink:href="#DejaVuSans-20" transform="translate(1177.804688 0)"/>
     <use xlink:href="#DejaVuSans-54" transform="translate(1209.591797 0)"/>
     <use xlink:href="#DejaVuSans-61" transform="translate(1254.175781 0)"/>
     <use xlink:href="#DejaVuSans-70" transform="translate(1315.455078 0)"/>
     <use xlink:href="#DejaVuSans-73" transform="translate(1378.931641 0)"/>
     <use xlink:href="#DejaVuSans-3d" transform="translate(1431.03125 0)"/>
     <use xlink:href="#DejaVuSans-20" transform="translate(1514.820312 0)"/>
     <use xlink:href="#DejaVuSans-33" transform="translate(1546.607422 0)"/>
     <use xlink:href="#DejaVuSans-39" transform="translate(1610.230469 0)"/>
     <use xlink:href="#DejaVuSans-2c" transform="translate(1673.853516 0)"/>
     <use xlink:href="#DejaVuSans-20" transform="translate(1705.640625 0)"/>
     <use xlink:href="#DejaVuSans-4d" transform="translate(1737.427734 0)"/>
     <use xlink:href="#DejaVuSans-41" transform="translate(1823.707031 0)"/>
     <use xlink:href="#DejaVuSans-43" transform="translate(1890.365234 0)"/>
     <use xlink:href="#DejaVuSans-53" transform="translate(1960.189453 0)"/>
     <use xlink:href="#DejaVuSans-3d" transform="translate(2023.666016 0)"/>
     <use xlink:href="#DejaVuSans-20" transform="translate(2107.455078 0)"/>
     <use xlink:href="#DejaVuSans-31" transform="translate(2139.242188 0)"/>
     <use xlink:href="#DejaVuSans-33" transform="translate(2202.865234 0)"/>
     <use xlink:href="#DejaVuSans-29" transform="translate(2266.488281 0)"/>
    </g>
   </g>
  </g>
 </g>
 <defs>
  <clipPath id="pc6e94b187c">
   <rect x="57.528957" y="41.439685" width="356.679531" height="265.904646"/>
  </clipPath>
 </defs>
</svg>
